<?xml version="1.0" encoding="utf-8"?>
<!-- Generator: Adobe Illustrator 27.0.1, SVG Export Plug-In . SVG Version: 6.00 Build 0)  -->
<svg version="1.1"
	 id="svg2" xmlns:svg="http://www.w3.org/2000/svg" xmlns:mapsvg="http://mapsvg.com" xmlns:dc="http://purl.org/dc/elements/1.1/" xmlns:cc="http://creativecommons.org/ns#" xmlns:rdf="http://www.w3.org/1999/02/22-rdf-syntax-ns#"
	 xmlns="http://www.w3.org/2000/svg" xmlns:xlink="http://www.w3.org/1999/xlink" x="0px" y="0px" viewBox="0 0 239.1 217.3"
	 style="enable-background:new 0 0 239.1 217.3;" xml:space="preserve">
<style type="text/css">
	.st0{fill:#FFFFFF;stroke:#000000;stroke-width:0.25;stroke-miterlimit:10;}
</style>
<path id="AO" class="st0" d="M107.8,126.2L107.8,126.2l-0.4,0.2l-0.3,0.1l-0.4,0.5l-0.2,0.2l-0.1,0.1l-0.2,0.1l-0.1,0.1v0.1l0.1,0.1
	l0.1,0.1v0.8v0.8l-0.1,0.1h-0.3l-0.4,0.1h-0.1v-0.1l-0.1-0.3l0.1-0.3l0.1-0.2l-0.1-0.4l-0.2-0.4l-0.2-0.5l-0.1-0.1l0.2-0.1l0.3-0.3
	l0.1-0.2h0.3l0.1-0.1l0.1-0.2v-0.1l0.3-0.1l0.4-0.2l0.2-0.2l0.2-0.1h0.1h0.1l0.3,0.3L107.8,126.2L107.8,126.2L107.8,126.2z
	 M138.4,143.8l0.1,0.4l0.1,0.5v0.4v0.2v0.1v0.1v0.2l-0.1,0.2v0.1v0.3v0.4v0.4v0.4l0.1,0.7v0.2l-0.1,0.3l-0.1,0.3l-0.1,0.3v0.2
	l0.2,0.5v0.1h-0.2h-0.2h-0.6h-0.8h-0.8H135h-0.8h-0.7h-0.6v0.4v0.9v0.9v0.9v0.9v0.9v0.9v0.9v0.9v0.7l0.2,0.9l0.3,1l0.1,0.1l0.3,0.2
	l0.4,0.4l0.2,0.3l0.5,0.5l0.7,0.6l0.6,0.6l0.6,0.5l-0.9,0.2l-1.2,0.2l-0.8,0.2l-1,0.2l-0.7,0.1l-0.8,0.2h-0.1l-0.2-0.1h-0.5
	l-0.6,0.1h-0.5l-0.3-0.1l-0.3-0.1l-0.3-0.2l-0.6-0.1l-0.8,0.1h-0.8l-0.7-0.1l-0.5-0.1h-0.3h-0.3l-0.4-0.1l-0.3-0.2l-0.4-0.4
	l-0.3-0.4l-0.1-0.1l-0.1-0.1h-0.1h-0.8h-0.8h-0.4h-1.1h-1.1h-1.1h-1.1h-1.1h-1.1h-1.1h-1.1h-0.6H111h-0.6h-0.1h-0.1l-0.1-0.1
	l-0.3-0.2l-0.3-0.2l-0.4-0.3l-0.2-0.3l-0.2-0.1l-0.4-0.1l-0.3-0.1h-0.2l-0.4,0.1l-0.3,0.1l-0.2,0.1l-0.4,0.2l-0.3,0.2h-0.5h-0.1
	h-0.3l-0.3-0.1h-0.3l-0.3,0.2l-0.4,0.1l0.1-1.1l0.1-0.5V160l-0.1-1.5l-0.1-0.2l-0.1-0.2l0.3-0.2l0.1-0.1l0.2-0.3l0.1-0.4l0.2-0.8
	l0.6-1.8l0.3-1.7l0.3-0.8l0.1-0.9l1-1.2l0.2-0.7l0.5-0.4l0.7-0.4l0.5-0.7l0.2-0.5l0.3-0.9v-0.9l0.2-1.2v-0.4l-0.3-0.5v-0.4l-0.2-0.3
	l-0.3-0.3l-0.1-0.5l-0.5-0.7l-0.1-0.5l-0.2-0.4v-0.4l-0.1-0.5l-0.2-0.5l-0.2-0.5v-0.2l0.1-0.2l0.1-0.1v0.1l-0.1,0.1v0.1l0.9-0.9
	l0.1-0.2v-0.2v-0.2v-0.3l-0.8-1.7l-0.6-1.6l-0.1-0.8l-0.8-1l-0.3-0.7l-0.2-0.5l-0.1-0.2l0.1-0.1h0.2l0.5-0.1l0.7-0.1l0.6-0.3
	l0.2-0.1h0.3l0.3,0.1l0.1-0.1h0.1h0.8h0.3h0.6h0.4h0.2h0.6h0.7h0.3h1h0.9h0.8h0.9h0.7l0.3,0.1l0.3,0.2l0.1,0.2l0.1,0.1l0.1,0.2
	l0.2,0.1l0.1,0.2v0.3v0.4l0.1,0.4l0.2,0.4l0.3,0.5l0.1,0.4v0.3l0.1,0.3l0.2,0.3l0.2,0.2l0.1,0.1l0.3,0.5l0.5,0.7l0.3,0.5l0.1,0.1
	h0.2l0.4-0.1h0.4l0.3,0.1h0.1l0.4-0.2l0.4-0.1l0.4-0.1l0.2-0.1h0.3l0.7,0.2h0.1h0.6l0.6-0.1l0.1-0.7v-0.1l0.1-0.3l0.2-0.2v-0.2v-0.3
	l0.1-0.4l0.4-0.3l0.6-0.1h0.3l0.5-0.1l0.8-0.1h0.3l0,0l-0.2,0.5v0.2l0.1,0.2l0.1,0.1h0.9h0.8h0.9h0.7h0.1h0.1l0.1,0.3v0.5l-0.1,0.7
	l0.1,0.7l0.3,0.6v1l-0.1,0.6l-0.1,0.8v0.9l0.1,0.4l0.3,0.4l0.4,0.4l0.3,0.5l0.2,0.6l0.1,0.4l-0.1,0.2v0.3l0.1,0.4l-0.1,0.3l-0.2,0.1
	l-0.1,0.2l0.1,0.3v0.3l0.1,0.1l0.1,0.1h0.1l0.2-0.1l0.3-0.2l0.2-0.1h0.3l0.4,0.1h0.7h0.2l0.7-0.3h0.2h0.3l0.4,0.1h0.4l0.2-0.1v-0.1
	l0.1-0.1L138.4,143.8L138.4,143.8z"/>
<path id="BF" class="st0" d="M71.7,70.9L71.7,70.9v0.3l-0.1,0.4l-0.1,0.5l0.2,0.3l0.3,0.3l0.1,0.1L72,73.1l0.1,0.2l0.2,0.3l0.3,0.4
	l0.3,0.4l0.2,0.1h0.2l0.1,0.1l0.2,0.1h0.2l0.1,0.1l0.1,0.1l0.1,0.2l0.3,0.2l0.2,0.2l-0.1,0.1h-0.3L74,75.5v0.1V76v0.4h0.1l0.2,0.1
	l0.6,0.5l0.5,0.5l0.2,0.1h0.3h0.3h0.1l0.3-0.2h0.2H77h0.1l0.2,0.2l0.1,0.3v0.2v0.1l0,0L77,78.1h-0.1v0.1v0.1l0.1,0.1l0.3,0.4
	l0.4,0.5l0.1,0.1l-0.1,0.2L77.5,80l-0.2,0.2l-0.7,0.6l-0.3-0.1L75.6,81l-0.1-0.1h-0.2h-0.2H75V81v0.1l-0.1,0.2l-0.1,0.1h-0.1h-0.2
	h-0.1v0.1v0.1l-0.1,0.1v0.1v0.1L74.1,82H74h-0.1l-0.1,0.1l-0.1,0.1h-0.1h-0.7l-0.3,0.1h-0.2v-0.1l0,0L71.5,82l-0.6-0.1l-0.6-0.1v0.1
	L70.2,82h-0.1H70h-0.2l-0.1,0.1l-0.2,0.1l-0.1,0.1l-0.1,0.1h-0.1l-0.1-0.2h-0.2h-0.4h-0.2h-0.2h-0.5l-0.9-0.1h-0.1l0,0h-0.8h-0.9
	h-0.8h-0.7l0,0h-0.2v0.1L63,82.9v0.4l0.1,0.2l0.1,0.2l0.1,0.1v0.1L63.2,84v0.1l0.1,0.1v0.1l-0.1,0.1v0.3l0.1,0.5v0.3l-0.1,0.1v0.3
	l0.2,0.4v0.1l-0.1,0.1l-0.1,0.1h-0.1l-0.2-0.2l0.1-0.1l-0.1-0.2l-0.1-0.2l-0.2-0.1l-0.2-0.1l-0.2-0.3L62,85.3h-0.2l-0.3-0.1L61,85.1
	h-0.6l-0.2,0.1L60,85.4l-0.6,0.2l-0.2,0.1L59,86h-0.2l-0.2-0.1l-0.1-0.1h-0.3l-0.3-0.1l-0.3-0.2l-0.2-0.1l-0.2-0.2l-0.1-0.3
	l-0.2-0.2l-0.1-0.3l-0.2-0.1l-0.2-0.1h-0.3L55.8,84l-0.2-0.2v-0.2l0.1-0.2v-0.2l0.1-0.4v-0.5L55.7,82l0.2-0.1l0.2-0.1l0.1-0.2
	l0.1-0.5l0.1-0.4v-0.2l-0.1-0.1l-0.1-0.2V80v-0.2l0.2-0.2l0.2-0.1l0.1-0.1l0.4-0.1l0.5-0.1l0.3-0.1l0.2-0.1l0.1-0.1l0.1-0.2l0.2-0.2
	l0.1-0.2v-0.4v-0.3l-0.1-0.1l-0.1-0.1l0.7-0.3v-0.2L59,76.6l0-0.3v-0.2l0.2-0.2l0.2-0.2l0.1-0.1l0.3-0.2l0.3-0.1l0.3,0.1l0.8,0.5
	h0.1h0.2l0.2-0.1l0.3-0.1l0.1-0.3v-0.5l0.1-0.2h0.1l0.4,0.1h0.1h0.1l0.1-0.1v-0.2v-0.1l0.1-0.5l0.3-0.4l0.5-0.4l0.2-0.1h0.2l1,0.3
	l0.2-0.1l0.2-0.8l0.3-0.1h0.3l0.2-0.1l0.1-0.1l0.5-0.3l0.8-0.4l0.4-0.2l0.1-0.1l0.3-0.3l0.4-0.3l0.3-0.1h0.4l0.2,0.1l0.1,0.1h0.1
	l0.5-0.1l0.7,0.2L71.7,70.9z"/>
<path id="BI" class="st0" d="M156.9,119.9L156.9,119.9l-0.3,0.6l-0.1,0.1l0,0l0.1,0.1l-0.1,0.2l0,0v0.2v0.1l0.1,0.1l0.2,0.1h0.2
	l0.3,0.1h0.2v0.1v0.2v0.1v0.2l-0.1,0.2l-0.3,0.1l-0.2,0.1v0.1v0.1v0.1l-0.3,0.2l-0.3,0.3l-0.1,0.2l-0.1,0.2l-0.1,0.1l-0.2,0.2
	l-0.2,0.4l-0.1,0.3l-0.6,0.6l-0.5,0.3l-0.1,0.1h-0.9l-0.1-0.4l-0.1-0.6l-0.3-0.5V124v-0.4V123v-0.3v-0.2v-0.4v-0.2l-0.2-0.3
	l-0.2-0.3l-0.1-0.1v-0.1V121v-0.2l0.1-0.2h0.1l0.3,0.1l0.3,0.1l0.1,0.3h0.1h0.2h0.5h0.1l0.2-0.1l0.2-0.1l0.1-0.1l0.1-0.3l0.1-0.6
	h0.1l0.3,0.2h0.1h0.1l0.1-0.1l0.1-0.1h0.1l0.4-0.1l0.2,0.2L156.9,119.9L156.9,119.9z"/>
<path id="BJ" class="st0" d="M81.2,80.1l-0.1,0.2l-0.2,0.4V81l0.4,0.6v0.1l0.1,0.1l0.1,0.1l0.1,0.3v0.3v0.2l0.2,0.3v0.1l-0.1,0.5
	v0.1l0,0h-0.2l-0.1,0.1L81.2,84l-0.1,0.2v0.1l0.2,0.3L81.2,85l-0.1,0.3l-0.2,0.2h-0.2l-0.1,0.1l-0.1,0.1V86l-0.3,0.3L80,86.4
	l-0.1,0.1v0.4l-0.1,0.4l-0.2,0.3l-0.4,0.1h-0.3l-0.1,0.8V89v0.5l-0.1,0.2V90v0.6v0.5l0.1,0.1v0.3v0.3l0.1,0.2l0.1,0.2v0.1l-0.1,0.1
	v0.1v0.7v0.2v0.1l-0.1,0.1V94l0.1,0.2l0.1,0.2l-0.1,0.1l-0.1,0.2l-0.1,0.5v0.2l-1.2,0.1l-1.3,0.2l-0.5,0.1v-0.1l0.5-0.1L76,95.1
	l-0.3-0.4l-0.1-0.1l-0.1-0.2l0.1-0.1v-0.1v-0.3l-0.1-0.3h0.3v-1.1v-1v-0.9v-0.7l-0.1-0.8v-0.6v-0.8l-0.1-0.2L75.1,87L75,86.8v-0.3
	l-0.1-0.3v-0.5v-0.6V85l-0.4-0.3l-0.6-0.4L73.3,84l0,0v-0.1l0.1-0.9l0.1-0.1l0.1-0.4l0.1-0.3h0.1l0.1-0.1L74,82h0.1h0.1l0.1-0.1
	v-0.1v-0.1l0.1-0.1v-0.1v-0.1h0.1h0.2h0.1l0.1-0.1l0.1-0.2l0-0.1v-0.1l0.1-0.1h0.2h0.2l0.1,0.1l0.7-0.1l0.3,0.1l0.7-0.6l0.2-0.2
	l0.2-0.4l0.1-0.2l0.1-0.3l-0.1-0.5v-0.1l0.3-0.1l0.4-0.1h0.1h0.1l0.1-0.1l0.2-0.1h0.1h0.1l0.8,0.7l0.3,0.4l0.1,0.2l0.2,0.1l0.3,0.1
	l0.2,0.2L81.2,80.1z"/>
<path id="BW" class="st0" d="M142,163.8v0.2v0.2l0.1,0.2l0.1,0.2l0.2,0.2l0.1,0.1l0.1,0.3l0.1,0.3l0.2,0.3l0.6,0.6l0.1,0.2l0.1,0.2
	l0.4,0.4l0.1,0.1v0.3l0.4,0.9l0.2,0.5l0.2,0.1l0.7,0.5l0.6,0.4l0.7,0.3l0.5,0.2l0.2,0.1l0.1,0.1l0.1,0.3l0.1,0.4v0.3h0.5h0.4
	l0.2,0.1l0.1,0.1v0.2v0.3v0.2v0.2v0.3v0.4l0.1,0.1l0.4,0.5l0.2,0.3l0.2,0.4l0.1,0.1l0.1,0.1h0.4l1,0.2l0.6,0.2l0.5,0.2h0.2h0.1l0,0
	L153,176v0.1l0.1,0.1l0.1,0.1l0.1,0.1h0.4l0.2,0.2l0.1,0.1l-0.7,0.1L153,177l-0.2,0.4l-0.3,0.3l-0.4,0.2l-0.4,0.1l-0.5,0.1l-0.5,0.3
	l-0.5,0.5l-0.3,0.3v0.1l-0.1,0.1l-0.2,0.1l-0.1,0.1v0.1l-0.1,0.1h-0.2l-0.1,0.1l-0.1,0.2l-0.2,0.1h-0.3l-0.2,0.1l-0.2,0.2l-0.2,0.1
	h-0.1l-0.2,0.2l-0.3,0.4v0.2l-0.4,1.5l-0.2,0.2l-0.4,0.3l-0.3,0.4l-0.1,0.2l-0.2,0.1l-0.7,0.2l-0.3,0.1l-0.3,0.1l-0.1,0.1l-0.1,0.5
	l-0.2,0.7l-0.2,0.5l-0.1,0.4l-0.2,0.5l-0.2,0.2l-0.2,0.2l-0.3,0.1l-0.4,0.1h-0.3h-0.3l-0.4,0.2h-0.3l-1.1,0l-0.4-0.1h-0.2l-0.4-0.3
	h-0.2h-0.4l-0.2-0.1l-0.2-0.2l-0.4-0.3l-0.4-0.3l-0.4-0.2l-0.3-0.1l-0.3,0.1l-0.3,0.1h-0.1l-0.2,0.1l-0.2,0.3l-0.2,0.4l-0.1,0.3
	l-0.2,0.6l-0.2,0.7l-0.1,0.2l-0.1,0.1l-0.2,0.1l-0.7,0.5l-0.4,0.6l-0.2,0.2l-0.3,0.1l-0.2,0.1l-0.1,0.1l-0.1,0.3l-0.1,0.1h-0.1h-0.4
	h-0.1l-1.1,0.1l-0.3-0.1H130l-0.4,0.1l-0.2-0.1l-0.1-0.3l-0.1-0.5v-0.4l0.2-0.3l0.2-0.2l0.2-0.3v-0.1v-0.1v-0.3v-0.3l-0.2-0.6
	l-0.3-0.8l-0.4-0.8l-0.1-0.2l-0.2-0.4l-0.9-0.7l-0.1-0.1v-0.1v-0.7v-0.9v-0.9v-0.9v-0.9v-0.9v-0.9V178v-0.9v-0.7h0.6h0.8h0.9h0.4
	v-0.1v-0.5v-1.2v-1.2v-1.2V171v-1.2v-1.2v-1.2v-1.2v-0.6h0.7l0.8-0.1l1.4-0.2l1.3-0.2l0.8-0.1l1-0.2h0.3h0.1l0.1,0.1l0.5,0.6
	l0.3,0.5l0.1,0.2h0.1h0.1l0.1-0.1l0.5-0.5l0.1-0.1l0.3-0.2l0.4-0.2l0.3-0.2l0.3-0.1h0.1l0.2,0.1l0.2,0.1l0.7-0.6l0.3-0.1l0.9-0.1
	L142,163.8z"/>
<path id="CD" class="st0" d="M148,98.8l0.1,0.2l0.1,0.2l0.5,0.3l0.2,0.2l0.1,0.2l0.1,0.2l0.1,0.1l0.2,0.1l0.2,0.1l0.1,0.1l0.2,0.2
	l0.3,0.2h0.2h0.2l0.2,0.1h0.2l0.3-0.1l0.3-0.2l0.2-0.1l0.6,0.1l0.3,0.1l0.3,0.2h0.2l0.4-0.3l0.2-0.3l0.2-0.1l0.4,0.1l0.3,0.3
	l0.3,0.4l0.2,0.2l0.2,0.3l0.5,0.5l0.6,0.3l0.2,0.1l0.1,0.1v0.2v0.2l0.1,0.1h0.2h0.1l0.2,0.1l0.1,0.1l0.1,0.1l0.1,0.1l0.2,0.1v0.2
	l-0.1,0.2l-0.1,0.2l-0.1,0.3l-0.1,0.3l0.1,0.1l0.1,0.1l0.1,0.1v0.1v0.1l-0.2,0.5l-0.1,0.4v0.2l0.3,0.2h0.4l0.1,0.1l0.1,0.2l0.1,0.1
	h0.2l0.1,0.1v0.1l0.1,0.1l0.1,0.1l-0.1,0.2v0.1l-0.3,0.3l-0.6,0.7l-1.3,1.2l0,0l-0.4,0.1l-0.2,0.2l-0.2,0.4l-0.4,0.3l-0.3,0.1v0.1
	v0.3v0.5L155,112l-0.2,0.4l-0.1,0.3l-0.1,0.1l-0.1,0.1l-0.1,0.4v0.1l-0.1,0.9v0.3l-0.1,0.4v0.3v0.3l-0.1,0.3v0.4v0.7v0.1l-0.1,0.1
	l-0.2,0.2l-0.2,0.1h-0.1l-0.2,0.3l-0.2,0.3l-0.1,0.3v0.1v0.3v0.4v0.2l-0.1,0.1l-0.3,0.2l-0.2,0.2l-0.1,0.1l-0.1,0.1l0.1,0.3v0.2
	l0.1,0.1l0.3,0.1v0.1v0.1l0.1,0.1l0.2,0.3l0.2,0.3v0.2v0.4v0.2v0.3v0.6v0.4v0.2l0.3,0.5l0.1,0.6l0.1,0.4v0.1l-0.1,0.5l-0.1,0.5v0.2
	l0.1,0.2l0.2,0.5l0.2,0.4l0.1,0.2l0.1,0.3l0.1,0.4v0.2v0.2l-0.3,0.5v0.2l0.1,0.4l0.1,0.4l0.1,0.2l0.3,0.6l0.2,0.2l0.5,0.3l0.4,0.3
	l0.2,0.2l0.1,0.2l0.3,0.5l0.2,0.4l0.1,0.3l0.2,0.5l0.2,0.4l0.3,0.5l0.2,0.4l0.1,0.3l-0.5,0.1l-0.7,0.1l-0.8,0.1l-0.8,0.1l-0.8,0.1
	l-0.8,0.1l-0.7,0.1l-0.2,0.1l0.1,0.3v0.3l-0.1,0.2l-0.2,0.3L152,138l-0.2,0.2l-0.2,0.2l-0.4,0.3l-0.2,0.2v0.1l0.4,0.7l0.2,0.5
	l0.1,0.4v0.2v0.5v0.6v0.2l0.1,0.4v0.3l-0.3,0.4l-0.1,0.4l-0.1,0.5l-0.2,0.7l-0.1,0.4l0.1,0.2l0.1,0.2l0.1,0.2l0.1,0.3l0.2,0.2
	l0.1,0.1l0.5,0.4l0.2,0.2l0.3,0.4l0.3,0.3l0.4,0.1l0.4,0.1l0.2,0.1h0.2l0.1-0.1v-0.2v-0.1v-0.1l0.1-0.1h0.4l0.2-0.1h0.1v0.4v0.4v0.5
	v0.6v0.5v0.5v0.6v0.1L155,151h-0.1l-0.2-0.1v-0.1v-0.2l-0.1-0.1h-0.1l-0.2,0.1l-0.3,0.2l-0.4,0.1l-0.1,0.1h-0.3l-0.3-0.1l-0.2-0.2
	l-0.1-0.3l-0.2-0.3l-0.2-0.4l-0.1-0.2l-0.2-0.2h-0.2l-0.2-0.1l-0.1-0.3l-0.1-0.3l-0.1-0.1l-0.1-0.2l-0.2-0.1l-0.3-0.1l-0.5-0.2
	l-0.6-0.2h-0.3h-0.3l-0.2-0.1l-0.1-0.1l-0.1-0.3l-0.2-0.4l-0.5-0.5l-0.1-0.5l-0.1-0.1h-0.2l-0.1,0.1l-0.1,0.1l-0.1,0.5l-0.1,0.2
	l-0.1,0.1l-0.1,0.1l-0.2,0.1h-0.3h-0.4l-0.5-0.1l-0.3-0.1l-0.7-0.1h-0.2l-0.3-0.1l-0.2-0.1l-0.7-0.2h-0.3l-0.1-0.2l-0.1-0.1
	l-0.2-0.1l-0.1-0.2l-0.1-0.4V145l0.1-0.3l-0.1-0.1H142l-0.2,0.1h-0.3l-0.6,0.1l-0.2,0.1h-0.2h-0.2l-0.4,0.2h-0.1l-0.2-0.1l-0.1-0.1
	l0.1-0.1l0.1-0.2l-0.1-0.4l-0.1-0.2l-0.4-0.1H139l-0.1-0.2l-0.1-0.2h-0.2h-0.1l-0.1,0.1l-0.1,0.1v0.1l-0.2,0.1h-0.4l-0.4-0.1H137
	h-0.2l-0.7,0.3h-0.2h-0.7l-0.4-0.1h-0.3l-0.2,0.1l-0.3,0.2l-0.2,0.1h-0.1l-0.1-0.1l-0.1-0.1v-0.3l-0.1-0.3l0.1-0.2l0.2-0.1l0.1-0.3
	l-0.1-0.4v-0.3l0.1-0.2l-0.1-0.4l-0.2-0.6l-0.3-0.5l-0.4-0.4l-0.3-0.4l-0.1-0.4v-0.9l0.1-0.8l0.1-0.6v-1l-0.3-0.6l-0.1-0.7l0.2-0.7
	v-0.5l-0.1-0.3h-0.1h-0.1h-0.7h-0.9h-0.8h-0.9l-0.1-0.1l-0.1-0.2v-0.2l0.2-0.5l0,0h-0.3l-0.8,0.1l-0.5,0.1h-0.3l-0.6,0.1l-0.4,0.3
	l-0.1,0.4v0.3v0.2l-0.2,0.2l-0.1,0.3v0.1l-0.1,0.7l-0.6,0.1h-0.6h-0.1l-0.7-0.2h-0.3l-0.2,0.1l-0.4,0.1l-0.4,0.1l-0.4,0.2h-0.1
	l-0.3-0.1h-0.4l-0.4,0.1h-0.2l-0.1-0.1l-0.3-0.5l-0.5-0.7l-0.3-0.5l-0.1-0.1l-0.2-0.2l-0.2-0.3l-0.1-0.3v-0.3l-0.1-0.4l-0.3-0.5
	l-0.2-0.4l-0.1-0.4v-0.4v-0.3l-0.1-0.2l-0.2-0.1l-0.1-0.2l-0.1-0.1l-0.1-0.2l-0.3-0.2l-0.3-0.1h-0.7H115h-0.8h-0.9h-1H112h-0.7h-0.6
	h-0.2h-0.4h-0.6h-0.3h-0.8h-0.1l-0.1,0.1l-0.3-0.1h-0.3l-0.2-0.1L107,129l-0.2,0.1l-0.3,0.2l-0.5,0.1h-0.2h-0.1l-0.3-0.3l-0.2-0.2
	l-0.1-0.1h0.1l0.4-0.1h0.3l0.1-0.1v-0.8V127l-0.1-0.1l-0.1-0.1v-0.1l0.1-0.1l0.2-0.1l0.1-0.1l0.2-0.2l0.4-0.5l0.3-0.1l0.3-0.1l0,0
	v-0.1h0.1l0,0l0.1,0.1l0.1,0.1l0.2,0.2l0.2,0.2h0.1l0.2-0.1l0.2-0.1l0.3-0.1l0.1-0.1v-0.2v-0.2V125h0.1h0.1l0.2,0.1l0.1,0.1h0.2
	l0.1-0.1l0.2-0.1h0.2l0.3-0.1l0.3-0.2h0.1l0.1,0.2l0.1,0.1v0.1l-0.1,0.2l-0.1,0.2l0.1,0.3v0.3v0.2l0.1,0.1h0.1h0.1h0.2l0.2,0.1h0.2
	l0.2-0.1l0.4-0.4l0.5-0.7l0.5-0.4l0.4-0.2l0.2-0.2l0.1-0.2l0.2-0.2l0.4-0.1l0.3-0.1l0.3-0.5l0.4-0.8l0.1-0.8l0.1-0.5v-1.6v-0.5
	l0.1-0.3l0.2-0.2l0.4-0.4l0.3-0.3l0.2-0.4l0.4-0.9l0.2-0.3l0.1-0.1l0.3-0.2l0.4-0.2l0.5-0.2l0.7-0.6l0.6-0.6l-0.1-0.8l0.1-0.6
	l0.3-0.8l0.1-0.8l-0.1-0.9v-0.7l0.3-0.9l0.1-0.3v-0.5v-0.8l0.4-1.1l0.4-0.7l0.4-0.8l0.2-0.5l0.2-0.6v-0.5v-0.6l0.1-0.8v-0.5
	l-0.1-0.4l0.1-0.3l0.3-0.1l0.4-0.4l0.7-1l0.7-0.5l0.5-0.2h0.5l0.3,0.1l0.2,0.2l0.4,0.2l0.6,0.3l0.5,0.4l0.3,0.4l0.2,0.2l0.2,0.1h0.4
	l0.5,0.1l0.5,0.2l0.3,0.1l0.1-0.1h0.2l0.5,0.2l0.4-0.1l0.6,0.1l1.4,0.3l0.1-0.1l0,0l0.1-0.1l0.3-0.7l0.3-0.4l0.1-0.2l0.3-0.2
	l0.4-0.1h0.3l0.3,0.1l0.3,0.1h0.3l0.3-0.1l0.4-0.2l0.5-0.1l0.4-0.1l0.7-0.2l0.3-0.1h0.3l0.9,0.2l0.6-0.1h0.2l0.5-0.2l0.1-0.1
	l0.3-0.5l0.4-0.2l0.5,0.1L143,98l1,0.2l1.3,0.2h0.4h0.2h0.1l0.4-0.3h0.1h0.1L148,98.8z"/>
<path id="CF" class="st0" d="M135.3,82.4l0.2,0.4l0.1,0.1l0.8,0.8l0.2,0.2l0.4,0.6l0.2,0.4l0.3,0.6v0.3v0.3l-0.1,0.8l-0.1,0.2
	l-0.4,0.4v0.2l0.1,0.2l0.1,0.1l0.1,0.1v0.4l0.1,0.1l0.3,0.1l0.7,0.1l0.4,0.1L139,89h0.1l0.1,0.1l-0.1,0.4l0.1,0.3l0.2,0.2l0.2,0.1
	l0.2,0.1l0.8,0.1l0.3,0.2l0.4,0.5l0.5,0.4l0.1,0.2v0.2l-0.2,0.3v0.1l0.2,0.3l0.3,0.3l0.5,0.3l0.9,0.5l0.4,0.3l0.1,0.2l0.2,0.3
	l0.3,0.2l0.2,0.2L145,95v0.2l0.1,0.1l0.2,0.2l0.1,0.3l0.2,0.3l0.2,0.1l0.4,0.1l0.2,0.1l0.4,0.3l0.4,0.2l0.2,0.2l0.1,0.1l0.1,0.2v0.2
	v0.3l0.1,0.4l0.2,0.3l0.2,0.2l-0.8-0.2h-0.1h-0.1l-0.4,0.3h-0.1h-0.2H146l-1.3-0.2l-1-0.2l-0.3-0.1l-0.5-0.1l-0.4,0.2l-0.3,0.5
	l-0.1,0.1l-0.5,0.2h-0.2l-0.6,0.1l-0.9-0.2h-0.3l-0.3,0.1l-0.7,0.2l-0.4,0.1l-0.5,0.1l-0.4,0.2L137,100h-0.3l-0.3-0.1l-0.3-0.1h-0.3
	l-0.4,0.1l-0.3,0.2l-0.1,0.2l-0.3,0.4l-0.3,0.7l-0.1,0.1l0,0l-0.1,0.1l-1.4-0.3l-0.6-0.1l-0.4,0.1l-0.5-0.2h-0.2l-0.1,0.1l-0.3-0.1
	l-0.5-0.2l-0.5-0.1h-0.4l-0.2-0.1l-0.2-0.2l-0.3-0.4l-0.5-0.4l-0.6-0.3l-0.4-0.2l-0.2-0.2l-0.3-0.1h-0.5l-0.5,0.2l-0.7,0.5l-0.7,1
	l-0.4,0.4l-0.3,0.1l-0.1,0.3l0.1,0.4v0.5l-0.1,0.8v0.6l-0.2-0.1L123,103l0,0l-0.4,0.1l-0.2,0.1l-0.1,0.1h-0.1l-0.1-0.1H122h-0.2
	h-0.2h-0.1h-0.1l-0.2-0.1l-0.8-0.2l-0.1-0.1h-0.2l-0.4,0.2l-0.2,0.1l-0.6,0.1l-0.7,0.1h-0.3l-0.2,0.1l-0.1,0.1l-0.1,0.3l-0.1,0.5
	l-0.1,0.1v0.2v0.3v0.3v0.2l-0.2,0.4l-0.2,0.4l-0.2,0.4l-0.2,0.4l-0.1-0.3l-0.1-0.3V106v-0.1l-0.1-0.1l0,0l-0.1-0.3l0.1-0.2l-0.1-0.2
	l-0.2-0.2l-0.1-0.1l-0.1-0.1l-0.1-0.1h-0.2l-0.2-0.1l-0.3-0.3l-0.3-0.3l-0.3-0.4l-0.3-0.3l-0.3-0.4l-0.3-0.4l-0.2-0.3l-0.1-0.2h0.1
	h0.1h0.1v-0.1l-0.1-0.3l-0.1-0.3l-0.1-0.2l-0.4-0.3l-0.3-0.2l-0.1-0.1l-0.1-0.2l-0.1-1.1l-0.1-0.3l-0.1-0.1l-0.1-0.1v-0.1v-0.2v-0.2
	V98l0.1-0.2v-1l-0.1-0.1l-0.1-0.1h-0.1h-0.1l-0.1-0.2l-0.1-0.2v-0.1l0.1-0.1l0.1-0.1l0.1-0.1l0.4-0.2l0.1-0.1l0.1-0.1v-0.1l0.2-0.5
	l0.3-0.5l0.1-0.1l0.1-0.4l0.2-0.4l0.1-0.2l0.1-0.2l0.1-0.2l0.4-0.3l0.3-0.5h0.3l0.3,0.1h0.4l0.3-0.1l0.2-0.2l0.5-0.1l0.5-0.2
	l0.1-0.3l0.2-0.1l0.2-0.1h0.1v0.1l0.1,0.3l0.2,0.3l0.3,0.3h0.1l0.2-0.2l0.5-0.1l0.1-0.1l0.4-0.3L120,91h0.1l0.2-0.1l0.4-0.2h0.3h0.5
	l0.8-0.1h0.6h0.3h0.1l0.1-0.3l0.1-0.1l0.2-0.1l0.4-0.5l0.3-0.4l0.1-0.1l0,0h0.1l0.1-0.2l-0.1-0.2l-0.5-0.3l0,0v-0.1l0,0l0.2-0.1
	l0.3-0.2l0.3-0.1h0.7h0.6h0.1l0.5-0.1l0.3-0.1l0.3-0.2h0.8l0.6-0.4L129,87l0.1-0.1v-0.1l0.3-0.2l0.3-0.3L130,86l0.1-0.2l0.7-0.7h0.2
	l0.1-0.1l0.3-0.5l0.1-0.1h0.1l0.2-0.1l0.1-0.1L132,84v-0.3l-0.1-0.2v-0.1l0.1-0.1l0.1-0.1l0.5-0.3l0.1-0.1l0.1-0.1h0.2h0.2l0.1-0.1
	l0.1-0.1l0.4-0.2l0.3-0.1l0.4,0.1l0.3,0.1l0.2,0.1L135.3,82.4z"/>
<path id="CG" class="st0" d="M123.3,103.4v0.5l-0.2,0.6L123,105l-0.4,0.8l-0.4,0.7l-0.4,1.1v0.8v0.5l-0.1,0.3l-0.3,0.9v0.7l0.1,0.9
	l-0.1,0.8l-0.3,0.8l-0.1,0.6l0.1,0.8l-0.6,0.6l-0.7,0.6l-0.5,0.2l-0.4,0.2l-0.3,0.2l-0.1,0.1l-0.2,0.3l-0.4,0.9l-0.2,0.4l-0.3,0.3
	l-0.4,0.4l-0.2,0.2l-0.1,0.3v0.5v1.6l-0.1,0.5l-0.1,0.8l-0.4,0.8l-0.3,0.5l-0.3,0.1l-0.4,0.1l-0.2,0.2l-0.1,0.2l-0.2,0.2l-0.4,0.2
	l-0.5,0.4l-0.5,0.7l-0.4,0.4l-0.2,0.1h-0.2l-0.2-0.1H112h-0.1h-0.1l-0.1-0.1v-0.2V126l-0.1-0.3l0.1-0.2l0.1-0.2v-0.1l-0.1-0.1
	l-0.1-0.2h-0.1l-0.3,0.2l-0.3,0.1h-0.2l-0.2,0.1l-0.1,0.1h-0.2l-0.1-0.1l-0.2-0.1h-0.1h-0.1v0.2v0.2v0.2l-0.1,0.1l-0.3,0.1l-0.2,0.1
	l-0.2,0.1h-0.1l-0.2-0.2l-0.2-0.2l-0.1-0.1l-0.1-0.1l0,0h-0.1v0.1H108l-0.2-0.2l-0.3-0.3h-0.1h-0.1l-0.2,0.1l-0.2,0.2l-0.4,0.2
	l-0.3,0.1v0.1l-0.1,0.2l-0.1,0.1h-0.3l-0.1,0.2L105,127l-0.2,0.1V127l-0.1-0.1l-0.2-0.2l-0.2-0.3l-0.1-0.1l-0.1-0.1v-0.3l-0.3-0.4
	l-0.8-0.7l-0.1-0.2l-0.7-0.6l0.2-0.4l0.1-0.2l0.2-0.1l0.6-0.3h0.1l0.4,0.4h0.1h0.1h0.2l0.1-0.1v-0.1l-0.1-0.1V123l0.1-0.1l0.1-0.2
	l0.1-0.2v-0.1l-0.1-0.1l-0.3-0.2l-0.2-0.1l-0.1-0.1l0.1-0.2l0.2-0.1v-0.1l-0.1-0.1l-0.1-0.1l-0.1-0.1l-0.3-0.1l0.1-0.2l0.1-0.3v-0.2
	l-0.1-0.6v-0.1l0.1-0.1l0.2,0.1l0.2,0.1l0.5-0.1h0.2l0.1,0.1l0.2,0.1l1.1-0.2v-0.2l0.1-0.2v-0.2V119l-0.1-0.1v-0.2v-0.2l0.1-0.1
	l0.3-0.2h0.1l0.2,0.1l0.2,0.2l0.2,0.4l0.1,0.3l0.2,0.4l0.5,0.2l0.6,0.1h0.3l0.4-0.3l0.2-0.3l0.1-0.1l0.1,0.1l0.2,0.3l0.1,0.1v0.1
	L110,120l0.1,0.1l0.3,0.1l0.3-0.1l0.1-0.1l0.2-0.2v-0.2l-0.1-0.1v-0.1l0.1-0.1l0.1-0.3v-0.2l0.1-0.1l0.2-0.1l0.1-0.1l0.1-0.5
	l-0.1-0.2v-0.1l0.1-0.2v-0.3l-0.1-0.5v-0.4v-0.4l0.1-0.5l0.1-0.5v-0.1l-0.1-0.2l-0.2-0.1l-0.4-0.1l-0.2-0.2l-0.1-0.2l-0.1-0.1
	l-0.5-0.1l-0.1-0.1v-0.3v-0.5v-0.3l0.1-0.3l0.1-0.2l0.2-0.2l0.1-0.2l0.1-0.1h0.4l0.1-0.1l0.1-0.1v-0.1l0.1-0.2l0.1-0.2v-0.1v-0.1
	l-0.1-0.3l-0.1-0.2l-0.1-0.1l-0.2-0.6l-0.2-0.1l-0.3-0.1l-0.6-0.1l-0.4,0.1l-0.6,0.2l-0.4,0.1l-0.3,0.1h-0.2l-0.1-0.1l0.1-0.1
	l0.1-0.2l-0.1-0.2l-0.1-0.2l-0.1-0.3v-0.4l0.1-0.4l0.2-0.5v-0.2h0.7h0.7h0.7h0.7h0.6l0.3-0.1l0.3,0.2h0.1l0,0l0.1,0.1h0.3h0.1v0.2
	h0.3h0.1h0.1l0.2-0.1h0.1l0.2,0.1l0.2,0.1h0.2h0.5l0.4,0.1l0.4,0.3l0.3,0.2l0.2,0.2h0.1l0.1-0.1l0,0v-0.2l-0.1-0.3l-0.1-0.3v-0.2
	l0.1-0.2l0.2-0.1v-0.2l0,0l0.2-0.4l0.2-0.4l0.2-0.4l0.2-0.4V105v-0.3v-0.3v-0.2l0.1-0.1l0.1-0.5l0.1-0.3l0.1-0.1l0.2-0.1h0.3
	l0.7-0.1l0.6-0.1l0.2-0.1l0.4-0.2h0.2l0.1,0.1l0.8,0.2l0.2,0.1h0.1h0.1h0.2h0.2h0.1l0.1,0.1h0.1l0.1-0.1l0.2-0.1l0.4-0.1l0.1,0.1
	l0.2,0.3L123.3,103.4z"/>
<path id="CI" class="st0" d="M55.6,83.8l0.2,0.2l0.2,0.1h0.3l0.2,0.1l0.2,0.1l0.1,0.3l0.2,0.2l0.1,0.3l0.2,0.2l0.2,0.1l0.3,0.2
	l0.3,0.1h0.3l0.1,0.1l0.2,0.1h0.2l0.2-0.3l0.2-0.1l0.6-0.2l0.2-0.1l0.2-0.1h0.6l0.5,0.1l0.3,0.1h0.2l0.2,0.1l0.2,0.3l0.1,0.1
	l0.2,0.1l0.1,0.2l0.1,0.2l0.1,0.1l0.2,0.2h0.1l0.1-0.1l0.1-0.1v0.1l-0.1,0.2v0.1l0.1,0.1v0.2l-0.2,0.3v0.2l0.2,0.1l0.1,0.2l0.1,0.3
	l0.1,0.1v0.1l0.1,0.8l0.1,0.8l0.1,0.2h-0.1h-0.1v0.1l0.1,0.1v0.1l-0.2,0.1l-0.3,0.3V91l-0.1,0.2l-0.1,0.1L63,91.6l-0.2,0.7l-0.1,0.5
	V93v0l-0.1,0.2l-0.4,0.5L62,94v0.2v0.2v0.1v0.3v0.3l0.1,0.3l0.3,0.7l0.1,0.4l0.1,0.4l0.1,0.2l0.1,0.1v0.1l0.4,0.1l0.1,0.1l0.1,0.5
	v0.2l-0.1,0.1v0.2v0.2l-0.1,0.1H63l-0.2,0.1h-0.2v-0.1h-0.1l-0.3-0.1v-0.4h-0.1L62,98.2l-0.2,0.5l-0.1,0.1l-1.5-0.3l-0.3-0.2h-0.4
	h-0.7l-0.5,0.1l-0.2,0.1l1.4-0.1h0.1l0.1,0.1L58,98.6l-0.7,0.1h-0.2L57,98.5h-0.7l-0.1,0.1l-0.1,0.1h0.3h0.5l0.1,0.1l-1.4,0.1
	l-1,0.2l-0.4,0.2l-1.4,0.5l-0.8,0.3l-0.2,0.1l-0.4,0.3l-0.5,0.2l-0.5,0.3l-0.3,0.1L50,101v-0.5v-0.7v-0.3v-0.3V99l0.2-0.1v-0.1v-0.3
	l0.2-0.2v-0.4v-0.1v-0.1l-0.1-0.3l-0.1-0.5l0,0l0,0h-0.1l-0.3-0.2h-0.3l-0.2-0.2v-0.2l-0.1-0.1L49.1,96L49,95.6l-0.3-0.1h-0.2h-0.2
	h-0.2l-0.2-0.1l-0.2-0.1l-0.2-0.2L47.4,95h-0.1h-0.1L47,94.9l0,0l0.6-0.6l0.2-0.3v-0.2v-0.2l0.1-0.2v-0.3l-0.3-1L47.4,92l-0.1-0.1
	h-0.1l0.2-0.1h0.2l0.3,0.1l0.1-0.1l0.3-0.5v-0.2V91l0.1-0.3l0.1-0.1l0.1-0.1v-0.2l-0.1-0.1h-0.1h-0.1L48.1,90L48,89.9v-0.4v-0.1
	l0.1-0.1h0.1h0.3l0.3,0.1H49h0.1l0.1,0.1l0.1,0.1h0.1v-0.1v-0.4l-0.1-0.2l-0.2-0.2l-0.5-0.2v-0.3v-0.3l0.1-0.1l0.3-0.2l-0.1-0.1
	l-0.1-0.1l-0.2-0.1l0.1-0.3v-0.3h-0.2h-0.2l-0.2-0.1L48,86.4v-0.5v-0.6V85l0.1-0.1l0.2-0.1l0.2-0.2l0.1-0.1h0.1l0.2-0.1l0.2-0.1
	l0.2-0.3l0.2-0.2h0.3h0.1H50l0.1,0.2l0.1,0.1h0.1l0.1,0.2l0.5,0.1l0.2,0.1l0.2,0.2h0.1h0.1l0.1-0.1v-0.1l-0.1-0.2v-0.1l0.1-0.1h0.1
	h0.2h0.2h0.2l0.1-0.1l-0.1-0.3v-0.2v-0.2l0.1-0.1l0.3,0.2l0.2,0.1h0.2l0,0L53,83.3v-0.1h0.1h0.1l0.3-0.1l0,0l0.1,0.3v0.1l0.1,0.2
	l0.1,0.2V84l-0.1,0.1l-0.1,0.1v0.1l0.1,0.1l0.2,0.1h0.2l0.1-0.1l0.1-0.1l0.1-0.1v-0.1l0.1-0.1l0.4-0.1L55.6,83.8L55.6,83.8
	L55.6,83.8z M62.5,98.8L62.5,98.8H62l0.1-0.1L62.5,98.8L62.5,98.8z"/>
<path id="CM" class="st0" d="M114.6,92l-0.3,0.5l-0.4,0.3l-0.1,0.2l-0.1,0.2l-0.1,0.2l-0.2,0.4l-0.1,0.4l-0.1,0.1l-0.3,0.5l-0.2,0.5
	v0.1l-0.1,0.1l-0.1,0.1l-0.4,0.2l-0.1,0.1l-0.1,0.1l-0.1,0.1v0.1l0.1,0.2l0.1,0.2h0.1h0.1l0.1,0.1l0.1,0.1v1l-0.1,0.2v0.1v0.2v0.2
	v0.1l0.1,0.1l0.1,0.1l0.1,0.3l0.1,1.1l0.1,0.2l0.1,0.1l0.3,0.2l0.4,0.3l0.1,0.2l0.1,0.3l0.1,0.3v0.1h-0.1h-0.1h-0.1l0.1,0.2l0.2,0.3
	l0.3,0.4l0.3,0.4l0.3,0.3l0.3,0.4l0.3,0.3l0.3,0.3l0.2,0.1h0.2l0.1,0.1l0.1,0.1l0.1,0.1l0.2,0.2l0.1,0.2l-0.1,0.2l0.1,0.3l0,0
	l0.1,0.1v0.1v0.4l0.1,0.3l0.1,0.3l0,0v0.2l-0.2,0.1l-0.1,0.2v0.2l0.1,0.3l0.1,0.3v0.2l0,0l-0.1,0.1h-0.1l-0.2-0.2l-0.3-0.2l-0.4-0.3
	l-0.4-0.1h-0.5h-0.2l-0.2-0.1l-0.2-0.1h-0.1l-0.2,0.1h-0.1h-0.1h-0.3v-0.2h-0.1h-0.3l-0.1-0.1l0,0h-0.1L112,107l-0.3,0.1h-0.6h-0.7
	h-0.7H109h-0.7l-0.1-0.2l-0.1-0.1h-0.3h-0.7h-0.6h-0.2h-0.2h-0.5H105h-0.1h-0.5h-1.1h-0.6v0.1v0.1v0.2H102h-0.9h-0.8H100h-0.9
	l-0.3-0.1l-0.1-0.1v-0.1v-0.1h-0.1l0.1-0.7l0.1-0.5l0.1-0.5l0.2-0.5l-0.1-0.5l-0.1-0.2l-0.6-0.6l0.3-0.2h-0.3l-0.1-0.2l-0.2-0.3h0.1
	l0.1-0.2h0.3v-0.1l-0.3-0.2V102l0.1-0.1l-0.1-0.1l-0.2,0.1h-0.1l-0.1-0.1h-0.1v0.2l-0.1,0.2l-0.1,0.1h-0.2h-0.1v-0.1l-0.1-0.1
	l-0.4-0.1l-0.3-0.1l-0.1-0.4l-0.1-0.2l-0.1-0.2v-0.2v-0.3l-0.1-0.1h-0.1h-0.1h-0.1l-0.2-0.2l-0.1-0.1l0.1,0.3l-0.1,0.1h-0.2
	l-0.1-0.1v-0.1l0.1-0.4l0,0l0.1-0.2l0.2-0.3l0.2-0.3l0.2-0.4l0.2-0.7l0.1-0.5l0.1-0.4l0.2-0.4l0.2-0.3l0.5-0.5l0.4-0.4l0.2-0.2
	l0.1-0.1L98,95l0.2-0.2l0.2-0.3l0.2-0.3l0.1-0.1l0.2-0.1l0.5-0.3l0.3-0.2l0.1,0.1l0.1,0.1l0.1,0.1h0.2h0.3h0.2l0.1-0.1l0.1-0.3
	l0.1-0.1h0.1l0.4,0.2l0.3,0.3l0.3,0.3l0.2,0.1l0.1,0.1l0.1,0.5l0.1,0.1l0.1,0.1h0.2l0.2-0.1l0.2-0.1l0.2-0.2l0.1-0.2l0.1-0.1v-0.4
	v-0.1l0.2-0.2l0.4-0.3l0.2-0.2V93l-0.1-0.2l-0.1-0.2l0.1-0.2l0.1-0.2l0.5-0.5v-0.2v-0.2l0.4-0.6l0.2-0.8v-0.2l0.2-0.4l0.3-0.5
	l0.5-0.1l0.2-0.1l0.2-0.2l0.1-0.2l0.1-0.2l0.1-0.4l0.1-0.4l0.1-0.4l0.2-0.3l0.3-0.2l0.4-0.1l0.1-0.1l0.1-0.2v-0.5v-0.3V85l0.1-0.2
	l0.4-0.4l0.2-0.6l0.2-0.6l0.5-0.8l0.5-0.8l0.2-0.2l0.2-0.1h0.2l0.2-0.1l0.6-0.4l0.2-0.1l0.2-0.1v-0.1v-0.2l-0.1-0.4l0.1-0.3l0.1-0.4
	v-0.3v-0.1l-0.1-0.2l0,0l-0.2-0.2l-0.3-0.1h-0.4l-0.2-0.1V78v-0.1v-0.1v-0.3l-0.3-1.3h0.5l0.6,0.2l0.2,0.1l0.1,0.5l0.2,0.3l0.4,0.2
	l0.2,0.4l0.1,0.7l0.2,0.4v0.1l0.2,0.6l0.1,0.2v0.3v0.2l0.1,0.3l-0.2,0.5l-0.1,0.3v0.4l0.1,0.7l0.2,0.6l0.2,0.5l0,0.3l0.3,0.4
	l0.4,0.4L115,85l-0.3,0.1h-0.6l-0.4-0.1h-0.2h-0.2l-0.7,0.1h-0.7l-0.6-0.1h-0.4l-0.3,0.2l-0.2,0.3l-0.2,0.3l0.1,0.3l0.2,0.2l0.3,0.4
	l0.3,0.3l0.1,0.2l0.6,0.5l0.6,0.5l0.1,0.1l0.2,0.1h0.1l0.3,0.3l0.4,0.4l0.4,0.7l0.3,0.7l0.3,0.7l0.1,0.1l0.2,0.1v0.1v0.2l-0.1,0.2
	L114.6,92z"/>
<path id="CV" class="st0" d="M0.5,65H0.2H0.1v-0.2L0,64.6v-0.1l0.6-0.3l0.2,0.1L1,64.5l-0.1,0.1L0.5,65L0.5,65z M1.3,65.3L1,65.4
	H0.9l-0.2-0.1l0.1-0.1L1,65h0.2L1.3,65.3L1.3,65.3L1.3,65.3z M6.9,65.8L6.9,65.8l-0.2-0.1l-0.1-0.1v-0.3l0.2-0.1h0.1v0.3V65.8
	L6.9,65.8z M3.5,65.9L3.5,65.9l0.1,0.2H3.4L3.1,66H3l-0.1,0.2l-0.2-0.4v-0.1l0,0L3,65.8L3.5,65.9L3.5,65.9z M6.8,67L7,67.1h0.1h0.1
	l0.2,0.2v0.2l-0.1,0.2L7,67.9H6.8l-0.2-0.2l0.1-0.3L6.8,67L6.8,67z M5.3,70.6l-0.2,0.3H4.7l-0.2-0.1l-0.2-0.3v-0.3L4.4,70v-0.2v-0.1
	h0.1v0.1l0.3,0.3l0.1,0.1L5.3,70.6L5.3,70.6z M6.1,70.2L6.1,70.2l-0.2-0.1v-0.2l0,0L6,69.7h0.2l0.1,0.1v0.3L6.1,70.2L6.1,70.2z
	 M2.9,71l-0.2,0.1H2.5L2.4,71l-0.1-0.2l0.1-0.1l0.3-0.2l0.2,0.1V71L2.9,71L2.9,71z"/>
<path id="DJ" class="st0" d="M192.4,80.7l-0.2,0.4l-0.3,0.5l-0.4,0.6h-0.2H191l-0.1-0.1l-0.2-0.1h-0.3l-0.3,0.1l-0.4,0.1h-0.4
	l-0.3,0.1l-0.3,0.1h-0.2l-0.2-0.1v-0.6v-0.6v-0.5l0.1-0.3l0.1-0.1l0.4-0.4l0.1-0.2l0.4-0.6l0.4-0.5l0.3-0.4l0.1-0.1l0.1-0.1h0.1
	l0.6,0.4h0.1l0.2-0.1l0.2-0.4l0.1-0.2l0,0l0.3-0.1l0.3-0.1v0.1l0.6,0.6l0.2,0.3l0.2,0.5l-0.1,0.3l-0.1,0.2l-0.2,0.2l-0.7,0.4
	l-0.8,0.3l-0.4,0.5h-0.3l0.1,0.2h0.1h0.2l0.4-0.1l0.3-0.1h0.4l0.3,0.1L192.4,80.7z"/>
<path id="DZ" class="st0" d="M95.2,1.5l0.1,0.2v0.2L95,2.1l-0.2,0.1l-0.2,0.4l-0.4,0.3l0,0.1v0.1l0.3,0.1l0.1,0.1v0.2l-0.1,0.6
	l-0.1,0.5l-0.1,0.6v0.2l0.1,0.3L94.5,6v0.3v0.6l0.1,0.4l0.1,0.3L94.4,8l-0.1,0.4l-0.1,0.5v0.3l-0.1,0.3l-0.2,0.3L93.7,10l-0.3,0.2
	l-0.3,0.2l-0.3,0.5l-0.5,0.4l-0.1,0.2l-0.1,0.4v0.5l0.1,0.4l0.3,0.6l0.2,0.6l0.1,0.3l0.1,0.1l0.3,0.2l0.6,0.3l0.1,0.1l0.3,0.4
	l0.3,0.8l0.1,0.5L95,17l0.5,0.4l0.5,0.3l0.5,0.4l0.1,0.1l0.2,0.7l0.2,0.7l0.2,0.8l0.2,0.8l0.2,1l0.1,0.5l0.1,0.7l0.2,0.8l-0.3,0.2
	l-0.3,0.2l0.2,0.4l0.4,0.6l0.3,0.5l0.1,0.2l0.2,0.6l0.2,0.6v0.2l0.1,0.5l-0.1,1.3l0.1,1.6l0.2,0.8l-0.3,0.7l-0.2,0.7v0.4l0.1,0.5
	l0.1,0.4l0.2,0.2v0.7l-0.1,0.2l-0.5,0.4l-0.5,0.3l-0.2,0.3V37l0.1,0.3L98,38l0.6,0.8l0.6,0.9l0.1,0.2v0.6l0.3,0.8l0.3,0.4L100,42
	l0.2,0.2l0.2,0.1h0.1l0.7-0.2l1.2,0.4l1.1,0.4l0.1,0.1l0.2,0.5l0.4,0.8l0.3,0.6l0.3,0.5l-1.5,0.9l-1.5,0.9l-1.5,0.9L98.9,49
	l-1.5,0.9l-1.4,1l-1.5,0.9L93,52.7l-1,0.6l-0.6,0.5l-0.8,0.7L90,55.2l-0.6,0.5l-0.7,0.7l-0.4,0.3l-0.8,0.8l-0.2,0.1l-1.1,0.2l-1,0.2
	l-0.9,0.2l-0.6,0.1L83,58.5l-0.9,0.2l-0.6,0.1l-0.7,0.1h-0.1h-0.1h-0.1l-0.2-0.1L80,58.7l-0.2-0.1v-0.1l0.1-0.2l0.1-0.2V58l0.1-0.1
	l0.1-0.1v-0.1l-0.1-0.2L80,57.2v-0.5v-0.2v-0.1l-0.2-0.2L79.4,56L79,55.9V56l-0.4-0.1l-0.5-0.1l-0.2-0.1l-0.4-0.4l-0.2-0.1l-0.8-0.1
	L76.3,55L76,54.9l-0.2-0.1l-0.1-0.2v-0.2l-0.1-0.1l-0.9-0.5l-0.2-0.2l-0.1-0.1v-0.2V53v-0.2v-0.1L74,52.4l-1-0.7L72.1,51l-0.9-0.6
	l-0.9-0.6l-0.9-0.6l-0.9-0.6l-0.9-0.7l-0.9-0.7l-0.9-0.7l-0.9-0.7L64,45.1l-0.9-0.7L62,43.9l-0.9-0.7l-0.9-0.7l-0.9-0.7l-0.8-0.6
	l-0.9-0.6L57,40.2l-0.6-0.4l-0.7-0.5L55.3,39l-0.5-0.3l-0.5-0.3l-0.5-0.3l-0.5-0.3l-0.5-0.3L52,37.1l-0.5-0.3L51,36.4L50.4,36
	l-0.5-0.3l-0.5-0.3L48.9,35l-0.5-0.3l-0.5-0.3l-0.5-0.3l-0.5-0.3v-0.6v-0.5v-0.8V31v-0.7v-0.5v-0.5v-0.2L47,29l0.3-0.2l0.4-0.4
	l0.2-0.2l0.2-0.2l0.7-0.5l0.2-0.1l0.7-0.6l0.2-0.1l0.4-0.1l0.2-0.1l0.2-0.2L51,26l0.2-0.1l0,0h0.1L52,26l0.3,0.1h0.3h0.1l0.1-0.1
	l0.1-0.2v-0.2v-0.2v-0.1H53h0.1h0.2h0.4h0.1h0.5l0.6-0.1l0.5-0.2l0.4-0.1l0.4-0.3l0.3-0.3l0.3-0.5l0.3-0.5l0.5-0.3l0.4-0.2l0.3-0.1
	l0.6-0.2l0.5-0.4l0.5-0.3h0.4l0.4-0.1l0.1-0.1l0.1-0.1v-0.2l-0.1-0.1l-0.2-0.1L60.5,21h-0.1v0v-0.2v-0.2l0.1-0.2v-0.2L60.4,20v-0.2
	v-0.2l0.1-0.1l0.2-0.1h0.2h0.3l0.5-0.1l1.2-0.4l0.1-0.1l0.1-0.3l0.1-0.3l0.1-0.1h0.1l0.4-0.1l0.6-0.1h0.2h0.6h0.4h0.7h0.5h0.4h0.6
	l0.1-0.1v-0.2l-0.1-0.4l0.1-0.2l0.2-0.2l0.3-0.2L68,16.5l-0.2-0.2l-0.3-0.2L67.3,16L67,15.7l-0.2-0.3l-0.1-0.7l-0.2-0.4L66.4,14
	l0.1-0.8l-0.2-0.5v-0.2v-0.3l0.1-0.4v-0.6l-0.2-0.7l0.1-0.2l0.1-0.1v-0.1L66,9.8l-0.1-0.2V9.4L66,9.2V9.1l-0.4-0.3L65,8.3V8.2
	l-0.1-0.3L65.5,8h0.3l0.7-0.3L67,7.2L67.4,7l0.4-0.5l0.3-0.3L68.5,6l1.4-0.7h0.2l0.5,0.2H71l0.3-0.2l0.3-0.6L72,4.2l0.6-0.3l0.8-0.3
	l0.5-0.3L74.6,3l2-0.2l1-0.1h0.7L79,2.2L79.4,2H81l0.7-0.4h2.7l0.3,0.1L85.1,2l0.6,0.5H86l0.4-0.1L87.2,2l1-0.2l0.5-0.3l0.2-0.4
	L89.3,1l0.3,0.3l1,0.3l0.6-0.1l0.3-0.1L91.3,1L92,1.1l0.5,0.2L93,1.7l0.3,0.1l0.6-0.2L95.2,1.5z"/>
<path id="EG" class="st0" d="M167.1,20.6L167.1,20.6l0.1,0.4l0.2,0.7l0.2,0.5l0.2,0.8l0.1,0.3v0.2l0.4,0.8l0.2,0.7l0.2,0.6l0.2,0.8
	l0.1,0.3l-0.2,0.1l-0.3,0.5l-0.3,1.6l-0.5,1.3l-0.1,0.8l-0.1,0.3l-0.2,0.4l-0.3,0.4l-0.5-0.2l-0.8-0.7l-0.5-0.7l-0.5-0.4l-0.5-0.6
	l-0.1-0.4v-0.3l-0.2-0.6l-0.2-0.3l-0.6-0.7l-0.2-0.4l-0.1-0.2l-0.1-0.2l-0.2-0.9l-0.2-0.6l-0.3,0.2v0.2l-0.2,0.3l-0.1,0.4l0.1,0.3
	l0.5,0.5l0.1,0.2l0.1,0.4V28l0.1,0.2l0.4,0.5l0.1,0.3l0.1,0.2l0.1,0.2l0.4,0.4l0.5,0.7l0.5,0.5l0.3,0.2l0.1,0.2V32v0.3l0.3,0.6
	l0.1,0.3l0.3,0.2l0.1,0.3l0.1,0.4l0.2,1.3l0.3,0.3l0.8,1.6l0.7,1l0.3,0.8l0.5,0.9l1,2.1l0.6,0.6l0.2,0.4l0.4,0.3l0.4,0.4H171h-0.1
	l-0.1,0.1l-0.1,0.2v0.2l0.1,1l0.1,0.5l0.4,1l0.3,0.3l0.1,0.2l0.2,0.1l0.9,0.3l0.5,0.7l1.2,0.9l0.1,0.2v0.1h-0.9h-0.9h-0.9H171h-1
	h-0.9h-0.9h-0.9h-0.9h-0.9h-0.9h-0.9h-0.9h-0.9H161h-0.9h-0.5l0.1-0.3l0.1-0.2l-0.1-0.1h-0.2h-0.1l-0.3,0.6H159h-0.3h-1.1h-1.1h-1.1
	h-1.1H153h-1.1h-1.1h-1.1h-1.1h-1.1h-1.1h-1.1h-1.1h-1.1H142h-1.1v-0.7v-0.7v-0.7v-0.7v-0.7v-0.7v-0.7V44v-0.7v-0.7v-0.7v-0.7V41
	v-0.7v-0.7v-0.7v-0.7v-0.7v-0.7v-0.7v-0.7v-0.7V34v-0.7v-0.7v-0.7v-0.7v-0.7v-0.7V29v-0.7v-0.7v-0.1l-0.2-0.5l-0.1-0.6l-0.2-0.8
	v-0.3l-0.3-0.8v-0.2l0.1-0.2l0.4-0.7l0.1-0.3l0.1-0.4v-0.3l-0.1-0.5l-0.1-0.4V21v-0.4l0.2-0.3l0.3-0.3l0.1-0.2l0.2-0.2l0.1-0.1
	l0.2,0.4l0.4,0.1l1.4-0.4l1.6,0.4l0.9,0.1l1.3,0.3l0.8,0.5l0.2,0.1h0.6l0.4,0.3l1.5,0.2l0.8,0.4l0.5,0.3l0.3,0.1h0.2l0.3-0.1
	l0.4-0.2l0.5-0.3l0.9-0.7l0.3-0.1h0.2h0.3l0.1-0.2l0.1-0.1l0.1-0.1l0.1-0.2l0.5-0.1l1-0.3l-0.1,0.1l-0.9,0.3h0.4l0.4-0.1l0.5-0.1
	l0.1-0.1l0.1-0.3h0.1l0.3,0.1l0.9,0.4h0.2l0.7-0.2h0.1l0.2,0.1l0.5,0.5h-0.2l-0.5-0.5v0.2l-0.3,0.4l0.4,0.2l0.3,0.1l0.2,0.2l0.1,0.2
	l0.3-0.1l0.2-0.3l-0.1-0.1l-0.1-0.2h0.1l0.2,0.1l0.6,0.5l0.2,0.1h0.2l0.5-0.1h0.1l0.6-0.2l0.1,0.1l0.1,0.1l0.5-0.2h0.8l0.7-0.2
	L167.1,20.6L167.1,20.6z"/>
<path id="EH" class="st0" d="M46.8,33.6v0.5v0.6v0.6V36v0.7v0.5v0.4h-0.6h-0.5h-0.5h-0.5h-0.5h-0.5H43h-0.5H42h-0.5H41h-0.5H40h-0.5
	H39h-0.5H38h-0.4V38v0.4v0.4v0.4v0.4V40v0.4V41v0.4v0.4v0.4v0.4V43v0.4v0.4v0.4v0.4V45v0.3l-0.2,0.1L37,45.6l-0.4,0.2L35.9,46
	l-0.2,0.1l-0.3,0.2L35,46.6l-0.4,0.3l-0.3,0.4l-0.1,0.2v0.2v0.2l0.1,0.4v0.2v0.3v0.4v0.4V50v0.4v0.4v0.4v0.3v0.4h-0.4h-0.6h-0.6
	h-0.6h-0.6h-0.6h-0.6h-0.6h-0.6h-0.6h-0.6h-0.6h-0.6h-0.6h-0.6h-0.6h-0.6h-0.4l-0.1,0.6l-0.1,0.4l-0.1,0.3v0.3l-0.1-0.2l0.2-1.6
	v-0.1l0.2-1.4l0.4-0.8l0.3-0.3l0.5-0.2l0.4-0.8l0.2-0.7l0.3-0.3l0.1-0.3L26,46.6l0.3-0.4l0.3-0.6l0.2-0.4l0.4-0.6v-0.1v-0.2L27,44.4
	l-0.2,0.2l-0.2,0.2l0.1-0.2l0.1-0.3l0.3-0.3l0.5-0.4l1.1-1.2l0.4-0.2l0.4-0.5l0.1-0.5v-1.1l0.1-0.6l0.2-0.4l0.3-0.8l0.2-0.4l0.1-0.7
	l0.2-0.3l0.3-0.1l0.4-0.4l0.6-0.2l0.7-0.5l0.3-0.3l0.2-0.4l0.2-0.9l0.4-0.9l0.2-0.7h12.2l0,0l0,0h0.4V33L46.8,33.6z"/>
<path id="ER" class="st0" d="M192.1,77.2l-0.3,0.1l-0.3,0.1l0,0l-0.1,0.2l-0.2,0.4l-0.2,0.1h-0.1l-0.5-0.4h-0.1l-0.1,0.1l-0.1,0.1
	l-0.2-0.3l-0.2-0.3l-0.3-0.3l-0.2-0.1l-0.3-0.2l-0.3-0.4l-0.3-0.5l-0.4-0.4l-0.7-0.5l-0.7-0.7l-0.5-0.7l-0.3-0.4l-0.1-0.1l-0.7-0.2
	l-0.5-0.3l-0.4-0.3l-0.2-0.1h-0.2l-0.5,0.1l-0.4-0.2h-0.2h-0.3l-0.2-0.1l-0.2,0.1l-0.5,0.1h-0.2L181,72l-0.1-0.1l-0.2-0.1h-0.1
	l-0.1,0.1l-0.5,0.3l-0.9,0.2h-0.2l-0.2-0.1l-0.4-0.5l-0.1-0.1h-0.1l-0.2-0.1l-0.2-0.1l-0.2-0.2l-0.2-0.1l-0.2,0.4l-0.3,0.7l-0.2,0.4
	l-0.2,0.5h-0.1h-0.1l-0.4-0.6l-0.3-0.2h-0.2l-0.1,0.1l-0.1,0.2l-0.1,0.1l-0.1,0.1h-0.2l-0.4-0.1h-0.4l-0.4,0.1h-0.1l-0.1-0.8
	l-0.1-0.6l-0.1-0.6l-0.1-0.6l0.3-0.3l0.1-0.3l0.3-1.1l0.1-0.2l0.2-0.6v-0.2l0.2-0.7v-0.5l-0.1-0.5l0.1-0.3l0.1-0.2v-0.2l0.1-0.5
	v-0.1h0.1l0.3,0.1h0.2h0.3h0.2l0.1-0.1l0.2-0.5l0.1-0.1h0.1l0.2-0.1l0.2-0.2l0.2-0.1h0.1h0.2l0.2-0.1l0.1-0.1l0.2-0.1h0.2l0.1-0.1
	h0.1h0.1l0.1-0.1V63l0.1-0.1l0.2-0.1l0.1-0.1v-0.1v-0.1l0.1-0.1l0.3-0.3l0.2-0.2l0.8,1.7l0.3,1l0.3,1l0.2,1.6l0.2,0.8l0.3,0.4
	l0.2,0.7h0.2l0.1,0.2l0.3,0.7l0.2,0.3l0.1-0.2V70l-0.1-0.2l0.1-0.3l0.1-0.2l0.3,0.2l0.2,0.2V70l0.1,0.2l0.3,0.4l0.3,0.1h0.4l0.3,0.1
	l0.2,0.1l0.5,0.4l1.1,0.4l0.9,1.1l0.5,0.8l1.6,1.1l0.3,0.5l0.1,0.5h0.3l0.6,0.6l0.2,0.4l0.5,0.2l0.1-0.3l0.2,0.2L192.1,77.2
	L192.1,77.2z M183.6,67.5l0.1,0.3l-0.3-0.1v-0.1L183.6,67.5L183.6,67.5L183.6,67.5L183.6,67.5z M183.8,68.6l0.1,0.2h0.1l0.1-0.1
	v-0.1l0.4,0.2v0.1h-0.3l-0.3-0.1h-0.3l-0.3-0.1l-0.1-0.2l0.2,0.1h0.1l0,0l-0.2-0.2h-0.2v-0.1l0.1-0.1l0.1-0.1l-0.1-0.2h0.2l0.2,0.1
	l0.1,0.1L183.8,68.6L183.8,68.6z"/>
<path id="ET" class="st0" d="M178.4,71.7h0.2l1-0.2l0.5-0.3l0.1-0.1h0.1l0.2,0.1v0.2l0.1,0.2h0.2l0.5-0.1l0.2-0.1l0.2,0.1h0.3h0.2
	l0.4,0.2l0.5-0.1h0.2l0.2,0.1l0.4,0.3l0.5,0.3l0.8,0.2l0.1,0.1l0.3,0.4l0.5,0.7l0.8,0.7l0.8,0.5l0.4,0.4l0.3,0.5l0.3,0.4l0.3,0.2
	l0.2,0.1L190,77l0.2,0.3l0.2,0.3l-0.3,0.4l-0.4,0.5l-0.4,0.6l-0.1,0.2l-0.4,0.4l-0.1,0.1l-0.1,0.3v0.5v0.6V82l0.2,0.1h0.2l0.3-0.1
	l0.3-0.1h0.4l0.4-0.1l0.3-0.1h0.3l0.2,0.1l0.1,0.1h0.2h0.2V82l-0.1,0.2l-0.1,0.2l-0.1,0.2l-0.3,0.5v0.1v0.1l0.2,0.2l0.2,0.3l0.1,0.3
	l0.1,0.2l0.2,0.2l0.3,0.4l0.2,0.2l0.3,0.1l0.1,0.3l0.2,0.5l0.3,0.4l0.2,0.3l0.3,0.1h0.1l0.7,0.5l0.4,0.4l0.1,0.1l0.9,0.3l1,0.3
	l0.8,0.2l1,0.2l1,0.3l1,0.3l1.3,0.4l1.1,0.3l0.9,0.3l0.2,0.1h1h1h1.1l-0.8,0.7l-0.9,0.8l-0.9,0.8l-0.5,0.5l-0.9,0.8l-0.8,0.7
	l-0.8,0.7l-0.7,0.7l-0.9,0.9l-0.5,0.6l-1,0.9l-0.5,0.6h-0.1h-0.9h-0.9l-1.1-0.1h-0.1l-0.3,0.1l-0.2,0.1l-0.8,0.2H194l-0.7,0.3
	l-0.7,0.3l-0.3,0.2l-0.2,0.3l-0.1,0.2l-0.1,0.1l-0.2,0.1l-1.3,0.2H190l-0.7,0.2l-0.3,0.3l-0.1,0.2h-0.4h-0.8h-0.3h-0.1H187l-0.2-0.1
	l-0.1-0.1l-0.2-0.2l-0.4-0.4l-0.3-0.2l-0.8,0.3l-0.7,0.3l-0.9,0.4l-0.5,0.3l-0.1,0.3l-0.4,0.5L182,104h-0.1l-0.9-0.1l-0.3-0.1
	l-0.4-0.1l-0.7-0.1l-0.4-0.1h-0.4h-0.7l-0.4-0.1l-0.4-0.3l-0.5-0.3l-0.5-0.3l-0.5-0.4l-0.7-0.4l-0.8-0.4H174h-0.1H173h-0.9h-0.5
	l-0.2-0.1l-0.1-0.1l-0.2-0.3l-0.2-0.2l-0.2-0.3v-0.4l0.1-0.4l0.1-0.1v-0.1v-0.2l-0.1-0.2l-0.9-0.2h-0.1l-0.1,0.1l-0.1,0.1l-0.1-0.1
	l-0.1-0.1v-0.1v-0.1v-0.1l-0.2-0.2l-0.2-0.3l-0.1-0.3l-0.1-0.2l-0.1-0.5l-0.2-0.3l-0.2-0.4l-0.2-0.8l-0.1-0.3l-0.2-0.2l-0.2-0.2
	l-0.2-0.3l-0.7-0.3l-0.2-0.2l-0.4-0.4l-0.1-0.2v-0.2l-0.1-0.2l-0.2-0.2l-0.8-0.5l-0.2-0.1h-0.2h-0.3l-0.5-0.1l-0.4-0.2l-0.2-0.1
	v-0.1v-0.1l0.1-0.3l0.3-0.6l0.2-0.4l0.1-0.1h0.4h0.4h0.3h0.4h0.5l0.2-0.1l0.1-0.2l0.1-0.1v-0.3v-0.2v-0.8v-0.5v-0.6v-0.1v-0.1
	l0.1-0.6l0.1-0.4l0.1-0.2l0.3-0.6l0.1-0.2v-0.2l-0.1-0.8l0.2-0.4l0.2-0.4l0.2-0.2l0.2-0.1h0.1l0.2,0.2l0.3,0.2h0.1l0.2-0.1l0.1-0.2
	v-0.3l0.1-0.6v-0.3l0.1-0.4l0.1-0.6l0.1-0.4l0.1-0.2l0.4-0.4l0.3-0.6l0.2-0.4l0.4-0.7l0.2-0.2L171,77l0.3-0.1l0.5-0.1l0.3-0.1v-0.1
	v-0.1v-0.3l0.1-0.5l0.1-0.5l0.2-0.4l0.1-0.2l0.1-0.2L173,74l0.2-0.6V73l0.2-0.8h0.1l0.4-0.1h0.4l0.4,0.1h0.2l0.1-0.1l0.1-0.1
	l0.1-0.2l0.1-0.1h0.2l0.3,0.2l0.4,0.6h0.1h0.1l0.2-0.5l0.2-0.4l0.3-0.7l0.2-0.4l0.2,0.1l0.2,0.2l0.2,0.1l0.2,0.1h0.1l0.1,0.1
	l0.4,0.5L178.4,71.7z"/>
<path id="GA" class="st0" d="M108.4,107.1v0.2l-0.2,0.5l-0.1,0.4v0.4l0.1,0.3l0.1,0.2l0.1,0.2l-0.1,0.2l-0.1,0.1l0.1,0.1h0.2
	l0.3-0.1l0.4-0.1l0.6-0.2l0.4-0.1l0.6,0.1l0.3,0.1l0.2,0.1l0.2,0.6l0.1,0.1l0.1,0.2l0.1,0.3v0.1v0.1l-0.1,0.2l-0.1,0.2v0.1l-0.1,0.1
	l-0.1,0.1H111l-0.1,0.1l-0.1,0.2l-0.2,0.2l-0.1,0.2l-0.1,0.3v0.3v0.5v0.3l0.1,0.1l0.5,0.1l0.1,0.1l0.1,0.2l0.2,0.2l0.4,0.1l0.2,0.1
	l0.1,0.2v0.1l-0.1,0.5l-0.1,0.5v0.4v0.4l0.1,0.5v0.3l-0.1,0.2v0.1l0.1,0.2l-0.1,0.5l-0.1,0.1l-0.2,0.1l-0.1,0.1v0.2l-0.1,0.3
	l-0.1,0.1v0.1l0.1,0.1v0.2l-0.2,0.2l-0.1,0.1l-0.3,0.1l-0.3-0.1L110,120l0.1-0.2v-0.1l-0.1-0.1l-0.2-0.3l-0.1-0.1l-0.1,0.1l-0.2,0.3
	l-0.4,0.3h-0.3l-0.6-0.1l-0.5-0.2l-0.2-0.4l-0.1-0.3l-0.2-0.4l-0.2-0.2l-0.2-0.1h-0.1l-0.3,0.2l-0.1,0.1v0.2v0.2l0.1,0.1v0.1v0.2
	l-0.1,0.2v0.2l-1.1,0.2l-0.2-0.1l-0.1-0.1h-0.2l-0.5,0.1l-0.2-0.1l-0.2-0.1l-0.1,0.1v0.1l0.1,0.6v0.2l-0.1,0.3l-0.1,0.2l0.3,0.1
	l0.1,0.1l0.1,0.1l0.1,0.1v0.1l-0.2,0.1l-0.1,0.2l0.1,0.1l0.2,0.1l0.3,0.2l0.1,0.1v0.1l-0.1,0.2l-0.1,0.2l-0.1,0.1v0.1l0.1,0.1v0.1
	l-0.1,0.1H104h-0.1h-0.1l-0.4-0.4h-0.1l-0.6,0.3l-0.2,0.1l-0.1,0.2l-0.2,0.4l-0.3-0.3l-0.2-0.5l-0.3-0.3l-0.6-0.5l-0.2-0.3l-0.7-0.7
	l-1-0.7l-0.7-0.6l-0.1-0.1h0.1l0.7,0.3H99l0.1-0.1l-0.3-0.2l-0.3-0.1l-0.3-0.1h-0.3l-0.1-0.1l-0.1-0.2v-0.2l-0.1-0.2l-0.4-0.4
	l-0.1-0.1l-0.2-0.2H97l0.4,0.2v-0.1v-0.1l-0.4-0.2h-0.2l-0.1-0.1V118l-0.3-0.6l-0.3-0.4v-0.2l0.8,0.9H97h0.1l0.3-0.1l-0.1-0.1
	l-0.1-0.1l-0.1,0.1h-0.2l-0.1-0.1v-0.1l0.2-0.4h-0.1l-0.1,0.1h-0.1h-0.2l-0.4-0.2l-0.3-0.6l-0.1-0.1l-0.1-0.2l-0.1-0.1l-0.4-0.9
	l0.2,0.1l0.2,0.3l0.4-0.1L96,115h0.1h0.1l0.2-0.1l0.4-0.6l0.1-0.8V113l-0.1-0.5l0.1-0.2l0.1,0.1v0.2l0.1,0.1l0.2,0.1h0.3l0.5,0.2
	l0.2,0.1v-0.2l0.5-0.2l-0.2-0.1l-0.5,0.1l-0.6-0.3l-0.2-0.2l-0.2-0.4l-0.2-0.2v-0.2l0.5-0.2h0.1v0.2l0.1,0.1l0,0v-0.2v-0.4l-0.1-0.6
	v-0.1h0.1l0.1-0.1h0.1H98l0.1,0.1v0.1h0.2l0.1,0.1h0.1l0.1-0.1h0.1h0.4h0.4h0.8h0.8h0.8h0.6V110v-0.5v-0.6v-0.6v-0.5v-0.6V107v-0.1
	v-0.1h0.6h1.1h0.5h0.1h0.6h0.5h0.2h0.2h0.6h0.7h0.3l0.1,0.1L108.4,107.1z"/>
<path id="GH" class="st0" d="M70.9,81.8l0.2,0.2v0.1L71,82.5l-0.1,0.3L70.8,83v0.1l0.1,0.1l0.3,0.2l0.1,0.1l0.2,0.2l0.2,0.2l0.3,0.2
	h0.1v0.1v0.1v0.9v0.2v0.1v0.3l0,0H72h-0.1v0.1V86h0.2v0.1H72l-0.1,0.1v0.1l-0.1,0.1v0.1h0.1H72l0.2-0.2h0.1h0.1l0.2,0.2v0.1L72.5,87
	l-0.1,0.3v0.4l0.1,0.2V88l-0.1,0.1l-0.2,0.2v0.1l0.1,0.2l0.2,0.2l0.4,0.3l0.2,0.4v0.1L73,89.7l-0.1,0.1V90l0.1,1.2l-0.3,0.5v0.1V92
	l0.1,0.1H73l0.1,0.1v0.4L73,93v0.2v0.1l-0.1,0.1v0.1v0.1v0.1l0.1,0.1l0.1,0.2l0.2,0.4h0.1v0.1v0.1l0.1,0.2l0.2,0.2l0.3,0.2h0.2v0.1
	l0.1,0.2l0.1,0.1l0.2,0.1h0.1v0.2L74.5,96l-0.2,0.2L74,96.6l-0.2,0.3L73.2,97H73h-1.2l-1.1,0.5l-0.6,0.2L69.8,98l-0.5,0.2l-0.4,0.3
	l-0.7,0.1L66.9,99l-0.4,0.2l-0.4,0.3l-0.6,0.3h-0.2l-0.5-0.3l-0.4-0.2l-0.9-0.2L62.8,99l-0.3-0.1h-0.1l0.1-0.1h0.2h0.2l0.2-0.1h0.2
	l0.1-0.1v-0.2v-0.2l0.1-0.1v-0.2l-0.1-0.5l-0.1-0.1l-0.4-0.1v-0.1L62.8,97l-0.1-0.2l-0.1-0.4L62.5,96l-0.3-0.7L62.1,95v-0.3v-0.3
	l0.1-0.1v-0.2v-0.2l0.2-0.4l0.4-0.5l0.1-0.2l0.1-0.1v-0.2l0.1-0.5l0.2-0.7l0.1-0.2l0.1-0.1l0.1-0.2v-0.1l0.3-0.3l0.2-0.1v-0.1
	L64,90.1V90h0.1h0.1l0.1-0.1l-0.1-0.8l-0.1-0.8v-0.1L64,88.1L63.7,88l-0.1-0.2l-0.2-0.1v-0.2l0.2-0.3V87l-0.1,0v-0.1l0.1-0.2v-0.1
	v-0.1L63.4,86v-0.3l0.1-0.1v-0.3l-0.1-0.5v-0.3l0.1-0.1v-0.1l-0.1-0.1v-0.1l0.1-0.1v-0.1l-0.1-0.1L63,83.5l-0.1-0.2v-0.4l0.2-0.7
	v-0.1h0.2l0,0H64h0.8h0.9h0.8l0,0h0.1l0.9,0.1H68h0.2h0.2h0.4H69l0.1,0.2h0.1l0.1-0.1l0.1-0.1l0.2-0.1l0.1-0.1l0.1-0.1h0.1H70
	l0.1-0.1v-0.1L70.9,81.8z"/>
<path id="GI" class="st0" d="M56.2,4.2L56.2,4.2L56.2,4.2v0.2l0,0l0,0V4.2L56.2,4.2L56.2,4.2L56.2,4.2z"/>
<path id="GM" class="st0" d="M24.1,76.2V76l-0.2-0.6l0.2-0.2l0.2-0.1l0.2,0.1v0.2l0.1,0.2l0.4,0.1l0.4-0.1h0.2v-0.1l0.1-0.2l0.5-0.1
	h0.5l0.5-0.1h0.4h0.1l0,0h-0.4l-0.8,0.1h-0.8l-0.6,0.3h-0.2l-0.3-0.3l-0.1-0.4h0.7h0.9H27h0.4l0.2-0.4l0.4-0.2l0.5-0.1h0.2l0.2,0.1
	l0.5,0.3l0.3,0.1l0.3,0.1l0.2,0.2l0.3,0.2h0.2h0.1L31,75l0.1-0.1h0.5l0.4,0.2l0.1,0.2L32,75.5l-0.5,0.1l-0.7,0.2l-0.5-0.1l-0.7-0.2
	l-0.4-0.2L29,75.2l0.2-0.2L29,74.9l-0.2-0.1h-0.2l-0.1,0.1L28.4,75l-0.1,0.2l-0.1,0.1l-0.5,0.1l-0.5,0.1l-0.3,0.1h-0.2l0,0.4h-0.6
	h-0.5H25h-0.6L24.1,76.2L24.1,76.2z"/>
<path id="GN" class="st0" d="M39.2,78.1L39.2,78.1L39,78.4l-0.1,0.2l-0.1,0.1v0.1L39,79l0.3,0.3h0.1l0.1-0.1l0.2-0.2l0.2-0.2
	l0.2-0.1h0.2l0.2,0.2l0.2,0.3l0.2,0.3l0,0l0.1,0.1h0.1l0.1-0.1h0.1l0.1-0.1l0.3-0.4l0.3-0.1h0.1l0.2-0.1l0.3,0.1l0.4,0.2l0.5,0.2
	h0.2h0.1L44,79l0.2-0.1l0.3-0.1l0.2-0.1h0.1v-0.1v-0.1v-0.1l0-0.4v-0.1h0.1h0.2h0.2l0.3,0.1l0.2,0.1l0.1,0.2l0.1,0.3l0.1,0.3
	l0.3,0.5v0.3v0.4l0.1,0.1h0.1l0.1,0.1l0.1,0.3l0.1,0.1H47l0.3,0.2l0.2,0.1v0.1v0.1l-0.1,0.1l-0.1,0.1l-0.2,0.1L47,81.7L46.8,82v0.1
	l0.1,0.1H47h0.1l0.2-0.1l0.2,0.1l0.2,0.1l0.1,0.1v0.2v0.2V83l0.1,0.4l0.1,0.4l0.1,0.1l0.6,0.3l0.1,0.1v0.1v0.2l-0.1,0.1l-0.2,0.2
	L48.3,85l-0.1,0.1v0.3V86v0.5l0.1,0.2l0.2,0.1h0.2h0.2v0.3v0.3l0.2,0.1l0.1,0.1l0.1,0.1L49,87.9L48.9,88v0.3v0.3l0.5,0.2l0.2,0.2
	l0.1,0.2v0.4v0.1h-0.1l-0.1-0.1l-0.1-0.1H49h-0.2l-0.3-0.1h-0.3h-0.1l-0.1,0v0.1v0.4l0.1,0.1l0.2,0.1h0.1h0.1l0.1,0.1v0.2l-0.1,0.1
	l-0.1,0.1L48.3,91v0.1v0.2L48,91.8v0.1l-0.3-0.1h-0.2l-0.2,0.1l-0.1-0.1l-0.1-0.1v-0.1H47h-0.1l-0.1,0.1l-0.1,0.2v0.2v0.1l-0.1,0.1
	l-0.2,0.2l-0.1,0.2l-0.1,0.2h-0.1H46l0,0L45.8,93h-0.2v-0.1l-0.1-0.1l-0.1-0.2l-0.1-0.1L45,92.4h-0.1h-0.1h-0.1v-0.1l0.1-0.2
	l0.1-0.2v-0.2v-0.2l-0.1-0.3L44.6,91v-0.1v-0.2v-0.2v-0.1v-0.2v-0.1L44.5,90v-0.2v-0.2l-0.1-0.1l-0.2-0.1l-0.1-0.1l-0.1,0h-0.1l0,0
	v0.1h-0.1l-0.1-0.2l0,0l-0.1,0.1l-0.7,0.3v-0.1l-0.1-0.1h-0.1l-0.2,0.1h-0.1h-0.2h-0.1l-0.3,0.3l-0.2,0.1h-0.1h-0.1h-0.1h-0.1v-0.1
	l0.1-0.1l0.1-0.4l0.4-0.4v-0.1l-0.1-0.2l-0.2-0.3V88v-0.2L41,87.6h-0.1v-0.1l0.1-0.2l0.1-0.2V87v-0.1l-0.2-0.2l-0.3-0.4L40.4,86
	l-0.2-0.4L40,85.4l-0.2-0.2l-0.1-0.1L39.5,85h-0.6h-0.7h-0.6v0.2L37,85.3l-0.4-0.2l-0.4,0.1L36,85.4v0.2l-0.1,0.2l-0.1,0.1V86
	l-0.1,0.1l-0.1,0.1l-0.1,0.2l-0.2,0.3L35.1,87l-0.4,0.1l-0.1,0.3l-0.1,0.1l-0.1,0.1l-0.1,0.1h-0.1H34l-0.2,0.1v-0.1l0.1-0.3
	l-0.1-0.1L33.5,87v-0.1l-0.1-0.2L33,86.3h-0.3l0.1-0.3v-0.4l-0.1-0.2v-0.2h-0.1l-0.1,0.1h-0.2L32,85.1l-0.2-0.2v-0.2v-0.1h-0.1h-0.2
	l-0.7-0.3l-0.5-0.9v-0.2l0.1-0.3v-0.1L29.9,83v-0.1l-0.2-0.3l-0.1-0.2l-0.2-0.1h-0.1l-0.1,0.1l-0.1,0.4H29l-0.1-0.1v-0.3l0.1-0.1
	l0.2-0.2l0.5-1l0.2-0.2l0.1-0.1h0.2l0.4-0.1l0.4-0.2l0.2-0.1h0.4h0.5l0.6-0.2v-0.3v-0.4v-0.1l-0.2-0.1L32.2,79l-0.1-0.1L32,78.8
	v-0.1l0.2-0.1h0.1h0.3l0.1-0.1l0.1-0.1l0.1-0.2V78l-0.2-0.3v-0.2h0.9h0.1h0.4h0.3h0.2l0.1,0.1v0.1v0.1l0.1,0.1h0.1H35l0.1-0.1
	l0.1-0.1h0.1l0.3,0.2l0.2,0.1l0.3,0.1l0.2,0.1h0.2l0.2,0.1H37l0.4-0.1l0.3-0.1h0.4h0.2L39,78L39.2,78.1L39.2,78.1z"/>
<path id="GO" class="st0" d="M203.9,145.8L203.9,145.8L203.9,145.8L203.9,145.8L203.9,145.8L203.9,145.8z"/>
<path id="GQ" class="st0" d="M95.6,102.6L95.6,102.6h0.5l0.1,0.1v0.2l-0.4,0.6l-0.1,0.3l-0.2,0.2h-0.1l-0.5-0.1l-0.1-0.1v-0.1v-0.3
	v-0.1H95h0.1l0.1-0.3v-0.3l0.1-0.2L95.6,102.6L95.6,102.6z M102.9,107.1v0.6v0.5v0.6v0.6v0.5v0.3h-0.6h-0.8h-0.8h-0.8h-0.4h-0.4H99
	l-0.1,0.1h-0.1l-0.1-0.1h-0.2v-0.1l-0.1-0.1h-0.2h-0.1l-0.1,0.1h-0.1V110l-0.3-0.2h-0.2l-0.2-0.1l0.1-0.4l0.2-0.4l0.3-0.3l0.1-0.1
	v-0.1l0.2-0.5l0.2-0.4l-0.1-0.4l0.1-0.7h0.1v0.1v0.1l0.1,0.1l0.3,0.1h0.9h0.5h0.8h0.9L102.9,107.1L102.9,107.1z"/>
<path id="GW" class="st0" d="M32.6,77.3v0.2l0.2,0.3V78l-0.1,0.2l-0.1,0.1l-0.1,0.1h-0.3h-0.1L32,78.7v0.1l0.1,0.1l0.1,0.1l0.1,0.1
	l0.2,0.1v0.1v0.4V80L32,80.2h-0.5h-0.4l-0.2,0.1l-0.4,0.2l-0.4,0.1h-0.2l-0.1,0.1L29.6,81l-0.5,1L29,82.2l-0.1,0.1l-0.1-0.2l0.1-0.4
	h-0.1L28.5,82h-0.1v-0.4h-0.1h-0.2l-0.2-0.2v-0.1v-0.2L28,81v-0.1h-0.1h-0.1L27.7,81l0.1-0.3l0.5-0.2h0.2h0.3l-0.1-0.2l-0.3-0.1
	l-0.2,0.1L28,80.4h-0.1l-0.2-0.3v-0.2l0.1-0.2l0.1-0.1h0.6l0.2-0.1h0.1l0.1-0.1v-0.1h-0.1l-0.2,0.1h-0.7l-0.2,0.1l-0.4,0.3L26.7,80
	l-0.3-0.1l0.1-0.4v-0.1l-0.1-0.1l-0.5,0.1l-0.4-0.2L25.3,79v-0.3l0.2-0.2v-0.1h-0.2L25,78.7l-0.8-0.4h0.2h0.4l0.3-0.1l0.2-0.1
	l0.3-0.1h0.3l0.9,0.1l0.7-0.2l0.6-0.3l0.5-0.3h0.7H30h1h0.8L32.6,77.3L32.6,77.3z M26.3,79.6L26.1,80h-0.2l-0.1-0.2v-0.1h0.4
	L26.3,79.6L26.3,79.6z M27.5,80.6L27.5,80.6h-0.2l0.2-0.2h0.2v0.2H27.5L27.5,80.6L27.5,80.6z M26.5,80.8l-0.1,0.1h-0.1l-0.1-0.1
	v-0.1l0.2-0.2h0.1V80.8L26.5,80.8z M27,81.5L27,81.5l-0.1,0.1l0,0L27,81.5l0.1-0.2h0.1l0,0v0.1l-0.1,0.1H27L27,81.5z M25.9,82h-0.2
	l-0.1-0.1v-0.1h0.1h0.1l0.1-0.1l0.1-0.1l0,0h0.1v0.2L26,81.9L25.9,82L25.9,82z M26.5,81.9L26.5,81.9L26.3,82v-0.1l0,0v-0.2l0,0
	l0.1,0.1l0,0L26.5,81.9L26.5,81.9z"/>
<path id="JU" class="st0" d="M191.1,161.7L191.1,161.7L191.1,161.7L191.1,161.7L191.1,161.7L191.1,161.7L191.1,161.7z"/>
<path id="KE" class="st0" d="M188.7,101.2l-0.3,0.5l-0.4,0.6l-0.8,1.1l-0.6,0.6l-0.4,0.4v0.1v0.5v1.2v2.4v2.4v2.4v1.2v0.4l0.4,0.5
	l0.4,0.5l0.5,0.6l0.3,0.3v0.1v0.2l-0.4,0.5l-0.3,0.2l-0.5,0.1h-0.1l-0.2-0.1l-0.1,0.1l-0.1,0.2h-0.1l-0.1-0.1v0.3v0.2l-0.1,0.2
	l-0.2,0.2v0.2l-0.5,0.4h-0.7l-0.4,0.2l-0.2,0.2l-0.1,0.4v0.6l-0.2,0.4v0.2l-0.3,0.3l-0.2,0.3l-0.1,0.3l-0.1,0.1l-0.1,0.6l-0.2,0.4
	v0.1v0.1l-0.1,0.2l-0.1,0.1l-0.1,0.1l-0.4,0.9l-0.3,0.4H181l-0.2,0.2v0.1h-0.1l-0.2-0.2l-0.4-0.3l-0.4-0.3l-0.4-0.3l-0.4-0.3
	l-0.4-0.3l-0.4-0.3l-0.4-0.3l-0.4-0.3l-0.3-0.2l-0.1-0.1l-0.1-0.2v-0.1l-0.1-0.1h-0.1l0,0v-0.1v-0.1l0.2-0.3v-0.2v-0.2v-0.3v-0.1
	l-0.3-0.2l-0.6-0.3l-0.6-0.3l-0.6-0.3l-0.6-0.3l-0.6-0.3l-0.6-0.3l-0.6-0.3l-0.6-0.3l-0.6-0.3l-0.6-0.3l-0.6-0.3l-0.6-0.3l-0.6-0.3
	l-0.6-0.3l-0.6-0.3l-0.6-0.3l-0.2-0.1l-0.2-0.1h-0.2v-0.5l0.1-1.2v-1.1l0.1-0.5l0.3-0.3l0.1-0.2l0.1-0.3l0.1-0.3l0.3-0.2l0.1-0.1
	l0.3-0.4l0.2-0.5l0.1-0.2l0.2-0.2l0.1-0.1l0.2-0.1h0.2l0,0v-0.1l-0.1-0.3l0.1-0.1l0.1-0.2l0.1-0.2l0.1-0.1l0.1-0.1v-0.2v-0.2v-0.2
	v-0.6l-0.1-0.5l-0.1-0.5l0.1-0.2l-0.1-0.3h-0.1l-0.1-0.1l-0.1-0.3l-0.1-0.3l-0.1-0.1l-0.4-0.2l-0.2-0.5l-0.2-0.1l-0.1-0.5v-0.2
	l0.1-0.5v-0.1l-0.1-0.1l-0.4-0.1l-0.3-0.2v-0.1v-0.1l-0.2-0.1l-0.4-0.9l0.6-0.6l0.6-0.6l0.7-0.7l0.7-0.7l0.6-0.6l0.5-0.5v0.1V98
	l0.1,0.1l0.1,0.1l0.1-0.1l0.1-0.1h0.1l0.8,0.2l0.1,0.2v0.2v0.1l-0.1,0.1l-0.1,0.4v0.4l0.2,0.3l0.2,0.2l0.2,0.3l0.1,0.1l0.2,0.1h0.5
	h0.8h0.8h0.1h0.2l0.7,0.4l0.6,0.4l0.5,0.4l0.5,0.3l0.5,0.3l0.4,0.3l0.4,0.1h0.6h0.4l0.4,0.1l0.6,0.1l0.4,0.1l0.3,0.1l0.8,0.1h0.1
	l0.3-0.3l0.4-0.5l0.1-0.3l0.5-0.3l0.8-0.4l0.6-0.3l0.7-0.3l0.3,0.2l0.4,0.4l0.2,0.2l0.1,0.1l0.2,0.1h0.3h0.1h0.3h0.7L188.7,101.2
	L188.7,101.2z M186.1,118.3H186l0.1-0.2l0.3-0.2h0.1l0,0l0,0h-0.1L186.1,118.3L186.1,118.3z"/>
<path id="KI" d="M599.6,120.9L599.6,120.9l0.2,0.1v0.1l0,0h-0.1h-0.1l0,0l0,0l0,0h0.1h0.1l0,0l0,0l-0.1-0.1L599.6,120.9L599.6,120.9
	L599.6,120.9L599.6,120.9L599.6,120.9L599.6,120.9L599.6,120.9L599.6,120.9L599.6,120.9L599.6,120.9z M601.3,121.9L601.3,121.9
	L601.3,121.9L601.3,121.9L601.3,121.9L601.3,121.9L601.3,121.9L601.3,121.9z M600.9,125.7L600.9,125.7L600.9,125.7L600.9,125.7
	L600.9,125.7L600.9,125.7L600.9,125.7L600.9,125.7L600.9,125.7L600.9,125.7z M598.1,125.8L598.1,125.8L598.1,125.8L598.1,125.8
	L598.1,125.8L598.1,125.8L598.1,125.8L598.1,125.8L598.1,125.8L598.1,125.8L598.1,125.8L598.1,125.8L598.1,125.8L598.1,125.8
	L598.1,125.8z M591.7,126.3L591.7,126.3L591.7,126.3L591.7,126.3L591.7,126.3L591.7,126.3L591.7,126.3L591.7,126.3L591.7,126.3
	L591.7,126.3L591.7,126.3L591.7,126.3L591.7,126.3L591.7,126.3L591.7,126.3z M-376.1,102.2l0.2,0.2v0.1h-0.2h-0.1h0.1l0,0l-0.1-0.1
	h-0.1h-0.1v0.1l-0.1-0.1l0.1-0.1L-376.1,102.2L-376.1,102.2L-376.1,102.2z M556.6,104.4l-0.2,0.1h-0.1L556.6,104.4L556.6,104.4
	L556.6,104.4L556.6,104.4z M556.2,104.6l-0.2,0.1l-0.1-0.1h0.1H556.2L556.2,104.6L556.2,104.6L556.2,104.6z M-370.5,108l0.5,0.3
	h-0.2l-0.5-0.2l-0.4-0.3l0.1-0.1l0.1,0.1l0.2,0.1l0.1-0.2l0.1-0.1l-0.4-0.2h0.1l0.3,0.2L-370.5,108L-370.5,108z M556.7,108
	L556.7,108L556.7,108l-0.2-0.2l0,0l0,0L556.7,108L556.7,108L556.7,108L556.7,108z M556.7,108.3L556.7,108.3L556.7,108.3L556.7,108.3
	V108l0,0v0.1V108.3L556.7,108.3L556.7,108.3z M556.7,109.4L556.7,109.4L556.7,109.4l0.3-0.1l0,0h0.1l0,0l0,0h-0.2L556.7,109.4
	L556.7,109.4L556.7,109.4z M556.7,110.3l0.2,0.1v0.1l-0.1,0.1l-0.2,0.2h-0.1l0.2-0.2l0.1-0.1L556.7,110.3L556.7,110.3L556.7,110.3
	L556.7,110.3L556.7,110.3L556.7,110.3L556.7,110.3z M560.9,115.4L560.9,115.4L560.9,115.4L560.9,115.4l-0.2-0.4h-0.1l-0.1-0.1l0,0
	l0.1,0.1h0.1l0.1,0.2L560.9,115.4L560.9,115.4z M547,115.6L547,115.6L547,115.6L547,115.6L547,115.6L547,115.6L547,115.6z
	 M561.6,116.6L561.6,116.6L561.6,116.6L561.6,116.6L561.6,116.6l-0.2-0.2h0.1L561.6,116.6L561.6,116.6L561.6,116.6z M-363.8,124.6
	L-363.8,124.6L-363.8,124.6h-0.1h-0.1l0,0h0.1H-363.8L-363.8,124.6L-363.8,124.6L-363.8,124.6z M-366.3,128.9L-366.3,128.9h-0.1l0,0
	l0,0l0,0l0,0H-366.3L-366.3,128.9L-366.3,128.9L-366.3,128.9z M-354.9,145.4L-354.9,145.4L-354.9,145.4L-354.9,145.4l-0.1-0.1v-0.1
	l0,0L-354.9,145.4L-354.9,145.4L-354.9,145.4z"/>
<path id="KM" class="st0" d="M193.1,146.8L193.1,146.8l-0.3-0.1h-0.1l-0.2-0.3l0.1-0.9l0.1-0.1h0.1h0.1l0.1,0.1v0.6l0.2,0.4l0.1,0.3
	H193.1L193.1,146.8z M195.9,147.3l0.1,0.4v0.3l-0.1,0.1l-0.1-0.1l-0.2-0.2l-0.4-0.2h0.2h0.1h0.1l0.1-0.1v-0.1L195.9,147.3
	L195.9,147.3L195.9,147.3z M194,147.9l0.2,0.2l-0.5-0.1l-0.1-0.2v-0.1h0.2L194,147.9L194,147.9z"/>
<path id="LR" class="st0" d="M47.3,91.9L47.3,91.9L47.3,91.9l0.2,0.4l0.3,1v0.3l-0.1,0.2V94v0.2l-0.2,0.3L47,94.9l0,0l0.1,0.1h0.1
	h0.1l0.1,0.1l0.2,0.2l0.2,0.1l0.2,0.1h0.2h0.2h0.2l0.3,0.1l0.1,0.2l0.1,0.2l0.1,0.1v0.2l0.2,0.2h0.3l0.3,0.2h0.1l0,0l0,0l0.1,0.5
	l0.1,0.3v0.1v0.1v0.4l-0.2,0.2v0.3v0.1l-0.2,0.1V99v0.3v0.3v0.7v0.5l0.1,0.1h-0.3l-1-0.4l-0.7-0.2L45.5,99l-0.7-0.5L44,97.7
	l-1.7-1.6l-0.4-0.3l-0.5-0.1l-0.3-0.1l-0.2-0.1L40.7,95l-0.4-0.3l-0.8-0.4l-0.6-0.6l0.1-0.1l0.2-0.4l0.3-0.4l0.3-0.2l0.2-0.2
	l0.2-0.2l0.3-0.2l0.5-0.6l0.1-0.1l0.1-0.4l0.1-0.5l0.2-0.2l0.4-0.1L42,90l0.1-0.3l0.1-0.4v-0.1h0.1l0.2-0.1h0.1l0.1,0.1v0.1l0.7-0.3
	l0.1-0.1l0,0l0.1,0.2h0.1V89l0,0h0.1l0.1,0.1l0.1,0.1l0.2,0.1l0.1,0.1v0.2v0.2l0.1,0.1V90v0.2v0.1v0.2v0.2v0.1l0.1,0.2l0.1,0.3v0.2
	v0.2l0.1,0.3l-0.1,0.2v0.1h0.1h0.1h0.1l0.3,0.1l0.1,0.1l0.1,0.2l0.1,0.1v0.1h0.2l0.2-0.1l0,0H46h0.1l0.1-0.2l0.1-0.2l0.2-0.2
	l0.1-0.1V92v-0.2l0.1-0.2l0.1-0.1h0.1H47v0.1l0.1,0.1L47.3,91.9z"/>
<path id="LS" class="st0" d="M151.8,201.7l-0.3,0.1l0,0h-0.2h-0.2h-0.2h-0.1l-0.2,0.2l-0.4,0.6l-0.1,0.1v0.2l-0.1,0.2l-0.1,0.2h-0.1
	l-0.3-0.1l-0.4-0.1l-0.2-0.2l-0.2-0.2l-0.1-0.2l-0.1-0.1v-0.1l-0.2-0.1h-0.1h-0.1l-0.1-0.1V202v-0.3l-0.1-0.2l-0.2-0.3l-0.1-0.2
	l-0.2-0.3l-0.1-0.3l-0.1-0.3V200l0.1-0.1l0.3-0.1l0.2-0.1l0.2-0.2l0.2-0.3l0.1-0.2l0.1-0.1l0.1-0.1l0.2-0.3l0.2-0.3l0.2-0.3l0.3-0.1
	l0.4-0.1l0.4-0.3l0.4-0.3l0.7-0.3l0.3-0.1h0.1l0.1,0.1l0.1,0.2l0.1,0.1l0.3,0.2l0.1,0.1l0.3,0.3l0.3,0.2l0.3,0.3l0.2,0.1h0.1
	l0.1,0.2l0.1,0.2l0.1,0.2v0.2l-0.1,0.4l-0.2,0.4l-0.1,0.2l-0.2,0.1l-0.1,0.2l-0.1,0.3l-0.1,0.4l-0.2,0.2l-0.1,0.1l-0.2,0.1
	L151.8,201.7z"/>
<path id="LY" class="st0" d="M141.7,19.5l-0.1,0.1l-0.2,0.2l-0.1,0.2l-0.3,0.3l-0.2,0.3V21v0.5l0.1,0.4l0.1,0.5v0.3l-0.1,0.4
	l-0.1,0.3l-0.4,0.7l-0.1,0.2v0.2l0.3,0.8v0.3l0.2,0.8l0.1,0.6l0.2,0.5v0.1v0.7V29v0.7v0.7v0.7v0.7v0.7v0.7V34v0.7v0.7v0.7v0.7v0.7
	v0.7v0.7v0.7v0.7V41v0.7v0.7v0.7v0.7v0.7v0.7v0.7v0.7v0.7V48v0.7v0.7v0.7v1.5v1.5v1.5v1.5l0,0l0,0l0,0l0,0h-0.7h-0.7H139h-0.7v0.4
	v0.4V57v0.4l-1.3-0.7l-1.3-0.7l-1.3-0.7l-1.3-0.7l-1.3-0.7l-1.3-0.7l-1.3-0.7l-1.3-0.7l-1.3-0.7l-1.3-0.7l-1.3-0.7l-1.3-0.7
	l-1.3-0.7l-1.3-0.7l-1.3-0.7l-1.3-0.7l-0.9-0.5l-1,0.5l-0.8,0.4l-1,0.5l0,0l-1.2,0.7l-0.9,0.5l0,0l0,0l-0.9-0.8l-0.7-0.7l-0.3-0.2
	l-1.4-0.3L107,46l-1.5-0.4l-0.3-0.5l-0.3-0.6l-0.4-0.8l-0.2-0.5l-0.1-0.1l-1.1-0.4l-1.2-0.4l-0.7,0.2h-0.1l-0.2-0.1l-1-0.4l-0.1-0.3
	l-0.3-0.4l-0.3-0.8v-0.6l-0.1-0.2l-0.6-0.9L98,38l-0.4-0.6l-0.1-0.3v-0.3l0.2-0.3l0.5-0.3l0.5-0.4l0.1-0.2v-0.7l-0.2-0.2l-0.1-0.4
	l-0.1-0.5v-0.4l0.2-0.7l0.3-0.7l-0.2-0.8l-0.1-1.6l0.1-1.3l-0.1-0.5v-0.2L98.4,27l-0.2-0.6l-0.1-0.2l-0.3-0.5l-0.4-0.6l-0.2-0.4
	l0.3-0.2l0.3-0.2l0.3-0.2l0.5-0.2l0.2-0.1l0.1-0.1l0.4-0.5l0.2-0.3l0.3-0.4l0.1-0.3V22v-0.3L99.7,21l-0.2-0.7l0.1-0.3l0.1-0.1
	l0.2-0.3l0.1-0.1l0.5-0.1l0.2-0.2l0.1-0.3v-0.1l0.2-0.2l0.2-0.2l0.2-0.2l0.5-0.3l0.5-0.3l0.5-0.3l0.4-0.2l0.1-0.2v-0.2l-0.2-0.4
	v-0.5v-0.4v-0.2l0.1-0.6v-0.1l0.4,0.2l0.4,0.1l1.3,0.8l0.4,0.1l0.9,0.1l1.1-0.3l0.4-0.1l0.7,0.3l0.3,0.1h0.5l0.9,0.3l0.2,0.1
	l0.5,0.4l0.3,0.1l1.9,0.4l0.3,0.3l0.3,0.5v0.6l0.1,0.5l0.2,0.6l0.3,0.4l0.3,0.3l0.4,0.2l0.8,0.3l0.9,0.1h0.9l1.6,0.4l1.4,0.5
	l0.3,0.2l0.7,0.2l1.3,1.2l0.7,0.4l0.5,0.1l0.5-0.1l0.8-0.4l0.3-0.2l0.8-1l0.3-0.5l0.1-0.4v-0.4l-0.1-0.3l-0.2-0.4l-0.2-0.5L127,19
	l0.1-0.6l0.2-0.4l0.3-0.4l0.7-0.7l0.7-0.5l1.2-0.7h0.7l0.3-0.1l0.6-0.5h0.2l0.3,0.1h1l0.4,0.1l0.5,0.3l0.6,0.2l0.5,0.2l0.5,0.2
	l0.1,0.6L136,17v0.2l0.5,0.4l1.4,0.2l0.3,0.1l0.4,0.3l0.3,0.1h1l0.6-0.1l0.5,0.1l0.2,0.1l0.2,0.2l0.3,0.6V19.5z"/>
<path id="MA" class="st0" d="M64.9,7.9L65,8.2l0.2,0.2l0.6,0.5l0.4,0.3v0.1L66,9.4v0.2v0.2l0.2,0.2v0.1l-0.1,0.1L66,10.4l0.2,0.7
	v0.6l-0.1,0.4v0.3v0.2l0.2,0.5l0.1,0.9l0.2,0.5l0.2,0.4l0.1,0.7l0.2,0.3l0.3,0.3l0.2,0.1l0.3,0.2l0.2,0.2l0.1,0.3h-0.3l-0.2,0.2
	l-0.1,0.2l0.1,0.4V18l-0.1,0.1L67,18h-0.4H66h-0.7h-0.4h-0.6h-0.2h-0.6l-0.4,0.1H63l-0.1,0.1l-0.1,0.3l-0.1,0.3l-0.1,0.1l-1.2,0.4
	L61,19.4h-0.3h-0.2l-0.2,0.1l-0.1,0.1v0.2V20l0.1,0.2v0.2l-0.1,0.2v0.2V21l0.1,0.1h0.1l0.1,0.1l0.2,0.1l0.1,0.1v0.2l-0.1,0.1
	l-0.1,0.1l-0.4,0.1h-0.4l-0.5,0.3L59,22.6l-0.6,0.2l-0.3,0.1l-0.4,0.2l-0.5,0.3l-0.3,0.5l-0.3,0.5l-0.3,0.3L55.8,25l-0.4,0.1
	l-0.5,0.2l-0.6,0.1h-0.5h-0.1h-0.4h-0.2H53h-0.1v0.1v0.2v0.2l-0.1,0.2l-0.1,0.1h-0.1h-0.3L52,26.1L51.3,26h-0.1l0,0L51,26.1
	l-0.3,0.3l-0.2,0.2l-0.2,0.1l-0.4,0.1L49.6,27l-0.7,0.6l-0.2,0.1L48,28.2l-0.2,0.2l-0.2,0.2L47.2,29l-0.4,0l-0.1,0.1v0.2v0.5v0.5V31
	v0.7v0.8h-0.4l0,0l0,0H34.1l0,0l0.4-0.4l0.3-0.5l0.4-0.2l0.9-0.1l1.4-0.4l1.2-0.6l0.3-0.2l0.4-0.5L40,29l1.1-0.7l0.5-0.4l0.8-1
	l0.5-0.8l0.4-0.5l0.3-0.5l0.2-0.5l0.1-0.8l0.1-0.3L43.7,23l-0.2-0.1l-0.1-0.2l0.1-0.4v-0.7l0.1-1.2l0.4-0.9l0.9-1.2l0.2-0.5l0.1-0.8
	v-0.3l1.2-1.2l0.7-0.9l0.2-0.2l0.6-0.4l2.1-0.9l1.2-0.6l0.7-0.5l0.4-0.6l1-2.4l1.1-3.1l0.1-0.4L55,5.4h0.4l0.3-0.1L56,5l0.3,0.1
	l-0.2,0.2v0.4l0.2,0.5l0.4,0.5l0.8,0.6l0.6,0.3L59,7.7l1-0.3h0.5l0.3-0.1L61,7.5l0.5,0.1L62,7.5l0.4-0.3l0.3-0.3v0.2v0.2l0.1,0.1
	L63,7.8L63.1,8h0.3l0.3,0.1h0.6L64.9,7.9z"/>
<path id="MG" class="st0" d="M210.1,148.3l0.1,0.3l0.1,0.3l0.5,0.7l0.2,0.3l0.2,0.3l0.1,0.6l0.3,0.9l0.3,1.3l0.1,1.4l0.1,0.6
	l0.2,0.6l0.4,0.6l0.1,0.7l-0.2,0.7l-0.3,0.7l-0.1,0.1l-0.1,0.2H212l-0.3-0.2l-0.2-0.3l-0.3-0.7l-0.1-0.3L211,157h-0.3l-0.2,0.2v0.1
	v0.4l0.1,0.3v0.3v0.4l0.1,0.1l0.1,0.1l0.1,0.3v0.7l-0.1,0.3l-0.2,0.3v0.2l0.1,0.2l-0.1,0.1l-0.3,0.1l-0.1,0.1l-0.2,0.3l-0.3,0.6v0.3
	l0.2,0.9v0.7l-0.3,1.3l-0.2,0.6l-0.3,0.7l-0.4,1l-0.4,1.2l-0.3,1.3l-0.2,0.8l-0.3,0.7l-0.4,1.3l-0.3,1.3l-0.5,1.5l-0.7,1.7l-0.1,0.2
	l-0.1,0.9l-0.2,0.7l-0.2,0.7l-0.4,1.2v0.4l-0.1,0.4l-0.4,0.8l-0.2,0.3l-0.1,0.3l-0.1,0.4l-0.1,0.4l-0.3,0.7l-0.4,0.6l-0.3,0.2
	l-0.6,0.3l-0.3,0.1H201l-0.6,0.2l-0.7,0.3l-0.6,0.4l-0.2,0.2l-0.3,0.1h-0.8l-0.3-0.1l-0.8-0.6l-0.3-0.1l-0.6-0.1l-0.2-0.1l-0.2-0.1
	l-0.3-0.3l-0.5-0.3l-0.1-0.1l-0.1-0.2l-0.1-0.2l-0.1-0.2l-0.1-0.5l-0.2-0.3l-0.5-0.6v-0.2v-0.6v-0.4v-0.7l0.1-0.3l0.2-0.3l-0.1-0.3
	l-0.2-0.3l-0.1-0.4l-0.1-0.3l-0.5-0.6l-0.1-0.3l-0.1-0.3l-0.2-0.9v-0.3v-0.7l0.1-0.4l0.1-0.2v-0.2l0.1-0.2l0.1-0.1l0.1-0.1l0.2-0.9
	l0.2-0.2l0.3-0.1l0.3-0.2l0.2-0.3l0.2-0.6l0.4-0.6l0.2-0.3l0.3-0.5l0.3-0.7l0.1-0.3l0.1-0.3l0.1-0.7l0.1-0.4v-0.4l-0.2-0.4l-0.4-0.7
	v-0.1v-0.5v-0.4l-0.2-0.4l-0.2-0.3l-0.2-0.6l-0.1-1V164l-0.1-0.3l-0.1-0.3l0.1-0.6l1.2-2v-0.2l-0.1-0.6v-0.4v-0.1l0.1-0.1h0.2l1-0.1
	l0.1-0.1l0.2-0.2l0.3-0.3l0.2-0.1h0.1l0.1,0.1l0.1,0.1l0.4-0.1h0.2h0.2l0.1-0.1v-0.2l0.1-0.1l0.1-0.1h0.5l0.3-0.1l0.4-0.1h0.1
	l0.3,0.5h0.1h0.1l0.1-0.1l-0.3-0.2v-0.1v-0.2l0.2-0.3l0.3-0.3l0.6-0.4l0.6-0.4h0.2l0.1,0.1l0.1,0.5v0.1h0.1l0.1-0.1l0.1-0.2v-0.2
	l-0.1-0.2v-0.1v-0.1l0.3-0.3l0.2-0.3l0.1-0.4l0.1-0.2l0.2-0.2h0.1l0.1,0.1v0.2l-0.1,0.2l-0.1,0.2v0.2h0.1h0.1l0.2-0.4l0.2-0.4
	l0.1-0.2l0.2-0.1h0.3l0.3,0.1l-0.4-0.4l-0.1-0.5l0.5-0.9v-0.2l0.1-0.1v-0.1l-0.3-0.3l-0.1-0.1V152l0.1-0.2l0.1-0.1l0.2-0.1l0.1,0.1
	l0.3,0.2h0.2l0.2-0.2l0.2-0.3l0.3-0.2l0.3-0.1l0.5-0.5l0.3-1v-0.3l-0.1-0.3l-0.1-0.3l-0.2-0.4v-0.1l0.3,0.1l0.1-0.1l0.3-0.4l0.5-0.7
	h0.2l0.1,0.1l0.1,0.2l0.1,0.1l0.3,0.3L210.1,148.3L210.1,148.3z M206.8,151v0.1h-0.4l-0.1-0.4h0.2v-0.1h0.1L206.8,151L206.8,151
	L206.8,151z M211.3,161.2l-0.3,0.5l0.1-0.4l0.4-0.6h0.1L211.3,161.2L211.3,161.2z"/>
<path id="ML" class="st0" d="M83,58.5V59v0.8v0.9v0.8v0.9v0.7V64v0.9L82.9,65v0.5v0.6l-0.2,0.7l-0.3,0.5l-0.1,0.5l-0.1,0.3L82.1,68
	v0.2L82,68.4l-0.1,0.2l-0.1,0.1l-0.3,0.1L81,69.2v0.4l-0.6-0.1l-0.6-0.1h-0.1h-0.1v0.2h-0.9h-0.8H77h-0.6h-0.8h-0.8L74.3,70
	l-0.5,0.4l0,0l-0.6,0.1l-0.8-0.1H72h-0.2v0.2l-0.6-0.2l-0.7-0.2L70,70.6h-0.1l-0.1-0.1l-0.2-0.1h-0.4L69,70.5l-0.4,0.3l-0.3,0.3
	l-0.1,0.1l-0.4,0.2L67,71.8L66.5,72l-0.1,0.1l-0.2,0.1h-0.3l-0.3,0.1L65.3,73h-0.1l-1-0.3H64l-0.2,0.1l-0.5,0.4L63,73.6l-0.1,0.5
	v0.1v0.2l-0.1,0.1h-0.1h-0.1l-0.4-0.1h-0.1L62,74.6v0.5l-0.1,0.3l-0.3,0.1l-0.2,0.1h-0.2h-0.1l-0.8-0.5L60,75.2l-0.3,0.1l-0.3,0.2
	l-0.1,0.1l-0.2,0.2L59,76.1l0.1,0.2l0.1,0.2l0.1,0.3V77l-0.7,0.3l0.1,0.1l0.1,0.1v0.3v0.4l-0.1,0.2l-0.2,0.2l-0.1,0.2l-0.1,0.1
	L58.1,79l-0.3,0.1l-0.5,0.1l-0.4,0.1l-0.1,0.1l-0.2,0.1l-0.2,0.2v0.2v0.2l0.1,0.2l0.1,0.1v0.2L56.5,81l-0.1,0.5l-0.1,0.2l-0.2,0.1
	L55.7,82l0.1,0.3v0.5l-0.1,0.4v0.2l-0.1,0.2v0.2h-0.1h-0.4l-0.4,0.1L54.6,84v0.1l-0.1,0.1l-0.1,0.1l-0.1,0.1h-0.2l-0.2-0.1l-0.1-0.1
	v-0.1l0.1-0.1l0.1-0.1v-0.1l-0.1-0.2l-0.1-0.2v-0.1L53.7,83l0,0l-0.4,0h-0.1h-0.1v0.1l0.1,0.2l0,0H53l-0.2-0.1L52.5,83l-0.1,0.1v0.2
	v0.2l0.1,0.3L52.3,84h-0.2h-0.2h-0.2h-0.1l-0.1,0.1v0.1l0.1,0.2v0.1l-0.1,0.1h-0.1h-0.1l-0.2-0.2L51,84.3l-0.5-0.1L50.4,84h-0.1
	l-0.1-0.1l-0.1-0.2H50h-0.1h-0.3L49.4,84l-0.2,0.3L49,84.5l-0.2,0.1h-0.1v-0.2v-0.1l-0.1-0.1L48,83.7l-0.1-0.1l-0.1-0.4l-0.1-0.4
	v-0.2v-0.2v-0.2l-0.1-0.1L47.4,82l-0.1,0l-0.2,0.1H47h-0.1L46.8,82v-0.1l0.3-0.4l0.1-0.2l0.2-0.1l0.1-0.1l0.1-0.1v-0.1v-0.1L47.3,81
	L47,80.8h-0.1l-0.1-0.1l-0.1-0.3l-0.1-0.1h-0.1l-0.1-0.1v-0.4v-0.3L46.1,79L46,78.6l-0.1-0.3l-0.1-0.2L45.5,78l-0.3-0.1H45h-0.2
	h-0.1V78l0.1,0.2v0.1v0.1v0.1h-0.1l-0.2,0.1l-0.3,0.1L44,78.9l-0.2,0.3h-0.1h-0.2L43,78.9l-0.4-0.2l-0.3-0.1l-0.2,0.1H42l-0.3,0.1
	l-0.3,0.4l-0.1,0.1h-0.1l-0.1,0.1H41l0,0.1l0,0l-0.2-0.3l-0.2-0.3l-0.2-0.2h-0.2L40,78.8L39.9,79l-0.2,0.2l-0.1,0.1h-0.1L39.1,79
	l-0.2-0.2v-0.1l0.1-0.1l0.1-0.2l0.1-0.2l0.1-0.1v-0.2L39,77.8v-0.1v-0.2l0.1-0.4v-0.2l0.1-0.3L39,76.4v-0.1l-0.1-0.2l-0.2-0.2v-0.2
	l-0.1-0.2l-0.2-0.2h-0.1h-0.2v0.1L38,75.5h-0.1l-0.1-0.1v-0.1v-0.1L37.6,75l-0.3-0.4v-0.3l0.2-0.2V74v-0.1l-0.1-0.2l-0.1-0.1v-0.3
	v-0.4l-0.1-0.2l-0.1-0.1L37,72.4l-0.1-0.2l0.1-0.3l0.1-0.2l-0.3-0.5l0.5,0.2l0.1-0.1l0.2-0.1l0.2-0.2l0.2-0.3l0.1-0.4V70l0.1-0.3
	l0.1-0.2l0.2-0.3l0.2-0.2l0.3-0.2h0.1l0.3,0.3l0.6,0.5l0.5,0.4l0.2,0.2h0.1l0.2-0.4l0.2-0.3l0.1-0.1h0.3h0.3h0.2l0.4,0.1l0.2,0.1
	h0.2h0.5l0.5-0.1l0.5-0.1l0.4-0.1v-0.2v-0.2l0.1-0.1l0.1-0.1h0.1v0.4l0.1,0.1h0.3H46h0.6H47h0.6h0.6h0.6h0.6H50h0.6H51h0.6h0.6h0.6
	h0.6H54h0.6h0.6h0.6l0.2-0.9l0.1-0.8l0.1-0.7l-0.4-0.5l-0.3-0.4l-0.1-0.7l-0.1-0.7l-0.1-0.7L55,63.2l-0.1-0.7l-0.1-0.7l0-0.8
	l-0.1-0.7l-0.1-0.7l-0.1-0.7L54.4,58l-0.1-0.7l-0.1-0.7l-0.1-0.7L54,55.2l0-0.9v-0.7l-0.1-0.7l-0.1-0.7l-0.1-0.7l-0.1-0.8l-0.1-0.8
	l-0.1-0.8l-0.1-0.8l-0.1-0.8l-0.1-0.8l0.1-0.7l-0.1-0.8L53,44.5l-0.1-0.8L52.8,43l-0.1-0.8l-0.1-0.8l-0.1-0.7h0.9h0.9h0.9h1.3h1
	l0.9,0.6l0.8,0.6l0.9,0.7l0.9,0.7l0.9,0.7l0.9,0.7l0.9,0.7l0.9,0.7l0.9,0.7l0.9,0.7l0.9,0.7l0.9,0.7l0.9,0.6l0.9,0.6l0.9,0.6
	l0.9,0.6l0.9,0.6l0.9,0.6l0.4,0.3v0.1v0.2v0.3v0.2l0.1,0.1l0.2,0.2l0.9,0.5l0.1,0.1v0.2l0.1,0.2l0.2,0.1l0.2,0.1l0.3,0.1l0.8,0.1
	l0.2,0.1l0.4,0.4l0.2,0.1l0.5,0.1l0.8,0h0.2l0.4,0.1l0.4,0.2l0.2,0.2v0.1v0.2v0.5l0.1,0.3l0.1,0.2v0.1L80.3,58l-0.2,0v0.1L80,58.3
	l-0.1,0.2v0.1l0.2,0.1l0.2,0.2l0.2,0.1h0.1h0.1h0.1l0.7-0.1l0.6-0.1L83,58.5z"/>
<path id="MR" class="st0" d="M57.6,40.7h-1h-1.3h-0.9h-0.9h-0.9l0.1,0.7l0.1,0.8l0.1,0.8l0.1,0.8l0.1,0.8l0.1,0.8l0.1,0.8l0.1,0.8
	l0.1,0.8l0.1,0.8l0.1,0.8l0.1,0.8l0.1,0.8l0.1,0.8l0.1,0.7l0.1,0.7l0.1,0.7l0.1,0.7l0.1,0.7l0.1,0.7l0.1,0.7l0.1,0.7l0.1,0.7
	l0.1,0.7l0.1,0.7l0.1,0.7l0.1,0.7l0.1,0.7l0.1,0.7l0.1,0.7l0.1,0.7l0.1,0.7l0.1,0.7l0.1,0.7l0.3,0.4l0.4,0.5L56,67.5l-0.1,0.8
	l-0.2,0.9h-0.6h-0.6h-0.6h-0.6h-0.6h-0.6h-0.6h-0.6h-0.6h-0.6h-0.6h-0.6h-0.6h-0.6H47h-0.6h-0.6h-0.5H45l-0.1-0.1v-0.4h-0.1
	l-0.1,0.1L44.6,69v0.2v0.2l-0.4,0.1l-0.5,0.1l-0.5,0.1h-0.5h-0.2l-0.2-0.1l-0.4-0.1h-0.2h-0.3h-0.3l-0.1,0l-0.2,0.3l-0.2,0.4h-0.1
	L40.2,70l-0.5-0.4l-0.6-0.5L39,68.8h-0.1L38.6,69l-0.2,0.2l-0.2,0.3L38,69.6l-0.1,0.3v0.3l-0.1,0.4L37.6,71l-0.2,0.2l-0.2,0.1
	l-0.1,0.1l-0.5-0.2h-0.1L36.2,71l-0.1-0.2l-0.2-0.2l-0.3-0.1l-0.2-0.1l-0.1-0.2L35.2,70L35,69.9v-0.1v-0.1v-0.1l-0.2-0.3l-0.2-0.2
	h-0.2h-0.1L34.2,69v-0.1l-0.1-0.1h-0.2l-0.1-0.2l-0.1-0.4l-0.1-0.3l-0.2-0.3l-0.1-0.1h-0.1l0,0v-0.1h-0.1l-0.2,0.1h-0.2l-0.1-0.1
	h-0.1l-0.1,0.1h-0.2L32,67.1L31.9,67v-0.2l-0.3-0.3L31,66l-0.7-0.2h-0.7h-0.4l-0.1-0.1H29l0,0.1h-0.1h-0.1h-0.1v0.1L28.4,66H28
	l-0.4,0.1l-0.3,0.1l-0.4,0.1h-0.5L26,66.2l-0.1-0.1h-0.2h-0.2l-0.2,0.2l-0.2,0.4L25,66.9l0,0.2l-0.1,0.3L24.8,68l-0.1,0.2v-1.3
	l0.2-0.5V66l0.3-1l0.4-0.8l0.4-1l0.1-1v-1L26,60.3l-0.2-0.6l-0.2-0.8l-0.3-0.4L24.9,58l-0.1-0.2l0.1-0.1l0.3-0.1l0.2-0.3L25,57.5
	l0.5-0.9l0.1-0.6v-0.4l0.1-0.3l-0.3-0.6L25,54l-0.1-0.1l-0.1-0.1V54l-0.1,0.1L24.5,54l-0.3-0.5l-0.4-0.8l-0.1-0.1l-0.1,0.1l-0.1,0.1
	l-0.1,0.7v-0.3l0.1-0.3l0.1-0.4l0.1-0.6h0.4h0.6h0.6h0.6h0.6h0.6h0.6h0.6h0.6h0.6h0.6h0.6h0.6h0.6h0.6h0.6h0.6h0.4v-0.4v-0.3v-0.4
	v-0.4V50v-0.4v-0.4v-0.4v-0.3v-0.2L34,47.9v-0.2v-0.2l0.1-0.2l0.3-0.4l0.4-0.3l0.4-0.3l0.3-0.2l0.2-0.1l0.5-0.1l0.4-0.2l0.4-0.2
	l0.2-0.1v-0.3v-0.4v-0.4v-0.4v-0.4v-0.4v-0.4v-0.4v-0.4v-0.4V41v-0.4v-0.4v-0.4v-0.4V39v-0.4V38v-0.4h0.4h0.5h0.5h0.5h0.5h0.5H41
	h0.5H42h0.5H43h0.5H44h0.5H45h0.5H46h0.6v-0.4v-0.5V36v-0.7v-0.6v-0.6v-0.5l0.5,0.3l0.5,0.3l0.5,0.3l0.5,0.3l0.5,0.3l0.5,0.3
	l0.5,0.3l0.5,0.3l0.5,0.3l0.5,0.3l0.5,0.3l0.5,0.3l0.5,0.3l0.5,0.3l0.5,0.3l0.5,0.3l0.4,0.3l0.7,0.5l0.6,0.4L57.6,40.7L57.6,40.7z
	 M25.2,56.8L25,57.1L24.9,57v-0.2l0.2-0.3l0.1-0.1l0.1-0.1L25.2,56.8L25.2,56.8z"/>
<path id="MU" class="st0" d="M232.9,171.8l-0.4,0.1h-0.4l-0.2-0.2v-0.1l0.1-0.1v-0.2l0.1-0.3l0.1-0.1l0.2-0.1l0.1-0.3l0.2-0.2h0.2
	l0.2,0.3l0.2,0.3v0.3l-0.2,0.1l-0.1,0.2L232.9,171.8z"/>
<path id="MW" class="st0" d="M169.2,145.8h-0.4h-0.5l-0.1,0.1v0.2l-0.1,0.4l-0.1,0.2l-0.2,0.3l-0.2,0.4l-0.1,0.1v0.1l0.1,0.5
	l0.2,0.6v0.2l0.1,0.7l0.1,0.5v0.3l0.1,0.4l0.1,0.2l0.1,0.1l0.5,0.1l0.2,0.1l0.3,0.3l0.7,0.7l0.4,0.5l0.3,0.4l0.6,0.8l0.4,0.6
	l0.1,0.6l0.1,0.1l-0.1,0.4l-0.1,0.7l0.1,0.4v0.8l-0.1,0.8l-0.1,0.3l-0.1,0.1L171,159l-0.7,0.1l-0.1,0.1l-0.1,0.2l-0.1,0.4l-0.2,0.4
	l-0.1,0.2l0,0l0.1,0.2l0.1,0.5v0.8l-0.1,0.1h-0.2h-0.2h-0.1l-0.1-0.1l-0.1-0.2l0.1-0.1l0.1-0.2l-0.1-0.2H169l-0.2-0.2l-0.5-0.6
	l-0.4-0.4l-0.2-0.3l-0.2-0.1l-0.1-0.1l-0.1-0.1v-0.2v-0.1l-0.1-0.2l-0.2-0.3l-0.1-0.1v-0.2l0.1-0.2l0.2-0.2l0.2-0.4l0.1-0.3l0.3-0.5
	v-0.5v-0.4v-0.3l-0.1-0.6l-0.1-0.4l-0.4-0.5h-0.1h-0.3l-0.3,0.1l-0.1,0.1h-0.2l-0.6,0.1h-0.2l-0.1,0.1h-0.1l-0.4-0.4l-0.3-0.4
	l-0.4-0.7l-0.1-0.1l-0.1-0.2l-0.1,0.1l-0.2,0.1h-0.1l0,0l0,0v-0.1l-0.1-0.3l-0.1-0.2l-0.2-0.1L163,152l0.1-0.1l0.1-0.1v-0.1
	l-0.1-0.1l-0.3-0.1v-0.1l0.2-0.1l0.2-0.1l0.1-0.1l0.1-0.3l0.1-0.3l0.1-0.1v-0.2V150l0.1-0.3v-0.3l-0.1-0.1l-0.1-0.2l0.1-0.3l0.1-0.2
	l0.6-0.2l0.4-0.2l0.1-0.1l0.1-0.2l0.1-0.2h-0.1h-0.3l-0.1-0.1l-0.2-0.6l0.1-0.6v-0.3v-0.3v-0.2l-0.1-0.1l-0.1-0.1v-0.3h0.1l0.2-0.4
	l0.1-0.3l-0.1-0.2l-0.1-0.3l-0.1-0.2v-0.1l0.1-0.1l0.1-0.1h0.2l0.2-0.1l0.5-0.5v-0.1l-0.1-0.2l-0.2-0.3v-0.1v-0.3l-0.1-0.1l-0.3-0.2
	l-0.2-0.2l0.1-0.2v-0.3l-0.1-0.1l-0.2-0.1l-0.1-0.2v-0.2l-0.1-0.1H164l-0.1,0.1h-0.1h-0.1v-0.1v-0.2l-0.1-0.1l-0.1-0.1v-0.1l0,0h0.1
	l0.4,0.3h0.3l0.3,0.1l0.3,0.3h0.1h0.2h0.5h0.2l0.2,0.1h0.1h0.2l0,0v-0.1v-0.2V140l0.1-0.1l0.3,0.1l0.7,0.6v0.1l0.4,0.5l0.1,0.2v0.1
	l0.1,0.5v0.2v0.2v0.1l0.1,0.2v0.1l0.1,0.3l0.1,0.2v0.2v0.2l-0.1,0.3v0.1v0.1l0.1,0.1l0.1,0.1l0.1,0.2l0.1,0.2l0.1,0.1h0.1h0.1
	l0.1,0.1l0.1,0.2L169.2,145.8L169.2,145.8L169.2,145.8z M168.3,147.1l-0.1,0.2h-0.1l-0.1-0.1v-0.1h0.1L168.3,147.1L168.3,147.1
	L168.3,147.1z M168.6,147.4L168.6,147.4h-0.2v-0.2v-0.1h0.1h0.1v0.1L168.6,147.4L168.6,147.4L168.6,147.4L168.6,147.4z"/>
<path id="MZ" class="st0" d="M163.4,191h-0.3h-0.5h-0.3H162l-0.4-0.1h-0.2v-1l-0.1-0.2l-0.1-0.3v-0.2l0.1-0.2v-0.3v-0.3l-0.3-0.1
	h-0.1l-0.1-0.2v-0.3l0.2-0.4v-0.8v-0.3v-0.6V185v-0.6v-0.5l-0.1-0.3v-0.1l-0.1-0.3l-0.1-0.6l-0.2-0.5l-0.2-0.3l-0.1-0.2l-0.1-0.2
	l-0.2-0.4l-0.2-0.2v-0.2v-0.4l-0.2-0.8l-0.1-0.6l-0.2-0.6l-0.1-0.4v-0.1v-0.2l0.4-0.3l0.4-0.4l0.5-0.5l0.4-0.5l0.4-0.4l0.5-0.6
	l0.5-0.5l0.1-0.1l0,0l-0.2-0.5l0.3-0.6v-0.4v-0.3v-0.2l0.1-0.1l0.4-0.3l0.3-0.5l0.2-0.4l0.3-0.7v-0.2v-0.2l-0.1-0.2l-0.2-0.4
	l-0.2-0.3l-0.1-0.5l0.1-0.4l0.1-0.3v-0.1l-0.1-0.1l-0.2-0.1l-0.1-0.1v-0.2v-0.2l0.1-0.1l0.4-0.2l0.1-0.1v-0.1V166l0.1-0.4l0.1-0.4
	v-0.1l-0.1-0.1v-0.2v-0.3v-0.9l0.1-1v-0.5l-0.2-0.6V161l0.2-0.3v-0.2h-0.1h-0.3l-0.2-0.1l-0.3-0.3l-0.5-0.2l-0.6-0.2l-0.9-0.1
	l-0.7-0.6l-0.6-0.1l-0.2-0.1l-0.5-0.4H158h-0.9h-0.5l-0.1-0.1v-0.5v-0.5v-0.4l-0.1-0.5l-0.1-0.2l-0.1-0.3l-0.1-0.3v-0.2v-0.1
	l0.6-0.2l0.3-0.1l0.4-0.1l0.7-0.2l0.6-0.2l0.6-0.2l0.6-0.2l0.2-0.1l0.3-0.1l0.7-0.2l0.2-0.1l0.4-0.1l0.2-0.1l0.8-0.3l0.9-0.3
	l0.3-0.1l0.6-0.2l0.1,0.1l0.4,0.7l0.3,0.4l0.4,0.4h0.1l0.1-0.1h0.2l0.6-0.1h0.2l0.1-0.1l0.3-0.1h0.3h0.1l0.4,0.5l0.1,0.4l0.1,0.6
	v0.3v0.4v0.5l-0.3,0.5l-0.1,0.3l-0.2,0.4l-0.2,0.2l-0.1,0.2v0.2l0.1,0.1l0.2,0.3l0.1,0.2v0.1v0.2l0.1,0.1l0.1,0.1l0.2,0.1l0.2,0.3
	l0.4,0.4l0.5,0.6l0.2,0.2h0.2l0.1,0.2l-0.1,0.2l-0.1,0.1l0.1,0.2l0.1,0.1h0.1h0.2h0.2l0.1-0.1v-0.8l-0.1-0.5l-0.1-0.2l0,0l0.1-0.2
	l0.2-0.4l0.1-0.4l0.1-0.2l0.1-0.1l0.7-0.1l0.3-0.1l0.1-0.1l0.1-0.3l0.1-0.8v-0.8l-0.1-0.4l0.1-0.7l0.1-0.4l-0.1-0.1l-0.1-0.6
	l-0.4-0.6l-0.6-0.8l-0.3-0.4l-0.4-0.5l-0.7-0.7l-0.3-0.3l-0.2-0.1l-0.5-0.1l-0.1-0.1l-0.1-0.2l-0.1-0.4v-0.3l-0.1-0.5l-0.1-0.7v-0.2
	l-0.2-0.6l-0.1-0.5v-0.1l0.1-0.1l0.2-0.4l0.2-0.3l0.1-0.2l0.1-0.4v-0.2l0.1-0.1h0.5h0.4h0.6h0.7h0.1h0.1h0.2l0.2-0.1l0.2-0.1
	l0.2-0.2h0.4l0.5,0.2l0.3,0.2v0.2l0.3,0.1h0.6l0.4-0.1l0.3-0.2l0.3-0.1h0.3l0.2,0.1l0.2,0.2l0.3,0.1l0.4,0.1l0.5-0.1l0.5-0.3
	l0.3-0.3l0.1-0.3l0.1-0.2l0.1-0.1h0.3h0.4l0.4,0.1l0.5,0.3l0.3-0.2l0.5-0.3l0.5-0.2h0.5l0.4-0.1l0.3-0.3l0.3-0.2l0.4-0.1l0.3-0.1
	l0.5-0.3l0.5-0.4l0.5-0.4l0.3-0.2l0.1,0.3l0.3,0.3L185,143l-0.2,0.1l0.3,0.2l-0.2,0.3v0.2l0.1,0.1l0.1,0.1l-0.1,0.3l-0.2,0.2
	l-0.1,0.2l0.2,0.3l-0.1,0.6l0.2,0.5v0.3l0.1,0.2l-0.1,0.3v0.6v0.2l-0.1,0.3l0.2,0.1l0.1,0.3v0.4l-0.1,0.2l-0.3,0.2v0.1v0.1h0.4v0.2
	v0.2v0.3v0.2l0.1,0.2l-0.1,0.3v0.2v0.3l0.1,0.6v0.8v0.1l0.1,0.1h0.2v0.2l-0.2,0.3v0.2v0.3l0.2-0.3h0.1l0.1,0.1v0.2v0.1v0.2l0.1,0.2
	v0.2l-0.2,0.1l-0.2,0.3v0.2v0.2h-0.1l-0.1,0.1l0.1,0.2v0.2l-0.3,0.6l-0.7,0.8l-0.3,0.3l-0.3,0.3v0.1v0.1l-0.3,0.5l-0.3,0.1l-0.2,0.1
	l0.2,0.4l-0.2,0.1l-0.4,0.3l-1.1,0.6l-0.2,0.1l-0.3,0.4l-0.4,0.1l-0.2,0.1H180h-0.1h-0.1l-0.1,0.1l-0.7,0.3l-0.7,0.2l-0.2,0.1
	l-0.1,0.1l-0.6,0.2l-0.9,0.5l-0.8,0.5l-0.5,0.5l-0.1,0.1l-0.2,0.2l-0.1,0.3l-0.1,0.1l-0.4,0.5l-0.6,0.6l-0.1,0.2l-0.2,0.3v0.2
	l-0.2,0.1l-0.2-0.2l-0.1,0.4h-0.1l-0.2-0.1l-0.4,0.2l-0.4,0.2l-0.6,0.5l-0.8,1l-1.2,0.9H169h-0.1l-0.4-0.3h-0.2l0.2,0.2l0.1,0.2v0.3
	v0.5l-0.1,0.9v0.2l0.2,0.3l0.3,0.3l0.3,0.4l0.4,1.2v0.6l0.4,0.8v0.3l0.2,0.8v0.7v0.4l0.2,0.2l0.1-0.2v-0.3l0.1-0.4l0.1-0.2h0.1v0.2
	l0.1,0.2v0.2v0.2l-0.1,0.9v0.3l0.2,0.6l-0.2,0.7l-0.3,1.6v0.3l0.1,0.1h0.2l0.1-0.2h0.1l0.1,0.1l-0.1,0.7l-0.1,0.3l-0.5,0.8l-0.3,0.3
	l-0.5,0.3l-1.1,0.5l-2.2,0.8l-0.9,0.4l-0.5,0.2l-1.1,0.7l-0.5,0.5l-0.2,0.5l-0.2,0.3l-0.2,0.3l0.2,0.3l0.2,0.2l0.2,0.1l0.1,0.1
	l0.1,0.1l0.1-0.4l0.1-0.1h0.1l-0.1,0.5L163.4,191L163.4,191L163.4,191z M168.6,146.8L168.6,146.8l0.1-0.1v-0.1v-0.1h-0.1h-0.1v0.1
	v0.2L168.6,146.8L168.6,146.8L168.6,146.8z M168.3,146.5L168.3,146.5l-0.1-0.1h-0.1v0.1l0.1,0.1h0.1V146.5L168.3,146.5z"/>
<path id="NA" class="st0" d="M136.7,163.4l0.6-0.1l0.6-0.1l0.7-0.1l0.5-0.1h0.1l1.3,0.1l0.6,0.1l0.2,0.1l0.3,0.2l0.5,0.5H142
	l-0.9,0.1l-0.3,0.1l-0.7,0.6l-0.2-0.1l-0.2-0.1h-0.1l-0.3,0.1l-0.3,0.2l-0.4,0.2l-0.3,0.2l-0.1,0.1l-0.5,0.5l-0.1,0.1h-0.1h-0.1
	l-0.1-0.2l-0.3-0.5l-0.5-0.6l-0.1-0.1h-0.1H136l-1,0.2l-0.8,0.1l-1.3,0.2l-1.4,0.2l-0.8,0.1H130v0.6v1.2v1.2v1.2v1.2v1.2v1.2v1.2
	v1.2v0.5v0.1h-0.4h-0.9h-0.8h-0.6v0.7v0.9v0.9v0.9v0.9v0.9v0.9v0.9v0.9v0.7v0.1v1.3v1.4v1.4v1.4v1.4v1.4v1.4v1.4v0.4H127l-0.6,0.2
	l-0.4,0.2l-0.2,0.3l-0.2,0.2l-0.3,0.1l-0.1,0.1v0.2l-0.1,0.2l-0.2,0.1h-0.4l-0.5-0.2h-0.7l-0.8,0.1h-0.6l-0.4-0.2l-0.4-0.1h-0.4
	l-0.2-0.1l-0.5-0.1l0-0.4l-0.1-0.2l-0.1-0.2v-0.2l0.1-0.1v-0.2l-0.1-0.3l-0.1-0.1h-0.2l-0.1-0.1v-0.2l-0.1-0.2L119,195l-0.3,0.1
	l-0.2,0.2l-0.1,0.3l-0.1,0.1v0.2v0.2l-0.1,0.2l-0.1,0.1H118l-0.2,0.1l-0.4,0.3l-0.1,0.1l-0.3-0.3l-0.9-1l-0.3-0.3l-0.5-0.6l-1.1-1.8
	l-0.2-0.4l-0.2-0.9l-0.2-0.7v-0.4l0.1-0.2l-0.1-0.3l-0.1-0.3l-0.4-0.3l-0.1-1.1l-0.2-0.7l0.1-0.6l-0.1-0.5v-0.3l0.1-0.7l-0.2-0.8
	l-0.4-0.7l-0.4-1.1l-0.1-0.5v-1.2l-0.1-0.5v-0.6l-0.1-0.6l-0.1-0.3l0.1-0.3l0.1,0.1h0.1l0.1-0.4v-0.3l-0.2-0.8l-0.4-0.8l-1-1.3
	l-0.2-0.5l-0.1-0.4l-1.1-1.7l-0.5-1.2l-0.3-1l-0.4-0.5l-1.6-3.3l-0.4-0.5l-0.7-0.6l-0.2-0.2l-0.3-0.6l-0.5-0.8l-0.1-0.7v-0.8
	l0.1-0.6l0.4-0.1l0.3-0.2h0.3l0.3,0.1h0.3h0.1h0.5l0.3-0.2l0.4-0.2l0.2-0.1l0.3-0.1l0.4-0.1h0.2l0.3,0.1l0.4,0.1l0.2,0.1l0.2,0.3
	l0.4,0.3l0.3,0.2l0.3,0.2l0.1,0.1h0.1h0.1h0.6h0.5h0.6h1.1h1.1h1.1h1.1h1.1h1.1h1.1h1.1h0.4h0.8h0.8h0.1l0.1,0.1l0.1,0.1l0.3,0.4
	l0.4,0.4l0.3,0.2l0.4,0.1h0.3h0.3l0.5,0.1l0.7,0.1h0.8l0.8-0.1l0.6,0.1l0.3,0.2l0.3,0.1l0.3,0.1h0.5l0.6-0.1h0.5l0.2,0.1h0.1
	l0.8-0.2l0.7-0.1l1-0.2l0.8-0.2l1.2-0.2L136.7,163.4z"/>
<path id="NE" class="st0" d="M113.2,46.9l0.3,1.8l0.2,1.5v1v0.2l0.1,0.2l0.2,0.2l0.9,1.4l-0.2,0.2l0.1,0.4L115,54l0.7,0.8l0.1,0.2
	v0.1l-0.5,1l-0.1,0.2l-0.1,1.2l-0.1,0.9l-0.1,1.2l-0.1,1.4l-0.1,1.2l-0.1,1.6l-0.1,1.5l-0.7,0.8l-1.3,1.4l-1.1,1.2l-0.5,0.8l-1,1.5
	l-0.5,1l-0.4,0.5l-0.2,0.2l0.2,0.7l0.3,1.2h-0.5l-0.3,0.1l-0.4,0.3l-0.4,0.1l-0.5,0.2l-0.3,0.2l-0.3,0.2l-0.4,0.4l-0.1,0.3l-0.4,0.1
	h-0.6l-0.4-0.3l-0.8-0.3l-0.5-0.1h-0.2l-1.3-0.1l-1.4,0.1l-0.7,0.1h-0.1l-0.4,0.2L99,76l-0.9,1h-1.2l-0.7-0.1l-0.6-0.1l-0.8-0.4
	l-1-0.7l-0.4-0.1L93,75.5h-0.1l-1.2,0.7h-0.2l-0.3,0.1L91,76.5l-0.1,0.1h-0.1h-0.2l-0.2-0.1l-0.2-0.2l-0.5-0.7l-0.1-0.1L89.4,75
	L89,74.7l-0.2-0.2h-0.1h-0.2l-1-0.3l-1-0.3h-0.2L86.2,74l-0.3,0.2h-0.4H85h-0.3l-0.4,0.1L84,74.4l-0.4,0.2L83,75h-0.1l-0.1,0.1
	l-0.2,1.2l-0.1,0.3l-0.3,0.5l-0.5,0.4l-0.3,0.3v0.4v0.6v0.4v0.3l-0.1,0.1v0.1v0.2l0.1,0.1v0.1v0.1l-0.2,0.1L81,79.9l-0.2-0.2
	l-0.3-0.1l-0.2-0.1l-0.1-0.2L80,78.9l-0.8-0.7h-0.1H79l-0.2,0.1l-0.1,0.1h-0.1h-0.1l-0.4,0.1l-0.3,0.1v0.1l0.1,0.5l-0.1,0.3
	l-0.1-0.1l-0.4-0.5L77,78.5l-0.1-0.1v-0.1v-0.1H77l0.3-0.1l0,0V78v-0.2l-0.1-0.3L77,77.3h-0.1h-0.2h-0.2l-0.3,0.2h-0.1h-0.3h-0.3
	l-0.2-0.1l-0.5-0.5l-0.6-0.5L74,76.3h-0.1v-0.4v-0.4v-0.1l0.2,0.1h0.3l0.1-0.1l-0.2-0.2L74,75.1l-0.1-0.2l-0.1-0.1l-0.1-0.1h-0.2
	l-0.2-0.1l-0.1-0.1H73l-0.2-0.1L72.6,74l-0.3-0.4l-0.2-0.3L72,73.1l0.1-0.3L72,72.7l-0.3-0.3l-0.2-0.3l0.1-0.5l0.1-0.4V71v-0.1v-0.2
	h0.2h0.4l0.8,0.1l0.6-0.1l0,0l0.5-0.4l0.5-0.4h0.8h0.8h0.6h0.9h0.8h0.9v-0.2h0.1h0.1l0.6,0.1l0.6,0.1v-0.4l0.5-0.5l0.3-0.1l0.1-0.1
	l0.1-0.2l0.1-0.2v-0.2l0.1-0.1l0.1-0.3l0.1-0.5l0.3-0.5l0.2-0.7v-0.6V65l0.1-0.1V64v-0.9v-0.7v-0.9v-0.8v-0.9V59v-0.5l0.6-0.1
	l0.6-0.1l0.9-0.2l1-0.2l1.1-0.2l0.2-0.1l0.8-0.8l0.4-0.3l0.7-0.7l0.6-0.5l0.7-0.7l0.8-0.7l0.6-0.5l1-0.6l1.5-0.9l1.5-0.9l1.5-0.9
	l1.5-0.9l1.5-0.9l1.5-0.9l1.5-0.9l1.5-0.9l1.5,0.4l1.4,0.3l1.4,0.3l0.3,0.2l0.7,0.7L111,48l0,0l0,0l0.9-0.5L113.2,46.9L113.2,46.9z"
	/>
<path id="NG" class="st0" d="M109.3,74.4l0.4,0.6l0.5,0.7l0.4,0.5l0.3,1.3v0.3v0.1V78v0.2l0.2,0.1h0.4l0.3,0.1l0.2,0.2l0,0l0.1,0.2
	v0.1v0.3l-0.1,0.4l-0.1,0.3l0.1,0.4v0.2v0.1l-0.2,0.1l-0.2,0.1l-0.6,0.4l-0.2,0.1h-0.2l-0.2,0.1l-0.2,0.2l-0.5,0.8l-0.5,0.8
	l-0.2,0.6l-0.2,0.6l-0.4,0.4l-0.1,0.2v0.1v0.3v0.5l-0.1,0.2l-0.1,0.1l-0.4,0.1l-0.3,0.2l-0.2,0.3l-0.1,0.4l-0.1,0.4l-0.1,0.4
	l-0.1,0.2l-0.1,0.2l-0.2,0.2l-0.2,0.1l-0.5,0.1l-0.3,0.5l-0.2,0.4v0.2l-0.2,0.8l-0.4,0.6v0.2v0.2l-0.5,0.5l-0.1,0.2l-0.1,0.2
	l0.1,0.2l0.1,0.2v0.1l-0.2,0.2l-0.4,0.3l-0.2,0.2v0.1v0.4l-0.1,0.1l-0.1,0.2l-0.2,0.2l-0.2,0.1l-0.2,0.1h-0.2l-0.1-0.1l-0.1-0.1
	l-0.1-0.5l-0.1-0.1l-0.2-0.1l-0.3-0.3l-0.3-0.3l-0.4-0.2h-0.1l-0.1,0.1l-0.1,0.3l-0.1,0.1h-0.2h-0.3h-0.2l-0.1-0.1l-0.1-0.1
	l-0.1-0.1l-0.3,0.2L98.8,94l-0.2,0.1l-0.1,0.1l-0.2,0.3l-0.2,0.3L98,95l-0.2,0.1l-0.1,0.1l-0.2,0.2l-0.4,0.4l-0.5,0.5l-0.2,0.3
	L96.2,97l-0.1,0.4L96,97.8l-0.2,0.7L95.6,99l-0.2,0.3l-0.2,0.3l-0.1,0.2l0,0L95,99.9l-0.2-0.1l-0.1-0.2h-0.1l-0.2-0.3h-0.1l0.3,0.7
	l-0.1,0.3h-0.7l-0.6,0.1h-0.4l-0.2-0.1l-0.1-0.3l0,0v0.1l-0.1,0.1h-0.5l-0.2-0.2l-0.2-0.2L91,99.9v0.1l0.2,0.2v0.3l-0.4,0.3h-0.3
	l-0.2-0.1l-0.1-0.2v-0.3l-0.1-0.2H90l0.1,0.2v0.2v0.3l0.2,0.3l-0.3,0.1h-0.1h-0.2V101v-0.2l-0.1-0.1l-0.1,0.4h-0.2h-0.1l-0.5,0.1
	h-0.1v-0.1l0.1-0.1v-0.2l-0.2,0.1v0.3h-0.1h-0.3l-0.3-0.1l-0.2-0.1l-0.3-0.2l-0.6-0.5l-0.1-0.2l-0.2-0.3l-0.1-0.3L86.1,99h0.1h0.1
	l0.1-0.1l-0.2-0.1l-0.1-0.1v-0.2v-0.2l0.2-0.1h0.2l0.1-0.1l0.1-0.1l-0.5,0l-0.4-0.2l-0.1-0.1v-0.1h0.2h0.3l0.2-0.1h-0.1h-0.2
	L86,97.4v-0.2h-0.1l-0.1,0.1l-0.3,0.1l-0.2-0.1v-0.2V97l-0.1-0.1l-0.5-0.6l-0.6-0.5l-0.6-0.4l-0.9-0.2h-1.8l-0.1-0.1l0.1-0.1
	l0.2-0.1l0.6-0.3h-0.1L81,94.8h-0.2l-0.3,0.4l-1.6,0.1h-0.2v-0.2l0.1-0.5l0.1-0.2l0.1-0.1l-0.1-0.2l-0.1-0.2v-0.4l0.1-0.1v-0.1v-0.2
	v-0.7v-0.1l0.1-0.1v-0.1L78.8,92l-0.1-0.2v-0.3v-0.3l0-0.2v-0.5v-0.6v-0.3l0.1-0.2v-0.5v-0.5l0.1-0.8h0.3l0.4-0.1l0.2-0.3l0.1-0.4
	v-0.4l0.1-0.1l0.2-0.2l0.3-0.3v-0.3l0.1-0.1l0.1-0.1h0.2l0.2-0.2l0.1-0.3l0.1-0.4l-0.2-0.3V84l0.1-0.2l0.1-0.2l0.1-0.1h0.2l0,0v-0.1
	l0.1-0.5v-0.1l-0.2-0.3v-0.2V82l-0.1-0.3l-0.1-0.1l-0.1-0.1v-0.1L80.9,81v-0.3l0.2-0.4l0.1-0.2l0.2-0.1v-0.1v-0.1l-0.1-0.1v-0.2
	v-0.1l0.1-0.1V79v-0.4V78v-0.4l0.3-0.3l0.5-0.4l0.3-0.5l0.1-0.3l0.2-1.2l0.1-0.1L83,75l0.5-0.4l0.4-0.2l0.3-0.1l0.4-0.1h0.3h0.5h0.4
	l0.3-0.2l0.2-0.1h0.2l1,0.3l1,0.3h0.2h0.1l0.2,0.2l0.4,0.3l0.2,0.2l0.1,0.1l0.5,0.7l0.2,0.2l0.2,0.1h0.2h0.1l0.1-0.1l0.2-0.2
	l0.3-0.1h0.2l1.2-0.7H93l0.4,0.1l0.4,0.1l1,0.7l0.8,0.4l0.6,0.1l0.7,0.1h1.2L99,76l0.3-0.2l0.4-0.2h0.1l0.7-0.1l1.4-0.1l1.3,0.1h0.2
	l0.5,0.1l0.8,0.3l0.4,0.3h0.6l0.4-0.1l0.1-0.3l0.4-0.4l0.3-0.2l0.3-0.2l0.5-0.2l0.4-0.1l0.4-0.3l0.3-0.1L109.3,74.4L109.3,74.4z
	 M91.6,100.8l-0.3,0.1h-0.2l0.2-0.4l0.1,0.1h0.2L91.6,100.8L91.6,100.8z"/>
<path id="RE" class="st0" d="M227.7,174.4l-0.4,0.1H227l-0.5-0.3l-0.1-0.2l-0.2-0.5v-0.2l0.2-0.3l0.4-0.1h0.4l0.2,0.1l0.2,0.3
	l0.3,0.4v0.4L227.7,174.4z"/>
<path id="RW" class="st0" d="M156.7,116.1L156.7,116.1l-0.1,0.2l0.1,0.2l0.3,0.4l0.2,0.1l0.1,0.2l0.1,0.3v0.4l-0.1,0.4v0.3l0.1,0.2
	v0.3l-0.1,0.3l-0.1,0.2l-0.1,0.1H157h-0.1h-0.2l-0.2,0.1h-0.1h-0.1l-0.1-0.1l-0.2-0.2l-0.4,0.1h-0.1l-0.1,0.1l-0.1,0.1h-0.1h-0.1
	l-0.3-0.2h-0.1l-0.1,0.6l-0.1,0.3l-0.1,0.1l-0.2,0.1l-0.2,0.1h-0.1h-0.5h-0.2h-0.1l-0.1-0.3l-0.3-0.1l-0.3-0.1h-0.1l-0.1,0.2v0.2
	l-0.3-0.1l-0.1-0.1v-0.2l-0.1-0.3l0.1-0.1l0.1-0.1l0.2-0.2l0.3-0.2l0.1-0.1v-0.2v-0.4v-0.3v-0.1l0.1-0.3l0.2-0.3l0.2-0.3h0.1
	l0.2-0.1l0.2-0.2l0.1-0.1h0.1l0.6-0.1h0.1l0.1,0.3h0.1h0.1l0.2-0.1l0.3-0.2l0.1-0.1l0.2-0.2l0.2-0.2l0.1-0.2l0.1-0.1h0.1h0.2
	L156.7,116.1z"/>
<path id="SC" class="st0" d="M227,126.3v0.3l-0.1-0.1v-0.2l-0.2-0.1l-0.1-0.1l0.2-0.1L227,126.3z"/>
<path id="SD" class="st0" d="M159.3,49.7l-0.1,0.3h0.5h0.9h0.9h0.9h0.9h0.9h0.9h0.9h0.9h0.9h0.9h0.9h0.9h0.9h0.9h0.9h0.9v0.7
	l0.1,0.5l0.4,0.8l0.4,0.4l0.1,0.2v0.1v0.1l-0.1-0.1l-0.2-0.1v0.4v0.3v0.5l0.2,0.5l-0.1,0.5v0.8l0.2,1v0.6l0.3,1.5l0.3,0.8l0.2,0.2
	l0.2,0.1l0.4,0.1l0.5,0.4l0.4,0.4l0.2,0.2l0.2,0.2h0.1l0.1-0.1l0.1,0.2l0.7,0.4l0.1,0.2l-0.2,0.2l-0.3,0.3l-0.1,0.1v0.1v0.1
	l-0.1,0.1l-0.2,0.1l-0.1,0.1v0.1l-0.1,0.1H178h-0.1l-0.1,0.1h-0.2l-0.2,0.1l-0.1,0.1l-0.2,0.1h-0.2h-0.1l-0.2,0.1l-0.2,0.2l-0.2,0.1
	H176l-0.1,0.1l-0.2,0.5l-0.1,0.1h-0.2h-0.3h-0.2l-0.3-0.1h-0.1v0.1l-0.1,0.5v0.2l-0.1,0.2l-0.1,0.3V66v0.5l-0.2,0.7v0.2l-0.2,0.6
	l-0.1,0.2l-0.3,1.1l-0.1,0.3l-0.3,0.3l0.1,0.6l0.1,0.6l0.1,0.6l0.1,0.8l-0.2,0.8v0.4l-0.2,0.6l-0.1,0.3l-0.1,0.2l-0.1,0.2l-0.2,0.4
	l-0.1,0.5l-0.1,0.5v0.3v0.1v0.1l-0.3,0.1l-0.5,0.1l-0.3,0.1l-0.2,0.1l-0.2,0.2l-0.4,0.7l-0.2,0.4l-0.3,0.6l-0.4,0.4l-0.1,0.2
	l-0.1,0.4l-0.1,0.6L169,81v0.3l-0.1,0.6v0.3l-0.1,0.2l-0.2,0.1h-0.1l-0.3-0.2l-0.2-0.2h-0.1l-0.2,0.1l-0.2,0.2l-0.2,0.4l-0.2,0.4
	l0.1,0.8v0.2l-0.1,0.2l-0.3,0.6l-0.1,0.2l-0.1,0.4l-0.1,0.6v0.1l0,0l0,0H166l0,0l0,0l0,0l0,0v-0.1V86v-0.2l0.1-0.3l0.2-0.4l0,0l0,0
	l0,0v-0.1V85v-0.1v-0.2v-0.1v-0.1l0,0l-0.1-0.3v-0.1l-1.2-1l-0.2-0.3l0,0l0,0l-0.6-0.2l0,0l0,0l0,0l0.1-0.1l0,0v-0.1l-0.3-2.1l0,0
	l0,0l0,0l0,0l0,0v-0.1l0,0v-0.4v-0.3l0.2-0.6v-0.2h-1.3l0,0l0,0l0,0l0,0l0,0v0.1l0,0l0,0V79V79l0,0l0,0v0.1h-1.9l0.7,0.8l0,0l0,0
	l0,0v0.3v0.5V81v0.2l0.2,0.4v0.1v0.1l-1.3,1.1V83l-0.2,0.5l-0.2,0.3l-0.1,0.1l-0.3,0.4l-1.2,1.2l-0.2,0.1h-0.6h-0.3l0,0h-0.1l0,0
	l0,0l0,0l0,0l-0.7-0.7l-1.3-0.8l-0.1,0.1l-0.7,0.4l-0.2,0.1l-0.1,0.1v0.4l-0.1,0.2l-0.2,0.2l-0.6,0.1l-0.3,0.1l-0.3,0.2h-0.1l0,0
	l-0.1,0.1l-0.3,0.3v0.2v0.2h-2.2l-0.1-0.1l-0.3-0.6l0,0h-0.2l-2-0.1l-0.3,0.1l-0.6,0.3h-0.3l-0.3-0.1l-1.1-1.3l-0.2-0.1l-0.1-0.1
	l-0.2-0.2l-0.2-0.1l-0.1-0.1v-0.1V84l-0.1-0.2h-0.2l-1.4,0.3h-0.2l-0.3,0.1l-0.1,0.1l-0.1,0.2v0.2v0.2v0.2l-0.1,0.2l-0.4,0.4
	l-0.1,0.2v0.5v0.2l-0.1,0.1l-0.2,0.2l-0.1,0.1V87v0.3v0.1l-0.2,0.4l-0.1,0.1v0.3v0.1l-0.7,0.2l-0.2,0.1l-0.1,0.2v0.1l0,0l-0.3-0.1
	l-0.4-0.1l-0.7-0.1l-0.3-0.1l-0.1-0.1V88l-0.1-0.1l-0.1-0.1l-0.1-0.2v-0.2l0.4-0.4l0.1-0.2l0.1-0.8v-0.3v-0.3l-0.3-0.6l-0.2-0.4
	l-0.4-0.6l-0.2-0.2l-0.8-0.8l-0.1-0.1l-0.2-0.4l0.1-0.3l0.1-0.5v-0.2l-0.1-0.2L135,81h-0.2l-0.1-0.1l-0.2-0.1l-0.2-0.1l-0.1-0.2
	l-0.1-0.3l0.1-0.9v-0.1H134v-0.1V79l-0.1-0.5l-0.1-0.4l0.1-0.2l-0.2-0.3l-0.3-0.1h-0.3l-0.3,0.1h-0.2l-0.1-0.1l-0.1-0.1l-0.1-0.1
	v-0.2l0.2-0.4l0.2-0.3l0.5-0.3l0.1-0.2l0.1-0.2v-0.2v-0.2l-0.1-0.2l-0.1-0.3l-0.1-0.3v-0.2l0.1-0.1l0.1-0.2l0.2-0.2h0.1l0.2-0.1
	l0.1-0.1l0.3-0.2l0.1-0.1v-0.1l-0.1-0.1l-0.1-0.1v-0.2v-0.3l-0.1-0.2l-0.1-0.1l0.1-0.1l0.1-0.1l0.2-0.1l0.3-0.1l0.1-0.1v-0.2v-0.2
	l0.1-0.1l0.1-0.3l0.1-0.1l0.2-0.2l0.2-0.2l0.1-0.2v-0.2l-0.1-0.6l0.2-0.3L136,69h0.4h0.6l0.4-0.1h0.3l0.7,0.1h0.1l0,0v-0.2v-0.4
	v-1.3v-1.3v-1.3v-1.3V62v-1.3v-1.3v-1.3v-1.3v-0.4v-0.4v-0.4h0.7h0.7h0.7h0.7l0,0l0,0l0,0l0,0v-1.5v-1.5v-1.5v-1.5h1.1h1.1h1.1h1.1
	h1.1h1.1h1.1h1.1h1.1h1.1h1.1h1.1h1.1h1.1h1.1L159.3,49.7l0.3,0.1h0.1l0.3-0.6h0.1h0.2l0.1,0.1L159.3,49.7z"/>
<path id="SH" class="st0" d="M30.8,135.6L30.8,135.6h-0.1v-0.1v-0.1v-0.1h0.1l0.1,0.1l0.1,0.1v0.1H30.8L30.8,135.6z M55.1,158.6
	h-0.3v-0.1l0.2-0.1h0.1V158.6L55.1,158.6z"/>
<path id="SL" class="st0" d="M42.3,89.3L42.3,89.3l-0.1,0.5L42,90.1v0.1l-0.4,0.1l-0.2,0.2L41.3,91l-0.1,0.4l-0.1,0.1L40.6,92
	l-0.3,0.2L40,92.4l-0.2,0.2l-0.3,0.2l-0.3,0.4L39,93.6l-0.1,0.1l-0.1-0.1l-0.5-0.4L37.6,93l-1.2-0.4L36,92.5v-0.2l0.1-0.3L36,91.6
	l0.1-0.2H36l-0.2,0.1h-0.4l-0.2-0.2L35,91.2l0-0.1l-0.1-0.6l-0.1-0.3L34.6,90h-0.4l-0.1-0.3l-0.2-0.3v-0.2h0.2l0.1,0.1h0.2l0.3-0.3
	l0.2-0.2l0.1-0.1v-0.1l-0.1,0.1h-0.4L34.3,89h-0.2L34,88.7v-0.2l0.1-0.2h0.4v-0.1h-0.3l-0.3-0.3l-0.1-0.2l0.2-0.1h0.2h0.1l0.1-0.1
	l0.1-0.1l0.1-0.1l0.1-0.3l0.4-0.1l0.2-0.2l0.2-0.3l0.1-0.2l0.1-0.1l0.1-0.1v-0.1l0.1-0.1l0.1-0.2l0.1-0.2l0.2-0.1l0.4-0.1l0.4,0.2
	l0.6-0.1v-0.2h0.6H39h0.6l0.2,0.1l0.1,0.1l0.2,0.2l0.2,0.2l0.2,0.4l0.3,0.4l0.3,0.4l0.2,0.2v0.1v0.1l-0.3,0v0.2v0.1h0.1l0.3,0.1v0.2
	v0.3l0.2,0.3l0.1,0.2v0.1l-0.4,0.4l-0.1,0.4l-0.1,0.1v0.1h0.1h0.1h0.1h0.1l0.2-0.1l0.3-0.3h0.1L42.3,89.3L42.3,89.3z M36,92.3
	L36,92.3l-0.2-0.1l-1-0.3l0.3-0.1h0.7l0.2,0.1l0.1,0.1v0.1L36,92.3L36,92.3z"/>
<path id="SN" class="st0" d="M36.7,71.2l0.3,0.5l-0.1,0.2l-0.1,0.3l0.1,0.2l0.2,0.2l0.1,0.1l0.1,0.2v0.4v0.3l0.1,0.1l0.1,0.2V74v0.1
	l-0.2,0.2v0.3l0.3,0.4l0.2,0.2v0.1v0.1l0.1,0.1H38l0.1-0.1v-0.1h0.2h0.1l0.2,0.2l0.1,0.2v0.2l0.2,0.2l0.1,0.2v0.1l0.1,0.1L39,76.8
	V77l0,0.5v0.2v0.1l0.2,0.2v0.2H39h-0.3l-0.7,0h-0.2h-0.4H37l-0.4,0.1h-0.3l-0.2-0.1h-0.2l-0.2-0.1L35.4,78h-0.2L35,77.8h-0.1
	l-0.1,0.1L34.7,78h-0.1h-0.1l-0.1-0.1v-0.1v-0.1l-0.1-0.1h-0.2H34h-0.4h-0.1h-0.9h-0.9h-0.8h-1h-0.7h-0.7l-0.5,0l-0.6,0.3L26.7,78
	h-0.9h-0.3l-0.3,0.1L25,78.2l-0.3,0.1h-0.4h-0.2L24,78.2v-0.3l0.1-0.2l0.2-0.1l0.3-0.1l0.2,0.1h0.1v-0.1l0,0l-0.3-0.1l-0.1-0.1
	l-0.1,0.1l-0.1,0.2l-0.1,0.1l-0.1,0.1L24,77.7v-0.1l0.1-0.1V77v-0.3v-0.2l0.2-0.2l0.2-0.1h0.6h0.6h0.5h0.6l0.1-0.5h0.2l0.3-0.1
	l0.5-0.1l0.5-0.1l0.1-0.1l0.1-0.2l0.1-0.1l0.1-0.1H29l0.2,0.1l0.2,0.1l0.2,0.1l0.2,0.1l0.4,0.2l0.7,0.2l0.5,0.1l0.7-0.2l0.5-0.1
	l0.1-0.2L32.2,75l-0.4-0.2h-0.5l-0.1,0.1L31,75h-0.1h-0.2l-0.3-0.2l-0.2-0.2l-0.2,0l-0.3-0.1l-0.5-0.3L29,74.1h-0.2l-0.5,0.1
	l-0.4,0.2l-0.2,0.4h-0.4h-0.9h-0.9h-0.7l-0.1-0.3l-0.2-0.2L24.1,74L24,73.8l0.1-0.2l0.3-0.1l0.1-0.1h-0.1l-0.2,0.1h-0.1v-0.3
	l-0.2-0.3l-0.3-0.6l-0.3-0.2l-0.2-0.5l-0.3-0.2l-0.2-0.1h-0.2l-0.1,0.2L22,71.2l0.3-0.1l0.7-0.4l0.9-1.1l0.8-1.3l0.1-0.3l0.1-0.2
	l0.1-0.5l0.1-0.3l0.1-0.1l0.1-0.2l0.2-0.4l0.2-0.2h0.2h0.2l0.1,0.1l0.3,0.1H27l0.4-0.1l0.3-0.1L28,66h0.5l0.3-0.1v-0.1h0.1H29h0.1
	l0.1-0.1h0.1l0.1,0.1h0.4h0.7L31,66l0.6,0.5l0.3,0.3V67l0.1,0.2l0.2,0.2h0.2l0.2-0.1h0.1l0.1,0.1H33l0.2-0.1h0.1v0.1l0,0h0.1
	l0.1,0.1l0.2,0.3l0.1,0.3l0.1,0.4l0.1,0.2h0.2l0.1,0.1v0.1l0.1,0.1h0.1h0.2l0.2,0.2l0.2,0.3v0.1v0.1v0.1l0.1,0.1l0.1,0.1l0.1,0.2
	l0.2,0.1l0.3,0.1l0.2,0.2l0.1,0.2L36.7,71.2L36.7,71.2z"/>
<path id="SO" class="st0" d="M187.7,117.9v-0.2v-0.1l-0.3-0.3l-0.5-0.6l-0.4-0.5l-0.4-0.5v-0.4v-1.2v-2.4v-2.4v-2.4v-1.2v-0.5v-0.1
	l0.4-0.4l0.6-0.6l0.8-1.1l0.4-0.6l0.3-0.5l0.1-0.2l0.3-0.3l0.6-0.2h0.4l1.2-0.2l0.2-0.1l0.1-0.1l0.1-0.2l0.2-0.3l0.3-0.2l0.6-0.3
	l0.6-0.3h0.1l0.7-0.2l0.2-0.1l0.3-0.1h0.1l1,0.1h0.8h0.8h0.1l0.5-0.6l0.9-0.9l0.5-0.6l0.8-0.9l0.6-0.7l0.7-0.7l0.7-0.7l0.8-0.8
	l0.5-0.5l0.8-0.8l0.8-0.8l0.7-0.7h-1h-0.9H203l-0.2-0.1l-0.8-0.3l-1-0.3l-1.2-0.4l-0.9-0.3L198,89l-0.9-0.3l-0.7-0.2l-0.9-0.3
	l-0.8-0.3l-0.1-0.1l-0.4-0.4l-0.6-0.5h-0.1l-0.3-0.1l-0.2-0.3l-0.3-0.4l-0.2-0.5l-0.1-0.3l-0.3-0.1l-0.2-0.2l-0.3-0.4l-0.2-0.2
	l-0.1-0.2l-0.1-0.3l-0.2-0.3l-0.2-0.2v-0.1v-0.1l0.3-0.5l0.1-0.2l0.1-0.2l0.1-0.2V82l0.4-0.6l0.3-0.5l0.2-0.4l0.5,0.4l0.5,0.9
	l0.6,0.7l0.9,0.7l0.3,0.2l0.3,0.1h1.6l1.1-0.6l1-0.4l0.3-0.1l0.6,0.1h0.6l0.6,0.1h0.3l1.1-0.5l0.7-0.5l0.5-0.2h0.2l0.7,0.2l0.9-0.1
	l1.2-0.4l0.4-0.1h0.3l0.6,0.2h0.1h0.3l0.9-0.2l0.7-0.3l1.3-0.2l1-0.6l0.2-0.3l0.3-0.3l0.4-0.1l1.1,0.4h0.2l-0.1,0.2v0.3l-0.2,0.4
	l-0.1,0.5l0.1,0.7l0.1,1.2v0.2l-0.1,0.2v0.1h-0.1l-0.1,0.1h0.1l0.4-0.1v-0.1v-0.1l0.3,0.2l0.2,0.1l0.1,0.2v0.1h-0.3l-0.2-0.1
	l-0.5,0.1l-0.3,0.1l-0.1,0.2l-0.1,0.9l-0.1,0.6v0.8l-0.4,0.5l-0.1,0.4l-0.6,0.7l-0.3,0.6l-0.1,0.3l-0.5,0.9l-0.7,0.7l-0.3,0.9
	l-0.3,0.5l-0.3,0.5l-0.6,0.9l-0.3,0.6l-0.4,1l-0.1,0.7l-1.1,1.9l-1.2,1.5l-0.7,1.3l-1.3,1.5l-1.8,1.9l-2.3,2.3l-0.6,0.5l-2.5,1.4
	l-1.6,1.2l-0.8,0.8l-0.9,0.7l-0.7,0.7l-2.1,2.2l-0.2,0.2l-0.2,0.2l-0.3,0.4l-0.2,0.1l-0.5,0.6l-0.3,0.3l-0.4,0.3l-0.2,0.2l-0.1,0.3
	l-0.1,0.1l-0.3,0.6l-0.3,0.4L187.7,117.9z"/>
<path id="SS" class="st0" d="M166.4,85.4l-0.2,0.4l-0.1,0.3v0.2v0.1v0.1l0,0l0,0l0,0l0,0h0.5l0,0l0,0v0.1v0.6v0.5v0.8v0.2V89
	l-0.1,0.1l-0.1,0.2l-0.2,0.1h-0.5h-0.4H165h-0.4h-0.4l-0.1,0.1l-0.2,0.4l-0.3,0.6l-0.1,0.3v0.1V91l0.2,0.1l0.4,0.2l0.5,0.1h0.3h0.2
	l0.2,0.1L166,92l0.2,0.2l0.1,0.2v0.2l0.1,0.2l0.4,0.4l0.2,0.2l0.6,0.3l0.2,0.3l0.2,0.2l0.2,0.2l0.1,0.3l0.2,0.8l0.2,0.4l0.2,0.3
	l0.1,0.5l0.1,0.2l0.1,0.3l0.2,0.3l0.2,0.2v0.1l-0.5,0.5l-0.6,0.6l-0.7,0.7l-0.7,0.7l-0.6,0.6l-0.6,0.6l-0.7,0.7l-0.5,0.5l-0.1,0.1
	l-0.1,0.1H164l-0.5-0.1l-0.4-0.3l-0.4,0.2l-0.3,0.1h-0.2h-0.4l-0.6,0.1l-0.3,0.2l-0.1,0.1l-0.1,0.2h-0.1h-0.1l-0.1-0.1l-0.3-0.1
	l-0.2-0.3l-0.1-0.2l-0.1-0.1l-0.5,0.3L159,103h-0.2l-0.3-0.2l-0.4-0.1h-0.2l-0.3,0.2l-0.3,0.3l-0.2,0.3l-0.1,0.1l-0.1-0.1l-0.1-0.1
	l-0.1-0.1l-0.2-0.1h-0.1h-0.2l-0.1-0.1v-0.2v-0.2l-0.1-0.1l-0.2-0.1l-0.6-0.3l-0.5-0.5l-0.2-0.3l0.5-0.4l-0.3-0.4l-0.3-0.3l-0.4-0.1
	l-0.2,0.1l-0.2,0.3l-0.4,0.3H153l-0.3-0.2l-0.3-0.1l-0.6-0.1l-0.2,0.1l-0.3,0.2l-0.3,0.1h-0.2l-0.2-0.1h-0.2h-0.2l-0.3-0.2l-0.2-0.2
	l-0.1-0.1l-0.2-0.1l-0.2-0.1l-0.1-0.1l-0.1,0l-0.1-0.2l-0.2-0.2l-0.5-0.3l-0.1-0.2l-0.1-0.2l-0.2-0.2l-0.2-0.3l-0.1-0.4v-0.3v-0.2
	l-0.1-0.2l-0.1-0.1l-0.2-0.2l-0.4-0.2l-0.4-0.3l-0.2-0.1l-0.4-0.1l-0.2-0.1l-0.2-0.3l-0.1-0.3l-0.2-0.2l-0.1-0.1v-0.2l0.1-0.5
	l-0.2-0.2l-0.3-0.2l-0.2-0.3l-0.1-0.2l-0.4-0.3l-0.9-0.5l-0.5-0.3l-0.3-0.3l-0.2-0.3v-0.1l0.2-0.3v-0.2l-0.1-0.2l-0.5-0.4l-0.4-0.5
	l-0.3-0.2L140,90l-0.2-0.1l-0.2-0.1l-0.2-0.2l-0.1-0.3l0.1-0.4l-0.1-0.1h-0.1l0,0v-0.1l0.1-0.2l0.2-0.1l0.7-0.2v-0.1v-0.3l0.1-0.1
	l0.2-0.4v-0.1v-0.3v-0.1l0.1-0.1l0.2-0.2l0.1-0.1v-0.2v-0.5l0.1-0.2l0.4-0.4l0.1-0.2v-0.2v-0.2v-0.2l0.1-0.2l0.1-0.1l0.3-0.1h0.2
	l1.4-0.3h0.2l0.1,0.2v0.3v0.1l0.1,0.1l0.2,0.1l0.2,0.2l0.1,0.1l0.2,0.1l1.1,1.3l0.3,0.1h0.3l0.6-0.3l0.3-0.1l2,0.1h0.2l0,0l0.3,0.6
	l0.1,0.1h2.2v-0.2v-0.2l0.3-0.3l0.1-0.1l0,0h0.1l0.3-0.2l0.3-0.1l0.6-0.1l0.2-0.2l0.1-0.2v-0.4l0.1-0.1l0.2-0.1l0.7-0.4l0.1-0.1
	l1.3,0.8l0.7,0.7l0,0l0,0l0,0l0,0h0.1l0,0h0.3h0.6l0.2-0.1l1.2-1.2l0.3-0.4l0.1-0.1l0.2-0.3l0.2-0.5v-0.1l1.3-1.1v-0.1v-0.1
	l-0.2-0.4v-0.2v-0.3V80v-0.3l0,0l0,0l0,0l-0.7-0.8h1.9v-0.1l0,0l0,0v-0.1v-0.1l0,0l0,0v-0.1l0,0l0,0l0,0l0,0l0,0h1.3v0.2l-0.2,0.6
	v0.3V80l0,0v0.1l0,0l0,0l0,0l0,0l0,0l0.3,2.1v0.1l0,0l-0.1,0.1l0,0l0,0l0,0l0.6,0.2l0,0l0,0l0.2,0.3l1.2,1V84l0.1,0.3l0,0v0.1v0.1
	v0.2v0.1v0.1L166.4,85.4L166.4,85.4L166.4,85.4L166.4,85.4z"/>
<path id="ST" class="st0" d="M92,108.8L92,108.8h-0.2v-0.1l0.2-0.2l0.1-0.1h0.1v0.1v0.1L92,108.8L92,108.8z M89.8,112.8l-0.3,0.2
	l-0.1-0.1l-0.1-0.1l-0.1-0.3v-0.1l0.1-0.2l0.3-0.2h0.2l0.2,0.2v0.2L89.8,112.8L89.8,112.8z"/>
<path id="SZ" class="st0" d="M160.8,188.6L160.8,188.6l0.3,0.2v0.3v0.3l-0.1,0.2v0.2l0.1,0.3l0.1,0.2v1h-0.1h-0.2h-0.1l-0.1,0.5
	l-0.1,0.7v0.4H160h-0.8l-0.5-0.2l-0.6-0.4l-0.4-0.6l-0.2-0.4h-0.2v-0.1v-0.5v-0.5v-0.1l0.4-0.6l0.2-0.4l0.2-0.4l0.3-0.4l0.4-0.3h0.1
	h0.1l0.6,0.4l0.6,0.4L160.8,188.6L160.8,188.6z"/>
<path id="TD" class="st0" d="M138.4,57.4v1.3V60v1.3v1.3v1.3v1.3v1.3v1.3v0.4v0.2l0,0h-0.1l-0.7-0.1h-0.3l-0.4,0.1h-0.6h-0.4
	l-0.3,0.2l-0.2,0.3l0.1,0.6v0.2l-0.1,0.2l-0.2,0.2l-0.2,0.2l-0.1,0.1l-0.1,0.3l-0.1,0.1V71v0.2l-0.1,0.1l-0.3,0.1l-0.2,0.1l-0.1,0.1
	l-0.1,0.1l0.1,0.1l0.1,0.2v0.3v0.2l0.1,0.1l0.1,0.1v0.1l-0.1,0.1l-0.3,0.2l-0.1,0.1l-0.2,0.1h-0.1l-0.2,0.2l-0.1,0.2l-0.1,0.1V74
	l0.1,0.3l0.1,0.3l0.1,0.2V75v0.2l-0.1,0.2l-0.1,0.2l-0.5,0.3l-0.2,0.3l-0.2,0.4v0.2l0.1,0.1l0.1,0.1l0.1,0.1h0.2l0.3-0.1h0.3
	l0.3,0.1l0.2,0.3l-0.1,0.2l0.1,0.4l0.1,0.5v0.2v0.1h0.2v0.1l-0.1,0.9l0.1,0.3l0.1,0.2l0.2,0.1l0.2,0.1l0.1,0.1h0.2l0.2,0.2l0.1,0.2
	v0.2l-0.1,0.5l-0.1,0.3H135l-0.2-0.1l-0.3-0.1l-0.4-0.1l-0.3,0.1l-0.4,0.2l-0.1,0.1l-0.1,0.1H133h-0.2l-0.1,0.1l-0.1,0.1l-0.5,0.3
	l-0.1,0.1l-0.1,0.1V83l0.1,0.2v0.3l-0.1,0.2l-0.1,0.1l-0.2,0.1h-0.1l-0.1,0.1l-0.3,0.5l-0.1,0.1h-0.2l-0.7,0.7L130,86l-0.3,0.3
	l-0.3,0.3l-0.3,0.2v0.1L129,87l-0.2,0.1l-0.6,0.4h-0.8l-0.3,0.2l-0.3,0.1l-0.5,0.1h-0.1h-0.6h-0.7l-0.3,0.1l-0.3,0.2l-0.2,0.1l0,0
	v0.1l0,0l0.5,0.3l0.1,0.2l-0.1,0.2h-0.1l0,0l-0.1,0.1l-0.3,0.4l-0.4,0.5l-0.2,0.1l-0.1,0.1l-0.1,0.3h-0.1h-0.3h-0.6l-0.8,0.1H121
	h-0.3l-0.4,0.2l-0.2,0.1H120l-0.4,0.2l-0.4,0.3l-0.1,0.1l-0.5,0.1l-0.2,0.2h-0.1l-0.3-0.3l-0.2-0.3l-0.1-0.3v-0.1h-0.1l-0.2,0.1
	l-0.2,0.1l-0.1,0.3l-0.5,0.2l-0.5,0.1l-0.2,0.2l-0.3,0.1h-0.4l-0.3-0.1h-0.3l0.1-0.2l0.1-0.2v-0.2v-0.1l-0.2-0.1l-0.1-0.1l-0.3-0.7
	l-0.3-0.7l-0.4-0.7l-0.4-0.4l-0.3-0.3h-0.1l-0.2-0.1l-0.1-0.1l-0.6-0.5l-0.6-0.5l-0.1-0.2l-0.3-0.3l-0.3-0.4l-0.2-0.2l-0.1-0.3
	l0.2-0.3l0.2-0.3l0.3-0.2h0.4l0.6,0.1h0.7l0.7-0.1h0.2h0.2l0.4,0.1h0.6l0.3-0.1l-0.3-0.2l-0.4-0.4L114,84l-0.2-0.4l-0.2-0.5
	l-0.2-0.6l-0.1-0.7v-0.4l0.1-0.3l0.2-0.5l-0.1-0.3v-0.2v-0.3l-0.1-0.2l-0.2-0.6v-0.1l-0.2-0.4l-0.1-0.7l-0.2-0.4l-0.4-0.2l-0.2-0.3
	l-0.1-0.5l-0.2-0.1l-0.6-0.2h-0.5l-0.4-0.5l-0.5-0.7l-0.4-0.6l-0.3-1.2l-0.2-0.7l0.2-0.2l0.4-0.5l0.5-1l1-1.5l0.5-0.8l1.1-1.2
	l1.3-1.4l0.7-0.8l0.1-1.5l0.1-1.6l0.1-1.2l0.1-1.4l0.1-1.2l0.1-0.9l0.1-1.2l0.1-0.2l0.5-1v-0.1l-0.1-0.2l-0.7-0.8l-0.2-0.2l-0.1-0.4
	l0.2-0.2l-0.9-1.4l-0.2-0.2l-0.1-0.2v-0.2v-1l-0.2-1.5l-0.3-1.8l1-0.5L115,46l1-0.5l0.9,0.5l1.3,0.7l1.3,0.7l1.3,0.7l1.3,0.7
	l1.3,0.7l1.3,0.7l1.3,0.7l1.3,0.7l1.3,0.7l1.3,0.7l1.3,0.7l1.3,0.7l1.3,0.7l1.3,0.7l1.3,0.7L138.4,57.4z"/>
<path id="TG" class="st0" d="M73.6,82.2l-0.1,0.3l-0.1,0.4L73.3,83l-0.1,0.9V84l0,0l0.5,0.3l0.6,0.4l0.4,0.3v0.1v0.6v0.5l0.1,0.3
	v0.3l0.1,0.2l0.4,0.4l0.1,0.2v0.8V89l0.1,0.8v0.7v0.9v1v1.1h-0.3l0.1,0.3v0.3v0.1l-0.1,0.1l0.1,0.2l0.1,0.1l0.3,0.4l0.1,0.4
	l-0.5,0.1v0.1l-0.9,0.2L74.1,96v-0.2H74l-0.2-0.1l-0.1-0.1l-0.1-0.2v-0.1h-0.2l-0.3-0.2l0.1-0.1l-0.1-0.2v-0.1v-0.1H73l-0.2-0.4
	L72.7,94l-0.1-0.1v-0.1v-0.1v-0.1l0.1-0.1v-0.1v-0.2l0.1-0.4v-0.4l-0.1-0.1h-0.2l-0.1-0.1V92v-0.1l0.3-0.5l-0.1-1.2V90l0.1-0.1
	l0.1-0.1v-0.1l-0.2-0.4L72.5,89l-0.2-0.2l-0.1-0.2v-0.1l0.2-0.2l0.1-0.1v-0.1l-0.1-0.2v-0.4l0.1-0.3l0.1-0.4v-0.1l-0.2-0.2h-0.1
	h-0.1L72,86.7h-0.1h-0.1v-0.1l0.1-0.1v-0.1l0.1-0.1h0.1v-0.1h-0.2v-0.1V86H72h0.1l0,0v-0.3v-0.1v-0.2v-0.9v-0.1v-0.1H72l-0.3-0.2
	l-0.2-0.2l-0.2-0.2l-0.1-0.1L71,83.2l-0.1-0.1V83l0.1-0.2l0.1-0.3l0.1-0.4V82L71,81.8l0.6,0.1l0.9,0.2l0,0v0.1h0.2l0.3-0.1
	L73.6,82.2z"/>
<path id="TN" class="st0" d="M103.4,14.4L103.4,14.4l-0.1,0.7v0.2v0.4v0.5l0.2,0.4v0.2l-0.1,0.2l-0.4,0.2l-0.5,0.3l-0.5,0.3
	l-0.5,0.3l-0.2,0.2l-0.2,0.2l-0.2,0.2v0.1l-0.1,0.3l-0.2,0.2l-0.5,0.1l-0.1,0.1l-0.2,0.3l-0.1,0.1l-0.1,0.3l0.2,0.7l0.2,0.7v0.3v0.2
	l-0.1,0.3l-0.3,0.4L99.3,23L99,23.5l-0.1,0.1l-0.2,0.1L98.2,24l-0.3,0.2l-0.2-0.8l-0.1-0.7l-0.1-0.5l-0.2-1L97,20.4l-0.2-0.8
	l-0.2-0.7l-0.2-0.7l0-0.2l-0.5-0.4l-0.5-0.3L95,17l-0.5-0.4L94.4,16l-0.3-0.8l-0.3-0.4l-0.1-0.1l-0.6-0.3l-0.3-0.2l-0.1-0.1
	l-0.1-0.3l-0.2-0.6l-0.3-0.6L92,12.2v-0.5l0.1-0.4l0.1-0.2l0.5-0.4l0.3-0.5l0.3-0.2l0.3-0.1l0.2-0.2L94,9.4l0.1-0.3V8.8l0.1-0.5
	L94.4,8l0.2-0.4l-0.1-0.3l-0.1-0.4V6.3V6l-0.1-0.2l-0.1-0.3V5.3l0.1-0.6l0.1-0.5l0.1-0.6V3.4l-0.1-0.1l-0.3-0.1V3.1L94.2,3l0.4-0.3
	l0.2-0.4L95,2.1l0.3-0.2V1.7l-0.1-0.2l0.7-0.2l0.7-0.6l0.2-0.1l1.5-0.5h0.2l0.2,0.1l-0.1,0.2l-0.1,0.2l0.1,0.3l0.2-0.2V0.6V0.5h0.3
	h0.3l0.3,0.2v0.6l0.4,0.6L100,2.1l0.3,0.2l0.3-0.2l0.1-0.3l0.5-0.2l0.5-0.5h0.3l0.1,0.4l0.1,0.3L102,1.9l-0.2,0.3l-0.5,0.9L101,3.3
	l-0.3,0.3l-0.1,0.2v0.3l0.1,0.5l0.2,0.5l0.3,0.3l0.3,0.1l0.6,0.5v0.3l0.1,0.3V7l0.2,0.3L101.9,8l-0.3,0.5l-0.5,0.7l-0.4,0.5
	l-0.9,0.7l-0.2,0.2l-0.2,0.2L99.3,11v0.3l0.3,0.7l0.4,0.4l0.4,0.2l0.7-0.1v0.3l0.1,0.3h0.3l0.2-0.1l0.2-0.3l0.4,0.2l0.2,0.7l0.3,0.2
	v0.1l-0.1,0.1l-0.1,0.1l0.1,0.1l0.3,0.1l0.2-0.1L103.4,14.4L103.4,14.4z M102.8,9.1l-0.4,0.2l0.1-0.2l0.3-0.3l0.1,0.1L102.8,9.1
	L102.8,9.1z M101.9,12.6L101.9,12.6l-0.2,0.1h-0.1l-0.2-0.1h-0.1l-0.1-0.1v-0.4V12h0.5l0.3,0.2v0.1v0.1L101.9,12.6L101.9,12.6
	L101.9,12.6z"/>
<path id="TZ" class="st0" d="M182.6,135.6h-0.2h-0.1l-0.1-0.1l0.2-0.1l0.2-0.2l0.4-0.3l0.1-0.2l0,0v0.2l-0.2,0.5h-0.2L182.6,135.6
	L182.6,135.6z M182,130.5l0.2,0.6v0.1l-0.2,0.1h-0.1l-0.1-0.1l-0.1-0.2h-0.1l-0.2-0.2h-0.2l-0.2-0.3l0.1-0.3v-0.4l0.2-0.2l0.1-0.4
	l0.1,0.3v0.4l0.2,0.5L182,130.5L182,130.5L182,130.5z M183,126.9L183,126.9v0.2v0.4v0.3l-0.2,0.4l-0.1,0.1h-0.1l-0.1-0.1l-0.1-0.1
	l0.2-0.7l-0.1-0.5l0.3,0.1C182.8,127,183,126.9,183,126.9z M157.6,116L157.6,116h0.4h0.5h0.5h0.5h0.5h0.5h0.5h0.5h0.5h0.5h0.5h0.5
	h0.5h0.5h0.5h0.5h0.5h0.3h0.2l0.2,0.1l0.2,0.1l0.6,0.3l0.6,0.3l0.6,0.3l0.6,0.3l0.6,0.3l0.6,0.3l0.6,0.3l0.6,0.3l0.6,0.3l0.6,0.3
	l0.6,0.3l0.6,0.3l0.6,0.3l0.6,0.3l0.6,0.3l0.6,0.3l0.3,0.2v0.1v0.3v0.2v0.2l-0.2,0.3v0.1v0.1l0,0h0.1l0.1,0.1v0.1l0.1,0.2l0.1,0.1
	l0.3,0.2l0.4,0.3l0.4,0.3l0.4,0.3l0.4,0.3l0.4,0.3l0.4,0.3l0.4,0.3l0.4,0.3l0.2,0.2h0.1l-0.1,0.2l-0.2,0.6v0.2l-0.1,0.3l-0.1,0.2
	l-0.2,0.8l-0.2,0.3l-0.3,0.7v0.5l0.1,0.4l0.1,0.4l0.3,0.3l0.2,0.1l0.2,0.2l0.3,0.4l0.2,0.4l0.5,0.2l0.2,0.4l-0.1,0.3l-0.2,0.2
	l-0.2,0.4l-0.2,0.5v0.8l0.1-0.1l0.3,0.2v0.6l-0.3,0.7l-0.1,0.3v0.3l0.2,0.8l0.3,0.4v0.1l-0.1,0.1l0.5,0.7v0.6l0.2,0.5l0.1,0.4
	l0.1,0.3v0.2l-0.2,0.2l0.4,0.1l0.2,0.2l0.1,0.2h0.3l0.2,0.1l0.2,0.1l0.5,0.3l0.1,0.2v0.1v0.1l-0.3,0.2l-0.5,0.4l-0.5,0.4l-0.5,0.3
	l-0.3,0.1l-0.4,0.1l-0.3,0.2l-0.3,0.3l-0.4,0.1h-0.5l-0.5,0.2l-0.5,0.3l-0.3,0.2l-0.5-0.3l-0.4-0.1h-0.4h-0.3l-0.1,0.1L177,145
	l-0.1,0.3l-0.3,0.3l-0.5,0.3l-0.5,0.1l-0.4-0.1l-0.3-0.1l-0.2-0.2l-0.2-0.1h-0.3l-0.3,0.1l-0.3,0.2l-0.4,0.1h-0.6l-0.3-0.1v-0.2
	l-0.3-0.2l-0.5-0.2h-0.4l-0.2,0.2l-0.2,0.1l-0.2,0.1h-0.2h-0.1h-0.1h-0.7h-0.6v-0.1v-0.2l-0.1-0.2l-0.1-0.1h-0.1h-0.1l-0.1-0.1
	l-0.1-0.2l-0.1-0.2l-0.1-0.1l-0.1-0.1v-0.1v-0.1l0.1-0.3v-0.2v-0.2l-0.1-0.2l-0.1-0.3v-0.1l-0.1-0.2v-0.1v-0.2v-0.2l-0.1-0.5v-0.1
	l-0.1-0.2l-0.4-0.5v-0.1l-0.7-0.6l-0.3-0.1l-0.1,0.1v0.1v0.2v0.1l0,0h-0.2h-0.1l-0.2-0.1h-0.2h-0.5h-0.2h-0.1l-0.3-0.3l-0.3-0.1
	h-0.3l-0.4-0.3h-0.1l0,0l-0.2-0.1l-0.3-0.2l-0.4-0.1l-0.3-0.2l-0.2-0.2l-0.3-0.1h-0.3l-0.3-0.1h-0.3h-0.3l-0.1-0.1v-0.2l-0.1-0.1
	l-0.2-0.1h-0.2h-0.1h-0.1l-0.2-0.1l-0.2-0.2l-0.1-0.3l-0.2-0.2l-0.3-0.1h-0.8h-0.1l-0.2-0.1l-0.2-0.2l-0.2-0.3l-0.2-0.3l-0.1-0.2
	l-0.1-0.3l-0.2-0.4L156,135l-0.2-0.4l-0.2-0.5l-0.1-0.3l-0.2-0.4l-0.3-0.5l-0.1-0.2l-0.2-0.2l-0.4-0.3l-0.5-0.3l-0.2-0.2l-0.3-0.6
	l-0.1-0.2l-0.1-0.4l-0.1-0.4v-0.2l0.3-0.5v-0.1v-0.2l-0.1-0.4l-0.1-0.3l-0.1-0.2l-0.2-0.4l-0.2-0.5l-0.1-0.2v-0.2l0.1-0.5l0.1-0.5
	v-0.1h0.9l0.1-0.1l0.5-0.3l0.6-0.6l0.1-0.3l0.2-0.4l0.2-0.2l0.1-0.1l0.1-0.2l0.1-0.2l0.3-0.3l0.3-0.2v-0.1v-0.1v-0.1l0.2-0.1
	l0.3-0.1l0.1-0.2V122v-0.1v-0.2v-0.1h-0.2l-0.3-0.1h-0.2l-0.2-0.1l-0.1-0.1v-0.1V121l0,0l0.1-0.2l-0.1-0.1l0,0l0.1-0.1l0.3-0.5
	l0.1-0.1h0.1l0.2-0.1h0.2h0.1h0.1l0.1-0.1l0.1-0.2l0.1-0.3V119l-0.1-0.2v-0.3l0.1-0.4v-0.4l-0.1-0.3l-0.1-0.2l-0.2-0.1l-0.3-0.4
	l-0.1-0.2v-0.1h0.1l0,0h0.2l0.2-0.1l0.2-0.1L157.6,116L157.6,116L157.6,116z"/>
<path id="UG" class="st0" d="M166.3,116H166h-0.5H165h-0.5H164h-0.5H163h-0.5H162h-0.5H161h-0.5H160h-0.5H159h-0.5H158h-0.3h-0.1
	l0,0h-0.2l-0.2,0.1l-0.2,0.1h-0.2l0,0h-0.1h-0.2h-0.1l-0.1,0.1l-0.1,0.2l-0.2,0.2l-0.2,0.2l-0.1,0.1l-0.3,0.2l-0.2,0.1h-0.1H155
	l-0.1-0.3h-0.1l-0.6,0.1h-0.1V117v-0.7v-0.4l0.1-0.3v-0.3V115l0.1-0.4v-0.3l0.1-0.9v-0.1l0.1-0.4l0.1-0.1l0.1-0.1l0.1-0.3l0.2-0.4
	l0.1-0.2v-0.5V111v-0.1l0.3-0.1l0.4-0.3l0.2-0.4l0.2-0.2l0.4-0.1l0,0l1.3-1.2l0.6-0.7l0.3-0.3v-0.1l0.1-0.2l-0.1-0.1l-0.1-0.1V107
	l-0.1-0.1h-0.2l-0.1-0.1l-0.1-0.2l-0.1-0.1h-0.4l-0.3-0.2v-0.2l0.1-0.4l0.2-0.5v-0.1V105l-0.1-0.1l-0.1-0.1l-0.1-0.1l0.1-0.3
	l0.1-0.3l0.1-0.2l0.1-0.2v-0.2l-0.2-0.1l0.1-0.1l0.2-0.3l0.3-0.3l0.3-0.2h0.2l0.4,0.1l0.3,0.2h0.2l0.2-0.1l0.5-0.3l0.1,0.1l0.1,0.2
	l0.2,0.3l0.3,0.1l0.1,0.1h0.1h0.1l0.1-0.2l0.1-0.1l0.3-0.2l0.6-0.1h0.4h0.2l0.3-0.1l0.4-0.2l0.4,0.3l0.5,0.1h0.5l0.1-0.1l0.1-0.1
	l0.5-0.5l0.7-0.7l0.4,0.9l0.2,0.1v0.1v0.1l0.3,0.2l0.4,0.1l0.1,0.1v0.1l-0.1,0.5v0.2l0.1,0.5l0.2,0.1l0.2,0.5l0.4,0.2l0.1,0.1
	l0.1,0.3l0.1,0.3l0.1,0.1h0.1l0.1,0.3l-0.1,0.2l0.1,0.5l0.1,0.5v0.6v0.2v0.2v0.2l-0.1,0.1l-0.1,0.1l-0.1,0.2l-0.1,0.2l-0.1,0.1
	l0.1,0.3v0.1l0,0h-0.2l-0.2,0.1l-0.1,0.1l-0.2,0.2l-0.1,0.2l-0.2,0.5l-0.3,0.4l-0.1,0.1l-0.3,0.2l-0.1,0.3l-0.1,0.3l-0.1,0.2
	l-0.3,0.3l-0.1,0.5v1.1l-0.1,1.2L166.3,116z"/>
<path id="YT" class="st0" d="M197.9,149.8h-0.2l-0.1-0.1l-0.1-0.2l0.1-0.2v-0.1l-0.1-0.2l0.1-0.1l0.1,0.2h0.1l0.2,0.1l-0.1,0.2v0.1
	l-0.1,0.2L197.9,149.8z"/>
<path id="ZA" class="st0" d="M158.9,177.6v0.2v0.1l0.1,0.4l0.2,0.6l0.1,0.6l0.2,0.8v0.4v0.2l0.2,0.2l0.2,0.4l0.1,0.2l0.1,0.2
	l0.2,0.3l0.2,0.5l0.1,0.6l0.1,0.3v0.1l0.1,0.3v0.5v0.6v0.7v0.6v0.3v0.8l-0.2,0.4v0.3l0.1,0.2h-0.1h-0.1l-0.6-0.4l-0.6-0.4h-0.1h-0.1
	l-0.4,0.3l-0.3,0.4l-0.2,0.4l-0.2,0.4l-0.4,0.6v0.1v0.5v0.5v0.1h0.2l0.2,0.4l0.4,0.6l0.6,0.4l0.5,0.2h0.8h0.6v-0.4l0.1-0.7l0.1-0.5
	h0.1h0.2h0.1h0.2l0.4,0.1h0.3h0.3h0.5h0.3l-0.1,0.7l-0.4,1.1l-0.1,0.5l-0.3,1.9l-0.4,1l-0.3,0.4l-0.7,0.7l-0.2,0.1l-0.2,0.1
	l-0.3,0.1l-1.2,1.4l-0.5,0.7l-0.4,1l-0.4,0.6l-0.6,1.2l-0.5,0.9l-0.5,0.8l-0.9,1.2l-0.4,0.3l-0.3,0.2l-0.7,0.7l-1,1.1l-0.8,1
	L151,210l-0.7,0.5l-1,1l-0.3,0.1l-1.1,0.9l-0.8,0.5l-1.3,0.6l-0.5,0.2l-1.2-0.2l-0.5,0.1l-0.4,0.4v0.5l-0.2,0.1h-0.3l-0.9-0.2h-0.5
	l-0.3,0.3l-0.2,0.4h-0.6l-1.2-0.4l-1.4-0.2h-0.3l-0.7,0.3h-0.2l-1-0.1l-0.5-0.2h-0.5l-0.4,0.1l-0.5,0.1l-1.3,1h-0.7L131,216h-0.3
	l-0.5-0.1H130l-0.3,0.1l-0.3,0.2l-0.7,0.1l-0.3,0.2l-1.2,0.9h-0.3l-0.2-0.1h-0.6l-0.7-0.5h-0.3l0.1-0.2v-0.3l-0.1-0.2L125,216h-0.3
	l-0.1-0.2h-0.4l-0.1,0.1h-0.2v-0.2v-0.1v-0.2v-0.3l-0.2-0.1h-0.1h-0.3h-0.2l-0.1,0l-0.1,0.2v0.6l-0.1-0.2l-0.2-0.4l-0.1-0.4l0.1-0.5
	l0.3-0.2v-0.3l-0.1-0.3l-0.3-0.7l-0.1-0.3l-0.3-0.2l-0.2-0.5l-0.2-0.2l-0.1-0.4l-0.2-0.3l-0.1-0.4l0.1-0.3l0.2-0.1l0.2,0.2l0.2-0.1
	l0.4-0.3l0.2-0.5v-0.8l-0.1-0.5l-0.3-1.3l-0.1-0.3l-0.6-0.9l-0.7-1.2l-0.9-1.9l-0.4-1.1l-0.7-2.3l-0.6-1.3l-0.7-1.2l-0.1-0.1
	l0.1-0.1l0.4-0.3l0.2-0.1h0.1l0.1-0.1l0.1-0.2v-0.2v-0.2l0.1-0.1l0.1-0.3l0.2-0.2l0.3-0.1l0.3,0.2l0.1,0.2v0.2l0.1,0.1h0.2l0.1,0.1
	l0.1,0.3v0.2l-0.1,0.1v0.2l0.1,0.2l0.1,0.2l0.1,0.2l0.5,0.1l0.2,0.1h0.4l0.4,0.1l0.4,0.2h0.6l0.8-0.1h0.7l0.5,0.2h0.4l0.2-0.1
	l0.1-0.2v-0.2l0.1-0.1l0.3-0.1l0.2-0.2l0.2-0.3l0.4-0.2l0.6-0.2h0.3v0.2v-1.4v-1.4v-1.4v-1.4V189v-1.4v-1.4v-1.3l0.1,0.1l0.9,0.7
	l0.2,0.4l0.1,0.2l0.4,0.8l0.3,0.8l0.2,0.6v0.3v0.3v0.1v0.1l-0.2,0.3l-0.2,0.2l-0.2,0.3v0.4l0.1,0.5l0.1,0.3l0.2,0.1l0.4-0.1h0.2
	l0.3,0.1l1.1-0.1h0.1h0.4h0.1l0.1-0.1l0.1-0.3l0.1-0.1l0.2-0.1l0.3-0.1l0.2-0.2l0.4-0.6l0.7-0.5l0.2-0.1l0.1-0.1l0.1-0.2l0.2-0.7
	l0.2-0.6l0.1-0.3l0.2-0.4l0.2-0.3l0.2-0.1h0.1l0.3-0.1l0.3-0.1l0.3,0.1l0.4,0.2l0.4,0.3l0.4,0.3l0.2,0.2l0.2,0.1h0.4h0.2l0.4,0.3
	h0.2l0.4,0.1l0.5,0.1h0.3l0.4-0.2h0.3h0.3l0.4-0.1l0.3-0.1l0.2-0.2l0.2-0.2l0.2-0.5l0.1-0.4l0.2-0.5l0.2-0.7l0.1-0.5l0.1-0.1
	l0.3-0.1l0.3-0.1l0.7-0.2l0.2-0.1l0.1-0.2l0.3-0.4l0.4-0.3l0.2-0.2l0.4-1.5v-0.2l0.3-0.4l0.2-0.2h0.1l0.2-0.1l0.2-0.2l0.2-0.1h0.3
	l0.2-0.1l0.1-0.2l0.1-0.1h0.2l0.1-0.1v-0.1l0.1-0.1l0.2-0.1l0.1-0.1v-0.1l0.3-0.3l0.5-0.5l0.5-0.3l0.5-0.1l0.4-0.1l0.4-0.2l0.3-0.3
	l0.2-0.4l0.3-0.2l0.7-0.1l0,0l0.8-0.1l0.7,0.1l0.8,0.3l0.8,0.1l0.7-0.1h0.6l0.4,0.1l0.3,0.1L158.9,177.6L158.9,177.6z M151.8,201.7
	l0.5-0.2l0.2-0.1l0.1-0.1l0.2-0.2l0.1-0.4l0.1-0.3l0.1-0.2l0.2-0.1l0.1-0.2l0.2-0.4l0.1-0.4v-0.2l-0.1-0.2l-0.1-0.2l-0.1-0.2h-0.1
	l-0.2-0.1l-0.3-0.3l-0.3-0.2l-0.3-0.3l-0.1-0.1l-0.3-0.2l-0.1-0.1l-0.1-0.2l-0.1-0.1h-0.1l-0.3,0.1l-0.7,0.3l-0.4,0.3l-0.4,0.3
	l-0.4,0.1L149,198l-0.2,0.3l-0.2,0.3l-0.2,0.3l-0.1,0.1l-0.1,0.1l-0.1,0.2l-0.2,0.3l-0.2,0.2l-0.2,0.1l-0.3,0.1l-0.1,0.1v0.1
	l0.1,0.3l0.1,0.3l0.2,0.3l0.1,0.2l0.2,0.3l0.1,0.2v0.3v0.1l0.1,0.1h0.1h0.1l0.2,0.1v0.1l0.1,0.1l0.1,0.2l0.2,0.2l0.2,0.2l0.4,0.1
	l0.3,0.1h0.1l0.1-0.2l0.1-0.2v-0.2l0.1-0.1l0.4-0.6l0.2-0.2h0.1h0.2h0.2h0.2l0,0L151.8,201.7L151.8,201.7z"/>
<path id="ZM" class="st0" d="M164.5,138.4L164.5,138.4l0.1,0.2l0.1,0.1v0.2v0.1h0.1h0.1l0.1-0.1h0.1l0.1,0.1v0.2l0.1,0.2l0.2,0.1
	l0.1,0.1v0.3l-0.1,0.2l0.2,0.2l0.3,0.2l0.1,0.1v0.3v0.1l0.2,0.3l0.1,0.2v0.1l-0.5,0.6l-0.2,0.1h-0.2l-0.1,0.1l-0.1,0.1v0.1l0.1,0.2
	l0.1,0.3l0.1,0.2l-0.1,0.3l-0.2,0.5h-0.1v0.3l0.1,0.1l0.1,0.1v0.2v0.3v0.3l-0.1,0.7l0.2,0.7l0.1,0.1h0.3h0.1l-0.1,0.2l-0.1,0.2
	l-0.1,0.1l-0.4,0.2l-0.6,0.2l-0.1,0.2l-0.1,0.3l0.1,0.2l0.1,0.1v0.3l-0.1,0.3v0.2v0.2l-0.1,0.1l-0.1,0.3l-0.1,0.3l-0.1,0.1l-0.2,0.1
	l-0.2,0.1v0.1l0.3,0.1l0.1,0.1v0.1l-0.1,0.1l-0.1,0.1l0.1,0.1l0.2,0.1l0.1,0.2l0.1,0.3v0.1l0,0l0,0h0.1l0.2-0.1l0.1-0.1l0.2,0.2
	l-0.6,0.2l-0.3,0.1l-0.9,0.3l-0.8,0.3l-0.2,0.1l-0.4,0.1l-0.2,0.1l-0.7,0.2l-0.3,0.1l-0.2,0.1l-0.6,0.2l-0.6,0.2l-0.6,0.2l-0.7,0.2
	l-0.4,0.1l-0.3,0.1l-0.6,0.2v0.1v0.2l0.1,0.3l0.1,0.3l0.1,0.2l0.1,0.6v0.5h-0.4h-0.7H155l-0.7,0.2l-0.6,0.2l-0.7,0.5l-0.2,0.1
	l-0.2,0.1l-0.1,0.1l-0.1,0.3v0.6l-0.1,0.3l-0.2,0.3l0,0l-1,0.5l-0.7,0.3l-0.6,0.5l-0.5,0.6l-0.3,0.7l-0.6,0.8l-0.6,0.7l-0.6,0.8
	l-0.7,0.2l-0.6-0.1l-0.7-0.3l-0.5-0.1l-0.4,0.2l-0.4-0.1l-0.3-0.3l-0.3-0.1l-0.2,0.1h-0.3l-0.5-0.2l-0.5-0.6l-0.3-0.2l-0.2-0.1
	l-0.6-0.1l-1.3-0.1h-0.1l-0.5,0.1l-0.7,0.1l-0.6,0.1l-0.6,0.1l-0.6-0.6l-0.6-0.7l-0.7-0.7l-0.5-0.6l-0.2-0.3l-0.4-0.5l-0.3-0.2
	l-0.1-0.1l-0.3-1.1l-0.2-1v-0.8v-1v-1v-0.5v-1v-1v-1v-1v-1v-0.5h0.6h0.7h0.8h0.8h0.8h0.8h0.6h0.2h0.2v-0.1l-0.2-0.6v-0.2l0.1-0.3
	l0.1-0.3l0.1-0.3v-0.2l-0.1-0.8v-0.5v-0.5V146v-0.3v-0.1l0.1-0.2v-0.2V145v-0.1v-0.2v-0.5l-0.1-0.6l-0.1-0.5h0.1h0.2l0.1,0.2
	l0.1,0.2h0.1l0.4,0.1l0.1,0.2l0.1,0.5l-0.1,0.2l-0.1,0.1l0.1,0.1l0.2,0.1h0.1l0.4-0.2h0.2h0.2l0.2-0.1l0.6-0.1h0.3l0.2-0.1h0.1
	l0.1,0.1l-0.1,0.3v0.2l0.1,0.5l0.1,0.2l0.2,0.1l0.1,0.1l0.1,0.2h0.3l0.7,0.2l0.2,0.1l0.3,0.1h0.2l0.7,0.1l0.3,0.1l0.5,0.1h0.4h0.3
	l0.2-0.1l0.1-0.1l0.1-0.1l0.1-0.2l0.1-0.6l0.1-0.1l0.1-0.1h0.2l0.1,0.1l0.1,0.6l0.5,0.6l0.2,0.5l0.1,0.3l0.1,0.1l0.2,0.1h0.3h0.3
	l0.6,0.2l0.5,0.2l0.3,0.1l0.2,0.1l0.1,0.2l0.1,0.1l0.1,0.3l0.1,0.3l0.2,0.1h0.2l0.2,0.2l0.1,0.2l0.2,0.5l0.2,0.3l0.1,0.3l0.2,0.2
	l0.3,0.1h0.3l0.1-0.1l0.4-0.1l0.3-0.2l0.2-0.1h0.1l0.1,0.1v0.2v0.1l0.2,0.1h0.1l0.1-0.1v-0.1v-0.7v-0.6v-0.6v-0.7v-0.6v-0.5v-0.5
	h-0.1l-0.2,0.1h-0.4l-0.1,0.1v0.1v0.1v0.2l-0.1,0.1h-0.2l-0.2-0.1l-0.4-0.1l-0.4-0.1l-0.3-0.3l-0.3-0.5l-0.2-0.2l-0.5-0.5l-0.1-0.1
	l-0.2-0.2l-0.1-0.3l-0.1-0.2l-0.1-0.2l-0.1-0.2l0.1-0.5l0.2-0.8l0.1-0.6l0.1-0.5l0.3-0.5V142l-0.1-0.5v-0.2v-0.7v-0.6v-0.2l-0.1-0.5
	l-0.2-0.6l-0.4-0.8V138l0.2-0.2l0.4-0.3l0.2-0.2l0.2-0.2l0.1-0.1l0.2-0.3l0.1-0.2v-0.3l-0.1-0.3l0.2-0.1l0.7-0.1l0.8-0.1l0.8-0.1
	l0.8-0.1l0.8-0.1l0.7-0.1l0.5-0.1l0.1,0.2l0.2,0.3l0.2,0.2l0.2,0.2l0.2,0.1h0.1h0.8l0.3,0.1l0.2,0.2l0.1,0.3l0.2,0.2l0.2,0.1h0.1
	h0.1h0.2l0.2,0.1l0.1,0.1v0.2l0.1,0.1h0.3h0.3l0.3,0.1h0.3l0.3,0.1l0.2,0.2l0.3,0.2l0.4,0.1l0.3,0.2L164.5,138.4z"/>
<path id="ZW" class="st0" d="M159.6,177.6l-0.3-0.2l-0.3-0.1l-0.4-0.1h-0.6l-0.7,0.1l-0.8-0.1l-0.8-0.2l-0.7-0.1L154,177l0,0
	l-0.1-0.1l-0.2-0.2h-0.4l-0.1-0.1l-0.1-0.1l-0.1-0.1v-0.1l0.1-0.4l0,0h-0.1h-0.2l-0.5-0.2l-0.6-0.2l-1-0.2h-0.4l-0.1-0.1l-0.1-0.1
	l-0.2-0.4l-0.2-0.3l-0.4-0.5l-0.1-0.1v-0.4v-0.3v-0.2v-0.2v-0.3v-0.2l-0.1-0.1l-0.2-0.1h-0.4h-0.5v-0.3l-0.1-0.4l-0.1-0.3l-0.1-0.1
	l-0.2-0.1l-0.5-0.2l-0.7-0.3l-0.6-0.4l-0.7-0.5l-0.2-0.1l-0.2-0.5l-0.4-0.9v-0.3l-0.1-0.1l-0.4-0.4l-0.1-0.2l-0.1-0.2l-0.6-0.6
	l-0.2-0.3l-0.1-0.3l-0.1-0.3l-0.1-0.1l-0.2-0.2l-0.1-0.2l-0.1-0.2v-0.2l0.1-0.1l0.5,0.2h0.3l0.2-0.1l0.3,0.1l0.3,0.3l0.4,0.1
	l0.4-0.2l0.5,0.1l0.7,0.3l0.6,0.1l0.7-0.2l0.6-0.7l0.6-0.6l0.6-0.7l0.3-0.6l0.5-0.5l0.6-0.4l0.7-0.3l1-0.4l0,0l0.2-0.3l0.1-0.3V159
	l0.1-0.3l0.1-0.1l0.2-0.1l0.2-0.1l0.7-0.4l0.6-0.2l0.7-0.2h0.7h0.7h0.4v0.5v0.5h0.1h0.5h0.9h0.8l0.5,0.4l0.2,0.1l0.6,0.1l0.7,0.6
	l0.9,0.1l0.6,0.2l0.5,0.2l0.3,0.3l0.2,0.1h0.3h0.1v0.2l-0.2,0.3v0.5l0.2,0.6v0.5l-0.1,1v0.9v0.3v0.2l0.1,0.1v0.1l-0.1,0.4l-0.1,0.4
	v0.2v0.1l-0.1,0.1l-0.4,0.2l-0.1,0.1v0.2v0.2l0.1,0.1l0.2,0.1l0.1,0.1v0.1l-0.1,0.3l-0.1,0.4l0.1,0.5l0.2,0.3l0.2,0.4l0.1,0.2v0.2
	v0.2l-0.3,0.7l-0.2,0.4l-0.3,0.5l-0.4,0.3l-0.1,0.1v0.2v0.3v0.4l-0.3,0.6l0.2,0.5l0,0l-0.1,0.1l-0.5,0.5l-0.5,0.6l-0.4,0.4l-0.4,0.5
	l-0.5,0.5l-0.4,0.4L159.6,177.6z"/>
</svg>
