<?xml version="1.0" encoding="utf-8"?>
<!-- Generator: Adobe Illustrator 27.0.0, SVG Export Plug-In . SVG Version: 6.00 Build 0)  -->
<svg version="1.1" id="Layer_1" xmlns:amcharts="http://amcharts.com/ammap"
	 xmlns="http://www.w3.org/2000/svg" xmlns:xlink="http://www.w3.org/1999/xlink" x="0px" y="0px" viewBox="0 0 451 455"
	 style="enable-background:new 0 0 451 455;" xml:space="preserve">
<defs>
	
		<amcharts:ammap  bottomLatitude="-10.243122" leftLongitude="34.243122" projection="mercator" rightLongitude="190.116828" topLatitude="81.253768">
		</amcharts:ammap>
</defs>
<g>
	<path id="AE" style="fill:#CCCCCC;stroke:#FFFFFF;stroke-width:0.5;" d="M57.9,346.7l0.5-0.1l0.1,0.8l2.2-0.5L63,347l1.7,0.1
		l1.9-2.1l2.1-2l1.8-1.9l0.5,1.1l0.4,2.4l-1.4,0l-0.2,2l0.5,0.4l-1.3,0.6l0,1.2l-0.8,1.3l-0.1,1.2l-0.6,0.6l-8.4-1.5l-1.1-3.1
		L57.9,346.7z"/>
	<path id="AF" style="fill:#CCCCCC;stroke:#FFFFFF;stroke-width:0.5;" d="M84.9,309.9l2.9,1.3l2.1-0.5l0.6-1.5l2.2-0.5l1.6-1.1
		l0.6-2.8l2.4-0.7l0.4-1.2l1.3,0.9l0.8,0.1l1.6,0l2.1,0.7l0.8,0.4l2-1.1l1,0.7l0.9-1.6l1.7,0.1l0.4-0.5l0.3-1.4l1.2-1.2l1.5,0.8
		l-0.3,1.1l0.8,0.2l-0.3,2.9l1.1,1.2l1-0.7l1.2-0.3l1.7-1.6l1.9,0.3h2.9l0.5,1l-1.6,0.4l-1.4,0.6l-3.2,0.4l-3,0.7l-1.6,1.5l0.7,1.5
		l0.3,1.7l-1.4,1.4l0.1,1.3l-0.8,1.2l-2.7-0.1l1.1,2.2l-1.8,0.9l-1.2,2l0.1,2l-1.1,0.9l-1-0.3l-2.1,0.4l-0.3,0.9h-2.1l-1.6,1.8
		l-0.1,2.8l-3.7,1.3l-2-0.3l-0.6,0.7l-1.7-0.4l-2.8,0.5l-4.7-1.6l2.5-2.9l-0.2-2.1l-2.1-0.6l-0.2-2.1l-0.9-2.6l1.2-1.8l-1.2-0.5
		l0.8-2.5L84.9,309.9z"/>
	<path id="BD" style="fill:#CCCCCC;stroke:#FFFFFF;stroke-width:0.5;" d="M173.1,353.4l-0.1,2.1l-1-0.5l0.2,2.4l-0.8-1.6l-0.2-1.5
		l-0.5-1.4l-1.2-1.8l-2.6-0.1l0.3,1.2l-0.9,1.7l-1.2-0.6l-0.4,0.5l-0.8-0.3l-1.1-0.3l-0.4-2.5l-1-2.3l0.5-1.8l-1.7-0.8l0.6-1.1
		l1.8-1.1l-2-1.6l1-2.1l2.2,1.3l1.3,0.2l0.2,2.1l2.7,0.4l2.6,0l1.6,0.5l-1.3,2.6l-1.3,0.2l-0.9,1.7l1.5,1.6l0.5-1.9l0.8,0
		L173.1,353.4z"/>
	<path id="BN" style="fill:#CCCCCC;stroke:#FFFFFF;stroke-width:0.5;" d="M233.5,403.8l1.1-1l2.4-1.5l-0.1,1.4l-0.2,1.8l-1.3-0.1
		l-0.6,0.9L233.5,403.8z"/>
	<path id="BT" style="fill:#CCCCCC;stroke:#FFFFFF;stroke-width:0.5;" d="M170.4,335.8l1.1,1l-0.2,1.9l-2.3,0.1l-2.4-0.2l-1.8,0.5
		l-2.5-1.2l0-0.6l1.8-2.3l1.5-0.8l2,0.7l1.5,0.1L170.4,335.8z"/>
	<path id="CN" style="fill:#CCCCCC;stroke:#FFFFFF;stroke-width:0.5;" d="M223.9,359.3l0.6,1.1l-1.2,1.3l-0.7,1.7l-2.4,1.4l-2.3-0.9
		l-0.1-2.5l1.4-1.3l3.1-0.8L223.9,359.3z M287.2,262.6l-2.4,1.6h-4.3l-1.1-4l-3.3-3l-4.9-1.4l-1-4.3l-1-2.7l-1-1.9l-1.7-4.6
		l-2.5-1.7l-4.2-1.4l-3.7,0.1l-3.5,0.8l-2.3,2.3l1.5,1.1l0,2.5l-1.6,1.5l-2.5,4.7l0,1.9l-4,2.7l-3.4-1.6l-1.4,3.2l-2,4.2l0.7,1.7
		l1.6-0.5l2.8,0.6l2.2-1.5l2.2,1.3l2.5,2.9l-0.3,1.5l-2.2-0.5l-4.1,0.5l-2,1.2l-2,2.7l-4.3,1.5l-2.8,2.1l-2.9-0.8l-1.6-0.4l-1.5,2.5
		l0.9,1.5l0.5,1.3l-2,1.3l-2,2l-3.3,1.3l-4.2,0.1l-4.5,1.3l-3.3,2l-1.2-1.2H203l-4.2-2.3l-2.8-0.6l-3.7,0.5l-5.8-0.9l-3.1,0.1
		l-1.7-2.3l-1.3-3.6l-1.7-0.4l-3.4-2.5l-3.8-0.5l-3.3-0.7l-1-1.7l1.1-4.7l-1.9-3.3l-4-1.6l-2.4-2.2l-0.7-3l-1.1,0.4l-2.1,2.8
		l-2.3,0.4l-0.1,4.2l-1.6,1.9l-5.6-1.4l-2,7.3l-1.4,0.9l-5.5,1.6l2.5,6.8l-1.9,1l0.2,2.2l-0.4,0.9l-4.4,2l-1,1.5l-3.6,0.4l-1.1,2.4
		l-3-0.5l-1.9,0.7l-2.7,1.7l0.4,0.9l-0.8,0.8l0.7,3.3l0.9-0.4l1.7,0.8l-0.1,1.4l0.4,2l0.5,1l2.1,1.6l0.8,2.7l4.4,1.3l0.1,0l3.9-1.4
		l2.9,1.4l-0.9,2.8l-1.6,2.2l-1.2,0.1h0l-0.2,1.7l1.1,1.7l-0.1,1.7l-2-0.4l0.8,3.6l2.8,2.1l3.9,2.3l1.2-0.8l2.2,1l2.8,2.1l1.6,0.5
		l0.9,1.5l2.2,0.6l2.3,1.4l3.2,0.7l3.3,0.3l1.7-0.7l0.2,2.5l1.8-2.3l1.5-0.8l2,0.7l1.5,0.1l1.2,0.9l2.3-0.4l2.5-2.4l3.2-2l2.3,0.8
		l2-1.4l1.3,2l-1,1.3l3,0.5l1.6-0.2l0.9,1.9l1.2,0.8l0.1,2.4l-0.1,2.6l-2.7,2.6l-0.3,3.6l3-0.5l0.7,2.8l1.8,0.6l-0.8,2.5l2.1,1.1
		l1.2,0.5l2.1-0.9l0.1,1.2l0.2,0.7l1.5,0.1l-0.4-3.4l1.5-0.4l1.5-0.7l2.2,0l2.7-0.4l2.4-1.6l1.3,1.1l2.6,0.5l-0.4,1.7l1.3,1.2
		l2.8,0.8l1.3-0.5l3.8,1l-0.7,1.2l0.7,2.2l1.5-0.2l1-3.1l3-0.5l3.9-1.5l1.6-1.5l1,1l1.7-1.3l3.2-0.4l3.9-2.5l3.9-2.8l2.6-3.7
		l2.3-4.1l2-3.4l1.6-0.3l0.7-2.5l0.4-2.6l-1.7-1l-0.7-1.7l1.8-0.9l0-2.4l-1.9-2.5l-1.7-3l-1.1-3.3l-3-1.9l1.4-2.4l2.7-1.7l1.3-1.9
		l4-1l-0.5-1.8l-1.8-0.1l-2.5-1.4l-3.1,2.5l-2.2-1l-0.1-1.6l-2.3-0.6l-1.5-2.4l1.4-1.7l2.8-0.2l1.7-2.3l3.2-2.5l2.4-1.3l1.5,1.9
		l-2.2,2.5l0.6,1.4l-1.5,1.7l3-1l2.1-1.7l3.9-1.1l2.3-2.4l3.1-2l1.9-2.6l1.3,1.2l2.4,0.1l-0.4-2l4.3-1.6l1.1-2.1l1.8,2.2l0-1.9
		l1.4-0.1l0.4-4.5l-0.7-3.4l2.4-1.4l3.4,0.7l1.9-3.9l1-4.5l1.1-1.5l1.5-3.8L287.2,262.6z"/>
	<path id="ID" style="fill:#CCCCCC;stroke:#FFFFFF;stroke-width:0.5;" d="M251.7,445.1l-1.2,0l-3.7-2l2.6-0.6l1.5,0.9l1,0.9
		L251.7,445.1z M262.2,444.8l-2.4,0.6l-0.3-0.3l0.2-1l1.2-1.7l2.8-1.1l0.3,0.6l0,0.9L262.2,444.8z M243.8,439l1,0.8l1.7-0.2l0.7,1.2
		l-3.2,0.6l-1.9,0.4l-1.5,0l1-1.6l1.5,0L243.8,439z M257.9,439l-0.4,1.6l-4.2,0.8l-3.7-0.4l0-1l2.2-0.6l1.8,0.8l1.9-0.2L257.9,439z
		 M217.8,435.3l5.4,0.3l0.6-1.2l5.2,1.4l1,1.8l4.2,0.5l3.4,1.7l-3.2,1.1l-3.1-1.1l-2.5,0.1l-2.9-0.2l-2.6-0.5l-3.2-1.1l-2.1-0.3
		l-1.2,0.4l-5.1-1.2l-0.5-1.2l-2.6-0.2l1.9-2.7l3.4,0.2l2.3,1.1l1.2,0.2L217.8,435.3z M291,433.7l-1.4,1.9l-0.3-2.1l0.5-1l0.6-1
		l0.6,0.8L291,433.7z M270,426l-1,0.9l-1.9-0.5l-0.5-1.2l2.8-0.1L270,426z M279.1,425l1,2.1l-2.4-1.1l-2.3-0.2l-1.6,0.2l-1.9-0.1
		l0.7-1.5l3.5-0.1L279.1,425z M289.4,419.6l0.8,4.5l2.9,1.7l2.3-3l3.2-1.7h2.5l2.4,1l2.1,1l3,0.5l0,9.1l0,9.2l-2.5-2.3l-2.8-0.6
		l-0.7,0.8l-3.5,0.1l1.2-2.3l1.8-0.8l-0.7-3l-1.3-2.4l-5.4-2.4l-2.3-0.2l-4.2-2.6l-0.8,1.4l-1.1,0.2l-0.6-1l0-1.2l-2.1-1.4l3-1l2,0
		l-0.2-0.7l-4.1,0l-1.1-1.7l-2.5-0.5l-1.2-1.4l3.8-0.7l1.4-0.9l4.5,1.1L289.4,419.6z M264.4,412.4l-2.2,2.8l-2.1,0.5l-2.7-0.5
		l-4.7,0.1l-2.5,0.4l-0.4,2.1l2.5,2.5l1.5-1.3l5.2-1l-0.2,1.3l-1.2-0.4l-1.2,1.6l-2.5,1.1l2.7,3.6l-0.5,1l2.5,3.2l0,1.8l-1.5,0.8
		l-1.1-1l1.4-2.3l-2.8,1.1l-0.7-0.8l0.4-1.1l-2-1.6l0.2-2.7l-1.9,0.9l0.2,3.2l0.1,4l-1.8,0.4l-1.2-0.8l0.8-2.6l-0.4-2.7l-1.2,0
		l-0.9-1.9l1.2-1.8l0.4-2.2l1.4-4.2l0.6-1.1l2.4-2.1l2.2,0.8l3.5,0.4l3.2-0.1l2.8-2L264.4,412.4z M274.1,413.2l-0.2,2.4l-1.5-0.3
		l-0.4,1.7l1.2,1.5l-0.8,0.3l-1.1-1.8l-0.8-3.6l0.6-2.2l0.9-1l0.2,1.5l1.7,0.2L274.1,413.2z M243.8,411.3l3.1,2.6l-3.3,0.3l-0.9,1.9
		l0.1,2.5l-2.7,1.9l-0.1,2.8l-1.1,4.3l-0.4-1l-3.2,1.3l-1.1-1.7l-2-0.2l-1.4-0.9l-3.3,1l-1-1.4l-1.8,0.1l-2.3-0.3l-0.4-3.7l-1.4-0.8
		l-1.3-2.4l-0.4-2.4l0.3-2.6l1.7-1.9l0.5,1.9l1.9,1.6l1.8-0.6l1.8,0.2l1.6-1.4l1.3-0.2l2.7,0.8l2.3-0.6l1.4-3.9l1.1-1l1-3.2h3.2
		l2.4,0.5l-1.6,2.5l2.1,2.6L243.8,411.3z M210,432.7l-3.1,0.1l-2.4-2.3l-3.6-2.3l-1.2-1.7l-2.1-2.3l-1.4-2.1l-2.1-3.9l-2.5-2.3
		l-0.8-2.4l-1-2.2l-2.5-1.8l-1.5-2.4l-2.1-1.6l-2.9-3.1l-0.2-1.4l1.8,0.1l4.3,0.5l2.5,2.7l2.2,1.9l1.5,1.2l2.7,3l2.8,0l2.4,1.9
		l1.6,2.3l2.1,1.3l-1.1,2.3l1.6,1l1,0.1l0.5,1.9l1,1.6l2.1,0.2l1.4,1.8l-0.7,3.5L210,432.7z"/>
	<path id="IL" style="fill:#CCCCCC;stroke:#FFFFFF;stroke-width:0.5;" d="M13.4,319.8l-0.5,1l-1-0.5l-0.6,2.2L12,323l-0.7,0.5
		l-0.1,0.9l1.3-0.5l0.1,1.3l-1.4,5.2l-1.8-5.5l0.8-1.1l-0.2-0.2l0.7-1.5l0.6-2.5l0.4-0.8l0.1,0h0.9l0.3-0.6l0.8-0.1l0,1.4
		L13.4,319.8L13.4,319.8z"/>
	<path id="IN" style="fill:#CCCCCC;stroke:#FFFFFF;stroke-width:0.5;" d="M186.4,335.4l-0.2-1.2l-3-0.5l1-1.3l-1.3-2l-2,1.3
		l-2.3-0.8l-3.2,2l-2.5,2.4l-2.3,0.4l1.1,1l-0.2,1.9l-2.3,0.1l-2.4-0.2l-1.8,0.5l-2.5-1.2l0-0.6l-0.2-2.5l-1.7,0.7l-0.2,1.3l0.4,2
		l-0.3,1.2l-2.3,0l-3.4-0.7l-2.2-0.3l-1.6-1.6l-3.8-0.4l-3.7-1.8l-2.6-1.6l-2.7-1.2l1.1-3l1.8-1.5l-3.9-2.3l-2.8-2.1l-0.8-3.6l2,0.4
		l0.1-1.7l-1.1-1.7l0.2-1.7h0.1l1.2-0.1l1.6-2.2l0.9-2.8l-2.9-1.4l-3.9,1.4l-0.1,0l0.2,0.1l-4.6-1.4l-0.8-2.7l-2.1-1.6l-1.6,0.4
		l-1.4,0.6l-1.3,0.2l-0.1,0.1l-3.1,2.3l0.4,1.1l1,0l3,2.6l-1.9,1.7l0.6,4.8l2.4,1l0.1,0l0,0l2.3,1.6l-2.4,1.9l0,2.3l-2.7,3.2
		l-1.8,3.3l-2.9,3.3l-3.3-0.2l-3.1,3.3l1.8,1.4l0.3,2.4l1.6,1.6l0.6,2.6l-6.2,0l-1.9,2l3.3,2.6l0.8,1.2l-1.4,1.1l3.7,3.6l2,0.4
		l4.1-1.8l0.5,2.8l0,3.6l0.8,3.8l1.2,5.6l2.5,4l0.5,1.8l0.7,3.6l1.5,2.7l1,1.3l1.1,2.9l1.3,4l2.6,2.6l1.1-0.8l0.9-1.9l2.6-0.8
		l-0.8-0.9l1.3-2.2l1.4-0.1l0-4.8l1.2-2.7l-0.1-2.4l-0.6-3.8l0.8-2.2l1.3-0.2l2.5-1l1.4-0.7v-1.3l2.8-1.9l2.1-1.8l3.1-3.5l4-2
		l1.5-1.8l-0.2-2.2l3.5-0.6l1.9,0l0.4-1.1l-0.4-2.5l-1-2.3l0.5-1.8l-1.7-0.8l0.6-1.1l1.8-1.1l-2-1.6l1-2.1l2.2,1.3l1.3,0.2l0.2,2.1
		l2.7,0.4l2.6,0l1.6,0.5l-1.3,2.6l-1.3,0.2l-0.9,1.7l1.5,1.6l0.5-1.9l0.8,0l1.5,4.8l1.4-0.7l-0.3-1.3l0.6-1l0.1-3.1l2.2,0.7l1.2-2.5
		l0.2-1.5l1.5-2.6l-0.1-1.8l3.6-2.2l2,0.6l-0.2-1.9L186.4,335.4z"/>
	<path id="IQ" style="fill:#CCCCCC;stroke:#FFFFFF;stroke-width:0.5;" d="M40.6,308.8l1.8,1l0.2,2l-1.4,1.2l-0.6,2.6l1.9,3.2
		l3.4,1.8l1.5,2.5l-0.5,2.4h0.9l0,1.7l1.5,1.7l-1.7-0.1l-1.9-0.3l-2.1,3.1l-5.2-0.3l-7.9-6.5l-4.2-2.3l-3.4-0.9l-1.1-4l6.2-3.5
		l1.1-4.1l-0.3-2.5l1.5-0.9l1.4-2.2l1.2-0.6l3.3,0.5l1,0.9l1.3-0.6L40.6,308.8z"/>
	<path id="IR" style="fill:#CCCCCC;stroke:#FFFFFF;stroke-width:0.5;" d="M64.4,304.5l2.5-0.7l2-2l1.9,0.1l1.2-0.7l2,0.3l3.1,1.8
		l2.2,0.4l3.2,3.1l2.1,0.1l0.2,2.9l-1.1,4.2l-0.8,2.5l1.2,0.5l-1.2,1.8l0.9,2.6l0.2,2.1l2.1,0.6l0.2,2.1l-2.5,2.9l1.4,1.7l1.1,1.9
		l2.7,1.4l0.1,2.8l1.3,0.5l0.2,1.4l-4,1.6l-1.1,3.6l-5.3-0.9l-3.1-0.7l-3.2-0.4l-1.2-3.8l-1.3-0.6l-2.2,0.6l-2.8,1.5l-3.4-1
		l-2.8-2.4l-2.7-0.9l-1.9-3l-2.1-4.3l-1.5,0.5l-1.8-1.1l-1,1.3l-1.5-1.7l0-1.7H47l0.5-2.4l-1.5-2.5l-3.4-1.8l-1.9-3.2l0.6-2.6
		l1.4-1.2l-0.2-2l-1.8-1l-1.8-4.1l-1.5-2.8l0.5-1.1l-0.9-4.1l1.9-1l0.4,1.4l1.4,1.7l1.9,0.5l1-0.1l3.3-2.7l1-0.3l0.8,1.1l-1,1.8
		l1.8,1.9l0.7-0.2l0.9,2.6l2.7,0.7l2,1.8l4,0.6l4.4-0.9L64.4,304.5z"/>
	<path id="JO" style="fill:#CCCCCC;stroke:#FFFFFF;stroke-width:0.5;" d="M12.9,320.9l0.5-1l3.1,1.3l5.5-3.5l1.1,4l-0.5,0.5
		l-5.6,1.6l2.8,3.3l-0.9,0.5l-0.5,1.1l-2.1,0.4l-0.7,1.2l-1.2,1l-3.1-0.5l-0.1-0.5l1.4-5.2l-0.1-1.3l0.4-1V320.9z"/>
	<path id="JP" style="fill:#CCCCCC;stroke:#FFFFFF;stroke-width:0.5;" d="M290.8,315l0.4,1.1l-1.6,2l-1.2-1.1l-1.4,0.8l-0.7,2
		l-1.8-1l0-1.6l1.5-2l1.6,0.4l1.2-1.4L290.8,315z M308.5,304.7l-1.1,2.8l0.5,1.7l-1.5,2.4l-3.6,1.6l-4.9,0.2l-4,3.8l-1.9-1.3
		l-0.1-2.5l-4.9,0.8l-3.3,1.6l-3.3,0.1l2.8,2.5l-1.9,5.6l-1.8,1.4l-1.4-1.3l0.7-3l-1.8-1l-1.1-2.3l2.7-1l1.5-2.1l2.8-1.8l2.1-2.3
		l5.6-1l3,0.7l2.9-6.2l1.9,1.7l4.1-3.5l1.6-1.4l1.8-4.4l-0.5-4.1l1.2-2.3l3-0.7l1.5,5.1l-0.1,2.9l-2.6,3.6L308.5,304.7z
		 M316.8,278.8l2,0.8l2-1.6l0.6,4.4l-4.2,1l-2.5,3.8l-4.4-2.6l-1.5,4.1l-3.1,0.1l-0.4-3.7l1.4-2.9l3-0.2l0.8-5.4l0.8-3.1l3.3,4.1
		L316.8,278.8z"/>
	<path id="KG" style="fill:#CCCCCC;stroke:#FFFFFF;stroke-width:0.5;" d="M112.2,286.1l0.6-1.7l1.8-0.5l4.6,1.3l0.4-2.2l1.6-0.8
		l4,1.6l1-0.4l4.7,0.1l4.2,0.4l1.4,1.4l1.7,0.6l-0.4,0.9l-4.4,2l-1,1.5l-3.6,0.4l-1.1,2.4l-3-0.5l-1.9,0.7l-2.7,1.7l0.4,0.9
		l-0.8,0.8l-5.3,0.6l-3.5-1.2l-3,0.3l0.3-2.1l3.1,0.6l1-1.1l2.1,0.4l3.6-2.6l-3.3-2l-2,0.9l-2.1-1.4l2.3-2.4L112.2,286.1z"/>
	<path id="KH" style="fill:#CCCCCC;stroke:#FFFFFF;stroke-width:0.5;" d="M203.4,386.6l-1.1-1.5l-1.4-2.9l-0.7-3.4l1.8-2.4l3.6-0.6
		l2.6,0.4l2.3,1.1l1.3-2l2.5,1.1l0.6,1.9l-0.3,3.4l-4.7,2.2l1.2,1.7l-2.9,0.2l-2.4,1.1L203.4,386.6z"/>
	<path id="KP" style="fill:#CCCCCC;stroke:#FFFFFF;stroke-width:0.5;" d="M279.5,285.6l0.4,0.7l-1.1-0.2l-1.2,1.3l-0.8,1.3l0.1,2.7
		l-1.5,0.8l-0.5,0.6l-1.1,1.1l-1.9,0.6l-1.2,1l-0.1,1.6l-0.3,0.4l1.1,0.6l1.6,1.6l-0.4,0.9l-1.2,0.2l-2,0.2l-1.1,1.6l-1.3-0.1
		l-0.2,0.3l-1.4-0.7l-0.3,0.7l-0.8,0.3l-0.1-0.7l-0.7-0.3l-0.8-0.6l0.8-1.6l0.7-0.4l-0.2-0.6l0.7-1.9l-0.2-0.6l-1.6-0.4l-1.3-1
		l2.3-2.4l3.1-2l1.9-2.7l1.3,1.2l2.4,0.1l-0.4-2l4.3-1.6l1.1-2.1L279.5,285.6z"/>
	<path id="KR" style="fill:#CCCCCC;stroke:#FFFFFF;stroke-width:0.5;" d="M273.1,299.5l2.4,4.2l0.7,2.3l0,4l-1,1.9l-2.5,0.7
		l-2.2,1.4l-2.5,0.3l-0.3-1.9l0.5-2.6l-1.2-3.6l2.1-0.6l-1.9-3l0.2-0.3l1.3,0.1l1.1-1.6l2-0.2l1.2-0.2L273.1,299.5z"/>
	<path id="KW" style="fill:#CCCCCC;stroke:#FFFFFF;stroke-width:0.5;" d="M47.8,328.8l0.6,1.4l-0.2,0.7l0.9,2.4l-2,0.1l-0.7-1.5
		l-2.5-0.3l2.1-3.1L47.8,328.8z"/>
	<path id="KZ" style="fill:#CCCCCC;stroke:#FFFFFF;stroke-width:0.5;" d="M112.2,286.1l-1.6,0.7l-3.7,2.6l-1.2,2.6l-1,0l-0.8-1.8
		l-3.6-0.1l-0.6-3.1l-1.4,0l0.2-3.8l-3.4-2.8l-4.8,0.3l-3.3,0.6l-2.7-3.5l-2.3-1.5l-4.3-2.8l-0.5-0.4l-7.2,2.4l0.1,14.1l-1.4,0.2
		l-2-2.9l-1.9-1.1l-3.2,0.8l-1.2,1.2l-0.2-0.9l0.7-1.6l-0.5-1.3l-3.2-1.3l-1.3-3.5l-1.5-1l-0.1-1.3l2.7,0.4l0.1-2.9l2.4-0.6l2.4,0.6
		l0.5-3.9l-0.5-2.5l-2.8,0.2l-2.4-1l-3.2,1.8l-2.6,0.9l-1.4-0.7l0.3-2.1l-1.8-2.8l-2.1,0.1l-2.4-2.8l1.6-3.2l-0.8-0.9l2.2-4.8
		l2.9,2.5l0.3-3.2l5.8-4.9l4.4-0.1l6.2,3.1l3.3,1.8l3-1.9l4.4-0.1l3.6,2.3l0.8-1.3l3.9,0.2l0.7-2.1l-4.5-3.1l2.7-2.2l-0.5-1.2
		l2.7-1.2l-2-3.2l1.3-1.6L96,235l1.4-1.2l7-1.8l2.5-2l5,1.1l0.9,5l2.9-1.2l3.6,1.6l-0.2,2.6l2.7-0.3l7-4.5l-1,1.5l3.6,3.7l6.3,11.6
		l1.5-2.3l3.9,2.6l4-1.1l1.5,0.8l1.3,2.5l2,0.8l1.2,1.9l3.6-0.6l1.5,2.6l-2.1,2.8l-2.3,0.4l-0.1,4.2l-1.6,1.9l-5.6-1.4l-2,7.3
		l-1.4,0.9l-5.6,1.6l2.5,6.8l-1.9,1l0.2,2.2l-1.7-0.6l-1.4-1.4l-4.2-0.4l-4.7-0.1l-1,0.4l-4-1.6l-1.6,0.8l-0.4,2.2l-4.6-1.3
		l-1.8,0.5L112.2,286.1z"/>
	<path id="LA" style="fill:#CCCCCC;stroke:#FFFFFF;stroke-width:0.5;" d="M208.3,376.2l0.9-1.3l0.1-2.4l-2.3-2.5l-0.2-2.9l-2.1-2.4
		l-2.1-0.2l-0.6,1l-1.6,0.1l-0.8-0.5l-3,1.7l-0.1-2.6l0.7-3.1l-1.9-0.1l-0.2-1.8l-1.2-0.9l0.6-1.1l2.4-1.9l0.2,0.7l1.5,0.1l-0.4-3.4
		l1.4-0.4l1.6,2.4l1.3,2.7l3.5,0l1.1,2.6l-1.8,0.8l-0.8,1.1l3.4,1.8l2.3,3.5l1.8,2.6l2.1,2l0.7,2l-0.5,2.9l-2.5-1.1l-1.3,2
		L208.3,376.2z"/>
	<path id="LB" style="fill:#CCCCCC;stroke:#FFFFFF;stroke-width:0.5;" d="M13.7,317.9l-0.8,0.1l-0.3,0.6h-0.9l1-2.7l1.4-2.4l0.1-0.1
		l1.3,0.2l0.5,1.3l-1.5,1.3L13.7,317.9z"/>
	<path id="LK" style="fill:#CCCCCC;stroke:#FFFFFF;stroke-width:0.5;" d="M142.6,395.4l-0.4,2.9l-1.2,0.8l-2.4,0.6l-1.3-2.2l-0.5-4
		l1.3-4.6l1.9,1.6l1.3,2L142.6,395.4z"/>
	<path id="MM" style="fill:#CCCCCC;stroke:#FFFFFF;stroke-width:0.5;" d="M192.4,359l-1.6,1.3l-2,0.1l-1.3,3.2l-1.2,0.5l1.4,2.6
		l1.8,2.1l1.1,1.9l-1,2.5l-1,0.5l0.7,1.4l1.9,2.3l0.3,1.6l0,1.3l1.1,2.6l-1.5,2.7l-1.4,2.9l-0.3-2.1l0.9-2.2l-0.9-1.7l0.2-3.1
		l-1.1-1.5l-0.9-3.4l-0.5-3.7l-1.2-2.4l-1.8,1.5l-3.2,2.1l-1.6-0.3l-1.7-0.7l1-3.6l-0.6-2.7l-2.2-3.4l0.3-1.1l-1.6-0.4l-2-2.4
		l-0.2-2.4l1,0.5l0.1-2.1l1.4-0.7l-0.3-1.3l0.6-1l0.1-3.1l2.2,0.7l1.2-2.5l0.2-1.5l1.5-2.6l-0.1-1.8l3.6-2.2l2,0.6l-0.2-1.9l1-0.6
		l-0.2-1.2l1.6-0.2l0.9,1.9l1.2,0.8l0.1,2.4l-0.1,2.6l-2.6,2.6l-0.3,3.6l3-0.5l0.7,2.8l1.8,0.6l-0.8,2.5l2.1,1.1l1.2,0.6l2-0.9
		l0.1,1.2l-2.4,1.9l-0.6,1.1L192.4,359z"/>
	<path id="MN" style="fill:#CCCCCC;stroke:#FFFFFF;stroke-width:0.5;" d="M159.3,257.9l3-0.7l5.3-3.7l4.3-2.1l2.4,1.4l2.9,0.1
		l1.9,2.1l2.8,0.1l4.1,1.1l2.7-3l-1.1-2.6l2.9-4.7l3.1,1.9l2.5,0.5l3.3,1.1l0.5,3.3l4,1.8l2.6-0.8l3.5-0.6l2.8,0.6l2.8,2.1l1.7,2.2
		l2.6,0l3.5,0.7l2.6-1.1l3.7-0.7l4.1-3.1l1.7,0.5l1.5,1.5l3.3-0.4l-1.4,3.2l-2,4.2l0.7,1.7l1.6-0.5l2.8,0.6l2.2-1.5l2.2,1.3l2.5,2.9
		l-0.3,1.5l-2.2-0.5l-4.1,0.5l-2,1.2l-2,2.7l-4.3,1.5l-2.8,2.1l-2.9-0.8l-1.6-0.4l-1.5,2.5l0.9,1.5l0.5,1.3l-2,1.3l-2,2.1l-3.3,1.3
		l-4.2,0.1l-4.5,1.3l-3.3,2l-1.2-1.2h-3.4l-4.1-2.3l-2.8-0.6l-3.7,0.5l-5.8-0.9l-3.1,0.1l-1.6-2.3l-1.3-3.6l-1.7-0.4l-3.4-2.5
		l-3.8-0.5l-3.3-0.7l-1-1.7l1.1-4.7l-1.9-3.3l-4-1.6l-2.4-2.2L159.3,257.9z"/>
	<path id="MY" style="fill:#CCCCCC;stroke:#FFFFFF;stroke-width:0.5;" d="M196.7,399.1l0.2,1.4l1.8-0.3l0.9-1.1l0.6,0.3l1.7,1.7
		l1.2,1.9l0.2,1.9L203,406l0.3,1l0.2,1.6l1,0.8l1.1,2.5l0,0.9l-2,0.2l-2.7-2.1l-3.3-2.2l-0.3-1.4l-1.6-1.9l-0.4-2.3l-1-1.5l0.3-2
		l-0.6-1.2l0.5-0.5L196.7,399.1z M245.8,403.9l-2.1,1l-2.4-0.5h-3.2l-1,3.2l-1.1,1l-1.4,3.9l-2.3,0.6l-2.7-0.8l-1.3,0.2l-1.6,1.4
		l-1.8-0.2l-1.8,0.6l-1.9-1.6l-0.5-1.9l2,1l2.2-0.5l0.6-2.4l1.2-0.5l3.4-0.6l2-2.2l1.4-1.8l1.3,1.5l0.6-1l1.3,0.1l0.2-1.8l0.1-1.4
		l2.2-2l1.4-2.2l1.1,0l1.4,1.4l0.1,1.2l1.8,0.8l2.3,0.8l-0.2,1.1l-1.9,0.1L245.8,403.9z"/>
	<path id="NP" style="fill:#CCCCCC;stroke:#FFFFFF;stroke-width:0.5;" d="M160.3,335.5l-0.2,1.3l0.4,2l-0.3,1.2l-2.3,0l-3.4-0.7
		l-2.2-0.3l-1.6-1.6l-3.8-0.4l-3.7-1.8l-2.6-1.6l-2.7-1.2l1.1-3l1.8-1.5l1.2-0.8l2.2,1l2.8,2.1l1.6,0.5l0.9,1.5l2.2,0.6l2.3,1.4
		l3.2,0.7L160.3,335.5z"/>
	<path id="OM" style="fill:#CCCCCC;stroke:#FFFFFF;stroke-width:0.5;" d="M78.3,356.2l-1,2l-1.3-0.2l-0.6,0.7l-0.5,1.5l0.3,2
		l-0.3,0.4l-1.3,0l-1.8,1.1l-0.3,1.4l-0.6,0.6l-1.7,0l-1.1,0.7l0,1.2l-1.4,0.8l-1.5-0.3l-1.9,1l-1.3,0.2l-0.9-2l-2.2-4.8l8.4-3
		l1.9-6l-1.3-2.1l0.1-1.2l0.8-1.3l0-1.2l1.3-0.6l-0.5-0.4l0.2-2l1.4,0l1.3,2.1l1.6,1.1l2.1,0.4l1.7,0.5l1.3,1.7l0.8,1l1,0.4l0,0.7
		l-1,1.8l-0.5,0.8L78.3,356.2z M71.4,341.6l-0.4,0.6l-0.5-1.1l0.8-1.1l0.3,0.3L71.4,341.6z"/>
	<path id="PH" style="fill:#CCCCCC;stroke:#FFFFFF;stroke-width:0.5;" d="M267.6,392.9l0.3,1.9l0.2,1.6l-1,2.6l-1-2.9l-1.3,1.4
		l0.9,2.1l-0.8,1.3l-3.3-1.6l-0.8-2l0.9-1.3l-1.8-1.3l-0.9,1.2l-1.3-0.1l-2.1,1.6l-0.5-0.8l1.1-2.4l1.8-0.8l1.5-1.1l1,1.3l2.1-0.8
		l0.5-1.3l2-0.1l-0.2-2.2l2.3,1.3l0.2,1.4L267.6,392.9z M260.9,387.6l-1,0.9l-0.9,1.8l-0.9,0.8l-1.7-2l0.6-0.8l0.7-0.8l0.3-1.8
		l1.5-0.2l-0.5,1.9l2.1-2.7L260.9,387.6z M245.5,390.3l-3.7,2.7l1.4-2l2-1.7l1.7-2l1.5-2.8l0.5,2.3l-1.8,1.6L245.5,390.3z M255,383
		l1.7,0.9h1.8l0,1.2l-1.3,1.2l-1.8,0.9l-0.1-1.3l0.2-1.5L255,383z M265.1,382.2l0.8,3.2l-2.2-0.8l0.1,1l0.7,1.8l-1.3,0.6l-0.1-2
		l-0.8-0.1l-0.4-1.7l1.7,0.2l0-1.1l-1.7-2.2l2.7,0.1L265.1,382.2z M254,379.7l-0.7,2.5l-1.2-1.4l-1.4-2.2l2.4,0.1L254,379.7z
		 M253.4,363.9l1.7,0.8l0.9-0.8l0.2,0.8l-0.5,1.2l1,2.1l-0.7,2.4l-1.7,1l-0.4,2.3l0.6,2.3l1.5,0.3l1.2-0.3l3.5,1.6l-0.3,1.6l0.9,0.7
		l-0.3,1.3l-2.2-1.4l-1-1.5l-0.7,1l-1.8-1.7l-2.5,0.4l-1.4-0.6l0.1-1.2l0.9-0.7l-0.8-0.7l-0.4,1l-1.4-1.6l-0.4-1.3l-0.1-2.8l1.1,1
		l0.3-4.5l0.9-2.7L253.4,363.9z"/>
	<path id="PK" style="fill:#CCCCCC;stroke:#FFFFFF;stroke-width:0.5;" d="M119.5,318.6l-0.6-4.8l1.9-1.7l-3-2.6l-1,0l-0.4-1.1
		l3.1-2.3l0.1-0.1l-1.9,0.2l-3,0.7l-1.6,1.5l0.7,1.5l0.3,1.7l-1.4,1.4l0.1,1.3l-0.8,1.2l-2.7-0.1l1.1,2.2l-1.8,0.9l-1.2,2l0.1,2
		l-1.1,0.9l-1-0.3l-2.1,0.4l-0.3,0.9h-2.1l-1.6,1.8l-0.1,2.8l-3.7,1.3l-2-0.3l-0.6,0.7l-1.7-0.4l-2.8,0.5l-4.7-1.6l1.4,1.7l1.1,1.9
		l2.7,1.4l0.1,2.8l1.3,0.5l0.2,1.4l-4,1.6l-1.1,3.6l4-0.4l4.6-0.1l5.2-0.6l2.2,2.3l0.8,2.2l2,0.8l1.9-2l6.2,0l-0.6-2.6l-1.6-1.6
		l-0.3-2.4l-1.8-1.4l3.1-3.3l3.3,0.2l2.9-3.3l1.8-3.3l2.7-3.2l0-2.3l2.4-1.9l-2.3-1.6l0,0l-0.1,0L119.5,318.6z"/>
	<path id="PS" style="fill:#CCCCCC;stroke:#FFFFFF;stroke-width:0.5;" d="M12.9,320.9v2l-0.4,1l-1.3,0.5l0.1-0.9L12,323l-0.7-0.4
		l0.6-2.2L12.9,320.9z"/>
	<path id="QA" style="fill:#CCCCCC;stroke:#FFFFFF;stroke-width:0.5;" d="M55.7,345.2l-0.2-2.2l0.8-1.6L57,341l0.9,1l0,1.8l-0.6,1.8
		l-0.8,0.2L55.7,345.2z"/>
	<path id="RU-asia" style="fill:#CCCCCC;stroke:#FFFFFF;stroke-width:0.5;" d="M311.6,103.6l4,3.8l0.3,2.6l-4.2,0.1l-5.8-1.1
		l-0.5-0.5l2.7-3.9L311.6,103.6z M207.9,51.3l0.8-5.7l-7.1-8.3l-2.1-1l-2.3,1.7l-5.1,18.6L207.9,51.3z M332.6,95l3.2-4.2l-7-2.9
		l-5.2-1.7l-0.7,3.6l5.2,4.3L332.6,95z M418,131.6l3.7-0.5l2.9-2.1l0.2-1.2l-4.1-2.5l-2.4,0l-0.4,0.4l-3.6,3.6l0.5,2.7L418,131.6z
		 M307.5,93.3l10.3,0.3l2.2-8.1l-10.1-6.1l-7.4-0.5l-3.7,2.2l-1.5,7.8l5.5,7L307.5,93.3z M174.9,35.1l4.7,5.7l7.8,4.2l6.1-1.8
		l0.7-13.6l-6.5-16l-5.5-9l-6.1,4.1l-7.3,11.8l3.8,3.3L174.9,35.1z M440.8,162.2l-7.6-1.1l0.7,5.1l-1.9-1.7l0.2-4.4l-7.3-7.3
		l-6.9-5.9l-3.9-3.4l-8.1-3.8l-5.8,0.5l-9-2.3l-1.2,3.6l2.3,5.1l-3.5,2.5l-4.9-7l-5.3,0.9l-5.3-1.6l-5,0.2l-3.8,1.6l-3.5-2.3l0.3-6
		l-2.3-3.5l-5.6-1.4l-11.3,1.6l-7.3-6.6l-2.4-5.4l-25.3-6.1l-3.7,4.1l2,8.4l-4.6-1.2l-2.1,2.5l-5.4-2.7l-4.8,2.4l-4.5-4l-2.7,9.2
		l-4.4-3.5l-3.5-7l1.7-3.8l-1.3-6l-4.5-5.1l-4.5,0.1l-6-1.7l-0.2,7.5l-11.7-1.4l-0.7-4.6l-9-1.6l-4.5,1.6l-1.2,2.6l-1.4-6.4
		l-2.5,1.9l-4.2-2.6l-3.5-1.4l2.1-3.1l7.4-5.9l3.1-3.2l0.7-5.9l-2.2-4.3l-6.3-5.8l-8.2-0.2l-2.6,2.9l-0.8-6l-6.3-1.9l3.8-3.1
		l-4.8-4.2l-6.6,5.3l-2.7,5.3l-0.8,5.2l-5.2-0.2l-6.3,6.2l-2.3-2.6l-7.4,1.1l-0.9,3.1l-7.4,1.5l-5.5,5.5l-3.2,0.3l-3.2,7l2.3,5.4
		l-6.1,1.3l-6.7-0.4l-4.9,2l0.3,10.3l2.5,7.6l-5.2-5.2l-5.8,0.5l-4.7,3.6l1.3,6.4l-3-1.6l1.1-8.7l-1.5-5.2l-1.4,0.2l0.7,6.6l-5,6
		l3.6,7l-2.2,8.3l0.7,4.4l3.1,0.6l-1.3,5.1l1.6,4.3l-2.4,3.5l-0.7,3.6l-3.1,1.8l-1.1,2.5l-3.2-1l5.5-10.2l1.2-5l-3.1-4.7l0.6-11.1
		l-0.9-5.9l-1.7-2.8l2.7-7.3l-0.6-5.2l-7.4-2.5l-2.1,1.9l-1.8,8.4l-5.2,8l0.1,2.7l1.5,6.5L101,143l3.4,0.8l0.1,1.7l2.8,4.1l-1.9,4
		l-1.6-1.4l0.9,7.3l-2,4l-3.8,3.9l-3.9,3.1l-4.8,5.4L85,180l-1.9,20l-1.3,8.8l-1.8,5l-1.8,3.5l-2.2,2.7l-0.6,2.4l2.1,1.8l0.3,2.1
		l-1.7,2.7l-2.6,0.6l-3.1,0.4l1.3,2.4l1.2,1.8l1.8,2.3l1.9-1.5l1.8-1.1l1.9,1.1l0.7,1.8l-1.3,1.4l-1.1,2.2l0.1,2.6l1.9,0.7l0.8,1.9
		l0.3,0.1l2.3-1.9l-0.5-1.2l2.7-1.2l-2-3.2l1.3-1.6l10.5-1.7l1.4-1.2l7-1.8l2.5-2l5,1.1l0.9,5l2.9-1.2l3.6,1.6l-0.2,2.6l2.7-0.3
		l7-4.5l-1,1.5l3.6,3.7l6.3,11.6l1.5-2.3l3.9,2.6l4-1.1l1.5,0.8l1.3,2.5l2,0.9l1.2,1.8l3.6-0.6l1.5,2.6l1.1-0.4l3-0.7l5.3-3.7
		l4.3-2.1l2.4,1.4l2.9,0.1l1.9,2l2.8,0.2l4,1.1l2.7-3l-1.1-2.6l2.9-4.7l3.1,1.9l2.5,0.5l3.3,1.1l0.5,3.3l4,1.8l2.7-0.8l3.5-0.6
		l2.8,0.6l2.8,2.1l1.7,2.2l2.6,0l3.5,0.7l2.6-1.1l3.7-0.7l4.1-3.1l1.7,0.5l1.5,1.5l3.3-0.4l3.4,1.6l4-2.7l0-1.9l2.5-4.7l1.6-1.5
		l0-2.5l-1.5-1.1l2.3-2.3l3.5-0.8l3.7-0.1l4.2,1.4l2.5,1.7l1.7,4.6l1,1.9l1,2.7l1,4.3l4.9,1.4l3.3,3l1.1,4h4.3l2.4-1.6l4.6-1.2
		l-1.5,3.8l-1.1,1.5l-1,4.5l-1.9,3.9l-3.4-0.7l-2.4,1.4l0.7,3.4l-0.4,4.5l-1.4,0.1l0,1.9l0.4,0.7l0.4-1.3l3.8-2.8l1.8,1.9l1.8,0
		l3.7-2.2l1.8-2.3l3.8-4.5l3.8-4.7l0.9-2.8l4.2-6l1.3-6.9l0.2-5.3l2.2-4.5l-0.1-3.9l-4-5.2l-3.1-0.3l-1.8,2.4l-2.7-1l-1.4-3
		l-4.4-0.6l10.8-11.8l9.1-10.3l9.2-1.6l8.6,0.9l3.5-2.7l4.4,0.8l-0.2,3.9l4.3-0.6l6.3-1.4l-2.3-3.4l7-9.6l7.2-2l2.3,7.1l7.1-6.4
		l1.7-4.9l3.4-0.5l-2.2,8.4l-5,4.6l-4.8,5.7l-5,6.8l-4.4,1.2l-0.2,2.4l-2.4,3.1l-1.3,7l1.6,10.6l1.2,6.7l1,3.1l4-4.2l0.8-4.7
		l4.2-1.1l1-5.4l4.9-2.5l-1.2-2.1l1.2-4.1l2.6-0.2l0.4-7.5l-3.2-1.2l-0.1-2.1l3.4-5.2l0.9-3.6l3.8,0.8l2.7-2.4l1.3,2.1l7.3-4.4
		l4,3.9l1-2.6l4.1-3.5l4.3-4.1l2.5-0.7l7.8-4.5l5.2,1.3l0.7-1.6l-0.3-2.5l-1.3-1.7l-1.7-5.2l-2.5-3.4l3.6,0.5l3.6-2.9l0,0l1.6-2.8
		l-1.3-3.2l3.4-1.6l-0.6,2.6l1.5,2.4l3.2-0.9l2.8,1.1l0.6,2.9l3.7,1.9l2.1,2.3l2.6,0.2l1.1-1.4l0.1-6.5l4.6-0.7l2.8-3L440.8,162.2z
		 M318.8,259.2l-2.8-7.7l-1.2-4.5l0.1-4.5l-1-4.5l-0.7-3.1l-1.2,0.7l1.1,2.2l-2.6,2.2l-0.2,6.3l1.6,4.4l-0.1,5.9l-0.7,3.2l0.3,4.5
		l-0.3,4l0.5,3.4l1.8-3.1l2.1,2.4l0.1-2.8L313,264l1.7-6.1L318.8,259.2z"/>
	<path id="SA" style="fill:#CCCCCC;stroke:#FFFFFF;stroke-width:0.5;" d="M33.2,370.2l-0.4-1.2l-0.9-0.9l-0.2-1.2l-1.4-1l-1.5-2.5
		L28,361l-1.9-2l-1.2-0.5l-1.9-2.9l-0.3-2.1l0.1-1.8l-1.6-3.4l-1.3-1.2l-1.5-0.6l-0.9-1.8l0.2-0.7l-0.8-1.6l-0.8-0.7l-1.1-2.3
		l-1.7-2.5l-1.4-2.2l-1.4,0l0.4-1.7l0.1-1.1l0.3-1.3l3.1,0.5l1.2-1l0.7-1.2l2.1-0.4l0.5-1.1l0.9-0.5l-2.8-3.3l5.6-1.6l0.5-0.5
		l3.4,0.9l4.2,2.3l7.9,6.5l5.2,0.3l2.5,0.3l0.7,1.5l2-0.1l1.1,2.7l1.4,0.7l0.5,1.1l1.9,1.3l0.2,1.3l-0.3,1l0.4,1l0.8,0.9l0.4,1
		l0.4,0.8l0.8,0.6l0.8-0.2l0.5,1.2l0.1,0.7l1.1,3.1l8.4,1.5l0.6-0.6l1.3,2.1l-1.9,6l-8.4,3l-8.1,1.1l-2.6,1.3l-2,3.1l-1.3,0.5
		l-0.7-1l-1.1,0.2l-2.7-0.3L40,367l-3.2,0.1l-0.8,0.3l-1.1-0.8l-0.8,1.4l0.3,1.2L33.2,370.2z"/>
	<path id="SY" style="fill:#CCCCCC;stroke:#FFFFFF;stroke-width:0.5;" d="M22,317.6l-5.5,3.5l-3.1-1.3l-0.1,0l0.4-0.5l0-1.4l0.7-1.8
		l1.5-1.3l-0.5-1.3l-1.3-0.2l-0.3-2.6l0.7-1.4l0.8-0.8l0.8-0.8l0.2-1.9l0.9,0.7l3.1-1l1.5,0.6l2.3,0l3.2-1.3l1.5,0.1l3.2-0.5
		l-1.4,2.2l-1.5,0.9l0.3,2.5l-1.1,4.1L22,317.6z"/>
	<path id="TH" style="fill:#CCCCCC;stroke:#FFFFFF;stroke-width:0.5;" d="M200.9,382.2l-2.5-1.3l-2.4,0.1l0.4-2.2l-2.5,0l-0.2,3.1
		l-1.5,4.1l-0.9,2.5l0.2,2.1l1.8,0.1l1.1,2.6l0.5,2.4l1.6,1.6l1.7,0.3l1.5,1.4l-0.9,1.2l-1.9,0.3l-0.2-1.4l-2.3-1.2l-0.5,0.5
		l-1.1-1.1l-0.5-1.4l-1.5-1.6l-1.4-1.3l-0.5,1.6l-0.5-1.6l0.3-1.8l0.8-2.7l1.4-2.9l1.5-2.7l-1.1-2.6l0-1.3l-0.3-1.6l-1.9-2.3
		l-0.7-1.4l1-0.5l1-2.5l-1.1-1.9l-1.8-2.1l-1.4-2.6l1.2-0.5l1.3-3.2l2-0.1l1.6-1.3l1.6-0.7l1.2,0.9l0.2,1.8l1.9,0.1l-0.7,3.1
		l0.1,2.6l3-1.7l0.8,0.5l1.6-0.1l0.6-1l2.1,0.2l2.1,2.4l0.2,2.9l2.3,2.5l-0.1,2.4l-0.9,1.3l-2.6-0.4l-3.6,0.6l-1.8,2.4L200.9,382.2z
		"/>
	<path id="TJ" style="fill:#CCCCCC;stroke:#FFFFFF;stroke-width:0.5;" d="M112.4,293.6l-1,1.1l-3.1-0.6l-0.3,2.1l3-0.3l3.5,1.2
		l5.3-0.6l0.7,3.3l0.9-0.4l1.7,0.8l-0.1,1.4l0.4,2h-2.9l-1.9-0.3l-1.7,1.6l-1.2,0.3l-1,0.7l-1.1-1.2l0.3-2.9l-0.8-0.2l0.3-1.1
		l-1.5-0.8l-1.2,1.2l-0.3,1.4l-0.4,0.5l-1.7-0.1l-0.9,1.6l-1-0.7l-2,1.1l-0.8-0.4l1.6-3.6l-0.6-2.7l-2.1-0.9l0.7-1.6l2.3,0.2l1.3-2
		l0.9-2.4l3.8-0.9l-0.6,1.7l0.4,1L112.4,293.6z"/>
	<path id="TL" style="fill:#CCCCCC;stroke:#FFFFFF;stroke-width:0.5;" d="M263.7,441.2l0.3-0.7l2.4-0.6l2-0.1l0.9-0.3l1.1,0.3
		l-1,0.8l-2.9,1.2l-2.4,0.8l0-0.9L263.7,441.2z"/>
	<path id="TM" style="fill:#CCCCCC;stroke:#FFFFFF;stroke-width:0.5;" d="M84.9,309.9l-0.2-2.9l-2.1-0.1l-3.2-3.1l-2.2-0.4l-3.1-1.8
		l-2-0.3l-1.2,0.7l-1.9-0.1l-2,2l-2.5,0.7l-0.5-2.5l0.4-3.7l-2.2-1.2l0.7-2.5l-1.9-0.2l0.6-3.1l2.6,0.9l2.5-1.2l-2-2.2l-0.8-2.1
		l-2.3,1l-0.3,2.7l-0.9-2.4l1.2-1.2l3.2-0.8l1.9,1.1l2,2.9l1.4-0.2l3.2-0.1l-0.5-1.9l2.4-1.3l2.4-2.2l3.8,2l0.3,3l1.1,0.8l3-0.2
		l0.9,0.7l1.4,3.8l3.2,2.5l1.8,1.7l2.9,1.8l3.7,1.5l-0.1,2.2l-0.8-0.1l-1.3-0.9l-0.4,1.2l-2.4,0.7l-0.6,2.8l-1.6,1.1l-2.2,0.5
		l-0.6,1.5l-2.1,0.5L84.9,309.9z"/>
	<path id="TW" style="fill:#CCCCCC;stroke:#FFFFFF;stroke-width:0.5;" d="M254.7,346.3l-1.7,4.9l-1.2,2.5l-1.5-2.5l-0.3-2.2l1.6-3
		l2.2-2.3l1.3,0.9L254.7,346.3z"/>
	<path id="UZ" style="fill:#CCCCCC;stroke:#FFFFFF;stroke-width:0.5;" d="M99.8,304l0.1-2.2l-3.7-1.5l-2.9-1.8l-1.8-1.7l-3.2-2.5
		l-1.4-3.8l-0.9-0.7l-3,0.2l-1.1-0.8l-0.3-3l-3.8-2l-2.4,2.2l-2.4,1.3l0.5,1.9l-3.2,0.1l-0.1-14.1l7.2-2.4l0.5,0.4l4.3,2.8l2.3,1.5
		l2.7,3.5l3.3-0.6l4.8-0.3l3.4,2.8l-0.2,3.8l1.4,0l0.6,3.1l3.6,0.1l0.8,1.8l1,0l1.2-2.6l3.7-2.6l1.6-0.7l0.8,0.4l-2.3,2.4l2.1,1.4
		l2-0.9l3.3,2l-3.6,2.6l-2.1-0.4l-1.2,0.1l-0.4-1l0.6-1.7l-3.8,0.9l-0.9,2.4l-1.3,2l-2.3-0.2l-0.7,1.6l2.1,0.9l0.6,2.7l-1.6,3.6
		l-2.1-0.7L99.8,304z"/>
	<path id="VN" style="fill:#CCCCCC;stroke:#FFFFFF;stroke-width:0.5;" d="M216.2,354.9l-3.7,2.6l-2.3,2.8l-0.6,2.1l2.1,3.1l2.6,3.8
		l2.5,1.8l1.7,2.3l1.3,5.3l-0.4,5l-2.3,1.9l-3.2,1.8l-2.3,2.4l-3.5,2.6l-1-1.8l0.8-1.9l-2.1-1.6l2.4-1.1l2.9-0.2l-1.2-1.7l4.7-2.2
		l0.3-3.4l-0.6-1.9l0.5-2.9l-0.7-2l-2.1-2l-1.8-2.6l-2.3-3.5l-3.4-1.8l0.8-1.1l1.8-0.8l-1.1-2.6l-3.5,0l-1.3-2.7l-1.6-2.4l1.5-0.7
		l2.2,0l2.7-0.4l2.4-1.6l1.3,1.1l2.6,0.6l-0.5,1.7l1.3,1.2L216.2,354.9z"/>
	<path id="YE" style="fill:#CCCCCC;stroke:#FFFFFF;stroke-width:0.5;" d="M62.2,369.3l-2,0.8l-0.5,1.3l-0.1,1l-2.8,1.2l-4.5,1.4
		l-2.5,2l-1.2,0.2l-0.8-0.2l-1.6,1.2l-1.8,0.5l-2.3,0.1l-0.7,0.2l-0.6,0.8l-0.7,0.2l-0.4,0.7l-1.4-0.1l-0.9,0.4l-1.9-0.1l-0.7-1.7
		l0.1-1.6l-0.5-0.9l-0.5-2.1l-0.8-1.2l0.6-0.1L33,372l0.3-0.6l-0.1-1.3l1.2-0.9l-0.3-1.2l0.8-1.4l1.1,0.8l0.8-0.3L40,367l0.5,0.3
		l2.7,0.3l1.1-0.2l0.7,1l1.3-0.5l2-3.1l2.6-1.3l8.1-1.1l2.2,4.8L62.2,369.3z"/>
</g>
</svg>
