<?xml version="1.0" encoding="utf-8"?>
<!-- Generator: Adobe Illustrator 27.0.1, SVG Export Plug-In . SVG Version: 6.00 Build 0)  -->
<svg version="1.1"
	 id="svg2" xmlns:svg="http://www.w3.org/2000/svg" xmlns:dc="http://purl.org/dc/elements/1.1/" xmlns:cc="http://creativecommons.org/ns#" xmlns:inkscape="http://www.inkscape.org/namespaces/inkscape" xmlns:rdf="http://www.w3.org/1999/02/22-rdf-syntax-ns#" xmlns:sodipodi="http://sodipodi.sourceforge.net/DTD/sodipodi-0.dtd" sodipodi:docname="BlankMap-Caribbean.svg"
	 xmlns="http://www.w3.org/2000/svg" xmlns:xlink="http://www.w3.org/1999/xlink" x="0px" y="0px" viewBox="0 0 895.9 632.9"
	 style="enable-background:new 0 0 895.9 632.9;" xml:space="preserve">
<sodipodi:namedview  bordercolor="#666666" borderopacity="1" gridtolerance="10" guidetolerance="10" id="namedview41" inkscape:current-layer="svg2" inkscape:cx="658.55864" inkscape:cy="288.59595" inkscape:pageopacity="0" inkscape:pageshadow="2" inkscape:window-height="764" inkscape:window-maximized="0" inkscape:window-width="1123" inkscape:window-x="0" inkscape:window-y="0" inkscape:zoom="0.60811183" objecttolerance="10" pagecolor="#ffffff" showgrid="false">
	</sodipodi:namedview>
<path id="bs" style="fill:#E0E0E0;stroke:#FFFFFF;stroke-width:0.5;" d="M397.8,161.2c-0.8,0.2-1.7-0.6-2.6-0.2
	c-0.1,0.1-0.3-0.1-0.4,0c-0.1,0-0.3,0.6-0.2,0.7c0,0,0.1,0,0.2,0c0.3,0.1,0.6,0.2,0.9,0.4c0.4,0.2,1.2-0.4,1.5-0.1
	c0.1,0.1,1.3,0.7,1.5,0.6c0.1-0.1,0.1-0.1,0.2-0.2c0.2-0.2,0.7,0.1,1-0.1c0.1,0,0.4-0.3,0.5-0.4c0.1,0,0.1,0,0.2,0
	c0.1-0.1-0.6-0.2-0.6-0.3c-0.1-0.1-0.2,0-0.3-0.1C399.3,161.3,399,161.2,397.8,161.2L397.8,161.2z M392.5,181.3
	c-0.3,0.3-0.3,0.8-0.5,1.1c0,0-1.3,1-1.4,1.1c-0.2,0.1-0.4,0.1-0.6,0.2c-0.1,0.1-0.2,0.3-0.4,0.4c-0.4,0.2-0.8,0.2-1.2,0.4
	c-0.3,0.1-0.3,0.5-0.5,0.6c-0.2,0.1-0.3,0.3-0.4,0.4c-0.3,0.2-0.8,0.1-1,0.3c-0.3,0.2-0.4,0.6-0.8,0.6c-0.3,0.1-2,0.5-2.2,0.7
	c-0.2,0.2,0.1,1-0.3,1.1c-0.1,0-0.6,0.3-0.6,0.4c0,0,0,0.1,0,0.2c-0.2,0.4-0.9-0.1-0.9,0.9c0,0.3-0.2,0.2-0.3,0.4
	c-0.3,0.3-0.4,0.8-0.6,1.1c-0.2,0.2-0.4,0.2-0.5,0.4c0,0.1,0,0.6,0,0.6c0.2,0.2,0.4,0,0.7-0.1c0.3-0.1,0.7,0,1-0.2
	c0.2-0.1,0.4-0.3,0.5-0.4c0.3-0.2,0.8-0.4,1.1-0.5c0.2-0.1,0.3-0.4,0.4-0.4c0.4-0.2,0.7-0.5,1.1-0.7c0.2-0.1,0.5-0.2,0.7-0.3
	c0.3-0.1,0.4-0.4,0.6-0.5c0.8-0.5,1.3-1,1.9-1.6c0.2-0.2,1.2-0.2,1.5-0.4c0.4-0.3,0.8-0.6,1.2-0.8c0.1-0.1,0.1-0.2,0.2-0.3
	c0.6-0.6,1.1-1.5,1.7-2c0.1-0.1,0-0.3,0.1-0.4c0,0,0.1,0,0.2,0c0.2-0.1,0.6-0.6,0.9-0.8c0.1-0.1,0.3-1.1,0.4-1.1
	c0.2-0.2,0.2-0.7,0.4-1c0-0.1,0.1-3,0.1-3c-0.1-0.2-0.3-1.2-0.4-1.2c-0.3-0.3-0.4-0.7-0.6-1.1c-0.3-0.4-0.9-0.4-1.1-0.6
	c0,0,0-0.1,0-0.2c0,0-0.1,0-0.2,0c0,0-0.2-0.2-0.3-0.3c-0.2-0.2-1.4,0.1-1.6,0.3c-0.2,0.2-0.3,0.4-0.5,0.6c-0.1,0.1-0.3-0.1-0.4,0
	c-0.3,0.3-1.1,0.3-1.6,0.1c-0.2-0.1-0.7-1.5-0.8-1.6c-1-0.6-2.2-1.1-3-1.9c-0.2-0.2,0.2-1.2-0.3-1.4c-0.3-0.1-0.6-0.3-0.9-0.4
	c-0.1,0-0.3,0.1-0.4,0c-0.4-0.2-1-0.4-1.5-0.7c-0.4-0.2-2.2,0.1-2.7-0.1c-0.5-0.2-1.3,0.1-1.8-0.1c-0.1,0-0.5-0.2-0.6-0.1
	c-0.5,0.5,0,1.3,0.3,1.6c0,0,0,0.3,0.1,0.4c0.4,0.4,0.6,1.1,1.1,1.5c0.1,0.1,0.4,0.1,0.5,0.2c0.3,0.1,0.4,0.5,0.7,0.6
	c0.4,0.1,0.9,0.2,1.1,0.4c0.2,0.2,0.3,0.8,0.2,1.1c-0.3,0.7-1.2,0.8-1.8,1.4c-0.4,0.4-0.3,0.9-0.4,1.2c-0.2,0.4-0.8,1.8-1.1,2
	c0,0-0.6,0.6-0.4,0.8c0.3,0.3,1.1-0.1,1.4-0.4c0.2-0.1,0.6-0.2,0.8-0.4c0.4-0.3,0.4-0.6,0.7-0.8c0.6-0.4,0.8-0.4,1.1-1.1
	c0.1-0.1-0.1-0.4,0-0.5c0.1-0.1,0.2-0.4,0.2-0.5c0-0.3,0.7-1.3,1-1.6c0.1-0.1,0.3-0.1,0.4-0.1c0.1,0,0.5-0.4,0.6-0.3
	c0.1,0.1-0.2,1.2,0.5,1.6c0.4,0.2,0.9,0.4,1.3,0.4c0.3,0,2.3-0.1,2.4,0c0.1,0.1,0.3,0.5,0.6,0.4c0.4-0.2,1.7-1.9,1.7-1.9
	c0.1,0-0.1,1-0.2,1.1c-0.5,0.5,0,1.7,0.4,2.1c0,0,0,0.1,0,0.2c0.1,0.1,1.1,0.1,1.1,0.2c0.1,0.1,0.4,0.1,0.5,0.2
	c0.3,0.2,0.7,0.5,0.9,0.7c0,0,0.1,0,0.2,0c0.2,0.1,0.4,0.1,0.5,0.2C392.7,179.8,392.7,180.5,392.5,181.3L392.5,181.3z M405.6,179.1
	c-0.8,0.1-1.6,0-2.4,0c-0.3,0-1.5,0.2-1.6,0.4c0,0.1,0.1,0.2,0,0.3c-0.1,0.1-1-0.8-0.9-1.1c0.1-0.2,0.3-0.3,0.4-0.4
	c0.1-0.1,0.5,0,0.6,0c0.5-0.1,1-0.3,1.5-0.4c0.5-0.2,0.9,0.1,1.3-0.3c0.1-0.1,0.4-0.5,0.7-0.4c0.3,0.2,0.5,0.6,0.8,0.8
	c0.1,0.1,0.4,0.1,0.4,0.2c0.2,0.2-0.1,1-0.2,1C406.3,179.1,406.1,179.1,405.6,179.1L405.6,179.1z M428.5,187.2
	c-0.1-0.3-0.5-0.2-0.6-0.3c-0.1,0,0-0.1-0.1-0.2c-0.5-0.4-1.3-0.3-1.9-0.4c-0.1,0-0.3,0-0.4,0c-0.1,0-0.3-0.2-0.4-0.1
	c-0.5,0.3-0.7,0.8-1.4,0.8c-1,0-0.7-0.9-1.3-1.2c-0.1,0,0-0.1,0-0.2c0,0-0.1,0-0.2,0c-0.3-0.3-0.7-0.4-1-0.6c-0.2-0.2-0.5,0-0.8-0.1
	c-0.5-0.1-1.1-0.5-1.5-0.1c-0.1,0.1-0.3-0.1-0.4,0c-0.2,0.2-0.6,0.5-1,0.5c-0.1,0-1.3,0.2-1.3,0.3c-0.4,0.4-0.1,1,0.2,1.3
	c0.1,0.1,0.1,0.3,0.2,0.4c0.3,0.1,0.6,0.3,1,0.4c0.3,0.1,2.9,0.1,3.2,0c0.2-0.1,2.8-0.6,3-0.4c0.1,0.1,0.6,0.3,0.9,0.4
	c0.4,0.1,0.6,0.7,0.8,0.9c0,0,0.3,0.1,0.3,0.1c0.1,0.1,0.1,0.4,0.3,0.5c0,0,0.1,0,0.2,0c0.3,0.3,0.6,0.5,0.9,0.8
	c0.1,0.1,0.6,0.1,0.7,0.1c0.2,0,0.6,0.1,0.8,0c0.1,0,0.4-0.4,0.4-0.4c0,0,0.3-1.6,0.3-1.7C429,187.8,429.2,188,428.5,187.2
	L428.5,187.2z M419.2,217.7c-0.4-0.1-0.3-0.6-0.4-0.9c-0.1-0.2-0.1-0.8,0-0.9c0.3-0.1,2.1-0.5,2.6-0.3c0.1,0.1,0.3,0.2,0.4,0.3
	c0.7,0.2,1.6-0.3,1.6,0.9c0,0.4-1.1,0.5-1.4,0.6c-0.2,0.1-0.6,0.2-0.8,0.2C420.6,217.6,420.2,217.8,419.2,217.7L419.2,217.7z
	 M417.8,223.4c-0.1,0.3-0.5,0.4-0.5,0.7c-0.1,0.1,0,0.3,0,0.4c-0.1,0.3-0.2,0.2-0.3,0.4c-0.1,0.4,0,0.8-0.3,1.1
	c-0.1,0.2-2.4,1.5-2.7,1.6c-0.4,0.1-1.4,0.1-1.9,0.2c-0.7,0.1-1.3,0.5-2,0.4c-0.6-0.1-1.3-0.1-1.9-0.3c-0.4-0.1-2.4-0.8-2.7-0.8
	c-0.3,0-1.7-0.9-2.1-0.5c-0.1,0.1-0.7,0.2-0.8,0.3c-0.1,0.1,0,0.2-0.1,0.3c-0.3,0.3-0.3,0.2-0.4,0.4c-0.1,0.1-0.6,0.3-0.7,0.4
	c-0.2,0.2-0.3,0.4-0.5,0.6c-0.2,0.2-0.4,0.3-0.6,0.4c-0.5,0.4-0.8,0.9-1.1,1.3c-0.1,0.3-0.9,0.6-1,0.8c0,0.1,0,0.2,0,0.3
	c-0.1,0.3-0.6,0.5-0.7,1c-0.2,0.6,0,1.8-0.2,2.2c-0.1,0.4-0.4,0.5-0.2,0.9c0,0.1,0,0.1,0,0.2c0.2,0.2,0.6,0,0.9,0.1
	c2,0.4,4.5-0.3,6.5-0.5c1.6-0.2,3.7-0.6,5.3-0.4c1,0.2,4.2,0.2,5.1-0.4c0.5-0.3,0.6-1.1,0.8-1.4c0.1-0.1,0.4-0.2,0.4-0.3
	c0.1,0,0.8-1.1,1-1.2c0.3-0.4,0.2-1,0.5-1.4c0.3-0.4,0.2-0.9,0.4-1.3c0.1-0.3,0.7-1.5,0.9-1.7c0,0,0-0.2,0-0.3
	c0.4-0.8,0.5-1.4,0.7-2.1c0.1-0.2-0.1-0.6,0-0.8c0.1-0.2,0.2-0.3,0.2-0.5c0-0.1-0.1-0.2-0.2-0.3c-0.1-0.1,0-0.3-0.1-0.4
	c0,0-0.2,0-0.3,0c0,0-0.7-0.3-0.9-0.2C418.4,222.8,418.3,222.9,417.8,223.4L417.8,223.4z M361.6,167.9c-0.3-0.9,0.1-3.2-0.5-3.8
	c-0.1-0.1,0-0.9-0.2-1.2c-0.2-0.5-0.8-0.8-1.1-1.1c0,0-0.4-0.1-0.5-0.3c0,0-2.6-0.3-3.2-0.9c-0.1-0.1-2.4-0.1-2.7-0.4
	c-0.2-0.2-0.9-1.7-1-1.8c-0.1-0.1-0.2,0-0.3-0.1c-0.1-0.1-0.3-0.4-0.4-0.5c-0.2-0.2-0.1-0.7-0.3-0.9c-0.4-0.4,0.7,0,0.8,0.1
	c0.3,0.2,0.6,0.7,1,0.8c0.3,0.1,2,0.7,2,0.6c0-0.9-0.2-1.5-0.4-2.3c-0.1-0.2,0-0.4-0.1-0.5c-0.1-0.1-0.2-0.2-0.3-0.4
	c-0.1-0.3,0-0.8-0.1-1.1c0,0-0.1,0-0.1,0c0,0-0.1-0.1-0.1-0.1c0-0.1,0-0.2,0-0.3c-0.4-0.6-0.4-1.1-0.8-1.5c-0.2-0.2,0-0.3-0.3-0.5
	c-0.5-0.5-1.4-0.7-1.8-1.1c-0.2-0.2-0.4-0.6-0.6-0.9c-0.1-0.1-0.5-0.3-0.5-0.4c-0.1-0.3-0.2-0.4-0.4-0.6c0-0.1,0-0.3,0-0.4
	c-0.1-0.1-0.2-0.2-0.3-0.3c-0.1-0.3-0.3-0.7-0.4-1c-0.1-0.2,0.1-0.5,0-0.7c-0.1-0.4-0.3-0.9-0.4-1.2c-0.2-0.3,0.1-1-0.1-1.3
	c-0.1-0.3-0.4-1.8-0.4-2c0.2-0.5,0.4-0.9,0.7-1.2c0.2-0.2,1,1.4,1.1,1.7c0.1,0.6,0.6,1,0.9,1.5c0.2,0.3-0.2,0.3,0.2,0.5
	c0.4,0.3,0.7,0.4,1,0.7c0.1,0.1,0,0.3,0,0.4c0.4,0.8-0.1,1.5-0.1,2.2c0,0.1-0.1,0.6,0,0.6c0.3,0.3,0.6,0.9,1.1,1.1
	c0.4,0.2,1.4,0.8,1.8,1.1c0,0,0,0.1,0,0.2c0.1,0.2,0.3,0.2,0.4,0.4c0,0.1,0,0.5,0.1,0.5c0,0,0.1,0,0.2,0c0.1,0,0,0.1,0,0.2
	c0.1,0.3,0.3,0.7,0.4,0.9c0.1,0.1,0,0.2,0,0.3c0.3,1,0,1.1-0.2,2c-0.2,0.8-0.3,2.4,0.1,3.2c0.1,0.1-0.1,0.5,0,0.6
	c0.5,0.5,2.6,1.2,3.4,1.4c0.3,0.1,0.8,0,1,0.2c0.2,0.2,0.8,0.9,1.1,1.2c0.1,0.1,0,0.3,0.1,0.4c0.2,0.4,0-0.1,0.2,0.1
	c0,0,0.1,0.3,0.1,0.4c0.1,0.3,0.9,0.9,1.1,1.1c0.2,0.1,0.3,0.5,0.7,0.7c0.1,0,0.1,0.6,0.2,0.7c0.4,0.8,0.1,1.7-0.2,2.3
	c0,0.1,0,0.3-0.1,0.4C363.2,167.9,362.2,168.4,361.6,167.9L361.6,167.9z M363.2,139.3c-0.4,0.2-2.3,0.4-2.5,0.5
	c-0.2,0.2-0.4,0.6-0.5,0.8c-0.1,0.1-0.5,0.3-0.3,0.5c0.5,0.5,3.9,0.2,4.8-0.1c0,0,0.2,0,0.3,0c0.2-0.2,0.2-0.6,0.4-0.7
	c0.5-0.5-1.6-0.5-1.7-0.6C363.6,139.6,363.6,139.4,363.2,139.3z M333.1,146c-0.4-0.3-0.7-0.9-1.1-1.2c-0.3-0.2-0.5-0.2-0.8-0.4
	c-0.4-0.3-0.9-0.2-1.4-0.4c-0.1,0-0.3-0.3-0.4-0.3c-0.3-0.1-0.1,0.2-0.4-0.1c-0.1-0.1-0.5-0.1-0.7-0.3c-0.3-0.2-0.4-0.4-0.7-0.5
	c-0.4-0.2-1-1.4-1.3-1.7c0,0-0.1-0.7-0.1-0.8c0-0.3,0.7-0.6,0.8-0.5c0.6,0.3,1.1,0.3,1.6,0.6c0,0,0.9,1.1,1,1.1c0.1,0.1,0,0.4,0,0.4
	c0,0,0.1,0,0.1,0c0,0,0.1,0.1,0.1,0.1c0.2,0.4,0.6,1.2,1,1.4c0.1,0.1,0.4,0,0.5,0.2c0.1,0.1,0.3,0.4,0.5,0.5c0.1,0,0.2,0,0.3,0
	c0.1,0.1,0.4,0.5,0.5,0.6c0.3,0.2,0.7,0.4,0.9,0.6C333.5,145.5,333.5,145.9,333.1,146L333.1,146z M341.1,147.9
	c-0.3-0.3-0.7-0.4-1-0.6c0,0-1.8,0.1-1.9,0.1c-0.1,0.1-0.1,0.6-0.1,0.7c0.2,0.6,0.6,0.3,0.9,0.5c0.1,0.1,0.4,0.4,0.5,0.5
	c0.1,0.1,0.1,0.4,0.2,0.4c0.2,0.2,0.5,0.3,0.6,0.4c0,0,0.6,0.1,0.6,0.1c0.3-0.2,0.2-0.3,0.4-0.5
	C341.8,148.6,341.3,148.9,341.1,147.9L341.1,147.9z M311.6,120.1c-0.2-0.3-0.3-0.7-0.4-1.1c-0.1-0.2-0.3-0.3-0.4-0.4
	c-0.2-0.5-0.4-0.9-0.8-1.2c-0.2-0.2,0.4-0.7,0.5-0.5c0.2,0.2,0.1,0.6,0.4,0.8c0.4,0.4,0.8,0.5,1.1,0.7c0.1,0.1,0,0.2,0.1,0.3
	c0.2,0.3,0.6,0.6,0.8,0.8c0.2,0.2-0.1,1-0.2,1.2c0,0.1-0.4,0.2-0.3,0.2c0.1,0,0.2,0,0.2,0C312.4,120.6,312.3,120.7,311.6,120.1z
	 M316.1,127.3c-0.1-0.5-0.3-1-0.5-1.4c0-0.1-0.7-0.7-0.8-0.8c-0.1,0-0.2-0.1-0.3-0.1c0,0,0-0.2,0-0.3c-0.1-0.1-0.7-1.3,0-0.9
	c0.1,0.1,0.4,0.1,0.4,0.2c0.1,0.1,0,0.2,0.1,0.3c0.1,0.1,0.4,0.3,0.5,0.4c0.2,0.2,0.1,1,0.2,1.3c0.1,0.3,0.4,0.6,0.6,0.8
	c0.3,0.3,0.4,0.8,0.3,0.8C316.5,127.7,316.3,127.7,316.1,127.3L316.1,127.3z M374.4,131.5c-0.4,0-0.6-0.2-0.8-0.4
	c-0.1-0.1,0-1.3,0.1-1.5c0-0.1,0.1-0.1,0.2-0.2c0.2-0.4-0.2-0.9-0.1-1.2c0.1-0.3,0.9-2.6,0.9-2.7c0.1-0.1,0.2-0.1,0.3-0.2
	c0.2-0.2,0.8,0.1,1,0.1c0.2,0,0.8,0,0.9,0.1c0.3,0.3,0,3.1-0.1,3.4c-0.1,0.2-0.3,1.1-0.4,1.1c-0.2,0.2,0-0.3-0.2,0.1
	c0,0.1,0,0.4-0.1,0.4c-0.1,0.1-0.4,0.2-0.4,0.3c-0.1,0.1-0.1,0.3-0.2,0.4c-0.2,0.2-0.5,0-0.6,0.2c-0.1,0.1,0.1,0.5,0,0.4
	S374.8,131.7,374.4,131.5L374.4,131.5z M349.3,124.3c-0.8,0.2-1.6,0.2-2.3,0.4c-0.4,0.1-0.9,0.2-1.2,0.1c-0.5-0.2-1.3,0-1.8,0
	c-0.1,0-0.6,0.1-0.7,0c0,0-0.3-1.6-0.3-1.6c0.3-0.3,2.3-1.1,2-1.6c-0.3-0.5-0.9-0.8-1.1-1.2c0-0.1,0-0.3,0-0.4
	c-0.3-0.6,0-1.2-0.2-1.9c-0.2-0.6-0.4-1.1-0.6-1.5c-0.1-0.1,0-0.2,0-0.4c-0.1-0.3-0.1,0-0.2-0.1c-0.1-0.1-0.1-0.4-0.1-0.4
	c0,0-0.6-0.7-0.6-0.8c0-0.1,0-0.3,0-0.4c-0.1-0.2-0.7-0.6-0.8-0.9c-0.2-0.3,0-2.2-0.2-2.3c-0.3-0.3-0.5-0.4-0.8-0.7c0,0,0-0.2,0-0.3
	c-0.1-0.1-0.2-0.2-0.4-0.4c-0.1-0.1-1-0.7-1.1-0.7c-0.1,0-0.2,0-0.3,0c-0.1,0-0.3-0.4-0.4-0.4c-0.1,0-0.1,0-0.2,0s0-0.1,0-0.2
	c0-0.1-0.2-0.2-0.3-0.3c-0.1-0.3-0.2-0.6-0.4-1c-0.1-0.3-0.5-0.5-0.6-0.7c-0.1-0.1,0-0.3-0.1-0.4c-0.1-0.2-0.2,0-0.2-0.2
	c0-0.3-1.2-0.7-0.9-1.1c1.6-1.6,2.6-0.1,3.3,1.3c0.1,0.2,0.1,0.5,0.2,0.6c0.2,0.2,0.4,0.5,0.6,0.9c0.1,0.1,0,0.4,0.1,0.5
	c0.1,0.1,0.2,0.1,0.4,0.4c0.2,0.3,0.1,1,0.3,1.2c0,0.1,0.1-0.1,0.2,0.1c0,0.1,0,0.2,0,0.3c0.3,0.3,0.5,1.6,0.8,2.1
	c0.1,0.1,0.3,0.2,0.4,0.3c0.1,0.1,0.3,0.6,0.4,0.8c0.1,0.1,0.6,0.7,0.7,0.7c0.1,0,0.2-0.1,0.2,0c0.3,0.5,0.3,0.4,0.7,0.8
	c0.1,0.1,0.2,0.4,0.3,0.5c0.2,0.2,0.4,0.3,0.5,0.5c0,0.1,0,0.2,0,0.3c0.1,0.2,0.4,0.4,0.5,0.5c0.3,0.5,0.7,1.3,1.1,1.9
	c0.1,0.2,0.5,0.4,0.6,0.6c0.1,0.2,0.4,1,0.5,1.1c0,0,0.2,0,0.3,0c0.6,0.6,1.3,1.5,1.8,2.5C349.8,123.3,349.7,124,349.3,124.3
	L349.3,124.3z M304,79.3c-0.3,0.2-0.2,0.6-0.4,0.9c-0.1,0.1-0.3,0-0.4,0.1c-0.4,0.4-0.9,0.4-0.9,1.1c0,0,0,0.2,0,0.3
	c0.2,0.2,0.7-0.5,0.9-0.6c0.3-0.2,1.5-1.4,1.3-1.6C304.2,79.1,304.4,79.5,304,79.3L304,79.3z M323.6,92.9c0.3-0.7,0.3-1.5,0-2.4
	c-0.1-0.2-0.3-0.3-0.4-0.6c-0.1-0.3,0-0.9-0.4-1.1c-0.4-0.2-0.9-0.5-1.1-0.7c-0.2-0.2-0.8,0-1-0.1c-0.6-0.4-1.8-1.2-2.2-1.7
	c-0.1-0.1-0.1-0.3-0.3-0.5c-0.1-0.1-0.3-0.2-0.4-0.4c-0.2-0.4-0.2-1.7-0.4-2c-0.3-0.3-0.8-0.7-1.1-1c-0.1-0.1-0.5-0.1-0.6-0.2
	c-0.2-0.2-0.9-0.5-1.2-0.6c-0.1,0-0.2,0-0.3,0c-0.2-0.2-0.4-0.4-0.5-0.5c-0.2-0.2-0.6-0.1-0.7-0.3c-0.3-0.3-0.5-0.5-0.9-0.9
	c-0.2-0.2-0.7-0.2-0.9-0.3c-0.2-0.1-0.5-0.5-0.7-0.6c-0.3-0.2-0.7-0.2-1-0.4c-0.2-0.2-1.3-0.8-1.6-0.9c-0.2-0.1-0.6,0-0.8,0
	c-0.5,0-0.6-0.5-0.9-0.9c-0.1-0.1-0.4-0.5-0.4-0.5c-0.3-0.8-0.2-1.8,0-2.6c0-0.1,0.2-0.1,0.2-0.2c0-0.1,0-0.4,0.2-0.5
	c0,0,0.1,0,0.2,0c0.1,0,0-0.1,0-0.2c0.1-0.1,0.3-0.2,0.4-0.3c0.5-0.3,0.8,0.5,1,0.8c0,0.1,0.1,0,0.2,0.1c0.1,0.2-0.1,0.4,0,0.6
	c0.1,0.3,0.2,0.5,0.3,0.8c0.1,0.3-0.2,1.3,0,1.5c0.2,0.2,1.2,0.5,1.3,0.7c0,0,0,0.1,0,0.2c0.1,0.2,1,0.3,1.2,0.4
	c0.3,0.1,0.5,0.4,0.7,0.6c0.3,0.3,0.1-0.1,0.4,0.1c0,0,0.3,0.3,0.4,0.4c0.2,0.1,0.5,0.1,0.7,0.2c0.5,0.2,1.3,1.2,1.7,1.5
	c0.1,0.1,0.5,0.2,0.5,0.3c0,0.1,0.2,0.4,0.3,0.4c0.4,0.2,0.8,0.3,1.2,0.5c0.4,0.2-0.1,0,0.1,0.2c0.1,0.1,1.6,0.9,1.7,0.9
	c0.1,0,1.8,0.6,1.9,0.6c0.1,0.1,0.4,0.3,0.5,0.4c0.1,0.1,0.1,0.5,0.3,0.6c0,0,0.2,0.1,0.3,0.2c0.1,0.2,0.1,0.5,0.2,0.7
	c0.2,0.4,0.5,0.8,0.8,1.1c0,0,0.1,0.3,0.1,0.3c0.1,0,0.4,0,0.4,0.1c0.5,0.5,1.1,1,1.6,1.5c0,0,0,0.1,0,0.2c0.5,0.5,0,1.2,0.3,1.9
	c0.1,0.3,0.1,0.5,0.2,0.8c0.1,0.3,0.4,0.6,0.5,0.8c0.1,0.1,0.1,1.9,0.1,2c-0.2,0.7-0.3,1.3-0.4,1.9c0,0.1,0,0.3,0,0.4
	c-0.4,0.8-0.9,1.9-1.1,3c-0.1,0.3,0.1,0.7,0,1c-0.2,0.7-0.4,1.2-0.6,1.9c-0.1,0.2,0.1,0.6,0,0.8c-0.1,0.3-0.4,1.5-0.4,1.6
	c0,0-0.8-0.7-1-0.8c-0.1-0.1-0.4-0.4-0.6-0.5c-0.3-0.2-0.8-0.3-1.1-0.5c-0.6-0.4-1.1-1.4-1.7-1.8c-0.1-0.1-0.8-0.7-0.6-0.9
	c0.6-0.6,1.6-0.5,2.4-1.1c0.5-0.3,1.2-1.2,1.5-1.7c0.2-0.3,0-1.3,0.3-1.5c0.4-0.4,0.5-0.8,0.9-1.1c0.1-0.1,0.5-0.3,0.5-0.4
	C323.4,93.8,323.4,93.5,323.6,92.9L323.6,92.9z M285.9,89c-1.1,0-2.3,0-3.4,0c-0.7,0-0.7,0.1-0.9,0.7c0,0.1,0,0.1,0,0.2
	c-0.4,0.4-1.1,0-1.3,0.4c0,0.1-0.2,0.5-0.1,0.6c0.1,0.1,1.8,0.9,1.9,0.9c0.3,0,2.4,0.4,2.7,0.3c0.3-0.1,0.7-0.5,1-0.4
	c0.4,0.2,1.7,0.3,1.9,0.5c0,0,0,0.2,0,0.3c0,0,0.7,0.2,0.8,0.1c0.3-0.3-0.3-0.7-0.4-0.8c-0.1-0.3-0.2-0.7-0.4-0.9
	c-0.2-0.2-0.4-0.2-0.5-0.4c-0.2-0.2,0-0.7-0.2-0.9C286.9,89.6,286.7,89.6,285.9,89z M273,113.5c-0.5-0.1-0.9,0.1-1.1,0.4
	c-0.1,0.1-0.4,0.2-0.4,0.4c-0.1,0.2,0.3-0.1-0.1,0.3c0,0-0.1,0-0.2,0s0,0.1,0,0.2c0,0.5,0.3,0.3,0.6,0.2c0.2-0.1,0.2,0,0.4-0.1
	c0.2-0.2,1.6,0.4,1.9-0.2C274.2,114.2,273.7,113.6,273,113.5L273,113.5z M266.7,119.8c-0.1-0.1-0.7,0.2-0.7,0.2
	c-0.1-0.1,0-0.5-0.1-0.5c-0.6-0.6,0.8-1.3,1.2-1.5c0,0,1-0.5,1-0.3C268.1,118.3,268,119.3,266.7,119.8L266.7,119.8z M274.4,116.2
	c-0.3,0.2-1.5,0.2-1.6,0.6c-0.1,0.3,0.1-0.1,0,0.3c-0.2,0.3-0.4,0.5-0.6,0.8c-0.2,0.3-0.2,0.7-0.4,1c-0.2,0.3-1.3,0.7-1.7,0.9
	c-0.3,0.2-0.5,0.5-0.7,0.8c-0.1,0.1-0.1,0.3-0.2,0.4c0,0-0.1,0-0.1,0c0,0,0,0.1,0,0.1c0,0.1-0.1,0-0.2,0.1c-0.1,0.1-0.4,0.7-0.5,0.9
	c0,0.1,0,0.2,0,0.3c-0.1,0.4-0.2,0.9,0,1.3c0,0.1,0.1,0.2,0.2,0.3c0,0.1,0,0.2,0,0.3c0.1,0.3,0.2,0.6,0.4,0.9
	c0.1,0.3,0.2,0.7,0.2,1.1c0,0.1,0.1,0.2,0.1,0.3c0.1,0.4,0.2,0.7,0.3,1c0.1,0.3-0.1,0.6,0,0.9c0,0.2,0.1,0.3,0.2,0.5
	c0.1,0.2,0,0.4,0,0.6c0.1,0.2,0.3,0.4,0.4,0.6c0.1,0.3,0.2,0.6,0.4,0.8c0.1,0.2,0.4,0.4,0.5,0.6c0.1,0.1,0.1,0.3,0.2,0.3
	c0,0,0.1,0,0.1,0c0.1,0.1,0,0.2,0.1,0.3c0.2,0.2,0.4,0.4,0.6,0.6c0,0,0.2,0.5,0.3,0.6c0,0,1.1-0.2,1.2-0.2l0.4,0
	c0.4-0.1,0.6-0.3,0.8-0.5c0,0,0.1,0,0.2,0c0.1-0.1,0.1-0.2,0.2-0.3c0.1,0,0.1,0,0.2,0c0,0,0-0.1,0-0.2c0,0,0.2,0,0.3,0
	c0,0,0.4-0.3,0.5-0.2c0.9,0.9-1.6,3.1-1.1,3.6c0.1,0.1,0.4,0,0.5,0.1c0.9,0.3,1.4-0.3,2.1-0.6c0.1,0,0.1,0,0.2,0s0-0.1,0-0.2
	c0.1-0.1,0.4-0.1,0.4-0.3c0.1-0.3,0.1-0.3,0.3-0.5c0-0.1,0-0.3,0-0.4c0.1-0.1,0.2-0.2,0.3-0.4c0.2-0.4,0.3-1.2,0.5-1.4
	c0.1-0.1,0-0.3,0-0.4c0.1-0.2,0.1-0.2,0.3-0.4c0,0,0.1-0.4,0.1-0.4c0.1-0.3-0.5-1.7-0.3-2.2c0.2-0.4,0.2-1.3,0.2-1.9
	c0-0.6,0.3-1.3,0.1-1.9c-0.2-0.6-0.3-1.3-0.5-1.9c0-0.1-0.2-0.1-0.3-0.3c-0.2-0.4,0.1-0.1,0-0.4c-0.1-0.4-0.3-0.8-0.5-1.1
	c-0.2-0.3,0-1.2-0.2-1.3c-0.4-0.4-1.7-1.1-2.5-0.3c-0.2,0.2-0.1,2.1-0.4,2.4c-0.1,0.1-0.1,0-0.3,0.1c-0.1,0,0,0.2-0.1,0.3
	c0,0.1-0.1,0-0.2,0c-0.3,0.3-0.6,0.1-0.8-0.2c-0.1-0.1-0.4-0.1-0.5-0.4c-0.1-0.1,0-0.6,0-0.7c0-0.1-0.1-0.6,0-0.6
	c0.7-0.7,2.4-0.8,2.8-1.7c0.1-0.2-0.2-1.5-0.2-1.5c-0.1-0.1-0.6-0.4-0.6-0.5C275.4,116.7,274.7,116.3,274.4,116.2L274.4,116.2z
	 M272.3,110.5c-0.5,0.1-1,0.5-1.6,0.7c-0.3,0.1,0,0.1-0.1,0.2c-0.2,0.2-0.6,0.4-0.8,0.7c-0.1,0.2-0.2,0.6-0.4,0.7
	c-0.1,0.1-0.2,0-0.3,0.1c0,0-0.1,0.2-0.1,0.3c-0.6,0.6-1.3,1-2.3,1.5c-0.2,0.1-0.6,0.1-0.7,0.3c-0.1,0.1-0.1,0.2-0.3,0.3
	c-0.2,0.1-0.9,0.5-1.1,0.7c-0.2,0.2-0.1,0.5-0.3,0.6c0,0-0.3,0-0.3,0c-0.3-0.3-0.1-1.1-0.2-1.5c-0.1-0.3-0.7-1.6-1-1.9
	c-0.7-0.7-1.4-0.8-1.9-1.4c-0.1-0.1-0.5-0.1-0.6-0.3c-0.9-0.9-1.8-1.3-2.9-2c-0.3-0.2-0.3-0.6-0.6-0.8c-0.6-0.3-1.3-0.9-1.8-1.4
	c-0.2-0.2-1-0.6-1.2-0.7c-0.1,0-0.2,0.1-0.3,0c0,0-0.1-0.2-0.2-0.3c-0.3-0.2-0.1,0.1-0.3,0c-0.3-0.2-1-0.3-1.1-0.5
	c-0.3-0.3-0.7-1.6-0.4-2.2c0.1-0.2,0.5-0.9,0.6-1c0.2-0.1,0.2,0,0.3-0.1c0,0,0-0.1,0-0.2c0.2-0.2,0.4-0.5,0.6-0.7
	c0.3-0.3,0.9-0.4,1.2-0.7c0,0,0.6-0.6,0.8-0.4c0.1,0.1,0,0.6,0.1,0.7c0.2,0.2,0.4,0.3,0.6,0.4c0.1,0.1-0.7,2.3-0.1,2.9
	c0.1,0.1,0.4,0.1,0.6,0.2c0,0,0.3,0.3,0.4,0.4c0.2,0.1,1.2,0.3,1.4,0.3c0.2-0.1,0.3-0.3,0.4-0.4c0.1,0,0.1,0,0.2,0
	c0.1-0.1,0.1-0.7,0-0.8c-0.2-0.4,0.1-0.9-0.1-1.2c-0.2-0.3-0.7-1.6-1-1.7c-0.8-0.4-2.7-0.2-3-0.9c-0.2-0.4,0.6-1,0.8-1.2
	c0.6-0.6,1.3-1,1.7-1.3c0,0,0.1,0,0.2,0c0,0,0.1-0.3,0.1-0.4c0.1-0.1,0.2,0,0.3-0.1c0.2-0.1,1.4-1.4,1.5-1.7
	c0.1-0.3,0.2-0.6,0.4-0.8c0.2-0.2-0.1-0.7,0-0.9c0.2-0.4,0.3-0.7,0.4-1.1c0.1-0.3-0.1-0.9,0-1.1c0.1-0.2,0.2-0.4,0.3-0.6
	c0.1-0.1,0.3-0.2,0.4-0.4c0-0.1,0.3-1.7,0.3-1.8c-0.2-0.5-0.3-0.9-0.4-1.4c-0.1-0.2-0.1-1.3-0.2-1.3c-0.2-0.2-1.4-1.9-0.8-2.5
	c0.1-0.1,0.3-0.1,0.4-0.2c0.2-0.2,1.2,0,1.4,0c0.6,0,1.1,0.7,1.6,1c0.8,0.4,1.9,0.1,2.8,0.3c0.4,0.1,1,0.2,1.2,0.2
	c0.1,0,0.1,0.1,0.2,0.2c0.5,1,0.1,0.6,0.1,1.4c0,0.2-0.5,1.8-0.6,2c-0.1,0.2,0,0.8,0,1c0,1.6-0.1,3,0.6,4.4c0.2,0.3,0.6,0.4,0.7,0.7
	c0.1,0.3,0.3,0.7,0.5,1c0,0,0.1,0,0.2,0c0.2,0.1,0.4,0.3,0.5,0.4c0.3,0.2,0.5,1.1,0.6,1.2c0.1,0.1,0.2,0,0.3,0.2
	c0.1,0.4,0.4,0.6,0.7,0.8c0,0,0,0.2,0,0.3c0,0.1,0.2,0.3,0.3,0.4c0.3,0.4,1.6,1.6,2,1.8c0.2,0.1,0.4,0.5,0.5,0.6
	c0.2,0.1,0.4,0.2,0.5,0.3c0.1,0.1,0.3,1,0.4,1.2c0.1,0.2-0.1,0.6-0.1,0.9c0,0.5,0.2,1.1,0.1,1.6c-0.2,0.7-0.4,2-0.8,2.4
	c-0.2,0.2,0,0.9-0.2,1.1C273.4,109,273,109.9,272.3,110.5L272.3,110.5z M272.2,66.8c0.4,0.3-0.2-0.2-0.2-0.3c-0.1-0.1,0-0.4,0-0.6
	c0-0.1-0.1-0.2-0.2-0.3c0,0,0-0.1,0-0.1c0,0-0.1,0-0.1,0c-0.1-0.1-0.2-0.2-0.3-0.3c-0.1-0.1-0.9-0.2-0.9-0.3
	c-0.1-0.1-0.2-0.3-0.3-0.4c-0.1-0.1,0,0.1-0.1,0c-0.2-0.3,0.6-0.7,0.9-0.7c0.4,0,0.8,0,1.1,0.1c0.1,0.1,0.2,0.5,0.2,0.6
	c0.1,0.2,0.2,0.4,0.3,0.6c0,0,0,0.2,0,0.2c0.1,0.1,0.4,0.5,0.3,0.7c-0.1,0.1-0.1,0.2-0.1,0.3C272.6,66.6,272.5,66.7,272.2,66.8z
	 M291.8,61.3c-1-0.6-3.7-1.1-4.2-2.1c-0.2-0.3-0.2-0.7-0.3-1.1c0-0.2-0.1,0-0.2-0.1c-0.1-0.1,0-0.5-0.1-0.6c-0.2-0.2,0,0.3-0.2-0.1
	c-0.1-0.1-0.1-0.8,0-0.9c0.1-0.1,1.8-0.9,2-1.1c0.6-0.3,1.2-1.1,1.4-1.8c0-0.1-0.1-0.2,0-0.4c0-0.1,0.3-0.4,0.4-0.5
	c0-0.1,0-0.2,0-0.4c0.1-0.2,0.2-0.3,0.3-0.4c0,0,0-0.2,0-0.3c0.3-0.5,0.6-1.7,0.9-1.9c0.1-0.1-0.1-0.2,0-0.4
	c0.1-0.1,0.3-0.3,0.4-0.5c0.1-0.3,0.1-0.6,0.2-0.9c0.1-0.2,0.2-0.4,0.3-0.5c0.3-0.9-0.2-2.2,0.3-3.1c0.2-0.3-0.1-0.9,0.1-1.2
	c0-0.1,0.2,0,0.3-0.1c0.3-0.6,0.8-1.4,1.3-1.9c0.1-0.1,0-0.3,0-0.4c0.2-0.3,0.3-0.2,0.3-0.6c0-0.3-0.2-2-0.4-2.1
	c-0.4-0.4-0.9-0.7-1.6-0.9c-0.4-0.1-0.9,0-1.3-0.2c-0.5-0.2-0.8-0.5-1.1-0.7c-0.2-0.1-0.4-0.7-0.6-0.9c-0.9-0.9-1.3-0.9-1.9-1.9
	c-0.1-0.2-0.3-0.3-0.4-0.5c-0.1-0.3-0.1-0.7-0.2-1c-0.1-0.3-0.7-0.9-0.9-1.1c-0.1-0.2,0-0.5-0.2-0.6c0,0-0.1,0-0.2,0
	c-0.1-0.1-0.2-0.4-0.4-0.5c-0.1-0.1-0.2,0-0.3-0.1c-0.1-0.2-0.1-0.3-0.2-0.4c0,0-0.3-0.1-0.3-0.1c0,0-0.1-0.2-0.1-0.3
	c-0.1-0.1-0.4,0-0.5-0.1c-0.7-0.7-2.3-0.7-3.4-1.1c-0.4-0.1-1,0.1-1.4,0c-1-0.3-1.8-0.4-2.6-0.9c-0.8-0.5-1.4-0.6-2.3-0.9
	c-0.7-0.2-2.8,0.2-3.2-0.2c-0.2-0.2,0-0.6,0.3-0.7c0.6-0.3,1.6-0.5,2.6-0.3c0.4,0.1,1.2-0.2,1.7-0.1c0.6,0.1,1.1,0.2,1.7,0.4
	c0.5,0.1,2.8,0.1,3,0.3c0.4,0.4,1.4,0.6,1.8,1c0,0,0.2,0,0.3,0c0.3,0.3,0.8,0.7,1.2,1.1c0,0,0.4,0.1,0.4,0.1
	c0.2,0.1,0.3,0.3,0.4,0.4c0.1,0.1,0.2,0,0.4,0.1c0.1,0,1,1,1.1,1.1c0,0.1,0,0.1,0,0.2c0.1,0,0.2-0.1,0.3,0c0.1,0.1,0.2,0.2,0.3,0.4
	c0,0,0,0.3,0.1,0.4c0.2,0.2,0.9,0.7,1.1,1.1c0,0.1,0,0.1,0,0.2c0.1,0.2,0.2,0.1,0.4,0.2c0,0,0.3,0.5,0.4,0.5
	c0.4,0.4,0.5,0.4,0.8,0.9c0,0,1.9,1.7,2.1,1.9c0,0,0,0.1,0,0.2c0.1,0.1,0.8,0.5,0.9,0.5c0.3,0.3,0.8,0.8,1.1,1.1
	c0.3,0.3,0.7,0.4,0.9,0.6c0.1,0.1,0.7,0.1,0.8,0.1c0.1,0,1.7,0.7,1.8,0.8c0.1,0.1,0.1,0.4,0.2,0.5c0.2,0.4,0-0.1,0.2,0.1
	c0.1,0.1,0,0.3,0.1,0.4c0.4,0.4,0.5,1,0.9,1.4c0.3,0.3,1.4-0.8,1.6-1.1c0.2-0.2,0.3-0.7,0.4-0.8c0.1,0,0.5-0.4,0.6-0.3
	c0.1,0.1-0.3,0.6-0.3,0.8c0,0-0.5,1-0.6,1.1c-0.3,0.5-0.2,1-0.4,1.4c-0.2,0.4-0.7,0.5-0.9,0.9c-0.4,0.8-0.4,4.3-0.6,4.6
	c-0.1,0.1-0.7,0.5-1.1,0.6c-0.2,0.1-0.5-0.1-0.7,0.1c-0.4,0.3-0.4,0.4-0.8,0.6c-0.2,0.1-0.5,0.5-0.6,0.6c-0.1,0-0.1,0-0.2,0
	c0,0-0.1,0.3-0.1,0.4c-0.1,0.2-0.4,0.2-0.5,0.4c-0.1,0.1,0,0.3-0.1,0.4c0,0-0.2,0.1-0.3,0.3c-0.2,0.7-0.3,1.1-0.5,1.8
	c-0.1,0.2,0,0.4,0,0.6c0,0.1-0.1,0.1-0.2,0.2c-0.2,0.4-0.2,0.8-0.4,1.2c-0.1,0.2-0.1,0.7-0.2,0.9c-0.1,0.2,0,0.3,0.1,0.4
	c0.1,0.3-0.1,0.7,0,1c0.2,0.3,0.4,0.8,0.4,1.1c0,0.4,0.1,0.1,0.2,0.4c0.2,0.8,0,2.7-0.4,3.2C292.5,61.5,292.9,62,291.8,61.3
	L291.8,61.3z M282.2,47.3c-0.2-0.1-0.2-0.3-0.3-0.5c-0.1-0.2-0.3-0.1-0.4-0.2c-0.1-0.1-0.5-1-0.3-1.2c0.1-0.1,0.6-0.5,0.7-0.4
	c0.2,0.2,0.9,2.4,0.8,2.5C282.8,47.5,282.4,47.7,282.2,47.3L282.2,47.3z M270,30.6c-0.6,0.2-1.2,0.4-1.8,0.5c-0.2,0.1-0.6-0.1-0.8,0
	c-0.1,0.1-0.1,0.1-0.2,0.2c0,0-2.7,0.3-2.9,0.3c-0.4-0.1-1.6-0.3-2-0.1c-0.1,0.1-0.6,0-0.7,0.1c-0.5,0.5-2.2,0.5-2.9,0.2
	c-0.4-0.2-1.6,0.1-2.2-0.3c-0.1-0.1-0.3,0.1-0.4,0c-0.3-0.2-0.8-0.6-1.2-0.8c-0.1-0.2-0.4,0-0.5-0.1c-0.1,0,0-0.1-0.1-0.2
	c-0.1-0.1-1-0.3-1.1-0.4c-0.2-0.1-0.8,0-1,0.1c-0.1,0.1-0.1,0.2-0.3,0.3c-0.4,0.1-1.7,0.9-1.9,1.1c-0.1,0.1,0.1,0.4,0,0.4
	c-0.6,0.6-0.4,1.7-0.9,2.2c-0.1,0.1-0.1,0.4-0.2,0.5c0,0-1.3,0.5-1.6,0.6c-0.3,0.2-1.3,0-1.6-0.1c-0.2,0-0.5,0.1-0.7,0
	c-0.9-0.2-1.6-0.6-2-1.4c-0.1-0.1-0.3-0.2-0.4-0.4c-0.1-0.3-0.1-0.5-0.4-0.7c-0.6-0.6-1.2-1.3-1.9-1.7c-0.2-0.1-0.3-0.4-0.4-0.5
	c0,0-0.5-0.3-0.3-0.3c0,0,0,0.4,0,0.4c0.1,0.3,0.3,0.7,0.5,0.9c0.3,0.3,0.8,0.6,1.2,1.1c0.1,0.1,0.3,0.5,0.4,0.6
	c0.1,0.1,0.4,0.3,0.5,0.4c0.2,0.2,0.2,0.5,0.4,0.7c0.1,0.1,0.4,0.3,0.4,0.4c0,0.1,0.6,1.1,0.6,1.1c0,0,0.3,0.2,0.3,0.2
	c0.1,0.3,0.2,0.6,0.4,0.9c0.1,0.1-0.3,0.1,0,0.3c0.1,0,0.2,0,0.3,0c0.1,0,0,0.4,0.1,0.4c0.2,0.2,0.7,0.5,1,0.6
	c1.1,0.4,3.1-0.4,3.7-1c0.1-0.1,0.4-0.1,0.5-0.2c0.4-0.4,0.7-0.9,1.4-1.1c0.1,0,0.2-0.3,0.4-0.4c0.1,0,0.4,0,0.5-0.1
	c0.3-0.3,0.8-0.5,1.2-0.6c0.5-0.2,1.8-0.3,2.1-0.5c0.1-0.1,0.7,0.1,0.9,0c0.9-0.5,2,0,3,0c1.3,0,2.5-0.2,3.6-0.6
	c0.6-0.2,1.4,0,1.9-0.3c0.3-0.1,0.8,0.3,0.9,0.4c0.1,0.1,1.1,0,1.1,0c0.2,0,2.4-0.3,2.5-0.3c0.2,0.2,0.2,0.5,0.4,0.7
	c0.4,0.4,0.6,0.6,1.3,0.4c0.2-0.1,0.6-0.1,0.8-0.2c0.3-0.2,0.2-0.7,0.4-0.9c0.2-0.2,0.3-0.6,0.2-0.8c-0.1-0.1,0.1-0.4,0-0.5
	c-0.2-0.2-0.5-0.4-0.8-0.6c-0.1-0.1-0.2,0-0.3-0.1c0-0.1,0-0.1,0-0.2c0,0-0.2-0.1-0.3-0.1C270.6,31.2,270.4,31,270,30.6L270,30.6z"
	/>
<path id="tc" style="fill:#E0E0E0;stroke:#FFFFFF;stroke-width:0.5;" d="M437.8,209.7c-0.1,0.3-0.3,0.7-0.5,1.1
	c-0.3,0.4-0.4,2.7,0,2.3c0.4-0.4,0.9-1.4,1.3-1.9c0.1-0.1,0-0.2,0-0.3c0-0.1,0.2-0.2,0.3-0.3c0.1-0.2,0.3-0.6,0.4-0.7
	c0.1-0.1,0.4-0.3,0.5-0.4C440.1,209.2,438.9,208.3,437.8,209.7L437.8,209.7z M447.4,206c-0.5,0.3-2.2,0.8-2.7,0.5
	c-0.2-0.1-0.5-0.2-0.7-0.4c0,0,0-0.3-0.1-0.4c-0.1-0.1-0.3,0-0.4-0.1c0,0,0-0.2,0-0.3c-0.2-0.2-0.5-0.5-0.6-0.7
	c-0.2-0.2-1.6-0.6-1.6,0.1c0,0.1,0,0.1,0,0.2c0.5,0.5,0.6,0.8,0.9,1.5c0,0.1,0.3,0.1,0.4,0.2c0.3,0.3,0.5,0.4,0.6,0.7
	c0,0.1,0.3,0,0.4,0.1c0,0,0.1,0.2,0.3,0.3c0.1,0.1,0.5,0,0.6,0.1c0.2,0.2,0.3,0.2,0.5,0.4c0.1,0,1.1,0.4,1.2,0.3
	c0.3-0.3,0.9-0.6,1.3-1c0,0,0.2-0.1,0.3-0.1c0.1-0.1,0.3-0.8,0.4-1c0,0,0.2-0.2,0.1-0.4C448.3,206.1,448.6,206.3,447.4,206
	L447.4,206z M455.7,206c-0.7-0.1-1.2-0.3-1.7-0.8c-0.1-0.1-0.1-0.3-0.2-0.4c-0.1-0.1-0.5-0.4-0.6-0.5c0,0-0.1-0.3-0.1-0.4
	c-0.2-0.4-0.8-0.4-0.9-0.4c-0.3-0.3-0.5-0.7-0.9-0.9c-0.2-0.1-0.3-0.9,0.1-1.1c0.2-0.1,3.2-0.2,3.4,0c0,0,0.1,0.3,0.1,0.3
	c0.3,0.1,0.6,0.3,0.9,0.4c0.1,0.1,0.2,0.5,0.4,0.6c0.3,0.2,0.5,0.2,0.7,0.5c0.2,0.4-0.4,0.9-0.5,1.1
	C456.1,205.2,456.6,205.4,455.7,206L455.7,206z M462.7,209.3c-0.3-0.2-0.9,0-1.1-0.3c-0.1-0.1-0.6,0.1-0.7,0
	c-0.1-0.1-1.8-0.7-2.1-0.7c-0.2,0-1.8-0.2-1.9-0.3c-0.3-0.7-0.4-1.9,0.2-2.5c0.3-0.3,3.1,0.5,3.5,0.7c0.7,0.3,3.6-0.3,4,0
	c0.1,0.1,0.2,1,0.1,1.1c-0.3,0.3,0,0.4-0.2,0.8c-0.2,0.3-0.4,0.3-0.7,0.4C463.6,208.7,463.3,209.2,462.7,209.3L462.7,209.3z
	 M467.8,212.6c0.9,0.6-0.3,0-0.1-0.5c0.1-0.1,1.2-1.2,0.9-1.5c-0.1-0.1-0.6-0.3-0.8-0.4c-0.1-0.1-0.6,0.1-0.8-0.1
	c-0.3-0.3-0.6-0.6-1.1-1.1c0,0,0-0.2,0-0.3c-0.1-0.1-0.4-0.2-0.3-0.4c0.1-0.2,0.6-0.5,1-0.4c0.5,0.2,1,0.5,1.3,0.8
	c0.2,0.2,0.7,0.1,0.8,0.3c0.1,0.1,0,0.2,0.1,0.3c0.2,0.2,0.5,0.4,0.7,0.6c0.1,0.1,0,0.4,0.1,0.4c0.1,0.1,0.4,0.7,0.2,0.9
	c-0.2,0.2-0.6,0.5-0.8,0.7c0,0,0,0.1,0,0.2C468.8,212.5,468.9,212.6,467.8,212.6L467.8,212.6z M467.9,215.3c0.1,0,0.2-0.2,0.2-0.1
	c0,0-0.3,0.2-0.4,0.3c-0.3,0.3-0.4,0.9-0.5,1.3c0,0.1-0.2,0.2-0.2,0.3c-0.3,0.5-0.4,0.9,0.2,1.2c0.1,0,0.3-0.2,0.4-0.3
	c0.2-0.2,0.3-0.3,0.4-0.5c0,0,0.1-0.2,0.1-0.3c0,0,0.1,0,0.1,0c0.1,0,0.6-1,0.7-1.1c0-0.1,0-0.2,0-0.3c0.2-0.4,0-0.7-0.4-0.7
	c-0.1,0-0.4,0-0.4,0C468.1,215,468.2,215.1,467.9,215.3L467.9,215.3z M479.9,216.4c-0.2,0.1-0.3,0.5-0.5,0.7
	c-0.3,0.3-0.3,0.2-0.5,0.6c-0.1,0.2,0.2,0.4,0.3,0.5c0.1,0.2-0.3,1.5-0.2,1.6c0,0,0.1,0.1,0.1,0.2c0,0.1,0,0.2,0.1,0.2
	c0.1,0.1,0.3-0.1,0.4-0.1c0.1,0,0.1,0,0.2,0c0.3-0.2,0.5-0.8,0.4-1.1c0-0.1-0.1-0.3-0.1-0.4c0.1-0.3,0.4-0.7,0.4-0.9
	c0-0.1,0-1.1,0-1.1c-0.1-0.1-0.1-0.2-0.2-0.2c-0.1,0-0.2,0-0.2,0S480.3,216.4,479.9,216.4L479.9,216.4z"/>
<path id="do" style="fill:#E0E0E0;stroke:#FFFFFF;stroke-width:0.5;" d="M561.8,331.5c-0.8-0.1-1.8-0.2-2.5-0.7
	c-0.4-0.3-1.9-0.5-1.9-0.6c-0.4-0.4-1.2-0.5-1.9-0.7c-0.1,0-0.3-0.2-0.4-0.2c-0.2,0-0.6,0.4-0.4,0.7c0.3,0.3,1.2,0.4,1.4,0.9
	c0.1,0.2,1.2,1.6,1.2,1.7c0.2,0.1,0.4,0.2,0.5,0.3c0.2,0.1,0.5-0.1,0.6,0c0.8,0.4,3.7,1.1,4.3,0.4
	C562.9,333.2,562.3,331.8,561.8,331.5L561.8,331.5z M467.9,350.4c-0.2-0.2-0.5-0.3-0.7-0.4c-0.1,0-0.2-0.1-0.2-0.2
	c-0.1,0-0.2,0-0.2-0.1c0,0-0.6-0.1-0.7-0.1c0,0-0.3,0.5-0.3,0.6c0,0,0,0.1,0,0.1c-0.1,0.1-0.3,0.2-0.4,0.3c0,0,0,0.1,0,0.1
	c-0.1,0.2-0.3,0.2-0.2,0.4c0.1,0.2,0.3,0.3,0.4,0.4c0,0,0,0.1,0,0.2c0.1,0.1,0.2,0.2,0.2,0.3c0.1,0.1,0.4,0.2,0.5,0.2
	c0.1,0,0.1,0.1,0.2,0.2c0.2,0.2,0.6,0.1,0.8-0.1c0,0,0-0.1,0.1-0.1c0.1,0,0.3-0.2,0.3-0.2c0-0.1,0.1-0.2,0.1-0.3c0-0.1,0-0.2,0-0.3
	C468.1,351.2,468.4,351,467.9,350.4L467.9,350.4z M458.5,334.1c0.5,0.2,0.9,0.5,1.3,0.7c0.7,0.4,1.5,1.3,1.9,1.6
	c0.3,0.2,0.7,2.4,0.8,2.6c0,0,0.3,0.1,0.4,0.1c0,0.1,0,0.6,0,0.7c-0.2,0.4-0.5,1.2-0.4,1.7c0.3,0.9,0.5,0.7,1,1.3l0.6,0.4
	c0.1,0.1,0.1,0.4,0.3,0.6c0.1,0.2,0.7,0.5,0.8,0.6c0,0,0,0.1,0,0.1c0,0.1,0.1,0.1,0.2,0.1c0.3,0.2,0.8,0.5,1.1,0.8
	c0.4,0.5-0.1,0.7,0.1,1.1c0.1,0.2,0.2,0.3,0.2,0.5c0.2,0.5,0.7,0.8,0.9,1.2c0.1,0.2,0.2,0.5,0.3,0.7c0.1,0.2,0.4,0.3,0.5,0.4
	c0.1,0.1,0.2-0.1,0.3,0c0.3,0.1,0.7,0.2,1,0.3c0.2,0,0.7,0.3,0.9,0.2c0.3-0.1,0.6-0.6,0.7-0.9l0-0.2l0.4-1v0c-0.1,0-0.4-0.2-0.4-0.1
	c0,0.1,0.3,0.1,0.4,0.1c0.2,0-0.7-0.1-0.5-0.1c0.1,0,0.1-0.1,0.1-0.2c0.2-0.3,0.6-0.6,0.7-1c0.2-0.7,1.2-2.8,1.7-3.3
	c0.1-0.1,0.2,0,0.3-0.1c0.1-0.1,0.1-0.3,0.1-0.4c0.2-0.7,0,0,0.2-0.2c0.1-0.1,0.1-0.4,0.2-0.5c0.1-0.2,0.4-0.4,0.4-0.5
	c0.3-0.5,0.5-1.1,0.9-1.7l0.4-0.4c0.4,0,0.5-0.3,0.8-0.5c0.3-0.2,0.7-0.4,1.1-0.5c0.3-0.1,0.4-0.5,0.5-0.7c0,0,0.4-0.3,0.5-0.4
	c0.1-0.1,0-0.2,0.1-0.3c0.6-0.6,0.8-1.1,1.1-1.8c0.1-0.3,0.4-0.4,0.5-0.6c0.1-0.3,0.2-1.2,0.4-1.4c0,0,0.1,0,0.2,0
	c0.1-0.1,0.4-0.5,0.4-0.6c0.1-0.2,0-1.4-0.1-1.6c0-0.1-0.1,0-0.2-0.1c-0.1-0.2-0.1-0.5-0.3-0.6c-0.2-0.2-1.3-1.5-0.9-1.9
	c0.1-0.1,0.2-0.2,0.3-0.4c0.1-0.3,0.2-0.5,0.5-0.6c0.1,0,0.4,0,0.4,0c0.8,0,0.3,0.2,0.6,0.4c0.3,0.3,2.5,0.3,3,0.3
	c1.6-0.1,0.6-0.3,1.1-1.1c0-0.1,0-0.2,0-0.3c0.4-0.4,1.2-0.2,1.7-0.4c0.5-0.2,1.4-0.6,1.9-0.9c0.1,0,0-0.1,0.1-0.2c0,0,0.1,0,0.2,0
	c0.5-0.2,1-1,1.1-1.5c0.1-0.6-0.2-1.4,0.3-1.9c0.3-0.3,0.8-0.4,1.1-0.6c0.2-0.2,0.5-0.4,1-0.3c0.9,0.2,1.7,0.7,2.6,1
	c0.2,0.1,0.2,0.4,0.4,0.4c0.1,0,0.1,0,0.2,0c0,0.1,0,0.2,0,0.3c0,0.2,0.1,0.2,0.2,0.4c0.1,0.2,0,0.4,0,0.6c0.3,1,0,2.1-0.3,3.1
	c-0.1,0.2-0.4,1.2-0.2,1.4c0.2,0.2,0.4,0.4,0.6,0.7c0.1,0.1,0.1,0.5,0.2,0.5c0.1,0.1,0.3,0.1,0.4,0.2c0.2,0.2,0.1,0.4,0.3,0.5
	c0.1,0.1,1,0.9,1.1,0.9c0.4,0.1,1.5-0.2,1.7-0.4c0.1-0.1,1.7,0,1.9-0.2c0.3-0.1,0.6-0.4,0.8-0.5c0.1-0.1,0.5,0,0.6,0
	c1.2-0.4,3.9,0.2,4.9-0.4c0.2-0.1,0.3-0.3,0.4-0.4c0.1,0,0.2,0,0.3,0c0.2-0.1,0.9-0.4,1.1-0.5c0.3-0.2,0.5-0.5,0.8-0.7
	c0.4-0.3,0.9-0.5,1.3-0.8c0.3-0.2,0.4-0.6,0.6-0.8c0.3-0.2,0.5-0.3,0.7-0.5c0.3-0.3,0.4-0.6,0.5-1c0.1-0.2-0.1-0.4,0.1-0.5
	c0.1-0.1,0.9-1,1-1.1c0,0,0.1-0.4,0.2-0.4c0.4-0.3,1-0.6,1.3-1c0.1-0.1,0.2-0.3,0.3-0.4c0.1-0.3,1.8-1.5,2.1-1.6
	c0.7-0.2,1.6,0.2,2.3,0.1l0.5,0.3c0,0.3,0,0.6,0,0.9c0,0.2-0.2,0.5,0,0.7c0.2,0.2,1.8-0.2,2.1,0.1c0.3,0.3,0.4,0.7,0.9,1
	c0.3,0.2,4.3,0,4.4-0.1c0,0,3.1,0.1,3.4,0c1.4-0.3,2.5-1.3,4-0.9c0.6,0.1,1.2,0,1.8,0.3c0.4,0.2,0.8,0.5,1.2,0.6
	c0.2,0.1,1.1,0.2,1.2,0.3c0.2,0.1,0.4,0.2,0.6,0.3c0.8,0.2,1.9,0,2.7,0.4c0.1,0,0.1,0.2,0.2,0.3c0.1,0.1,0.6,0,0.7,0
	c0.7,0,1.3,0,1.9-0.2c0.3-0.1,0.6-0.3,0.8-0.4c0.1-0.1,0.5,0,0.7-0.1c0.8-0.4,1.6-0.4,2.3-0.1c0.2,0.1,0.5,0.1,0.6,0.3
	c0.6,0.6,1.3,1.1,1.9,1.7c0.1,0.1,0.1,0.4,0.2,0.4c0.5,0.5,1.2,1.2,1.5,1.9c0.1,0.1,0.1,0.4,0.2,0.4c0,0,0.1,0,0.2,0
	c0.2,0.1,0.3,1,0.5,1.1c0.1,0.1,0.8,0,1,0.1c0.2,0,1.7,0.3,1.9,0.2c0.1-0.1,0.5-0.1,0.7-0.2c0.1,0,0.4-1.2,0.5-1.3
	c0.1-0.1-0.1-0.3-0.1-0.4c-0.1-0.1,0.4-2.2,0.4-2.3c0,0,0.1,0,0.2,0c0.6-0.3,0.8,0,1.4,0c0.8,0,1.6-0.3,2.4-0.4
	c0.3-0.1,0.6-0.3,0.9-0.4c0.1,0,0.5,0,0.6-0.1c0.5-0.5,0.1-3.5,0.5-4.3c0.1-0.3,1-0.7,1.2-0.8c0.2-0.1,0.5,0.1,0.6,0
	c0.2-0.1,0.6-0.2,0.7-0.4c0.1-0.1,0.3-0.5,0.4-0.5c0.2-0.1,0.2,0,0.4-0.1c0.1-0.1,0.1-0.4,0.2-0.4c0-0.1,0.1,0,0.2-0.1
	c0.2-0.4-0.1-1.3-0.2-1.6c-0.1-0.2-0.6-0.3-0.8-0.5c-0.1-0.1-0.1-0.2-0.2-0.4c-0.2-0.3-0.8-0.5-1.1-0.7c-0.2-0.1-0.3-0.3-0.4-0.4
	c-0.1-0.1-0.8-0.3-1-0.5c-0.4-0.4-0.6-1-1-1.4c-0.1-0.1-0.3-0.1-0.4-0.3c-0.1-0.2-0.4-1.4-0.5-1.5c-0.1-0.1-0.2-0.1-0.3-0.1
	c0,0-0.1,0-0.1,0c-0.4-0.2,0.1,0-0.1-0.2c-0.2-0.2-0.6-0.3-0.9-0.5c-0.5-0.5-0.8-0.8-1.3-1.3c0,0-0.1,0-0.2,0
	c-0.2-0.2-0.8-1.1-1.1-1.2c-0.5-0.2-1.4-0.7-1.8-1.1c-0.1-0.1-0.1-0.3-0.3-0.4c-0.4-0.3-1.5-0.6-1.8-0.9c-0.3-0.3-0.5-0.6-0.9-0.9
	c-0.3-0.2-0.7-0.4-0.9-0.6c-0.1-0.1-1.2-0.2-1.4-0.3c-0.3-0.1-0.4-0.1-0.5-0.3c-0.1-0.1-0.8,0.1-1,0c-1.1-0.4-2-0.5-3.2-0.8
	l-0.6-0.3c-0.2,0-0.3,0.1-0.5,0.2c-0.4,0.2-2.2,0-2.7,0.1c-0.4,0.1-0.8,0.1-1.1,0.3c-0.2,0.1-0.9-0.2-1.1,0c-0.2,0.2,0.4,0-0.2,0.2
	c-0.4,0.1-1.5-0.1-1.9-0.2c-0.2,0-0.4,0.1-0.5,0c-0.3-0.1-1.1-0.3-1.3-0.4c-0.7-0.3-1.4-1-1.8-1.4c-0.1-0.1-0.6-0.2-0.7-0.3
	c-0.4-0.2-0.6-0.4-0.9-0.6c-0.1-0.1-0.5-0.1-0.6-0.2c-0.2-0.1-1.4,0.1-1.4,0.2c-0.2,0.2-0.3,0.4-0.5,0.5c-0.9,0.4-2.6-0.6-3.4-1
	c-0.1,0-0.2,0.1-0.3,0c-0.2-0.2-0.5-0.4-0.7-0.5c-0.3-0.3,0.2-1.5,0.3-1.6c0.1-0.1-0.1-0.4,0-0.5c0.2-0.2,0.5-0.3,0.8-0.4
	c0.3-0.2,1.1-0.2,1.3-0.1c0.2,0.1,0.1,0.2,0.4,0.3c0.1,0,0.2,0,0.4,0c0.5,0.2-0.5,0,0.3,0.2c0.6,0.1,1.2,0.1,1.9,0.4
	c0.3,0.1,0.7-0.1,1.1,0c0.2,0,0.3,0.1,0.5,0.2c0.9,0.2,1.9-0.2,2.7,0c0.5,0.1,1.4,0.2,1.9,0.1c0.6-0.1,1.3-0.5,1.9-0.7
	c0.2-0.1,0.1-0.1,0.2-0.2c0.2-0.2,0.8-0.1,1.1-0.6c0.5-0.7,0.3-1.6,0.5-2.3c0.1-0.2,0.2-1.2,0.1-1.3c0,0-0.1,0-0.2,0
	c-0.1-0.1,0-0.2-0.1-0.3c-0.6-0.9-1.2-1.1-2.4-1.1c0,0-0.7-0.1-0.8,0c-0.1,0.1,0,0.2-0.1,0.3c-0.3,0.3-0.7,0.2-0.9,0.4
	c-0.2,0.2-0.4,0.6-0.5,0.9c-0.1,0.2-1.6,0.4-2,0.4c-0.2,0-5.8,0-6-0.1c-0.4-0.1-1.2-0.2-1.6-0.1c-0.3,0.1-0.8,0-1.1,0.2
	c-0.7,0.3-2.9,1.1-3.6,0.7c-0.4-0.2-0.8-0.7-0.9-0.9c0,0-0.4-0.1-0.4-0.2c-0.1-0.1-0.2-0.3-0.4-0.4c-0.3-0.2-2.4-1.1-2.5-1.2
	c-0.6-0.6-1-3.1-0.8-4.1c0.2-0.9-0.2-2.3,0.4-2.9c0.1-0.1,0-0.7,0.1-0.8c0.2-0.3,1.1-1.6,0.7-1.8c-0.9-0.5-2-0.3-3-1
	c-0.2-0.1-0.6,0-0.8,0c-0.4-0.1-1.1-0.3-1.3-0.4c0,0-0.8,0-0.8,0c-0.3,0.3-0.8,0.3-1.2,0.5c-0.1,0.1-0.2,0.2-0.4,0.3
	c-0.6,0.3-4.5,0.6-5.3,0.5c-0.7-0.1-1.4-0.2-2-0.4c-0.5-0.1-1.1-1.8-1.4-2.3c-0.1-0.2-0.3-0.1-0.4-0.2c-0.2-0.2-0.4-0.6-0.4-0.7
	c-0.3-0.3-1.1-0.7-1.5-0.8c-0.1,0-0.1-0.2-0.3-0.3c-0.2-0.1-0.5,0.1-0.7,0c-0.2-0.1-0.4-0.2-0.5-0.3c-1-0.5-2.7,1.9-3.7,1.6
	c-0.4-0.1-0.9-0.4-1.1-0.6c0,0-1.1-0.2-1.2-0.4c-0.2-0.2-0.3-0.6-0.6-0.8c-0.5-0.2-0.8-0.6-1.3-0.8c-0.3-0.1-0.5-0.7-0.7-0.8
	c-0.7-0.4-0.8-0.6-1.3-1.1c-0.2-0.2-0.5-0.3-0.7-0.5c-0.1-0.1-0.4,0-0.4-0.1c-0.2-0.2-0.3-0.1-0.6-0.3c-0.2-0.1-0.3-0.2-0.4-0.3
	c-0.1-0.1-1.1,0-1.2-0.1c-0.2,0-0.5,0.1-0.7,0c-0.6-0.3-1.6-0.4-2-0.9c-0.1-0.1-1.1,0-1.2,0c-1.4,0-2.3,0.1-3.3,1.1
	c-0.3,0.3-0.6,1.1-1,1.2c-0.3,0.1-0.6,0.4-0.9,0.7c0,0-0.1,0-0.2,0c-0.2,0.2-0.3,0.3-0.5,0.4c-0.2,0.1-1.6,0.7-1.9,0.4
	c-0.2-0.2-0.7-0.1-1-0.3c-0.5-0.2-0.9-0.5-1.2-0.8c0,0-0.2,0-0.3,0c-0.1-0.1-0.7-0.3-1-0.4c-0.2-0.1-1.1-0.1-1.1-0.2
	c0,0,0-0.1,0-0.2c-0.1-0.1-0.5-0.1-0.7-0.3c-0.6-0.6-1.6-0.9-2.5-1.2c-0.4-0.1-0.9,0.1-1.3,0c-0.5-0.1-1.1-0.2-1.5-0.3l-0.4-0.2
	c-0.4,0-1.2-0.2-1.6,0c-0.3,0.1-0.3,0.4-0.5,0.5c-0.1,0.1-0.2,0-0.3,0.1c0,0,0,0.1,0,0.2c-0.1,0.1-0.5,0-0.6,0.1
	c-0.7,0.4-1.9,1.4-2.2,1.9c-0.3,0.6,0.2,2.9-0.1,3.2c0,0-0.1,0-0.2,0c-0.3,0.3-0.7,0.3-1.1,0.5c-0.1,0,0,0.1,0,0.2l0.8,1l0.1,0.2
	c0.2,0.2,0.2,0.4,0.4,0.6c0,0,0.2,0.1,0.2,0.1c0.2,0.2,0.4,0.7,0.4,0.9c0.1,0.4-0.2,0.8,0,1.3c0,0.1,0.1,0.3,0.1,0.3
	c0.1,0.3,0,0.5,0,0.8c0.1,0.4,0.1-0.1,0.1,0.3c0.1,0.3,0,0.6,0,0.8c0.1,0.5,0.1,0.9,0.1,1.4c0,0.1,0,0.2,0,0.2
	c0.1,0.2,0,0.4,0.1,0.6c0.1,0.3,0.2,0.5,0.4,0.8c0.1,0.1,0,0.3,0,0.4c0,0.2,0.1,0.4,0,0.6c-0.1,0.2,0,0.3-0.1,0.5
	c-0.1,0.3,0-0.1-0.1,0.1c0,0,0,0.1,0,0.1c0,0-0.1,0.1-0.1,0.2c0,0-0.6,0.8-0.6,0.8c-0.1,0-0.2,0-0.2,0.1c-0.1,0.2-0.2,0.4-0.4,0.7
	c0,0.1,0,0.1,0,0.2c0,0-0.1,0.1-0.1,0.2c-0.1,0.2-0.1,0.4-0.2,0.6c-0.1,0.3-0.4,0.7-0.2,1c0.1,0.3,0.6,1.1,0.9,1.2
	c0.5,0.3,1.1,0.4,1.7,0.5c0.1,0,0.2,0.2,0.3,0.2c0.1,0.1,0.3,0.1,0.4,0.2c0.1,0.1,0.3,0.3,0.4,0.4c0,0,0.3,0,0.3,0l-0.1,0.4
	c-0.3,1-0.6,1.7-1.1,2.3c0,0,0,0.2,0,0.3c-0.2,0.2-0.4,0.5-0.5,0.7c-0.1,0.1-0.4,0.1-0.5,0.3c-0.1,0.1-0.4,0.4-0.6,0.5
	c-0.1,0-0.3,0-0.4,0.1c-0.6,0.6-1.2,1.2-1.8,1.8c-0.2,0.2-0.3,0.6-0.5,0.8c-0.3,0.3-1,0.7-0.9,1c0.2,0.3,1.7,1.1,2.1,1.2
	c0.1,0,0.3-0.1,0.4,0c0,0,0,0.1,0,0.2c0,0.1,0.2,0,0.3,0.1c0.2,0.2,0.2,0.6,0.4,0.8c1.4,1.4,1.5,2.4,1.1,4.2c0,0-0.7,1.2-0.8,1.4
	c-0.1,0.2,0,0.5-0.1,0.6c-0.1,0.2-0.6,1.1-0.8,1.2c-0.8,0.8-1.8,1.2-3.1,1.6c-0.2,0.1-0.4,0-0.6,0c-0.2,0.1-0.4,0.2-0.6,0.3
	c-0.4,0.2-2.4-0.1-2.6,0c-0.6,0.6-1.8,1.3-1.4,2.7c0.4,1.6,1.9,1.1,2.7,1.9c0.5,0.5,0.4,1.3,0.7,1.9c0.1,0.2-0.2,0.9-0.1,1.1
	c0.1,0.1,0.6,0.1,0.8,0.2c0.2,0.1,0.3,0.4,0.5,0.4c0.5,0.2,1.3,0.1,1.6,0.4c0.1,0.1,0.3,0,0.4,0c0.6,0.3,1.3,0.8,1.7,1.1
	c0,0,0.2,0,0.3,0c0.2,0.1,0.6,0.3,0.7,0.4c0.1,0.1,0.2,0.5,0.4,0.6c0.2,0.2-0.3,1.8-0.4,1.9c-0.2,0.2-0.2,0-0.4,0.1
	c-0.6,0.4-1.4,0.5-1.8,0.9c-0.1,0.1-0.1,0.5-0.2,0.6c-0.1,0.1-0.3,2.4-0.1,2.7c0.2,0.2,0.3,0.7,0.5,1
	C458.5,332.9,458.4,333.9,458.5,334.1L458.5,334.1z"/>
<path id="ht" style="fill:#E0E0E0;stroke:#FFFFFF;stroke-width:0.5;" d="M398.5,315.2c-0.5,0-0.9-0.1-1.4-0.1c-0.1,0-0.3,0-0.4,0
	c-0.1-0.1-0.1-0.1-0.1-0.2c0,0-0.1,0-0.2,0c-0.1-0.1-0.3-0.2-0.4-0.3c0,0-0.1-0.2-0.1-0.3c0,0-0.1,0-0.1,0c-0.1-0.1-0.3-0.3-0.4-0.4
	c0,0-0.1,0-0.2,0c-0.2-0.2-1.5-0.5-1.9-0.3c-0.1,0-0.1,0.1-0.1,0.1c-0.1,0-0.4,0-0.4,0.1c-0.1,0.1-0.2,0.2-0.2,0.2
	c-0.1,0.1-0.1,0.8,0,0.9c0.1,0.2,0.3,0.4,0.4,0.4c0.2,0.1,1.4,0.2,1.6,0.1c0.2-0.1,0.5-0.1,0.8-0.1c0.7,0.1,1.1,0.6,1.7,0.8
	c0.2,0.1,0.5,0.1,0.7,0.2c0.1,0,0.3-0.1,0.4,0c0.1,0,0.3,0.1,0.4,0c0.2,0,0.2-0.2,0.3-0.4c0,0,0.3-0.1,0.3-0.2c0,0,0.1-0.2,0-0.2
	c0,0-0.1,0-0.1,0c-0.1-0.1-0.3-0.1-0.4-0.2c0,0-0.1,0-0.1,0C398.6,315.4,398.6,315.3,398.5,315.2z M397.9,332.1
	c-0.4-0.1-1.4-0.4-1.9-0.2c-0.1,0.1-0.2,0.3-0.3,0.4c-0.1,0.1-0.2,0.1-0.3,0.2c-0.5,0.5,1,1.3,1.2,1.3c0.2,0.1,0.5,0.4,0.6,0.5
	c0.2,0.2,0.7,0.2,0.9,0.3c0.1,0,0.4,0.2,0.5,0.1c0.4-0.2,0-0.7,0.2-0.9c0.2-0.2,0.5-1.1,0.2-1.4
	C398.9,332.2,398.7,332.1,397.9,332.1z M423.4,311.6c-0.1-0.1-0.4,0-0.6,0c-0.5-0.2-1.1-0.3-1.6-0.4c-0.3-0.1-0.7-0.2-1-0.3
	c-0.2-0.1-0.3-0.2-0.6-0.3c-0.4-0.1-0.9-0.2-1.3-0.4c-0.3-0.1-0.5-0.1-0.7-0.2c0,0,0,0,0-0.1c-0.3-0.1-0.5-0.2-0.7-0.4
	c-0.2-0.2-0.6-0.2-0.8-0.4c-0.3-0.2-0.6-0.4-0.9-0.5c-0.1,0-0.4-0.4-0.5-0.5c-0.1-0.1-0.3-0.1-0.4-0.2c-0.2-0.1-0.1-0.1-0.3-0.2
	c-0.2-0.1-0.6-0.2-0.8-0.3c-0.5-0.2-1.5-0.8-1.9-1.2c-0.1-0.1-0.4-0.2-0.5-0.3c-0.1-0.1-0.1-0.3-0.1-0.4c-0.1-0.1-0.1-0.2-0.2-0.4
	c0-0.1,0.1,0,0-0.1c0-0.1-0.1-0.1-0.1-0.1c0,0,0,0,0,0c0,0,0-0.1,0-0.1c0,0-0.1,0-0.1,0c-0.2-0.2-0.3-0.7-0.1-1
	c0.1-0.1,0.2-0.3,0.3-0.3c0,0,0.1-0.1,0.1-0.2c0.2-0.2,0.6-0.5,0.9-0.7c0,0,0.1,0,0.2,0c0.5-0.2,1.2-0.3,1.8-0.1
	c0.2,0,0.4,0.2,0.6,0.2c0.1,0,0.2,0,0.2,0c0.1,0,0.2,0.1,0.3,0.1c0.5,0.1,0.9,0.3,1.4,0.4c0.2,0,0.4,0,0.5,0.1c0.1,0.1,1,0.5,1,0.5
	c0,0,0.1,0.2,0.2,0.2c0,0,0.1,0,0.1,0c0.1,0.1,0.2,0.3,0.3,0.4c0.2,0.1,0.4,0.2,0.6,0.3c0.3,0.2,0.5,0.3,0.8,0.5
	c0.2,0.2,0.9,0.5,1.2,0.6c0.1,0,0.3,0,0.3,0.1c0,0,0,0.1,0,0.1c0.1,0.1,0.3,0.1,0.4,0.2c0,0,0,0.1,0,0.1c0.1,0.1,0.3,0.1,0.4,0.2
	c0,0,0,0.1,0.1,0.1c0.1,0,0.2,0,0.2,0c0.1,0.1,0.9,0.5,0.9,0.5c0,0,0,0.1,0,0.1c0.1,0.2,0.5,0.3,0.7,0.4c0,0,0,0.1,0,0.1
	c0,0,0.1,0,0.2,0c0.1,0.1,0.2,0.3,0.4,0.4c0.1,0,0.6,0.3,0.6,0.4c0,0,0,0.1,0,0.1c0,0,0.1,0,0.1,0c0.1,0.1,0.2,0.2,0.3,0.4
	c0,0.1,0,0.2,0,0.2c0.2,0.4,0.4,0.8,0.6,1.3c0.1,0.2,0,0.5,0.1,0.7c0,0.1,0.1,0.3,0,0.4c-0.1,0.2-0.1,0.3-0.3,0.4c0,0-1,0.1-1,0.1
	C424.2,312,423.9,311.9,423.4,311.6L423.4,311.6z M431.5,268.6c-0.3-0.1-0.7,0.1-1,0c0,0-0.1-0.1-0.1-0.1c-0.1,0-0.1,0-0.2,0
	c-0.1,0-0.2-0.1-0.4-0.1c-0.1,0-0.3,0.1-0.4,0c-0.1-0.1-0.2-0.1-0.4-0.2c-0.1,0-0.1,0-0.2,0c-0.1,0-0.1-0.1-0.2-0.2
	c-0.1-0.1-0.4-0.1-0.4-0.2c-0.1,0-0.2,0-0.3,0c-0.7-0.3-1.1-0.2-1.9-0.2c-0.1,0-0.5,0.1-0.5,0c-0.2-0.2-0.6-0.3-0.8-0.3
	c-0.2,0,0,0-0.1-0.1c0,0-0.5-0.1-0.6-0.1c-0.4-0.1-1,0.1-1.2-0.2c0,0-0.1,0-0.2,0c-0.1,0-0.2-0.2-0.3-0.2c-0.1,0-0.1,0-0.2,0
	c-0.2,0-0.5-0.3-0.5-0.5c0-0.2-0.5-1-0.4-1.1c0,0,0.1,0,0.1,0c0.1,0,0.1-0.1,0.2-0.2c0.2-0.1,1.6,0,1.8,0c0.1,0,0.3,0,0.4,0
	c0.5-0.2,0.9-0.2,1.4-0.2c0.5,0.1,1.2,0.1,1.7,0.3c0.1,0,0.3,0.2,0.4,0.3c0.2,0.1,0.5,0.1,0.6,0.2c0.1,0.1,0.1,0.2,0.3,0.3
	c0.2,0.1,0.4,0.1,0.6,0.1c0.2,0.1,0.8,0.5,1,0.6c0,0,0.1,0,0.1,0c0.1,0,0.2,0.2,0.3,0.2c0.1,0,0.2,0,0.2,0c0.1,0.1,0.3,0.2,0.4,0.3
	c0.1,0,0.4,0.1,0.4,0.2c0.1,0.1,0.1,0.1,0.1,0.1c0,0,0.1,0,0.2,0c0,0,0.4,1,0.4,1.1C431.8,268.5,431.7,268.5,431.5,268.6
	L431.5,268.6z M458.6,277.4c-0.2,0.1-0.6,0.3-0.8,0.4c-0.2,0-3.1,0.2-3.4,0.1c-0.4-0.1-0.7,0-1.1-0.1c-1.1-0.2-2.2-0.1-3.4-0.2
	c-0.8-0.1-1.6-0.3-2.4-0.4c-1-0.2-2.1-0.1-3.1-0.3c-0.6-0.1-1.2,0.2-1.7,0.1c-0.5-0.1-0.9-0.1-1.4-0.2c-0.4-0.1-0.8-0.3-1.1-0.4
	c-0.5-0.2-1.1,0-1.5-0.3c-1.3-0.6-2.7-1.9-3.9-2.7c-0.3-0.2-0.7-0.3-1-0.4c-0.6-0.4-0.8-0.6-1.3-0.9c-0.5-0.4-1.3-0.5-1.7-0.8
	c-0.2-0.2-1.3-0.3-1.6-0.4c-0.3-0.1-1.9-0.7-2.2-0.5c-0.5,0.3-1.6,0.2-2.1,0.1c-1.3-0.2-2.6-0.3-3.9-0.5c-0.6-0.1-1.3-0.5-1.9-0.6
	c-1.3-0.3-3.7,0.7-4.9,0.9c-0.5,0.1-1.1,0.5-1.6,0.7c-0.4,0.2-2.7,0.8-2.9,1c0,0,0,0.1-0.1,0.2c-0.1,0-0.2,0-0.3,0c0,0-0.1,0-0.1,0
	c-0.2,0.1-1.2,0.5-1.3,0.6c-0.1,0.1-0.3,0.4-0.4,0.4c-0.3,0.2-0.6,0.1-0.9,0.3c-0.2,0.1-1.2,0.8-1.3,1c-0.5,0.9-0.4,2.1-0.4,3.1
	c0,0.2-0.2,2-0.1,2.1c0.4,0.4,0.8,0.3,1.7,0.4c0.8,0.2,3.4,0.8,4.2,0.6c1-0.2,2.1-0.2,3.2-0.4c0.5,0,1,0.1,1.5,0
	c0.5-0.1,0.9-0.3,1.5-0.2c1.1,0.2,2.6,1,3,1.9c0,0.1,0.3,0.1,0.4,0.1c0.7,0.2,1.4,0.8,2,1.1c0.2,0.1,0.5,0.1,0.7,0.2
	c0.5,0.2,0.6,0.5,1,0.6c0,0,0.2,0.4,0.3,0.4c0.1,0.1,0.4,0.2,0.5,0.4c0.1,0.1,0.4,0,0.4,0c0.3,0.1,2,0.6,2.2,0.8
	c0.3,0.3,0.4,0.6,0.5,1.1c0.2,0.8-0.3,5.4-0.8,5.9c-0.5,0.5-1.3,0.8-1.6,1.3c0,0.1-0.2,0-0.3,0.1c-0.3,0.7,0,2.4,0.4,2.8l0.3,0.4
	c0,0,0.4,0.2,0.3,0.4c-0.1,0.1-0.2,0.3-0.4,0.5c-0.1,0.1-0.3,0.1-0.4,0.2c0,0,0,0.1,0,0.2c0,0-0.1,0-0.2,0c-0.1,0.1-0.2,0.3-0.4,0.4
	c-0.1,0.1,0.1,0.3,0,0.4c-0.1,0.1-0.5,0.8-0.3,1c0.2,0.2,0.6,0.4,0.9,0.7c0.2,0.2,0.5,0.1,0.7,0.4c0.4,0.4,0.8,1.2,1.3,1.5
	c0.3,0.2,0.8,0.5,1,0.9c0,0.1,0,0.2,0,0.3c0,0,0.2,0.1,0.2,0.1c0.1,0.1,0.2,1,0.4,1.1c0,0,0.1,0,0.2,0c0,0,0.3,0.5,0.4,0.6
	c0.3,0.3,0.7,0.3,1,0.5c0.1,0.1,0.1,0.3,0.2,0.4c0.1,0.1,0.2,0.1,0.4,0.2c0,0.1,0,0.1,0.1,0.2c0.1,0.1,0.2,0,0.3,0.1
	c0.4,0.6,0.9,1.1,1.2,1.7c0.1,0.2,0.4,0.3,0.4,0.4c0,0.1,0,0.2,0,0.3c0,0.1,0.1,0,0.2,0.1c0.1,0.3,0.1,0.6,0.3,0.9
	c0.3,0.5,1.2,0.8,1.6,1.2c0.6,0.6,1.5,1.3,2.3,1.6c0.5,0.2,1.2,1.3,1.6,1.7c0.1,0.1,0.4,0.4,0.4,0.6c0,0.1,0,0.9,0,0.9
	c-0.1,0-0.1,0-0.2,0c-0.1,0,0,0.1,0,0.2c-0.1,0.2-0.3,0.6-0.4,0.8c0,0-0.1,0-0.2,0c0,0,0,0.1,0,0.2c-0.3,0.3-2,0.1-2.4,0
	c-0.3-0.1-0.5-0.3-0.7-0.4c-0.1,0-0.3,0-0.4,0c-0.1-0.1-0.1-0.2-0.2-0.3c-0.2-0.2-2.6-0.4-3.2-0.4c-0.2,0-0.8-0.1-1,0
	c-0.1,0.1-0.5,0.2-0.5,0.4c0,0.1,0,0.1,0,0.2c-0.1,0.1-0.5,0.3-0.6,0.4c-0.1,0.1-0.4,1.1-0.5,1.3c-0.4,0.7,0.5,1.7-0.1,2.3
	c-0.2,0.2-0.8-0.1-1-0.1c-0.3,0-1.7-0.1-1.9-0.2c-0.2-0.1-0.4-0.3-0.7-0.4c-0.6-0.2-1.4-0.1-1.9-0.4c-0.5-0.3-1.2-0.7-1.6-0.7
	c-0.6,0-2.9-0.2-3.3,0c-0.4,0.2-2.7,0.4-3.2,0.2c-0.1,0-0.9-0.7-1-0.8c-0.1-0.1-0.4-0.1-0.4-0.1c-0.1-0.1-0.6-0.5-0.7-0.5
	c-0.2-0.1-0.3,0-0.4-0.2c-0.1-0.1-1.3,0-1.4,0c-0.5,0-1.4-0.1-1.9,0.1c-0.3,0.1-0.5,0.3-1,0.2c-0.5-0.1-1.5-0.2-1.9-0.4
	c-0.6-0.3-1.1-0.4-1.7-0.5c-0.4-0.1-1.2-0.1-1.6,0.1c-0.1,0.1-2-0.1-2.2-0.1c-0.1,0-0.9-0.1-1,0c0,0-0.2,0.2-0.3,0.3
	c-0.2,0.1-2.3,0.6-2.4,0.6c-0.3-0.1-0.7-0.1-0.9-0.3c-0.4-0.4-0.8-1.6-1.7-1.6c-0.1,0-0.7-0.1-0.8,0c-0.2,0.2-0.1,0.4-0.3,0.5
	c-0.2,0.2-0.9,0.7-1.3,0.4c-0.2-0.1-1-0.6-1.1-0.8c-0.2-0.3-0.3-0.6-0.6-0.8c-0.4-0.2-1,0-1.4-0.2c-0.1,0-0.1-0.1-0.2-0.2
	c-0.4-0.2-1.4-0.1-2-0.4c-0.1-0.1-0.6,0-0.6,0c-0.1,0-0.2-0.2-0.4-0.2c-0.6-0.1-1.2,0-1.7-0.3c-0.2-0.1-0.4-0.3-0.5-0.4
	c-0.1-0.1-0.6-0.1-0.7-0.2c-0.2-0.1-0.4-0.5-0.5-0.6c-0.1-0.1-0.4-0.2-0.5-0.3c-0.1-0.1-0.2-0.3-0.4-0.4c-1.2-0.6-2.7,0.5-4,0.1
	c-0.4-0.1-0.9,0-1.3-0.1c-0.9-0.2-2.3-0.4-3.2-0.1c-0.4,0.1-0.8,0.7-0.9,1c-0.2,0.4,0-0.1-0.2,0.1c0,0,0,0.2,0,0.3
	c-0.1,0.1-0.2,0.4-0.3,0.5c-0.1,0.4-0.3,2-0.5,2.3c-0.1,0.1-0.1,0.3-0.3,0.5c-0.2,0.3-0.8,0.5-0.9,0.7c-0.2,0.4,0,0.8-0.2,1.1
	c-0.2,0.4-0.3,1-0.4,1.4c0,0.2,0,0.4,0,0.6c-0.1,0.2-0.2,0.3-0.3,0.5c-0.1,0.4-0.3,1.6,0.1,1.9c0.3,0.3,2.5,0.9,3,1.1
	c0.3,0.1,0.6,0.2,0.8,0.4c0,0,0.3,0.4,0.4,0.4c0.2-0.2,3.1-1.1,3.5-0.9c0.2,0.1,0.6,0,0.9,0.1c0.3,0.1,0.5,0.3,0.8,0.4
	c0.4,0.1,0.9,0.2,1.3,0.3c0.9,0.2,1.6,0.8,2.4,1.2c0,0,0.1,0.2,0.1,0.3c0.1,0.2,0.5,0.3,0.6,0.4c0.1,0.2,0.3,0.6,0.5,0.8
	c0.2,0.2,0.5,0.3,0.6,0.4c0.2,0.2,0.3,0.4,0.4,0.5c0.1,0.1,0.3,0.1,0.4,0.2c0.2,0.1,0.6,0.6,0.7,0.7c0.1,0.1,0,0.3,0.1,0.4
	c0.1,0.3,0.4,0.9,0.6,1.1c0.1,0.1,0,0.3,0,0.4c0.2,0.4,0.3,0.8,0.5,1.1c0.1,0.1,0.4,2.4,0.4,2.4c0.4,0.2,0.6,0.3,0.9,0.6
	c0.1,0.1,0.6-0.1,0.7-0.1c0.3,0,0.8,0.1,1.1,0c0.2-0.1,0.3-0.2,0.5-0.4c0.4-0.2,0.9-0.2,1.3-0.4c0.4-0.2-0.1,0,0.1-0.2
	c0,0,0.3-0.1,0.3-0.1c0-0.1,0-0.1,0-0.2c0.1-0.1,0.4-0.2,0.5-0.3c0,0-1.3-2.8-1-3.4c0.2-0.5,1-1.8,1.6-1.9c0.2,0,1.2-0.3,1.2-0.4
	c0,0,0-0.1,0-0.2c0,0,0.2-0.1,0.3-0.1c0.2-0.2,0.3-0.7,0.5-1c0,0,0.9,0.4,1.1,0.4c0.7,0.1,1.7,0.2,2.1-0.3c0.1-0.1,2.7,0.2,2.8,0.3
	c0.2,0,1.4,0.2,1.6,0.1c1.1-0.4,2.5-1.4,3.8-1.1c1,0.2,1.5,0.8,2.2,1.1c0.2,0.1,0.6,0,0.9,0.1c0.4,0.1,0.7,0.3,1.1,0.4
	c0.9,0.3,1.8,0.4,2.7,0.5c1.1,0.2,2.3,0.4,3.4,0.7c0.4,0.1,0.7,0.3,1.1,0.4c0.5,0.1,1.1-0.2,1.5,0c1.3,0.4,3.1,0,4.6,0.2l0.4,0
	c0.6,0,2.1,0.3,3,0.3c0.7,0,2.9-0.2,3.3,0c0.3,0.1,1,0.2,1.3,0.1c0.3-0.1,1.6-0.3,1.8-0.5c0.1-0.1,0.4-1.2,0.6-1.3
	c0.1-0.1,1.7,0.1,1.9,0.2c1,0.3,2.6,0.5,3.5,0.1c0.2-0.1,0.7,0,1,0c0.7,0,1.3-0.1,1.9-0.2c0.3,0,0.6,0.1,0.9,0
	c0.6-0.1,1.1-0.3,1.7-0.4c0.9-0.2,3.3-0.1,4.1,0.2c0.2,0.1,1.6,0.2,1.7,0.3c0.2,0.2,0.7,0.5,1.1,0.7c0.1,0,0.1,0,0.2,0
	c0.6,0.6,1,0.9,1.7,1.3c0.5,0.3,0.9,1,1.2,1.5c0.1,0.2,0.4,0.3,0.5,0.4c0.1,0.1,0.1,0.3,0.2,0.4c0,0,0.2,0,0.3,0
	c0.3,0.1,0.5,0.5,0.6,0.6c0.2,0.1,0.4,0.2,0.7,0.2c-0.1-0.3,0-1.2-0.2-1.3c-0.3-0.3-0.3-0.7-0.5-1c-0.2-0.2,0-2.5,0.1-2.7
	c0.1-0.1,0.1-0.5,0.2-0.6c0.4-0.4,1.2-0.5,1.8-0.9c0.1-0.1,0.2,0.1,0.4-0.1c0.1-0.1,0.6-1.8,0.4-1.9c-0.2-0.2-0.2-0.5-0.4-0.6
	c-0.1-0.1-0.5-0.4-0.7-0.4c-0.1,0-0.2,0-0.3,0c-0.4-0.4-1.1-0.8-1.7-1.1c-0.1,0-0.4,0.1-0.4,0c-0.3-0.3-1.1-0.3-1.6-0.4
	c-0.2-0.1-0.3-0.3-0.5-0.4c-0.2-0.1-0.7-0.1-0.8-0.2c-0.1-0.1,0.2-0.8,0.1-1.1c-0.3-0.6-0.2-1.3-0.7-1.9c-0.8-0.8-2.3-0.4-2.7-1.9
	c-0.3-1.4,0.8-2.1,1.4-2.7c0.1-0.1,2.2,0.2,2.6,0c0.2-0.1,0.4-0.2,0.6-0.3c0.2,0,0.4,0.1,0.6,0c1.3-0.4,2.3-0.8,3.1-1.6
	c0.2-0.2,0.7-1,0.8-1.2c0.1-0.2,0-0.5,0.1-0.6c0.1-0.2,0.8-1.4,0.8-1.4c0.4-1.8,0.3-2.9-1.1-4.2c-0.2-0.2-0.2-0.6-0.4-0.8
	c-0.1-0.1-0.2,0-0.3-0.1c0-0.1,0-0.1,0-0.2c-0.1-0.1-0.2,0-0.4,0c-0.4-0.1-2-0.9-2.1-1.2c-0.2-0.3,0.6-0.7,0.9-1
	c0.2-0.2,0.3-0.6,0.5-0.8c0.6-0.6,1.1-1.1,1.8-1.8c0.1-0.1,0.3-0.1,0.4-0.1c0.3-0.1,0.5-0.4,0.6-0.5c0.1-0.1,0.4-0.1,0.5-0.3
	c0.2-0.2,0.3-0.5,0.5-0.7c0,0,0-0.2,0-0.3c0.6-0.6,0.9-1.3,1.1-2.3l0.1-0.4c0,0-0.3,0-0.3,0c-0.1-0.1-0.3-0.4-0.4-0.4
	c-0.1-0.1-0.4-0.1-0.4-0.2c-0.1-0.1-0.2-0.2-0.3-0.2c-0.5-0.1-1.2-0.3-1.7-0.5c-0.3-0.1-0.8-0.9-0.9-1.2c-0.2-0.3,0.1-0.7,0.2-1
	c0.1-0.2,0.1-0.4,0.2-0.6c0-0.1,0.1-0.1,0.1-0.2c0.1-0.1,0-0.1,0-0.2c0.1-0.2,0.2-0.4,0.4-0.7c0-0.1,0.1-0.1,0.2-0.1
	c0,0,0.6-0.8,0.6-0.8c0-0.1,0.1-0.2,0.1-0.2c0,0,0-0.1,0-0.1c0.1-0.2,0.1,0.2,0.1-0.1c0-0.2,0-0.3,0.1-0.5c0.1-0.1,0-0.4,0-0.6
	c0-0.1,0.1-0.3,0-0.4c-0.1-0.3-0.2-0.5-0.4-0.8c-0.1-0.2,0-0.4-0.1-0.6c0-0.1,0-0.1,0-0.2c-0.1-0.5-0.1-0.9-0.1-1.4
	c0-0.3,0.1-0.6,0-0.8c-0.1-0.4,0,0.1-0.1-0.3c-0.1-0.3,0-0.5,0-0.8c0,0-0.1-0.2-0.1-0.3c-0.2-0.5,0.2-0.8,0-1.3
	c-0.1-0.3-0.2-0.7-0.4-0.9c0,0-0.2-0.1-0.2-0.1c-0.2-0.2-0.2-0.4-0.4-0.6l-0.1-0.2L458.6,277.4L458.6,277.4z"/>
<path id="pr" style="fill:#E0E0E0;stroke:#FFFFFF;stroke-width:0.5;" d="M670.7,323.9c-0.3-0.3-0.5-0.6-0.9-0.8
	c-0.4-0.2-1.7-0.9-2.2-0.4c-0.1,0.1-0.1,0.2-0.1,0.3c-0.1,0.1-0.2,0.4-0.1,0.5c0,0.1,0.4,0.3,0.5,0.4c0,0,0.2,0,0.2,0
	c0.1,0.1,0.1,0.2,0.3,0.2c0.1,0,0.2,0,0.3,0c0.1,0,0.1,0.1,0.2,0.2c0,0,0.1,0,0.2,0c0,0,0.1,0.1,0.1,0.2c0,0.1,0.2,0.1,0.2,0.2
	c0,0.1,0,0.2,0,0.2c0.1,0.2,0.1,0.5,0.3,0.7c0.1,0.1,0.3,0.2,0.5,0.2c0.1,0,0.1,0.1,0.2,0.1c0.1,0.1,0.2-0.1,0.2-0.1
	c0.1,0,0.1,0,0.2,0c0.1,0,0.2-0.4,0.3-0.4C671.1,325.3,670.8,324.3,670.7,323.9L670.7,323.9z M666.8,329.1c-0.6-0.3-3.3-0.4-3.9-0.1
	c-0.4,0.2-0.5,0.7-0.8,0.8c-0.6,0.3-1.1,0.9-1.6,1.4c-0.2,0.2,0.1,0.6,0.2,0.6c0,0,1.5,0.3,1.6,0.3c0.4-0.2-0.1,0,0.1-0.2
	c0.3-0.3,2.4-0.1,3.1-0.8c0.1-0.1,0.9-0.1,1.1-0.2c0.6-0.3,1.6,0.4,2-0.1c0,0,0.2,0,0.3,0c0.1-0.1,0-0.4,0.1-0.4
	c0.6-0.6-0.4-1.1-1.1-1.1C667.6,329.3,667.7,329.4,666.8,329.1L666.8,329.1z M585.1,332.3c-0.3-0.1-0.9-0.1-1.1,0.1
	c-0.1,0.1-0.3,0.1-0.4,0.1c-0.1,0.1-0.2,0.3-0.3,0.5c0,0.1-0.2,0.1-0.3,0.2c0,0,0,0.3,0,0.4c0,0-0.1,0.1-0.1,0.1
	c-0.2,0.3,0.1,0.4,0.3,0.5c0.2,0.1,0.5,0,0.7,0.1c0.1,0,1.2,0.2,1.3,0.1c0.1-0.1,0.4-0.2,0.6-0.3c0.1-0.1,0.3-0.3,0.4-0.3
	c0.1-0.1,0.7-0.6,0.6-0.7c-0.2-0.2-0.6-0.3-0.8-0.4C585.7,332.6,585.5,332.5,585.1,332.3L585.1,332.3z M652.7,319.6
	c-0.7-0.3-1.5,0.1-2.2-0.1c-0.2,0-0.4-0.2-0.6-0.3c-1.4-0.3-3.3,0.1-4.6,0.3c-0.4,0.1-0.8-0.1-1.2,0c-1.4,0.2-2.8,0.4-4.2,0.6
	c-0.6,0.1-1.2-0.1-1.8-0.3c-0.5-0.1-1.2,0-1.8,0c-1.6,0-3.3-0.2-4.9,0c-0.4,0-0.9,0.2-1.3,0.1c-1.3-0.2-2.7-0.4-4.1-0.4
	c-1.3,0-2.3,0.2-3.5-0.2c-0.5-0.2-1.5-0.1-2-0.3c-0.7-0.2-1.5-0.5-2.2-0.7c-0.4-0.1-1.1,0-1.6,0c-0.8,0-1.8,0-2.6-0.2
	c-1.3-0.2-2.4-0.2-3.7,0c-0.2,0-1.3-0.1-1.4,0.1c-0.5,0.5-0.2,1.6-0.7,2.1c-0.1,0.1-0.1,0.4-0.2,0.4c-0.2,0.2-0.5,0.8-0.8,1.1
	c0,0-0.3,0.1-0.4,0.1c-0.1,0.1-0.2,0.4-0.4,0.4c-0.2,0.1-0.6,0.1-0.8,0.3c-0.1,0.1-0.3,0.4-0.5,0.4c-0.2,0-0.4,0.3-0.3,0.5
	c0.1,0.3,0.3,0.6,0.5,1c0.2,0.3,0.6,0.4,0.7,0.5c0,0,0.2,0.6,0.3,0.7c0.2,0.2,1.6,1.2,1.7,1.4c0.2,0.5,0.2,0.8,0.4,1.3
	c0.1,0.3,0.3,0.7,0.2,1c-0.2,0.5,0.1,0.9,0,1.3c-0.2,0.6-0.2,1.3-0.3,1.9c-0.1,0.7-0.4,1.3-0.5,1.9c-0.1,0.5-0.1,1.9-0.1,2.4
	c0,0.1,0,0.3,0,0.4c0,0,0.1,0,0.2,0c0.1,0.1,0,0.2,0.3,0.4c0.7,0.4,3.6,0.4,4.5,0.4c2.2,0,4.3,0.1,6.5-0.3c0.6-0.1,1.3-0.2,1.9-0.4
	c0.2-0.1,0.3-0.2,0.5-0.3c0.3-0.1,2.1-0.2,2.3-0.4c0.5-0.5,1.6-0.8,2.5-0.9c1.2-0.1,2.5,0.3,3.5,0.6c0.2,0.1,0.4,0,0.5,0
	c0.1,0,0.2,0.2,0.4,0.2c0.3,0,0.5,0,0.8,0c0.9,0.1,1.9,0.3,2.7,0.5c0.8,0.3,1.8-0.3,2.8,0.1c0.1,0,0.2,0,0.3,0
	c0.5,0.2,0.7,0.6,1.1,0.9c0.5,0.3,2.3,1.1,2.7,1c1-0.3,2.1-0.4,3-0.7c0.3-0.1,0.8,0.1,1.1-0.1c0.5-0.3,1.1-0.4,1.8-0.5
	c0.4-0.1,0.9-0.4,1.3-0.5c0.3-0.1,0-0.1,0.1-0.2c0.3-0.3,0.7-0.3,1.1-0.9c0.1-0.2,0.1-0.4,0.2-0.6c0.1-0.3,0.5-1.1,0.8-1.3
	c0.2-0.2,1.9-1.8,1.9-1.9c0.2-0.1,0.5-0.2,0.6-0.4c0.2-0.2,0.3-0.5,0.4-0.7c0.1-0.3,0,0.1,0.3-0.2c0.5-0.7,1-1.6,1.6-2.2
	c0.1-0.1,0.2-0.5,0.3-0.6c0.1-0.1,0.3-0.2,0.4-0.3c0.1-0.1,0.1-0.3,0.2-0.4c0.4-0.4,0.8-0.6,1.2-0.9c0,0,1.1-1.6,1.1-1.8
	c0.1-0.1,0.2-1,0.1-1.1c-0.2-0.3-0.5-0.6-0.7-0.9c0,0-0.2,0.1-0.2,0c-0.1-0.2-0.3-0.9-0.5-1c-0.4-0.2-1-0.7-1.4-1.1
	c-0.1-0.1-0.2,0-0.3,0c-0.2-0.1-0.4-0.3-0.5-0.4c-0.1-0.1-0.5,0-0.6-0.1C654.3,320.5,653.8,320.2,652.7,319.6L652.7,319.6z"/>
<path id="path12" style="fill:#E0E0E0;stroke:#FFFFFF;stroke-width:0.5;" d="M692.1,341.2c-0.4,0.1-0.8-0.1-1.2,0
	c-0.2,0-0.3,0.1-0.4,0.1c-0.6,0.1-1.3,0-1.9,0c-0.4,0-0.9,0.1-1.3,0.1c-0.2,0-0.4,0.1-0.6,0.2c-0.4,0.1-0.8,0.1-1.1,0.2
	c-0.1,0-0.5-0.1-0.6,0c-0.1,0-0.1,0.1-0.2,0.1c-0.2,0-1.2,0-1.4,0c-0.3,0.2-0.1,0.7-0.3,0.7c-0.2,0-1,0-1.1,0
	c-0.1,0-0.2,0.3-0.2,0.4c0,0.1-0.1,0.1,0,0.2c0.1,0.1,0.2,0.2,0.3,0.3c0.2,0.3,0.3,0.5,0.6,0.8c0.2,0.2,0.5,0.3,0.8,0.4
	c0.2,0.1,0.3,0.3,0.6,0.4c0.1,0,0.4-0.1,0.5,0c0.1,0.1,0.2,0.1,0.4,0.1c0.3,0.1,1.3-0.2,1.6-0.3c0.3-0.1,0.9,0,1.1-0.2
	c0.1-0.1,0.5,0,0.6,0c0.3,0,0.6-0.2,0.9-0.2c0.1,0,0.3,0,0.5,0c0.2-0.1,0.4-0.2,0.7-0.2c0.2,0,0.3,0,0.5-0.1c0,0,0,0,0,0
	c0,0,0.1,0,0.1,0c0.1,0,0.3,0,0.4-0.1c0.1,0,0.1-0.3,0.2-0.3c0.1-0.1,0.5-0.1,0.7-0.3c0.2-0.2,0.2-0.4,0.2-0.5
	c0-0.1,0.2-0.1,0.2-0.1c0.1-0.3,0.6-0.7,0.8-0.9c0.1-0.1-0.1-0.1-0.1-0.1c-0.1-0.3-0.1-0.2-0.4-0.3c-0.2-0.1,0,0,0-0.1
	c0,0-0.2-0.1-0.3-0.1c0,0,0-0.1,0-0.1C692.5,341.2,692.4,341.3,692.1,341.2L692.1,341.2z M688.4,321.8c-0.4-0.1-0.8,0.1-1.1,0.1
	c-0.1,0-0.2,0-0.4,0c-0.4,0-0.4,0.5-0.7,0.7c0,0,0,0.1,0,0.2c-0.1,0.1-0.5,0.1-0.6,0.1c-0.1,0-0.5,0.1-0.6,0.2c0,0-0.1,0.1-0.1,0.1
	c-0.1,0-0.1-0.1-0.1,0c0,0,0,0.1,0,0.1c-0.2,0.2,0,0.2,0.2,0.3c0.1,0,0.5,0,0.6,0c0,0,0-0.1,0.1-0.1c0.3-0.1,2.1-0.3,2.5-0.2
	c0.5,0.2,0.9,0.1,1.4-0.1c0,0,0.2,0,0.2,0c0.1-0.1,0-0.2,0-0.3c0-0.1,0-0.5,0-0.5C689.5,322.2,688.8,321.9,688.4,321.8L688.4,321.8z
	 M681.9,322c-0.4-0.3-1-0.4-1.5-0.4c-0.2,0-0.6-0.1-0.8,0c-0.2,0-0.3,0.1-0.5,0.1c-0.1,0-0.3,0-0.3-0.1c-0.1-0.1-0.6,0-0.8,0
	c-0.1,0-0.4,0-0.4,0.1c-0.1,0.2-0.1,0.4,0.1,0.5c0.2,0.1,0-0.2,0.2,0c0.3,0.3,0.9,0.4,1.3,0.6c0.6,0.3,1.4,0.8,2.2,0.8
	c0.2,0,0.3,0.2,0.5,0.1c0.1-0.1,0.5-0.1,0.5-0.2C682.7,322.8,682.2,322.9,681.9,322L681.9,322z"/>
<path id="vg" style="fill:#E0E0E0;stroke:#FFFFFF;stroke-width:0.5;" d="M700.1,307.4c-0.3-0.2-1-0.1-1.1,0.2
	c-0.1,0.1-0.1,0.3-0.2,0.4c-0.1,0-0.1,0-0.2,0c-0.4,0.1-0.9,0.2-1.3,0.3c-0.1,0-1.6-0.1-1.4,0.1c0.2,0.2,0.9,0.1,1.2,0.1
	c0.3,0.1,0.5,0.2,0.8,0.3c0.1,0,0.2,0,0.3,0c0.2,0.2,0.4,0.5,0.6,0.6c0.1,0.1,0.3,0,0.4,0.1c0.1,0,0.2,0.2,0.3,0.2
	c0.1,0,0.4,0.1,0.4,0.1c0.2,0.1,0.2,0.3,0.4,0.4c0.4,0.2,1,0.6,1.5,0.6c0.5,0,1-0.5,0.9-1c0-0.1-0.1-0.1-0.1-0.2c0,0,0,0,0,0
	c0-0.1,0-0.1,0-0.2c-0.2-0.4-1-0.3-1.1-0.4c-0.1-0.1,0-0.1-0.2-0.1c-0.1,0-0.1-0.3-0.1-0.4C700.8,308.1,700.6,308,700.1,307.4
	L700.1,307.4z M699.4,316.5c-0.4-0.1-0.7,0-1.1,0c0,0-1.5,0.2-1.5,0.2c0,0-0.1,0.3-0.1,0.4c-0.2,0.2,0.1,0.6,0,0.8
	c-0.1,0.2-0.1,0.4-0.2,0.6c-0.1,0.1,0,0.3,0,0.5c-0.1,0.1-0.1,0.3,0,0.4c0,0,0.1,0,0.1,0c0.1,0,0.2,0.1,0.3,0.1
	c0.1-0.1,0.4-0.3,0.4-0.4c0.2-0.6,0.4-0.8,0.8-1.2c0.1-0.1,0.3-0.1,0.4-0.1c0,0,0-0.1,0.1-0.1c0.1,0,0.2,0,0.2,0
	c0.1,0,0.2-0.1,0.3-0.2C699.7,317.4,699.7,317.3,699.4,316.5L699.4,316.5z M687.2,318.4c-0.2,0.1-0.5,0.2-0.8,0.3
	c-0.6,0.2-0.6-0.1-1.1,0.4c-0.1,0.1,1,0.4,1.1,0.4c0.1,0,0.6,0.4,0.7,0.4c0.3-0.1,0.5-0.1,0.6-0.4c0-0.1,0-0.2,0-0.3
	C688,318.9,687.5,318.6,687.2,318.4z M692.4,318.2c-0.5-0.1-1.1,0.1-1.6,0.1c-0.2,0-0.4,0-0.5,0c-0.1,0-0.3,0.2-0.4,0.3
	c-0.1,0.2,0,0.5-0.2,0.7c-0.2,0.2-0.6,0.3-0.8,0.6c-0.1,0.1-0.1,0.3-0.2,0.5c0,0.1,0,0.2-0.1,0.3c0,0-0.1,0-0.1,0
	c0,0-0.2,0.4-0.1,0.4c0.4,0.4,2.7-0.1,3-0.5c0.1-0.1,0.3-0.6,0.4-0.7c0.1,0,0.3,0,0.4,0c0.2-0.1,0.7-0.6,0.8-0.8
	c0.1-0.2,0.1-0.5,0-0.7C693,318.2,693.2,318,692.4,318.2L692.4,318.2z"/>
<path id="cu" style="fill:#E0E0E0;stroke:#FFFFFF;stroke-width:0.5;" d="M171.4,148.7c-0.7,0-1.3,0.3-1.9,0.5
	c-0.3,0.1-0.6,0.2-0.9,0.3c-0.2,0-1.3,0.2-1.3,0.2c-0.2,0.3,0.5,0.4,0.7,0.4c0.2,0,1.9,0,1.9,0.1c0,0,0.1,0.1,0.1,0.1
	c0,0,0.4,0,0.4,0c0.6,0,1.7,0.1,2.2,0c0.2-0.1,1.1,0,1-0.4c-0.3-0.8-1.5-0.8-1.8-1C171.8,148.9,171.8,148.8,171.4,148.7z
	 M181.3,148.2c-0.3,0-0.7,0.1-0.9,0.3c-0.1,0.1,0,0.6,0.1,0.6c0.2,0.1,0.4,0.1,0.6,0.2c0.4,0.1,1.1-0.5,1-0.6
	C181.9,148.4,182,148.4,181.3,148.2z M229.7,169.7c-0.7,0.2-1.4-0.2-2.1,0c-0.3,0.1-0.5,0.4-0.8,0.5c-0.4,0.2-0.8,0.2-1.1,0.4
	c-0.1,0.1-0.4,0.1-0.5,0.1c0,0-0.1,0.1-0.1,0.1c-0.1,0-0.7,0.3-0.8,0.3c-0.2,0.1-0.6,0.1-0.5,0.2c0.2,0.2,1.2,0,1.4-0.1
	c0.4-0.1,0.8,0,1.2-0.1c0,0,0.1,0,0.1,0c0.1,0,0.1,0,0.2,0c0.2,0,0.4,0,0.6,0c0.1-0.1,0.1-0.1,0.2-0.1c0.2-0.1,0.8-0.1,1-0.2
	c0.1,0,0.3,0,0.4,0c0.1,0,0.2-0.1,0.4-0.1c0.2,0,0.9,0,1.1-0.2c0.2-0.2,0-0.6-0.2-0.7C230.1,169.8,230,169.8,229.7,169.7
	L229.7,169.7z M218.1,170.1c0-0.4-0.4-0.7-0.7-0.9c0,0,0-0.1-0.1-0.2c-0.1-0.1-0.1-0.1-0.2-0.1c0,0,0-0.2,0-0.2
	c-0.1-0.2-0.3-0.5-0.4-0.7c-0.1-0.1-0.2-0.1-0.3-0.2c-0.1-0.1-0.2-0.2-0.4-0.3c-0.1-0.1-0.6-0.2-0.7-0.3c-0.1-0.1-0.1-0.1-0.2-0.2
	c-0.1,0-0.2,0-0.3-0.1c-0.1-0.1-0.2-0.2-0.4-0.3c-0.1,0-0.2,0-0.2,0c0,0,0-0.1,0-0.1c-0.2-0.2-0.5-0.2-0.7-0.4c0,0,0-0.1-0.1-0.2
	c-0.1-0.1-0.3-0.1-0.4-0.2c-0.3-0.3-0.8-0.6-1.1-0.8c-0.2-0.1-0.2-0.3-0.3-0.4c-0.2-0.2-0.6-0.8-0.9-0.9c-0.2-0.1-0.5,0.3-0.6,0.5
	c-0.4,0.6,0.8,1.1,1.1,1.4c0.3,0.3,0.6,0.5,1,0.8c0.2,0.2,0.5,0.5,0.7,0.8c0.1,0.1,0.1,0.2,0.1,0.3c0,0,0.3,0.2,0.4,0.2
	c0.3,0.3,0.5,0.6,0.9,0.8c0.2,0.1,0.2,0.4,0.3,0.5c0,0,0.2,0.1,0.2,0.2c0.2,0.2,0.4,0.5,0.7,0.7c0,0,0.1,0,0.2,0
	c0.5,0.2,0.7,0.5,1.2,0.6c0.4,0.1,0.6,0.4,0.9,0.3C218.1,170.3,217.9,170.7,218.1,170.1L218.1,170.1z M191,157c-0.3,0-0.7,0-1,0
	c-0.1,0-0.1-0.1-0.2-0.1c-0.3-0.1-0.5-0.4-0.8-0.4c-0.1,0-0.2-0.1-0.3-0.1c0,0-0.1,0-0.1,0c0,0,0,0.1,0,0c0-0.2,0.2-0.3,0.4-0.4
	c0.5-0.3,1.1-0.4,1.6-0.1c0.1,0,0.2,0,0.3,0c0.1,0.1,0.2,0.2,0.4,0.3c0.1,0,0.5,0.3,0.4,0.4c0,0.1-0.2,0.1-0.3,0.2
	C191.4,156.8,191.3,156.9,191,157L191,157z M202,157.7c-0.3,0-0.5,0-0.8,0c-0.2,0-0.4,0-0.6,0c-0.2,0-0.3,0.1-0.4,0.2
	c0,0-0.1,0.7,0,0.8c0.1,0.1,0.3,0.1,0.4,0.2c0.1,0.1,0.2,0.2,0.4,0.3c0.1,0.1,0.1,0,0.2,0c0.1,0,0.2,0.1,0.2,0.1
	c0.2,0.1,0.5,0.1,0.8,0.1c0,0,0.2,0.1,0.3,0.1c0.1-0.1-0.1-0.2-0.1-0.3c-0.1-0.1,0-0.5,0-0.7c0-0.2,0.1-0.8,0.1-0.8
	C202.4,157.7,202.3,157.7,202,157.7L202,157.7z M193.5,152.9c-0.4-0.1-1.2-0.3-1.6-0.1c0,0,0,0.1,0,0.1c-0.1,0.1-0.3,0.3-0.1,0.5
	c0.1,0.2,0.5,0.1,0.7,0.2c0.1,0.1,0.4,0.4,0.5,0.5c0,0,0,0.1,0,0.1c0,0.2,0.5,0.7,0.7,0.8c0.2,0,0.5-0.1,0.7-0.1c0,0,0-0.1,0-0.1
	c0.1,0,0.2,0.1,0.2,0c0.1-0.1,0.3-0.4,0.2-0.5c0,0-0.1-0.1-0.1-0.1c0,0,0-0.1,0-0.1c-0.1-0.1-0.2-0.1-0.3-0.2c0,0,0-0.1,0-0.1
	c-0.1-0.1-0.2-0.2-0.3-0.3C193.9,153.3,194.1,153.2,193.5,152.9L193.5,152.9z M252.3,179.6c-0.9-0.3-2.5-0.2-3.3-0.5
	c-0.2-0.1-0.4-0.2-0.6-0.3c-0.4-0.1-1.1,0-1.4-0.2c-0.5-0.2-1-0.5-1.5-0.7c-0.1,0-0.2,0-0.3,0c-0.4-0.2-0.7-0.4-1.1-0.5
	c-1.8-0.4-4.1-0.4-4.9-2c-0.1-0.2,0.5-0.4,0.6-0.4c0.6-0.2,3.1-0.2,3.5,0.1c1,0.7,2.5,1.1,3.8,0.7c0.2-0.1,0.6,0,0.8-0.1
	c0.4-0.2,1.4-1,1.9-0.8c0.1,0,0.1,0.1,0.2,0.2c0.3,0.1,0.6,0.1,0.8,0.3c0.8,0.6,0.8,0.7,1.2,1.4c0.1,0.2,0.4,0.2,0.4,0.3
	c0,0,0,0.1,0,0.2c0,0.1,0.3,0.2,0.4,0.3c0,0,0,0.1,0,0.2C253.2,178.2,253.3,179.1,252.3,179.6L252.3,179.6z M259.3,184.6
	c-0.3,0-0.6-0.2-0.9-0.4c-0.2-0.1-0.5,0-0.8-0.2c-0.3-0.1-0.5-0.4-0.8-0.5c-0.1-0.1-0.8-0.2-0.9-0.3c0,0,0-0.1,0-0.2
	c-0.3-0.3-0.8-0.9-1.2-1.3c-0.1-0.1,0-0.2-0.1-0.3c-0.1-0.1-0.5-1.5-0.3-1.5c0,0,0.4-0.2,0.5-0.4c0,0,0.9-0.1,1,0
	c0.3,0.3,1,0.5,1.3,0.7c0.2,0.1,0.3,0.5,0.4,0.7c0.2,0.2,0.4,0.4,0.6,0.6c0.4,0.5,1.1,0.8,1.5,1.1c0,0,0,0.1,0,0.2
	c0.1,0.1,0.2,0,0.3,0.1c0.4,0.4,0.5,1.1,0.3,1.6c0,0.1,0.1,0.3,0,0.4C260,185.4,259.7,184.7,259.3,184.6L259.3,184.6z M266.8,187.7
	c-0.2-0.4-0.3-1.2-0.6-1.7c-0.2-0.3-0.4-0.4-0.6-0.8c-0.3-0.6-0.5-1.9,0.5-1.5c0.3,0.1,0,0.1,0.1,0.2c0.1,0.1,0.2,0,0.3,0.1
	c0.7,0.7,0.6,2.3,1.1,3.2c0,0,0.2,0.7,0.2,0.7C267.5,188.1,267.1,188.1,266.8,187.7L266.8,187.7z M264.5,190.1
	c-0.2-0.2-0.6-0.5-0.8-0.6c-0.2-0.1-1.3,0.1-1.4-0.1c-0.3-0.3-0.6-0.2-1-0.4c-0.1-0.1-0.1-0.2-0.2-0.3c-0.1-0.1-0.3,0-0.4-0.1
	c-0.1,0,0-0.1,0-0.2c0,0-0.2-0.1-0.3-0.1c-0.1-0.1-0.1-0.7-0.1-0.8c0-0.1,0.1-0.6,0.3-0.7c0.2-0.2,0.4-0.4,0.5-0.5c0,0,0-0.2,0-0.3
	c0,0,0.2-0.1,0.3-0.3c0.1-0.3,0.2-1.6,0.4-1.8c0.4-0.4,1,0.3,1.3,0.4c0.2,0.1,0.3-0.1,0.4,0.1c0.2,0.2,0.5,0.3,0.7,0.5
	c0.1,0.1,0.2,0.7,0.4,0.9c0.2,0.2,0.4,0.4,0.6,0.6c0,0,0.1,1,0.2,1.1c0.2,0.4,0.4,0.9,0.4,1.4c0,0.1,0.1,0.9,0,1
	C265.5,190.6,265.3,190.9,264.5,190.1L264.5,190.1z M269.1,196.2c-0.3,0-0.6-0.2-0.9-0.3c-0.2,0-0.4,0-0.5,0c-0.5-0.1-1-0.5-1.4-0.7
	c-0.1-0.1-0.3,0-0.4-0.1c0,0-0.1-0.4-0.1-0.4c-0.1-0.2-0.2-0.2-0.4-0.4c0,0-1.2-0.8-1.4-1.1c-0.1-0.1-0.4-0.4-0.4-0.5
	c0-0.1,0-0.1,0-0.2c-0.1-0.1-0.7-0.3-0.4-0.6c0.8-0.8,2,0.1,2.9-0.2c2.4-0.8,3.4-0.4,5.9,0.3c0.3,0.1,0.8-0.1,1.1,0
	c0.4,0.2-0.1,0,0.1,0.2c0.1,0.1,0.3,0,0.4,0.1c0.4,0.2,0.6,1.4,0.3,1.7c-0.2,0.2-0.2,0.7-0.4,0.9c-0.4,0.4-0.6,0.8-1.1,1.1
	c-0.4,0.2-1.6,0.7-2,0.7c-0.1,0-0.2-0.1-0.4-0.1c-0.6,0.3-0.4,0.6-0.7,0.3C268.9,196.7,269.3,196.6,269.1,196.2L269.1,196.2z
	 M217.5,224.1c-0.5-0.1-0.8-0.6-1.1-0.7c-0.2-0.1-0.3-0.2-0.4-0.3c-0.2-0.1-0.6-0.1-0.7-0.2c-0.1-0.1-0.5-0.6-0.2-0.9
	c0.1-0.1,0.4-0.1,0.5-0.3c0.2-0.2,0.7,0.2,0.8,0.3c0.2,0.2,0.5,0.7,0.5,0.8C217.4,223.3,217.9,223.6,217.5,224.1L217.5,224.1z
	 M233.2,237.7c-0.8-0.4-1.5-1-2.4-1.3c-0.1,0-0.5,0-0.5-0.1c0,0,0-0.1,0-0.2c-0.3-0.3-0.6-0.7-1-1.1c-0.1-0.1-0.1-0.4-0.3-0.5
	c-0.1-0.1-0.5-0.1-0.5-0.2c-0.6-0.6-1.3-0.7-2.1-1.1c-0.5-0.2-0.9-0.6-1.3-0.9c-0.2-0.1-0.6-0.1-0.8-0.3c-0.8-0.4-1.1-0.9-1.4-1.6
	c0-0.1-0.1,0-0.2-0.1c-0.1-0.1,0-0.3-0.1-0.4c-0.1-0.3-0.5-0.4-0.7-0.8c-0.2-0.4-0.6-0.8-0.8-1.3c-0.1-0.2-1.1-0.6-0.9-1
	c0.2-0.4,2.6,0.9,2.7,1.1c0.1,0.1,0.4,0.2,0.5,0.3c0.3,0.3,0.6,0.5,0.9,0.8c0.1,0.1,0.4,0.1,0.4,0.2c0.1,0.1,0.1,0.4,0.4,0.5
	c0.5,0.4,1,0.7,1.4,1.1c0.2,0.2,0.4,0.2,0.6,0.3c0.2,0.1,0.4,0.5,0.7,0.6c0.1,0,0.1,0,0.2,0c0.2,0.2,0.4,0.5,0.8,0.7
	c0.1,0,0.2,0,0.3,0c0.1,0,0.1,0.2,0.3,0.3c0.2,0.2,0.4,0.1,0.6,0.2c0.4,0.1,1.6,1.3,2,1.5c0.5,0.3,1.3,0.7,1.6,1
	c0.2,0.2,1.2,1,1.2,1.2c0.2,0.5,0.2,1.3-0.1,1.6c-0.1,0.1-0.3,0-0.4,0.1c-0.1,0-0.3,0.2-0.4,0.1C233.8,238.2,234,238.3,233.2,237.7
	L233.2,237.7z M244.6,238.8c-0.8,0-1.5,0-2.3,0c-0.2,0-1.8,0.1-1.9,0.1c-0.6-0.3,1.5-1,1.7-1.1c0.5-0.4,1.6-0.2,1.9-0.4
	c0.1-0.1,0.2-0.4,0.4-0.4c0.2-0.1,0.8-0.3,1-0.2c0.2,0.1,0.6,1.3,0.4,1.5C245.5,238.5,245.2,238.7,244.6,238.8L244.6,238.8z
	 M248.4,244.1c0-0.6-0.6-1.3-1.1-1.6c-0.3-0.1-0.6-0.2-0.9-0.4c-0.5-0.3-0.9-0.8-1.4-1c-0.1,0-0.5-0.4-0.5-0.4
	c-0.3,0.3,0.4,1,0.4,1.1c0.3,0.4,0.7,0.6,0.9,0.9c0.6,0.9,1.3,1.5,1.9,2.3c0.1,0.1,0.4,0.8,0.7,0.5
	C248.4,245.5,248.4,244.7,248.4,244.1z M150.5,198.3c-0.6,0.3-1.5,0.7-1.9,1.1c-0.1,0.1-0.5,0.2-0.6,0.4c0,0,0,0.1,0,0.2
	c-0.2,0.2-2.3,1.5-1.9,2c0,0,0.1,0,0.2,0c0.3,0.3,0.4,0.1,0.8,0c0.3-0.1,0.7,0,1-0.1c0.4-0.1,0.5-0.5,0.7-0.6
	c0.3-0.2,0.7-0.4,0.9-0.6c0,0,0.1,0,0.2,0c0.5-0.5,1.4-0.6,2-0.9c0.2-0.1,0.6-1.4,0.4-1.7C152,198,151,198.3,150.5,198.3
	L150.5,198.3z M102.8,187.5c-0.9,0-1.9,0-2.8,0.4c-0.2,0.1-0.3,0.2-0.5,0.3c-0.4,0.1-2.5,0.3-2.7,0.5c-0.1,0.1-0.2,0.4-0.3,0.4
	c-0.1,0.1-0.4,0.2-0.4,0.4c-0.1,0.3-0.1,2.2-0.1,2.7c0,0.3,0,1.5,0.1,1.7c0.2,0.2,0.5,0.7,0.8,0.9c0,0,0.1,0,0.2,0
	c0.2,0.1,0.9,1.5,1.1,1.6c0.4,0.2,2.4,2.2,2.7,2.7c0,0.1,0.2,0.9,0.2,0.9c-0.2,0.1-1.3,0.8-1.3,0.8c-1.2,0-3.7-1.2-4.7-1.9
	c-0.2-0.1-1-0.8-1.2-0.5c-0.1,0.1-0.1,1.8-0.1,1.9c0.2,1,1.2,2.7,1.9,3.4c0.4,0.4,1,0.9,1.5,1.1c0.4,0.2,0.1-0.2,0.4,0.1
	c0.1,0.1,0.2,0.2,0.3,0.3c0,0,0.4,0,0.4,0c0.3,0.1,0.5,0.2,0.8,0.3c0.4,0.1,1-0.1,1.4,0c0.3,0.1,0.5,0.2,0.8,0.3
	c0.7,0.1,1.5-0.2,2.1,0c1,0.2,2.4-0.1,3.4-0.3c0.2,0,0.5,0.1,0.7,0c0.1,0,0.2-0.2,0.3-0.3c0.1,0,0.2,0,0.3,0c0.1,0,1.5-1.4,1.6-1.5
	c0.1-0.1,0.7,0,0.8-0.2c0.4-0.4,0.9-0.8,1.2-1.4c0.1-0.2,0.4-0.2,0.5-0.4c0.3-0.3,0.8-0.8,1-1.1c0.2-0.5-0.5-3.3-0.7-3.7
	c-0.3-0.6-0.8-1-1.1-1.5c-0.4-0.6-0.5-1.5-0.7-2.2c-0.1-0.2,0.2-1,0-1.1c-0.4-0.4-0.9-1-1.3-1.5c-0.2-0.2-0.7-0.3-0.8-0.4
	c-0.4-0.4-0.7-0.6-1.2-1c-0.2-0.1-0.4-0.2-0.6-0.3c-0.2-0.1-0.3-0.3-0.4-0.4c-0.1-0.1-0.4-0.1-0.5-0.2c-0.3-0.1-0.5-0.4-0.8-0.5
	c-0.2-0.2-0.6-0.2-0.7-0.4C104,187,103.3,187.4,102.8,187.5L102.8,187.5z M57.3,168.6l-0.9,0.9l-0.4,0.4c-0.4,0.4-0.9,0.7-1.3,1.1
	c0,0,0,0.1,0,0.2c-0.2,0.2,0-0.3-0.2,0.1c-0.1,0.2,0,0.5-0.1,0.7c-0.3,0.9-0.1,2.2,0.5,2.7c0.1,0.1,0,0.2,0.1,0.3
	c0.2,0.2-0.4,1.3-0.2,1.6c0.3,0.3,0.5,0.9,0.7,1.2c0.1,0.2,0.3,0.1,0.4,0.2c0.2,0.2,0.3,0.6,0.6,0.7c0.1,0.1,0.3-0.1,0.4,0
	c0.3,0.2,0.7,0.3,0.9,0.6c0.1,0.3,0.7,1.3,0.2,1.6c-0.8,0.4-1.8,0.4-2.5-0.1c-0.1-0.1-0.1-0.2-0.3-0.3c-0.2-0.1-0.6-0.1-0.7-0.3
	c-0.1-0.1-0.8,0-1-0.1c-0.2-0.1-0.8-0.2-1-0.2c-0.2,0.1-0.5,0.2-0.8,0.3c-0.2,0.1-0.9-0.2-1.1,0c-0.2,0.2-0.5,0.3-0.8,0.4
	c-0.1,0-0.1,0-0.2,0c-0.2,0.2-0.3,0.5-0.4,0.7c-0.3,0.3-1,0.2-1.2,0.4l-1.1,0.8c-0.3,0.1-0.6,0.6-0.9,0.7c-0.3,0.1-6.3,1.3-6.4,1.2
	c-0.6-0.3-1.3,0-1.9-0.4c-0.4-0.2-1.1-2-1.4-0.9c-0.3,1,0.2,2.7,0.7,3.2c0.1,0.1,0.9,0.4,1.2,0.5c0.1,0.1,0.6-0.1,0.7,0
	c1.2,1.2,4.3-1.8,4.8-2.3c0.2-0.2,4.4-0.2,5.1-0.2c0.4,0,2.2-0.3,2.5,0c0.2,0.2,0.8,0.7,1.1,0.9c0.4,0.4-1.4,2.5-1.4,2.8
	c0,0.3-0.7,1-0.4,1.4c0.3,0.3,1.4,0.1,1.9,0.4c0.1,0,0.8,0,0.9,0c0.1-0.1-0.1-0.3,0-0.4c0.1-0.1,0.5-0.1,0.5-0.2
	c0.4-0.4,0.6-0.8,1.2-1.1c0.1-0.1,0.4,0.1,0.5,0c0.3-0.1,0.5-0.7,0.7-0.9c0.1-0.1,0.5-0.1,0.5-0.2c0.2-0.2,0.1-0.8,0.4-1.1
	c0.1-0.1,0.4,0.1,0.5,0c0.2-0.2,0.3-0.5,0.5-0.7c0.1-0.1,5.9-0.8,6.4-0.5c0.4,0.2,1.1,0.3,1.4,0c0.3-0.3,1-0.1,1.2-0.4
	c0,0,0-2.3,0.4-3c0.2-0.3-0.3-1.3,0-1.6c0.1-0.1,0.3,0.1,0.4,0c0.1-0.1,0-0.6,0.2-0.7c0.1-0.1,0.6,0.1,0.7,0
	c0.3-0.3,0.8-0.6,1.1-0.9c0.1-0.1,0.6,0.1,0.7,0c0.5-0.5,0.7-0.9,1.6-0.9c0.3,0,1-0.7,1.6-0.4c0.5,0.3,2.5,0.5,2.7,0.7
	c0.2,0.2,0.5,0.7,0.9,0.5c0.9-0.5,3-2.1,4.4-1.4c0.2,0.1,0.4,0.4,0.5,0.5c0.1,0.1,0.3-0.1,0.4,0c0.1,0.1-0.1,0.3,0,0.4
	c0.1,0.1,0.4-0.1,0.5,0c0.7,0.7,2.5,0.5,3.4,0.2c0.5-0.2,1.4,0.1,1.8-0.2c0.3-0.3,1.4-1.6,1.9-1.9c0.2-0.2,0.6-0.1,0.9-0.4
	c0.5-0.5,0.2-1.4,0.7-1.9c0.5-0.5,1.4-0.9,1.9-1.4c0.5-0.5,1.8,1.4,2.3,0.9c1.4-1.4,2.5-3.8,3.7-4.9c0.1-0.1,0.1-0.4,0.2-0.5
	c0.3-0.3,3.8-1,4.6-1.4c0.8-0.4,0.8-1.4,1.1-1.6c0.3-0.3,0.7-0.7,1.1-1.1c0.1-0.1-0.1-0.3,0-0.4c0.7-0.7,2.2-1.2,3-1.9
	c0.4-0.4,2,0.9,2.3,1.1c0.2,0.1,1,0.1,1.2,0.2c0.4,0.1,0.5,0.3,0.9,0.5c1,0.5,3.4,0.5,4.6,0.5c1.7,0,3.6-0.5,5.3-0.2
	c0.5-0.3,0.5,0.3,0.7,0.4c0.5,0.2,1.6,0.1,2.1,0.2c1.6,0.3,3.2,0,4.6,0.7c0.5,0.2,2.3-0.4,3-0.2c0.4,0.1,0.8,0.4,1.1,0.5
	c0.3,0.2,4.1,0.2,4.4,0.5c0.2,0.2,0.4,0.6,0.7,0.7c0.4,0.1,0.9-0.2,1.2,0c0.8,0.4,2.2,1.3,2.7,2.3c0.4,0.7,0.3,1.8-0.2,2.3
	c-0.1,0.1-0.3-0.1-0.4,0c-1.6,1.6-4.3,1.1-6.5,1.1c-1.3,0-2.6,0.2-3.9,0c-1.8-0.2-2.7-0.7-4.4-0.7c-0.1,0-1-0.1-1.1,0
	c-0.2,0.2-0.1,2.4,0.2,2.7c0.1,0.1,0.4,0.3,0.7,0.5c0.9,0.7,2.6,0.6,3.4,1.4c0.1,0.1,0.2,0.5,0.4,0.7c0.6,0.6,1.4,0.7,1.9,1.2
	c0.1,0.1,0.1,0.4,0.4,0.5c0.6,0.4,1.4,0.7,1.8,1.1c0.6,0.6,3.6-0.2,4.4,0.2c0,0,0.1,0.3,0.2,0.4c0.1,0.1,0.7,0,0.9,0.2
	c0.1,0.1-0.1,0.3,0,0.4c0.5,0.5,1.3,1,2.1,1.2c0.4,0.1,1-0.1,1.4,0c1,0.2,1.6,0.5,2.3,0.7c0.2,0.1,0.5-0.1,0.7,0
	c0.9,0.5,1.7,1,2.1,1.4c0.3,0.3,1.2,0.3,1.4,0.5c0.2,0.2,0,0.9,0.7,1.2c0.8,0.4,3.7,0,4.4-0.4c0.3-0.1,0.1-0.5,0.4-0.7
	c0.6-0.6,1.7-2.2,2.8-1.6c0.6,0.3,0.8,0.4,1.1,0.9c0.1,0.2-0.2,0.9,0,1.1c0.3,0.3,0.4,1.2,0.7,1.8c0.3,0.6,1.8,0.4,2.3,0.5
	c0.3,0.1,0.3,0.3,0.4,0.4c0.3,0.3,1.5-0.2,1.9,0c0.6,0.3,1,0.1,1.6,0.4c1.1,0.6,2,0.6,3.4,0.4c0.6-0.1,1.3,0.1,1.9,0
	c1.4-0.3,1.4-0.5,3-0.5c0.6,0,2,0.6,2.1,0.5c0.2-0.1,0.2-0.4,0.4-0.5c0.1-0.1,0.2,0.1,0.4,0c0.4-0.2,1.4-1,1.6-1.4
	c0.1-0.1-0.1-0.4,0-0.5c0.4-0.4,1.4,0.5,1.6,0.7c0.1,0.1,0.6,0,0.7,0.2c0.7,0.7,0.5,1.6,0,2.5v2.1c2.3,1.6,4.7,2.9,6.4,4.6
	c0.5,0.5,1.8,0.3,2.1,0.7c0.4,0.4,3.9,0.5,3.9,0.7c0,2.5,1,3.9,3.2,4.6c3.7,1.2,5.1,0,7.1,0c0.4,0,0.8-0.2,1.1,0
	c0.8,0.8,2.8,1.8,3.5,2.5c0.3,0.3,1.8,0,2.1,0.4c0.2,0.2-0.2,0.5,0,0.7c0.2,0.2,0.5-0.1,0.7,0c1.3,0.7,2.9,1.9,3.5,2.5
	c0.7,0.7,3.4,1.2,4.6,1.8c1.6,0.8,5.8-2.3,6.4-2.8c0.1-0.1,5.7,0.6,6,0.7c0,0,0.4,0.6,0.7,0.7c0.4,0.2,1.5-0.3,1.8,0
	c0.7,0.7-0.7,0,0.4,1.1c1.1,1.1,2.9,1.1,3.5,2.5c0.4,0.9,0,1.5,0.4,2.5c1.2,3.6,2.3,8.7,4.6,11c0.5,0.5,0.5,3.7,1.1,4.2
	c0.5,0.5,1.1,1.1,1.8,1.4c0.2,0.1,0.7-0.2,0.7,0c0,0.5,2.1,2.5,2.8,3.2c0.6,0.6,2.6,0.9,3.5,1.8c0.9,0.9,1.8,2.5,2.5,3.2
	c1.2,1.2,8.7,1,10.6,0.4c1-0.3,10.9-0.1,11,0c1.2,1.2,2.2,2.3,4.2,2.8c0.4,0.1,1.9,0.1,2.1,0.4c0.7,0.7,0.4,3,0.4,4.2
	c0,0.7,1.2,2.3,0.7,2.8c-0.6,0.6-0.8,1.5-1.4,2.1c-0.9,0.9-7,4.5-8.5,5.3c-0.7,0.4-3.1,0.2-3.5,1.1c-0.1,0.2,0.1,0.5,0,0.7
	c-0.1,0.1-0.9-0.1-1.1,0c-0.8,0.8-0.4,0.9-1.4,1.4c-1.1,0.5-2.2,2.9-2.8,3.5c-0.6,0.6-0.1,2.5-0.7,3.2c-0.5,0.5-1.3,1.9-1.1,2.1
	c0.9,0.9,2.5-0.2,3.5,0.4c0.5,0.2,2.6,1,3.2,0.7c0.5-0.3,0.8-0.5,1.4-0.7c0.7-0.2,1.8,0.3,2.5,0c2-1,3.9-1.8,5.3-3.2
	c0.6-0.6,3.4,0.5,3.9,0.7c0.9,0.4,6.9,0.4,8.1,0.4c0.2,0,1.3,0.8,1.8,0.4c2.3-2.3,9.4,0.1,12.4-1.4c0.9-0.5,9.5,0.1,9.9,0.4
	c0.3,0.1,2.5,1.1,2.8,1.4c0.2,0.2,1.7,0,2.1,0c4.3,0,8.8,1.4,13.1,2.1c2.6,0.4,6.3-0.6,9.2,0.4c0.1,0,1.1,0.6,1.4,0.4
	c0.2-0.2-0.2-0.5,0-0.7c0.2-0.2,0.5,0.2,0.7,0c0.3-0.3,0.4-0.8,0.7-1.1c0.8-0.8,2.8-1,3.2-1.8c0.2-0.4,0.7-2.1,1.1-2.1
	c0.4,0-1.4,4.3-0.7,4.9c0.2,0.2,6.3-1.2,6.7-1.4c0.5-0.3,1.2-1.2,1.4-1.4c0.3-0.3,0.5-2.4,1.4-2.8c0.4-0.2,1,0.2,1.4,0
	c4.5-2.3,9.9-0.6,14.1-1.4c0.7-0.1,3.1,0.5,3.5,0c0.8-0.8,0.2-3.1,1.1-3.9c0.3-0.3-0.6-0.5-0.7-0.7c-0.1-0.2,0.2-0.9,0-1.1
	c-1.7-1.7-4.6-1-6.7-2.1c-0.2-0.1-2.8-1.7-2.8-1.8c-0.4-0.4-0.5-1-1.1-1.4c-0.4-0.3-0.6-0.9-1.1-1.1c-0.3-0.1-1.6-0.2-1.8-0.4
	c-0.3-0.3-1.4-2.8-1.8-3.5c-0.5-0.9-2.5-2.1-3.2-2.8c-0.3-0.3-1.4-0.2-1.8-0.4c-3-1.5-12.3-3.7-14.8-1.1c0,0-5.1-1.5-6-1.8
	c-2.1-0.7-5,0.4-7.4,0.4c-1.2,0-5.2-0.6-4.2-2.5c1.1-2.3,3.7-2.2,5.7-3.2c0.2-0.1,0.9,0.2,1.1,0c0.2-0.2-0.2-0.5,0-0.7
	c0.8-0.8,2.6-2.5,1.8-4.2c-0.6-1.2-2.4-2.1-3.2-2.8c-0.2-0.2-0.5,0.2-0.7,0c-2.7-2.7-11.8,0.2-13.4-1.4c-1.2-1.2-2.8-1.6-4.6-2.5
	c-1.2-0.6-2.1-1.6-3.2-2.5c-0.6-0.5-1.5-0.4-2.1-0.7c-3.3-1.7-1.4,3.7-2.8,3.2c-0.2-0.1-5.5-3-5.7-3.2c-0.5-1,1.1-2.5,0.4-3.2
	c-0.5-0.5-3.5,0.7-4.9,0.7c-1,0,0.2-2.3-0.4-2.8c-0.5-0.5-1.6-1.6-2.1-2.1c-0.2-0.2-3.8-2.2-4.2-2.5c-1-0.5-2.7-2.6-3.2-3.5
	c-0.1-0.3-1-0.7-0.7-0.7c0.4,0,0.4,1.1,0,1.1c-0.3,0-0.2-0.5-0.4-0.7c-0.2-0.2-0.5,0.2-0.7,0c-0.2-0.2,0.1-0.5,0-0.7
	c-0.3-0.6-2.7-2.7-3.2-3.2c-0.2-0.2-0.9,0.2-1.1,0c-0.2-0.2,0.2-0.5,0-0.7c-0.5-0.5-1.2-0.4-1.8-0.7c-0.6-0.3-2.9-5.3-4.2-3.9
	c-1.6,1.6,2.3,3.3,2.5,3.5c0.5,0.5,1.9,1.2,2.5,1.8c0.3,0.3,0.1,1,0.4,1.4c0.4,0.7,1.7,1.7,2.1,2.1c0.1,0.1,3.4,1.2,3.9,1.4
	c0.4,0.2,1.5-0.3,1.8,0c0.7,0.7,1.8,1.8,2.5,2.5c0.5,0.5-3.3,3.1-3.5,3.5c-0.2,0.3-2.5,1-2.8,0.7c-1.2-1.2-0.4-4.3-1.4-5.3
	c-0.6-0.6-1.4-0.9-2.5-1.4c-1.2-0.6-1.3-1.6-2.1-2.1c-1.4-0.9-2.8-1.8-4.2-2.5c-0.7-0.3-1.4-2.1-1.8-2.1c-3,0-3.7-0.8-6-1.9
	c-0.8-0.4-2.5-2.5-3.4-3.2c-0.5-0.4-1.7-2.6-2-3.1c-0.8-1.2-2.1-1.7-3.2-2.8c-0.4-0.4-2.2,1-2.7,0.6c-0.7-0.7-1.2-1.3-2.1-2.3
	c-0.7-0.7-2,0-2.8-0.4c-0.2-0.1-0.6-1.8-0.8-2c-0.4-0.4-1.1,0.9-1.7,0.6c-0.2-0.1-0.1-0.6-0.4-0.7c-1.9-1-3.1-2-4.6-3.5
	c-0.2-0.2-0.5,0.2-0.7,0c-1.7-1.7-3.4,0.2-4.2-0.7c-0.3-0.3-0.8-1.5-1.1-1.8c-1.1-1.1-1.4,0-2.1-1.4c-0.1-0.3-3.2,0-3.5,0
	c-4.1,0-8.1-0.9-11.7-2.1c-1.6-0.5-2.1-0.7-3.2-1.8c-0.4-0.4-0.3-1-0.7-1.4c-0.6-0.6-1.1,0.2-1.1-1.1v-0.9c-0.6-0.4-1-1.5-1.6-1.8
	c-0.2-0.1-0.9-0.2-1.1-0.4c-0.5-0.5-1.4-1.4-1.9-1.9c-0.1-0.1-0.6-0.3-0.7-0.4c-0.2-0.2-0.2-0.7-0.5-0.9c-1-0.5-2.2-1.1-2.8-1.8
	c-0.1-0.1-0.3,0.1-0.4,0c-0.4-0.4-3.1-3.3-3.4-3.4c-0.6-0.1-1.4-0.3-1.9-0.5c-0.1,0,0-0.1,0-0.2c-0.1-0.1-0.1-0.1-0.2-0.2
	c-0.2-0.1-0.6,0.1-0.9,0c-1.5-0.8-3.9-0.9-4.9-1.9c-0.3-0.3-2.9,0.6-3.5,0c-0.9-0.9-3.6-0.9-5.1-1.4c-0.7-0.2-1.4-1-2.1-1.2
	c-1.2-0.4-2.8-0.7-3.7-1.6c-0.1-0.1-0.3,0.1-0.4,0c-0.1-0.1,0.1-0.4,0-0.5c-0.2-0.2-0.6-0.3-0.7-0.5c-0.1-0.3-0.2-0.7-0.4-0.9
	c-0.1-0.1-0.9,0-1.1,0c-2.5,0-3.9-0.4-6.4-0.4c-1.4,0-5.7-0.5-5.7-0.5c-0.4,0.4-0.7,0.7-1.1,1.1c-0.1,0.1-0.3-0.1-0.4,0
	c-0.1,0.1-0.1,0.6-0.4,0.7c-0.1,0.1-0.9-0.6-1.2-0.7c-0.6-0.2-0.2-0.7-0.9-1.1c-0.1-0.1-0.6,0.1-0.7,0c-0.1-0.1-0.4-0.2-0.5-0.4
	c-0.1-0.1,0.1-0.3,0-0.4c-0.2-0.2-1.2-0.5-1.6-0.9c-0.1-0.1-0.6,0-0.7,0c-0.3,0-1.2-0.4-1.8-0.2c-0.7,0.3-2.7,1.5-3.7,1.1
	c-0.7-0.4,0.2,0-0.2-0.4c-0.1-0.1-0.4-0.1-0.5-0.2c-1.1-0.8-0.9-1.4-2.3-2.1c-1.4-0.7-3.9-0.1-5.3-0.5c-0.1,0-0.1-0.3-0.2-0.4
	c-0.3-0.2-1.8,0.3-2.1,0c-0.6-0.6-3.2-0.4-3.9-0.7c-0.8-0.4,0.8,0.1-0.5-0.4c-1.4-0.5-3.8,0.1-5.3-0.2c-0.5-0.1-5.8-0.8-6.4-0.5
	c-0.2,0.1-1.2,0.2-1.4,0.4c-0.5,0.5-1.1,0.9-1.8,1.2c-1.1,0.5-2.4,0.2-3.2,1.1c-0.1,0.1-0.4-0.1-0.5,0c-0.1,0.1-0.6,1-0.7,1.1
	c-0.1,0.1-3.4,0.2-3.5,0.4c-0.4,0.4-4.6,1.2-5.5,1.4c-0.8,0.2-1.2-0.2-1.9-0.4c-0.8-0.1-1.7,0-2.5,0c-0.6,0-1.2,0-1.8,0
	c-0.2,0-0.2,0.5-0.4,0.4c-0.9-0.9-3.2-1.3-4.8-0.9c-0.5-0.3-0.5,0.3-0.7,0.4c-0.1,0-0.8-0.1-0.9,0c-0.1,0.1,0.1,0.3,0,0.4
	c-0.2,0.2-2.1,0.2-2.7,0.4c-0.5,0.1-1.4-0.2-1.8,0.2c-0.3,0.3-0.2,0.9-0.5,1.2c-0.4,0.4-2.1,1.4-2.8,1.4L87,154
	c-0.7,0.1-1.7-0.1-2.4,0.1c-0.2,0.1-0.5,0.3-0.7,0.4c-0.4,0.2-0.8,0-1.1,0.4c-0.1,0.1-0.1,0.4-0.3,0.5c-0.1,0.1-0.4-0.1-0.5,0
	c-0.3,0.3-1,0.3-1.5,0.4c-0.7,0.2-1.4,0.4-2,0.5c-0.5,0.1-1.1,0.1-1.6,0.3c-0.7,0.2-1.4,0.5-2.1,0.7c-0.6,0.2-1.4,0-2,0.2
	c-0.5,0.1-1,0.4-1.4,0.6c-0.1,0.1-0.2,0-0.4,0c-0.5,0.1-0.9,0.5-1.4,0.6c-0.3,0.1-0.7,0.1-1.1,0.3c-0.5,0.3-1,0.9-1.5,1.1
	c-0.5,0.3-1.4,0.3-2,0.5c-0.3,0.1-1.7,1.1-2,1.5c0,0,0,0.2,0,0.3c-0.3,0.5-0.7,0.7-1,1.2c-0.2,0.4-0.3,1.2-0.5,1.4
	c-0.3,0.3-0.9,0.7-1.2,1.1c0,0-0.2,0-0.3,0c-0.1,0.1-0.3,0.4-0.4,0.5c-0.1,0.1-0.3,0.6-0.4,0.7c-0.2,0.3-0.9,0.7-1.2,0.9
	c-0.1,0.1,0,0.3-0.2,0.4C57.6,168.7,57.4,168.6,57.3,168.6L57.3,168.6L57.3,168.6z"/>
<path id="ky" style="fill:#E0E0E0;stroke:#FFFFFF;stroke-width:0.5;" d="M199.7,268.4c-0.1,0.1-0.3,0.1-0.4,0.2
	c-0.2,0.1-0.3,0.3-0.4,0.4c0,0-0.1,0-0.1,0c-0.1,0-0.1,0.1-0.2,0.1c-0.1,0.1-0.5,0.2-0.7,0.2c-0.2,0.1-0.3,0.2-0.5,0.3
	c-0.1,0-0.2,0-0.3,0.1c0,0-0.1,0.1-0.1,0.1c0,0-0.1,0-0.2,0c-0.1,0.1-0.2,0.1-0.3,0.2c-0.1,0.1-0.3,0.2-0.4,0.3c0,0,0,0-0.1,0
	c0,0,0,0.3,0,0.3c0.3,0.5,0.8,0.6,1.4,0.4c0.1-0.1,0.4-0.1,0.5-0.2c0.1,0,0.1-0.1,0.2-0.2c0.1,0,0.1,0,0.2,0c0.1,0,0.3-0.1,0.4-0.2
	c0.1-0.1,0.3,0.1,0.5,0c0.1,0,0.3,0,0.3-0.1c0.1-0.1,0.1,0,0.2-0.1c0.1,0,0.1-0.2,0.2-0.2c0.1-0.1,0.3-0.1,0.4-0.2c0,0,0,0,0-0.1
	c0.1-0.1,0.1-0.1,0.2-0.1c0,0,0-0.1,0.1-0.2c0.1-0.1,0.2-0.3,0.3-0.4c0-0.1-0.1-0.3-0.1-0.3c-0.1-0.1-0.1-0.4-0.2-0.4
	c0,0-0.1,0-0.1-0.1c0,0,0,0,0-0.1c0,0-0.1,0-0.2-0.1C200.2,268.2,200.1,268.2,199.7,268.4L199.7,268.4z M191.8,269.9
	c-0.3-0.1-0.8-0.2-1.2-0.1c-0.1,0-0.1,0.1-0.2,0.1c-0.1,0-0.3,0-0.4,0.1c0,0,0,0,0,0.1c-0.1,0.1-0.2,0.1-0.2,0.1
	c0,0-0.1,0.2-0.2,0.2c-0.1,0.1-0.2,0.1-0.3,0.2c0,0.1-0.1,0.3-0.2,0.3c-0.1,0.1-0.4,0.2-0.2,0.4c0,0.1,0.1,0.1,0.1,0.1
	c0.1,0.1,0.1,0.1,0.1,0.2c0,0,0.5,0.1,0.6,0.1c0.1,0,0.2,0,0.3-0.1c0.1,0,0.3,0,0.3,0c0.2-0.1,0.4-0.2,0.5-0.3c0,0,0.4-0.1,0.4-0.1
	c0.4-0.2,1.1-0.4,1.3-0.8C192.7,270.1,192.1,270,191.8,269.9L191.8,269.9z M152.9,280.2c-1.2-0.2-2.3,0.8-3.4,0.8
	c-0.5,0-1.3,0-1.8,0.2c-0.2,0.1-0.7-0.1-0.9-0.1c-0.3,0-1.6-0.4-1.8-0.2c0,0,0,0.3,0,0.4c0,0.4,0.1,0.3,0.2,0.6
	c0.1,0.1,0.1,0.2,0.1,0.3c0,0.1,0.1,0.1,0.2,0.1c0.1,0.1,0.1,0.2,0.2,0.3c0.2,0.2,1,0.4,1.2,0.5c0.1,0,0.2,0,0.3,0
	c0.1,0,0.1,0.1,0.2,0.1c0.1,0,1.4,0.1,1.4,0.1c0.3-0.1,0.6-0.1,0.9-0.2c0.2-0.1,0.9,0.2,1.1,0c0.1-0.1,0.3,0,0.5-0.1
	c0.6-0.3,1.5-0.4,2.1-0.2c0.2,0,0.7,0.2,0.9,0.1c0.1,0,0.1-0.1,0.2-0.1c0.2,0,0.6-0.5,0.6-0.6c0-0.1,0.1-0.5,0.1-0.4
	c0,0.1-0.1-0.1-0.1-0.1c0-0.1,0-0.2,0-0.2c0,0-0.2-0.1-0.2-0.2c0-0.1,0.1-0.1-0.1-0.2C154.5,280.4,153.8,280.6,152.9,280.2z"/>
<path id="jm" style="fill:#E0E0E0;stroke:#FFFFFF;stroke-width:0.5;" d="M293.8,321.7c-1.3-1.7-2.5-2.2-4.5-2.9
	c-0.3-0.1-0.7,0.1-1,0c-0.5-0.2-0.9-0.6-1.4-0.8c-0.7-0.2-2.1-0.2-2.5-0.6c-0.2-0.2-3,0-3.5-0.2c-0.7-0.4-1.6-0.4-2.5-0.6
	c-0.5-0.1-0.9-0.5-1.4-0.6c-0.5-0.1-1.1-0.2-1.6-0.2c-0.7-0.1-2.9-0.3-3.6-0.1c-0.5,0.1-1.2,0.4-1.8,0.2c-0.7-0.2-2.2,0-2.8-0.2
	c-0.6-0.3-1.4-0.4-2.1-0.6c-0.6-0.2-0.8-0.5-1.4-0.8c-0.2-0.1-0.5,0-0.6-0.1c-1.7-0.9-2.7-0.7-4.5-0.1c-0.3,0.1-1.3,0.3-1.5,0.5
	c-0.2,0.2,0.1,0.9-0.1,1.1c-0.1,0.1-1.1,0-1.2,0c-2.2,0-5.1-0.4-6.9,0.2c-0.8,0.3-1.6,1.4-2.1,1.9c-0.1,0.1-0.6,0.2-0.8,0.4
	c-0.5,0.5-0.9,1-1.4,1.2c0,0-0.3,0.5-0.4,0.6c-0.2,0.2-0.1,2-0.2,2.4c-0.2,0.3-0.3,1.3,0,1.6c0.1,0.1,1.9,0.3,2.1,0.4
	c1.8,0.4,3.4,0.4,5.1,0c0.2-0.1,1,0.2,1.1,0c0.1-0.1,0.8-0.5,1-0.4c1.2,0.4,1.7,1.3,2.1,2.1c0.2,0.5,0,1.2,0.2,1.8
	c0.1,0.2-0.1,0.6,0,0.9c0.2,0.6,0.7,0.7,0.9,1.1c0,0.1-0.1,0.2,0,0.2c0.2,0.2,0.7,0.6,0.9,0.8c0.3,0.1,1.1,0.1,1.2,0.2
	c0.5,0.5,1.6,1.1,1.9,1.6c0.1,0.2,0.4,0.4,0.5,0.5c0.1,0.1-0.1,0.3,0,0.4c0.3,0.3,0.3,0.5,0.6,0.9c0.1,0.1,0.6,0.4,0.6,0.6
	c0.1,0.4,0.1,0.7,0.2,1c0.3,0.6,1.2,0.8,1.5,1.1c0,0,0.3,0,0.4,0c0.5,0,0.9-0.2,1.2-0.4c0.3-0.2,2.6-0.1,3.2-0.1
	c0.2,0,2.1-0.8,2.5-0.4c0.3,0.3,3.6,0.2,4.1,0.8c0.2,0.2,0.4,0.4,0.6,0.6c0.1,0.1,0.1,0.5,0.2,0.6c0.2,0.2,0.4,0.2,0.6,0.4
	c0.2,0.1,1.3,1.3,1.5,1.5c0.1,0.1-0.1,0.2,0,0.2c0.2,0.2,1,0.5,1.1,0.6c0.1,0.1,0.2,0.4,0.2,0.5c0.3,0.3,1,0.7,1.2,1
	c0.3,0.3,1.3-0.1,1.5-0.2c0.1,0,0.3,0.1,0.4,0c0.1-0.1,0.4-1.9,0.4-1.9c-0.1-0.1-0.3,0.1-0.4,0c-0.3-0.3-0.6-0.4-0.9-0.6
	c-0.1-0.1-0.1-0.4-0.1-0.5c-0.8-0.8,0.6-2.4,1.2-2.8c0.3-0.1,3.2-0.6,3.5-0.2c0.1,0.1,0,0.2,0.1,0.4c0.1,0.2,2,2,2.5,1.8
	c0.7-0.4,1.1-0.9,1.5-1.4c0.1-0.1,0.2,0.1,0.2,0c0.1-0.1-0.1-0.4,0-0.5c0,0,0.5-0.6,0.5-0.6c0-0.1-0.1-0.3,0-0.4
	c0.1-0.2,0.7-0.7,0.9-0.9c0.1-0.1,0.2-0.7,0.4-0.9c0.1-0.1,0.4-0.1,0.5-0.2c0,0,0.3,0,0.4,0c0.6,0,1.5-0.2,2,0c0,0,0.6,0.1,0.6,0.1
	c0.1,0.1,0.1,0.2,0.2,0.2c0.3,0,0.4,0.3,0.6,0.4c0.1,0.1,0.8,0,0.9,0.1c0.6,0.6,1.4,1.3,1.9,1.8c0.2,0.2,0.2,0.8,0.4,1
	c0.1,0.1,0.6,0,0.8,0.1c0.2,0.1,0.2,0.3,0.4,0.4c0.3,0.1,0.7-0.1,1,0c2.2,0.6,6.2,0.5,8.4-0.2c0.7-0.2,1.2,0.2,1.6-0.2
	c0.1-0.1-0.1-0.7,0-0.9c0.3-0.8,0.4-1.2,0.4-2c0-0.2,0.3-0.6,0.1-0.9c-0.4-0.7-0.6-1.4-1.1-2.1c-0.2-0.3-0.7-0.6-0.8-0.8
	c-0.2-0.4-0.4-0.9-0.8-1.2c-0.2-0.2-0.2-1-0.4-1.2c-0.1-0.3-0.6-0.6-0.9-0.8c-0.2-0.1-0.6,0.1-0.8,0c-0.4-0.4-1.4-0.7-2.1-1
	c-0.7-0.3-2.1-0.4-2.9-0.5c-0.6-0.1-0.5-0.3-0.9-0.5c-0.5-0.2-1.8-0.5-2.4-0.5c-0.4,0-2.7-0.3-2.9-0.5c-0.1-0.1,0-0.2,0-0.2
	C297.3,323.9,294.6,322.3,293.8,321.7z"/>
<path id="tt" style="fill:#E0E0E0;stroke:#FFFFFF;stroke-width:0.5;" d="M836.2,557.3c-0.5,0.2-1,0.3-1.5,0.5c-0.1,0.1-0.3,0-0.4,0
	c-0.3,0.1-0.7,0.3-1.1,0.4c-0.1,0-0.3,0-0.4,0c0,0-0.1,0.2-0.1,0.2c-0.1,0.1-1.5,0.8-1.6,0.8c-0.5,0.2-1.3,0.1-1.7,0.5
	c-0.2,0.2-0.3,0.6-0.4,0.7c-0.2,0.2-0.7,0.2-0.9,0.5c-0.2,0.2-0.1,0.3-0.2,0.5c-0.1,0.1-0.4,0.2-0.4,0.4c0,0.1,0,0.1,0,0.2
	c0,0-0.1,0-0.2,0c-0.1,0.1-0.9,1.6-0.6,1.9c0.1,0.1,0.3,0.1,0.4,0.1c0.1,0,0.1,0.1,0.2,0.2c0.1,0.1,0.3,0,0.4,0
	c0.7,0.3,1.6-0.2,2.1-0.5c0.5-0.3,1.4-0.5,1.9-0.8c1.2-0.6,2-1.2,3.3-1.9c0.2-0.1,0.4-0.4,0.4-0.5c0.2-0.3,0.6-0.3,0.9-0.6
	c0,0,0-0.1,0-0.2c0.1-0.1,0.3-0.1,0.4-0.2c0.4-0.2,0.7-0.9,1-1.1C838,558.3,837.8,556.8,836.2,557.3L836.2,557.3z M822.5,574.2
	c0.1,0,0.4-0.1,0.4,0c-0.5,0.5-0.3,0-0.5,0.1c-0.7,0.2-1.4,0.5-2.1,0.7c-0.3,0.1-1.5,0.2-1.8,0.4c-0.4,0.2-0.8,0.8-1.1,1
	c-0.4,0.2-1.4,0.4-1.9,0.5c-0.1,0-0.3-0.1-0.4,0c-0.7,0.3-1.4,0.6-2.1,0.9c-0.5,0.2-1.3,0-1.9,0c-1.1,0-2.2,0-3.4,0.1
	c-1.2,0.1-2.5,0.2-3.7,0.3c-0.4,0-0.7,0-1.1,0c-0.4,0-0.7-0.3-1.1-0.1c-0.1,0.1-0.1,0.2-0.2,0.3c-0.2,0.2-0.6,0.2-0.7,0.4
	c0,0.1,0,0.3-0.1,0.4c-0.7,0.3-1.2,0.7-1.2,1.6c0,0,0,0.2,0,0.3c0.3,0.3,2.9,0.8,3.5,1c0.3,0.1,1.1-0.1,1.3,0.2
	c0.2,0.2,0.6,0.6,0.8,0.8c0.1,0.1,0,0.4,0.1,0.6c0.1,0.2,0.4,0.6,0.4,0.7c0,0.1,0,0.4,0.1,0.4c0.1,0.1,0.2,0.1,0.4,0.2
	c0.3,0.2,0.7,1,0.5,1.4c0,0.1-0.1,0.1-0.2,0.2c-0.1,0.3-0.1,0.7-0.3,1c-0.4,0.7-1.1,1.6-0.8,2.6c0.2,0.5,0.4,1.1,0.8,1.4
	c0.1,0.1,0.3,0,0.4,0.1c0.1,0.1,0.3,1.1,0.3,1.3c0,0.4-0.1,0.6-0.3,1c-0.1,0.3,0,0.6-0.1,0.9c-0.2,0.5-1,1.1-1.8,1.4
	c-0.5,0.2-1.1,0.8-1.5,1.1c-0.4,0.3-2.1,0.5-2.2,0.5c-0.1,0.1-0.5,0.3-0.7,0.4c-0.6,0.2-1.3-0.2-1.9,0c-0.6,0.2-1.3,0.9-1.8,1.3
	c-0.1,0.1-0.4,0.3-0.4,0.4c-0.1,0.2-0.1,0.6-0.2,0.7c-0.2,0.2-1.3,1.3-0.8,1.6c0.3,0.1,0.7,0,1,0.1c1.4,0.2,2.4,0.4,3.8,0.2
	c0.7-0.1,1.4,0.2,2,0.1c1.1-0.1,2.2-0.3,3.4-0.3c0.7,0,1.4,0.1,2.1,0.3c1,0.2,2.2-0.1,3.2-0.2c0.6-0.1,1.2,0,1.8-0.1
	c1.1-0.2,1.6,0.1,2.6-0.4c0.5-0.3,1.9,0.3,2.5,0.3c0.7,0,2.8-0.7,3.4-1.2c0.2-0.2,0.6-0.7,0.8-1.1c0.2-0.4,0.6-0.4,0.9-0.6
	c0.3-0.3,0.9-0.9,1.1-1.2c0.5-0.9-0.9-3.1-1.3-3.5c-0.1-0.1,0-0.2,0-0.3c-0.1-0.3-0.3-1-0.4-1.2c-0.2-0.5,0-1.9-0.3-2.3
	c0-0.1-0.1,0-0.2-0.1c-0.1-0.1-0.2-0.5-0.3-0.6c-0.1-0.2-0.5-0.3-0.6-0.6c-0.1-0.2-0.1-0.5-0.2-0.8c-0.1-0.3-0.3-0.4-0.4-0.7
	c-0.1-0.2-0.1-0.5-0.2-0.7c-0.1-0.2-0.3-0.3-0.4-0.4c-0.2-0.3-0.2-2,0-2.3c0.1-0.2-0.1-0.6,0-0.9c0.1-0.4,0.2-0.7,0.4-1.1
	c0-0.1,0-0.3,0-0.4c0-0.1,0.3-0.3,0.4-0.4c0.2-0.4,0.6-0.6,1.1-0.7c0.4-0.1,1.1-0.9,1.3-1.1c0.1-0.1,0.4-0.1,0.4-0.2
	c0-0.1,0-0.1,0-0.2c0-0.1,0.5-0.2,0.6-0.3c0.1-0.1,0.4-0.5,0.4-0.6c0.3-0.6-0.2-1.6,0.1-2.1c0.2-0.4,0.1-0.8,0.3-1.1
	c0.8-1.7-0.3-0.8-0.6-1.1C823.6,574.1,823.2,574.2,822.5,574.2L822.5,574.2z"/>
<path id="aw" style="fill:#E0E0E0;stroke:#FFFFFF;stroke-width:0.5;" d="M519.7,524.4c-0.1-0.3-0.4-0.5-0.6-0.7
	c-0.2-0.1-0.2-0.1-0.4-0.2c-0.1,0-0.2-0.4-0.4-0.4c0,0-0.1,0-0.1,0c-0.1,0-0.1-0.1-0.1-0.2c-0.1-0.1-0.3-0.3-0.4-0.4
	c0,0-0.1,0-0.1,0c-0.1-0.1-0.2-0.3-0.2-0.4c-0.1-0.1-0.5-0.3-0.6-0.5c-0.1-0.3-0.5-0.6-0.6-0.9c-0.1-0.2-0.3-0.6-0.4-0.7
	c-0.1-0.1-0.4-0.2-0.4-0.2c0,0-0.2-0.3-0.2-0.3c-0.1,0-0.3-0.2-0.4-0.3c0,0-0.5,0-0.5,0c-0.2,0.1,0,0.3-0.1,0.4
	c-0.3,0.3-0.4,0.6-0.4,1.1c0,0,0,0.2,0,0.2c0.1,0.1,0.2,0.5,0.2,0.6c0,0.2,0.1,0.4,0.2,0.6c0,0.2,0,0.4,0,0.6c0,0,0,0,0,0
	c0,0,0,0.1,0,0.1c0,0,0,0.2,0,0.2c0,0,0.1,0,0.1,0c0.2,0.2,0.3,0.4,0.4,0.6c0.1,0.1,0.3,0.3,0.4,0.4c0.2,0.3,0.5,0.6,0.8,0.8
	c0,0,0.2,0.1,0.2,0.1c0,0,0,0.1,0,0.1c0,0,0.2,0.1,0.2,0.1c0.1,0.3,0.6,0.7,0.9,0.8c0.1,0,0.2,0.2,0.2,0.3c0.3,0.2,0.6,0.2,0.8,0.3
	c0,0,0,0.1,0.1,0.1c0,0,0.1,0,0.1,0c0.1,0,0.1,0.1,0.2,0.2c0,0,0.1,0,0.1,0c0,0,0,0.1,0,0.1c0,0,0.1,0,0.1,0c0,0,0,0.1,0,0.1
	c0,0,0,0,0,0c0,0,0.1,0,0.1,0c0.1,0,0.1,0.1,0.2,0.1c0.3,0.1,0.3-0.1,0.4-0.3c0-0.1,0.1-0.1,0.1-0.2c0-0.1,0-0.2,0-0.3
	c0-0.1,0-1.6,0-1.7C519.9,524.8,519.9,524.7,519.7,524.4L519.7,524.4z"/>
<path id="gd" style="fill:#E0E0E0;stroke:#FFFFFF;stroke-width:0.5;" d="M797.6,527.8c-0.5,0.1-0.9,0.4-1.3,0.6
	c-0.2,0.1-0.4,0.1-0.6,0.1c-0.4,0.2-0.6,0.5-0.7,0.8c0,0-0.2,0.1-0.2,0.2c-0.1,0.3-0.2,0.9-0.4,1.2c-0.3,0.4-0.6,0.5-0.8,0.9
	c-0.2,0.5-0.3,1.1-0.4,1.6c0,0.1-0.2,0.5-0.1,0.6c0.3,0.3,0.6,0.3,0.9,0.4c0.2,0.1-0.1,0.1,0.2,0.2c0.1,0,0.1,0,0.2,0
	c0.1,0,0.1,0.1,0.2,0.2c0.2,0.1,0.7,0.3,0.9,0.4c0.6,0.1,1.6,0.2,2.2,0c0.2-0.1,0.7,0.1,0.8-0.2c0.3-0.6,0.1-1.3,0.4-1.9
	c0.2-0.4,0.5-0.8,0.8-1.1c0-0.1,0-0.2,0-0.2c0,0,0.1,0,0.1-0.1c0.1-0.1,0-0.4,0.1-0.5c0.2-0.8,0.2-1.6-0.2-2.3
	c-0.1-0.2-1.5-1.2-1.5-1.2C798.1,527.5,798,527.6,797.6,527.8z M799.3,524.7c0-0.1,0.2-0.3,0.1-0.2c-0.4,0.7-0.2,1.5,0.3,1.9
	c0.1,0.1,0.6-0.2,0.6-0.3c0.1-0.2,0.2-0.3,0.3-0.4c0.3-0.3-0.6-0.9-0.7-1.1C799.9,524.5,799.5,524.4,799.3,524.7z M804.2,517.6
	c-0.1,0.2-0.3,0.3-0.5,0.4c-0.1,0.1-0.1,0.2-0.2,0.2c-0.2,0.1-0.5,0.2-0.6,0.4c0,0.1-0.1,0.2-0.2,0.2c0,0.1-0.1,0.3-0.1,0.4
	c-0.1,0.1-0.2,0.2-0.2,0.2c0,0-0.2,0.6-0.1,0.7c0,0.1,0.2,0.3,0.3,0.3c0.2,0.2,0.6,0.2,0.8,0.2c0.1,0,0.1,0.1,0.1,0.1
	c0.1,0,0.1,0,0.2,0c0.1,0.1,0.1,0.1,0.2,0.1c0.1,0,0.4-0.1,0.5-0.2c0.1-0.2,0.2-1.3,0.1-1.5c-0.1-0.1,0.1-0.3,0-0.4
	c-0.1-0.1,0,0.1-0.1-0.1c0-0.1,0-0.3,0-0.4C804.5,518,804.5,517.8,804.2,517.6L804.2,517.6z"/>
<path id="vc" style="fill:#E0E0E0;stroke:#FFFFFF;stroke-width:0.5;" d="M811.9,487.4c-0.6,0.6-1.3,1-1.9,1.6c0,0-0.1,0-0.1,0
	c-0.1,0-0.2,0.1-0.2,0.1c-0.4,0.4,0,1.3-0.4,1.6c-0.2,0.2-0.5,0.7-0.8,1c-0.1,0.1-0.2,3.6,0,3.8c0.1,0.1,0.7,0.9,0.8,0.9
	c0.4,0.8-0.2,2-0.2,2.8c0,0.3,0.1,1.7,0.4,1.9c0.1,0,0.4,0,0.5,0c0.1,0,0.5,0.1,0.6,0c1.2-0.6,1.3-2.3,1.9-3.4c0.2-0.4,0-1,0.1-1.4
	c0.1-0.3,0.3-0.3,0.4-0.5c0.1-0.2-0.1-0.5,0-0.8c0.1-0.4,0.3-0.7,0.5-1c0.1-0.2-0.1-0.5,0-0.6c0.3-0.4,0.2-0.1,0.2-0.4
	c0-0.2,0.3-1.2,0.1-1.4c-0.1-0.1-0.3-0.2-0.4-0.2c-0.1-0.1,0.1-0.4,0-0.5c-0.6-0.6-0.7-2.4-1.2-3
	C811.9,487.7,812.3,487.4,811.9,487.4z M808.2,509.3c-0.2,0.2-0.3,0.4-0.4,0.6c-0.1,0.2,0.2,0.7,0.1,0.8c0,0-0.1,0-0.1,0
	c-0.1,0.1-0.4,0.4-0.5,0.6c-0.2,0.6,0.2,1,0.8,0.8c0,0,0-0.2,0.1-0.2c0.2-0.4,0.2-0.8,0.3-1.2c0.1-0.3,0.3-0.5,0.4-0.8
	c0-0.1,0.1-0.6,0.1-0.6C808.8,509.1,808.4,509.1,808.2,509.3z M804.2,514.3c-0.2,0.4-0.4,0.4-0.5,0.9c0,0.1-0.2,0.6-0.1,0.7
	c0.1,0.1,0.6,0.1,0.8,0.1c0.2-0.1,0,0,0.2-0.2c0.1-0.1,0.5-0.2,0.7-0.3c0,0,0.1-0.2,0.1-0.2c0.5-0.7-0.2-0.4-0.2-0.8
	C805.1,514.1,804.7,514.1,804.2,514.3z"/>
<path id="bb" style="fill:#E0E0E0;stroke:#FFFFFF;stroke-width:0.5;" d="M869.3,495.8c-0.6,0.4-1.1,0.6-1.8,0.8
	c-0.3,0.1-1.8-0.1-2.1-0.2c-0.8-0.1-1,0.2-1.6-0.4c-0.3-0.3,0-1.8-0.1-2.2c-0.1-0.3-0.2-0.5-0.2-0.8c0-0.2,0-0.5-0.1-0.7
	c-0.3-0.5-0.4-1.1-0.6-1.7c-0.2-0.5,0.1-1.3,0.1-1.9c0-0.3-0.3-2-0.1-2.2c0.4-0.4,2.5-0.8,3.1-0.6c0.3,0.1,0.9,1.9,1.1,2.3
	c0.1,0.3,0.4,0.4,0.5,0.6c0,0,0.3,0.6,0.4,0.8c0,0,1.2,1.5,1.2,1.5c0.1,0.1,0.4,0.3,0.5,0.4c0,0.1,0,0.1,0.1,0.2
	c0,0,0.5,0.2,0.5,0.2c0.1,0.1,0.4,0.4,0.5,0.6c0.2,0.2,0.5,0.3,0.6,0.4c0.2,0.2,0.2,0.8,0.2,1.1c0,0.3-0.2,1.3-0.5,1.5
	c-0.2,0.1-0.9,0.3-1.1,0.2c-0.1,0-0.2-0.1-0.3-0.1C869.5,495.6,869.4,495.9,869.3,495.8C869.2,495.7,869.5,495.7,869.3,495.8z"/>
<g id="g3030">
	<path id="path3028" style="fill:#E0E0E0;" d="M806.2,401.3c-0.5-0.1-0.8,0.6-1.2,0.8c-0.3,0.1-1.3,0-1.5-0.1
		c-0.3-0.3-0.1-1.9-0.1-2.4c0-0.1-0.3-0.5-0.1-0.6c0.4-0.4,0.1-1.2,0.5-1.6c0.1-0.1,0.4-0.1,0.6-0.1c1.2,0,0.7,0.8,1,1.4
		c0.1,0.3,0.4,0.5,0.5,0.8c0,0.1-0.1,0.2,0,0.2C806.5,400.2,806.8,399.2,806.2,401.3z"/>
	<path id="path3026" style="fill:#E0E0E0;" d="M812,385.3c-0.9,0.2-1.7,1.1-2.2,1.6c-0.1,0.1-1.9,0.3-1,1.2c0.1,0.1,0.4,0.1,0.5,0.1
		c1.2,0,1.1-0.9,1.9-1.6c0,0,0-0.2,0-0.2c0.1-0.1,0.2,0,0.2,0c0.3-0.1,0.4-0.5,0.5-0.6c0.1-0.1,0.3,0,0.4-0.1
		C812.4,385.5,812.4,385.2,812,385.3z"/>
	<path id="path3024" style="fill:#E0E0E0;" d="M795.8,381.2c-0.2,0-0.2,0.2-0.4,0.4c-0.1,0.1-0.5,0.4-0.6,0.5
		c-0.3,0.3,0.3,2.1,0.4,2.2c0.5,0.5,1.7,2.4,0.9,3.2c-0.1,0.1-0.3-0.1-0.4,0c-0.2,0.2-0.2,0.3-0.2,0.4c-0.1,0.1-3.1-0.4-3.1-0.4
		c-0.3-0.3-1-0.5-1.2-0.6c-0.6-0.3-1.6,0.3-2.1,0c-0.3-0.1-0.4-0.4-0.9-0.2c-1,0.3-2.3,1.9-1.5,2.8c0.1,0.1-0.1,0.4,0,0.5
		c0,0.1,0.2,0,0.2,0.1c0.1,0.2,0.2,2.4,0.2,2.9c0,1.3,0.1,2.5,0.1,3.8c0,0.4-0.4,1-0.1,1.5c0.3,0.6,0.8,0.5,1.2,0.8
		c0.2,0.1,0.5,0.8,0.6,0.9c1.1,0.6,1.4,0.4,2.6,0.4c0.9,0,1.7-0.8,2-1.8c0.1-0.3,0-0.7,0.1-1c0.1-0.1,0.3-0.2,0.4-0.4
		c0.1-0.3,0.7-1.9,0.4-2.2c-0.4-0.4-0.3-1.5-0.5-2.1c-0.1-0.3-0.4-0.4-0.4-0.8c0-0.2-0.1-1.2,0-1.4c1.3-1.3,3.3,1.8,4.8,1.1
		c0.1-0.1,1-0.2,1-0.2c0.3-0.3,0.6-0.8,1.1-1.1c0.1-0.1,0.5,0.1,0.6,0c0.4-0.4,2-0.6,2.1-0.8c0.4-0.4,1.3-0.8,1.6-1.1
		c0.3-0.3-0.3-0.9-0.4-1c-0.4-0.4-3.5-0.3-3.9-1.1c-0.2-0.4-0.8-1.1-1-1.4c-0.3-0.3-0.2-3.2-1.1-4.1c-0.3-0.3-1.3,0.2-1.4,0.2
		C796.8,381.1,796.6,380.9,795.8,381.2z"/>
</g>
<path id="mq" style="fill:#E0E0E0;" d="M821,452.4c-2.6,0-0.7-2.7-0.9-2.9c-0.2-0.2-4.8-0.6-5.5-0.2c-0.2,0.1-1.5,0.5-1.8,0.2
	c-0.2-0.2-0.1-0.3-0.2-0.6c0-0.1-0.4-0.4-0.5-0.5c-0.3-0.3,0.1-1.8-0.1-2.1c-0.1-0.3-0.4-0.8-0.5-0.9c-0.1-0.1-0.4,0-0.5-0.2
	c-0.1-0.2,0-0.2-0.1-0.4c-0.1-0.1-0.4-0.2-0.5-0.4c-0.3-0.6-0.9-1.5-1.4-2c-0.1-0.1-0.6-2.8-0.8-3.4c-0.1-0.3-1.1-2.6-1-2.6
	c0.4-0.4,2.8-0.3,3.4-0.1c0.7,0.2,1.3,0.8,2,1.1c0.6,0.3,2.1,0.6,2.5,1c0.1,0.1,0.7,0.6,0.8,0.8c0,0.1-0.1,0.2,0,0.2
	c0.1,0.1,0.2,0,0.2,0c0.7,0.3,1.6,1.4,1.9,2c0.4,0.8-0.8,1.6-0.2,2.6c0,0,0.1,0,0.1,0c0,0,0.1,0.1,0.1,0.1c0.6,1.2,2.6,1.5,3.5,2.4
	c0.1,0.1,0.2-0.1,0.2,0c0.1,0.1,0.7,2.8,0.6,2.9C821.9,449.9,821.7,451.5,821,452.4z"/>
<path id="lc" style="fill:#E0E0E0;stroke:#FFFFFF;stroke-width:0.5;" d="M817.6,463.1c-0.4,0.3-1.4,0.7-1.6,1.2
	c-0.3,0.6-0.4,2.9-0.5,3c-1,1.4-1.2,2.8-1.2,4.6c0,0.2-0.1,0.6,0,0.8c0.1,0.1,0.2,0.1,0.4,0.1c0.1,0-0.1,0.2,0,0.2
	c0.1,0.1,0.6,0.5,0.6,0.5c0.2,0.1,0.6,0.1,0.9,0.2c1.3,0.7,1.7,2.4,3.2,1.6c0.7-0.4,0.9-0.4,1.2-1.1c0.1-0.2,0.8-3.7,0.8-3.9
	c-0.3-0.5,0,0.1-0.2-0.1c-0.1-0.1,0.1-0.2,0-0.2c-0.4-0.4-0.5-1-0.5-1.6c0-0.8,0.6-3,0.2-3.8c-0.3-0.6-0.5-1-0.9-1.4
	c-0.2-0.2-0.7-0.2-0.9-0.4c0,0-0.3-0.3-0.4-0.2C818.5,462.8,818.3,463,817.6,463.1z"/>
<path id="dm" style="fill:#E0E0E0;stroke:#FFFFFF;stroke-width:0.5;" d="M804.4,424.3c-0.4,0-0.8,0-1.2,0c-0.1,0-0.8-0.1-0.9-0.2
	c0,0,0-0.1-0.1-0.1c0,0-0.1,0-0.1,0c-0.3-0.1-0.5-0.5-0.6-0.6c-0.1-0.1,0.2-1.9,0.2-1.9c0.1-0.1-0.1-0.8-0.1-0.9
	c-0.1-0.2,0.1-0.5-0.1-0.7c-0.1-0.2-0.2-0.5-0.4-0.7c-0.8-0.8-1.5-1.6-2.2-2.6c-0.3-0.4-1-0.6-1.1-0.9c0,0,0-0.1,0-0.2
	c0-0.1-0.1-0.2-0.2-0.2c0,0,0-2.8,0.1-3c0.2-0.5,0,0,0.1-0.1c0.1-0.1-0.1-0.4,0-0.5c0.3-0.3,0.6-0.6,1-0.8c0,0,0.2-0.3,0.2-0.4
	c0.1-0.1,0.2,0,0.2-0.1c0.2-0.1,0.3-0.3,0.4-0.4c0.1-0.1,0.5,0.2,0.6,0.2c0.3,0.2,0.6,0.4,0.9,0.7c0.2,0.2,0.7,0.3,0.9,0.4
	c0.1,0.1,0.3,0.2,0.4,0.3c0.1,0.1,0.8,0.2,0.8,0.2c0.2,0.3,0.8,1.1,1.1,1.2c0.3,0.2,0.7,0.3,0.9,0.5c0.1,0.1,0.2,0.2,0.4,0.3
	c0.2,0.1,0.5,0.2,0.6,0.3c0.1,0.1,0.2,0.4,0.2,0.4c0.2,0.4,0.3,1.3,0.2,1.8c-0.1,0.2-0.1,0.7-0.1,1c0.2,0.5,0.3,2.5,0.1,3
	c-0.1,0.4,0,0.9-0.1,1.4c-0.1,0.3-0.2,1-0.4,1.2c-0.1,0.1,0,0.5-0.1,0.6C805.8,424,805.5,424.4,804.4,424.3z"/>
<path id="ag" style="fill:#E0E0E0;stroke:#FFFFFF;stroke-width:0.5;" d="M786.8,364.7c-0.8-0.3-2.4,0.2-3-0.4c0,0-0.2,0-0.3,0
	c-0.2-0.2-0.6-0.3-0.8-0.5c-0.1-0.1-0.4-0.9-0.4-1c0-0.1,0.1-0.6,0-0.6c-0.2-0.2-0.3-0.6-0.5-0.9c0,0,0-0.1,0-0.2
	c-0.2-0.2,0,0.3-0.2-0.1c-0.1-0.2,0.1-0.6,0.2-0.7c0.8-0.8,0.8-0.3,1.3-0.5c0.2-0.1,0.1-0.4,0.2-0.4c0.1-0.1,0.4-0.2,0.4-0.3
	c0.4-0.4,1.4-1.3,2.1-1c0.8,0.4,0.9,1.3,1.5,1.9c0.2,0.2,0.9,0.4,1.1,0.7c0,0,0,0.1,0,0.2c0,0,0.1,0,0.2,0c0.1,0.1,0.3,0.4,0.4,0.5
	c0.1,0.1-0.1,1-0.1,1.1c-0.2,0.2,0,0.7-0.1,1c-0.1,0.2,0,0.8-0.1,0.9C788.6,364.7,788.1,364.8,786.8,364.7L786.8,364.7z
	 M785.4,345.7c-0.5,0-0.9-0.4-1.4-0.7c-0.1,0-0.3,0-0.4-0.1c-0.2-0.2-0.4-0.4-0.7-0.5c-0.1,0-0.3,0.1-0.4,0c-0.1,0-0.9-0.5-1-0.5
	c0,0,0-0.1,0-0.2c-0.2-0.2-0.5-0.3-0.6-0.4c0,0-0.4-1.8-0.4-1.9c0.2-0.4,0.3-0.6,0.4-1c0.1-0.2,0.1-0.7,0.3-0.9c0,0,0.1,0,0.2,0
	c0,0,0-0.1,0-0.2c0.2-0.2,1.3,0.1,1.5,0.2c0.2,0.1,0.9,0.2,1.1,0.4c0.4,0.4,0.6,0.9,1,1.2c0.1,0.1,0,0.3,0.1,0.4
	c0.1,0.1,0.5,0.3,0.6,0.5c0,0.1-0.1,0.2,0,0.2c0.2,0.1,0.2,0.1,0.4,0.2c0,0,0,0.1,0,0.2c0,0,0.1,0,0.2,0c0.1,0.1,0.1,0.4,0.2,0.5
	c0,0,0.1,0,0.2,0c0.2,0.2,0.1,0.7,0.2,1c0.1,0.1,0.5,0.7,0.3,1c0,0-0.1,0-0.2,0c0,0,0,0.2,0,0.3
	C786.5,345.6,786.6,346.1,785.4,345.7L785.4,345.7z"/>
<path id="kn" style="fill:#E0E0E0;stroke:#FFFFFF;stroke-width:0.5;" d="M751.4,355.9c-0.2-0.1-0.4-0.3-0.5-0.4
	c-1-0.3-1.1-0.5-1.6-1.1c0,0,0-0.2,0-0.3c-0.6-1.1,1.3-2.5,2.2-2.5c0.9,0,0.9,0.1,1.4,0.6c0.2,0.2,0.5,0.2,0.6,0.4
	c0.3,0.5,0.3,1.4,0.5,1.9c0.1,0.4,0.8,0.5,0.8,0.8c0,0.4,1.3,1.4,0.8,1.9c-0.1,0.1,0,0.3-0.2,0.3c-0.1,0-0.6,0.1-0.7,0
	c-0.2-0.2-0.2-0.4-0.4-0.6c-0.2-0.2-0.5-0.4-0.7-0.5c0,0,0-0.1,0-0.2c0,0-0.1,0-0.2,0c-0.1-0.1-0.1-0.3-0.2-0.4
	c-0.1-0.1-0.2,0-0.3-0.1c0,0,0-0.1,0-0.2C752.9,355.7,752.2,355.9,751.4,355.9z M760.1,362.5c-0.5,0-0.8-0.1-1.1-0.3
	c-0.3-0.2-0.2-0.6-0.4-0.8c-0.1-0.1-0.4-0.3-0.5-0.5c-0.1-0.1-0.2-0.6-0.1-0.8c0.2-0.4,0.8-0.8,1.1-1c0.1,0,0.1-0.3,0.3-0.4
	c0,0,0.3-0.2,0.3-0.2c0,0-0.1,0.1-0.1,0.1c0.4,0,0.4-0.1,0.6,0.3c0.1,0.2,0.2,0.2,0.3,0.3c0.4,0.4,0.5,1.3,0.5,1.9
	C760.8,361.7,760.6,361.8,760.1,362.5z"/>
<path id="ai" style="fill:#E0E0E0;stroke:#FFFFFF;stroke-width:0.5;" d="M742.9,322c-0.9,0.3-1.1,1-1.8,1.6
	c-0.2,0.2-0.5,0.4-0.7,0.5c-0.2,0.2-0.3,0.6-0.5,0.9c-0.2,0.2-1.4,0.9-1.1,1.2c0.3,0.3,1.1,0,1.5,0c0.3,0,0.3-0.3,0.5-0.4
	c0.3-0.2,0.6-0.2,0.8-0.4c0,0,0.1-0.2,0.1-0.3c0.1-0.1,0.2,0,0.3,0c0.2-0.1,0.6-0.3,0.7-0.4c0.1-0.1,0.4,0,0.4,0
	c0.2-0.1,0.5-0.2,0.7-0.3c0.3-0.2-0.1-0.1,0.1-0.2c0.4-0.2,0.5-0.3,0.7-0.7c0-0.1,0.4-0.2,0.4-0.3c0,0,0.1-1.2,0.1-1.2
	C744.9,321.7,743.7,321.9,742.9,322L742.9,322z"/>
<g id="an">
	<path id="bq" style="fill:#E0E0E0;stroke:#FFFFFF;stroke-width:0.5;" d="M574.9,540.1c0-0.2-0.4-0.1-0.5-0.1
		c-0.2-0.2-0.3-0.6-0.4-0.6c-0.2-0.2-0.6-0.7-0.8-0.9c-0.2-0.2,0.2-1.4,0.3-1.5c0,0-0.1-1-0.1-1.2c0-0.2,0.1-1.1,0-1.2
		c-0.1-0.1-0.3-0.3-0.5-0.4c-0.1,0-0.2,0-0.2-0.1c-0.2-0.2-0.5-0.5-0.7-0.6c-0.1-0.1-1.4,0-1.6-0.1c-0.2-0.1-0.7-0.5-0.9-0.7
		c-0.2-0.2-0.1-0.4-0.5-0.6c-0.3-0.2,0-1.9,0.2-2.1c0,0,0-0.2,0-0.2c0.2-0.1,0.4-0.1,0.6-0.2c0.1,0,0.1-0.1,0.1-0.1
		c0.8-0.3,1.1,0.7,1.5,1.1c0.1,0.1,0.3,0.3,0.4,0.4c0,0,0.1,0,0.1,0c0.1,0.1,0.1,0.3,0.3,0.4c0.2,0.1,0.3,0.1,0.4,0.2
		c0.1,0.1,0.1,0.2,0.2,0.3c0,0,0.3,0.1,0.4,0.2c0.1,0.1,0.2,0.3,0.3,0.4c0.3,0.2,1.8-0.2,1.9-0.1c0.1,0.1,0.3,0.3,0.5,0.3
		c0.2,0.1,0.5,0.2,0.6,0.4c0.2,0.5,0.1,1.4,0.2,1.6c0.1,0.2,0.1,0.2,0.1,0.4c0,0.1,0.2,0.4,0.1,0.5c-0.3,0.4-0.2,0.9-0.3,1.4
		c0,0.2,0.1,0.4,0,0.6c-0.1,0.2-0.3,1-0.3,1.1c-0.1,0.1-0.3,0.1-0.3,0.2c-0.1,0.1,0,0.2-0.1,0.2c-0.1,0-0.2,0-0.2,0
		c-0.1,0.1-0.4,0.2-0.5,0.4C575.2,539.5,575.2,540,574.9,540.1z M746.6,350.1c-0.4-0.1-0.6-0.2-0.9-0.5c-0.1-0.1-0.3-0.2-0.4-0.2
		c-0.1-0.1-0.1-0.2-0.2-0.3c-0.1,0-0.4-0.1-0.4-0.1c0-0.1-0.1-0.4,0-0.5c0.2-0.2,0.5,0,0.7,0c0.1,0,0.4-0.1,0.5,0
		c0.2,0.1,0.5,0.2,0.6,0.4c0.1,0.1,0.4,0.2,0.6,0.2c0,0,0.4,0.5,0.4,0.5c0,0-0.2,0.1-0.2,0.1c-0.1,0.1-0.1,0.1-0.1,0.2
		C747,350,747,349.7,746.6,350.1L746.6,350.1z"/>
	<path id="sx" style="fill:#E0E0E0;stroke:#FFFFFF;stroke-width:0.5;" d="M746,330l-3.2,0.1l-2.8,0.8c0.3,0.2,0.5,0.1,0.7,0.3
		c0,0,0.1,0.1,0.2,0.2c0,0,0.2,0,0.2,0c0.1,0.2,0.4,0.4,0.6,0.5c0.1,0,0.1,0.2,0.2,0.3c0,0.1,0.1,0.1,0.2,0.1
		c0.1,0.1,0.3,0.3,0.4,0.4c0.2,0.1,1.3,0.2,1.5,0.1c0,0,0.1-0.1,0.1-0.1c0.2-0.1,0.4,0,0.5-0.1c0,0,0.2,0,0.2,0c0,0,0.2-0.2,0.3-0.2
		c0.2-0.1,0.7-0.2,0.8-0.3c0.1-0.1,0.1-0.4,0.1-0.4c0.2-0.2,0.5-0.8,0.4-1.1c0-0.1-0.2-0.3-0.3-0.3C745.9,330.2,746,330,746,330
		L746,330z"/>
	<path id="cw" style="fill:#E0E0E0;stroke:#FFFFFF;stroke-width:0.5;" d="M557,539.6c-1.7-0.1-3.1-0.9-4.8-1.3
		c-0.1,0-0.1-0.2-0.2-0.2c0,0-0.3,0-0.4,0c-0.3-0.3-0.8-0.4-1.2-0.6c-0.1,0-0.2,0-0.3,0c-0.4-0.2-0.5-0.6-0.7-0.8
		c-0.1-0.1-0.2-0.2-0.4-0.4c0,0-0.2,0-0.3,0c-0.2-0.1-0.1-0.4-0.3-0.5c-0.1-0.1-0.3-0.2-0.4-0.3c0,0,0-0.1,0-0.2
		c-0.1-0.1-0.2,0-0.3-0.1c0,0-0.3-0.5-0.4-0.5c-0.2-0.2-0.8-0.3-0.9-0.4c-0.1-0.1-0.2-0.5-0.4-0.6c-0.1-0.1-0.4-0.1-0.5-0.3
		c0,0-0.1-0.2-0.1-0.3c-0.4-0.4-1-0.6-1.2-1.1c-0.1-0.3-0.1-0.6-0.2-0.8c-0.2-0.4,0.1-1.1-0.1-1.5c-0.3-0.6-0.3-1.5,0.2-1.9
		c0.1-0.1,0.4-0.1,0.5-0.2c0.3-0.1,0.7,0.1,1,0.2c0.1,0,0.6-0.1,0.7,0c0.1,0.1,0.6,0.3,0.8,0.5c0.1,0.1,0.2,0.4,0.3,0.4
		c0.2,0.2,0.1,0.8,0.2,1.1c0.2,0.5,0.1,1,0.3,1.3c0.1,0.2,1,2.1,1.1,2.1c0.1,0.1,0.2,0,0.4,0.2c0.1,0.1,0.1,0.2,0.2,0.3
		c0,0,0.1,0,0.2,0c0,0,0,0.1,0,0.2c0,0,0.2,0,0.3,0c0.1,0.1,0.2,0.2,0.4,0.3c0.5,0.3,1.4-0.2,1.9,0.1c0.3,0.1,0.5,0.1,0.8,0.3
		c0.2,0.1,0.5-0.1,0.6,0c0.4,0.2,0.5,0.4,0.9,0.6c0.2,0.1,0.8,0.2,1,0.4c0.1,0.1,0,0.2,0.1,0.3c0.1,0.2,0.5,0.2,0.7,0.4
		c0.6,0.4,1,0.7,1.2,1.2c0.1,0.2,0.3,0.4,0.4,0.4c0.1,0.1-0.1,0.4,0,0.5c0.2,0.2,0.2,1.1,0.2,1.2c0,0-0.3,0-0.4,0
		C557.7,539.5,557.7,539.5,557,539.6L557,539.6z"/>
</g>
<path id="mf" style="fill:#E0E0E0;stroke:#FFFFFF;stroke-width:0.5;" d="M746,330c0-0.1-0.1-0.3-0.2-0.4c-0.1-0.1-0.2-0.2-0.2-0.3
	c-0.3-0.6-0.2-0.5-0.6-1c0,0,0-0.1,0-0.1c0,0-0.1,0-0.1,0c0,0,0-0.2,0-0.2c-0.1-0.2-0.2-0.2-0.3-0.4c-0.2-0.2,0.1-0.6-0.7-0.3v0
	c-0.1,0-0.2,0-0.3,0.1c-0.3,0.3-0.6,0.6-0.8,0.7c-0.1,0.1-0.4,0-0.5,0.1c0,0-0.1,0.1-0.2,0.1c-0.2,0.1-0.5,0.2-0.7,0.3
	c-0.2,0-0.2,0-0.4,0.1c-0.1,0.1-0.3,0-0.4,0c-0.3,0.1-1.2,0.2-1.3,0.3c0,0-0.2,0-0.3,0c-0.2,0.1-0.3,0.2-0.5,0.2
	c-0.2,0-0.6,0.3-0.4,0.5c0,0,0,0.1,0,0.1c0.6,0.6,1.2,0,1.7,0.5c0,0,0.1,0,0.1,0c0.2,0.2,0.3,0.3,0.5,0.4l2.5-0.6L746,330L746,330z"
	/>
<path id="ms" style="fill:#E0E0E0;stroke:#FFFFFF;stroke-width:0.5;" d="M773.7,376.3c-0.5,0-1.8-0.3-2.1-0.6c0,0-0.1,0-0.1,0
	c-0.3-0.3-0.1-0.8-0.2-1.2c-0.1-0.4-0.2-0.9,0-1.3c0.1-0.1,0.2-0.2,0.3-0.4c0.1-0.2,0.1-0.4,0.3-0.6c0.2-0.2,0-0.9,0.2-1.1
	c0,0,0.6-0.2,0.7-0.1c0.3,0.2,0.7,0.6,0.9,0.9c0,0.1,0,0.3,0,0.4c0,0,0.1,0,0.1,0c0.1,0.2,0.2,0.5,0.3,0.8c0.1,0.3,0.4,0.6,0.5,1
	c0.1,0.3,0.1,0.5,0.2,0.8c0,0,0,0.2,0,0.2c0.1,0.1,0.1,0.2,0.1,0.3c0,0,0.1,0.1,0,0.2c0,0-0.1,0.2-0.1,0.2
	C774.5,376.1,774.3,376.2,773.7,376.3L773.7,376.3z"/>
</svg>
