<?xml version="1.0" encoding="utf-8"?>
<!-- Generator: Adobe Illustrator 27.0.1, SVG Export Plug-In . SVG Version: 6.00 Build 0)  -->
<svg version="1.1"
	 id="Layer_1" xmlns:inkscape="http://www.inkscape.org/namespaces/inkscape" xmlns:sodipodi="http://sodipodi.sourceforge.net/DTD/sodipodi-0.dtd" xmlns:svg="http://www.w3.org/2000/svg" xmlns:cc="http://creativecommons.org/ns#" xmlns:dc="http://purl.org/dc/elements/1.1/" xmlns:rdf="http://www.w3.org/1999/02/22-rdf-syntax-ns#"
	 xmlns="http://www.w3.org/2000/svg" xmlns:xlink="http://www.w3.org/1999/xlink" x="0px" y="0px" viewBox="0 0 462.3 730.1"
	 style="enable-background:new 0 0 462.3 730.1;" xml:space="preserve">
<sodipodi:namedview  bordercolor="#666666" borderopacity="1" gridtolerance="10" guidetolerance="10" id="namedview123" inkscape:current-layer="Layer_1" inkscape:cx="600" inkscape:cy="615" inkscape:pageopacity="0" inkscape:pageshadow="2" inkscape:window-height="716" inkscape:window-maximized="1" inkscape:window-width="1366" inkscape:window-x="-8" inkscape:window-y="-8" inkscape:zoom="0.40406504" objecttolerance="10" pagecolor="#ffffff" showgrid="false">
	</sodipodi:namedview>
<g id="g3248">
	<g id="Aequatorialguinea" transform="translate(-111.5439,-93.00714)">
		<path id="path64" inkscape:connector-curvature="0" style="fill:#CCCCCC;stroke:#000000;stroke-linecap:round;" d="M209.5,486.3
			l-27.1,1.3l-5.4-3.6l8.1-15.6l24.2-0.3L209.5,486.3L209.5,486.3z"/>
		<path id="path66" inkscape:connector-curvature="0" style="fill:#CCCCCC;stroke:#000000;stroke-linecap:round;" d="M134.6,500.5
			c0,1.6-1.3,2.9-2.9,2.9s-2.9-1.3-2.9-2.9c0-1.6,1.3-2.9,2.9-2.9S134.6,498.9,134.6,500.5z"/>
		<path id="path68" inkscape:connector-curvature="0" style="fill:#CCCCCC;stroke:#000000;stroke-linecap:round;" d="M146,477.1
			c0,1.3-1,2.3-2.3,2.3c-1.3,0-2.3-1-2.3-2.3s1-2.3,2.3-2.3C144.9,474.8,146,475.8,146,477.1L146,477.1z"/>
	</g>
	<g id="Angola" transform="translate(-111.5439,-93.00714)">
		<path id="path73" inkscape:connector-curvature="0" style="fill:#CCCCCC;stroke:#000000;stroke-linecap:round;" d="M217.4,795.8
			c3.6-1,7.5-5.7,10.7-1.9c3.2-4,12.1-11.8,26.4,2.9l72.1-1l7.7,6.7l45.5,5.9l28.8-6.5l-19.4-17.4l1.5-61.5l34.7,1l-3.8-4l4.1-32.5
			c-0.5,0.1-1-0.1-1.5,0c-8.4,3-17.3,2.3-26.2,2.5l-3.1,6.1l-5.7-4.8l6.3-8.4l-8.6-17.3l-1.3-38.9l-14.8,1.1l0-7l-6.6-1l-1.7,3.1
			l-12.1-0.6l-4.6,17.6c-6-1.1-11.6-2.6-20.6,2c-8-2.6-15.2,3.4-26.4-36.5l-4.3-2.5l-45.6-0.7l-20.7,7.1
			c5.2,14.9,16.2,23.4,15.8,45.5l-3.6,3.4c2.9,10,5.6,20.4,12.1,25.2c0.6,2.8-0.8,4.8-1,6.9c-0.7,7.7-4.7,29.4-6.5,25.6
			c0,0-7.3,1.6-8,7.5c-0.3,2.9-3.9,3.3-5.2,6.8c-3.7,9.9-7.5,25.5-10.3,39.8c-0.3,1.7-2.5,0.9-2.7,2.5c-0.8,4.5,0.1,7.8-0.2,12.6
			c-0.1,1.4-1.9-1-2.3,0.8C216.1,788,217.9,794.3,217.4,795.8L217.4,795.8z"/>
		<path id="path75" inkscape:connector-curvature="0" style="fill:#CCCCCC;stroke:#000000;stroke-linecap:round;" d="M222.6,590
			l8-4.9c3.4-7.9,6.1-5.6,8.8-2.1c-3.4,3.1-7,6.1-7.3,11.6c0.8,7.6-2.7,7-5.2,8.3c-1.1-2.1-2.7-4-2.1-6.4
			C224.7,594.2,224.7,591.9,222.6,590L222.6,590z"/>
	</g>
	
		<path id="Demokratische_Republik_Kongo" inkscape:connector-curvature="0" style="fill:#CCCCCC;stroke:#000000;stroke-linecap:round;" d="
		M224.7,351.2c-2.9,8.7-6.4,14.9-10.1,24.4c-4.8,12.4-3.7,31.6-6.2,48.6c-12.6,5.7-16.6,14.9-23.1,23.1l-5,24.1
		c-9.1,8.9-17.6,20.4-28.6,21.9c-0.7-13.5-12.3-7-13.6-1.7c-5.6,3.7-7.4-0.1-10.5-1.3c-4,2.9-6.9,6.3-7,11.2c0.6,7.8-3,7.4-5.5,8.9
		l1.5,5.9l20.8-7.1l45.6,0.8l4.2,2.5c10.4,38.4,18.8,34.6,26.2,36.5c11.6-4.8,14.7-2.2,20.8-2.2l4.5-17.5L251,530l1.6-3.2l6.8,1.1
		l0.1,7.1l14.7-1.1l1.5,38.7l8.4,17.4l-6.4,8.6l5.8,4.9l3.1-6.2l19.2-0.3l7-2.3l6-0.1l2.2,8.6l11.2-3.7c0.6,2.6,1.7,4.5,3.2,5.9
		c3.6,3.4,10.4,8.1,16.5,8.2c4.3,0.1,7.7-4.3,11.5-3.5c5.1,7.1,11.2,9.1,17.5,9.7c4.7,7.3,7.9,16.2,21.3,14.8l5.2,3.6l-0.4-18.7
		c-9.3,3-14.9-1.3-19.8-7.3c0.9-7.4,3.9-14.1,7.3-20.6c0.3-7.6-0.7-14.6-2.6-22.2c-0.4-1.7,1.8-7.9,4.5-11.5l30.2-7.4
		c-3.1-16.9-14.1-20.3-17.3-32.3c-3.9-14.6-5.7-32.2-3.7-49.3c-0.6-8-4.2-12.3-9.5-14.5l9-12.9l7.3-8l1.1-28l10.2-15.5l16.5-14.8
		l-9.9-6.5l0-17.7l-20.6-17.4c-1.8,0.2-2.7,2-4,3.1c-4.1,1.3-8-0.7-11.9-1.2c-2.1,4.8-10.9,2.3-11.9-0.5c-0.3-0.8,0.4-2.4-0.8-2.8
		c-2.6-3.5-5.3-5.9-7.8-8.1l-8.6,0.4l-2.8,3.2l-3.1-2.6l-2,3.1l-4.1-5.4l-18.5,1.6l0,3l-8.2,1.5l-1.3-3.2l-21,7.4
		c-5.9-4.3-8-1.9-11.5-2.1l-3.7,8c-17.4-0.7-24.7-0.7-27.6-4.5c-5.5,6.1-6.9-1.4-10.2-2.3c-1.9-8.9-7-6.2-10.5-9.2
		c-6.5,4.4-10,8.7-13.1,13.1C227.4,341.8,226.4,346.8,224.7,351.2L224.7,351.2z"/>
	<path id="Gabun" inkscape:connector-curvature="0" style="fill:#CCCCCC;stroke:#000000;stroke-linecap:round;" d="M94.4,475.2
		l-30.1-31.2l-7.2-18.3l6.6-6.4l1.9-10.3l8.5,1.9c0.5-0.5,1.2-0.9,0.8-1.9l-7.3-3.8l2.3-10.5l28.2-1.4l0.1-18.1h34.9l-2.7,3.8
		l-0.3,11.8c3.2,1.2,5.3-1.4,7.3-5.1c5.4-0.8,15.2,4,12.5,13.3c-4.5,5-6.5,9.7-4.9,14c1.2,3.2,2.6,6.2,3.5,10.9l-2.7,24.6l-5.6,4.1
		c-2.5-4.2-7.2-5.7-13.7-4.9c-2-2.5-4-5.7-7.8-0.7l-14.6,9l1.3,12L94.4,475.2L94.4,475.2z"/>
	<path id="Kamerun" inkscape:connector-curvature="0" style="fill:#CCCCCC;stroke:#000000;stroke-linecap:round;" d="M179.7,384.1
		c-4.5-2-9.8-6.4-13-4.7l-11.3-4l-22.6-0.2H97.3l-24.2,0.3l2.5-18.5l-6.4-8.2l2.4-2.9l-1.6-2.4l-4.2,1.3c-5.2-0.6-7.1-4.4-8.3-8.6
		c-2.8-1.1-6.8-0.7-6.8-5.4c5.9-10.3,7.2-24.3,18.8-30l0.4-4.5l16.6-0.8c6.2,4,4.2,8.5,14.7,7.2c7.3-13.1,12.5-37.2,22-38.3
		c5.7-14.1,7.4-34.1,17.2-42.3c4.8-1.7,8.9-3.8,10.7-6.9c1-1.8,1.3-7.7,0.4-10.3c-0.6-1.9-1.8-0.4-3.7-2.9L145,191l2.3-1.9l8.7,7.4
		c1.2,6.1,4.3,11.7,3.7,18.2c-0.6,9.5-4.5,10.8,4.9,21.7c1.6,2.7,2,5.5,1.6,8.5l-17.6-1.8c-2,4.8-6.3,15.7,11,19.6l8.2,24.6
		l-15.3,25.4l2.1,18.5c6.4,11.9,13.9,24.3,24.3,33.9L179.7,384.1L179.7,384.1z"/>
	<path id="Republik_Kongo" inkscape:connector-curvature="0" style="fill:#CCCCCC;stroke:#000000;stroke-linecap:round;" d="
		M111.1,496.9l-16.8-21.7l11.2-7.1l-1.3-12.2l13.8-8.3c2.3-1.8,4.1-6.3,8.3,0.3c7.3-0.9,11.6,1,13.9,4.6l5.8-4l2.4-24.2
		c-0.1-8.3-9.4-13.8,1.7-25.7c1.9-7.8-5.1-13.2-12.8-12.8c-1.9,2.4-2.6,6.3-7.3,5.3l0.2-11.6l2.8-4.2l22.5,0.3l10.9,3.9
		c4.1-2.1,9.5,4.1,13.3,4.7l-0.6-18.6c8.5-10.9,14.8-14.1,21.8-15.7l10.7,4.9l13.2-3.7c-3.2,8.7-6.8,15.8-10.1,24.4
		c-5.6,14.6-3.8,32.4-6.3,48.8c-12.2,5.4-16.6,14.8-23,23.2l-5.3,24.3c-11.5,12.3-21.7,22.2-28.2,21.7c0-6.9-7.6-13.1-13.7-1.7
		c-4.3,2.8-7.4,1.4-10.6-1.8c-4.8-6.3-6.3-1-8.5,2.2L111.1,496.9L111.1,496.9z"/>
	<path id="Tschad" inkscape:connector-curvature="0" style="fill:#CCCCCC;stroke:#000000;stroke-linecap:round;" d="M309.1,83.1
		L178.9,19l-17.2,5.2c1.2,10.2,0.3,18.1,0.5,24.3c0.3,9.1,6.6,15.5,15.3,18.6l-3.9,9.4l-5.5,50.3l-27.2,29.9
		c-0.9,1.7-1.3,3.4-1.2,5.1c-0.9,1.9-2,2.8-3.1,3.3c-1.9,1.2-1,3.2-1.2,4.6c-1.6,10.6,20.6,26.3,20.6,26.3c1.1,4.8,2.8,9,3.7,14.1
		c0.9,5.4-1.8,12-1,16.7c1.1,6.9,8.7,7.5,7.7,18l-17.4-1.6c-5.1,10.1-1.5,16.7,10.9,19.6l8.2,24.5c13.2-3,22.5-1.4,39.7-9.2
		l15.7-1.6c2.9-4.9,9-7.6,6.9-16.1l21.7-2.4c1.7-1.6,2.5-4,5.3-4.6c4.3-0.1,5.5-2.9,6.6-5.8c2-4.7,7-6.4,10.7-9.3
		c0.7-15.5,12.4-11.1,19.5-14l-0.9-5.4c-4.1-4.5-7.6-9.5-8.9-23.7l-7.6,1.4l-0.2-6.9c2.3-2.5,4-8.4,3.4-12.6l3.5-1.7l-0.9-9
		l10.5-13.4l-0.3-6.6l18.1-1L309.1,83.1L309.1,83.1z"/>
	
		<path id="Zentralafrikanische_Republik" inkscape:connector-curvature="0" style="fill:#CCCCCC;stroke:#000000;stroke-linecap:round;" d="
		M168.1,287.3l-15.4,25.2l2.1,18.3c6.6,12.9,14.2,24.8,24.5,34.5c6.3-7.1,9.1-12.5,21.7-15.7l10.9,4.8l12.3-3.4
		c3-3.5,2.8-9.1,3-14.4c4.2-6.9,8.7-10.5,13.3-13.7c3.4,2.6,9.4,0.6,9.8,8.4c4,4.5,7.8,7.2,10.7,3c3.4,5,17.8,3.4,27.7,4.5
		c0.6-1.9,1.6-4.3,3.7-8c3.3-0.5,6.3-1.8,11.4,1.9l20.9-7.3l1.4,3.1l8.4-1.3l-0.1-3.1l18.5-1.5l4.1,5.3l1.9-2.9l3.2,2.3l2.7-3.1
		l8.6-0.3c-1.8-4.9-1-10.7-14.1-13.8l-6.7-13.7c-6.7-6.5-18.7-9.4-19.6-19.8l-5.2-5c-4.4,0.2-8.2,2.1-13.1-5.8
		c-7.9-1.2-13.2-2.4-8.1-18.4c-4-9.8-10.2-14.4-15.6-21.9c-11.3,2.2-15.8,1.6-16.2,13.3c-3.6,2.9-8.9,4.3-10.5,8.8
		c-1.4,3.3-2.6,5.9-7.6,6.3c-1.4,0.9-3.2,2.7-5,4.7l-21.4,2.2c1.1,4,0.7,7.7-3.9,12.2c-1.2,1.2-2.1,2.7-3.3,4l-15.4,1.4
		C189.8,286,180.9,284.4,168.1,287.3L168.1,287.3z"/>
</g>
</svg>
