<?xml version="1.0" encoding="utf-8"?>
<!-- Generator: Adobe Illustrator 27.0.1, SVG Export Plug-In . SVG Version: 6.00 Build 0)  -->
<svg version="1.1"
	 id="svg3157" xmlns:svg="http://www.w3.org/2000/svg" xmlns:cc="http://creativecommons.org/ns#" xmlns:sodipodi="http://sodipodi.sourceforge.net/DTD/sodipodi-0.dtd" xmlns:inkscape="http://www.inkscape.org/namespaces/inkscape" xmlns:rdf="http://www.w3.org/1999/02/22-rdf-syntax-ns#" xmlns:dc="http://purl.org/dc/elements/1.1/"
	 xmlns="http://www.w3.org/2000/svg" xmlns:xlink="http://www.w3.org/1999/xlink" x="0px" y="0px" viewBox="0 0 372 441.4"
	 style="enable-background:new 0 0 372 441.4;" xml:space="preserve">
<style type="text/css">
	.st0{fill:#C0C0C0;stroke:#FFFFFF;stroke-width:0.404;stroke-miterlimit:4.0412;}
	.st1{fill:#C0C0C0;stroke:#FFFFFF;stroke-width:0.404;stroke-miterlimit:4.0329;}
	.st2{fill:#C0C0C0;stroke:#FFFFFF;stroke-width:0.404;stroke-miterlimit:4.0412;stroke-dasharray:0.404,0.404;}
</style>
<sodipodi:namedview  bordercolor="#666666" borderopacity="1" gridtolerance="10" guidetolerance="10" id="namedview3085" inkscape:current-layer="layer1" inkscape:cx="538.32993" inkscape:cy="212.63315" inkscape:pageopacity="0" inkscape:pageshadow="2" inkscape:window-height="706" inkscape:window-maximized="1" inkscape:window-width="1366" inkscape:window-x="-8" inkscape:window-y="-8" inkscape:zoom="11.313709" objecttolerance="10" pagecolor="#ffffff" showgrid="false">
	</sodipodi:namedview>
<g id="layer1" transform="matrix(1.0020524,0,0,1.0020524,0.25102907,-0.17691186)">
	<path id="by" class="st0" d="M124.9,245.9c-0.2,0,0.1,0.5-0.7,0.8c-0.2,0.1-1.3-0.1-1.6,0.2c-0.5,0.7-1.2,2.4-2,2.8
		c-1.5,0.8-1.4-3.1-1.4-3.1c-2.9-0.7-2.3-0.3-4.3,1.2c-0.5,0.4-0.8-0.9-1.3-1.3c-1.6-1.1-1.1,2-3.5,0.1c0,0.1-1.8,1.5-2,2.1
		c-0.2,0.3-0.7,3.1-0.7,3.1c-0.5,0.4-1.2-0.2-1.8,0c-0.2,0.1,0,0.7-0.3,0.7c-0.4,0-0.7-0.6-1.1-0.6c-1.2-0.1-1.4,2.6-3,3v0.1
		c0.6,1.4-0.1,2.6-0.2,4c-0.1,0.8,3-0.8,2.6,0.5c-0.1,0.3-0.6,0.3-0.7,0.6c-0.1,0.4,0.3,0.9,0,1.3c-0.6,0.7-2-0.3-2.4,0.4
		c-0.4,0.7,0.1,1.6-0.4,2.2c-1.8,2.8-0.9-0.8-2.1,2.6c0,0.2-0.4,0.2-0.4,0.3l0.8,2.6c0,0.1-0.9,2.7-0.8,3.1c0,0.4,2.9-0.2,2.1,1.9
		c-0.2,0.5-2.1,1.1-2,0.3c0-0.3,0.5-0.5,0.4-0.8c-0.2-1.2-2.3-0.2-2.6,0.2c-1,1,1,0.9-0.5,1.8c-0.7,0.3-1.6,0.1-2.1,0.7
		c-0.4,0.4,0.9,1.4,0.5,1.6c-0.5,0.1-1-0.2-1.5,0.1c-0.6,0.4-0.7,1.3-1.2,1.7c-0.8,0.8-1.2-0.9-2-0.7c-0.8,0.4-3.5,1.9-4.6,1.1
		c1.7,4.8,5.8,9.2,6.1,14.4c0,0.2-0.2,0.4-0.3,0.5c-0.7,0.7-6.6,5.6-3.8,6.7c0.2,0.1,0.4-0.4,0.6-0.3c0.8,0.1,1.8,0.4,2.5,0.9
		c1.9,1.5-0.5,5.1,0.2,6.8h0.1c0-0.1,0-0.9,1.2-1.2c0.5-0.2,0.6-0.2,1.2-0.1c0.2,0,0.1,0.5,0.3,0.6c1,0.3,2.4-3.8,2.6-4.3
		c0.8-0.4,2.3-0.4,3.1-0.7c1.1-0.5,1.4-1.1,2.6-1.4c0.5-0.1,1.4,0.4,2.1,0c0.2-0.1,0.8-0.1,1.4-0.2c0.6-0.2,1.1-0.5,1.3-0.5
		c1.4-0.2,0.6-0.4,1.9-0.3c0.3,0,1,0.5,1.2,0.6c2.2-0.7,4.3,0.2,7.1-0.7c0.7,0.1,0.5,1.1,1.2,1.1c0.2,0.1,0.1,0.4,0.3,0.6
		c0.2,0.2,0.8-0.1,1.2-0.2c0.2-0.3,0.3-0.6,1.1-0.6c2.2,0.1,0.2,1.2,1.3,1.4c0.3,0,0.5-0.3,0.6-0.5c-0.1-0.7-0.3-1.3,0.2-1.3
		c0.5-0.1,1.2,0.6,1.8-0.1c0.4-0.4,0-1.1,0.8-1.1s0.2,0.9,1.1,1.1c0.6,0.1,0.5-1.1,1.6-0.8c0.9,0.2,0.3,1,1.4,1.3
		c0.6,0.1,0-1,0.4-1.5c1-0.7,1.7-2,2.3-1.8c0.8,0.3,1.4,2.7,2.1,2.5c1.6-0.4,0.6-1.7,2.1-2c0.6-0.1,0.6,0.6,1.1,0.5
		c0.2-0.4,0.5-0.8,0.8-0.6c0.4,0.2,0.3-0.7,2.2-0.8c1.1,0.5,1.4,1.5,2,1.7c0.5-0.3,1-0.6,1.5-0.8l0,0c-0.2-0.9-1.6-2.1-1.6-2.8
		c0-0.8,0.2-2.5,0.4-3.2c0.5-1.2,0.7-2.2,1.2-2.6c-0.3-0.7-0.2-0.8,0.6-1.2c0.7-0.2,0.9,0.3,1.5,0c0.4-0.2,0.1-0.9,1-1.2
		c1.3-0.4,2-0.6,3-0.8c-0.1-0.2,0-0.5-0.2-0.7c0,0-2-1.2-2-1.3c-0.1-0.2,0.3-0.5,0.2-0.7c-0.3-0.7-0.9-1-1-1.6
		c-0.1-0.3,0.5-0.4,0.5-0.7c-0.2-0.7-1.5-0.7-1.6-1.4c-0.1-0.3,0.5-0.4,0.6-0.7c0.3-1.1-3.1-1.8-3.4-2.5c-0.4-0.8,0.3-1.7,0.2-2.5
		c0-1.5,4.5,0.5,5.7-0.3c0.8-0.5,1.8-2.2,1.7-3.2c0-0.1-0.4,0-0.3-0.1c0.5-0.5,1.3-0.7,1.6-1.2c0.3-0.4,0-1.2-0.4-1.4
		c-1.6-0.6-1.8,0.1-2.6-0.8c-0.3-0.4,0.7-1.7-0.4-1.6s-1.7-0.3-3.3,0.2c-0.6,0.2-1.1,0.8-1.7,0.6c-0.5-0.2,0.4-2.8-0.5-3.4
		c-0.3-0.2-3.2-0.2-4.1-0.8c-1.5-0.9-0.6-1.9-2.7-2.5c-0.4-0.2,0.6-1.8,0.2-1.9c-1.3,0-1.8-0.1-3.3-1.1c-0.7-0.4,0.6-2.3,0.4-2.7
		c-0.6-0.8,0.8-0.2,0.4-0.8c-0.3-0.5-2.5-2.2-2.4-2.7c0.4-1.3,0.6-2.2-0.2-3.6c-0.2-0.4-0.7,0.4-1.1,0.4c-0.1,0-3.1-1.9-3.1-1.9
		C125.3,245.9,125.1,245.8,124.9,245.9L124.9,245.9z"/>
	<path id="pl" class="st0" d="M46.3,274.8c0,0-4.7,0.7-6.5,1.7c-1.3,0.7-1.3,1.4-2.6,2.2c-0.8,0.5-1.8,0.1-2.4,0.7
		c-1.6,1.4-0.7,2.3-1.6,3c-1.4,1.2-4.2,2.7-6.7,3.4c-0.7,0.2-2.1,1-2.8,1.3c-0.7,0.2-1.5,0.8-1.5,0.8s-0.9,1.3-1,2.5
		c-0.2,1.2-0.5,0.9-0.6,1.5c-0.2,1,0.4,0.8,0.5,1c-0.1,1.2,0.9,0.9,0.9,2.1c0,0.1-0.2,0.7-0.6,0.5c-0.3-0.2,0.2-0.9-0.8-2.4
		c-0.5-0.7-1.1-0.2-1.8-1.2c-0.5,0,0.2,0.5-0.2,0.6l0,0c0.2,1.5,1.3,4.2,1.5,5.1c0.1,0.6-0.1,0.8-0.2,1.3c-0.1,0.5-0.3,1.3-0.7,1.7
		c-0.3,0.4-1,0.7-1,1.2c0.1,1-0.4,0.8-0.2,1.3c0.2,0.6,1.1,0.4,1.9,1c0.8,0.7,1.9,1.3,2.1,2c0.2,0.9,0,1.1-0.2,1.5s-0.5,0.9-0.1,1.4
		c0.3,0.8,0.9,0.7,1.1,1.2c0.3,0.5-0.1,1.1,0,1.6c0.1,0.3,0.5,0.2,0.6,0.4c-0.3,1.4,0.4,1.5-0.9,2.8c-0.3,0.4,0.3,0.4,0.3,0.8
		c0.1,0.5,0.6,1,0.8,1.3c0.7,0.8-0.5,1-0.2,1.4c0.4,0.6,1.2,0.4,1.6,0.8c0.8,0.6,0.6,1.2,0.9,1.9c0.6,1.3,0.2,1.8-0.1,2.7
		c-0.3,0.9-0.5,1.7-0.6,2.2c0,0.3-0.1,0.4-0.2,0.7c2.9,0.5-0.4-2.4,2.2-1.9c1.7,0.2,0.3,0.9,1.3,1.7c1.5,1.2,2.7,0.4,3.9,1.1
		c0.4,0.3,0.3,0.7,0.5,1c0.2,0.1,0.3-0.2,0.4-0.2c0.3-0.1,0.6-0.3,0.7-0.1c0.3,0.3,0,0.7,0.3,1c0,0,2.1-1.1,2.5-0.8
		c2.5,1.2-1,1.7-0.8,2.9l2.2,1.3c0.3,0.4,0.8,2.8,2.2,2.2c0.4-0.2,0.3-0.8,0.6-1.1c0.5-0.4,1.4-0.2,1.7-0.8c0.1-0.2-2-2.2-1.4-2.3
		c1.4-0.2,3,1.2,3.8,1.5c0.4,0.1,0.8-0.1,1.2-0.1s0.8,0.2,1.2,0c0.2-0.1,0.1-0.5,0.2-0.7c0.1-0.1,0.3-0.1,0.3,0
		c1.1,2.3,0.4,0.8-0.8,2c-0.4,0.3,0.9,0.4,1.3,0.7c0.3,0.3,0.2,0.7,0.5,1c0.2,0.2,0.5,0.3,0.7,0.3c2.7-0.3-0.4-0.5,1.2-1.1
		c0.2-0.1,0.2,0.3,0.4,0.4c0.4,0.3,1.4,0.6,1.9,0.7c0.6,0.2,1.4-0.1,1.9,0.3c0.1,0.1,0.9,2.3,1,2.4c0.4,0.3,1.1,0,1.5,0.4
		c0.4,0.5,0.1,1.3,0.5,1.8c0,0.1,0.1,0.1,0.2,0.1c0.2,0,0.4-0.1,0.6-0.1c0.1,0,0.2,0,0.3,0.1s0.1,0.2,0.1,0.3c0,0.2-0.1,0.4-0.1,0.7
		c0,0.1,0,0.2,0.1,0.3c1.5,1.2,2.7-3.6,3.7-2.9c0.6,0.4,0.6,1.2,1,1.7h0.1c0,0,0.1,0,0.2-0.1c0.1,0,0.2-0.1,0.3,0
		c0.1,0.2-0.3,0.6-0.1,0.7c0.5,0.1,0.9-0.4,1.3-0.2c0.7,0.3,0.1,2.1,0.1,2.2c0,0.5,0.8-0.3,1.3-0.4c0.4-0.1,0.7,0.7,1.1,0.5
		c0,0,0.1-0.2,0.2-0.5s0.3-0.7,0.6-1.1c0.1-0.2,0.2-0.4,0.4-0.6s0.3-0.3,0.4-0.5s0.3-0.3,0.5-0.4s0.3-0.2,0.5-0.2
		c0.4-0.1,0.8,0.3,1.2,0.3c0.4-0.1,0.6-0.7,0.9-0.6c0.8,0.1,1.2,1.1,2,1.1c0.6,0,1-0.6,1.3-1c0.1-0.2-0.5-0.2-0.5-0.4
		c0.3-1.3,0.8,0,1.2-0.2c0.1,0,0.1-0.1,0.2-0.2s0.2-0.3,0.2-0.4c0,0,0,0,0.1-0.1s0.1,0,0.1,0c0.4-0.1,0.8-0.2,1.3-0.2
		c0.4,0,0.8,0,1.2,0c0.1,0,0.1,0,0.2,0c0.4,0,0.7,0.1,1.1,0.1c0.2,0,0.4,0.1,0.6,0.1s0.4,0.1,0.5,0.2c0.1,0,0.2,0.1,0.3,0.1
		c0,0,0.1,0,0.1,0.1c0.2,0.1,0.3,0.2,0.4,0.2c0.1,0.1,0.2,0.4,0.2,0.6c0,0.1,0,0.2,0.1,0.3c0,0.1,0.1,0.2,0.2,0.2
		c0.6,0.4,1.2,0.4,1.9,0.6c0.8,0.3,1.1,0.3,1.9,0.4c0.2,0,0.3,0.1,0.5,0.1c0.3,0.2,0.7,0.1,1,0.2c0.5,0,0.6-0.2,1.1-0.1
		c0.1,0.1,0.4,0.3,0.5,0.4c-0.9-2.2-0.9-0.2-1.7-1.8c-0.4-0.4,0.2-0.7,0.2-1.2c-0.3-0.9-1.2-2.1-1.4-3.1c0-0.1,0-0.2,0-0.3
		c0.1-0.4,0.4-1,0.7-1.8c0.3-0.5,0.5-1.1,0.9-1.7c1.7-3.1,4.1-7.1,4.6-8c1.7-1.4,2.1,0.4,2.4-3c0-0.8-1.4-2.2-1.5-2.3
		c-0.2-0.5,0.1-0.6,0.5-0.7c0.2,0,0.4-0.1,0.5-0.1s0.2-0.1,0.1-0.1c-1.5-1.1-4.1-3.2-4.9-5c-0.1-0.2-0.1-0.5-0.1-0.7
		c0-0.1,0-0.3,0-0.4s0-0.3-0.1-0.4c0-0.3-1-1.5-1-1.5l0,0h-0.1c-0.7-1.5,1.1-4.4,0.3-6.2l0,0c-0.1-0.1-0.1-0.2-0.2-0.3
		c-0.1-0.1-0.2-0.2-0.3-0.3c-0.8-0.6-1.7-0.8-2.5-0.9c-0.1,0-0.2,0-0.3,0.1l0,0c0,0-0.1,0-0.1,0.1c0,0,0,0-0.1,0c0,0-0.1,0.1-0.1,0
		c-2.7-1,3.2-6,3.8-6.7c0,0,0.1-0.1,0.2-0.2c0,0,0-0.1,0.1-0.2s0-0.1,0-0.1c-0.1-1-0.2-1.9-0.5-2.8c-0.1-0.3-0.2-0.6-0.3-0.9
		c-0.4-1.2-1.1-2.4-1.7-3.6l0,0c-1.3-2.4-2.7-4.6-3.6-7c-0.6-0.4,0-1.4-0.6-2.2c-1.7-2.4-0.7-0.4-3.3-1.5c-0.9-0.4-0.3-1.6-1.7-1.1
		c-0.3,0.1-0.3,0.6-0.6,0.8c-3.9,2.3-15.3,2.4-21.3,1.8c-0.2,0.2-0.5,0.7-0.7,1c-0.5,0.6-0.9,0.5-1.4,0.9c-0.1,0.2-0.2,0.3-0.6,0.4
		c-0.3,0.1-0.8,0.2-1,0.2c0.1-0.6-0.4-0.5-0.2-0.8c0.1-0.2,1.5-0.6,1.9-0.9s1.1-0.9,1.1-0.9l-0.4-0.3c0,0-0.7,0.5-1,0.7
		c-2.3,1.2-2.8,1.9-5.1,1.3c-1.9-0.8-0.5-1-2.2-2.9c-0.2-0.3-0.2-0.8,0.2-1.1c0.3-0.2,2.2,0.8,2.6,0.9c-0.1-0.7-1-1.4-3.2-1.5
		C46.5,275.3,46.3,274.8,46.3,274.8L46.3,274.8z M21.8,287.6c0,0-0.1,0-0.3,0.2c-0.5,0.3-1.4,0.8-1.6,0.9c-0.2,0.1-0.3,0.6-0.7,0.6
		s-0.7-0.1-0.9-0.1c-0.2,0-0.3,0-0.3,0l0,0l-0.2,0.2l0.1,0.2v0.1v0.2v0.2l0,0l0,0c0,0,0.2,0.3,0.5,0.4s0.4,0.4,0.5,0.2
		c0-0.2,0.1-0.4,0.2-0.4c0.2,0,0.4,0,0.3-0.1s-0.2-0.1-0.2-0.3c-0.1-0.2-0.1-0.3,0.1-0.2c0.2,0,0,0.3,0.3,0.3s0.5,0.1,0.7,0.1
		s0.5,0.1,0.4,0.2c-0.1,0.2-0.1,0.1,0,0.2l0,0c0,0,0-0.1,0.1-0.2c0.2-0.1,0.1,0.1,0.1-0.2c0-0.3,0-0.5,0.2-0.7
		c0.2-0.3,0.2-0.3,0.2-0.7s-0.3-0.4,0.1-0.5s0.5-0.1,0.5-0.3C21.8,287.8,21.8,287.7,21.8,287.6L21.8,287.6z"/>
	<path id="md" class="st0" d="M129.2,339.6c-0.2,0-0.4,0.1-0.6,0.1c-0.1,0-0.2,0.1-0.2,0.2c-0.1,0.1-0.1,0.1-0.1,0.2
		s-0.1,0.2-0.1,0.2c0,0.1-0.1,0.1-0.2,0.1c-0.4,0.2-0.9,0.2-1.6,1.2c-0.2,0.1-3.1,0.7-3.1,0.8c0,0.2,0.2,0.4,0.3,0.6l-0.9-0.2
		l-0.1,0.4v0.2l-0.1,0.2c0,0.2,0,0.3,0,0.5c1.3-0.7,2.2-0.1,3.2,0.8c2,1.4,2.4,3.7,4,5.3c2.6,2.5,9.7,7,10.6,10.7
		c0.7,2.3-0.2,5,0.4,7.3c0.2,0.9,1.4,2.6,1.7,3.8h-0.2c0.2,0.4,0.2,0.4,0,0.9c-0.1,0.3,0,0.4,0.1,0.4c0.1,0.1,0.3,0.1,0.3,0.2
		c0.1,0.3,0,0.3,0.2,0.3c0.2,0.1,0.1,0,0.2,0.2c0,0.1,0.1,0,0.2,0l0.2-0.6l0.4-0.6l1.1,0.2v0.3c0.2-0.1,0.5-0.3,0.8-0.4l-0.1-0.1
		l-0.2-0.5v-0.6c0,0,0-0.2,0-0.6l0,0c0-0.3,0-0.7,0.1-1.3c0.3-0.4,0.8-0.7,1.2-1.1c0.5-0.7-0.7-1.4,0.2-2.1c0.4-0.4,1-0.5,1.2-0.9
		s-0.2-0.5-0.2-1s0.4-0.8,0.3-1.3c-0.2-0.8-1.7-0.6-1.5-2.8c0.1-0.1,0.3-0.4,0.4-0.6c0.2-0.3,0.5-0.6,0.7-0.8
		c0.1-0.1,0.1-0.1,0.2-0.2s0.3,0,0.4,0.1c0.2,0.4,0.5,0.6,0.6,1.1c0,0.2-0.2,0.3-0.2,0.5c0.1,0.1,0.2,0.1,0.3,0.1h0.1
		c0.1-0.1,0.1-0.2,0.1-0.3c0-0.1,0-0.3,0-0.4l0,0c0-0.1,0-0.3,0.1-0.4c0-0.1,0.1-0.1,0.1-0.2c0,0,0.1-0.1,0.1-0.2
		c0.1-0.2,0.4,0.7,0.6,0.6c0,0,0.1,0,0.1-0.1c0.3-0.2,0.3-0.8,0.5-1c0,0,1.2,0.9,1.6,1c0.1,0,0.2-0.1,0.2-0.2s0-0.3,0-0.5
		c0-0.4,0-0.8,0.2-0.8c0.6,0,0.9,1.2,1.2,1.5c0.1,0.1,0.1,0.1,0.2,0.1s0.1,0,0.2-0.1c0.1-0.2,0-0.4,0.2-0.6c0.1-0.1,0.2-0.2,0.4-0.2
		c0.3-0.1,0.6-0.2,0.9-0.3c0.1-0.1,0.3-0.2,0.4-0.2c0-0.1-2.2-0.4-2.3-1c-0.1-0.2,0.5-0.2,0.5-0.4l-1-3.2c-0.3-0.2-1-0.4-1.7-0.5
		c-0.4-0.1-0.7-0.1-1-0.2s-0.5-0.2-0.7-0.2c-0.4-0.4,0.3-1.5-0.6-1.6c-1.2,0.8,1-1.7-0.7-2.7c-0.3-0.2-0.5-0.2-0.6-0.1
		s-0.1,0.3-0.1,0.5s0,0.4,0,0.5l0,0c0,0-0.1,0-0.3-0.2c-0.8-0.9-2.3-1.2-3-2.1c-0.7-2.1,0.7-4.1-1.4-5.5c-0.8-0.5-0.2,1.4-1.1,1
		c-2.3-0.9-0.9-2.6-4.1-1.7c-0.6,0.2-0.1,1.8-0.4,1.4c-0.3-0.3-0.3-0.7-0.6-1.1c-0.2-0.2-0.7,1.2-0.8,0.5c-0.1-0.4,0.4-1.3,0-1.2
		c-0.6,0.1-1.1,0.5-1.6,0.7c-0.1,0-0.2,0-0.2,0.1s-0.2,0-0.2,0h-0.1c-0.2-0.1-0.1-0.7-0.3-0.9c-0.1-0.1-0.2-0.1-0.3-0.2
		c-0.4-0.2-0.7,0-1.5-0.2c-0.1-0.1-0.3-0.1-0.5-0.2s-0.4-0.2-0.6-0.4C130.2,339.6,129.6,339.5,129.2,339.6L129.2,339.6z
		 M154.1,366.7C154.1,366.7,154.1,366.8,154.1,366.7c0,0.1,0,0.2,0.1,0.3c0.1,0.2,0.1,0.3,0.2,0.5c0.1-0.1,0.2-0.3,0.3-0.4
		c-0.1-0.1-0.1-0.2-0.2-0.2C154.4,366.8,154.3,366.8,154.1,366.7C154.2,366.7,154.1,366.7,154.1,366.7L154.1,366.7z"/>
	<path id="ua" class="st0" d="M162,279.5c-0.6,0.1-1.1,0.9-1.4,1.5c-0.3,0-0.2-0.6-0.5-0.6c-3.4-0.3-2.4,2.2-4.1,2.4
		c-0.7,0.1-0.4,0.5-1.1,0.5s-1.4-0.1-2.8,0c0.1,0.4,0.2,1.2,0.2,1.8c-0.1,0.5-0.1,0.8-0.3,1.4c-0.6,0.5-0.5,0.7-1.2,0.8
		c-0.3,0.3-0.6,0.6-0.8,0.4c-0.2-0.1-0.5-0.5-0.7-0.6c-1,0.3-1.8,0.5-3.1,0.9c-1,0.3-0.7,1-1,1.2c-0.6,0.3-0.8-0.2-1.5,0
		c-0.8,0.4-0.9,0.5-0.6,1.2c-0.4,0.4-0.7,1.4-1.2,2.6c-0.2,0.7-0.4,2.4-0.4,3.2c0,1,3.1,3.2,0.8,3.7c-1.2,0.4-1.2-1.1-2.7-1.7
		c-1.9,0.1-1.8,1.1-2.2,0.8c-0.3-0.2-0.6,0.2-0.8,0.6c-0.5,0.1-0.5-0.6-1.1-0.5c-1.5,0.4-0.5,1.6-2.1,2c-0.8,0.2-1.3-2.2-2.1-2.5
		c-0.6-0.3-1.3,1-2.3,1.8c-0.4,0.5,0.2,1.6-0.4,1.5c-1.2-0.3-0.5-1.1-1.4-1.3c-1.1-0.3-1,0.9-1.6,0.8c-0.9-0.2-0.3-1-1.1-1.1
		c-0.8,0-0.4,0.7-0.8,1.1c-0.6,0.7-1.3,0-1.8,0.1c-0.5,0-0.4,0.6-0.2,1.3c-0.1,0.2-0.3,0.5-0.6,0.5c-1.1-0.3,0.9-1.4-1.3-1.4
		c-0.8,0-0.9,0.3-1.1,0.6c-0.3,0.1-1,0.4-1.2,0.2c-0.2-0.2-0.1-0.5-0.3-0.6c-0.8-0.1-0.6-1-1.2-1.1c-2.8,0.9-4.9-0.1-7.1,0.7
		c-0.3-0.1-1-0.6-1.2-0.6c-1.3-0.1-0.5,0.1-1.9,0.3c-0.2,0-0.8,0.4-1.3,0.5s-1.2,0.1-1.4,0.2c-0.6,0.3-1.6-0.1-2.1,0
		c-1.2,0.4-1.5,1-2.6,1.4c-0.8,0.3-2.3,0.3-3.1,0.7c-0.2,0.4-1.6,4.6-2.6,4.3c-0.3-0.1-0.2-0.6-0.3-0.6c-0.6-0.1-0.7-0.1-1.2,0.1
		c-1.3,0.4-1.2,1.3-1.2,1.3s1,1.2,1,1.5c0.2,0.6,0,1.1,0.2,1.5c0.8,1.8,3.4,3.9,4.9,5c0.3,0.3-1.6,0-1.1,0.9
		c0.1,0.1,1.5,1.5,1.5,2.3c-0.3,3.4-0.7,1.6-2.4,3c-0.9,1.5-6.5,10.7-6.3,11.8c0.2,1,1.2,2.2,1.4,3.1c0.1,0.5-0.5,0.8-0.2,1.2
		c0.7,1.6,0.8-0.3,1.7,1.8c-0.1-0.1-0.3-0.3-0.5-0.4c-0.5-0.1-0.6,0.1-1.1,0.1c-0.3-0.1-0.7-0.1-1-0.2c0.1,0.9-0.7,2.1-0.8,3.1
		c-0.1,0.7,0,1.3-0.3,1.9c-0.3,0.7-1.1,0.8-1.2,1.5c-0.2,0.7,0.4,1.5,0.4,2.2c2,0,0.7,1.1,2.2,1.7c0.3,0.1,0.7-0.4,1-0.2
		c0.6,0.4,0.6,1.2,1.2,1.6c0.4,0.1,0.7-0.4,1-0.5c0.3,0,0.6,0.2,0.8,0.3c1.2,0.8-0.3,0.7,0.8,1.6c0.1-0.8,1,0,1.5-2
		c0.1-0.2,0.1-0.5,0.3-0.5c1.1,0,1.9,1.2,2.7,1.2c0.2,0,0.5-0.5,0.7-0.6c1.1,0.5,1.4-0.1,2.8,0.3c1-0.4,2-0.2,2.9,0
		c0.8-0.3,1-1,1.8-1.1c1.2,0.1,1.5,0.9,2.4,1.1s1.2,0.5,1.6,1.2c1.6-0.6,1.6-1.3,2.4-2.8c1.5-1.5,5.6-1.6,7.1-2.9
		c0.8-1.3,0.4-1.8,0.9-2.7c0.5-0.6,1.1-0.8,1.8-1l0.1-0.3l0.4-0.8V343l0.1-0.4l0.9,0.2c-0.1-0.2-0.3-0.4-0.3-0.6
		c0-0.1,2.9-0.7,3.1-0.8c0.9-1.4,1.6-0.9,1.9-1.6c0.3-0.6,1.3-0.5,2.5-0.4c1.9,1.2,2,0.4,2.9,1c0.3,0.2,0.1,0.9,0.4,0.9
		c0.7,0,1.3-0.7,2.1-0.8c0.4-0.1-0.1,0.8,0,1.2c0.2,0.8,0.7-0.7,0.8-0.5c0.3,0.4,0.3,0.8,0.6,1.1c0.4,0.4-0.1-1.2,0.4-1.4
		c3.2-0.8,1.8,0.8,4.1,1.7c0.9,0.4,0.3-1.5,1.1-1c2.2,1.4,0.8,3.5,1.4,5.5c0.7,0.9,2.2,1.2,3,2.1s-0.3-1.5,1-0.7
		c1.7,0.9-0.6,3.4,0.7,2.7c0.8,0.1,0.2,1.2,0.6,1.6c0.6,0.4,2.9,0.5,3.5,0.9l1,3.2c0,0.2-0.6,0.2-0.5,0.4c0.2,0.7,2.3,0.9,2.3,1
		c-0.6,0.4-1.2,0.5-1.7,0.8c-0.2,0.2-0.1,0.4-0.2,0.6c-0.5,0.5-0.7-1.6-1.5-1.6c-0.6,0,0.1,1.6-0.5,1.5c-0.4-0.1-1.6-1-1.6-1
		c-0.2,0.3-0.2,1-0.6,1.1c-0.2,0.1-0.5-0.8-0.6-0.6c-0.5,0.4-0.1,1-0.4,1.4c-0.1,0.1-0.3,0-0.4-0.1c0-0.2,0.2-0.3,0.2-0.5
		c-0.1-0.5-0.4-0.7-0.6-1.1c-0.4-0.7-1.3,0.9-1.8,1.4c-0.2,2.2,1.3,2.1,1.5,2.8c0.1,0.5-0.3,0.8-0.3,1.3s0.4,0.6,0.2,1
		s-0.8,0.5-1.2,0.9c-0.8,0.7,0.3,1.4-0.2,2.1c-0.4,0.5-0.9,0.7-1.2,1.1c-0.2,1-0.1,1.9-0.1,1.9v0.6l0.3,0.6
		c-0.3,0.2-0.6,0.3-0.8,0.4v-0.3l-1.1-0.2l-0.4,0.6l-0.2,0.6c0.1,0,0.2,0.1,0.2,0.1s0,0,0.1,0s0,0,0.1,0.1c0.2,0.1,0.4,0.2,0.4,0.3
		c0,0.2,0,0.2,0.3,0.6s0.3,0.6,0.8,0.6s0.9,0.1,1.2,0.2s0.5,0.2,0.9,0.1s0.5-0.1,0.9,0s0.3-0.1,0.5-0.2c0.3-0.1,0.3-0.1,0.2-0.2
		c0-0.1-0.2,0-0.3-0.2s-0.2-0.3,0-0.3s0.2,0,0.2-0.2s-0.4-0.2-0.2-0.3c0.3-0.2,0.3,0,0.4,0.1c0.2,0.1,0.2-0.1,0.4,0s0.6,0.4,0.7,0.2
		c0.1-0.2-0.3-0.4,0-0.6s0.4-0.4,0.5-0.5s0.3-0.1,0.3-0.2c0.1-0.1,0.3-0.2,0.4-0.3c0.1-0.1,0.3-0.2,0.3-0.3c0-0.1,0.1-0.2,0.2-0.2
		c0.1-0.1,0.2-0.3,0.4-0.3c0.3,0,0.3,0,0.4-0.2s0.2-0.1,0.3-0.1s0.2,0.1,0.2,0c0.1-0.1,0.1,0,0.3-0.1c0.1,0,0.1-0.1,0.1-0.1
		s0.1,0,0.2,0c0.3,0.1,0.7,0.1,1,0.1s0.8,0.3,0.9,0.5c0.1,0.1,0.3,0.6,0.5,0.8c0.2,0.2,0,0.3,0,0.3s-0.2,0.2,0.1,0.4
		c0.1,0.1,0.2,0.2,0.2,0.2c0.2,0,0.2-0.1,0.2-0.2s0.2,0,0.2,0s0-0.1,0-0.2c0,0-0.1-0.1-0.2-0.2c0.1,0,0.1,0,0.2,0.1
		c0.2,0.2,0.3,0,0.3,0s-0.1-0.1-0.3-0.3c-0.2-0.2-0.1-0.4-0.1-0.6s0.1-0.2,0-0.3c-0.1-0.1,0-0.2-0.2-0.5c-0.2-0.2-0.1-0.6,0-1.1
		c0.1-0.4-0.2-0.3-0.3-0.2c-0.1,0.1-0.1,0-0.1-0.2c0-0.1,0-0.1,0-0.1s0,0,0,0.1c-0.1,0.1-0.2,0.2-0.2,0.3c-0.1,0.2-0.1,0.2-0.3,0
		s-0.1,0.1-0.1,0.3c0,0.1-0.2-0.1-0.3-0.2l-0.9,0.1c0.2-0.1,0.7-0.2,0.8-0.3c0.3-0.9-0.5-2-0.6-2.9c0-0.4-0.7-1.3-0.3-1.1
		c1.1,0.3,0.7,2.2,1.5,1.9c2.8-1.1,0.2-0.2,0.2-1.4c0-0.2,0.7-0.2,0.9-0.3c0.3-0.1-0.5-0.8-0.2-1c0.4-0.4,1-0.1,1.2-0.4
		s0-0.7,0.3-0.8c0.4-0.1,0.6,0.8,0.8,0.4c0.8-1.7,1.6-3.7,2.2-5.6c0.1-0.4-0.7-0.7-0.5-1.1c0.1-0.3,0.7-0.4,0.8-0.7
		c0.7-1.2-1.2-1-0.5-2.1c2.1-2.6,5-2.2,5-3.1c0.2-0.5,0-1,0-1s-0.5-0.4-0.5-1.1c0.3-0.2,0.7,0.5,0.8,0.4s0.1-0.9,0.4-1.1
		c0.5,0.3,0.1,1.3-0.2,2.5c0.3,0.3,0.9-0.3,1.3-0.4c0.5-0.1,0.8,0,1.3-0.1c1.2-0.2-0.4-2.2-0.4-2.2c0.2-0.8,0.8-1-0.2-1.7
		c-0.2-0.2-0.7-0.7-0.8-1s-0.5-1.4-1.2-1.8c-1.3-0.9-0.3-0.5,0.4-0.3c0.4,0.1,0.6,0.9,0.7,0.9c0.2,0,0.8,0.9,1,1.1
		c0.5,0,1,1.2,1,1.4c0,1.9,0.4,2.9,1.1,3.3c0.6-0.4,0.7-0.4,0.8-0.3c0.2,0.1,0.3,0.6,0.6,0.5s0.5-0.9,0.7-0.7
		c0.1,0.2,0.3,0.3,0.5,0.3c0.8-0.4,1.6-0.9,2.4-1.4c0.4-0.3-0.8,0.7-1.2,1c-0.5,0.6,0.3,1.4-0.6,1.5c-1.6,0.3-3.4,0.4-5,0.6
		c-0.6,0-2,0.2-1.7,0.4c0.9,0.4,0.9,1,1.7,1.2c0.3,0.1-0.5-0.9,0-1c1.1-0.4,1.2,0,1.8-0.1c0.2,0,0.9-0.3,1.2,0.3
		c-0.6,1.4-0.8,0.5-2.1,1.5c0.4,1.1,0.8,0.2,2.9,0.3l0.1,0.5c0,0-0.9,0.2-2.1,0.2s-1.8,0-2.4-0.2s-0.7-0.8-0.7-0.8l-0.4-0.2
		c0,0,0,0.3,0.1,0.6c0.1,0.4,0.6,0.8,1.4,1.1c0.8,0.3,3.3,0,4.9-0.1l0.4-1c0.1,0,0.1,0,0.2,0c0.3,0.1,0,0.4,0.2,0.5
		c0.7,0.3,1.3,0.4,2.1,0.1c0.2,0,0.3-0.1,0.5-0.2c1.3-0.1,2.5-0.2,3.4-0.5c1.2-0.4,1.1-0.4-0.2-0.2s-0.4,0.3-2,0.5
		c-0.5,0.1-0.8,0.1-1.2,0.1c0.5-0.3,0.9-0.7,1.3-0.9c0.7-0.4,1.5-0.2,2.1-0.5c0.2-0.1-0.2-0.6,0-0.7c0.2-0.2,0.6,0.3,0.8,0.2
		c0.5-0.2,0.5-0.8,0.7-1.3c0.7,0.7,2.1,1.8,2.7,1.2c0.8-0.6-0.3-0.7,0.3-1.1c0.3-0.4,0.6-0.2,0.6-0.2s0.3,1.6,0.8,2.1
		c0.4-0.1,1.5-0.5,0.7,0.3c0,0.2,0.1,0.7-0.7,0.5c-0.3,0.6-0.6,0.8-0.9,0.7c-0.5,0.4-1,1-1.6,1.9c-0.3,0.1-0.6-0.4-0.8-0.2
		c-0.1,0.2,0.5,0.4,0.4,0.6c0,0-1,0.8-1.7,1.3c-0.1,0.3-0.6,0.8-0.7,1.1c0,0.2,0.3,0.3,0.3,0.4c-1.3,0.9-3.2,2.9-2,3.3
		c2.3,0.9,0.9-0.5,3-1.1c1.7,0.5,2.9,1.1,4,1.4c1-0.8,1.9-0.9,3,0.2c2.5,2.6,0.2,1.9,0.7,3.4c0.5,1.3,0.7,1.5,0.6,1.6
		c-0.4,0.4-0.7,0.8-1.1,1.2c0.3,0.7,1.4,0.5,2.2,0.6c0.3,0.1,1,0.4,1.5,0.6c0.8,0.3,0.7-0.8,1.5-0.4c3.9-1.3,2-5.3,5-7.4
		c0.7-0.7,1.4-0.3,1.9-0.9c0.4,0,1,0.2,1.2,0c0.7-0.7-0.3-0.7,0.6-2.1c0.7-0.8,1.2-0.1,1.2-1.3c0.1-0.1-0.2,0-0.3-0.1
		c-0.5-0.5,0.2-1.2,0.5-1.3c0.5-0.3,1.2-0.4,1.7-0.3s1.6,0.6,2.1,0.5c0.7-0.1,0.2-0.7,0.8-1c0.5-0.2,1.4-0.4,1.9-0.6
		c2.9-1.7,0.2-1.6,0.3-3.1c0.1-1.6,1.7-0.4,1.1-2.5c0,0-4.4,1-4.5,1.1c-0.6,0.4,0,1.3-0.6,1.6c-0.4,0.2-0.8,0.1-1.2-0.1
		c-0.3-0.1-0.2-0.8-0.4-0.6c-0.4,0.2-0.2,1.4-1.1,2.2c-0.3,0.2-0.7,0.6-1,0.7c-1.3-0.3-2.1-0.7-3-1.4c-2.9-2.2-4.2-3.8-5-4.7
		c-0.8-0.9-0.9-1.2-0.9-1.2s-0.3,0.3-0.7,0.2c-0.3,0.1-0.2,0.3-0.2,0.5s0.6,0.4,1.1,0.4c0,0.5,0.3,0.6,0.8,0.9
		c0.1,1.1,0.3,1.2,0.8,0.8c0.2,0.2,0.3,0.4,0.5,0.5c0.3,0.2,0.6,0.6,1,1c-0.3,0.2-0.6,0.3-0.9,0.4c-0.3-0.1-0.3-0.5-0.7-0.4
		s-1.2,0.4-0.9,0.2c0.2-0.2,0.1-0.3,0-0.6c0-0.2,0.1-0.4,0-0.5c-0.2-0.2-0.4-0.4-0.4,0c0,0.2-0.1,0.3-0.2,0.3
		c0.1-0.2,0.4-0.7,0.3-0.9c-0.1-0.2-0.3,0-0.5,0.2c0.2-0.4,0.6-0.8,0.4-0.8c-0.2,0.1-0.6,0.5-0.8,1s-0.7,1-0.7,0.7
		c0-0.2,0-0.3,0-0.5c0,0,0.1,0,0.3-0.2c0.4-0.2,0.3-0.4,0.1-0.5c0.2-0.3,0-0.6-0.4-0.8c-0.2-0.1-0.3,0-0.4,0c0,0,0,0,0-0.1
		c0,0.1,0,0.1,0,0.2l0,0c0,0.1,0.1,0.1,0.2,0.2c0.4,0.3-0.3,0.1-0.2,0.6c0.1,0.2,0,0.3-0.1,0.3c0,0,0,0-0.1,0l0,0
		c-0.1,0-0.2-0.1-0.3-0.3c0-0.1-0.1-0.2-0.2-0.2l-0.9-0.3l-0.1-0.4c-0.5-0.4-0.5,0.3-1,0.2c-0.5-0.1-1.3,0-0.6,0.3
		c0.1,0,0.2,0.1,0.2,0.1c-0.3,0.1,0.3,0.5-0.1,0.9c-0.4,0.5-0.1-0.7-0.9-0.8c-1.1-0.6-1.5-0.4-1.1,0.1c0.3,0.5-0.4-0.1-0.5,0.6
		c-0.3-0.4-0.6-0.8-0.7-1.3c-0.1-0.4-0.6,0.3-0.6,0.3l-0.9-0.7c0.8-0.9,0.5-0.3,1.2-0.4s0.8,0.2,1.7,0.4c0.9,0.3,1-0.1,0.7-0.5
		c-0.4-0.4,0.6-0.2-0.2-1.3c-0.1-0.2-0.1-0.2,0-0.2c0.2,0,0.5,0.1,0.9,0.4c0.9,0.6,1.1,1.7,0.8,0.6c-0.1-0.4-0.3-0.6,0.1-0.6
		s0.4,0.2,1.1,0.3c0.2,0,0.3,0,0.3,0c-0.1,0-0.3,0-0.2,0.3c0,0.2,0,0.5,0,0.7c0.2,0,0.6,0,0.7,0.3c0.1,0.4,0.2,0.3,0.3,0.1
		c0.1-0.2,0.3,0.1,0.4-0.2l0,0l0,0c0,0,0-0.1,0.1-0.1l0,0l0,0c0,0,0-0.1,0-0.2c0-0.2,0.1-0.3,0.1-0.4l0,0c0.1-0.3,0.2-0.6-0.1-0.9
		c-0.1-0.1-0.1-0.1-0.2-0.2c0.1-0.2,0.2-0.4,0.5-0.3s0.4,0.1,0.6,0.1c0-0.1,0-0.2,0-0.2c0.1-0.1,0.4-0.2,0.5-0.1
		c-0.1-0.1-0.3-0.2-0.3-0.4c0.1-0.3,0.3-0.2,0.3-0.5s0.1-0.6,0.2-0.4c0.2,0.2,0.2,0.2,0.5,0s0.7-0.6,0.9-1.1s0.6-1,0.2-1.8
		c-0.3-0.6-0.6-0.8-0.5-0.8c0.2,0,0.3,0,0.7,0.2c0.4,0.5,0.4,0.8,0.9,1.3c-0.2,1.6-0.6,2.5-1.1,2.7c-0.6,0.3-0.3,0.6-0.4,1.2
		c0.5-0.3,1.1-1,1.2-1.2c0.3-0.6,0.9-2,0.8-3.1c0.4-1,0.6-1,0.5-1.4c0.3-0.4,0.7-0.3,0.8-0.7c0.5-0.7,0.5-1.5,0.9-2.1
		c1.4-1.9,2.3-2,3.2-2c0,0.4,0.4,0.6,0.6,0.3c0.5-1.4,0.8-2.8,3.1-3.3c0.4,0.7,0.1,2.3,0.8,1.5c0.8-1.2-0.5-1.2-0.2-2
		c0-0.2,2.5-2.8,2.6-2.8c0.4-0.2,0.7,0.7,0.9,0.4s0.2-2.3,0.8-2.8c0.8-0.6,3.2-1.8,4.1-2c0.3,0,0.4,0.7,0.6,0.4
		c0.3-0.4-0.1-0.6,0.2-1V327c-0.3-0.9,0-1.1,0.2-1.9c0.2-1.2-1,0.9-0.9-1.2c-0.4-1.5-0.6-1.8-0.4-2.9c1.8-1.1,2.2-1.9,2.2-1.9
		c0.5-0.6,0.3-1,0.2-1.7c0-0.7,0.2-0.7,0.4-1.1c2.1-1,5.1-1.3,6.9-2.8c0.3-0.4-0.2-0.9-0.4-1.4c-0.1-0.2-0.5-0.3-0.5-0.5
		c0-0.3,0.6-0.3,0.6-0.5c0-0.3-0.3-0.6-0.4-0.9c-0.1-0.5,0-0.9,0.1-1.5c0-0.2,0.3-0.4,0.3-0.6c0.4-1.1-1.3-0.1-1.3-0.1
		c-0.3-0.2,0.3-0.7,0.2-1c-0.4-0.7-1.2-1.5-1.6-2c-0.7-0.7-1.3,1.1-1.4,0c-0.5-2.5-0.6-2.1,1.1-2.9c0.6-0.3,0.9-0.8,0.2-1.5
		c-1.3,0.3-1.5,1.3-2.7,0.4c-1.2-1,0.6-1.3,0.9-1.8c0.3-0.3,0-0.8,0.2-1.2c0.5-1.4,1.6-1.7,0.1-3c-0.5-0.4-1.1-0.7-1.5-1.1
		c-0.5-0.6,0.9-1.3,0.2-1.4c-1.8-0.1-0.7,1-2.2,1.3c-2.7,0.6-0.7-0.7-2.9-1.2c-1.2-0.2-0.4,0.4-1.8,0.8c-0.4-0.2-1.1-0.8-1.3-1.1
		c-0.8-0.6-0.6,1.2-1.6,1.2c-0.7,0-0.4-0.6-1.7-0.2c-0.4,0-0.7-0.3-1-0.7c-0.3,0.4-0.6,0.6-1.1,0.8c-0.9,0.3-1.4,0-2.1-0.9
		c-1.6,0.7,0.7,1.5-1.3,2.8c-0.7-0.1-0.8-0.7-1.4-1c-0.4-0.2-0.9,0.1-1.4-0.1c-2-1-1.4-1.6-2.1-2.2s-0.4,0.8-1.8-1
		c-1.1,0.7-1.3,1.4-2.2,2c-1.1,0.6-2,1-2.7,2.9c-0.4,0.6-1.2-0.4-1.9-0.5c-0.4,0-0.5,0.6-0.8,0.8c-0.5,0.3-1.3-0.7-2-1.2
		c-2.4,0.3-2.2,1.5-3.5,2.2c-0.6-0.8-1-1-1.8-1.1c-0.4-0.4-0.7-1.1-0.8-1.7c0-0.3,0.3-0.3,0.2-0.6c0-0.4-2.4-2.6-2.5-2.8
		c-0.1-0.3,0.5-0.7,0.3-0.9c-0.1-0.1-0.3-0.1-0.4-0.1c-0.4,0.1-0.5,0.4-0.8,0.4c-0.7,0.1-0.7-0.4-1.1-0.9c-0.1-0.2-0.3-0.7-0.5-0.7
		c-1.5,0.4-1.8,1.6-2.9,1.7c-0.4,0-0.2-0.5-0.5-0.5c-0.7,0-1.3-0.2-1.9,0c-0.2,0.1-0.7,1.4-1.2,0.5c-0.1-0.2,0.2-0.4,0.2-0.6
		c0.1-0.3,0-0.4,0-0.7c-0.4-0.2-0.5-0.1-1-0.3c-0.1-0.6,0.2-1.2-0.2-1.6c-0.4-0.5-1.8-0.8-1.5-1.4c0.4-0.5,2.7-0.9,2.1-1.8
		c-0.7-1.1-0.7-0.4-3.1-1.4c-0.4-0.3-0.9-1.1-0.9-1.6s-0.3-0.8-0.5-1c-0.4-0.4-0.5-0.1-0.9-0.4c-0.6-0.4-1.2-1-1.6-1.1
		C162.2,279.5,162.1,279.5,162,279.5L162,279.5z M192.6,349.8c0.2,0,0.2,0.1,0.2,0.2s-0.1,0.1-0.1,0.1S192.6,350,192.6,349.8
		L192.6,349.8z M199.1,354.3c1,0.9,2,1.6,2.7,2.1s1.8,0.9,2.3,1.1c0,0.1-0.1,0.3-0.2,0.3c-0.1,0.4-0.6-0.3-1-0.3s-0.6-0.1-1.5,0
		c-0.8,0.1-1.4-0.5-1.6-0.7c0.3-0.3,0.2-0.1,0.6-0.5C200.3,355.7,199.5,354.9,199.1,354.3z"/>
	<path id="cz" class="st0" d="M20.2,325.3c-0.2,0.5,1.5,0.8,1.1,1.1c-1.1,0.9-2.7,1-3.8,1.7c-0.2,0.1,0,0.6-0.2,0.7
		c-0.8,0.4-1.8-0.2-2.3,0.3c-0.5,0.4-0.3,1.1-0.7,1.5c-0.2,0.2-0.4-0.5-0.7-0.4c-0.8,0.2-1,1.3-1.5,1.7c-0.3,0.3-0.8-0.2-1.1,0.1
		c-0.3,0.2,0,0.7-0.3,1c-0.4,0.5-1.4-0.4-1.7-0.4c-2.3,0.4-2.7,2.2-3.5,3.7c-0.2,0.4-0.2-0.9-0.6-1.2c-0.3-0.3-0.6-0.9-0.9-0.7
		c-0.3,0.2,0.3,0.5,0,0.6c-0.1,0-0.2,0.1-0.2,0.1c0,0.1,0.1,0.2,0.3,0.4c0.2,0.2,0.6,0.3,0.6,0.7c0,0.1,0,0.4,0,0.6
		c0.5,0.7,1.1,1.4,1.7,1.8c0.2,0.1,0.8,0.2,0.9,0.8c0.3,1.3-0.9,0.8-1.1,1.9c1.2,0.9,1.2,1.5,2.2,4c0.4,0,0.7,0.1,1,0.6
		c0.1,0.1-0.3,0.3-0.1,0.4c0.6,0.4,1.4-0.2,2.1,0.5s0.7,1.7,1.4,2.2c1.3,0.9,4.6,2.2,5.3,4h0.1c1.5,0.8,2.6,2.7,4.6,2
		c0.4-0.1,0.3-0.8,0.7-0.8c0.7,0,1.3,0.8,2,0.7l0.7-2.4c0.4-0.3,1,0.4,1.2,0.1c0.2-0.2,0-2.9,0.1-3.1c0.3-0.3,0.8-0.1,1.2,0.1
		c0.2,0.1,0,0.6,0.2,0.7c0.5,0,0.8-0.6,1.3-0.6c2.7,0,4.9,2.1,7.4,2.3c0.4,0,0.8,0.2,1.2,0.1c0.6-0.3,0.7-1,1.2-1.2
		c0.7-0.2,1.6,1,2.1,1.1c0.3,0,0.7-0.6,0.9-0.4c0.5,0.4,0.7,0.7,0.7,1.1c1.4-5.5,4.5-0.8,7.3-4.4c0.2-0.3-0.1-0.7,0.1-1
		c0.3-0.4,0.9-0.2,1.2-0.6c0,0,0.7-2.9,0.7-3c0.8-1.5,3.1-2.7,4.7-3.5c-0.4-0.5-0.1-1.3-0.5-1.8c-0.4-0.4-1.1-0.1-1.5-0.4
		c-0.1-0.1-0.9-2.3-1-2.4c-0.5-0.4-1.3-0.1-1.9-0.3c-0.5-0.1-1.5-0.4-1.9-0.7c-0.2-0.1-0.2-0.5-0.4-0.4c-1.6,0.7,1.5,0.8-1.2,1.1
		c-0.2,0-0.5-0.1-0.7-0.3c-0.3-0.3-0.2-0.7-0.5-1c-0.4-0.3-1.7-0.4-1.3-0.7c1.2-1.1,2,0.3,0.8-2c0-0.1-0.2-0.1-0.3,0
		c-0.1,0.2,0,0.6-0.2,0.7c-0.4,0.2-0.8,0-1.2,0s-0.8,0.2-1.2,0.1c-0.8-0.3-2.4-1.7-3.8-1.5c-0.6,0.1,1.5,2.2,1.4,2.3
		c-0.3,0.6-1.2,0.4-1.7,0.8c-0.3,0.3-0.2,0.9-0.6,1.1c-1.4,0.6-2-1.9-2.2-2.2l-2.2-1.3c-0.2-1.2,3.4-1.7,0.8-2.9
		c-0.5-0.3-2.5,0.8-2.5,0.8c-0.3-0.3,0-0.7-0.3-1c-0.1-0.2-0.4,0-0.7,0.1c-0.1,0-0.2,0.3-0.4,0.2c-0.2-0.3-0.1-0.7-0.5-1
		c-1.2-0.8-2.4,0.1-3.9-1.1c-1-0.8,0.4-1.5-1.3-1.7c-2.6-0.5,0.7,2.3-2.2,1.9c-0.2,0.4-0.2,0.7-0.5,0.7c-0.2,0-0.3,0-0.5-0.2
		c-0.3-0.1-0.7-0.1-0.6-0.6c0.1-0.4,0.2-0.8-0.1-0.6c-0.1,0.1-0.2,0.2-0.3,0.2c-0.1,0-0.1-0.1-0.1-0.5c0.1-0.4,0.1-0.4-0.7-0.6
		c-0.1,0-0.1,0-0.2,0c-0.1-0.1-0.1-0.1-0.2-0.1s-0.1,0.1-0.3,0.1c-0.2,0-0.3-0.3-0.6-0.4C20.2,324.5,20.3,324.8,20.2,325.3
		L20.2,325.3z"/>
	<path id="sk" class="st0" d="M78.5,338c-0.5,0-1,0.1-1.3,0.2c-0.3,0-0.3,0.6-0.6,0.7c-0.4,0.2-0.9-1.1-1.2,0.2
		c0,0.2,0.6,0.2,0.5,0.4c-0.3,0.5-0.7,1-1.3,1c-0.8,0-1.2-1-2-1.1c-0.4-0.1-0.6,0.5-0.9,0.6c-0.4,0-0.8-0.4-1.2-0.3
		c-1.3,0.3-2.4,3.2-2.5,3.3c-0.4,0.2-0.7-0.6-1.1-0.5c-0.5,0.1-1.3,0.8-1.3,0.4c0-0.2,0.6-2-0.1-2.2c-0.4-0.2-0.8,0.3-1.3,0.2
		c-0.2-0.1,0.2-0.5,0.1-0.7c-0.1-0.1-0.5,0.2-0.6,0.1c-0.5-0.5-0.5-1.3-1-1.7c-0.9-0.7-2.2,4.2-3.7,2.9c-0.3-0.3,0.2-0.9-0.1-1.2
		c-0.3-0.3-0.9,0.2-1.1-0.1c-1.6,0.8-3.8,2-4.7,3.5c0,0.1-0.7,3-0.7,3c-0.3,0.4-0.9,0.2-1.2,0.6c-0.2,0.3,0.1,0.7-0.1,1
		c-2.8,3.5-5.9-1.1-7.2,4.4c0.1,1.2-1.3,2.5-0.7,3.5c0.8,1.4,1.8,2.6,2.9,3.8c0.2-0.1,0.5-0.2,0.8-0.1c1.7,0.2,3,2.6,4.8,3
		c1.1,0.2,9.1-1.2,8.7-1.9c-0.4-0.6-1.7-1.9-0.5-2.6c1.3-0.9,4.2-0.3,5.2-1.3c0.4-0.4-0.1-1.2,0.2-1.7c0.8-1.3,2.4,0.8,3.2,0.7
		c2.3-0.4,0.2-1,1.7-2c0.4-0.2,1,0.2,1.3,0.1c1-0.5,0.7-3,1.2-3.8c1.4-1.8,3.5-0.1,5.1-0.4c0.9-0.1,1.5-1.4,2.4-1.4
		c2.3,0.1,0.9,1.9,2.7,2.4c0.3,0.2,0.7-0.3,1-0.4c0.8-0.2,1.6-0.2,2.1-0.7c0,0,0-0.1,0.1-0.1c0,0,0,0-0.1,0c0-0.8-0.6-1.6-0.4-2.2
		c0.1-0.7,0.9-0.8,1.2-1.5c0.3-0.6,0.2-1.2,0.3-1.9c0.1-0.9,0.8-2.1,0.8-3.1c-0.2-0.1-0.3-0.1-0.5-0.1c-0.8-0.1-1.1-0.2-1.9-0.4
		c-0.7-0.2-1.3-0.2-1.9-0.6c-0.4-0.2-0.3-0.8-0.6-1.1C82.1,338.2,80.1,337.9,78.5,338L78.5,338z"/>
	<path id="hu" class="st0" d="M80.2,348.6c-0.9,0-1.5,1.3-2.4,1.4c-1.6,0.3-3.7-1.4-5.1,0.4c-0.6,0.8-0.2,3.3-1.2,3.8
		c-0.4,0.1-1-0.3-1.3-0.1c-1.5,0.9,0.7,1.6-1.7,2c-0.8,0.1-2.4-2-3.2-0.7c-0.3,0.5,0.2,1.3-0.2,1.7c-1,1-3.9,0.4-5.2,1.3
		c-1.2,0.8,0.1,2.1,0.5,2.6c0.4,0.7-7.6,2.1-8.7,1.9c-1.8-0.4-3.1-2.8-4.8-3c-0.4-0.1-0.5,0-0.9,0.1c-0.4,0.2,0,1.1-0.1,1.6
		c-0.1,0.7-1,0.2-0.4,0.7s0.3,0.4,0.6,1s-0.1,0.6-0.4,1s-1.2-0.2-1.4,0s-0.8,0-1.7-0.4s-0.9,0.4-1.2,0.7s-0.5,0.7,0,1s1.5,0,1.7,0.5
		s-0.4,0.5-0.2,1c0.2,0.6,0.1,0.5-0.2,0.9s-1.5-0.4-1.4,0.2s-0.2,0.5,0,1s0.6,0.4,0.3,0.7c-0.2,0.3-0.6,0.8-0.4,1.3s1-0.1,0.8,0.2
		c-0.2,0.3-0.4,0.6-0.2,1.3c0.1,0.7,0,0.5-0.5,0.4c-0.5-0.2-1.3,0-1.7,0.9c-0.4,0.5-0.6,0.8-0.6,0.8s-0.1,0-0.1,0.1H39l0.9-0.1
		c0.1,0,0.3,0,0.4,0c0,0,0.1,0,0.1,0.1c0.4,0.5,1,3,2.8,4.4l0,0c0.1,0,0.1,0,0.2,0.1c0.2,0.1,0.4,0.1,0.4,0.1l0.5,0.8l0.2-0.1
		l0.1,0.2h0.5l0.1,0.1h0.2c0.3,0.4,0.5,0.5,0.5,1.1c0.3,0.1,0.4,0.3,0.6,0.4h0.2v0.2c0.7,0.2,1.4,0.4,1.6,0.7
		c-0.4,0.5,0.1,0.1,0.2,0.3c1,1,1,1.2,0.8,1.4c0.3,0.1,0.3,0.3,0.8,0.2c-0.1,0.2-0.3,0.1-0.2,0.3c0.2-0.1,0.3-0.3,0.5-0.3
		c0.1,0.2-0.1,0.3,0.2,0.4c0,0.1-0.1,0.1-0.2,0.1c-0.3,0.2,0.6,0.5,0.6,0c0.3,0.1,0.7,0.2,1,0.1c0.3,0.3,0.7,0.4,0.9,0.8
		c0.6,0.4,1.3,0.4,2,1.1c0.1-0.3,0.9-0.6,1.2-0.3l0.7,0.1c0.3-0.3,0.7-0.5,1.2-0.1c0.2,0,0.4,0.1,0.5,0l0.4,0.1c0.1,0,0.6-0.5,0.6,0
		c0.1-0.1,0.6,0.2,0.4-0.3c0.2,0,0.5,0,0.3-0.4l0.2,0.1c0.1-0.1,0.5-0.1,0.5-0.4c0.1-0.1,0.5-0.3,0.3-0.5c0.2-0.4,0.2-0.3,0.3-0.8
		l0.3-0.1c0.3,0.2,0.5,0.4,1,0.4c0-0.2-0.1-0.3,0-0.5c0.1,0.1,0.4,0.2,0.4-0.1h0.1c0,0,0,0,0-0.1c0.3-0.3,1.1,0.2,0.9-0.4
		c-0.1-0.2,0.7-0.2,0.7-0.5s0.1-0.4,0.2-0.7c0.4-0.4,0.1,0.6,1,0.5c1-0.1,0.5-0.4,0.7-0.6c0.4-0.6,0.5-0.1,0.7-0.2
		c0.4-0.3,0.7-0.9,0.9-1.3c0.4-0.9,0.5-0.4,0.8-0.6c1.3-0.8,0.5,0.2,1.7,0.3c0.6-0.3,0.8-0.5,1.2-0.7c0.8-0.3,0.7,0.5,1,0
		c0.2-0.3,0.4,0.2,0.8,0c0.3-0.2,0.6,0.3,0.9,0.4c0-0.1,0-0.2-0.1-0.2c0.3-1.1,3.6-0.8,4.3-1.2c0.1-0.1,0.1-0.1,0.1-0.2
		c0.2-0.4-1.2-0.8,0.5-1.1c0.3,0,0.7,0.1,1,0.2c0.2,0.1,0.3,0.1,0.5,0.2s0.3,0,0.4,0c0.3-0.1,0.6-0.3,0.8-0.6
		c0.8-1.2,0.5-3.6,0.9-4.4c0.2-0.3,0.7-0.3,0.8-0.6l1-3.3c0.1-0.2,0.2-0.4,0.3-0.7c0-0.1,0.1-0.2,0.1-0.3s0-0.2,0-0.3
		c0,0,0-0.1-0.1-0.1c-0.1-0.1-0.3-0.1-0.3-0.1l-0.1-0.1c0-0.2,0.1-0.5,0.2-0.9c0.4-1.1,1-2.7,1.4-3.3c0.1-0.1,0.3-0.1,0.4-0.1
		s0.1,0,0.2-0.1l0.1-0.1c0.5-1.8-0.2-3.1,1.9-5.1c0.2-0.2,0.3-0.3,0.5-0.4c0.1,0,0.2,0,0.3-0.1c0.4-0.1,0.8,0,1.3-0.1
		c0.1,0,0.2,0,0.4-0.1c0.8-0.4,1-1.2,1.4-2c0.1-0.1,0.1-0.2,0.2-0.3c0.1-0.1,0.2-0.2,0.2-0.3c-1.1-0.9,0.4-0.7-0.8-1.6
		c-0.2-0.1-0.5-0.3-0.8-0.3c-0.4,0.1-0.7,0.6-1,0.5c-0.6-0.4-0.6-1.2-1.2-1.6c-0.3-0.2-0.7,0.3-1,0.2c-1.5-0.6-0.3-1.6-2.2-1.7l0,0
		c-0.3,0.5-1.4,0.6-2.1,0.8c-0.4,0.1-0.7,0.6-1,0.4C81.1,350.4,82.5,348.7,80.2,348.6L80.2,348.6z"/>
	<path id="ro" class="st0" d="M123.4,343.8c-0.3,0-0.6,0.1-0.9,0.3c0,0-0.1-0.1-0.2-0.1l-0.1,0.2l-0.1,0.3c-0.8,0.2-1.3,0.4-1.8,1
		c-0.6,0.9-0.2,1.4-0.9,2.7c-1.3,1.1-4.6,1.3-6.4,2.4c-0.3,0.2-0.5,0.3-0.7,0.5c-0.7,1.5-0.8,2.2-2.4,2.8c-0.5-0.6-0.7-0.9-1.6-1.2
		c-0.1,0-0.2-0.1-0.3-0.1c-0.6-0.3-1-0.9-2.1-1c-0.2,0-0.4,0.1-0.5,0.2s-0.3,0.2-0.4,0.3s-0.2,0.2-0.4,0.3c-0.1,0.1-0.2,0.1-0.2,0.2
		c-0.1,0-0.2,0.1-0.3,0.1c-0.7-0.1-1.4-0.3-2.2-0.2c-0.1,0-0.2,0-0.4,0.1s-0.2,0.1-0.4,0.1c-1.4-0.3-1.8,0.2-2.8-0.3
		c-0.2,0.1-0.5,0.6-0.7,0.6c-0.8,0.1-1.6-1.1-2.7-1.2c-0.2,0-0.2,0.3-0.3,0.5c-0.1,0.5-0.3,0.8-0.4,1c-0.2,0.2-0.3,0.3-0.5,0.4
		c-0.3,0.1-0.6,0.1-0.6,0.5c-0.8,0.8-0.8,2.2-1.9,2.6c-1,0.4-1.8-0.1-2.4,0.7c-2.1,2-1.4,3.3-1.9,5.1c0,0.3-0.5,0.1-0.7,0.3
		c-0.5,0.8-1.5,3.4-1.6,4.2c0,0.2,0.5,0.2,0.5,0.4c0,0.5-0.3,0.8-0.5,1.3l-1,3.3c-0.2,0.3-0.7,0.3-0.8,0.6c-0.5,1,0.1,4.4-1.7,5.1
		c-0.6,0.2-1.2-0.5-1.9-0.4c-1.7,0.3-0.3,0.7-0.5,1.1c-0.2,0.7-4.1,0.2-4.4,1.4c0.1,0.2,0.1,0.3,0.2,0.4c0.3,0.2,0.5,0.3,0.9,1.2
		c0.1,0.3,0.6,0.1,0.9,0.2s0.4,0.7,0.5,0.8c0.2-0.1,0.4-0.1,0.5-0.1s0.2,0.1,0.2,0.2c0.9,0.6,0.6,0.9,1.2,1.3c0.8,0,0.3-0.2,0.6-0.3
		l0.1,0.1c0,0.1,0.2,0.3,0.2,0.6c0,0.4,0.2,0.5-0.1,1.2c-0.3,0.7,0.5,0.5,0.6,1c0,0.4-0.5,0.5-0.3,0.7c0,0.1,0.9-0.1,1,0.4
		c0.1,0.4,0.3,0,0.7,0.7c0.1,0.2,1.1,0.7,1.5,0.8c0.4,0,0.2-0.5,0.5-0.4s0.4,0.8,0.8,0.8c0.9,0,1.6,0.1,2.4,0.6
		c0.3,0.2,0.2,0.4-0.1,0.5c-0.4,0.1-0.1,0.3-0.1,0.7c-0.1,0.9-0.7,0.4-0.7,0.8c0.2,0.3,0.5,0.6,0.5,0.6s1,0.2,1.2,0.3
		c0.8,0.9-2,0.4-1.4,1.6c0.6-0.1,0.3,0.4,0.8,0.4s1.5-0.3,1.7,0.2c0.2,0.4,0.1,0.7,0.4,0.9c0.6,0.2,0.9-0.1,1.5-0.1
		c0.5,0,1.1-0.3,1.6,0c0.7,0.3,1,1.9,1.7,1.7c0.4-0.1,0.4-0.8,0.7-1.6c0.5-1.4,0.6-0.8,0.9-1.2c0.9-1,1.1-0.2,1.7,0.2
		c0.7,0.5,1,0,1.8,0.6c0.1,0.1,0.1,0.1,0.2,0.2l0.1,0.1v0.1c0,0,0,0.1-0.1,0.1c-0.6,0.8-1.1,0.2-1.5,0.3c-0.4,0.1-0.1,0.6-0.4,0.8
		s-0.6,0.1-0.6,0.3c0.1,0.2,0.3,0.2,0.5,0.5c0.1,0.2,0.3,0.9,0.6,1.1s1.1,0.1,1.3,0.4c0.2,0.3,0.1,0.3,0,0.7c0.6,0,0.9,0.2,1.5,0.6
		c0.8,0.5,1.6,0.2,1.9,0.5c0.4,0.4-0.1,0.8-0.8,1.1c-0.6,0.3-0.9,1.7,0.1,2.1c2.3,0.9,2.3-1.1,4.4-1.2c2.3-0.2,5,0.9,7.3,0.5
		c0.2,0,0.3-0.1,0.5-0.1s0.3-0.1,0.5-0.2c0.1,0,0.3-0.1,0.4-0.2s0.2-0.2,0.3-0.3c0.2-0.2,0.4-0.5,0.7-0.6c1.4-0.5,3-0.4,4.5-0.3
		c1.2,0.1,2.2,0.4,3.2,0.3c0.2,0,0.4,0,0.6-0.1c0.4-0.1,0.9-0.2,1.3-0.5c0.3-0.2,0.5-0.3,0.7-0.5s0.4-0.4,0.6-0.6s0.3-0.4,0.5-0.6
		s0.3-0.4,0.4-0.7c0.5-0.8,1.2-2.6,2.1-3.4v0.1l0.2-0.2l0,0c0,0,0,0,0.1-0.1c0,0,0,0,0-0.1c0.3-0.2,0.8-0.6,1-0.7c0,0,0.1,0,0.2,0
		c0.2,0,0.3-0.1,0.5-0.1s0.4-0.1,0.7-0.3c0.3-0.2,0.4-0.2,0.7-0.2s0.6-0.1,0.7-0.3c0.1-0.2,0.3-0.3,0.5-0.3s0.4-0.1,0.6-0.4
		s0.3-0.3,0.5-0.4s0.1-0.2,0.3-0.2c0.3,0,0.3-0.1,0.6-0.1s0.2-0.2,0.5-0.2s0.4,0.1,0.6,0c0.3-0.1,0.5-0.1,0.7,0s0.3,0.2,0.6,0
		c0.1,0,0.1,0,0.2-0.1c0,0,0.3,0.5,0.4,0.5s0.5,0,0.7,0.3c0.3,0.3,0.3,0.3,0.6,0.1c0.3-0.2,0.8-0.2,1.2-0.2s0.4-0.1,0.5-0.3
		c0-0.1,0-0.2,0-0.2s0.1,0,0.2,0.1c0.3,0.2,0.4,0.9,0.7,0.9s1-0.3,1-0.3l0.6-0.7l0.3,0.2l0.2,0.7l0.3,0.2l0.3,0.7l2.4,0.6l1.1-0.2
		l0.9,0.1l1.1-0.4c0-0.1,0-0.1-0.1-0.3c-0.1-0.2,0-0.6,0-0.8c0-0.2,0.1-0.3,0-0.4s0-0.3,0-0.4s0.1-0.3,0.1-0.6
		c0-0.3,0.1-0.5,0.2-0.6c0-0.1-0.5-0.8-0.5-1s0.2-0.2,0.2-0.2s0,0-0.1-0.1c0-0.1-0.2-0.4-0.3-0.7c-0.1-0.2,0-0.3-0.1-0.6
		s-0.2,0.1-0.4-0.5s-0.2-0.7,0-1c0.1-0.3,0.2-0.2,0.3-0.1c0-0.1,0-0.2,0-0.4c0-0.4,0.4-0.8,0.8-1.8s0.4-1.4,0.5-1.9s0.8-1.7,1.3-2.2
		s1.7-0.9,2.3-1.1s1-0.3,1.1-0.5c0.1-0.1,0.2-0.2,0.2-0.2s-0.2,0.5-0.4,0.7s-0.5,0.3-0.5,0.3s0.2,0,0.5-0.2s0.3-0.7,0.4-0.9
		c0.1-0.2,0-0.5,0-0.6s-0.3-2.2-0.3-2.8c0-0.6,0.4-0.8,0.4-0.8s-0.3,0-0.5,0.1c-0.3,0.1-0.3-0.2-0.4-0.4c-0.1-0.2,0.3-0.1,0.5-0.1
		c0,0-0.1-0.1-0.2-0.2c-0.3-0.3-0.1-0.4-0.1-0.4s0.2-0.1,0-0.3c-0.2-0.2-0.4-0.6-0.5-0.8c-0.1-0.1-0.6-0.4-0.9-0.5s-0.7-0.1-1-0.1
		c-0.1,0-0.2,0-0.2,0s0,0-0.1,0.1c-0.2,0.1-0.2,0-0.3,0.1s-0.1,0.1-0.2,0s-0.2-0.2-0.3,0.1c-0.1,0.2-0.1,0.2-0.4,0.2
		s-0.3,0.2-0.4,0.3c-0.1,0.1-0.1,0.1-0.2,0.2c0,0.1-0.2,0.2-0.3,0.3c-0.1,0.1-0.4,0.2-0.4,0.3c-0.1,0.1-0.2,0.1-0.3,0.2
		s-0.2,0.3-0.5,0.5s0,0.4,0,0.6c-0.1,0.2-0.5,0-0.7-0.2c-0.2-0.1-0.3,0-0.4,0c-0.2-0.1-0.2-0.2-0.4-0.1c-0.3,0.2,0.2,0.2,0.2,0.3
		c0,0.2,0,0.2-0.2,0.2s-0.2,0.2,0,0.3c0.1,0.2,0.3,0,0.3,0.2c0,0.1,0,0.1-0.2,0.2c-0.3,0.1-0.2,0.3-0.5,0.2c-0.3-0.1-0.5-0.1-0.9,0
		s-0.6-0.1-0.9-0.1s-0.7-0.2-1.2-0.2s-0.4-0.3-0.7-0.6c-0.3-0.4-0.3-0.3-0.3-0.6s-0.2-0.3-0.5-0.4c-0.2,0-0.2,0-0.2,0
		c-0.1,0-0.2,0-0.2-0.1c-0.1-0.2-0.1-0.1-0.2-0.2c-0.2-0.1-0.1-0.1-0.2-0.3c0-0.1-0.2-0.2-0.3-0.2c-0.1-0.1-0.2-0.1-0.1-0.4
		c0-0.1,0-0.1,0-0.1c0.1-0.1,0.1-0.1,0.2-0.2c0.1-1-1.6-3.4-1.8-4.4c-0.6-2.3,0.3-5-0.4-7.3c-0.8-3.7-8-8.2-10.6-10.7
		c-1.6-1.6-2-3.9-4-5.3C124.9,344.2,124.2,343.7,123.4,343.8L123.4,343.8z M151.7,378c0.3,0,0.5,0.1,0.5,0.2s0.1,0.3-0.2,0.4
		c-0.4,0.1-0.2,0.2-0.2,0.5s0.2,0.6,0.4,0.9s0.2,0.1,0.2,0s0.3-0.1,0.1-0.2s-0.1-0.3-0.1-0.3s0.2,0.1,0.5,0.3
		c0.3,0.2,0.1,0.5,0.1,0.7c-0.1,0.2-0.5,0.3-0.6,0.5s-0.6,0.3-0.6,0.3s0,0.1,0.1,0.2s0.2,0.3,0.2,0.3s0,0.1-0.1,0.2
		c-0.1,0.2-0.1,0.3-0.2,0.5s0,0.3-0.1,0.6c-0.1,0.3,0,0.2-0.2,0.4c-0.2,0.2-0.1,0.1-0.3,0.4s-0.3,0.7-0.3,1c-0.1,0.3-0.1,0-0.2-0.2
		c-0.1-0.3,0.1-0.6,0-0.8c-0.1-0.2,0.1-0.2,0.2-0.2s0.1-0.2-0.1-0.2s-0.1,0,0-0.2s0.4-0.7,0.6-1c0.1-0.2,0.3-0.4,0.4-0.2
		c0.1,0.1,0.2,0.2,0.2,0.1c0.1-0.1,0.1-0.2,0-0.3c-0.1-0.1-0.3,0-0.5-0.1c-0.1,0-0.2,0-0.2,0c0.1,0,0.2,0.1,0.2,0.2
		c0.1,0-0.3,0.4-0.5,0.7c-0.2,0.3-0.3,0.2-0.4,0.1c-0.2-0.1-0.1-0.3,0-0.4s0.2-0.2,0-0.1s-0.2,0-0.2-0.2s0-0.2,0.2-0.3
		c0.2-0.1,0.1-0.3,0.5-0.4s0.5-0.1,0.3-0.3c-0.2-0.1-0.3-0.2-0.1-0.3s0-0.2,0.1-0.3c0.1-0.2,0-0.2-0.4-0.3c-0.4-0.1-0.4-0.3-0.6-0.7
		s-0.1-0.5,0.1-0.8c0.2-0.2,0.5-0.3,0.5-0.4s0,0,0.5-0.2C151.5,378,151.6,378,151.7,378L151.7,378z M151.1,382c-0.1,0-0.1,0-0.2,0.1
		c-0.2,0.1-0.2,0.3-0.2,0.5s0.1,0,0.1-0.2C150.8,382.2,150.9,382,151.1,382z"/>
	<path id="bg" class="st0" d="M138.7,392.2c-0.1,0-0.1,0-0.2,0.1c-0.3,0.2-0.4,0.1-0.6,0s-0.4-0.1-0.7,0s-0.3,0-0.6,0
		s-0.2,0.2-0.5,0.2s-0.3,0.1-0.6,0.1s-0.2,0.1-0.3,0.2c-0.2,0.1-0.3,0.2-0.5,0.4c-0.2,0.3-0.4,0.4-0.6,0.4s-0.4,0.1-0.5,0.2
		c-1.9,0.3-3.5,1-4.2,2.1c-1.6,1.6-2,4.3-4.1,5.6c-1.9,1.1-3.3,0.4-5.2,0.3c-1.5-0.1-3.1-0.2-4.5,0.3c-0.6,0.2-0.7,0.9-1.3,1.1
		c-2.6,0.9-5.7-0.6-8.3-0.3c-2.1,0.2-2.1,2.2-4.4,1.2c-1-0.3-0.7-1.8-0.1-2.1c0.7-0.3,1.2-0.8,0.8-1.1c-0.3-0.3-1.1,0-1.9-0.5
		c-0.6-0.4-0.9-0.6-1.5-0.6c-0.5,0.3-0.6,0.9-0.4,1.8c-0.1,0.1-0.4,0.2-0.6,0.3s-0.2,0.4-0.3,0.5c-0.3,0.1-0.6,0-0.7,0.3
		c0.1,0.8-0.1,0.8-0.1,1c0,0.1,0.2,0.2,0.1,0.7c-0.1,0.7-0.1,0.9,0.1,1s0.3,0.2,0.5,0.9c0.2,0.7,0.9,0.2,1,1.1
		c0.1,1.1,0.5,1.5,0.8,1.7c0.7,0,0.3,0.4,0.8,0.3c0.4-0.1,0.2,0.6,1.1,0.4c0.4-0.1,0.4,0.6,0.9,0.8c0.3,0.1,0.2,0.4,0.8,0.9
		c0.6,0.4,0.9,0.3,1,0.3c0.3,0.3,0,0.9-0.4,1.3c-0.1,0.1-0.3,0.6-0.4,0.9c-0.2,0.6-0.6,0.4-0.6,0.8c0.1,1.1-0.2,1.1-0.4,1.1
		c-0.3,0.1-0.5,0.4-0.7,0.1c-0.2-0.1-0.5-0.2-0.5,0.3c-0.8-0.4,0,0.1-1,0.8c-0.1,0.2,0.4,0.5,0.6,0.8c0.2,0.4-0.3,0.5-0.1,1.2
		c0,0.5-0.1,0.6,0,1.1c0.1,0.2,0.1-0.1,0.2,0c0.3,0.2,0.8,0.6,0.9,1c0.3,1.2-0.5,0.8-0.4,1.3c-0.2,0.3,0,0.6-0.2,0.7
		c-0.4,0.1-0.7,0.1-0.7,0.4c0.2,0,0.3,0.1,0.5,0.3c0.3,0.2,0.5,0.5,0.6,0.6c0.1,0.2,0.3,0.1,0.4,0.2s0.2,0.5,0.5,0.7
		s0.5,0.4,0.8,0.4s0.5,0.2,0.7,0.2c0.2-0.1,0.4,0.1,0.7,0.2s0.4,0,0.5,0c0.2,0,0.5-0.2,0.6,0.5s0.3,1.1,0.5,1.3s0.3,0.2,0.6,0.8
		c0.1,0.3,0.3,0.5,0.3,0.5l0,0v0.1l0,0l0,0c0.1,0.6-0.4,0.7-0.4,1.2c0,0.1,0,0.2,0,0.3c0,0.1,0,0.3,0.1,0.4c0.1,0.4,0.2,0.9,0.3,1.3
		c0,0,0,0,0,0.1c0.1,0.4,0.2,0.8,0.2,1.2l0,0c0.4,0,0.8,0,1.2,0c0.4,0,0.7,0,1-0.3c0.4-0.2,0.1-0.7,0.5-0.9c0.5-0.3,0.6,0.5,1,0.1
		c0.6-0.7,1.7-0.2,2.3-0.4c0.4-0.2,0.2-0.3,0.5-0.4c0.5-0.2,0.7,0,1.6-0.9c0.5-0.4,0.4,0,1.2-0.2c0.9-0.3,0.2-0.8,0.6-1.2
		c0.2-0.2,0.5,0.2,0.8,0.1s0.7-0.7,0.9-0.6c0.2,0.2,0.7,0.3,1.1,0.1c0.6-0.1,0.6-0.8,1.2-0.6c0.5,0.1,0.2,1,0.9,1.3
		c0.1,0.2,1,0,1.2,0.1c0.3,0.1,0.5,0.7,0.8,0.6c0.4-0.1-0.1-0.5,0.2-0.6c0.4,0,0.5-0.2,0.8-0.1c0.7,0.1,2.6,0.6,3.1,0.8
		c0.2,0.1,0.1,0.3,0.3,0.3c0.6-0.2,1.8-0.8,2.2-0.8c0.3-0.1,0-0.4,0.4-0.5s0.9,0,1.3-0.1s0.7-0.5,1.1-0.6c0.2,0,0.1,0.4,0.7,0.2
		s1.9-1.1,1.9-1.1c0.3-0.2,0.3-0.5,0.3-0.7c0-0.3,0.2-0.4-0.2-0.8c-0.3-0.4,0.4-0.5-0.5-1.3s-1.5-1.6,0.4-2c0.3,0,0.8,0.3,1.2,0
		c-0.8-1.4,1.3-1.3,1.9-2c0.4-0.6-0.2-1.5,0.4-2c0.5-0.5,1.3,0,2-0.3l1.6-1.8c2.2-1.1,2.8,0.6,5,1c0.1,0.1-0.1-0.3,0.1-0.4
		c0.7-0.5,1.2-1.1,2-1.4c0.6-0.2,1.1-0.1,1.7-0.2h0.2c-0.1-0.3-0.4-0.6-0.7-0.9c-0.5-0.4-2.5-1.6-2.6-1.7c0-0.2,0.3-0.5,0.2-0.7
		c-1-2.5-5.2,0.8-3.5-1.4c0.4-0.6,1.2-0.7,1.6-1.3c0.2-0.2-0.4-0.5-0.3-0.8c0.1-0.4,0.6-0.5,0.7-0.8c0-0.1-0.4-0.3-0.3-0.3
		c0.5-0.3,1.3,0,1.6-0.5s-0.3-1.2-0.4-1.8c-0.4-1.5-0.3-2.4-0.5-3.9c0-0.2-0.6-0.1-0.6-0.3c0.2-0.3,0.8-0.3,0.9-0.7
		c0.2-0.6,0.2-1.2,0.2-1.8v-0.1c0-0.1,0.1-0.2,0.2-0.3c0.2-0.3,0.2-0.3,0.4-0.2s0.5-0.1,1-0.4c0.5-0.2,0.8-0.1,1.3,0.1
		s0.4-0.1,0.5-0.3c0.1-0.3,0.3-0.1,0.5-1s0.2-0.8-0.2-1.2c-0.4-0.4-0.2-0.7-0.4-1.1c-0.3-0.5,0.1-0.4,0-0.5
		c-0.1-0.2-0.1-0.2-0.1-0.2v-0.1l-1.1,0.4l-0.9-0.1l-1.1,0.2L146,394l-0.3-0.7l-0.3-0.2l-0.2-0.7l-0.3-0.2l-0.7,0.8
		c0,0-0.7,0.3-1,0.3s-0.5-0.6-0.7-0.9c-0.1-0.1-0.2-0.1-0.2-0.1s0,0.1,0,0.2c-0.1,0.2-0.1,0.3-0.5,0.3s-0.9,0-1.2,0.2
		s-0.3,0.2-0.6-0.1c-0.3-0.3-0.6-0.3-0.7-0.3S138.7,392.2,138.7,392.2L138.7,392.2z"/>
	<g id="ru">
		<path id="ru-main" class="st1" d="M133,0.1v0.3c-0.3,1.4-3.1,1.9-2,4.1c0.4,0.8,0.8,1.4,1.5,1.8c0.3,0.2,0.7-0.4,0.9-0.2
			c0.2,0-0.1,0.4,0,0.6h0.1c-0.4,0.2-0.8,0.2-1.2,0.6c-0.3,0.2-1,2.7-0.2,3c1,0.3,2.1-1.6,3.1-1c0.2,0.1,0.1,0.5,0,0.7
			c0,0.7-0.6,1.4-0.3,2.1c0.3,0.6,1.5,0.3,1.7,0.8c0.2,0.6-0.8,1-0.7,1.7c0,0.6,0.6,0.9,0.9,1.3c0.1,0.3,0.8,0.5,0.7,0.6
			c-0.7,0.4-1.7,0-2.3,0.5c-1.2,0.9,1.2,4.1,1.7,4.8c1,0.9,4.8,4.4,5.5,0.7c0.1-0.7-1.6-1.4-1-1.9s1,1,1.7,1.3c0.8,0.4,2,0.6,2-0.7
			c-0.1-0.7-0.7-1.3-0.6-2c0-0.5,0.3,0.9,0.7,1.3c0.4,0.5,0.9,0.7,1.4,1c0.2,0.1,0.6,0.3,0.7,0c0-0.3,0-0.7-0.1-1
			c0.1,0.2,0.2,0.4,0.3,0.7c0,0.3-0.4,0.7-0.1,0.8c0.8,0.1,1.6,0,2.2-0.5c0.1-0.1,0.1-0.2,0-0.3c0.4,0.3,1.6-0.4,1.2,0.1
			c-0.5,0.8-2.6,1.2-2.2,2c0.5,0.7,1.6,0.2,2.1,0.7c0.5,0.6-0.3,1.6,0.2,2.1c0.5,0.3,0.7-0.8,1.2-1c0.5-0.1,0.8,0.4,1.3,0.4
			c0.3-0.1,0.7-0.3,0.7-0.7c-0.1-0.1-0.5-0.3-0.3-0.3c0.7-0.1,4.1,0.3,4.5-0.2c0.5-0.8-1.7-2.1-0.9-2.5c1.1-0.8,3.4-0.9,4.7-1.4
			c-0.5-0.2-1-0.2-1.5-0.3c-0.1-0.1-0.4,0.2-0.4,0.1c0.1-2.3,7.1-1.6,4-4.1c-0.5-0.4-2.3,0.3-2.9,0.3c-1.8,0.1-3.5-0.6-5.3-0.9
			c-2-0.4-5.1-2.1-6.8-3.5c-0.4-0.3-0.6-0.8-1-1c-0.4-0.1-0.7,0.7-1.1,0.5c-1.2-0.8-0.7-2.5-1.3-3.6c-0.5-0.6-1.1-0.7-1.7-1.1
			c-0.2-0.2-0.3-0.7-0.7-0.7c-0.5,0-0.9,1-1.1,0.7c-0.3-0.7,0.6-1.2,0.7-1.9c0.1-0.8,0.1-1.5-0.2-2.1c-0.2-0.4-0.7-0.6-1-0.6
			c-0.6,0.1-1.1,1.2-1.4,0.7c-0.8-1.3,3.6-1.2,1.6-2.7h-1.4c-0.3,0.4-0.6,0.8-1.2,0.5c-0.3-0.1-0.5-0.3-0.6-0.5H133V0.1L133,0.1z
			 M215.5,0.1c0.2,0.5,0.4,0.7,0.5,0.9c0.3,0.6,0.4,1.2,0.7,1.5c0.2,0.2,0.7-0.2,0.7,0.1c-0.1,0.7-0.4,1.4-0.9,1.6s-0.8-0.7-1.3-0.7
			c-0.7,0-1.1,0.6-1.7,0.8c-0.2,0-0.5,0.1-0.6,0c-0.1-0.2,0.6-0.2,0.4-0.2c-0.4-0.2-0.8-0.2-1.2-0.1c-1.1,0-2.7,0.9-3.8,0.3
			c-0.2-0.1,0-0.7-0.3-0.7c-0.6-0.1-1.5,1.2-1.9,1.4c-0.8,0.4-1.8,0.1-2.6,0.6c-0.6,0.3-1,0.7-1.6,0.9c-1.3-0.1,0-0.9,0.2-1.1
			c0,0-0.1,0-0.2,0.1c-0.7,0.4-1.2,0.9-1.9,1.2c-0.5,0.2-1.1,0.4-1.7,0.4c-0.2,0-0.5-0.2-0.7-0.2C195,7,192.2,7.8,189.9,9
			c-2.4,1.1-4,3.5-6.1,4.8c0,0-3,0.7-3,1.2c0,0.8,1.5,1.5,1.2,2.3c-0.3,0.9-2.1,1.7-0.7,2.5c1.3,0.8,8.8,2.2,8.5,3.4
			c-0.2,0.9,0.7,2.1,0.2,3.2c-0.4,0.7-1.9,1.7-1.7,2.2c0.6,2,4,0.4,2.6,3.6c-0.3,0.5-0.9,0.2-1.4,0.5c-1.7,0.8-1.6,0.7-3-1.2
			c-1.2-1.7,2.3-2.8-2.5-2.6c-0.3,0-0.7,0.4-0.9,0.3c-0.3-0.1-0.2-0.9-0.5-0.7c-0.3,0.3-1.3,2.6-1.1,2.8c0.1,0.2,0.3,0.3,0.5,0.4
			c-0.2-0.1-0.3-0.1-0.5,0c-0.6,0.4,0.3,1.4,0.1,2.2c-0.1,0.5-0.8,0.7-0.9,1.1c0,0.8,1.2,1.9,0.7,2.5c-0.5,0.5-0.9,0.8-1.5,1.1
			c-0.5,0.1-0.9-0.2-1.3,0c-0.8,0.6,0.8,0.8-1.7,1.5c-0.3,0-0.8-0.1-0.9,0.1c-0.3,0.6,0.1,1.2-0.1,1.8c-0.6,1.5-1.8,1.7-1.1,3.7
			c0,0.3,1.9,2.5,1.5,2.6c-0.7,0.3-1.5-0.8-2.2-0.4c-0.6,0.3,0.3,1.6-0.3,1.9c-0.4,0.2-0.5-1.4-0.9-1.2c-0.5,0.2,0.4,1.1,0.1,1.5
			c-0.2,0.4-0.9,0.2-1.3,0.5c-0.5,0.4-0.6,1.2-1.1,1.2c-3.8,0.1,1.4-2.2,0.7-3.4c-0.5-0.9-2.1-1.1-2.8-1.7c-0.4-0.6-0.6-1.2-0.7-1.9
			c0-0.3,0.5-0.8,0.2-0.9c-0.7-0.1-1.3,1-1.8,0.7c-0.2-0.2,2.1-2.4,2.1-2.4c0.2-0.4,0.5-0.7,0.4-1.1c-0.1-0.2-0.5,0-0.6,0.2
			c-1.7,1.5-4.6,7.6-4,9.9c0,0.2,0.4,0,0.5-0.1c0.1-0.2-0.1-0.4-0.1-0.5c0.1-0.3,0.2-0.7,0.4-0.8s-0.3,0.9,0,1
			c0.6,0.3,1.3,0.2,1.9,0.5c0.2,0.1,0.2,0.5,0.1,0.7c-0.1,0.8,0.3,2.2-0.5,2.2c-0.8,0.1-1-3.7-2.4-2.6c-0.6,0.5-0.4,1.5-0.7,2.2
			c-0.1,0.3-0.6,0.2-0.7,0.5s0.4,0.4,0.3,0.6c0,0.2-0.4,0.2-0.5,0.4c-0.3,0.6-0.3,1.2-0.6,1.8c-0.3,0.4-1.2,0.2-1.2,0.6
			c-0.4,1.8-0.5,3.7-0.6,5.5c0,0.2-0.2,0.7-0.3,0.5c-0.1-0.4,0.3-1.4,0.1-1.2c-0.6,0.9-0.6,3.4-1.3,4.2c-0.5,0.5-1,0.9-1.6,1.1
			c-0.5,0.2-1.6-0.5-1.3-0.1s1.1,0.1,1.5,0.5c0.4,0.2,0.3,0.8,0.7,1.1c0.5,0.4,2.5-0.3,2,0.1c-0.7,0.5-1.6-0.1-2.2,0.3
			c-0.3,0.1,0,0.7-0.2,0.8c-0.3,0.4-1.1,0.1-1.2,0.6s0.3,0.9,0.2,1.4c-0.1,0.3-0.7-0.7-0.9-0.4c-0.8,1.6,0.7,1,1.4,2.3
			c0.4,0.7,0.2,2.5,0.7,3.3c0.2,0.3,2.2,3.1,1.8,3.6c-0.3,0.3-0.7-0.3-1-0.1c-1.1,0.8-2,2-2.6,3.1c-0.2,0.5,0.1,1.8-0.3,1.4
			c-0.4-0.5,0.4-1.4-0.1-1.9c-0.7-0.6-1.1,1.5-1.9,1.9c-1.2,0.7-3.2-2.2-4-2.6c-1-0.4-3.1,0.5-4.1-0.3c-1.8-1.5,0-2.7,0-3.6
			c0.1-0.4-0.2-0.7-0.5-1c0-0.1-0.3,0-0.3-0.1c-0.3-0.8,2.2-2.3,2.7-3c0.4-0.6,2.1-1.6,2.1-1.6c-1.1-2.5-4-2.7-6-3.6
			c-0.5-0.2-0.9-0.7-1.2-1c-0.1-0.1,0.2-0.5,0-0.5c-1.1-0.2-2.3,0.2-3.5,0.7c-0.9,0.4-3.4,3-4.4,3c-1.1,0-2.5-0.9-3.7-0.1
			c-1,0.8,2.7,1.5,2.8,1.5c5.1,0.9,3.2,3.2,4.6,3.6c0.3,0.2,0.6-1.2,0.7-0.8c0.2,0.6-0.5,1.2-0.4,1.9c0.2,0.8,1.4,2.5,1.8,2.8
			c0,0-0.4,0.3,0,2c0.1,0.7,0.5,3.6,1.3,3.9c0.8,0.2,1.4-0.5,2.1-0.5c0.5,0.1,2.5,1.4,3.1,1.9c0.2,0.3,0.3,0.7,0.4,1
			c0,0.2-0.3,0.6-0.2,0.7c0.3,0.5,0.7,0.7,1.2,1c0.2,0,0.4-0.4,0.4-0.3c0.7,2.3-0.5,4.2,1,6.4c1.9,2.5,2.6,3.2,2.4,3.2
			c-1.4,0.2-1.9-2.4-3.4-2.6c-0.4,0-0.7,0.2-0.8,0.4c0.1-0.2,0.1-0.5-0.2-0.6c-0.6-0.3-1.3-0.1-2-0.3c-2.9-1.1-0.9-0.2-3.8,1.4
			c-0.1,0,0.9-0.9-0.4-1c-0.7,0-1.4-0.1-2,0.1c-0.4,0.2-0.2,4.9-0.3,5.3c-0.7,2-2.1,2.7-3,4.3c-0.5,0.8,0,1.8-0.3,2.7
			c-0.7,2.3-2.8,3.6-0.9,6c1.3,1.6,6.7,3.4,7.2,5.1c0,0.2-0.4,0.4-0.3,0.6c0.4,0.8,2.2,1.6,1.5,2.1c-1.7,1.1-3.1-0.6-3.9,0.1
			c-0.5,0.4-0.2,1.4-0.7,1.7c-0.8,0.4-5.4-1.4-6.5-0.4l-0.1,0.1c-0.1-0.3-0.2-0.6-0.4-0.6c-0.8-0.1-1.4,0.7-2.2,0.7
			c-0.3,0-6.9-3.6-7-1.2c0,0.8,1.5,1.8,0.9,2.4c-0.5,0.5-1.5,0.6-1.8,1.2c-0.2,0.6,5.9,4.8,6.5,4.9c0.8,0.1,1.7-0.3,2.3-0.7
			c0.2-0.1,0-0.3,0-0.5c0.1-0.3,0-0.7,0.2-0.7c0.3-0.1,0.2,0.6,0.5,0.7c0.8,0.5,0.8-0.2,1.5,0.5c1.2,1.3,2.3,3.3,1.1,5
			c-0.2,0.3-0.7-0.1-0.9,0.2c-0.3,0.4,0.3,1.1-0.1,1.4c-0.2,0.1-7,0.5-7.1,0.3c-6.9-3.9,5.7,0.8-2.2-2.2c-4.1-1.5-3.1,0.3-3.6,0.4
			c-0.3,0.1-4.3-1.1-4.3-1.2c-0.5-0.5-0.6-1.3-0.5-2c0-0.5,1.1-0.7,0.8-1c-0.4-0.3-1.1,0.9-1.3,0.6s0.7-0.9,0.6-1.3
			c-0.2-0.8-1.8-0.4-1.8-1.1c-0.1-0.3,0.3-0.5,0.3-0.7c0-0.1-2.7-2.7-3.1-3c-0.3-0.2-1.1,0.2-1-0.1c1-2.6,2.5-0.1,1.3-3.4
			c0-0.1-1.6-2.1-1.4-2.1c0.6-0.3,1.3,0.7,1.8,0.4c0.4-0.3-0.8-0.5-1.1-0.8c-0.8-1.1-0.7-0.7-1.3-1.8c-0.6-0.8-6.3-2.2-6.7-2.1
			c-0.5,0.1-0.9,1-1.3,0.7c-0.9-0.8,1.5-1.8,1.4-2.1c-0.2-0.6-0.9-0.6-1.3-0.8c-2.8-1.7-1.2-0.4-4.2-0.9c-0.8-0.1-1.1-1.2-1.9-1.5
			c-0.2-0.1-0.5,0.4-0.6,0.2c-0.2-0.2,0.3-0.5,0.1-0.7c-0.1-0.2-0.7,0.2-0.6,0c0.1-0.3,0.9-0.3,0.7-0.5c-0.9-1.8-2.1-0.8-3.6-0.7
			c-0.2,0-0.6-0.5-0.4-0.6c0.6-0.2,5.1-0.9,5.2-0.7c0.3,0.5-0.5,1-0.3,1.4c0.5,0.8,3.6,1.8,4.4,1.8c-0.3-1.2-0.7-2.4,0.1-1.9
			c0.9,0.5,0.4,1.1,1.3,0.9c1-0.1,3.5-0.6,2.6-0.1s0,0.8,0.3,0.9s1-0.2,1-0.7s0.5-0.7,2.6,0c0.3,0.1,0.5,0.3,0.6,0.5l0,0
			c0.8,0.3,1.6,0.7,2.2,0.8c0.8,0.1,1.7-0.4,2.5-0.5c1.9-0.2,3.7-1,5.6-1.1c1.7,0,2.8,0.6,4.6,0.3c4.1-0.8,8.7-5.3,9.6-9.6
			c0.2-1.3,0-2,0.2-3.4c0.3-1.5,0.1-5.6-1.1-6.6c-0.4-0.3-1,0.3-1.4,0c-0.5-0.5-0.4-2.1-1.4-2.3c-0.1,0-0.2,0.3-0.3,0.2
			c-0.8-0.6-0.6-2.6-1.5-2.7c-0.8-0.1-1.7,1.2-2.3,0.7c-0.5-0.4-0.7-1-1.3-1.4c-0.4-0.2-0.9,0.1-1.3-0.1c-0.6-0.3-1-0.8-1.7-1.2
			c-0.3-0.2-0.9-0.7-0.9-0.5c0,0.6,1.2,0.8,1,1.4c-0.5,1.2-6-1.6-7-1.5c-0.1,0,0.2,0.3,0.1,0.4h-0.1c0.6,0,1.4,0,1.2,0.4
			c-0.2,0.6-1.2,0.3-1.8,0.1c-0.4-0.1-0.4-0.7-0.7-0.9c-0.5-0.3-1-0.1-1.5-0.3c-0.7-0.3-1.1-0.9-1.8-1.2c-3-1.2-7.2-2-10.1-2.6
			c-2.5-0.6-3.6,0.5-5.7,1.2c-1.4,0.5-2-1.1-3.4,0.2c-0.5,0.5-0.7,1.4-0.9,2.1c0,0.3,0.1,0.5,0,0.7c-0.4,0.7-1.1,1.1-1.3,1.9
			c-0.2,0.4,0.6,1.4,0.2,1.2c-1.8-1.2,0.7-2.1,0.7-2.9c0-0.6-1-0.6-1.1-1.1c-0.8-3.3,0.9,0,0.5-2.1c-0.2-0.8-3.7,0.2-5.1,1.2
			c0.2-0.6,0.4-1.1,0-1.4c-0.6-0.4-1.3,0.9-1.8,0.6c-0.6-0.5-0.8-1.6-0.4-2.2c0.8-0.9,2.9,1.8,3.7,0.8c0.6-0.5,0.7-1.7,0.3-2.3
			c-0.7-0.6-2.1,1-2.6,0.3c-0.4-0.3-2.9-1.5-3-1.2c-0.3,0.8-0.4,1.5-0.2,2.3c0.1,0.5,1.1,0.8,0.8,1.2c-0.1,0.1-2.9,0.1-4.2,0.2
			c0.6,0.8,1.9,2.5,0.7,2.9c-1.1,0.4-4-1.1-3.1-0.3c1.4,1.1-0.4,2.7-1.5,3.8l-0.5,1.9c-0.1-0.2-0.1-0.4-0.2-0.6
			c0.3,1.1,0.8,3.6-0.3,3.3l-2,2.1c-0.4,0.7,1.4-0.4,1.9,0.7c1,2.4-1.4,2.1,0.7,5.5c0.4,0.7,0.6,1.4,1.1,1.9c0.1,0,3.3,0.5,3.4,0.5
			c1,0.7,1.5,2,2.5,2.7c0.6,0.4,1.4,0.4,1.9,0.9c1.8,1.6-2.7,8.3-1.3,10.9c0.3,0.6,1.8,1.7,2.1,2c1.9,1.9,3.7,4.4,5.3,6.6
			c0.3,0.4,2.6,3.7,2.2,4.3c-0.6,0.7-2.9-0.4-0.9,1.3c0,0.1,0,3.5-0.1,4.1c0,0.4,2.2,0.4,1.9,1.2c-0.7,1.3-1.5,1.4-0.3,2.8
			c1.4,1.7,2.6,0.4,3.7,2.1c0.8,1.2-2.3-0.8,0.2,3.5c0.6,0.9,2.3,0.3,3.2,0.9c2.3,1.8-1,6.9-0.7,7.1c2.2,1.5,10.5,4.6,11.3,6.8
			c0.3,0.7-0.1,1.4-0.2,2.1c-0.2,4.3-0.7,5.4-2.2,9.4c-2,5.5-3.8,11.4-6.7,16.6c-1.1,1.9-2.9,4.1-3.5,6.3l0.2,0.2
			c0-0.2-0.1-0.4,0.1-0.5c0.7-0.4,1.5-0.3,2.2-0.7c0.1,0,1.8-2.8,1.9-2.6c0.8,1.1,0,3.1,0.8,4.2c0.3,0.4,0.9-0.3,1.3-0.1
			c0.6,0.2,1,0.7,1.3,1.1c0.2,0.2,0.3,0.6,0.5,0.7c1.2,0.6,2.2-0.7,3.1-1c2.3-0.9,1.6,0.7,3,1.4c0.6,0.3,1.5-0.3,2,0.1
			c2.6,2.2-2.8,1.2-4.5,1.3c-5.1,0.3-0.9,2.8-3.2,3.3c-0.3,0.1-2.5-0.9-2.6,0.3c-0.1,0.7,0.6,1.5,0.1,1.9c-0.4,0.4-0.9-0.4-1.4-0.7
			c-0.2-0.1-0.5-0.7-0.7-0.5c-1.1,1.1,1,2.6,0.8,4c0.9,0.5,1.1,0.8,1.1,0.9c0.1,0.1,0.2,0.2,0.2,0.3c0,0.4-0.1,1.1-0.3,1.1
			c-0.2,0.1-0.7,0.3-0.8,0.4c-0.1,0.1-0.5,0.4-0.4,0.6c0.1,0.2,0.2,0.4,0.1,0.7c0,0,0,0,0,0.1l-0.1,2.1c-0.1,0.2-0.3,0.5-0.5,0.7H98
			c-0.4,0.6-1.3,2.2-1.3,2.4s2.3,4.9,2.3,5.1c0,0.2-0.1,0.5,0,0.8c0,0.3,0.1,0.6,0.1,0.8s1.3,1.5,1.3,1.7s0,0.7,0.2,0.8
			s0.3-0.2,0.5,0c0.1,0.2,0.1,0.5,0.2,0.7s0.2,0.1,0.2,0.2c0.1,0.1,0.3,0.1,0.4,0c0.1,0,0.3,0,0.3,0.2c0.1,0.2,0.3,0.4,0.2,0.5
			l-0.1,0.1c0,0.1,0,0.3-0.1,0.3c-0.2,0-0.2,0.1-0.4,0l-0.3-0.1c-0.1,0.1-0.2,0.1-0.4,0.2c-0.1,0.2-0.1,0.5,0,0.7
			c0,0.3,0.4,0.4,0.3,0.6c-0.1,0.3-0.6,0.3-0.7,0.5c-0.3,0.3,0.4,1.6,0.2,2.1c0.5-0.1,0.8-0.6,1.2-0.3c0.4,0.2-0.1,0.8,0.2,1.2
			c0.3,0.3,0.8,0.3,1.2,0.4c3.1,1.1,0.8,1.9,0.8,3.1c0,0.3,0.7,0.2,0.7,0.5c0.1,0.7-0.1,1.3-0.1,2c0,0.1-0.1,0.3-0.1,0.4
			c0,0.2-0.2,0.5,0,0.5c0.5,0.1,0.8-0.7,1.3-0.6c1.3,0.2,0,1,0.7,1.5c1.6,1.3,4.3,3.9,3.6,6.6c2.3,1.9,1.9-1.2,3.5-0.1
			c0.5,0.4,0.8,1.7,1.3,1.3c2-1.5,1.4-1.9,4.3-1.2c0,0-0.1,3.8,1.4,3.1c0.8-0.4,1.5-2.2,2-2.8c0.3-0.3,1.4-0.1,1.6-0.2
			c1.3-0.6-0.4-1.3,2-0.4c0,0,3,1.9,3.1,1.9c0.4,0,0.9-0.7,1.1-0.4c0.8,1.3,0.5,2.2,0.2,3.6c-0.1,0.5,2.2,2.2,2.5,2.7
			c0.4,0.6-0.9-0.1-0.4,0.7c0.2,0.4-1,2.3-0.4,2.7c1.5,1,2,1.1,3.3,1.1c0.4,0.1-0.6,1.7-0.2,1.9c2.2,0.7,1.2,1.6,2.7,2.6
			c0.9,0.7,3.8,0.7,4.1,0.8c0.8,0.6,0,3.2,0.5,3.4c0.6,0.2,1.1-0.4,1.7-0.6c1.6-0.5,2.2-0.1,3.3-0.2c1-0.1,0.1,1.2,0.4,1.6
			c0.8,0.9,1,0.3,2.6,0.8c0.4,0.2,0.7,1,0.4,1.4c-0.3,0.6-1.1,0.7-1.6,1.2c-0.1,0.1,0.3,0,0.3,0.1c0.1,0.9-0.8,2.7-1.7,3.2
			c-1.2,0.8-5.7-1.2-5.7,0.3c0.1,0.8-0.6,1.8-0.2,2.6c0.3,0.8,3.6,1.4,3.4,2.5c-0.1,0.3-0.7,0.4-0.6,0.7c0.1,0.8,1.4,0.7,1.6,1.4
			c0,0.3-0.6,0.4-0.5,0.7c0.1,0.6,0.7,0.9,1,1.6c0.1,0.2-0.3,0.5-0.2,0.7c0,0.1,2,1.3,2,1.3c0.1,0.2,0.1,0.5,0.2,0.7h0.1
			c0.2,0.1,0.5,0.5,0.7,0.6c0.3,0.2,0.6-0.1,0.8-0.4c0.8-0.1,0.7-0.4,1.2-0.8c0.2-0.6,0.3-0.9,0.3-1.4c-0.1-0.6-0.2-1.3-0.2-1.7
			c1.4-0.1,2.2,0.1,2.8,0c0.7-0.1,0.4-0.4,1.1-0.5c1.7-0.2,0.7-2.7,4.1-2.4c0.3,0,0.2,0.6,0.5,0.6c0.4-0.6,0.9-1.5,1.5-1.5
			c0.1,0,0.2,0,0.3,0c0.4,0.1,1,0.7,1.6,1.1c0.4,0.3,0.5,0,0.9,0.4c0.2,0.2,0.5,0.5,0.5,1c-0.1,0.5,0.5,1.3,0.9,1.6
			c2.4,1,2.3,0.3,3.1,1.4c0.6,0.8-1.7,1.3-2.1,1.8c-0.3,0.6,1.2,0.9,1.5,1.4c0.4,0.4,0.2,1,0.2,1.6c0.5,0.2,0.6,0.1,1,0.3
			c0,0.3,0.1,0.4,0,0.7c0,0.2-0.3,0.4-0.2,0.6c0.5,0.9,1-0.4,1.2-0.5c0.6-0.2,1.2,0,1.9,0c0.3,0,0.1,0.5,0.5,0.5
			c1.1-0.1,1.4-1.2,2.9-1.7c0.2-0.1,0.4,0.5,0.5,0.7c0.4,0.5,0.5,1,1.1,0.9c0.4,0,0.5-0.3,0.8-0.4c0.1,0,0.3,0,0.4,0.1
			c0.2,0.2-0.4,0.7-0.3,0.9s2.5,2.5,2.5,2.9c0.1,0.3-0.2,0.3-0.2,0.6c0.1,0.6,0.5,1.3,0.8,1.7c0.9,0.1,1.2,0.4,1.8,1.1
			c1.3-0.7,1.1-1.8,3.5-2.2c0.6,0.4,1.5,1.5,2,1.2c0.3-0.2,0.4-0.7,0.7-0.7c0.7,0.1,1.5,1.1,1.9,0.5c0.7-1.9,1.6-2.3,2.7-2.9
			c1-0.5,1.1-1.2,2.2-2c1.4,1.8,1.2,0.4,1.8,1c0.7,0.6,0.1,1.2,2.1,2.2c0.5,0.2,1-0.1,1.4,0.1c0.6,0.3,0.7,0.9,1.4,1
			c2-1.3-0.3-2.1,1.3-2.8c0.7,0.9,1.2,1.2,2.1,0.9c0.5-0.2,0.8-0.3,1.1-0.7c0.3,0.5,0.6,0.7,1,0.7c1.3-0.4,1.1,0.2,1.7,0.2
			c1,0,0.8-1.7,1.6-1.2c0.3,0.3,1,0.9,1.3,1.1c1.4-0.4,0.5-1,1.7-0.8c2.1,0.4,0.2,1.7,2.9,1.2c1.4-0.3,0.4-1.4,2.2-1.3
			c0.8,0.1-0.7,0.8-0.2,1.4c0.4,0.4,1,0.7,1.5,1.1c1.5,1.3,0.4,1.6-0.1,3c-0.2,0.4,0.1,0.9-0.2,1.2c-0.3,0.5-2.1,0.7-0.9,1.8
			c1.1,0.9,1.4-0.1,2.7-0.4c0.7,0.7,0.3,1.2-0.2,1.5c-1.7,0.8-1.6,0.4-1.1,2.9c0.1,1,0.7-0.7,1.4,0c0.5,0.6,1.2,1.4,1.6,2.1
			c0.1,0.4-0.5,0.8-0.2,1c0,0,1.7-1.1,1.3,0.1c0,0.2-0.3,0.4-0.3,0.6c-0.1,0.6-0.2,1-0.1,1.5c0.1,0.3,0.4,0.6,0.4,0.9
			c0,0.2-0.6,0.2-0.6,0.5c0,0.2,0.4,0.3,0.5,0.5c0.2,0.5,0.7,1,0.4,1.4c-1.7,1.4-4.8,1.7-6.9,2.7c-0.3,0.4-0.4,0.4-0.4,1.1
			c0.1,0.6,0.4,1-0.2,1.7c0,0-0.4,0.8-2.2,1.9c-0.3,1.1,0,1.4,0.4,2.9c-0.1,2.1,1.2,0,0.9,1.2c-0.2,0.8-0.5,1-0.2,1.9v0.1
			c0-0.1,0.1-0.1,0.1-0.2c0.3-0.1,0.8-0.2,1.3-0.6c1-2.1,1.1-2.1,0.9-0.4c1.1-0.6,2.9-1.5,3-2.1c0.2-1-0.7-0.8,0.7-1.5
			c0.5-0.3,1.1-0.5,1.6-0.4c0.2,0.3,0.4,0.8,0.6,1c0.1,0.2,0.9,0.1,1,0.3s-0.9,0.1-0.7,0.4c0.1,0.2,0.2,0.7,0.2,1
			c-0.3,0.4-0.7,0.4-1.2,0.5c-0.1,0-0.2-0.1-0.4-0.1c-0.6,0.3-1.1,3.1-3.2,3.9c-0.4-0.1-1.4-0.3-0.6,2c0.5-0.4,0.9-1.2,1.8-0.3
			c0,0.8-1.1,1-2.1,1.1c-0.1-0.4-0.6-0.6-0.8-0.5c-0.8,0.4-0.6,1.4-1.2,2c-0.4,0.3-0.8,0.5-1.3,0.6c-0.4,0-0.9-0.6-1.1-0.2
			c-0.2,0.3,0.4,0.7,0.7,1.1c2.7,2.2,2.8,1.8,3.2,1c0.7,0.1,2,0.8,2.4,1.2c0.8,0.4,1.6,0.2,2.3,0.6c0.3,0.2,0.7,0.4,0.6,0.6
			c-0.8,1.2-2.2-0.3-2.9-0.1c-0.8,0.3,0,0.6,0,3.4c0,0.2,0.1,0.6,0.1,0.8c-0.8-2.1-0.9-3.5-2-2c-0.6,0.6,0.7,2.7,0.3,3.7
			c-0.3,0.7-0.7,1-0.7,1.5c0,0.3,0.6,0.4,0.5,0.6c-0.2,0.6-1.2-1.2-0.9,0.2c1.5,4.3,1.2-0.3,2.2,1.7c0.1,0.3-0.3,0.6-0.2,0.9
			c0,0.2,0.4,0.4,0.4,0.4c-0.7,0.1-1.1-0.2-1.7,0.1c-0.4,0.2-1.1,1.1-1.5,1.4c-0.1,0-0.1-0.4-0.3-0.4c-0.4,0-0.7,0.1-1,0.2
			c0.3,0.4,1,0.5,0.4,0.9c-0.9,0.5-0.6-0.6-0.8-0.7c-0.4-0.2-0.9-0.1-1.4-0.1s-0.9-0.4-1.4-0.1c-0.2,0.5-0.1,0.8,0,1
			c0.3-0.3,0.6-0.5,0.6-0.5s0.1,0.3,0.1,1c0.5,0.3,0.4-0.9,0.9-0.6c1.3,1-3.4,2.1-1.9,2.9c1.3,0.5,2.9-0.7,5,0.1
			c2.5,0.5,2.4,2.7,4.7,2.5c0.1,0,1.8-0.4,2.6-0.6c-0.9-1.1-2-1.2-0.2-1c2.1,2.1,2.5,1.2,3.9,2.4c1.5,0.2,2.5-0.3,4.2-0.4
			c1.7-0.1,4.8,2.1,6.4,2.7c1.7,0.8,3.3,2.1,5.1,2.5l0.1-0.1l1.9,0.9l1,0.1c0-4.4,1.1-2.1,4-3.4c0.5-0.2,0.7-0.8,1.1-0.9
			c1.2-0.3,2.4,0.9,3.6,0.7c0.2,0,2.6-1.1,2.9-1.1c0.8,0.1,1.4,0.8,2.2,0.8c0,0,3.5-1.3,4-1.5l0.1,0.1c0.9-0.6,1.1-1,1.5-1
			s0.9,0,0.9-0.5s0.7-0.6,0.7-0.6s0,0.5,0.8,0.5s1.7,0.1,1.6-0.2c-0.1-0.2,0-0.5,0.2-0.7c0.6-0.3,1.5-0.6,2.3-0.4
			c0.2,0.1,0.1,0.5,0.3,0.7c0.4,0.2,0.8,0.4,1.3,0.5c2.2,0.2,4.6-0.6,6.7-0.5c0.6,0-1,1.9,0.4,1.9c2.5,0,2.9-1.9,3.8-3.5
			c1-0.3,1.5-0.5,1.5-0.5s-0.4-0.4,0-0.7c0.4-0.4,0.5-0.1,1-0.5l0,0c0.7,0.3,1.3,1.2,1.8,0.8c0.4-0.3,0-1.3,0-1.9
			c0.7-0.3,1.1-0.3,1.4,0c0.3,0.2,0.3-0.2,0.5-0.5c1.3,0.1,1.5,0.9,3.1,0.9c0.6,0,0.8-0.9,1.3-1.1c0.6-0.2,1.2-0.2,1.8-0.3
			c0.3,0,0.5,0.6,0.6,1.3c0.1,0.2,0.3,0.5,0.5,0.7c0.1,0.2-0.1,0.4-0.4,0.5c-0.1,0.4-0.2,0.6-0.2,1l0.3,0.2c0.7,0,1.5,0.6,1.5,0.6
			s0.4-0.8,1.1-0.7c0.7,0.1,0.1,1.1,0.8,0.6s1,0,1.4-0.3s0.9-1,1.1-0.7s0.9,0.7,1.1,0.2c0.2-0.4,0.6-0.3,0.8,0.1
			c0.5-0.2,1.1-0.4,1.3-0.3c0.2-0.1,0.5-0.3,0.8-0.5h0.1l1.8,0.7c0.6,0.3,2.7,1,2.9,1c0.1,0,0.2-0.1,0.3-0.3l2.2,1.7l0.2-0.1
			c0.1,0.1,0.2,0.2,0.3,0.2c1.4,1,4.8-0.7,5.7-1.7c0.3-0.3-0.4-2.7-0.1-3.6c1.5-4,0.5-1.1,2-6.5v-0.3c-0.1,0-0.2-0.1-0.3-0.1h-0.5
			h-0.1H325c-0.6,0-1,0.5-1.6,0.3c-0.7-0.3-1-1-1.6-1.5c-0.9-0.7-5.3-3.2-6.3-3.5c-0.4-0.1-0.7,0.4-1.2,0.3
			c-0.7-0.2-1.4-2.2-1.6-2.4c-0.2-0.2-0.6,0.1-0.8,0c-0.6-0.1-1.3-0.1-1.8-0.6c-1.7-1.7-0.6-2-0.7-3.7c0-0.3-0.5,0.7-0.7,0.5
			c-0.9-0.7-0.8-2.2-1.1-3.2c-0.2-0.6-0.4-1.2-0.5-1.9c-0.1-0.8,0.5-1.6,0-2.2c-0.3-0.4-1,0.3-1.2,0.7c-0.1,0.1,1.1,3.6,1.3,4.5
			c0,0.1-0.2,0.2-0.3,0.1c-1.7-1.3-0.6-1.1-0.7-3.4c0-0.3-2.6-1.9-3.5-2.5c-0.5-0.3-0.6-1-1.2-1.2c-0.4-0.1-0.7,0.6-1.1,0.4
			c-0.6-0.1-0.7-1-1.4-1c-2.5-0.3-1.5,2-3.4-0.2c-1.6-1.9,0.7-2.6,0.7-4.1c0-0.7-1.1-1.4-0.7-1.8c0.5-0.4,0.8,1,1.4,1.1
			c0.8,0-0.8-1.2-0.8-2c0-0.3,0.7-0.3,0.7-0.6c0.2-0.9-0.7-2-0.5-2.9c0-0.2,0.7-0.1,0.6-0.3c0-0.6-0.6-0.8-0.7-1.3s0.4-0.9,0.2-1.3
			c-0.2-0.2-0.8,0.3-0.8,0c-0.1-0.3,0.7-0.1,0.7-0.4v-0.1v-0.1V312v-0.2V311c0-0.2,0-0.4-0.1-0.6v-0.2v-0.1V310c0,0,0-0.1-0.1-0.2
			v-0.1c0-0.1,0-0.2-0.1-0.2c0-0.1,0-0.1-0.1-0.2h0.1h0.6c0.3,0,0-0.6-0.3-0.8c-0.4-0.5-1.1-0.7-1.6-1.2c-0.1-0.1,0.4-0.1,0.7-0.1
			c0.7,0.2,1.5,1.4,2.3,0.7c0.4-0.3-0.6-0.9-0.5-1.4c0.1-1.1,0.2,0.5,1.2-0.5c0.6-0.6,1-1.1,1.4-1.8c0.1-0.3-0.3-0.7-0.2-0.9
			c0.2-0.3,0.7-0.2,0.8-0.5c0.4-0.8-0.3-1.9,0.5-2.2c0.4-0.2,3,2,2.3,0.3c-0.6-1-2.7-1.1-2.5-2.3c0.2-1,0.4,0.8,1.4,0.1
			c0.4-0.2-0.9-0.5-0.8-0.7c0.6-1.4,2,3.2,2.4-1.7v-0.1v-0.1V296h-0.1v-0.1v-0.1v-0.1c-0.1,0-0.1-0.1-0.1-0.1c0-0.1,0-0.2-0.1-0.3
			v-0.2c-0.1-0.2-0.2-0.4-0.3-0.7l-0.3-0.8c-2,0.1-7.7,1.2-7.1-1.3c0.5-1.7,1.6-0.3,2.2-0.3c0.5-0.1,1.8-1.6,1.2-2.4
			c-0.9-1.1-2.8-1.1-4.1-2c-2.9-1.9-4.5-3.6-8-4.6c-1.5-0.4-2.1,1.5-3.4,1.9c-0.8,0.2-1.5-0.1-2.2,0c-0.1,0.1,0.8,1.9,0.7,2.1
			c0,0-2.5-0.4-2.6-0.4c0-0.1-0.1-0.2-0.1-0.2c0.1-0.2,0.4-0.5,0.2-0.6c-0.5-0.5-1.2-0.5-1.6-1c-0.2-0.2,0.4-0.3,0.5-0.5
			c0.1-0.4,0.3-0.8,0.1-1s-0.6,0.4-0.8,0.2c-0.6-0.3-0.1-1.5-0.7-1.7c-0.7-0.2-5.1,0.9-5.4,0.7c-0.4-0.4-0.2-1.1-0.3-1.7
			c-0.2-1.4-0.9-3.8-0.7-5.2c0.2-1.3,1.2-2.1,0.6-3.6c-0.6-1.1-2.2-0.3-2.8-0.7c0,0-2.4-6.4-2.3-6.6c0-1.1,1.5-1.7,1.4-3.7
			c0-0.5-0.9-0.7-1.1-0.9c-0.8-1.2,0-3.1,0.4-4.1c0.3-0.6,4.1,1,4.5,1.2c3.3,1.4,4.7,4.5,6.9-0.9c0.1-0.4,0.1-0.8,0-1.2
			c-0.6-1.8-0.7,0.3-1.4-0.4c-0.3-0.2-0.1-0.7-0.3-1c-0.6-0.6-2.8-3.3-3.5-3.7c0,0-0.9,0.5-0.9-0.1c0-0.3,1.8-0.1,2.2-0.8
			c0.1-0.2,0.7-3.1,0.7-3.2c0.1-0.2,0.4-0.1,0.5-0.3c0.4-0.5,0.7-1,0.8-1.5c0.2-0.6-2.2-0.6-1.5-3c0.3-0.8,1.8-0.6,2.2-1.2
			c0.4-0.7,0.1-1.4,0.4-2.1c0.4-0.6,1-0.8,1.4-1.4c0.1-0.2,0.7-3.4,0.7-3.5c0-0.8-1.4-1.1-0.7-2.2c0.9-1.8,0.8,2.5,1.5-0.4
			c0.1-0.3-1.3-1.3-1.4-1.5c0.6-0.2,1.1,0.2,1.7,0.1c1.6-0.4,1.2-2.3,3.3-1.2c1,0.6-1.5,2,0.3,1.8c1.7-0.1,0.7-0.7,1.3-1.9
			c0.5-0.9,1,1.2,1.4,0.6c0.8-1.5-1.5-2-0.3-3.5c0.3-0.3,0.9-0.2,1.2-0.6c0.5-0.6,0.6-1.2,0.7-1.9c0.1-0.1-0.2-0.6,0-0.5
			c1.2,0.6,2,1.8,3.1,2.5c0.8,0.4,3.8-3.6,4.9-4c3.8-1.2,1.1,1.2,4,1.3c0.7,0,1.2-0.7,1.9-0.9c3.2-0.7,0.8,0.3,2.7,1.1
			c0.5-0.3,0.7-0.4,0.7-0.4c0.1,0,2.9-0.1,2.9-0.1c0.4,0,0.1,0.7,0.2,1.1c0.2,0.6,0.5,1.2,0.9,1.7c0.3,0.5,0.8,0.5,1.3,0.2
			c0,0.1-0.1,0.1-0.1,0.2c0.1-0.1,0.2-0.2,0.2-0.3c0.3-0.9-1.5-2.8-2-3.5c-0.5-0.6-1.2,0.3-1.5,0.1c-0.4-0.2-0.4-0.7-0.3-1.1
			c0-0.4,0.2-0.7,0.6-0.8c0.9-1.7,6,0.4,7.2,0.3v0.1c0.1-0.2,0.2-0.4,0.4-0.4c0.1,0,0.2,0,0.3,0c-0.1,0-0.1,0-0.2-0.1
			c0.1-0.2,0.2-0.4,0.4-0.5c0.6,0,1.2,0.6,1.8,0.7c0.2-0.9,0.8-4,0.8-4c0-0.5-1.2-1.4-0.8-2c0.1-0.2,0.2-0.2,0.4-0.2
			c0-0.2,0-0.3,0.1-0.3c0.1-0.2,0.4-0.2,0.7-0.2c0.5-1.2-1.2-1.6-0.6-2.5c0.1,0,0.2,0,0.5,0.1c-0.1-0.2-0.1-0.4,0.1-0.6
			c0-0.1,0.9,0.3,1.6,0.4c-0.1-0.4-0.7-0.4-0.8-0.7s0.4-0.7,0.9-1.1c-0.1,0.1-0.2,0.1-0.3,0.2c0.3-0.4,1-0.8,1.3-1.1c0,0,0,0,0,0.1
			c0.1,0,0.1-0.1,0.1-0.1c0.2-0.3,0.3-0.8,0.7-0.8c0.2-0.2,0.3-0.4,0.6-0.5c0.1,0,2.1,1.4,3,1.3c0.1-0.3-0.3-0.7-0.1-0.9
			c0.1-0.2,0.3-0.2,0.5-0.3v-0.2c0.2-0.2,0.5-0.3,0.7-0.3c-0.4-0.6-1.9-1.7-1.2-2.2c0.1-0.1,0.3-0.2,0.6-0.3c-0.1,0-0.2,0.1-0.3,0.1
			c0-0.1,0.1-0.2,0.2-0.3c0.2-0.2,1.5-0.6,2.2-1c0.1-0.5-1.1-0.8,0.1-1.4l0.2-0.1c0.2,0.1,0.4,0.5,0.7,0.5c0.5-0.1,0.7-0.6,1.1-0.7
			c1.1-0.5,0.9,0.9,1.2,1.4c0.2,0.2,0.4,0.3,0.6,0.3s0.3-0.4,0.5-0.4c0.2,0.1,0.2,0.7,0.5,0.7c0.3,0.1,0.4-0.5,0.7-0.6
			c0.3,0,0.4,0.3,0.6,0.4c0.5,0.1,0.8,0.2,1.2,0c1.5-0.4,2.4-1.5,3.5-2.2c2.6-1.6-0.4,3.1,1.7,1.1c2.3-2.5-1.1-5.9,0-6.7
			c0.8-0.5,1.5,1.1,2.8,0.7c2.3-0.9,4.4-4.6,5.1-6.8c0.5-1.3-2.4-3.6-2.7-5c0-0.3,0.6-0.6,0.4-0.9c-0.1-0.2-0.5,0.2-0.7,0.2
			c-4.8-1.3-1.6,0.5-4.7,1.2c-0.6,0.2-0.9-1-1.5-0.9c-1.3,0.5-2.1,1.7-3.4,2.3c-1,0.6,0.1-2.2-0.7-1.9c-1.5,0.5-2.1,2.2-3.6,1.1
			c-1-0.8,0.4-0.8,0.7-1.5c0.5-0.8-0.2-1.9,0.2-2.7c0.3-0.5,0.9-0.7,1.1-1.1c0.1,0,0.6-3.6,0.6-3.6c-0.3-0.7-1.1-0.9-1.9-1.1
			c-0.3-0.1-0.7,0.5-0.9,0.4c-0.5-0.2-0.5-0.8-0.8-0.9c-0.4-0.2-0.7,0.4-1,0.3c-1.4-0.1,0.6-3.9-0.1-4.4c-0.2-0.2-0.9,0.2-0.8-0.1
			c0-0.6,0.7-0.9,1-1.4s0.5-1.1,0.9-1.4c0.5-0.3,1.1,0.3,1.5,0c0.5-0.3,0.5-1.2,0.9-1.5c0.6-0.4,2.3-0.4,0.8-2.3
			c-0.8-0.9-2.2,0.7-2.5,0.7c-0.5,0.2-0.9-0.3-1.4-0.1c-0.3,0.2-1.6,2.6-3.2,2c-0.8-0.2-1.7-2.5-0.9-2.7c0.4-0.1,0.7,0.5,1,0.2
			c0.4-0.4,0.5-1,0.4-1.5c-0.4-1.3-1.5-0.4-1.7,0.1c-0.1,0.3,0.4,0.6,0.2,0.7c0,0-2.8,1.6-2.9,1.6c-0.4,0.1,0.5-0.7,0.7-1.1
			c0-0.2-0.4-0.3-0.5-0.5c-0.1-0.6,0-1.1,0-1.7c-0.2-1.2-2.8,1.1-2.2-0.6c0.8-2.3,0.2-0.1,1.1-0.5c0.3-0.1-1.9-2.2,0.1-2.7
			c0.2,0,1.2,0.4,1.5,0.3c0.2,0,0.2-1.2,0.9-1.5c0.2-0.1,0.3,0.4,0.6,0.4c0.4-0.1,1-0.3,1-0.7s-0.9-0.5-0.9-0.9
			c0.1-1,1.3-1.7,2.2-2.2c0.3-0.2,0.1,0.7,0.4,0.8c0.4,0.3,1.7,0.4,1.5-0.1s-1.2-1-1.3-1.4c-0.7-1.2,1.8-2.4,2.2-3.4
			c0.2-0.3-0.6-0.5-0.5-0.7c0.2-0.5,0.6-0.8,0.8-1.2c0.1-0.1,0.4,0,0.5-0.2c0.5-0.8,0.1-2,0.7-2.6c0.4-0.3,1,0.1,1.4-0.2
			c1.7-1.2-0.7-0.9-0.5-1.4c0.7-1.4,1.6-2.6,2.1-4.1c0-0.1,0.1,0.2,0.2,0.2c1.6-0.2,0.6-2,1.6-2.2c0.8-0.2,1.5,0.7,1.9-0.5
			c0.3-0.8-1.3-1.1-1.8-1.8c-0.7-1,0.7-1.1,0.8-1.9c0-0.3-0.7-0.5-0.6-0.7c0.5-0.4,1.2-0.5,1.5-1c0.3-0.7-0.8-2.1-0.1-2.2
			c0.5,0,0.6,0.8,1,0.8c0.3-0.1,0.1-0.7,0.2-0.9c0.5-0.9,1-1.9,1.5-2.8c0.7-1.3,2.1-3.2,2.3-4.6c0.1-0.3-0.5-0.6-0.4-0.8
			c1.3-2.7,1.5-0.1,1.4-3.6c0-1.3,1.5-0.3,1.6-2c0.2-1.6-0.5-1.4-1.4-1.5c-0.3,0-0.6-0.1-0.6-0.4c0-0.9,1.7-1.4,1.6-2.3
			c0-0.8-1.7-1.5-1.1-2c0.3-0.2,0.5-0.7,0.8-0.8c0.4-0.1,1.3,0.3,1.1,0c0-0.3-2.2-0.7-1.8-1.2c0.4-0.4,0.9-0.6,1.4-0.7
			c0.2-0.1,0.4,0.5,0.6,0.3c3.2-2.7-3.1,0.6,2.1-2.6c1.5-0.9,3,0.1,4.4-1.2c0.2-0.2-0.3-0.5-0.3-0.7c-0.1-1.8-0.2-2.1,0.7-3.8
			c0.5-0.8,0.6,0.5,0.7,0.5c0.7,0.3,1.4,0.1,2.2,0.3c0.7,0.1,1.9,1.7,1.9,1.7c2.2,1.7,2.3-0.5,3.4,0c1.5,0.8-0.6,0.2,0.4,1.4
			c1.3,1.8,2.9,1.4,2.7,1.9s-0.7,0.7-0.8,1.2c-0.1,0.3,2.7,1,3,0.9c0.6-0.3-0.7-1.2-0.6-1.9c0.5-2.2,1.7,1.3,2.3-0.9
			c0.3-0.9-1-1.4-0.8-1.8c0.9-1.6,1.9-1.1,2.4-1.1V0.1H245.5c-0.2,0.4-0.4,0.7-0.3,1.1c0.4,1.5,4.7,2.3,2.8,4.7
			c-0.8,0.9-2.5,0.7-3.4,1.6c-1.1,1.1-1.2,2.8-2.3,3.8c-0.3,0.3-4.1,2.4-4.5,2.6c-2.3,1-1.4-0.3-3.5-1c-0.2-0.1-0.7,0.6-0.7,0.3
			c0.4-4.5,0.7-0.5,2-2.2c0.1-0.2-0.7-0.1-0.6-0.4c0-0.3,0.6-0.4,0.7-0.6c0.1-0.3-0.5-0.8-0.2-0.8s0.6,0.2,0.8,0.2
			c0.8-0.1,1.6,0.1,2.2-0.4c0.5-0.6-0.3-2.1,0.4-2.2c0.8-0.1,0.2,1.4,0.2,2.1c0,0.1-0.3,0.2-0.3,0.3c0,0.2,0.2,0.4,0.3,0.5
			c0.8,0.4,2-0.1,2.3-0.8c0.4-0.6,0-1.4-0.1-2.1c0-0.1-0.4-0.2-0.3-0.3c0.1-0.3,0.6-0.3,0.7-0.6c0-0.2-0.6,0.2-0.6,0
			c0-0.2,0.4-0.4,0.5-0.7c0-0.1-0.5-0.4-0.3-0.4s0.4,0.6,0.5,0.4c0.3-0.1,0.6-0.6,0.4-0.8c-0.3-0.6-2.5-1.5-3.1-1.5
			c-0.2-0.1-0.7,0.5-0.7,0.2c0.2-0.7,0.7-1.2,1.1-2c0.2-0.4-0.3-0.7-0.7-1L215.5,0.1L215.5,0.1z M319.2,212.4c0,0.1,0,0.1-0.1,0.2
			C319.2,212.6,319.2,212.5,319.2,212.4L319.2,212.4z M318.4,213L318.4,213C318.4,213,318.4,212.9,318.4,213
			C318.5,212.9,318.4,213,318.4,213L318.4,213z M308.2,218.9C308.2,219,308.2,219,308.2,218.9c0.3-0.1,0.6-0.1,1.1-0.2
			C308.8,218.8,308.5,218.8,308.2,218.9L308.2,218.9z M170.8,14.2c-0.1,0-0.3,0.1-0.3,0.2c-0.5,0.6,0.2,1.4,0.2,2.2
			c0,0.3-0.7,0.6-0.4,0.7c0.5,0.3,1.3-0.5,1.5,0c0.3,0.4-1.1,0.5-1,1.1c0.2,0.8,4.4,1.7,4.8,1.8c0.5-0.5,0.8-1.3,1.4-1.4
			c0.8,0,1.2,1.1,2,1.1c0.4-0.1,2.6-2.1,2.6-2.7c0-2.8-5.6-1.5-7-1.6C174,15.5,171.8,14.1,170.8,14.2z M182.3,31.7
			c0.6,0.2,1.3,0.2,1.3,0.7C183.6,33,182.9,32,182.3,31.7z M148.7,49.3c-4.2,0.1-4,3.2-2.1,6.8c1.2,1.9,2,3.1,4.1,2.2
			c0.2-0.1,0.4,0.3,0.6,0.2c0.9-0.8,2-2.7,2-3.9c0-0.1-0.8-3.9-0.1-4c0.6,0,0.7,2.2,0.9,1.7c0.1-0.5-0.3-1.7-0.6-2
			c-1.3-1.1-2.2-0.8-3.9-0.9C149.3,49.3,149,49.3,148.7,49.3L148.7,49.3z M119.6,125.3c-0.3,0-0.8,0.5-1.1,0.2
			c-0.4-0.4-0.8,0.4,0.3,0.7c0.9,0,1.1-0.2,1-0.7C119.8,125.3,119.7,125.3,119.6,125.3z M117.1,126.2c-0.2,0-0.5,0.2-0.8,0.7
			c-0.6,0.9,0.9,2.1,1.8,1.7c0.9-0.4,1.4-1.7,0.6-1.3c-0.8,0.5-0.2-0.1-1-0.9C117.4,126.3,117.2,126.2,117.1,126.2z M328.6,201.9
			c0,0.1-0.1,0.2-0.2,0.2C328.5,202,328.5,201.9,328.6,201.9z M294,308.2c0.2,0,0.5,0,0.7,0.1c0.1,0.1,0,0.2-0.1,0.4
			c-0.3-0.1-0.6-0.1-0.8-0.3C293.6,308.2,293.7,308.2,294,308.2L294,308.2z"/>
		<path id="ru-kgd" class="st0" d="M63.3,267.8c-0.3,0.5-0.8,1.4-1,1.8c-0.5,0.7-0.5,0.7-1.1,1.5c-0.2,0.3-0.6,0.5-1.2,0.7
			c-0.3,0.1-0.3-0.2-0.7-0.2s-1.2,0.3-1.4,0.3c-0.3,0-0.4-0.3-0.5-0.2c-0.2,0.3-0.1,1.2-0.1,1.3c0.1,0.4,0.1,0.7-0.1,2.3
			c-0.1,0.1-0.2,0.5,0.1,0.6c0.5,0.1,0.3-0.1,0.4-0.3c0.1-0.4,0.1-1.2,0.5-0.9c0.3,0.3,0.2,0.8,0.3,0.8c0.3,0.1,0.2-0.7,0.9-0.7
			c0.5,0,0.9-0.3,1.2-0.1c0.1,0.1-0.2,0.2-0.3,0.4c-0.3,0.3-0.5,0.6-0.7,0.7c-0.4,0.3-1,0.8-1.1,0.8s-0.2-0.5-0.4-0.2
			c-0.2,0.3-0.2,0.9-0.3,1c-0.2,0.2-0.5,0.2-0.6,0.4c-0.1,0.1-0.2,0.2-0.3,0.5c6,0.5,17.4,0.4,21.4-1.9l0.1-0.1
			c-2.1-2.8-0.1-5.3-0.7-6.3c-0.3-0.4-0.7-0.7-1-0.8c-0.2-0.1-0.5,0.2-0.6,0.1c-0.4-0.3-0.2-1-0.6-1.1c-1.3-0.4-2.6,0.8-4,0.8
			c-0.2,0,0.1-0.3-0.1-0.4c-1.2-0.4-3.1-0.3-4.2-0.9c-0.3-0.2-0.3-0.7-0.6-0.8c-0.3,0-0.4,0.4-0.7,0.5c0.1,0.3-0.2,0.2-0.2,0.4
			c-0.1,0.2,0.4,1.5,0.4,1.7c0.1,1,1.1,1.2-0.3,1.9c-0.9,0.6-1.8,0.4-2.2,0s-0.6-0.2-0.9,0c-0.5,0.4-0.6,0.2-1,0
			c0.6-1.1,0.7-0.9,1.1-1.6c0.3-0.6,0.6-0.6,0.7-1.1c0.2-0.5,0.3-1,0.7-1.6c-0.2-0.1-0.5-0.3-0.5-0.3S63.4,267.7,63.3,267.8
			L63.3,267.8z M57,275.6c0,0-0.1,0.4-0.3,0.7c-0.2,0.3-0.4,0.7-0.6,1s-0.5,0.6-0.5,0.6l0.4,0.3c0-0.1,0-0.1,0.1-0.2
			s0.3-0.2,0.5-0.6s0.4-0.6,0.5-0.9c0.2-0.3,0.2-0.3,0.3-0.4s-0.2-0.3-0.2-0.3L57,275.6z"/>
		<path id="crimea_disputed" class="st2" d="M185.4,351.1c-0.1,0-0.1,0.1-0.2,0.2c-0.1,0.4,0.1,1.1,0.2,1.5c0.2-0.1,0.3,0,0.3,0
			s0.3,1.6,0.8,2.1c0.4-0.1,1.5-0.5,0.7,0.3c0,0.2,0.1,0.7-0.7,0.5c-0.3,0.6-0.6,0.8-0.9,0.7c-0.5,0.4-1,1-1.6,1.9
			c-0.3,0.1-0.6-0.4-0.8-0.2c-0.1,0.2,0.5,0.4,0.4,0.6c0,0-1,0.8-1.7,1.3c-0.1,0.3-0.6,0.8-0.7,1.1c0,0.2,0.3,0.3,0.3,0.4
			c-1.3,0.9-3.2,2.9-2,3.3c2.3,0.9,0.9-0.5,3-1.1c1.7,0.5,2.9,1.1,4,1.4c1-0.8,1.9-0.9,3,0.2c2.5,2.6,0.2,1.9,0.7,3.4
			c0.5,1.3,0.7,1.5,0.6,1.6c-0.4,0.4-0.7,0.8-1.1,1.2c0.3,0.7,1.4,0.5,2.2,0.6c0.3,0.1,1,0.4,1.5,0.6c0.8,0.3,0.7-0.8,1.5-0.4
			c3.9-1.3,2-5.3,5-7.4c0.7-0.7,1.4-0.3,1.9-0.9c0.4,0,1,0.2,1.2,0c0.7-0.7-0.3-0.7,0.6-2.1c0.7-0.8,1.2-0.1,1.2-1.3
			c0.1-0.1-0.2,0-0.3-0.1c-0.5-0.5,0.2-1.2,0.5-1.3c0.5-0.3,1.2-0.4,1.7-0.3s1.6,0.6,2.1,0.5c0.7-0.1,0.2-0.7,0.8-1
			c0.5-0.2,1.4-0.4,1.9-0.6c2.9-1.7,0.2-1.6,0.3-3.1s1.5-0.6,1.2-2.2l-0.1-0.3c-0.1,0-4.3,1-4.4,1.1c-0.6,0.4,0,1.3-0.6,1.6
			c-0.4,0.2-0.8,0.1-1.2-0.1c-0.3-0.1-0.2-0.8-0.4-0.6c-0.4,0.2-0.2,1.4-1.1,2.2c-0.3,0.2-0.7,0.6-1,0.7c-1.3-0.3-2.1-0.7-3-1.4
			c-1.3-1-2.2-1.8-3-2.6l0,0c-0.3,0.1-0.5,0.2-0.6,0.2c0.3,0.2,0.6,0.6,0.9,0.9c-0.3,0.2-0.6,0.3-0.9,0.4c-0.3-0.1-0.3-0.5-0.7-0.4
			c-0.4,0.1-1.2,0.4-0.9,0.2c0.2-0.2,0.1-0.3,0-0.6c0-0.2,0.1-0.4,0-0.5c-0.2-0.2-0.4-0.4-0.4,0c0,0.2-0.1,0.3-0.2,0.3
			c0.1-0.2,0.4-0.7,0.3-0.9c-0.1-0.2-0.3,0-0.5,0.2c0.2-0.4,0.6-0.8,0.4-0.8c-0.2,0.1-0.6,0.5-0.8,1s-0.7,1-0.7,0.7
			c0-0.2,0-0.3,0-0.5c0,0,0.1,0,0.3-0.2c0.4-0.2,0.3-0.4,0.1-0.5c0.2-0.3,0-0.6-0.4-0.8c-0.2-0.1-0.3,0-0.4,0c0,0,0,0,0-0.1
			c0,0.1,0,0.1,0,0.2l0,0c0,0.1,0.1,0.1,0.2,0.2c0.4,0.3-0.3,0.1-0.2,0.6c0.1,0.2,0,0.3-0.1,0.3c0,0,0,0-0.1,0l0,0
			c-0.1,0-0.2-0.1-0.3-0.3c0-0.1-0.1-0.2-0.2-0.2l-0.9-0.3l-0.1-0.4c-0.5-0.4-0.5,0.3-1,0.2c-0.5-0.1-1.3,0-0.6,0.3
			c0.1,0,0.2,0.1,0.2,0.1c-0.3,0.1,0.3,0.5-0.1,0.9c-0.4,0.5-0.1-0.7-0.9-0.8c-1.1-0.6-1.5-0.4-1.1,0.1c0.3,0.5-0.4-0.1-0.5,0.6
			c-0.3-0.4-0.6-0.8-0.7-1.3c-0.1-0.4-0.6,0.3-0.6,0.3l-0.9-0.7C185.9,351.4,185.6,351.1,185.4,351.1L185.4,351.1z M199.1,354.3
			c1,0.9,2,1.6,2.7,2.1s1.8,0.9,2.3,1.1c0,0.1-0.1,0.3-0.2,0.3c-0.1,0.4-0.6-0.3-1-0.3s-0.6-0.1-1.5,0c-0.8,0.1-1.4-0.5-1.6-0.7
			c0.3-0.3,0.2-0.1,0.6-0.5C200.3,355.7,199.5,354.9,199.1,354.3z"/>
	</g>
</g>
</svg>
