<?xml version="1.0" encoding="utf-8"?>
<!-- Generator: Adobe Illustrator 27.0.1, SVG Export Plug-In . SVG Version: 6.00 Build 0)  -->
<svg version="1.1"
	 id="Layer_1" xmlns:dc="http://purl.org/dc/elements/1.1/" xmlns:cc="http://creativecommons.org/ns#" xmlns:inkscape="http://www.inkscape.org/namespaces/inkscape" xmlns:svg="http://www.w3.org/2000/svg" xmlns:rdf="http://www.w3.org/1999/02/22-rdf-syntax-ns#" xmlns:sodipodi="http://sodipodi.sourceforge.net/DTD/sodipodi-0.dtd"
	 xmlns="http://www.w3.org/2000/svg" xmlns:xlink="http://www.w3.org/1999/xlink" x="0px" y="0px" viewBox="0 0 541.7 795.2"
	 style="enable-background:new 0 0 541.7 795.2;" xml:space="preserve">
<style type="text/css">
	.st0{fill:#CCCCCC;stroke:#000000;stroke-linecap:round;}
</style>
<sodipodi:namedview  bordercolor="#666666" borderopacity="1" gridtolerance="10" guidetolerance="10" id="namedview123" inkscape:current-layer="Layer_1" inkscape:cx="600" inkscape:cy="615" inkscape:pageopacity="0" inkscape:pageshadow="2" inkscape:window-height="716" inkscape:window-maximized="1" inkscape:window-width="1366" inkscape:window-x="-8" inkscape:window-y="-8" inkscape:zoom="0.40406504" objecttolerance="10" pagecolor="#ffffff" showgrid="false">
	</sodipodi:namedview>
<g id="g3248">
	<path id="Aethopien" inkscape:connector-curvature="0" class="st0" d="M461.7,185l-48.2,55l-18.8-0.3c-2.3,0.6-11,6-16,10.4
		c-4.1,3.6-10.4,5.7-16.9,8.7c-3.8,0-8.5,1.4-11.2-0.5c-6.3-6.1-13.5-3.1-20.7-0.9c-2.4,4.3-5.6,7.8-10.9,9.2l-25.8-4
		c-5.8-4.9-12.3-9.5-20.2-13.2l-14.3-1v-11.6l-11.3-4.1l-8.1-18.6l-11.7-9.3c2.2-3.5-3.5-6.4-6.4-9.5c-4,0.9-7.9,0.1-11.9-2l3.5-4.2
		l-0.2-5.4l10.3,0.2c2.2-1.4,4.7-1.9,6.4-5.6l-0.3-30.2l4.9-7.7l5.1,0.2l2.3-12.9c6.2-7.6,8.4-16.9,18.6-22.8l2.7-22.3l8.2-0.2
		l1.1-2.7l4,0.1l3.4,5.6l4.9-13c3.2,2.1,7.5,2.2,9.3,6.7l8.2-1.6l1.4-2.6l1.5-0.3l2,3.5c2.6-1.6,5.9-3.2,10-0.5
		c1.2,0.5,2.6,0.8,5.8-1c3.3,1.8,5.3,5.4,10,5.2c10.6,9.2,20.8,18.8,29.8,29.7c-0.8,0.8-1.2,3.7-1.8,10.3l-3.9,7
		c-3.1,5.2,0.7,9.7,6.7,7.6l5.3-2l5.3,2.2c-6.4,7.4,8.8,20.2,22.5,32.9l49.4,15.8L461.7,185L461.7,185z"/>
	<path id="Burundi" inkscape:connector-curvature="0" class="st0" d="M145.4,372.3l2.4-2.3l2.9,0.1l1.5,4.1l8.2-1.6l0.4-5.2
		l10.3-0.6c-3.4,5.9,1.7,9.2,3.8,12.2c-6.9,16.1-12.8,21.8-18.1,22.1c-7.1,0-6.2,2.6-6.9,4.9c-0.5-7.2-0.1-13.9,0.3-19.7
		C150.9,379.1,148.5,373.9,145.4,372.3L145.4,372.3z"/>
	<path id="Dschibuti" inkscape:connector-curvature="0" class="st0" d="M371.6,104.4l-9.8,7.3c-1.7,5-0.8,8.9-2.2,11.3
		c-5.6,9.6-4.9,10.3-3.2,12.4c2.4,2.9,8.6,0.8,11.8-1.1l5.1,2.2l5.7-8.7c-3.5-3-7.1-1.4-10.6-1.6c1-4.3,5.8-5.3,9.3-7.5
		C380.3,110.9,374.9,105.9,371.6,104.4L371.6,104.4z"/>
	<path id="Eritrea" inkscape:connector-curvature="0" class="st0" d="M284.2,72.5c3.1,2.1,6.1,1.8,9.2,6.6l8.2-1.6l1.6-2.6l1.3-0.4
		l1.8,3.4c4.1-2.2,7.8-2.3,10.5-0.2c1.6,1.3,3.9-0.5,5.7-1.1c3.2,2.6,6.3,5.4,9.8,5.3c11.2,9.3,20.9,19.3,29.9,29.6l9.7-6.8
		c-1.4-3.7-3.2-7.1-9.8-7.3c-0.3-3-1.6-5.6-5.8-7.2c-0.9-3.6-4-3.5-6.4-4.5c-2-5.7-7-8.8-11.1-12.7c-4.6,1.1-6.7-2-8.9-4.9l-3.5-0.7
		l-2.5,1.5c-2.6-2.2-3.3-5.1-4.1-8.1l-3.8-1l1,5.2c-2.3,1.4-3.5-2.4-4.7-6.4l-7.6-11.1c-5-23.2-9.3-26.1-13.8-32.4
		c-1.2,2.9-1.4,6.4-3.5,8L276,29c-1.8,3.2-4.6,4.1-7.6,4.1c-4.2,20.1-6.4,33.1-6.2,49.4h8.7l0.8-2.8l4,0.2l3.3,5.2L284.2,72.5
		L284.2,72.5z"/>
	<path id="Kenia" inkscape:connector-curvature="0" class="st0" d="M357.3,355c-2.2,3.4-4.6,6.6-9.4,6.7c-1.8,4.8-4.1,9.1-10.1,10.6
		c-6.6,11.9-11.6,25.6-19.8,35.6l-23-15.4l-3.6-13.4l-70.1-44l23.1-35.3l0.5-19.8l-7.9-6.5c-1-7.6-2.8-14.5-9-17.3l8.2-7.1l22.8-1
		l14.2,1.2c4.9,2.5,7.4,2.6,20.3,13.3l25.8,3.9c4.1-1.4,8-3.5,10.8-9.3c6.2-0.9,12.9-6.3,21,1.4c2.7,0.9,6.9,0.5,11.1-0.1
		c-4.8,7.7-9.9,13.9-14.9,20.3l0.4,64.1L357.3,355L357.3,355z"/>
	<path id="Madagaskar" inkscape:connector-curvature="0" class="st0" d="M411.7,769.4l48-102.1c3.7-11.5,5.8-23,11.3-34.6
		c3.7-4.9,8.3-9.4,5.4-16.6l1-9.9c0.5-3,2.2-2.9,4.7-0.5l1.5,6c1.8-0.6,3.5-1.2,3.4-4.1l-4.9-52.9l-9.2-9.9l-5.3,4.4l-1.4,13.6
		l-3.1,2.7c-1.6-0.5-4-2.9-3.3,2.6l-4.6,5c-5.2-9.6-5.9-1.1-4.5,3.1c-0.1,1.8,0.4,4.9-2.1,2.1l-3.7,6l5.3,3.9h-3.1l-6.8,4.9l1-6
		l-6.8,6.8l1.6,8.3l-4.6,0.2l0.9-3.7c-4.2-2.8-7.7,3.1-11.4,5.1l4.2,6.8l-5.2,0.5l-2.1-6.3l-8.4,1.4c0.3,3-3.1,3.8-6.2,4.9l-0.5-4.2
		l-4.7,4.7l-8.2,0.4l-1.6,7.1l-11.1,16c8.5,7.4,5,24.2,7.3,36.5c-3.1,9.9-9.2,17.5-14.6,25.6c-6.3,4.2-9.2,8.4-10.1,12.5
		c-0.9,4-2.9,11.9-1.7,15.9c1.4,4.7,4,3.1,4.1,7.8l1.5,7.7c-7.7,29.8,11.5,29.3,15.7,36.6c1.9-0.9,4.3,0.6,6.1-0.4
		c4.1-2.2,9.3-7.7,14.8-5.8C404.9,772.7,408.4,771,411.7,769.4L411.7,769.4z"/>
	<path id="Malawi" inkscape:connector-curvature="0" class="st0" d="M224.5,492.7l10,32.8l-2.9,29.1c5.9,5.3,11.8,9.6,20.1,23.5
		c1,1.7,2.1,6.1,1.8,9.6l-3.6,15.4l-9,3.9l0.7,13.5l-4.8,0.1c2.5-6.3,0.1-5.1-1-5.5c-6.5-4.1-9-10.2-10.2-15.7
		c5.3-8.2,5-14.8,4.4-21.2l-8.8-1.6c-6.8,1.7-8.2-0.8-8.8-3.1c-3.7-8.7-5.4-5.3-6.8-5.9l-5.3-7.3l9.3-17.2l7.2-0.8l-4.9-6.4
		l4.3-22.3l4.1-3l-11.8-23.4C211.8,490.2,215.6,491.2,224.5,492.7L224.5,492.7z"/>
	<path id="Mosambik" inkscape:connector-curvature="0" class="st0" d="M155,583.9l3.5,9.2l-0.3,4.6l12.2,0.9l28.7,11.2
		c2.9,16,1.1,29.4-3.6,41.3c-0.1,2.3-0.9,4.5-0.6,6.7c0.5,4,2.5,9.5,0.3,14.1c-5.8,11.8-11.1,23.6-12.5,24.4
		c-4.8,2.6-10.7,10.3-10.8,16.5l2.9,70.7l10.8,0.7l2.9-10l-4.3,1.6c0.7-4-0.2-7.9,3.9-11.9l34.8-13.7c4.3-3.2,7-7.9,10-12.4
		l-4.1-1.4l7.2-27.2l-3.7-1.3l-3-22.9c-9.8-6-4.2-15.4-0.2-17.6l21-17.9l1.7,3.6l7.8-8.6l-1.7-2.7l5.1-0.9l1.5-4.4l25.7-12.7
		l6.4,0.1c4.9-3.7,8.8-7.7,15.9-10.7l-0.5-3.8l8.6-6.6c2.1-2.1,3.8-5.2,6.5-5.1l0.4-4.3l-1.6-1.8l4.7-7l1.2-4.7l-0.7-3.1l-2.9-4.4
		l1-17.2c-2.2-2.1-1-3.6,0.2-5l-0.6-19l6.9-11.6c0.2-3.2,0.4-6.4-0.7-9.6c-10.6,6.3-28.3,17.3-37.3,11.6c-3.9,0.5-8.3,0.5-12.1,5.4
		c-3.2-0.3-6.1-0.9-10-0.6l-12.7,2.3c-2.3-2.8-4.6-5.5-9.9-2.5l-18.5-0.6l-2.9,28.9c9.1,7.3,17.2,16.8,21.2,26.5
		c2.4,5.9-2,14.4-2.8,21.9l-9.2,4l0.5,12.9l-4.5,0.7c1.1-2.7,2.3-5.4-1.6-5.8c-5-4.2-8.8-9-9.3-15.3c3.8-6.2,5.4-13.3,4.3-21.2
		l-8.9-1.6c-3.5,0.8-7.5,0.8-8.4-2c-2.4-7.3-4.7-7.7-7.4-7L155,583.9L155,583.9z"/>
	<path id="Ruanda" inkscape:connector-curvature="0" class="st0" d="M168.9,344.8l-7.4,5.9H159l-1.5-2.1
		c-6.5,6.5-11.4,13.9-16.4,21.1c1.8,0.4,3.3,1.3,4.3,2.7l2.4-2.3l2.8,0.2l1.4,3.8l8.5-1.7l0.4-5.1l10.5-0.6c1.5-2.1,2.9-4.2,5.2-6.3
		L168.9,344.8z"/>
	<path id="Sambia" inkscape:connector-curvature="0" class="st0" d="M171.8,465.8l-30.4,7.5c-2,3.6-3.4,5.7-4.2,9.8
		c-0.2,1.1,0.7,3.2,1,6.2c0.6,5.9,2.6,16.3,0.8,19.1c-4.3,6.6-7.1,18.7-6.9,19c2.4,3.5,7.4,7,10.3,7.8c4,1.1,8.5,0.6,9.5-0.9
		l0.5,19.2c-1.6-1.3-3.8-2.2-4.9-3.6c-6.4-0.5-12.2,2.9-21.5-14.9c-6.2-0.5-12.3-2.3-17.6-9.7c-2.6-0.7-6.8,2.8-10.7,3.7
		c-11-1.1-14.2-6.3-17-7.9c-1.9-1.8-3.1-3.8-3.5-6.2l-11.3,3.8l-2-8.8l-4.7,0.2l-4,32.8l3.7,3.7l-34.6-0.9l-1.7,61.5l19.2,17
		l26.1-4.1l3.8,5.7l1.7,3.9l20.4,0.2l2.8,2.4l3.8-1c11-14.4,21-18.1,31.2-22.9l0.4-9.6c8-5,16.6-7.7,26.6-5.8l-3.7-9.5l50.7-15.9
		l-5.4-7.9l9.1-17l7.1-0.8l-4.6-6.2l4.2-22.4l4.2-2.9l-8.3-16.2l-3.8-7.5l-19.4-6.5c-6.6-9.4-8.2-7.6-10.2-7.1L171.8,465.8
		L171.8,465.8z"/>
	<path id="Simbabwe" inkscape:connector-curvature="0" class="st0" d="M73.4,629.9l5.1,10.3c1.7,1.9,3.8,3.7,3.7,6.9
		c4,6.8,8.9,11.6,13.4,17.2c3.5,1.1,6.5,2.6,8.6,5.4c2.1,2.6,4.5,5.1,8.8,5.8c-1.8,10.4,2.9,19.4,7.8,21.3
		c5.8,0.3,11.3,1.3,15.4,5.3c11.8,1.4,13.2,3,16,4.7c9.7-3.2,14.2,2.2,19.7,5.9c1.3-7.9,6-12.3,11.2-16.4c4.1-6,8-15.5,11.9-23.4
		c2.9-4.9,0.6-10.1-0.1-15.2l0.8-6.5c7.1-17.9,4.9-28.6,3.8-41.2l-29-11.2l-12.2-0.9l0.4-4.1c-10.3-3.3-18.7,1.2-26.4,5.4l-0.3,9.5
		c-23.7,10.6-25,16.3-31.5,23l-3.5,1.1l-2.9-2.6L73.4,629.9L73.4,629.9z"/>
	<path id="Somalia" inkscape:connector-curvature="0" class="st0" d="M379.2,127.5l-5.9,9.2c-5.7,8.2,9.9,20.8,22.8,32.8l49.8,16
		l16-0.7l-48.3,55.3l-19.5-0.4c-6.2,3.5-12.3,7.1-16.7,11.6c-5.1,3.2-10.8,5.1-16.2,7.6c-3.3,7.3-8.9,13.3-14,19.6l0.2,64.2
		l9.8,12.3l22.5-25.2l37.7-35.6l4.3-0.5l15.8-15l0.6-3c8.7-6.6,19.5-17.7,22.2-23.1c4.8-9.7,10.9-17.8,17.8-25.7L493,184
		c2.9-2.8,5.1-6.5,6.9-10.8c0.8-4.5,3.4-6.1,5.5-8.6l1.7-21.5c4.8,0.7,2.5-8.8,2.8-14.7c-1.9-1.7-3.9-4.4,0-6.6v-5.4
		c-3.5,0.3-7-3.7-10.4-1c-4.3,4-10,6.9-16.6,7.5c-7.3,0.6-13.2,4.8-16.3,3.8c-4.9,4.1-11.2,5.5-19.4,3.1c-5.4,4.8-9,11.1-26.5,6.7
		l-11.1,8C392.3,149.2,387.8,135.3,379.2,127.5z"/>
	<path id="path3246" class="st0" d="M228.9,168.4L228.9,168.4l-7.8,2.8v-11.8l-4.5-8.5l-7.5-2.8l-6-33.5l-6.5-2.6v5.7h-11.4l5.9,4.4
		l1,13.9l-17.2,22l-16.2-10.6l-10.7,3.9v5.7l-9.3,3l-0.2-5.8l-20.4-0.7v7.4H98.7l-6.5,0.6l-4.5-8.6h-5.5h-8l-14.5,28.4v0.3
		c0.2,0.1,0.4,0.1,0.5,0.2c2.1,2.9,3,6.5,12.7,5.4l5.6,5.1c-1.2,8.5,11.4,13.2,18.7,19.3L104,225c5.9,2.9,13,4.1,13.8,14
		c3.9,2.2,5.5,5.5,8.3,8.4c1.3,1.3,0.1,2.6,1.4,3.6c3.7,2.9,10.5,3.6,11.4-0.6c0,0,6.2,2.4,10.7,1.8c2.8-0.3,2.5-3,5.3-3.6l20,17.5
		l3.6-2.6c13.7,3.2,27.5,1.4,41.2-0.6l16.4-14l22.7-0.8l0.2-11.8l-11.7-4l-8.1-17.8l-11.7-9.9c2-3.1-3.5-6.3-6.2-9.4
		c-3.7,1-7.7,0.2-11.9-2l3-3.8l-0.1-5.5l10.7-0.2c2.1-1.3,4.3-1.9,5.9-5.2L228.9,168.4z"/>
	<path id="Tasania" inkscape:connector-curvature="0" class="st0" d="M221.2,335l-6.1,9l-46,0.8l7.5,15.5
		c-11.9,12-4.3,14.3-1.5,18.9c-5.2,9.7-9.2,21.6-19.6,22c-2.6,0.7-4.5,0-5,3.2c-1.1,7.5,2.2,23.2,5.2,32.2c3.1,7,8.6,11.7,11.6,17.5
		c2.7,4,3.4,8.1,4.7,12.1l6.4,7.2c2.7-0.8,5.7-0.1,9.9,6.9l19.2,6.3c4.1,3.8,10.7,4.9,17.1,6l10,33.1l18.8,0.5
		c3.2-2,6.5-1.9,9.7,2.3c7-1.1,13.2-2.9,22.4-1.8c2.9-3.1,6.5-5.4,12.5-5.1c7.2,5.7,27.8-5.9,36.6-11.7c-2.2-3.9-6.1-6-9.8-8.4
		c0.3-4.4-1.5-9.3-3.1-14.1c-1.9-2.9-3.3-5.8-2.1-7.9l-4.4-9.5l2.7-0.9c-0.7-7.3-0.7-14.1,3.7-18.6c-3-6.1-13.1-11-12.5-18.3
		l8.6-24.3L295,392.8l-3.8-13.5L221.2,335L221.2,335z"/>
	<path id="Uganda" inkscape:connector-curvature="0" class="st0" d="M175.4,266l3.3-2.5c13.3,3.4,27.1,1.4,41-0.5l8.3-6.9
		c4.7,2.8,8.2,7.5,8.9,17.4l8,6.4v19.4L215.2,344l-46.3,0.9l-7.1,5.7l-2.8,0.1l-1.6-2.1l1.1-27.6l10.4-15.7l16.5-14.8l-10-6.3
		L175.4,266L175.4,266z"/>
</g>
</svg>
