<?xml version="1.0" encoding="UTF-8" standalone="no"?>
<!-- Generator: Adobe Illustrator 14.0.0, SVG Export Plug-In . SVG Version: 6.00 Build 43363)  -->
<svg
   xmlns:dc="http://purl.org/dc/elements/1.1/"
   xmlns:cc="http://creativecommons.org/ns#"
   xmlns:rdf="http://www.w3.org/1999/02/22-rdf-syntax-ns#"
   xmlns:svg="http://www.w3.org/2000/svg"
   xmlns="http://www.w3.org/2000/svg"
   xmlns:sodipodi="http://sodipodi.sourceforge.net/DTD/sodipodi-0.dtd"
   xmlns:inkscape="http://www.inkscape.org/namespaces/inkscape"
   version="1.1"
   id="svg2"
   sodipodi:version="0.32"
   inkscape:version="0.46"
   sodipodi:docname="H1N1_South_Asia_map.svg"
   inkscape:output_extension="org.inkscape.output.svg.inkscape"
   x="0px"
   y="0px"
   width="361.352px"
   height="390.241px"
   viewBox="0 0 361.352 390.241"
   enable-background="new 0 0 361.352 390.241"
   xml:space="preserve"><metadata
   id="metadata48"><rdf:RDF><cc:Work
       rdf:about=""><dc:format>image/svg+xml</dc:format><dc:type
         rdf:resource="http://purl.org/dc/dcmitype/StillImage" /></cc:Work></rdf:RDF></metadata>
<sodipodi:namedview
   id="namedview727"
   inkscape:window-height="715"
   inkscape:window-width="1024"
   inkscape:pageshadow="2"
   inkscape:pageopacity="0.0"
   inkscape:window-x="-4"
   inkscape:window-y="-4"
   inkscape:current-layer="g9"
   gridtolerance="10.0"
   borderopacity="1.0"
   bordercolor="#666666"
   pagecolor="#ffffff"
   showgrid="false"
   inkscape:zoom="1.25"
   inkscape:cx="206.61878"
   guidetolerance="10.0"
   inkscape:cy="183.43532"
   objecttolerance="10.0">
	</sodipodi:namedview>
<defs
   id="defs4">
	
	
		<inkscape:perspective
   id="perspective731"
   inkscape:persp3d-origin="581.5 : 302.33333 : 1"
   sodipodi:type="inkscape:persp3d"
   inkscape:vp_x="0 : 453.5 : 1"
   inkscape:vp_y="0 : 1000 : 0"
   inkscape:vp_z="1163 : 453.5 : 1">
		</inkscape:perspective>
</defs>
<sodipodi:namedview
   id="base"
   inkscape:window-height="944"
   inkscape:window-width="1280"
   inkscape:pageshadow="2"
   inkscape:pageopacity="0.0"
   inkscape:window-x="-8"
   inkscape:window-y="-8"
   inkscape:current-layer="svg1926"
   gridtolerance="10.0"
   borderopacity="1.0"
   bordercolor="#666666"
   pagecolor="#ffffff"
   showgrid="false"
   inkscape:zoom="1.4326381"
   inkscape:cx="278.7689"
   guidetolerance="10.0"
   inkscape:cy="201.08867"
   objecttolerance="10.0">
	<inkscape:grid
   type="xygrid"
   visible="true"
   enabled="true"
   id="grid7412" />
</sodipodi:namedview>
<g
   id="g9">
	<path
   id="pk"
   fill="#CD3512"
   stroke="#FFFFFF"
   stroke-width="1.0003"
   d="M22.849,94.9c3.791,0.854,7.262,2.714,10.973,3.825   c4.419,1.324,7.974-0.042,12.379-0.13c1.567-0.03,2.889,0.604,4.405,0.825c1.559,0.228,2.642-0.879,4.009-1.376   c1.806-0.655,3.495,0.086,5.294-0.008c1.519-0.077,2.95-0.854,4.424-1.193c1.713-0.395,5.038-0.681,6.123-2.285   c0.649-0.958-0.895-1.479-0.714-2.407c0.438-2.254-0.603-4.072-0.388-6.269c0.22-2.228,0.653-1.725,1.965-3.041   c0.809-0.809,1.009-2.157,2.08-2.718c1.118-0.586,1.5,0.601,2.583,0.726c1.845,0.215,3.478-0.373,5.092-1.234   c-0.666-0.695-1.87-0.74-2.146-1.806c1.586-0.027,3.228-1.023,4.074-2.321c1.001-1.533,3.492,1.074,3.569-0.854   c1.183,0.555,1.676,0.293,2.398,1.525c0.609,1.042,1.566,0.687,2.405,0.057c2.244-1.688,1.684-4.803,0.784-7.03   c-0.573-1.43,0.55-1.652,0.854-2.885c0.237-0.962,0.267-2.422-0.077-3.362c-0.411-1.117,0.771-1.313,1.563-1.489   c1.31-0.293,2.001,0.147,3.196-0.812c1.457-1.166,1.417-1.226,0.819-2.668c-0.5-1.204-1.203-2.529-2.339-3.245   c-2.225-1.405-2.565-3.424,0.544-2.576c2.118,0.578,7.246,1.264,7.824-1.753c0.171-0.89,0.165-1.557-0.529-2.158   c-0.297-0.259-1.631-1.122-1.376-1.653c0.229-0.235,0.518-0.333,0.863-0.294c-0.401-0.854,0.299-1.51,0.77-2.107   c0.436-0.552,1.974-1.812,1.974-2.486c0.01-0.643,0.216-1.214,0.619-1.711c0.313-0.438-0.771-0.886-0.917-1.168   c-0.125-0.312-0.044-0.543,0.247-0.69c0.479-0.507-0.342-1.531-0.479-2.006c-0.187-0.633-1.274-2.133-1.709-2.68   c-0.622-0.783-1.64-1.311-2.395-1.961c-1.024-0.883,2.057-4.658,3.052-4.349c1.367,0.425,1.472-1.069,2.281-1.889   c0.859-0.868,1.978-1.425,3.129-1.788c2.479-0.781,5.13-0.789,7.7-0.89c1.303-0.05,3.119-0.729,4.321-0.128   c1.181,0.592,1.271,0.92,2.361,0.111c1.492-1.109,5.21-2.957,6.267-0.394c1.062-1.905,3.813-0.341,4.656,0.952   c0.776,1.195,2.928,0.542,4.179,1.709c0.889,0.828,1.467,1.77,1.771,2.941c0.226,0.851,0.142,2.312,0.473,3.04   c0.357,0.796,2.188,1.88,2.868,2.493c0.88,0.79,2.063-0.534,2.883-0.745c0.163,3.709,9.047,5.28,11.688,4.123   c-0.835,0.729-5.958,3.258-5.503,4.633c0.179,0.543-0.354,1.722-1.05,1.258c-0.83-0.553-0.989,0.876-1.213,1.489   c-0.235,0.646-5.362,1.457-6.361,1.957c-2.809,1.408-4.796,0.25-7.865-0.386c-2.48-0.516-5.822-2.13-8.228-0.649   c-1.636,1.009-2.565,3.366-0.495,4.236c1.896,0.797-0.732,2.092,0.835,2.591c0.52,0.165,3.995,0.186,2.634,1.528   c-1.232,1.218-2.775,1.704-0.575,3.256c1.839,1.301-0.309,3.05,0.909,4.354c0.695,0.746,1.47,1.12,2.269,1.722   c0.363,0.236,0.574,0.568,0.637,0.998c0.096,1.207,0.338,0.935,1.619,1.214c2.192,0.478,1.39,2.847,3.787,3.314   c1.304,0.255,3.477,0.361,4.405,1.455c1.141,1.347-2.487,2.659-3.221,2.998c-1.862,0.864-3.803,2.379-2.108,4.462   c1.115,1.373-0.677,5.042,1.918,5.093c-0.406,0.951-2.762,1.564-3.011,2.749c-0.344,1.642-3.588,3.848-2.147,5.239   c2.071,2.005-2.471,2.913-3.438,3.559c-0.957,0.636-0.732,2.217-0.895,3.196c-0.272,1.664-0.724,3.376-1.475,4.895   c-1.117,2.257-3.457,2.729-5.043,4.462c-0.641,0.697-0.861,1.595-0.941,2.515c-0.144,1.624-1.542,2.567-2.118,4   c-1.227,3.042-3.015,2.277-5.909,3.049c-0.984,0.266-2.102,1.278-3.165,1.176c-1.274-0.124-1.854-1.666-2.488-2.556   c-1.488-2.086-3.703,1.079-4.282,2.384c-1.023,2.312-2.701,4.294-3.632,6.565c-1.147,2.799,0.433,4.364,3.104,5.036   c2.491,0.624,3.72,0.754,3.482,3.806c-0.134,1.744-0.463,5.646,2.532,5.68c0.861,0.009,1.856-0.618,2.621,0.074   c0.759,0.689,0.146,2.567,0.819,3.532c1.379,1.984,2.907,3.469,3.56,5.915c0.249,0.938,0.784,0.657-0.128,1.312   c-0.729,0.521,0.467,2.258,1.081,2.382c-1.62,1.227-3.315,2.761-4.689,0.466c-0.638-1.066-1.61-0.27-2.415,0.054   c-0.405,0.113-0.803,0.248-1.193,0.402c-0.65,0.334-0.239,1.143-0.939,1.439c-2.313,0.979-4.908-1.251-7.332-1.117   c-1.295,0.069-3.018,0.299-4.222-0.3c0.072,0.95,0.921,3.607-0.803,3.607c-1.46,0-3.685,0.036-3.576,2.063   c-0.097-1.176-0.238-1.146-0.429,0.086c-0.572-0.499-0.952-1.185-1.371-1.805c0.31,0.539,0.392,1.112,0.251,1.716   c-0.631-0.39-1.176-0.876-1.635-1.459c0.392,1.571-0.853,0.687-1.801,1.202c0-0.459,0-0.918,0-1.375   c-1.047,0.751-2.383-0.666-1.193-1.372c-1.4,0.264-3.375-1.776-1.896-2.921c-1.637-0.938-0.756-3.645-2.108-4.319   c-0.757-0.376-4.589-0.542-4.479-1.767c0.217-2.477-0.347-3.207-1.573-5.166c-0.911-1.453-3.646-2.948-4.114-0.343   c1.478-0.074,2.46-1.387,3.256,0.601c-1.575-1.016-3.343-0.39-4.966,0.122c-1.691,0.534-3.312-0.056-4.916,0.429   c-0.873,0.262-6.958,0.18-5.397,1.855c-0.711,0.211-1.174-0.123-1.205-0.859c-2.354,1.218-4.223-2.301-5.499-1.718   c0.195,0.288,0.395,0.575,0.598,0.86c-1.187,0.241-6.043-1.317-4.808,1.546c-1.236-0.629-10.526-1.317-9.71,1.029   c-0.625-0.026-1.108-0.936-1.616-1.224c-0.877-0.5-0.882,0.68-1.419,0.992c-2.157,1.258-3.734-0.17-3.661-2.078   c0.097-2.569-0.513-11.863,4.467-10.745c-1.46-3.834,7.368-1.757,7.799-3.86c0.189-0.919,0.525-4.417,0.135-4.729   c-0.94-0.746-2.185-0.204-3.248-0.272c-1.525-0.098-1.299-2.609-1.336-3.642c-0.07-1.981-0.695-4.531-1.32-6.431   c-0.288-0.877-1.835-0.933-2.609-1.412c-1.285-0.794-2.604-1.272-3.966-1.904c-3.021-1.396-4.261-3.441-5.792-6.231   C27.802,99.62,25.197,97.266,22.849,94.9L22.849,94.9z"
   style="fill:#000000" />
	<path
   id="af"
   fill="#CD3512"
   stroke="#FFFFFF"
   stroke-width="1.0003"
   d="M13.233,51.527c-0.316-1.106,0.426-1.952,1.294-2.508   c1.354-0.864,0.629-1.453-0.102-2.475c2.29-0.261,2.197-3.184,2.35-4.884c0.076-0.871-0.906-1.881-0.4-2.727   c0.439-0.735,0.448-1.874,0.588-2.703c0.304-1.819,2.786,0.624,3.599,1.039c1.22,0.626,2.146-0.18,3.374,0.158   c1.34,0.37,2.354,1.657,2.778,2.931c0.854-1.812,3.111-0.813,4.434-2.005c0.707-0.636,1.49-0.961,1.925-1.859   c0.403-0.838-0.449-1.193,0.681-1.805c-0.605-0.424-1.119-1.017-1.371-1.718c3.702,0.479,7.652-2.038,10.526-4.074   c2.822-2-0.745-8.317,2.733-9.746c1.263-0.519,3.485,0.225,4.524-0.438c1.102-0.702-0.203-2.762,1.388-3.021   c1.205-0.192,2.546,1.05,3.519,1.586c1.459,0.802,2.736,0.364,4.313,0.158c1.823-0.237,3.458-0.283,4.796,1.114   c1.348,1.41,2.921-0.092,4.542,0.354c0.648,0.179,1.854,1.749,2.432,2.271c1.271,1.145,1.405-0.253,2.715,0.028   c-0.222-1.479,2.275-1.549,3.01-2.358c0.754-0.83,0.642,0.16,1.367-0.134c0.355-0.145,0.324-0.956,0.808-0.882   c1.291,0.199,1.73,2.631,3.332,2.263c1.919-0.438-0.188-2.864,0.598-3.992c1.66-2.385,5.247,0.456,6.292-0.684   c1.279-1.396-0.672-1.908-0.89-2.889c-0.25-1.143,1.364-2.485,1.78-3.625C91.315,5.771,95.4,5.5,97.152,8.593   c0.41,0.721-0.191,3.028,0.601,3.286c0.811,0.265,1.976-0.816,2.479,0.35c0.528,1.226,0.216,3.854,0.275,5.188   c0.064,1.505,0.31,3.046,0.858,4.45c1.702,4.353,4.287,1.958,6.745-0.104c1.011-0.849,3.053,0.102,3.604-1.204   c0.74-1.747,1.815-2.825,3.588-3.709c1.312-0.653,6.313-0.52,4.17,1.863c1.493,0.625,3.941-1.073,5.291-1.71   c1.104-0.521,4.643,0.838,5.363,1.795c-1.006,0.454-1.651-0.573-2.661-0.085c-1.196,0.58-1.085,1.826,0.168,2.234   c-1.076,0.366-1.958,1.109-2.98,1.586c-1.413,0.658-2.414-0.19-3.83-0.313c-2.77-0.236-5.988,0.286-8.723,0.756   c-1.294,0.223-2.569,0.588-3.679,1.311c-1.035,0.672-1.818,2.355-2.956,2.753c-1.369,0.479-1.188-0.421-2.121,0.907   c-0.522,0.739-1.751,1.666-1.996,2.487c-0.277,0.923,1.119,1.835,1.698,2.271c0.855,0.645,1.315,2.41,1.965,2.8   c0.735,0.441,1.014,1.266,1.083,2.104c0.022,0.289,0.604,2.598,0.768,2.365c-0.502,0.709-0.35,2.199-1.195,2.525   c-0.918,0.354-1.57,1.626-2.026,2.468c-0.265,0.416-0.312,0.854-0.139,1.313c-0.255,0.013-1.059,0.06-0.854,0.564   c0.288,0.713,1.18,1.155,1.695,1.687c1.8,1.854-1.237,3.599-2.575,3.891c-1.303,0.287-2.623,0.248-3.927-0.014   c-0.646-0.131-2.735-1.15-3.352-0.526c-1.339,1.351,2.647,3.578,3.228,4.52c0.45,0.729,1.664,2.236,1.255,3.059   c-0.404,0.807-2.367,2.339-3.328,1.946c-2.408-0.986-2.605,1.272-2.53,2.768c0.063,1.179,0.07,2.306-0.742,3.236   c-0.882,1.009,0.043,2.344,0.327,3.44c0.527,2.052,0.225,4.615-1.876,5.707c-1.246,0.648-1.586-0.02-2.202-1.005   c-0.507-0.808-2.229-1.445-2.297-0.069c-3.522-1.433-4.016,2.259-7.396,2.318c0.274,1.064,1.479,1.109,2.146,1.805   c-1.306,0.695-2.761,1.351-4.271,1.298c-1.085-0.038-1.913-1.023-2.727-1.043c-1.394-0.034-2.355,2.571-3.17,3.387   c-1.049,1.05-1.482,0.818-1.581,2.668c-0.092,1.708,0.595,3.042,0.74,4.695c-0.147,0.651-0.286,1.307-0.408,1.965   c0.081,0.625,0.554,0.771,0.776,1.28c0.813,1.842-6.073,3.061-6.977,3.273c-1.519,0.362-2.897,0.74-4.485,0.674   c-1.595-0.063-3.523-0.404-4.999,0.387c-1.44,0.773-2.011,1.409-3.684,0.942c-1.559-0.434-3.014-0.63-4.624-0.409   c-3.57,0.494-6.855,1.368-10.423,0.321c-4.186-1.231-8.119-3.188-12.396-4.149c1.823-2.093,3.12-4.563,4.683-6.841   c1.344-1.959,2.688-4.104,1.869-6.58c-1.494-4.525-8.463-0.952-9.558-5.902c-0.693-3.142-0.816-5.867-2.244-8.826   c-1.23-2.55-2.872-5.021-1.109-7.664c1.422-2.132,1.097-1.895-1.112-2.496C13.358,56.04,13.682,53.09,13.233,51.527L13.233,51.527z   "
   style="fill:#000000" />
	<g
   id="bd">
		<path
   id="path3240"
   stroke="#FFFFFF"
   stroke-width="1.0003"
   d="M293.99,161.977c-0.255-0.027-0.51-0.057-0.766-0.087    c0.46,0.353,0.971,0.58,1.539,0.688C294.505,162.378,294.248,162.177,293.99,161.977z" />
		<path
   id="path3242"
   stroke="#FFFFFF"
   stroke-width="1.0003"
   d="M294.335,167.646c0.031,0.534,0.264,0.965,0.691,1.288    c-0.12-0.662,1.1-1.205,1.11-1.118C295.993,166.662,294.869,167.066,294.335,167.646z" />
		<path
   id="path3244"
   stroke="#FFFFFF"
   stroke-width="1.0003"
   d="M295.279,166.099c0.229,0.172,0.461,0.344,0.69,0.517    C295.795,166.368,295.564,166.198,295.279,166.099z" />
		<path
   id="path3246"
   stroke="#FFFFFF"
   stroke-width="1.0003"
   d="M295.373,169.364c0.354,0.904,1.195,1.482,1.474,2.438    c0.156,0.649,0.174,1.302,0.051,1.958c-0.07,0.506-0.878,3.102,0.36,1.271c-0.248,0.328-0.271,0.644-0.066,0.939    c1.359,0.604,1.503-3.833,1.354-4.378c-0.302-1.096-2.095-2.072-2.12-3.07C296.401,167.588,295.171,168.399,295.373,169.364z" />
		<path
   id="path3248"
   stroke="#FFFFFF"
   stroke-width="1.0003"
   d="M295.707,175.547c0.227,0.342,0.62-0.478,0.263,0.602    c0.388-0.467,0.471-0.981,0.251-1.546C296.047,174.917,295.878,175.233,295.707,175.547z" />
		<path
   id="path3250"
   stroke="#FFFFFF"
   stroke-width="1.0003"
   d="M296.482,171.769c-0.046,0.388,0.016,0.761,0.178,1.116    C296.738,172.492,296.68,172.12,296.482,171.769z" />
		<path
   id="path3252"
   stroke="#FFFFFF"
   stroke-width="1.0003"
   d="M300.348,175.204c2.008-1.032,0.695-3.133-0.168-4.467    C300.551,172.18,300.522,173.734,300.348,175.204z" />
		<path
   id="path3254"
   stroke="#FFFFFF"
   stroke-width="1.0003"
   d="M304.378,172.456c0.859-0.874-0.497-2.163-1.11-2.663    C302.993,170.841,303.549,171.842,304.378,172.456z" />
		<path
   id="path3256"
   stroke="#FFFFFF"
   stroke-width="1.0003"
   d="M308.16,176.921c-0.211,0.589-0.239,1.189-0.083,1.804    C308.244,178.13,308.271,177.53,308.16,176.921z" />
		<path
   id="path3258"
   stroke="#FFFFFF"
   stroke-width="1.0003"
   d="M308.852,181.474c1.433-0.533,0.375-2.312-0.609-2.662    C308.439,179.702,308.545,180.612,308.852,181.474z" />
		<path
   id="path3340"
   stroke="#FFFFFF"
   stroke-width="1.0003"
   d="M269.94,129.684c0.032-0.386,0.12-0.758,0.262-1.117    c0.975,0.703,2.609,1.156,3.098,2.369c0.438,1.097,2.261,1.058,3.178,1.41c-0.249-0.703-0.651-1.304-1.204-1.804    c1.438-0.266,1.73,1.046,2.244,2.051c0.767,1.503,2.751,1.833,4.113,2.587c0.289-0.723,0.497-1.416,0.084-2.148    c2.652-0.224,3.253,4.992,3.346,6.611c0.062,1.07-0.236,2.029,1.001,2.451c1.854,0.633,4.079,1.158,6.043,1.158    c4.154,0,8.384-0.375,12.559,0.023c1.933,0.187,7.305,3.501,2.64,3.067c1.393,2.649-1.811,5.047-2.063,7.216    c-0.823-0.729-1.65,0.646-2.229-0.259c0.164,1.43-1.426,1.149-2.314,1.031c0.368,1.175-1.04,3.146-1.136,4.428    c-0.133,1.797,1.642,4.424,2.341,6.05c0.166-0.565,0.192-1.14,0.083-1.717c0.858,0.382,2.313,4.82,3.894,2.213    c0.588-0.972-0.575-2.609-0.026-3.847c0.54-1.219,0.84-1.453,0.429-2.833c1.168,1.031,2.394-1.567,3.154,0.271    c0.905,2.179,1.367,4.707,2.02,6.975c0.845,2.921,1.864,5.708,2.604,8.672c0.712,2.854,0.884,6.012,2.018,8.734    c-1.012,0.306-2.234-1.487-3.414-1.294c-1.769,0.291,0.648,5.508,0.659,6.532c-0.815-1.288-2.278-2.858-2.714-4.307    c-0.462-1.533-0.521-2.44-0.721-3.939c-0.373-2.771-4.174-5.731-2.051-8.588c-0.551,0.439-0.887,1.287-0.872,1.976    c-0.784-2.359-3.805-4.3-3.603-6.956c-0.079,1.104-1.315,1.521-1.938,2.254c-0.249,0.267-0.318,0.575-0.21,0.925    c-0.749,0.25-1.434-0.115-1.805-0.774c0.189,0.313,0.202,0.612,0.039,0.899c-1.216,0.705-3.119-3.763-3.479-4.248    c-0.333-0.565-0.457-1.172-0.368-1.821c0.031-1.087-0.46-1.38-0.759-2.304c-0.23-0.714,1.012-0.991,0.537-1.63    c-0.164,0.663,0.862,0.35-0.775,0.517c0.039-0.317,0.095-0.634,0.167-0.944c-0.424,0.345-0.881,0.4-1.37,0.172    c0.373,0.271,1.878,2.2,0.479,2.02c-0.699-0.088-1.948-0.532-2.376-0.645c1.119,0.676,2.791,1.226,3.461,2.434    c0.457,0.822-0.402,1.395-1.054,1.688c0.888,1.072,0.398,2.045-0.347,3.007c1.615,0.035,1.098,1.612,1.038,2.749    c0.211-0.299,0.438-0.586,0.681-0.859c1.34,1.192,1.596,4.303-0.597,4.726c0.143-0.608,0.055-1.181-0.265-1.719    c0.197,1.418-0.199,2.589-0.462,3.953c-0.308,1.614-2.219,0.958-1.423-0.345c-0.249,0.267-0.509,0.523-0.773,0.771    c-0.439-1.526,1.292-2.076,1.466-3.435c-0.479,0.788-1.209,1.38-1.896,1.974c0.068-0.574,0.238-1.117,0.514-1.631    c-0.363,0.549-0.733,1.092-1.11,1.631c-0.552-1.747-0.782-3.231-0.083-4.98c-1.89,0.768-0.232,2.521-0.897,3.8    c-0.48,0.927,0.661,0.985,0.26,2.109c-0.359,1.008-1.351,0.457-1.771-0.154c-0.075,0.541-0.104,1.085-0.082,1.631    c-1.346,0.016-0.692-5.02-0.692-5.84c-0.449,1.141,0.109,2.28-0.168,3.436c-0.438-0.956-0.902-1.95-1.037-3.006    c0.016,1.711,1.72,4.271,0,6.013c-0.504-0.851-0.057-1.854-0.68-2.662c0.343,0.855-0.225,2.722-0.858,3.349    c0.088-1.638-1.652-2.903-1.858-4.705c-0.228-1.992-1.337-3.514-1.758-5.428c-0.202-0.922-0.392-1.849-0.68-2.75    c-0.389-1.218-0.046-1.799-0.146-2.958c-0.058-0.657-0.984-0.611-1.436-0.721c-0.94-0.229-0.372-1.321-0.304-1.965    c0.151-1.403-2.487-1.5-2.382-3.376c0.055-0.962,1.121-1.3,1.238-2.182c0.119-0.896-0.225-1.913-0.563-2.724    c-0.558-1.324-3.24-1.462-4.484-2.31c-0.73-0.496-1.992-1.224-2.063-2.231c-0.075-1.06,0.884-1.813,0.941-2.834    c1.451,2.551,2.024-2.243,2.409-2.32c0.965-0.192,2.969-0.382,3.865,0.087c1.104-1.781-1.232-1.14-1.419-2.835    c-0.129-1.163-1.674-0.205-2.502-0.752c-1.128-0.745-1.604-2.167-2.913-2.688c-3.288-1.303-1.539-5.153,1.168-6.182    C271.594,130.062,270.723,129.701,269.94,129.684L269.94,129.684z" />
	</g>
	<g
   id="in">
		<g
   id="g5255">
			<path
   id="path5460"
   stroke="#FFFFFF"
   stroke-width="1.0003"
   d="M330.059,277.409c-0.231,0.407-0.414,0.281,0,0.857     C330.059,277.981,330.059,277.695,330.059,277.409z" />
			<path
   id="path5466"
   stroke="#FFFFFF"
   stroke-width="1.0003"
   d="M337.109,314.942c0.012,0.287,0.039,0.574,0.083,0.86     C337.166,315.515,337.137,315.228,337.109,314.942z" />
			<path
   id="path5450"
   stroke="#FFFFFF"
   stroke-width="1.0003"
   d="M326.195,291.838c-0.203-0.415-0.43-0.815-0.68-1.203     c-0.762,0.627-1.207,1.857-0.998,2.824C325.049,295.902,327.016,293.315,326.195,291.838z" />
			<path
   id="path5452"
   stroke="#FFFFFF"
   stroke-width="1.0003"
   d="M326.887,270.023c-1.699,1.421,0.016,5.682,0.168,7.386     c-2.131-0.396-2.552,6.7,0.262,6.44c-1.248-0.876,0.084-0.97,0.084-1.963c0-1.186-0.699-2.302-0.3-3.493     c0.305-0.902,1.095-1.685,0.908-2.713c-0.293-1.605,0.434-0.53,0.729-1.997c0.298-1.479-1.373-2.981-1.018-4.122     c0.349-1.114,2.455-3.428,0.273-3.921c0.897-0.695,0.747-1.774,0.095-2.575C325.909,264.743,327.373,267.782,326.887,270.023     L326.887,270.023z" />
			<path
   id="path5454"
   stroke="#FFFFFF"
   stroke-width="1.0003"
   d="M326.111,269.336c-0.144,0-0.287,0-0.431,0     c0.097,0.335,0.24,0.649,0.431,0.943C326.111,269.965,326.111,269.652,326.111,269.336z" />
			<path
   id="path5456"
   stroke="#FFFFFF"
   stroke-width="1.0003"
   d="M329.2,307.727c-0.399,0.183-0.598,0.497-0.597,0.945     C329.579,308.948,329.777,308.631,329.2,307.727z" />
			<path
   id="path5458"
   stroke="#FFFFFF"
   stroke-width="1.0003"
   d="M328.866,279.212c0.197,0.303,0.479,0.473,0.848,0.517     C329.431,279.556,329.147,279.385,328.866,279.212z" />
			<path
   id="path5462"
   stroke="#FFFFFF"
   stroke-width="1.0003"
   d="M335.392,320.438     C332.939,321.338,337.628,322.289,335.392,320.438z" />
			<path
   id="path5464"
   stroke="#FFFFFF"
   stroke-width="1.0003"
   d="M336.584,318.378c-1.223,0.064-0.411,1.438,0.095,1.803     C336.416,319.592,336.383,318.992,336.584,318.378z" />
			<path
   id="path5468"
   stroke="#FFFFFF"
   stroke-width="1.0003"
   d="M338.48,326.623c-0.717,0.274-0.875,1.096-0.514,1.719     C338.655,327.981,338.989,327.309,338.48,326.623z" />
			<path
   id="path5470"
   stroke="#FFFFFF"
   stroke-width="1.0003"
   d="M340.115,328.942c-3.176-1.581-0.607,3.355,0,4.381     C341.077,331.195,340.15,330.805,340.115,328.942z" />
		</g>
		<path
   id="path5490"
   stroke="#FFFFFF"
   stroke-width="1.0003"
   d="M94.991,157.769c-0.107-2.025,2.116-2.063,3.576-2.063    c1.722,0,0.873-2.657,0.802-3.606c1.165,0.58,3.694,0.698,4.932,0.323c2.262-0.683,4.097,2.262,6.317,1.222    c0.514-0.241,3.725-3.914,4.604-2.439c1.445,2.411,2.972,1.436,4.938-0.052c-1.913-0.388-0.231-2.875-0.914-4.086    c-1.205-2.143-2.519-4.152-3.917-6.171c-0.769-1.105,0.222-3.612-1.997-2.951c-1.852,0.557-4.007-1.892-3.822-3.678    c0.132-1.265,0.563-4.075-0.571-5.053c-1.841-1.591-5.134-0.369-6.038-3.371c-0.653-2.173,1.337-4.368,2.518-5.961    c0.848-1.145,1.304-2.47,1.956-3.728c0.46-0.887,1.425-2.88,2.729-2.56c1.694,0.417,1.543,3.275,3.396,3.445    c1.057,0.097,2.111-0.694,3.022-1.101c1.126-0.501,2.261-0.44,3.451-0.605c2.759-0.383,2.238-2.617,3.81-4.242    c1.903-1.967,0.771-4.556,3.563-6.139c2.551-1.448,3.595-3.252,4.384-6.096c0.577-2.076,0.019-4.829,2.538-5.688    c0.858-0.292,1.905-0.484,2.379-1.366c0.666-1.242-0.945-1.521-0.942-2.146c0.006-0.754,1.989-3.409,2.439-4.1    c0.842-1.285,2.893-1.978,3.489-3.373c-1.832-0.037-1.369-1.759-1.384-3.008c-0.019-1.516-1.407-2.656-1.369-3.958    c0.064-2.276,4.455-2.708,5.716-4.176c2.164-2.522-4.04-2.769-5.114-3.16c-1.104-0.404-0.627-2.042-1.797-2.675    c-0.798-0.435-1.76-0.427-2.587-0.802c0.351-0.913-0.037-1.436-0.821-1.854c-0.835-0.446-3.229-1.839-2.586-2.93    c0.611-1.032,1.051-2.134-0.144-2.966c-0.731-0.51-1.948-1.589-0.895-2.493c0.419-0.358,2.885-2.021,0.797-2.206    c-0.341-0.031-3.573-0.059-2.642-1.233c1.168-1.475-0.384-1.363-1.303-2.079c-1.146-0.891,0.766-3.221,1.514-3.681    c1.924-1.185,3.934-0.279,5.926,0.165c2.257,0.502,4.492,1.066,6.741,1.59c1.916,0.443,3.054-0.75,4.754-1.343    c1.482-0.517,3.045-0.45,4.513-0.92c0.458-0.146,3.073-2.808,2.872-3.151c-0.544-0.934,2.209-2.36,2.948-2.962    c0.594-0.479,1.237-1.015,1.972-1.271c0.615-0.217,0.91,0.303,1.422,0.146c1.716-0.518,1.147,1.694,1.975,2.716    c1.246,1.539,1.498,3.699,2.954,5.051c1.563,1.448,4.707,1.013,6.341,3.3c0.454,0.638,1.506,1.34,0.631,2.04    c-1.678,1.342-1.235,1.553-0.565,3.554c0.601,1.783,1.029,3.51,2.459,4.846c1.089,1.018,3.054,1.125,3.959,2.1    c0.442,0.475,0.261,1.279,0.53,1.845c0.306,0.636,0.862,1.096,1.295,1.638c1.467,1.827-0.148,2.19-1.275,3.192    c-0.997,0.885-2.597,2.707-3.618,0.407c-0.777-1.748-2.083-1.98-3.852-0.665c0.62,0.706,0.852,1.51,1.095,2.392    c0.273,0.986,1.238,1.483,1.879,2.195c1.377,1.527,0.983,3.25,2.236,4.578c0.741,0.785-0.509,4.007,1.577,3.718    c0.91-0.126,0.597-0.979,1.267-1.209c1.05-0.362,1.438,0.834,1.84,1.478c0.572,0.918,2.607,2.878,3.674,3.091    c1.273,0.255,2.105-0.564,3.173,0.648c0.648,0.737,1.721,0.464,2.407,1.06c0.463,0.402,0.519,1.131,0.649,1.681    c0.221,0.923,1.272,0.933,2.043,1.271c2.114,0.936,4.308,1.361,5.908,3.232c-2.38,0.142-2.956,3.506-4.598,4.653    c-0.157,0.109,0.134,1.8-0.053,2.195c-0.672,1.416,0.303,2.02,0.038,3.354c-0.241,1.222-2.313,2.511-0.925,3.957    c0.827,0.863,4.068,3.294,4.068,1.557c1.443,0.899,3.189,2.185,4.771,2.772c1.879,0.697,2.712,2.214,4.438,3.243    c0.512,0.305,3.261,2.514,3.979,2.226c1.685-0.674,3.332,0.706,4.765,1.442c0.61,0.313,2.691,0.347,3.023,0.753    c1.152,1.415,1.313,1.8,3.332,2.209c1.063,0.216,2.443,1.317,3.496,0.537c1.405-1.042,2.236-0.219,3.806,0.473    c-1.017-2.697,5.731,0.044,6.194,0.185c1.857,0.567,0.652,3.024,2.364,3.422c1.466,0.337,3.691,1.076,4.595,2.354    c0.727,1.022,2.222-0.445,3.086-0.52c2.116-0.177,1.078,3.015,3.873,1.869c0.822-0.337,4.432,0.908,5.223,1.385    c2.04,1.223,2.504,0.007,4.38-0.622c0.177,1.351,2.368,2.694,3.38,1.684c0.382-0.384,3.458,0.007,4.127,0.021    c1.434,0.032,1.72-0.067,1.932-1.607c0.361-2.624-0.875-3.646-1.88-5.892c-0.551-1.231-0.391-2.777-0.273-4.09    c0.138-1.591-0.241-2.82-0.329-4.372c1.593-0.109,3.412-1.458,5.003-0.994c3.124,0.906,0.39,4.777,1.726,6.404    c0.24,0.292,1.415,0.981,1.05,1.49c-0.563,0.786-1.091,0.688-0.464,1.811c1.375,2.472,3.214,2.396,5.61,2.709    c1.613,0.211,2.612,1.639,4.212,1.47c0.671-0.071,1.746-0.093,2.329-0.486c0.604-0.411,1.788-1.944,2.657-1.337    c2.175,1.52,4.887,1.021,7.38,0.926c0.761-0.027,2.026-0.992,2.452-0.481c0.657,0.787,2.859,0,3.814-0.113    c2.395-0.282-0.375-2.423-0.061-3.457c1.048-3.42-2.566-2.003-4.027-3.604c-0.797-0.876-1.123-2.669,0.599-2.25    c1.38,0.334,1.803-0.338,3.017-0.622c1.823-0.431,5.169,0.518,4.42-2.632c-0.315-1.324,3.504-2.654,3.659-4.466    c0.248-2.855,3.938-1.449,5.593-3.072c1.329-1.303,2.104-2.848,3.588-4.029c0.549-0.438,1.105-0.917,1.716-1.266    c0.523-0.302,3.079,1.577,3.615,1.895c-0.633-0.635-0.4-0.654,0.695-0.054c0.854,0.357,1.849,0.959,2.813,0.92    c0.983-0.04,0.83-1.218,1.187-1.846c0.636-1.122,2.81-1.827,3.937-2.279c0.249-0.1,2.834,2.13,3.134,2.4    c-1.716,0.751-1.574,0.979-1.151,2.275c0.299,0.918,2.262-0.691,2.702-0.816c-0.366,1.261,1.863,2.058,1.462,3.059    c-0.615,1.52-1.235,2.036-1.551,3.557c-0.227,1.083,1.984,0.142,2.362,0.036c1.604-0.445,2.791,1.19,4.424,0.694    c1.399-0.428,2.583,1.457,2.583,2.646c0,0.445,0.654,0.812,0.583,1.143c-0.176,0.799-1.456,1.762-1.996,2.3    c-2.908,2.909,1.419,4.083,1.924,6.836c-1.909,0.785-2.523-1.838-4.071-2.259c-1.482-0.403-5.122,0.878-6.08,2.104    c-0.732,0.939-1.35,1.73-2.243,2.536c-0.334,0.533-0.813,0.74-1.441,0.623c-0.541,0.439-0.009,0.76-0.869,1.261    c-0.924,0.533-1.73-0.084-2.087,1.263c-0.263,0.988-0.114,2.112,0.155,3.084c0.207,0.738,0.775,1.246,0.997,1.938    c0.295,0.925-0.97,1.452-0.661,2.454c0.747,2.431-3.598,4.019-2.655,6.054c0.338,0.729,1.134,0.984,1.435,1.813    c0.461,1.271-0.334,2.802-0.879,3.909c-1.345,2.736-2.583,5.779-2.558,8.889c-0.863-0.688-3.088-1.349-4.168-1.628    c-0.543,0.039-1.08,0.114-1.611,0.229c-0.688-0.14-0.87-0.744-1.688-0.578c0.888,2.431,1.383,4.593,1.521,7.168    c0.06,1.086,0.186,4.515-1.784,3.055c0.305,2.348,0.116,4.07,1.047,6.29c0.33,0.788,1.101,3.436-0.7,2.385    c-0.901,3.557-0.599,1.376-3.007,0.516c0.146,0.694-0.14,1.375-0.691,1.805c-0.773-1.807-0.919-3.847-1.289-5.755    c-0.445-2.3-1.873-4.282-2.487-6.538c-0.477-1.748-1.138-3.508-1.469-5.276c-0.289-1.549-2.039,0.809-2.998-0.037    c0.305,1.02,0.723,1.798-0.207,2.633c-0.999,0.897-0.369,1.953-0.179,3.021c0.183,1.022-1.021,2.259-2.017,1.516    c-0.973-0.723-0.663-2.159-1.893-2.706c0.109,0.579,0.081,1.153-0.083,1.72c-0.756-1.761-1.518-3.516-2.234-5.291    c-0.725-1.789,1.535-3.573,1.028-5.188c0.891,0.117,2.479,0.397,2.315-1.031c0.578,0.903,1.406-0.472,2.229,0.259    c0.267-2.255,3.478-4.527,2.063-7.216c0.538,0.052,2.779-0.047,1.726-1.125c-1.237-1.264-3.518-1.987-5.245-1.966    c-1.528,0.021-3.048,0.307-4.574,0.063c-2.008-0.323-3.76,0.254-5.761,0.006c-2.522-0.313-8.898,0.365-8.53-3.45    c0.156-1.62-0.628-7.058-3.202-6.839c0.414,0.731,0.206,1.424-0.083,2.147c-1.196-0.663-2.787-0.86-3.643-2.034    c-0.714-0.98-1.118-2.896-2.716-2.604c0.553,0.499,0.955,1.101,1.204,1.803c-0.895-0.345-1.897-0.366-2.766-0.799    c-0.55-0.273-0.787-1.125-1.301-1.535c-0.689-0.551-1.494-0.93-2.209-1.443c-0.949,1.688,1.211,0.884,1.635,2.316    c-2.707,1.026-4.455,4.879-1.168,6.183c1.313,0.52,1.785,1.94,2.912,2.687c0.827,0.546,2.371-0.41,2.503,0.753    c0.188,1.694,2.524,1.053,1.419,2.834c-0.746-0.392-1.952-0.268-2.755-0.191c-1.085,0.104-1.336,0.176-1.443,1.176    c-0.113,1.046-1.151,2.874-2.075,1.25c-0.103,1.771-1.523,3.172,0.263,4.638c1.309,1.072,2.918,1.749,4.583,1.872    c3.36,0.251-2.024,8.113,1.845,8.4c1.139,0.085,0.465,1.497,0.72,2.376c0.099,0.333,1.057,0.462,1.219,0.512    c0.916,0.271-0.01,1.582,0.056,2.128c0.13,1.104,1.086,1.804,1.112,2.924c0.037,1.505,0.03,2.337,0.788,3.69    c0.771,1.381,1.575,3.285,0.845,4.722c-0.334-0.212-0.677-0.413-1.025-0.601c0.265,0.574,2.28,2.837,1.585,3.415    c-0.74,0.617-1.744-0.485-1.766-1.183c-0.158,0.934-0.862,1.75-1.455,0.517c-0.623-1.301,0.125-2.938,0.083-4.295    c-0.812,0.4,0.07,1.221-0.859,1.975c0.218-0.909-0.364-1.777,0.084-2.661c-1.622,1.236-0.147,5.24-0.43,6.956    c-0.369-1.135,0.071-2.967-1.025-3.779c0.015,0.124,0.285,3.19-0.228,2.853c-0.163-0.217-0.308-0.443-0.436-0.682    c-0.982-1.388-0.118,2.061-0.97-0.538c0.388,0.613,0.416,1.244,0.083,1.89c-1.179-1.064-1.148-3.359-1.287-4.811    c-0.22-2.229-1.979-1.803-2.661-3.605c0.287,1.808,3.229,1.458,1.846,3.773c-1.563,2.608-3.019,3.671-5.974,4.558    c-1.565,0.472-3.71,1.292-4.06,3.123c-0.236,1.242,0.936,5.312,1.913,6.237c-0.604,0.467-1.541,0.944-1.83,1.7    c-0.441,1.15,0.681,1.24-0.693,2.334c-1.642,1.304-2.261,3.817-4.263,1.207c0.283,0.981,1.433,1.453,2.242,1.888    c-2.507,1.256-5.189,2.525-7.992,2.92c0.885-0.481,1.131-2.624-0.271-2.142c-1.435,0.495-2.709,2.566-2.223,4.031    c0.18-0.555,1.497-2.391,1.979-1.46c-0.875,0.25-2.22,2.537-3.058,3.354c-1.881,1.833-2.835,4.07-4.145,6.324    c-1.323,2.282-2.878,4.545-5.354,5.67c-2.125,0.967-2.366,3.796-4.455,4.749c1.385,0.834-5.341,3.971-6.088,4.644    c-0.73,0.659-1.507,1.618-1.891,2.525c-0.618,1.463,1.337,1.835,0.684,3.506c-1.293,3.311-5.213,3.023-8.078,3.165    c-1.167,0.061-1.299,0.899-1.563,1.892c-0.287,1.082-1.435,3.01-1.354,4.023c-0.924-0.459-0.943-1.392-1.288-2.232    c0.38,0.97-0.218,1.867-0.513,2.747c0.637-2.904-3.569-1.258-4.316,0.151c-1.099,2.064-2.515,5.224-1.699,7.526    c0.671,1.894,1.445,3.95,1.475,5.891c0.047,3.323,0.697,5.96,1.617,9.192c-0.279-0.559-1.605-3.23-1.466-1.029    c-0.771-1.578-0.743,0.468-0.159,0.825c0.748,0.457,1.476,0.513,1.986,1.33c0.938,1.497,0.131,5.396-0.11,7.018    c-0.425,2.896-2.135,5.099-2.991,7.824c-0.669,2.122,0.332,5.196-1.22,6.965c0.266-0.257,0.552-0.485,0.859-0.686    c0.964,1.128,0.974,2.737,0.961,4.137c-0.021,2.296,0.501,4.564,0.423,6.856c-0.604-0.048-1.207-0.132-1.801-0.258    c2.322,0.75-0.052,0.379-0.465,0.269c-0.865-0.232-2.123-0.678-2.655,0.383c-0.275,0.552-0.708,1.219-0.38,1.846    c0.488,0.938-0.886,1.851-1.32,2.568c-0.845,1.396-2.494,4.455-0.094,5.475c0.622,0.266,1.405,0.188,2.019-0.058    c0.432-0.173,1.331,1.385,1.607,1.628c-2.362-2.442-6.296-0.916-8.852,0.344c-3.324,1.639-1.806,4.752-3.405,7.273    c-0.81,1.272-2.398,2.147-3.735,2.745c-2.105,0.939-3.306-0.008-4.883-1.43c-0.729-0.656-6.352-6.586-4.558-7.043    c-1.582,0.567-2.193-2.598-2.755-3.929c-0.796-1.892-1.646-4.129-1.11-6.206c0.463,0.746,0.648,1.625,0.689,2.49    c0.202-2.068-0.117,1.994,1.121,2.147c-0.427-1.129-0.101-2.416-0.607-3.521c-0.436-0.944-1.38-1.456-1.456-2.577    c0.041,2.196-0.689,0.069-0.644-0.403c0.111-1.111-0.528-1.459-1.044-2.656c-0.915-2.135-1.647-4.361-2.466-6.534    c-0.308-0.819-5.325-8.984-5.044-9.386c-3.162-3.893-5.348-8.573-6.438-13.449c-0.388-1.733-0.607-3.315-1.229-4.943    c-0.413-1.082-0.861-2.087-1.302-3.147c-0.332-0.802-1.568-2.848-0.135-2.337c-1.587-0.529-1.221-2.734-2.063-3.863    c-0.535-0.719-3.188-2.148-0.942-2.577c-1.327,0.604-1.995-0.979-2.378-1.948c-0.3-0.764-0.544-1.556-0.923-2.283    c-0.389-0.745-1.58-1.09-0.051-1.267c-0.754-0.19-1.393-1.267-1.369-2.006c0.024-0.77-0.82-1.005-1.412-1.838    c-1.43-2.012-2.369-4.408-3.122-6.743c-0.523-1.623-0.968-3.327-0.968-5.044c0-1.789-0.969-3.461-1.252-5.22    c-0.266-1.646-1.195-3.059-1.695-4.646c-0.327-1.035-2.203-4.463-0.487-3.794c-0.313-0.396-2.686-3.462-0.598-2.317    c-0.339-1.258-1.855-2.061-1.287-3.521c0.289,0.225,0.575,0.453,0.858,0.688c0.05-0.732-0.209-1.335-0.775-1.805    c1.243-0.489,0.583-1.682,0.347-2.576c-0.072,0.724-0.33,1.377-0.858,1.891c-0.93-1.497-0.646-4.866,1.455-2.49    c-0.346-0.843-3.464-1.374-2.481-2.56c0.342-0.411-1.098-2.11-1.257-2.638c-0.428-1.409-0.476-2.801-0.186-4.243    c0.457-2.257,1.805-4.618,0.902-6.928c-0.117-0.302-0.723-4.252-1.868-2.789c0.394-1.034,0.163-1.063-0.692-0.085    c1.063-1.263-0.77-1.645-0.46-2.575c0.2-0.604,0.364-1.251,0.455-1.879c0.134-0.917,3.218-1.494,3.787-2.588    c-2.254,1.688-7.441,0.377-3.948-2.148c-1.188,0.529-2.579-0.304-1.719-1.631c0.737-1.135,1.91,0.021,2.661-1.117    c-1.175,0.303-3.638-0.127-4.297-1.288c-0.074,0.587-1.227,0.813-1.204,0.688c-0.104,0.563,0.739,0.652,0.762,1.521    c0.029,1.166-0.8,1.518-1.787,1.827c0.221,0.294,0.451,0.58,0.691,0.859c-0.688-0.183-1.19,0.216-1.385,0.86    c2.425,0.75,3.471,2.335,1.876,4.587c-0.566,0.798-0.258,1.913-1.356,2.328c-1.334,0.502-2.536,1.391-3.753,2.122    c-2.149,1.291-4.595,2.883-7.194,2.032c-2.621-0.854-5.731-3.313-7.287-5.572c-2.313-3.359-5.762-5.473-8.468-8.422    c-0.712-0.776-2.732-3.419-0.397-3.744c0.638-0.089,0.668,1.133,1.146,1.393c0.916,0.494,2.604,0.103,2.771-1.079    c0.899,1.271,5.071-1.118,5.917-1.976c0.732-0.744,0.594-1.897,1.121-2.748c0.555-0.894,1.988-1.494,0.773-2.577    c-0.612,0.605,0.034,2.042-1.152,1.977c-1.281-0.071-2.325,0.178-3.563,0.597c-1.055,0.357-1.47,1.341-2.671,1.283    c-1.463-0.07-2.918-0.772-4.194-1.437c-1.272-0.662-2.715-1.238-3.871-2.082c-0.923-0.672-0.986-2.346-2.086-2.738    c-3.711-1.341,0.634-4.214,1.733-5.069c-1.979-0.226-3.275,3.561-5.237,2.661C95.279,158.987,95.308,158.385,94.991,157.769    L94.991,157.769z" />
	</g>
	<g
   id="lk"
   style="fill:#000000">
		<path
   id="path6496"
   fill="#CD3512"
   stroke="#FFFFFF"
   stroke-width="1.0003"
   d="M210.68,309.188    c0.259,0.608,1.236,0.988,1.716,1.373C212.209,309.746,211.539,309.15,210.68,309.188z"
   style="fill:#000000" />
		<path
   id="path6498"
   fill="#CD3512"
   stroke="#FFFFFF"
   stroke-width="1.0003"
   d="M211.967,324.647    c0.019,3.829,1.44,19.495,8.494,17.189c3.207-1.05,7.983-3.249,9.686-6.313c1.402-2.523,2.026-6.979,0.285-9.506    c0,0.45-1.583-2.608-1.967-3.005c2.218,1.582-0.511-1.741-0.838-2.272c-1.039-1.69-1.062-3.632-1.918-5.371    c-0.654,0.554-1.372,0.36-1.802-0.344c2.122,0.168-2.68-5.802-2.938-6.648c-0.278-0.91-5.673-7.15-6.677-6.234    c1.111,0.263,1.727,1.325,2.491,2.063c-1.168-0.682-3.314-3.641-4.724-1.805c0.646,0.97,1.844,1.061,2.661,1.805    c0.146-1.059,2.947,0.646,3.52,1.462c-0.518-0.394-3.351-1.057-4.129-1.031c0.584,0.803,0.027,0.827-0.382,1.386    c-0.568,0.771,0.664,2.026-0.093,3.271c-1.765,2.897-1.441,8.012-1.577,11.405c-1.372-0.4-0.74-2.188-0.773-3.178    C209.953,319.585,211.756,322.498,211.967,324.647L211.967,324.647z"
   style="fill:#000000" />
		<path
   id="path6500"
   fill="#CD3512"
   stroke="#FFFFFF"
   stroke-width="1.0003"
   d="M211.883,303.089    c0.155,0.576,0.126,0.822,0.858,0.688C212.457,303.547,212.17,303.319,211.883,303.089z"
   style="fill:#000000" />
	</g>
	<path
   id="np"
   fill="#CD3512"
   stroke="#FFFFFF"
   stroke-width="1.0003"
   d="M192.99,104.089c0.464-1.406,1.547-2.118,0.836-3.608   c-0.447-0.94-0.218-1.356,0.297-2.264c0.632-1.113-0.232-1.931,0.677-3.009c1.269-1.501,2.446-4.486,4.549-2.971   c0.38,0.272,0.883,1.421,1.494,0.95c0.961-0.737,1.166-2.169,0.999-3.269c1.087,0.415,1.271-0.852,1.999-0.617   c1.272,0.412,2.905-0.081,3.834,1.218c1.645,2.297,5.391,4.396,7.876,5.695c2.047,1.071,3.458,1.173,4.918,2.856   c1.49,1.719,2.345,3.287,4.411,2.188c1.095-0.581,2.267-0.186,3.144,0.584c0.989,0.869,0.907,2.68,1.829,3.163   c1.714,0.898,4.105,3.215,6.099,3.038c1.009-0.09,1.649-0.506,2.275,0.328c0.516,0.687-0.868,1.246,0.194,2.1   c0.813,0.652,4.515,1.889,4.896,0.144c0.553,1.678,2.46,2.426,3.238,3.923c1.004,1.925,0.931-1.804,1.318-2.119   c0.049,1.054,2.656,3.426,3.437,1.938c0.29-0.554,0.104-1.607,1.071-1.128c0.854,0.424,1.44,0.668,2.359,0.963   c1.037,0.331,1.438,0.98,2.313,1.442c0.77,0.404,1.708-0.159,2.54,0.228c1.771,0.82,3.947-1.063,5.687-0.403   c1.764,0.668,0.237,5.306,0.417,6.71c0.34,2.688,2.821,3.805,2.19,6.825c-0.513,2.446-2.475,1.272-4.724,1.547   c-1.762,0.215-4.233,0.736-4.556-1.717c-1.604,0.536-2.139,1.965-3.952,0.877c-0.868-0.521-4.797-1.901-5.72-1.538   c-1.856,0.729-1.529-0.192-2.521-1.229c-1.514-1.58-2.5,0.401-4.211,0c-1.26-0.298-2.237-1.957-3.522-2.274   c-1.801-0.449-1.614-1.12-2.351-2.586c-0.733-1.47-8.322-3.669-7.438-1.321c-0.99-0.438-2.387-1.591-3.54-1.02   c-1.595,0.794-1.973,0.974-3.832,0.148c-1.018-0.45-2.438-0.515-2.908-1.677c-0.679-1.677-1.979-0.444-3.34-1.267   c-1.268-0.768-2.234-1.484-3.769-1.642c-2.059-0.21-3.406-1.411-5.237-2.253c-1.593-0.733-2.519-2.371-4.042-3.299   c-1.6-0.975-3.355-1.661-4.946-2.651c0,1.581-1.737,0.117-2.687-0.487C193.932,106.186,192.246,105.09,192.99,104.089   L192.99,104.089z"
   style="fill:#000000" />
	<path
   id="bt"
   fill="#CD3512"
   stroke="#FFFFFF"
   stroke-width="1.0003"
   d="M272.491,122.968c-0.003-0.7,0.401-0.75,0.838-1.117   c0.656-0.553-0.017-1.807,0.695-2.325c1.529-1.113,2.121-3.717,3.188-5.26c1.167-1.688,2.791-3.274,4.988-3.234   c0.539,0.01,2.316,0.241,2.538,0.864c0.202,0.567-0.33,1.368,0.445,1.614c1.343,0.428,2.927,0.27,4.316,0.27   c0.839,0,1.29,1.354,2.212,0.53c0.746-0.666,0.945-0.968,2.022-0.64c1.411,0.43,3.182,0.792,3.155,2.488   c-0.028,1.905-0.041,3.843,2.552,3.689c2.405-0.142,1.712,2.009,1.863,3.42c0.063,0.582,1.473,2.17,0.805,2.498   c-1.59,0.776-3.112,0.936-4.688,0.34c-0.651-0.245-2.104,0.633-2.884,0.681c-1.168,0.07-2.393,0.098-3.563,0.063   c-1.788-0.051-3.133-1.68-4.771-0.709c-1.271,0.755-3.076,2.034-4.692,1.442c-1.396-0.512-2.152-1.634-3.879-1.523   C274.717,126.246,274.694,124.079,272.491,122.968L272.491,122.968z" />
	<g
   id="mv"
   style="fill:#000000">
		<path
   id="mv-"
   fill="#CD3512"
   stroke="#FFFFFF"
   stroke-width="1.0003"
   d="M100.158,375.426c0.097-0.835-0.226-1.877-1.289-1.633    C99.507,374.126,100.007,374.715,100.158,375.426z"
   style="fill:#000000" />
		<path
   id="mv."
   fill="#CD3512"
   stroke="#131516"
   stroke-width="1.0003"
   d="M99.123,375.461c9.213,0,9.213-14.346,0-14.346    C89.904,361.116,89.904,375.461,99.123,375.461z"
   style="fill:#000000" />
	</g>
</g>
</svg>