<?xml version="1.0" encoding="utf-8"?>
<!-- Generator: Adobe Illustrator 14.0.0, SVG Export Plug-In . SVG Version: 6.00 Build 43363)  -->
<!DOCTYPE svg PUBLIC "-//W3C//DTD SVG 1.1//EN" "http://www.w3.org/Graphics/SVG/1.1/DTD/svg11.dtd">
<svg version="1.1"
	 id="svg2" sodipodi:version="0.32" inkscape:output_extension="org.inkscape.output.svg.inkscape" xmlns:dc="http://purl.org/dc/elements/1.1/" xmlns:rdf="http://www.w3.org/1999/02/22-rdf-syntax-ns#" xmlns:inkscape="http://www.inkscape.org/namespaces/inkscape" xmlns:cc="http://creativecommons.org/ns#" xmlns:sodipodi="http://sodipodi.sourceforge.net/DTD/sodipodi-0.dtd" xmlns:svg="http://www.w3.org/2000/svg" inkscape:version="0.46" sodipodi:docname="H1N1_Asia_map.svg"
	 xmlns="http://www.w3.org/2000/svg" xmlns:xlink="http://www.w3.org/1999/xlink" x="0px" y="0px" width="343px" height="227px"
	 viewBox="0 0 343 227" enable-background="new 0 0 343 227" xml:space="preserve">
<sodipodi:namedview  id="namedview727" guidetolerance="10.0" borderopacity="1.0" objecttolerance="10.0" bordercolor="#666666" inkscape:cx="813.26174" showgrid="false" gridtolerance="10.0" inkscape:cy="378.98883" pagecolor="#ffffff" inkscape:zoom="0.6615066" inkscape:pageopacity="0.0" inkscape:window-y="-8" inkscape:window-x="-8" inkscape:window-height="850" inkscape:pageshadow="2" inkscape:current-layer="Layer_x0020_1" inkscape:window-width="1440">
	</sodipodi:namedview>
<defs>
	
	
		<inkscape:perspective  id="perspective731" sodipodi:type="inkscape:persp3d" inkscape:vp_y="0 : 1000 : 0" inkscape:vp_x="0 : 453.5 : 1" inkscape:vp_z="1163 : 453.5 : 1" inkscape:persp3d-origin="581.5 : 302.33333 : 1">
		</inkscape:perspective>
</defs>
<sodipodi:namedview  id="base" guidetolerance="10.0" borderopacity="1.0" objecttolerance="10.0" bordercolor="#666666" inkscape:cx="278.7689" showgrid="false" gridtolerance="10.0" inkscape:cy="201.08867" pagecolor="#ffffff" inkscape:zoom="1.4326381" inkscape:pageopacity="0.0" inkscape:window-y="-8" inkscape:window-x="-8" inkscape:window-height="944" inkscape:pageshadow="2" inkscape:current-layer="svg1926" inkscape:window-width="1280">
	<inkscape:grid  type="xygrid" enabled="true" id="grid7412" visible="true"></inkscape:grid>
</sodipodi:namedview>
<g>
	<path id="kg" fill="#CD3512" stroke="#FFFFFF" stroke-width="1.0003" d="M215.741,164.051c1.765-1.165,3.896-1.475,5.891-0.867
		c0.61,0.186,3.854,1.224,2.604,2.326c1.438-0.098,1.386-1.642,2.445-2.271c1.58-0.937,2.676-2.201,4.57-1.38
		c0.491,0.213,0.939,0.735,1.405,0.902c0.749,0.27,0.64-1.089,1.336,0.026c0.409,0.655,1.786-0.483,2.61-0.456
		c-2.578-1.372,2.41-1.667,2.924-1.632c-0.336-0.649-0.688-1.209-0.608-1.976c1.422,0.61,2.481,0.975,3.241-0.699
		c0.188-0.41,2.574-1.174,1.676-1.719c-0.469-0.285-2.082-0.429-2.671-0.416c-1.954,0.037-3.132-2.552-5.241-1.289
		c-0.076-2.153-1.354-1.205-2.564-2.277c-1.256-1.105-2.861-2.158-3.541-3.391c0.13,0.713,0.514,1.656,0.143,2.358
		c-0.25,0.383-0.613,0.569-1.085,0.56c0.228,0.488,0.228,0.975,0,1.461c-1.51-1.422-4.714,0.354-5.673-2.026
		c-0.508-1.256-1.074-1.397-2.313-1.021c-1.01,0.305-2.149-0.964-3.179-0.988c0.429-2.916,5.345-5.192,7.218-6.957
		c-2.529-1.31-4.158,0.074-2.714-3.156c0.382-0.854,0.013-1.503,0.99-2.063c1.017-0.58,2.37-0.254,3.239-0.832
		c1.82-1.209,6.406,0.504,8.244,1.082c0.646,0.142,1.233,0.41,1.765,0.808c1.079,0.795,1.593,0.425,2.813,0.554
		c1.211,0.126,2.348,1.626,3.611,1.202c-1.248-1.176-2.393-5.502-0.506-6.538c0.456-0.25,4.104-1.124,3.68-1.878
		c2.502,0.821,4.987,2.147,7.34,3.324c0.91,0.456,5.114,1.948,6.235,1.399c0.856-0.421,0.112-1.459,1.287-1.459
		c1.714,0,3.457,0.647,5.162,0.426c1.245-0.162,2.407-0.771,3.678-0.771c1.332,0,2.464,0.989,3.82,0.581
		c1.213-0.361,2.61,0.018,3.813,0.229c1.567,0.274,3.074-0.033,4.646,0.066c2.611,0.167,6.468,1.134,8.511,2.814
		c0.879,0.723,1.231,1.693,2.549,1.646c1.124-0.042,1.822-0.021,2.792,0.538c1.213,0.693,3.149,1.771,3.725,3.133
		c0.168,0.398-3.185,1.533-3.836,2.074c-2.094,1.736-5.35,2.505-7.691,4.057c-1.089,0.719-1.576,1.242-1.835,2.5
		c-0.228,1.098-0.694,2.069-1.976,1.941c-1.271-0.126-2.313,0.771-3.598,0.65c-1.402-0.135-2.723-0.469-4.148-0.447
		c-1.881,0.029-2.358,2.365-2.508,3.984c-0.334,3.604-2.433,2.11-4.99,3.252c-2.426,1.082-2.196-1.67-3.482-2.676
		c-0.72-0.559-1.668,0.445-2.21,0.768c-1.274,0.758-2.505,0.51-3.889,0.223c-0.13,0.593-0.071,1.166,0.178,1.717
		c-1.117,0.029-1.798,1.104-2.519,1.789c-1.071,1.024-2.693,0.399-3.59,1.646c-1.271,1.773,2.201,4.228-0.11,5.386
		c-1.033,0.519-2.205-0.347-3.201,0.354c-1.151,0.805-2.536,0.883-3.892,0.746c-1.736-0.176-4.885-0.766-5.154,1.76
		c-0.504-0.602-1.242-1.168-1.953-1.498c-0.882-0.407-1.514,0.838-2.145,0.494c-0.681-0.371-0.326-1.473-0.886-1.658
		c-0.46,0.041-0.918,0.018-1.37-0.069c-0.521-0.334-0.65-0.949-1.133-1.285c-1.324-0.927-3.387,1.875-4.66,1.89
		c-1.02,0.01-1.609-0.197-2.142-1.084c-0.843-1.408-2.521-0.657-3.667-0.223c-0.03-0.314-0.061-0.628-0.081-0.943
		c-0.771,0.463-2.813,1.125-3.659,0.619c-1.207-0.725-2.354,0.82-3.617,0.184c-1.41-0.713-1.595-5.564,0.063-3.809
		C215.943,165.188,215.889,164.615,215.741,164.051z"/>
	<path id="tj" fill="#CD3512" stroke="#FFFFFF" stroke-width="1.0003" d="M199.674,172.21c0.715-1.304,0.033-3.437,2.493-3.437
		c1.917,0,3.799,1.074,5.728,0.771c1.393-0.217,1.701-1.223,1.428-2.389c-0.104-0.438-0.168-0.922,0.389-1.075
		c1.293-0.354-0.082-1.584,1.309-0.313c-0.582-0.396-1.018-1.014-1.119-1.718c0.404-0.001,0.807,0.026,1.205,0.085
		c-0.604-1.293-2.068-0.109-3.008-0.859c1.584-1.67,4.008,0.24,5.834-0.516c-0.865-0.681-0.094-1.197-0.701-2.173
		c-0.522-0.842-1.364-2.959-0.068-3.597c1.251-0.617,2.334,1.179,3.564,0.895c1.698-0.391,3.78-2.111,4.588-3.629
		c0.953,0.74,1.598,1.818,2.526,2.584c1.168,0.963,0.675,1.559-0.563,2.475c-1.686,1.25-1.188,0.965,0.186,1.898
		c0.602,0.41,0.979,1.359,1.729,1.546c0.865,0.218,1.718-0.392,2.564-0.429c-0.749,0.805-2.415,3.104-3.52,3.177
		c1.233-1.087-3.271-2.747-4.295-2.834c-2.459-0.209-3.902,0.992-4.031,3.093c-1.831-1.943-0.901,2.748-0.369,3.53
		c0.723,1.065,2.336-0.078,3.214-0.157c1.565-0.143,2.729,0.623,4.371-0.367c0.024,0.316,0.051,0.629,0.082,0.945
		c0.819-0.312,1.801-0.726,2.696-0.474c1.01,0.286,1.221,1.371,2.082,1.784c1.261,0.603,3.813-1.266,4.904-1.891
		c1.229-0.701,0.896,0.631,1.465,0.993c0.517,0.142,1.037,0.229,1.567,0.274c0.229,0.313,0.402,0.656,0.515,1.029
		c1.645,1.207,3.021-0.324,4.725,1.717c0.326-3.051,5.378-1.863,7.332-1.885c1.009-0.013,2.852-1.418,3.632-0.606
		c0.656,0.683,0.578,1.495,0.836,2.323c0.335,1.072,1.653,1.766,2.287,2.66c-1.914,0.012,0.067,2.711,0.536,3.301
		c0.679,0.854,1.615,1.125,2.386,0.169c0.813-1.009,2.104-0.485,3.093-0.188c2.366,0.712,3.92,0.927,3.924,3.694
		c0.002,0.968,1.689,4.271,2.418,4.718c0.688,0.423,0.185,1.488,0.482,2.11c0.436,0.902,1.158,0.98,1.753,1.669
		c0.479,0.556-0.405,1.71-0.979,1.836c-0.452,0.101-1.19-0.646-1.621-0.785c-0.688-0.226-3.629-1.315-4.213-0.671
		c-0.946,1.05-3.633,2.255-5.034,1.667c2.237-2.491-3.308-2.292-4.642-1.212c-1.217,0.979-2.375,1.045-3.025,2.572
		c-0.693,1.627-3.031,0.817-4.129,2.037c-5.539,6.146-8.299-4.237-7.5-8.722c0.56-3.134-1.475-0.384-2.772-1.551
		c-0.515-0.461,0.267-2.327,0.104-2.996c-0.235-0.985-2.801-2.252-3.652-2.519c-2.751-0.854-3.874,3.492-5.425,5.055
		c-0.824,0.829,0.651,1.539,0.974,2.178c0.833,1.652-0.935,2.563-2.277,1.756c-0.994-0.597-2.852-0.119-3.769,0.432
		c-1.28,0.77-0.521,1.716-0.09,2.723c1.306,3.036-2.84,0.648-3.552,0.078c-1.408-1.133-2.313,0.199-3.786,1.025
		c-0.794,0.443-2.259,0.324-2.063,1.633c-1.346-0.288-1.022,1.587-2.513,0.222c-1.563-1.435-2.813-4.401-1.634-6.446
		c1.498-2.595,4.066-5.262,0.88-7.513c-2.479-1.75-0.177-6.706-3.581-6.774c-0.969-0.021-2.253,0.301-2.719-0.771
		C202.193,172.93,200.448,173.672,199.674,172.21L199.674,172.21z"/>
	<path id="tm" fill="#B9BABE" stroke="#FFFFFF" stroke-width="1.0003" d="M69.387,147.046c4.013-5.812,10.792-7.187,16.875-4.166
		c2.89,1.437,4.645,4.052,6.734,6.429c2.881,3.272,5.874,2.028,9.835,2.299c1.795,0.123,3.513,0.057,5.281,0.317
		c2.124,0.313,0.703-1.085,0.437-1.702c-1.439-3.324-2.087-4.451,0.57-7.054c1.588-1.558,4.701,0.665,4.729-2.708
		c0.027-2.982,3.813,0.674,4.827,0.915c-0.391-0.426-3.543-3.093-3.562-3.261c-0.081-0.703,3.084-0.027,3.233-0.639
		c0.286-1.166,1.398-0.203,2.021,0.387c0.972,0.922,2.186,0.813,3.347,1.322c1.021,0.449,0.919,1.719,2.062,2.028
		c1.048,0.285,2.178-0.006,3.242,0.033c1.468,0.052,2.282,0.911,2.582,2.347c0.368,1.762,1.734,1.473,2.286,2.934
		c-0.788-0.125-1.176,0.059-0.71,0.783c0.693,1.076,0.655,1.155,0.554,2.348c-0.168,1.951,4.53,2.525,5.729,2.414
		c1.452-0.135,2.579,0.39,3.963,0.691c1.783,0.389,1.146-1.119,2.351-1.1c3.24,0.046,4.685,3.277,5.954,5.635
		c0.621,1.155,1.338,1.893,2.345,2.711c1.355,1.105,1.616,2.579,2.374,4.066c1.348,2.648,5.744,4.189,8.148,5.677
		c2.977,1.845,5.709,4.655,9.189,5.547c2.771,0.71,5.885,2.897,8.301,4.447c2.425,1.553,4.154,3.423,7.215,3.092
		c1.58-0.174,5.913,1.353,7.025,2.675c0.642,0.764-0.152,1.422-0.231,2.202c-0.127,1.275,0.693,2.442,0.902,3.663
		c0.375,2.198-5.757-0.654-6.604-1.34c-0.845-0.684-1.134,1.51-1.136,1.802c-0.008,1.466-1.019,1.47-2.164,1.476
		c-1.069,0.004-2.254,0.009-3.248,0.459c-1.514,0.687-0.563,1.938-0.792,3.139c-0.324,1.72-0.656,2.386-0.494,4.162
		c0.135,1.441-1.135,2.279-2.262,2.852c-2.957,1.498-5.855,3.952-9.395,3.496c0.254,0.701,0.768,1.293,1.372,1.717
		c-1.104,0.599-0.704,2.279-1.999,3.188c-1.386,0.97-4.313,0.938-5.041,2.48c-0.47-1.401-1.543-2.6-3.075-2.847
		c-2.167-0.351-3.128-0.339-5.168-1.362c-0.56-0.281-0.115-1.031-0.964-0.636c-0.701,0.327-0.814-0.513-0.918-1.039
		c-0.122-0.606-0.132-1.278-0.438-1.837c-0.788-1.438-0.986,0.217-0.609-1.8c0.221-1.175-0.764-3.56-0.977-4.851
		c-0.249-1.511-1.479-1.407-2.745-1.344c-1.271,0.064-2.757,0.479-4.021,0.166c-1.691-0.414-2.576-2.701-3.863-3.712
		c-1.552-1.22-4.089-0.896-5.333-2.634c-1.162-1.617-1.68-2.585-3.675-3.348c-2.044-0.78-3.658-0.426-5.761-0.551
		c-1.829-0.105-2.951-1.597-4.622-2.123c-1.552-0.49-4.58-0.23-5.358-1.897c-0.682-1.463-1.3-2.163-2.869-1.8
		c-0.719,0.168-7.63-1.387-5.941,1.378c-2.092,0.456-4.146-0.671-6.239-0.229c-2.455,0.521-4.048,2.098-5.74,3.786
		c-0.77,0.771,0.021,1.757-0.64,2.577c-0.396,0.492-1.114,0.752-1.686,0.947c-1.302,0.44-3.593,1.109-4.842,0.177
		c-0.985-0.739-1.279-2.945-1.558-4.033c-0.62-2.416-0.445-4.897-1.02-7.323c-0.352-1.488,0.906-3.644-0.312-4.773
		c-0.699-0.648-2.289-1.08-2.108-2.292c0,1.653-1.035-0.41-1.784-1.083c-0.784-0.705-2.326-1.785-2.845-0.206
		c-1.033-1.254-0.895-3.204,0.513-4.123c-1.81,1.745,2.303,1.16,3.006,1.375c-0.739,0.017-1.106-1.162-1.262-1.104
		c-0.92,0.332-0.703-1.402-0.72-1.91c-0.092-2.521-3.779-0.977-5.317-1.797c1.099,1.787-0.853,0.381-1.209-0.068
		c-0.501-0.633-0.672-1.463-0.723-2.247c-0.111-1.698,0.333-3.353,0.372-5.043c0.017-0.728,0.282-1.787,0.024-2.474
		c-0.334-0.886-1.087-1.598-1.417-2.571c-0.35-1.037-0.847-1.452-1.633-2.164C70.758,149.092,70.624,147.784,69.387,147.046
		L69.387,147.046z"/>
	<g id="kz">
		<path id="path3898" fill="#CD3512" stroke="#FFFFFF" stroke-width="1.0003" d="M8.488,76.875c0.396-1.313,0.313-2.354,1.539-3.151
			c0.621-0.404,1.128-1.426,0.693-2.125c-0.997-1.605-2.195-1.205-2.244-3.471c-0.057-2.545,0.85-2.598,2.061-4.514
			c0.789-1.247-0.24-3.193,0.844-4.284c2.438-2.452,6.692,5.34,8.845,5.624c1.291,0.171,4.736-1.086,2.917-2.663
			c-1.391-1.207-1.267-4.663-3.144-5.256c2.511,0.658,2.871-1.011,4.967-1.716c2.059-0.693-0.823-2.386,1.33-2.795
			c1.992-0.38,3.863-1.045,5.755-1.991c1.647-0.822,0.479-4.117,3.145-2.859c-0.23-0.572-0.462-1.146-0.691-1.717
			c0.809,0.173,4.583,0.75,4.808,1.394c0.888,2.55,2.155-0.097,3.184,1.612c0.615-0.759,0.649-1.615,1.551-2.148
			c0.396,0.051,0.791,0.049,1.187-0.006c0.498-0.374,1.018-0.716,1.557-1.024c1.638,5.254,6.735,1.352,10.056,3.589
			c1.587,1.069,3.107,1.709,4.717,2.638c0.662,0.383,1.185,0.995,1.63,1.602c0.679,0.927,1.868,0.946,2.839,1.36
			c-0.425,0.729,0.048,3.992,1.378,3.242c2.017-1.14-1.077-3.562-1.462-4.701c1.118-0.771,3.289,0.457,4.086,1.254
			c1.398,1.395,3.454,1.315,4.705,2.429c1.384,1.233,2.368,0.542,3.689-0.648c0.445-0.401,0.179-1.188,0.665-1.527
			c0.741-0.521,1.781-0.926,1.707-2.023c0.672,0.041,1.272,0.271,1.801,0.686c0.068-1.267,3.611-1.48,4.17-0.566
			c0.351,0.571,1.194,1.055,1.744,1.404c0.99,0.629,1.778-0.519,2.77-0.065c-0.074-2.57-0.24-1.742,2.204-1.598
			c1.27,0.075,1.771-0.996,3.149-0.18c0.989,0.588,1.349,1.348,1.789,2.327c0.611,1.358,8.735,2.036,7.889,3.401
			c1.052-0.07,2.123-0.254,2.658-1.288c0.304-0.583-0.321-1.82,0.474-2.148c1.045-0.431,1.626,1.069,2.368,1.462
			c0.962,0.508,2.64,0.497,3.713,0.474c1.254-0.028,4.708-0.517,4.983-2.095c0.176-1.004-0.888-3.684,0.75-3.876
			c-1.202-0.397-1.548-1.701-2.914-1.864c-1.153-0.139-2.376,0.144-3.328-0.706c-0.916-0.816-1.326-1.035-2.641-1.042
			c-1.62-0.01-1.659-0.678-2.872-1.601c-0.884-0.67-1.61-0.841-2.654-0.949c-1.013-0.105-1.129-1.186,0.055-1.074
			c0.92,0.087,1.632-1.193,2.479-1.479c1.571-0.528,2.274-1.177,3.717-1.938c-0.523-0.336-3.654-3.106-3.729-3.561
			c-0.169-1.037,2.402-1.539,1.318-2.794c2.326-0.262,4.293,0.285,6.539,0.17c0.629-0.032,1.678,0.615,1.819-0.439
			c0.155-1.137-1.236-1.336-2.005-1.533c-1.891-0.489-3.978-0.742-5.807-1.402c-2.43-0.877,2.129-1.938,2.194-2.035
			c-0.551-0.819-1.075-0.708-1.896-0.51c-1.225,0.298-2.391-0.387-3.424-0.949c2.919-0.241,0.577-2.145-0.265-2.834
			c0.579-0.113,1.153-0.083,1.719,0.086c-0.472-1.699,3.807-0.621,4.443-0.37c1.375,0.542,1.65-0.173,2.94-0.403
			c1.438-0.257,1.665,1.115,2.923,1.204c-0.366-2.278,1.892-1.976,3.612-1.976c0.113-0.286,0.229-0.573,0.346-0.86
			c0.566-0.09,1.133-0.113,1.704-0.07c1.183-0.049,2.052-0.184,3.249-0.092c1.204,0.093,0.937-1.203,2.148-1.22
			c1.232-0.02,2.378-0.516,3.617-0.291c0.902,0.164,1.686-0.758,2.556-0.147c1.179,0.827,1.084,0.083,1.076-0.84
			c-0.021-2.801,7.675-2.003,9.291-2.389c2.263-0.54,4.863-1.565,7.184-1.565c0.937,0,1.727-1.129,2.3-1.082
			c1.061,0.086,2.083,0.034,2.854-0.893c-0.774-0.139-1.197-1.306-0.26-1.184c1.004,0.13,2.557-0.572,2.156-1.735
			c0.705,0.2,1.419,0.258,2.146,0.171c-0.252-0.291-0.511-0.576-0.773-0.858c0.903,0.043,1.732,0.573,2.629,0.685
			c0.927,0.117,1.89-0.12,2.879,0.065c0.693,0.128,6.324,3.005,6.556,1.241c0.269-2.025,3.396,0.033,4.193,0.788
			c0.743,0.706,0.896,1.305,1.307,2.219c0.531,1.191,1.979,1.741,3.053,2.302c-1.141,1.184,1.947,3.763-0.516,3.952
			c1.613,1.988,2.81,0.547,4.338,1.464c0.883,0.529,1.813-0.053,2.016-0.914c0.212-0.921,2.326,0.31,2.918,0.224
			c-0.655-0.329-1.033-0.981-0.859-1.717c1.256,0.559,2.159,2.231,3.614,2.318c-1.207,0.896-0.013,1.174,0.515,2.319
			c0.483-0.525,1.086-0.786,1.803-0.773c-0.389-0.594-1.03-0.919-1.719-0.601c1.258-3.558,7.119,3.849,8.674-0.344
			c0.636,0.502,1.121,1.222,1.119,2.062c-1.623-0.227-2.043,0.581-2.644,1.904c-0.417,0.912,1.963,1.623,2.214,2.391
			c1.15-1.067,1.873-2.086,3.604-1.976c1.338,0.085,2.638,1.455,3.865,1.462c-0.164-2.518,1.19-2.617,3.004-3.264
			c0.873-0.311,3.451-1.357,2.328-2.662c1.021-0.088,2.008-0.365,2.965-0.729c0.644-0.255,1.281-0.52,1.918-0.79
			c0.256-0.309,0.487-0.631,0.699-0.97c0.568-0.205,1.318,0.409,1.812-0.118c0.813-0.87,1.282-0.672,2.389-1.084
			c-0.247,0.3-0.474,0.615-0.681,0.945c0.803,0.207,1.138,1.013,0.597,1.683c-0.651,0.809-1.515,0.208-2.313,0.721
			c3.629,2.75,7.879,4.328,11.813,6.543c3.945,2.222,7.308,5.338,10.708,8.291c3.883,3.37,7.538,6.945,11.27,10.479
			c2.24,2.124,5.401,7.153,8.547,7.841c-1.532-1.627,3.271-1.056,1.812-3.04c-1.253-1.703,0.82-0.943,0.777-2.286
			c0.96,0.387,4.018,0.367,4.351,1.455c0.377,1.234-0.449,2.382,1.564,1.981c1.641-0.327,1.949,1.96,3.354,2.232
			c0.735,0.144,1.437-0.313,2.147-0.385c1.008-0.102,1.885,0.594,2.92,0.545c1.896-0.088,2.585-0.593,3.935-1.67
			c0.33-0.262,1.016-0.047,1.389-0.12c0.664-0.132,0.587-0.764,1.174-0.945c4.102-1.266,8.556,3.625,10.892,6.195
			c1.3,1.429,2.964,1.572,4.72,2.115c2.05,0.63,2.84,1.998,4.303,3.391c0.629,0.602,1.14,0.954,1.652,1.664
			c0.779,1.081,1.253,0.173,2.271,0.544c1.359,0.496,3.182-0.107,4.554,0.459c1.731,0.715,1.753-0.274,2.859-1.147
			c0.259-0.202,2.544-1.926,2.021-0.632c-1.021,2.546,6.292,4.794,7.476,6.39c-1.354-0.335-5.558-0.789-3.938,1.887
			c1.132,1.874,0.504,3.557-1.451,4.399c-1.474,0.634-4.356-0.256-4.548,1.886c-0.3,3.371,1.796,6.575,3.618,9.208
			c1.956,2.825-1.946,3.017-3.334,4.21c-1.128,0.971-1.498,1.272-2.602,0.06c-1.089-1.196-3.392-0.614-4.775-0.446
			c-3.126,0.375-5.2-1.124-7.947-2.15c-2.688-1.007-1.864,5.252-1.813,6.768c0.096,2.951-0.269,5.826-0.313,8.749
			c-0.048,2.812,4.431,1.369,3.898,4.651c-0.228,1.398-1.555,0.324-2.244-0.012c-1.154-0.561-2.117,0.379-3.326,0.162
			c-0.978-0.175-1.72-1.863-2.641-1.435c-1.273,0.595-3.582,1.502-4.965,1.667c-1.862,0.224-6.963,0.42-7.854,2.57
			c-0.626,1.513,6.596,0.505,5.115,2.476c-1.344,1.785,2.755,7.373,3.754,8.642c0.938,1.192,2.396,2.54,2.832,4.031
			c0.313,1.071,1.813,1.991,1.271,3.229c-1.071-0.761-1.965,0.418-2.494,1.201c0.641,0.268,1.214,0.639,1.718,1.116
			c-0.774,0.198-1.483,0.642-2.313,0.601c0.174,0.853-0.068,1.781,0.31,2.586c0.544,1.16,1.921,2.318,1.493,3.771
			c-1.977-1.169-2.938-2.612-5.422-2.646c-2.396-0.031-3.273-1.884-5.106-2.983c-1.563-0.938-4.786-0.92-6.585-1.111
			c-2.955-0.313-5.96-0.202-8.928-0.448c-0.985-0.082-1.59-0.25-2.488-0.625c-1.21-0.507-2.245,0.205-3.41,0.483
			c-1.059,0.254-7.063-0.745-7.262,0.028c-0.857,3.332-11.852-2.885-14.049-3.605c0.427,0.752-3.225,1.627-3.68,1.877
			c-1.886,1.036-0.742,5.363,0.506,6.538c-0.986,0.33-2.123-0.606-2.977-0.946c-1.322-0.529-2.908-0.5-4.293-0.953
			c-2.434-0.793-5.499-2.024-8.078-1.933c-0.722,0.024-1.511,0.72-2.093,0.313c-0.399-0.275-1.714,0.099-2.063,0.342
			c-0.828,0.578-2.828,4.838-1.107,5.068c-0.618,0.422-1.799,1.75-2.37,1.979c-1.181,0.473-1.354-0.958-2.449,0.48
			c-1.669,2.194-3.464,3.16-5.849,4.449c-0.807,0.438-1.564,1.079-2.25,1.688c-0.771,0.681,0.207,1.14-0.612,1.977
			c-0.87,0.891-1.81,1.619-2.422,2.756c-0.763,1.404,0.671,2.205,0.839,3.508c-1.548-0.465-5.283-0.68-5.162-2.899
			c0.081-1.524-1.146-3.032-2.83-3.099c-2.758-0.107-8.435,2.344-10.172-0.666c-1.057-1.827-1.559-3.91-2.313-5.864
			c-0.982-2.552-2.561-0.849-4.174-1.972c-2.459-1.713-2.035-7.021-2.405-9.635c-2.44,0.221-2.616,0.41-4.296-1.681
			c-1.637-2.037-4.022-2.827-5.868-4.615c-2.341-2.268-2.911-0.126-5.484,0.335c-2.583,0.465-5.209-0.314-7.775-0.549
			c-0.194-0.018-0.392-0.031-0.589-0.044c-0.197-0.012-0.396-0.021-0.594-0.028c-0.198-0.006-0.396-0.01-0.597-0.012
			c-0.199-0.001-0.4,0-0.602,0.004c-0.199,0.004-0.4,0.01-0.603,0.02c-0.2,0.008-0.402,0.019-0.604,0.031
			c-0.202,0.015-0.401,0.028-0.604,0.047c-0.202,0.018-0.402,0.037-0.604,0.059c-0.201,0.021-0.4,0.045-0.603,0.068
			c-0.202,0.026-0.401,0.054-0.604,0.082c-0.199,0.03-0.397,0.062-0.599,0.093c-0.198,0.032-0.396,0.065-0.595,0.102
			c-0.197,0.036-0.396,0.073-0.593,0.111c-0.195,0.039-0.392,0.078-0.586,0.12c-0.194,0.041-0.388,0.083-0.58,0.127
			c-0.191,0.043-0.384,0.087-0.573,0.133c-2.94,0.708-4.473-1.729-6.66-3.327c-2.245-1.637-3.813-3.708-5.854-5.495
			c-2.311-2.025-1.234-1.385-3.968-2.769c-0.012-0.007,0.857-0.255,0.09-1.079c-0.767-0.827-1.788-1.568-2.817-2.683
			c-2.604-3.223-0.415-1.965-0.667-5.074c-0.141-0.854-5.043-0.85-5.013-0.287c-1.976-0.726-1.5-1.062-0.45-1.41
			c-0.474-0.652,4.573,0.694,3.99-0.116c-0.582-0.811-1.321-0.593-1.941-1.458c-0.621-0.866,1.641,0.613,1.05-0.203
			c-0.591-0.816-1.671-0.36-2.161-1.022c0.552,0.047,3.087-0.226,0.932-1.207c-0.47-0.215-3.1,0.503-3.46,0.303
			c0.215-0.268,1.257-2.289-2.646-2.389c-0.415-0.235,1.982,1.087,1.921,2.72c-0.04,1.057,0.124,2.946-0.146,2.788
			c-0.271-0.158-0.025,0.717-1.004,0.153c-0.979-0.563-0.851,0.134-1.791-0.407c-0.938-0.541,0.965-1.299,0.137-1.772
			c-0.827-0.473-3.704,1.311-4.346,0.952c-0.64-0.358,0.022,1.817-0.354,1.619c-2.726-1.432,2.212,0.678-0.97,1.533
			c-5.429,1.458-13.961,3.009-18.999,5.521c-0.913,0.455,3.019,14.643,3.351,16.164c1.543,7.088,3.073,14.18,4.505,21.293
			c-1.134-0.033-2.114,0.741-3.246,0.742c-1.423,0.001-2.766-1.673-3.607-2.633c-2.085-2.381-3.903-4.938-6.757-6.477
			c-3.159-1.703-5.14-2.299-8.679-1.398c-3.396,0.863-6.188,2.646-8.199,5.557c0.207-1.593-1.266-2.908-0.646-4.498
			c0.646-1.656,1.812-3.729,0.038-5.123c0.267,0.229,0.551,0.43,0.858,0.603c1.318-1.729-3.834-2.173-4.836-2.574
			c-1.044-0.416-1.721,0.656-2.671-0.295c-0.741-0.74-1.537-1.592-1.935-2.577c-0.573-1.423-3.101,1.518-3.405-1.835
			c-0.104-1.146-0.45-1.832-1.376-2.548c-1.271-0.982-1.865-2.596-2.707-3.92c-1.218-1.914-2.343-2.86-4.58-3.271
			c-1.199-0.219-3.817-1.32-2.19-2.951c1.103-1.106,3.569-0.574,4.869-0.195c0.793,0.23,1.344,0.945,2.119,1.141
			c1.103,0.275,2.393-0.326,3.577-0.125c-0.911-1.574-3.503-1.705-4.792-2.914c-1.206-1.134,1.07-4.749,2.356-5.298
			c0.373-0.159,1.909-1.096,2.104-1.105c0.444,0.107,0.866,0.273,1.264,0.498c0.733,0.284,1.729-0.152,2.472-0.218
			c2.588-0.221,6.341,1.967,8.623,0.618c-1.283-0.641-3.702-0.893-4.32-2.399c-0.859-2.093,2.357-4.678,1.66-7.22
			c-0.647-2.361-1.934-4.243-3.32-5.958c-0.667-0.828-3.29-1.235-4.096-0.462c-3.659,3.519-10.421-5.592-13.182-0.072
			c-0.113,0.223-1.945,0.322-2.119,0.302c-1.206-0.145-1.241,1.238-2.063,1.848c-0.739,0.548-1.592,0.951-2.413,1.361
			c-0.534,0.258-1.097,0.407-1.69,0.445c-0.946,0.05-2.25-1.273-1.189,0.475c-0.568-0.375-1.167-0.691-1.801-0.946
			c0.345,0.345,0.691,0.689,1.037,1.031c-0.41-0.126-0.698-0.012-0.862,0.347c-0.224,1.196-1.375-0.181-0.342,1.026
			c-1.129-0.496-6.536-1.844-6.609-3.263c-0.102-1.989,6.779,1.239,2.427-2.989c-2.773-2.694-4.635-6.818-8.525-7.995
			c-1.306-0.395-3.008-0.84-4.355-0.391c-0.062,0.021-0.117,0.044-0.168,0.069c-0.051,0.025-0.096,0.052-0.136,0.08
			c-0.041,0.028-0.078,0.058-0.11,0.089c-0.033,0.03-0.063,0.063-0.088,0.093C16.24,85.969,16.216,86,16.195,86.03
			c-0.021,0.031-0.041,0.061-0.06,0.09c-0.018,0.029-0.036,0.057-0.053,0.083c-0.017,0.026-0.034,0.05-0.051,0.071
			c-0.018,0.021-0.035,0.04-0.055,0.057c-0.019,0.016-0.041,0.028-0.063,0.037c-0.022,0.009-0.047,0.013-0.075,0.014
			c-0.028,0-0.059-0.005-0.094-0.013c-0.035-0.01-0.074-0.024-0.117-0.045c-0.043-0.02-0.091-0.046-0.144-0.078
			c-0.054-0.032-0.112-0.071-0.177-0.117c-0.066-0.046-0.137-0.1-0.215-0.16c-0.051-0.04-0.099-0.08-0.144-0.124
			c-0.046-0.042-0.088-0.087-0.129-0.133c-0.04-0.047-0.079-0.095-0.116-0.144c-0.035-0.048-0.071-0.1-0.104-0.15
			c-0.033-0.052-0.063-0.104-0.094-0.159c-0.03-0.053-0.059-0.107-0.087-0.162c-0.028-0.055-0.056-0.11-0.083-0.167
			c-0.026-0.056-0.053-0.111-0.079-0.167c-0.026-0.057-0.052-0.114-0.079-0.169c-0.026-0.057-0.052-0.113-0.08-0.169
			c-0.027-0.057-0.055-0.112-0.083-0.168c-0.028-0.054-0.058-0.11-0.089-0.163c-0.031-0.054-0.063-0.107-0.097-0.159
			c-0.033-0.052-0.068-0.104-0.106-0.153c-0.037-0.05-0.075-0.1-0.117-0.146c-0.042-0.047-0.086-0.093-0.132-0.137
			c0.018-0.013,0.036-0.026,0.053-0.038c0.018-0.013,0.035-0.026,0.053-0.038c0.018-0.013,0.035-0.026,0.054-0.038
			c0.018-0.013,0.035-0.026,0.053-0.038c0.018-0.013,0.035-0.026,0.053-0.038c0.018-0.013,0.035-0.026,0.054-0.038
			c0.018-0.013,0.035-0.026,0.053-0.038c0.018-0.013,0.035-0.026,0.054-0.038c0.018-0.013,0.036-0.025,0.053-0.038
			c0.018-0.013,0.035-0.024,0.054-0.038c0.018-0.012,0.036-0.025,0.053-0.037c0.018-0.013,0.037-0.025,0.054-0.038
			c0.018-0.013,0.036-0.025,0.053-0.038c0.019-0.012,0.037-0.025,0.054-0.037c0.018-0.013,0.036-0.025,0.054-0.038
			c0.018-0.012,0.036-0.025,0.053-0.037c-0.037-0.034-0.072-0.068-0.105-0.104c-0.034-0.036-0.065-0.071-0.096-0.107
			c-0.031-0.036-0.059-0.075-0.086-0.112c-0.027-0.038-0.053-0.077-0.078-0.116s-0.048-0.078-0.072-0.118
			c-0.022-0.04-0.043-0.08-0.065-0.12c-0.021-0.042-0.041-0.083-0.061-0.124c-0.021-0.042-0.039-0.083-0.058-0.125
			s-0.038-0.084-0.057-0.125c-0.018-0.042-0.037-0.085-0.054-0.127c-0.019-0.043-0.037-0.085-0.056-0.128s-0.037-0.085-0.057-0.126
			c-0.019-0.043-0.039-0.085-0.059-0.128c-0.02-0.041-0.042-0.083-0.063-0.125c-0.022-0.042-0.045-0.083-0.068-0.124
			c-0.024-0.042-0.049-0.082-0.075-0.122c-0.023-0.037-0.051-0.07-0.08-0.102c-0.031-0.032-0.065-0.063-0.102-0.091
			c-0.037-0.029-0.076-0.056-0.118-0.081s-0.087-0.048-0.133-0.071c-0.047-0.022-0.096-0.043-0.146-0.063
			c-0.051-0.02-0.104-0.038-0.157-0.056c-0.053-0.017-0.109-0.033-0.164-0.048c-0.056-0.016-0.112-0.03-0.17-0.042
			c-0.057-0.013-0.114-0.026-0.171-0.038c-0.058-0.012-0.116-0.023-0.172-0.034c-0.058-0.01-0.115-0.021-0.17-0.031
			c-0.055-0.01-0.111-0.02-0.165-0.029c-0.053-0.009-0.106-0.019-0.157-0.027c-0.051-0.009-0.101-0.019-0.147-0.028
			c-0.047-0.008-0.092-0.018-0.135-0.027c-0.042-0.01-0.083-0.02-0.121-0.03c-0.125-0.035-0.247-0.069-0.362-0.105
			c-0.117-0.034-0.228-0.07-0.334-0.106c-0.107-0.035-0.209-0.072-0.306-0.11c-0.097-0.039-0.19-0.078-0.278-0.118
			c-0.087-0.04-0.17-0.083-0.248-0.126c-0.078-0.045-0.151-0.091-0.22-0.14c-0.07-0.048-0.134-0.099-0.193-0.152
			c-0.059-0.054-0.113-0.11-0.163-0.17c-0.051-0.059-0.096-0.123-0.136-0.188c-0.042-0.066-0.077-0.137-0.109-0.211
			c-0.031-0.073-0.058-0.152-0.079-0.235c-0.022-0.083-0.04-0.17-0.053-0.262c-0.013-0.091-0.021-0.189-0.025-0.291
			C8.4,77.847,8.4,77.74,8.405,77.626c0.005-0.113,0.016-0.231,0.03-0.356C8.445,77.144,8.464,77.013,8.488,76.875L8.488,76.875z"/>
		<path id="path7142" fill="#CD3512" stroke="#FFFFFF" stroke-width="1.0003" d="M114.371,106.189
			c0.201,0.607,0.577,1.262,1.026,1.717c0.864-2.974,2.93,2.779,3.184,3.007c-0.065-0.73-0.24-2.074-0.858-2.577
			c3.238,1.91,1.813,3.482,1.741,3.667l-5.959-3.247c0.129-0.434-0.281-1.635,1.51-0.814c-0.782-0.52-0.912-0.849-0.563-1.755
			 M114.371,106.189L114.371,106.189L114.371,106.189z"/>
	</g>
	<g id="uz">
		<path id="path3470" fill="#B9BABE" stroke="#FFFFFF" stroke-width="1.0003" d="M91.798,113.892
			c4.486-1.662,9.126-2.848,13.724-4.161c1.646-0.471,3.939-0.626,5.554-1.2c1.771-0.63-2.141,5.242,0.393,8.572
			c0.098,0.127,0.326,2.055,0.789,2.91c0.462,0.854,1.135,0.739,1.339,0.731l4.244-0.15c0.714-0.104,0.781,0.95,1.039,1.538
			c0.152,0.352,1.295,0.758,1.59,2.223c0.093,0.453,0.472-0.691,0.756-1.102c0.355-0.513,6.375-0.117,6.254,0.026
			c1.643-1.224,2.723-2.962,2.715-5.462c0.355,0.097,1.199,0.262,1.507,0.412c3.445,1.699,6.467,5.299,9.246,7.916
			c1.128,1.065,2.387,2.299,3.898,2.787c1.787,0.578,4.289-0.576,6.069-0.896c4.659-0.839,9.63,1.48,14.138,0.35
			c1.167-0.293,2.258-2.152,3.566-1.429c1.655,0.913,2.703,2.549,4.451,3.423c1.714,0.855,2.258,2.074,3.494,3.438
			c1.295,1.423,1.851,0.837,3.531,0.685c0.37,2.614-0.054,7.921,2.405,9.636c1.215,0.846,2.836-0.168,3.758,1.403
			c1.065,1.815,1.464,3.979,2.397,5.86c1.835,3.701,7.242,1.111,10.421,1.22c1.868,0.065,3.073,1.567,2.892,3.259
			c-0.273,2.528,3.656,2.299,5.184,2.756c-0.125-0.965-1.791-2.42-0.82-3.38c0.895-0.882,0.904-1.931,2.219-2.457
			c1.098-0.438-0.005-1.614,0.615-2.306c0.79-0.883,2.749-1.893,3.773-2.61c1.215-0.849,2.72-0.837,3.563-2.178
			c0.396-0.629,0.973-1.989,1.79-2.179c1.265-0.293,1.302,0.576,2.492-0.651c1.315-1.36,2.54-1.39,4.139-0.56
			c-1.841,1.736-6.81,4.197-7.217,6.957c1.073,0.022,1.731,1.004,2.757,1.115c1.191,0.131,1.909-1.164,2.569,0.479
			c1.114,2.769,4.19,0.885,5.84,2.44c0.226-0.484,0.226-0.972,0-1.461c0.474,0.008,0.835-0.178,1.086-0.56
			c0.371-0.703-0.015-1.647-0.144-2.36c0.758,1.379,1.928,1.579,3.078,2.913c1.17,1.354,2.948,0.57,3.027,2.757
			c2.117-1.27,2.912,1.174,4.698,1.357c0.438,0.046,1.348-0.364,1.514,0.18c0.109,0.359,1.203-0.136,1.702,0.165
			c0.848,0.515-1.159,1.255-1.448,1.472c-1.602,1.198-1.206,1.92-3.47,0.947c-0.079,0.766,0.273,1.325,0.607,1.973
			c-0.513-0.033-5.502,0.263-2.922,1.633c-0.722-0.023-1.449,0.363-2.115,0.581c-0.657,0.214-0.623-0.45-1.332-0.128
			c-0.644,0.291-1.45-0.736-1.995-0.901c-1.201-0.36-2.388-0.028-3.527,0.375c-2.485,0.883-2.79-0.379-5.026-1.129
			c-2.088-0.702,2.521-3.04,2.283-3.797c-0.086-0.271-0.742-0.038-0.906-0.326c-0.648-1.149-1.646-1.952-2.672-2.748
			c-0.569,1.07-4.183,4.787-5.637,3.804c-0.988-0.67-2.813-2.049-3.318,0.071c-0.225,0.938,0.804,4.022,1.569,4.627
			c-1.827,0.753-4.249-1.155-5.834,0.515c0.938,0.75,2.406-0.435,3.009,0.859c-0.399-0.059-0.802-0.085-1.205-0.084
			c0.104,0.705,0.537,1.322,1.119,1.716c-0.949-0.903-1.125-0.817-0.522,0.261c-0.539-0.026-1.328-0.006-1.222,0.742
			c0.19,1.315,0.395,2.729-1.465,2.758c-1.783,0.026-3.476-0.822-5.209-0.754c-0.842,0.035-1.438,0.436-2.089,0.918
			c-0.979,0.731-0.422,0.672-0.536,1.754c-0.146,1.315,0.475,1.75,1.717,2.11c1.405,0.406,1.129,1.408,2.435,1.654
			c0.944,0.177,3.032-0.144,3.463,1.045c0.271,0.746-0.387,1.397-0.401,2.133c-0.019,0.847,0.373,1.715,0.836,2.402
			c0.705,1.043,2.054,1.491,2.658,2.591c0.946,1.709-1.023,3.008-1.555,4.438c-0.678,1.832-1.25,2.855-0.861,4.834
			c0.319,1.642-1.309,0.605-2.089,0.4c-1.584-0.413-1.919,0.826-3.495-0.059c-0.67-0.377-1.316-0.924-2.082-1.104
			c-0.908-0.212-1.709,0.343-2.604,0.188c-1.4-0.243-1.269-1.76-1.661-3.274c-0.355-1.377,1.327-3.169-0.564-3.683
			c-1.188-0.322-2.111-0.479-3.186-1.176c-1.828-1.189-3.162-0.787-5.161-1.15c-2.09-0.383-3.76-2.11-5.479-3.209
			c-1.643-1.049-3.402-1.586-4.965-2.801c-1.479-1.15-3.271-0.991-4.729-2.014c-1.831-1.285-3.777-2.424-5.626-3.701
			c-2.861-1.976-8.906-4.012-10.37-7.352c-1.376-3.139-3.802-4.953-5.352-8.063c-0.839-1.683-1.864-2.78-3.615-3.545
			c-0.467-0.203-1.278-0.645-1.802-0.516c-0.745,0.186-0.24,1.157-1.122,1.246c-1.761,0.176-3.531-0.832-5.436-0.682
			c-1.498,0.117-2.813-0.572-4.145-1.182c-0.987-0.453-2.364-4.685-0.895-4.449c-0.543-1.439-2.266-0.988-2.36-2.797
			c-0.095-1.82-1.228-2.463-3.016-2.435c-0.849,0.013-3.454,0.285-3.794-0.833c-0.518-1.691-2.26-1.168-3.47-1.941
			c-0.575-0.367-2.015-2.164-2.814-1.537c-0.979,0.768-0.797,0.713-2.21,0.459c-2.276-0.41,2.033,3.467,2.456,3.928
			c-1.143-0.27-1.079-1.559-2.434-1.612c-0.716-0.028-2.981-1.017-2.609,0.592c0.775,3.351-3.25,1.535-4.716,3.04
			c-2.108,2.164-2.051,2.813-0.92,5.623c0.36,0.896,1.671,1.751,0.987,2.613c-0.449,0.568-2.78,0.054-3.438,0.057
			c-2.657,0.01-5.747,0.559-6.131-2.552c-0.496-4.022-1.69-8.062-2.596-12.01c-0.874-3.817-1.765-7.632-2.598-11.458
			C93.391,121.854,93.109,117.563,91.798,113.892L91.798,113.892z"/>
		<path id="path7148" fill="#B9BABE" stroke="#FFFFFF" stroke-width="1.0003" d="M119.533,112.103
			c0.298,1.319-0.063,3.758-1.206,4.638c-0.067-0.197-0.121-0.397-0.167-0.601c-0.323,1.068,0.993,1.896,1.038,2.92
			c-0.804-1.524-0.108,0.142-1.551-0.859c-0.385,0.875,0.615,2.476-1.259,1.938c-0.181-0.053-2.44-3.016-2.44-3.313
			c0-0.637,1.895,0.75,2.125,0.845c0.995,0.41-0.479-3.246-1.087-1.446c-0.461-0.832-0.214-2.728,1.024-2.75
			c-0.308-0.277-2.791,0.832-2.439,0.045c0.317-0.711,1.252-0.638,0.604-1.643c-0.485-0.755-1.312-2.177-0.74-3.126
			 M119.533,112.103L119.533,112.103L119.533,112.103z"/>
	</g>
</g>
</svg>
