<?xml version="1.0" encoding="UTF-8" standalone="no"?>
<!-- Generator: Adobe Illustrator 14.0.0, SVG Export Plug-In . SVG Version: 6.00 Build 43363)  -->
<svg
   xmlns:dc="http://purl.org/dc/elements/1.1/"
   xmlns:cc="http://creativecommons.org/ns#"
   xmlns:rdf="http://www.w3.org/1999/02/22-rdf-syntax-ns#"
   xmlns:svg="http://www.w3.org/2000/svg"
   xmlns="http://www.w3.org/2000/svg"
   xmlns:sodipodi="http://sodipodi.sourceforge.net/DTD/sodipodi-0.dtd"
   xmlns:inkscape="http://www.inkscape.org/namespaces/inkscape"
   version="1.1"
   id="svg2"
   sodipodi:version="0.32"
   inkscape:version="0.46"
   sodipodi:docname="H1N1_Southwest_Asia_Map.svg"
   inkscape:output_extension="org.inkscape.output.svg.inkscape"
   x="0px"
   y="0px"
   width="373.556px"
   height="352.441px"
   viewBox="0 0 373.556 352.441"
   enable-background="new 0 0 373.556 352.441"
   xml:space="preserve"><metadata
   id="metadata63"><rdf:RDF><cc:Work
       rdf:about=""><dc:format>image/svg+xml</dc:format><dc:type
         rdf:resource="http://purl.org/dc/dcmitype/StillImage" /></cc:Work></rdf:RDF></metadata>
<sodipodi:namedview
   id="namedview727"
   inkscape:window-height="850"
   inkscape:window-width="1440"
   inkscape:pageshadow="2"
   inkscape:pageopacity="0.0"
   inkscape:window-x="-8"
   inkscape:window-y="-8"
   inkscape:current-layer="Layer_x0020_1"
   gridtolerance="10.0"
   borderopacity="1.0"
   bordercolor="#666666"
   pagecolor="#ffffff"
   showgrid="false"
   inkscape:zoom="0.6615066"
   inkscape:cx="813.26174"
   guidetolerance="10.0"
   inkscape:cy="378.98883"
   objecttolerance="10.0">
	</sodipodi:namedview>
<defs
   id="defs4">
	
	
		<inkscape:perspective
   id="perspective731"
   inkscape:persp3d-origin="581.5 : 302.33333 : 1"
   sodipodi:type="inkscape:persp3d"
   inkscape:vp_x="0 : 453.5 : 1"
   inkscape:vp_y="0 : 1000 : 0"
   inkscape:vp_z="1163 : 453.5 : 1">
		</inkscape:perspective>
</defs>
<sodipodi:namedview
   id="base"
   inkscape:window-height="944"
   inkscape:window-width="1280"
   inkscape:pageshadow="2"
   inkscape:pageopacity="0.0"
   inkscape:window-x="-8"
   inkscape:window-y="-8"
   inkscape:current-layer="svg1926"
   gridtolerance="10.0"
   borderopacity="1.0"
   bordercolor="#666666"
   pagecolor="#ffffff"
   showgrid="false"
   inkscape:zoom="1.4326381"
   inkscape:cx="278.7689"
   guidetolerance="10.0"
   inkscape:cy="201.08867"
   objecttolerance="10.0">
	<inkscape:grid
   type="xygrid"
   visible="true"
   enabled="true"
   id="grid7412" />
</sodipodi:namedview>
<g
   id="g9">
	<g
   id="ye">
		<path
   id="path2190"
   stroke="#FFFFFF"
   stroke-width="1.0003"
   d="M172.457,323.326c0.115-0.396,0.141-0.795,0.083-1.202    C171.226,322.334,171.761,322.859,172.457,323.326z" />
		<path
   id="path2192"
   stroke="#FFFFFF"
   stroke-width="1.0003"
   d="M259.634,341.534c-0.051-0.928-1.196-0.602-1.717-0.516    C258.489,341.19,259.061,341.363,259.634,341.534z" />
		<path
   id="path2194"
   stroke="#FFFFFF"
   stroke-width="1.0003"
   d="M272.337,339.817c2.01-0.462,5.497-0.242,6.525-2.492    c-1.207-0.725-2.804-1.833-4.292-1.497c-0.705,0.159-1.313,0.621-2.068,0.548c-0.8-0.074-1.484-0.771-2.314-0.623    c-0.907,0.165-1.714,1.93-0.965,2.591C270.005,339.036,271.295,339.667,272.337,339.817L272.337,339.817z" />
		<path
   id="path2592"
   stroke="#FFFFFF"
   stroke-width="1.0003"
   d="M264.87,294.686c-2.895-0.106-1.579-6.092-4.449-6.43    c1.616-2.174-3.439-8.454-4.254-10.573c-0.779-2.025-1.243-4.67-2.865-6.233c-1.723-1.662-7.974,0.38-10.176,0.672    c-4.212,0.562-8.429,1.107-12.646,1.646c-3.923,0.501-6.497,1.825-9.767,3.999c-2.577,1.714-3.425,3.691-5.108,6.206    c-1.456,2.177-2.235,7.67-5.727,7.459c-2.376-0.144-2.117-3.706-4.403-3.437c-2.881,0.34-5.239,0.286-8.158-0.124    c-1.657-0.233-3.356-1.413-4.979-1.413c-1.797,0-3.589,0.174-5.376,0.343c-2.193,0.208-4.046,1.192-6.319,1.067    c-1.25-0.068-1.713-1.46-2.991-1.618c-1.223-0.153-2.162,0.671-2.674,1.704c-0.559,1.127-0.738,2.495-0.527,3.731    c0.136,0.803,1.259,1.599,0.648,2.421c-0.578,0.777-1.035,1.578-1.628,2.391c-0.318,0.443-0.718,0.793-1.199,1.05    c-1.145,0.572-0.561,1.007-0.325,2.264c0.372,1.99-0.378,2.912-0.732,4.726c-0.327,1.679,1.082,3.137,0.921,4.806    c-0.318-0.285-2.029-0.329-1.743,0.337c-0.062-0.14,1.725,0.867,1.722,0.86c0.957,1.021,1.314,2.079,1.641,3.415    c0.641,2.619,0.692,5.54,1.515,8.088c0.337,1.046,1.177,1.828,1.575,2.849c0.479,1.229,0.026,2.563,0.002,3.822    c-0.048,2.489,2.962,4.583,2.147,7.112c1.099,0.086,1.84-0.532,2.951-0.088c1.184,0.472,1.997,0.861,3.301,0.604    c2.69-0.533,3.886-2.413,6.69-0.942c-0.144-0.764,0.67-1.538,0.944-0.428c0.464-0.512,0.733-1.104,1.109-1.671    c0.592-0.898,1.552-0.879,2.343-1.478c1.766-1.334,1.966-2.68,4.398-3.236c2.268-0.521,4.671-0.62,6.983-0.408    c1.363,0.124,3.647-1.438,5.012-1.825c2.036-0.576,3.043-2.338,4.836-3.33c0.549-0.305,1.325-0.992,1.92-1.17    c0.657,0.021,1.284,0.178,1.88,0.466c0.672,0.032,1.331-0.05,1.972-0.241c4.328-0.696,5.301-5.176,9.191-7.084    c1.807-0.889,3.404-1.111,5.335-1.449c2.379-0.416,4.353-2.012,6.693-2.57c1.629-0.389,3.279-0.695,4.857-1.266    c1.579-0.569,2.139-1.827,3.474-2.509c1.106-0.564,3.495-0.495,3.834-1.998c0.395-1.741-0.815-3.326-0.183-5.103    C257.813,296.508,262.195,296.65,264.87,294.686L264.87,294.686z" />
	</g>
	<path
   id="jo"
   fill="#CD3512"
   stroke="#FFFFFF"
   stroke-width="1.0003"
   d="M95.064,163.834c-0.165-2.88,0.995-5.622,1.022-8.484   c0.032-3.292,1.501-5.731,1.899-8.864c0.167-1.306-0.21-2.638-0.107-3.962c0.098-1.252,0.667-2.484,0.713-3.704   c0.096-2.56-0.445-5.363-0.54-7.945c-0.078-2.191,2.694-1.783,3.943-0.92c2.057,1.422,3.993,3.538,6.76,2.994   c2.785-0.548,5.272-3.13,7.576-4.665c2.944-1.96,5.882-4.13,8.972-5.847c0.953,3.055,2.204,6,3.257,9.021   c-1.062,0.111-0.368,1.561,0.315,1.736c1.083,0.277,2.905-0.12,1.153,1.718c-2.625,2.755-6.192,3.104-9.698,4.046   c-1.215,0.326-9.446,2.27-8.141,3.656l8.978,9.541c-0.886,0.435-2.887,0.42-3.518,1.214c-0.725,0.915,0.02,2.722-0.756,3.635   c-1.301,1.532-4.853,0.723-6.539,2.332c-1.924,1.838-2.401,4.797-5.149,5.879C102.719,166.19,97.584,164.487,95.064,163.834   L95.064,163.834z"
   style="fill:#000000" />
	<g
   id="ae">
		<path
   id="path2704"
   stroke="#FFFFFF"
   stroke-width="1.0003"
   d="M265.299,217.856c0.597,0.039,1.054-0.188,1.372-0.687    c-0.779-0.646-1.765-0.493-2.23,0.429C264.727,217.686,265.012,217.77,265.299,217.856z" />
		<path
   id="path2784"
   stroke="#FFFFFF"
   stroke-width="1.0003"
   d="M245.462,216.311c0.583-0.386,0.811-0.155,0.679,0.688    c0.279-0.265,0.566-0.522,0.859-0.772c0.557,0.813,0.063,1.988,0.692,2.748c0.608,0.733,2.016,0.564,2.84,0.517    c1.071-0.063,1.974-0.232,2.798-0.974c0.375-0.337,0.808-1.319,1.317-1.432c0.553-0.123,1.93,0.709,2.607,0.723    c1.114,0.025,2.222,0.153,3.334,0.114c3.021-0.106,5.104,1.284,8.064-0.493c-0.27-0.415-0.556-0.813-0.859-1.201    c0.932-0.353,0.803,0.769,1.539,0.688c1.07-0.119,1.979-1.411,2.417-2.269c1.188-2.335,1.34-3.666,3.419-5.401    c2.023-1.689,2.851-4.737,4.764-6.315c2.118-1.747,3.389-2.213,4.001-5.082c1.543,0.078,0.877,2.313,0.889,3.255    c0.021,1.781,1.959,0.88,2.19,2.858c0.229,1.986,1.069,3.871,0.023,5.797c-1.416,2.611-1.76,1.479-2.618-0.152    c-1.01-1.908-1.718,1.188-1.562,2.043c0.118,0.642,0.336,0.775-0.074,1.337c-0.539,0.737,0.556,1.797,0.378,2.644    c-0.281,1.355,2.387,1.313,1.467,2.655c-0.842,1.232-3.075,0.478-4.051,1.639c1.478,0.865,0.292,3.27-0.168,4.381    c-0.857,2.078-1.497,4.077-1.351,6.34c0.153,2.358-1.05,2.898-3.106,2.416c-2.527-0.593-5.144-0.83-7.711-1.211    c-2.691-0.398-5.383-0.794-8.083-1.131c-1.984-0.248-4.363,0.146-5.693-1.62c-1.35-1.793-2.637-3.609-4.057-5.355    c-0.992-1.221-2.006-2.419-3.007-3.633C246.396,218.879,246.236,217.611,245.462,216.311L245.462,216.311z" />
	</g>
	<path
   id="iq"
   stroke="#FFFFFF"
   stroke-width="1.0003"
   d="M125.303,122.436c5.238-2.511,9.875-5.015,14.129-8.413   c1.388-1.11,3.118-1.9,4.181-3.362c1.529-2.104,0.816-4.152,0.759-6.536c-0.047-2.022,1.448-5.385,0.47-7.182   c-0.894-1.645-2.277-4.929-0.643-6.626c1.138-1.186,3.15-0.735,4.439-1.974c1.007-0.966,3.037-2.562,3.171-4.067   c0.054-0.61,0.654-0.378,1.271-0.565c1.018-0.309,0.997-1.309,1.463-2.108c0.449-0.77,5.034,0.063,5.967,0.322   c0.813,0.228,1.583,0.588,2.411,0.759c1.363,0.282,1.771-0.606,2.958-0.82c2.751-0.495,0.889,3.379,2.644,3.21   c1.235-0.119,1.786-1.861,3.146-1.812c1.726,0.065,1.424,2.877,2.182,3.894c0.359,0.481,1.008,0.396,1.307,1   c0.365,0.737,0.199,1.597,0.742,2.272c1.063,1.319,3.678,2.787,2.739,4.956c1.917-0.434,2.153,0.742,3.604,1.547   c0.757,0.419,4.4,0.503,5.247,0.258c-0.311,1.341-1.929,0.97-2.488,2.007c-0.947,1.75,1.818,3.112,1.973,4.704   c0.201,2.101-2.365-0.208-2.292,1.922c0.033,0.959-1.306,0.856-1.571,1.76c-0.299,1.021,0.504,1.722,0.68,2.663   c-0.649-0.004-1.25-0.177-1.802-0.518c-0.15,0.86-0.811,1.426-0.094,2.234c0.724,0.821,1.215,1.19,0.86,2.358   c-0.372,1.225-1.422,1.523-0.374,2.474c0.899,0.812,1.688,1.78,2.697,2.46c1.008,0.678,6.027,5.18,3.268,6.021   c0.908,0.35,0.675,1.563,1.684,1.448c1.292-0.146,2.361,0.515,3.386,1.214c1.964,1.339,3.849,4.002,6.426,3.741   c1.125-0.114,3.957,4.79,4.708,5.71c1.509,1.844,0.721,3.178,0.272,5.348c-0.214,1.037-0.491,4.25,1.045,4.359   c0.54,0.039,1.592-0.523,2.014,0.015c0.545,0.69,0.306,2.267,0.449,3.106c0.354,2.083,1.664,2.778,2.949,3.995   c0.965,0.914,1.653,2.805,2.405,3.787c-0.773,0.059-5.479-0.96-5.583-1.804c0.636,1.499-2.485,0.176-3.517,0.131   c-1.492-0.065-2.941,0.407-3.616,1.844c-1.465,3.112-1.719,8.618-6.173,8.743c-3.405,0.096-7.228-0.546-10.652-0.804   c-4.411-0.333-6.906-3.11-10.092-5.854c-3.429-2.953-7.178-5.521-10.637-8.439c-3.311-2.795-6.63-5.774-10.655-7.511   c-4.038-1.739-7.356-4.19-11.082-6.479c-3.541-2.175-8.071-1.74-11.997-2.587c2.709-2.32-0.77-1.658-1.497-2.775   c-0.203-0.261-0.224-0.531-0.068-0.81c0.607-0.697,0.006-1.428-0.373-2.443C126.9,126.96,126.018,124.727,125.303,122.436   L125.303,122.436z" />
	<g
   id="ir">
		<path
   id="path4560"
   stroke="#FFFFFF"
   stroke-width="1.0003"
   d="M258.512,190.458c0.27-0.137,0.557-0.194,0.857-0.173    c-0.57-0.352-1.171-0.408-1.801-0.172C257.885,190.229,258.196,190.345,258.512,190.458z" />
		<path
   id="path4562"
   stroke="#FFFFFF"
   stroke-width="1.0003"
   d="M265.383,193.55c0.159-0.717-0.126-0.771-0.858-0.171    C264.811,193.436,265.097,193.494,265.383,193.55z" />
		<path
   id="path4564"
   stroke="#FFFFFF"
   stroke-width="1.0003"
   d="M280.842,188.999c-1.408,1.178-2.381,3.214-4.642,2.835    c-0.199,2.112,3-0.042,3.729-0.364c0.761-0.335,1.638-0.072,2.402-0.434c1.075-0.506,1.263-2.178,2.541-2.294    C283.438,187.337,282.317,189.665,280.842,188.999z" />
		<path
   id="path4606"
   stroke="#FFFFFF"
   stroke-width="1.0003"
   d="M163.01,60.599c2.316-0.876,3.364,0.322,3.339-2.81    c-0.013-1.557,1.179-1.031,2.273-0.267c1.027,0.72,1.566,1.927,2.488,2.766c0.891,0.81,1.908,1.464,2.796,2.276    c1.821,1.661,2.612,2.584,5.23,2.988c1.623,0.251,3.926,0.425,5.512-0.045c0.874-0.259,3.822-2.814,4.123-3.634    c0.347-0.945,1.65-1.148,2.366-1.763c0.829-0.712,1.548-1.56,2.453-2.184c2.364-1.629,4.479,0.854,5.923,2.585    c-3.153,1.188,1.12,3.838-0.642,4.239c-3.269,0.742,0.122,2.662,1.517,3.53c0.982,0.613,1.861,1.558,2.916,2.042    c0.426,0.194,1.712-0.057,1.843,0.21c1.311,2.664,1.117,7.054,4.066,8.6c2.507,1.317,5.489,0.698,8.024,1.782    c1.647,0.706,2.2,2.544,3.533,3.609c1.456,1.167,3.662,1.988,5.366,2.749c3.205,1.427,7.505,2.42,10.944,1.388    c4.133-1.237,9.323-3.239,13.702-2.558c-0.883,0.332-1.828,0.23-2.743,0.345c0.63,0.471,3.098,1.394,3.448,0.109    c0.306-1.124-1.393-3.943-1.73-5.092c2.042,0.088,3.588-0.373,5.518-0.931c2.293-0.664,0.796-1.415,1.789-2.942    c0.986-1.518,3.191-3.019,4.85-3.646c2.414-0.911,4.748,0.487,7.168-0.039c-0.833-1.367,0.917-1.991,1.986-1.698    c0.773,0.209,0.996-0.636,1.829-0.134c0.641,0.386,1.1,0.671,1.88,0.479c1.832-0.444,2.081-0.003,2.984,1.671    c0.861,1.594,3.642,1.665,5.244,1.954c1.784,0.321,2.861,1.954,4.743,2.104c2.096,0.165,3.759-0.183,5.804,0.581    c2.015,0.751,2.449,1.565,3.549,3.262c1.118,1.729,3.707,1.591,5.286,2.657c1.401,0.946,2.161,2.995,3.668,3.723    c1.655,0.797,4.837,0.174,6.648,0.174c0.668,0,0.624,2.759,0.709,3.198c0.141,0.735,0.709,1.264,0.832,2.027    c0.226,1.387-0.82,1.145,0.27,2.086c0.672,0.582,1.299,3.051,1.4,3.923c0.165,1.376-1.082,2.321-0.831,3.788    c0.34,1.998,1.029,6.281-1.948,6.62c0.268,0.376,1.292,1.218,1.205,1.719c-0.142,0.798-1.964,1.041-2.31,2.08    c-0.619,1.865,0.463,6.25,2.734,6.403c2.916,0.198,0.22,2.532-0.319,3.966c-0.979,2.609,2.51,6.558,3.245,9.021    c0.762,2.555-0.244,6.109,1.841,8.194c1.58,1.58,5.174,0.373,7.12,1.348c2.034,1.021,1.714,4.159,1.198,5.889    c-0.53,1.777-1.919,3.367-2.948,4.883c-0.819,1.209-2.891,3.244-2.994,4.746c-0.064,0.954,1.024,1.67,1.637,2.212    c1.252,1.104,2.282,2.485,3.215,3.863c1.877,2.774,3.028,5.995,6.275,7.433c1.104,0.489,2.263,0.852,3.35,1.384    c1.021,0.498,2.108,1.958,3.266,2.033c1.608,0.104,1.968,5.707,2.068,7.132c0.286,4.05,1.266,2.516,4.087,3.315    c1.313,0.372,0.626,3.124,0.529,4.531c-0.196,2.851-9.331,0.503-7.863,4.359c-0.863-0.192-2.251,0.48-2.981,0.875    c-1.47,0.789-0.549,2.674-0.884,3.936c-0.463,1.743-0.841,2.941-0.637,4.863c0.084,0.805,0.345,2.695-1.08,2.178    c0.662,2.248-4.24,0.239-5.016-0.002c-0.869-0.271-2.868-0.087-3.099-1.3c-0.32-1.675-2.267-0.675-1.418,0.101    c-0.385,0.072-4.75-0.058-5.113-0.351c-1.398-1.119-4.104-0.953-5.668-0.473c-1.316,0.407-2.271-0.324-3.29-1.048    c-1.357-0.967-2.479-0.378-3.949-0.773c-1.172-0.316-2.188,0.643-3.367,0.152c-1.083-0.45-1.35-1.987-2.577-0.603    c0.324-1.677-3.271-1.196-4.27-2.133c-2.101-1.965-2.719-6.321-3.197-9.021c-0.603-3.396-3.665-5.267-6.999-5.011    c-1.521,0.117-2.604,1.388-4.024,1.8c-1.185,0.344-2.696,0.576-2.013,1.952c0.438,0.884-2.644,0.488-2.852,0.539    c-1.533,0.371-2.126,1.966-3.438,2.619c-2.21,1.103-4.229-1.911-6.365-1.911c-2.628,0-4.1,0.515-5.727-1.9    c-0.813-1.205-2.624-1.598-3.854-2.275c-1.603-0.886-3.163-1.852-4.835-2.606c1.612-1.532-2.329-2.956-3.246-3.374    c-0.831-0.382-1.575-1.121-2.458-1.334c-1.238-0.3-2.899,0.19-3.934-0.588c-2.287-1.722-2.844-3.292-4.355-5.688    c-0.716-1.133-0.23-2.683-1.367-3.597c-0.775-0.625-1.997-0.971-2-2.171c1.413,0.137,1.207-1.104,0.157-1.338    c-0.699-0.155-2.455-0.02-1.743-1.27c0.921-1.616-1.782-3.383-2.624-4.23c-1.419-1.431-2.453-2.95-3.172-4.815    c-1.234-3.193-3.727,2.396-5.082,0.484c-0.911-1.279-2.278-0.368-2.883-1.578c-0.291-0.578-2.059-0.89-2.605-1.769    c0.891-0.059,1.779,0.289,2.659,0c-0.291-1.189-1.686-1.513-2.659-0.944c0.225,0.266,0.455,0.521,0.692,0.771    c-2.555-0.334,1.609,5.521-2.839,3.694c0.305,0.895-0.466,1.128-1.151,0.824c-0.961-0.421-1.004-1.531-1.345-2.389    c-0.702-1.768-3.19-1.913-3.485-4.101c-0.186-1.392,0.449-4.159-1.522-4.1c-3.1,0.098-2.134-4.15-1.714-6.259    c0.561-2.799-0.824-3.313-2.461-5.28c-1.664-2-1.346-3.151-4.048-3.664c-2.062-0.391-3.42-2.596-5.054-3.723    c-0.89-0.614-1.933-1.387-3.074-1.292c-1.91,0.158-0.766-0.918-2.162-1.456c3.058-0.933-2.961-5.69-3.934-6.521    c-0.712-0.606-1.335-1.331-2.031-1.959c-1.032-0.933-0.085-1.148,0.341-2.313c0.389-1.062,0.177-1.579-0.692-2.26    c-0.867-0.677-0.184-1.678-0.042-2.494c0.553,0.34,1.154,0.512,1.803,0.517c-0.143-0.761-0.517-1.469-0.598-2.242    c-0.144-1.34,1.339-1.122,1.444-2.114c0.152-1.448,0.209-1.038,1.424-1.03c1.143,0.006,1.012-1.033,0.628-1.689    c-0.641-1.105-2.194-2.163-1.801-3.631c0.339-1.268,2.271-0.941,2.598-2.346c-0.829,0.241-1.426-0.383-2.237-0.3    c-0.985,0.101-2.051,0.575-3.01,0.042c-1.453-0.804-1.688-1.98-3.604-1.546c1.312-3.027-3.592-3.901-3.395-5.926    c0.116-1.181,0.025-1.598-1.093-2.066c-0.287-0.122-1.748-3.917-1.746-4.439c0.002-1.825-1.049-1.095-1.844-2.342    c-0.81-1.271,0.195-2.901-1.454-3.721c-0.513-0.255-2.448-0.7-2.369-1.519c0.118-1.222,0.583-3.075,1.509-3.95    c-2.06-0.699-1.703-3.528-2.271-5.17c-0.25-0.725-1.633-1.154-1.267-2.073C165.118,63.139,163.667,61.375,163.01,60.599    L163.01,60.599z" />
	</g>
	<path
   id="sy"
   stroke="#FFFFFF"
   stroke-width="1.0003"
   d="M97.902,123.467c1.255-0.692,2.257-2.886,3.52-3.178   c-2.03-1.895,0.87-3.086,2.576-2.576c-1.499-1.82,1.226-1.871,1.52-3.661c0.17-1.021-0.674-3.021-1.746-3.209   c-1.263-0.221,0.212-2.509-1.444-1.584c-2.283,1.271-3.216-1.006-3.554-2.786c-0.287-1.509,0.853-4.322-0.522-5.449   c-1.101-0.903-1.027-2.942-1.069-4.264c-0.031-0.991,2.443,0.115,2.798,0.291c0.262,0.13,1.226-0.938,1.624-1.264   c0.877-0.711,0.073-1.897,0.242-2.812c0.842,0.203,1.735-0.038,2.577-0.085c-0.688-1.379-1.454-1.736-1.305-3.396   c0.055-0.606-0.165-2.371,0.682-2.583c0.637-0.159,1.667,0.586,2.174,0.853c1.368,0.721,1.185,1.069,2.593,0.851   c1.72-0.27,2.618-0.354,4.259-1.062c1.682-0.727,3.516-1.585,5.404-1.313c1.394,0.198,2.063,1.101,3.243,1.651   c1.343,0.63,4.026,0.647,5.458,0.362c3.647-0.726,6.519-2.228,9.851-3.756c3.283-1.507,6.989,0.434,10.544-0.785   c1.825-0.626,4.416-3.423,4.566,0.613c0.036,0.993-2.357,3.002-3.054,3.689c-1.264,1.252-2.672,1.163-4.096,1.998   c-3.053,1.793,0.146,5.675,0.386,7.816c0.142,1.268-0.625,2.822-0.715,4.132c-0.135,1.949,0.444,3.936,0.173,5.848   c-0.56,3.945-4.066,4.896-7.182,6.764c-3.953,2.371-7.412,3.954-11.162,7.362c-3.098,2.816-7.07,4.486-10.542,6.831   c-2.639,1.783-6.881,6.128-10.3,3.735c-1.244-0.87-2.399-1.248-3.423-2.421c-1.449-1.657-1.958-0.101-3.356-0.559   C97.781,129.243,99.094,124.028,97.902,123.467L97.902,123.467z" />
	<g
   id="om">
		<path
   id="path4692"
   stroke="#FFFFFF"
   stroke-width="1.0003"
   d="M311.762,258.74c0.801-0.71,1.077-1.657,1.462-2.612    c0.219-0.287,0.474-0.532,0.77-0.737c0.326-0.383-0.505-1.577-0.598-1.977C312.953,255.277,311.007,256.662,311.762,258.74z" />
		<g
   id="g7809">
			<path
   id="path4696"
   stroke="#FFFFFF"
   stroke-width="1.0003"
   d="M283.934,197.845c0.247-0.69,0.56-1.349,0.939-1.975     c0.812,0.907,1.593-0.327,1.206-1.117c0.697,0.377,2.097,2.747,0.348,2.318c1.124,0.78,0.302,5.568-0.939,5.349     C283.8,202.123,286.085,197.955,283.934,197.845z" />
			<path
   id="path4786"
   stroke="#FFFFFF"
   stroke-width="1.0003"
   d="M253.275,270.764c7.006-2.796,14.06-5.471,21.09-8.201     c2.636-1.024,5.347-1.065,5.688-4.179c0.435-3.976,1.632-7.992,2.454-11.909c0.561-2.677,2.117-6.006,0.578-8.539     c-1.107-1.821-3.355-3.382-4.056-5.395c-0.878-2.531,3.901-11.242,1.55-12.622c1.057-1.258,3.13-0.17,4.045-1.373     c1.006-1.32-0.612-0.88-0.942-1.546c-0.878-1.771-1.579-5.665-0.397-7.463c0.553-0.84,1.675,0.451,1.5,1.116     c-0.548,2.07,1.545-0.175,1.877-0.489c1.022-0.977,1.015-0.813,1.649,0.564c1.06,2.288,2.446,4.45,4.134,6.326     c2.669,2.965,6.402,4.029,10.202,4.792c1.779,0.356,3.291,1.059,5.103,1.262c2.422,0.271,3.745,3.22,5.132,4.865     c1.119,1.328,1.879,2.933,2.994,4.201c1.16,1.322,1.772,1.378,3.307,1.99c3.594,1.436-0.471,6.536-1.188,8.646     c-1.353,3.981-5.617,6.06-6.773,10.324c-0.274,1.008-0.646,3.919-2.24,3.439c-1.264-0.378-1.019-2.787-2.633-1.785     c-1.927,1.167-1.822,5.359-2.318,7.084c-0.648,2.253,0.085,4,0.682,6.183c0.484,1.784,0.791,3.134-1.377,3.199     c-3.482,0.104-7.314,1.132-8.174,4.886c-0.336,1.478-0.604,3.099-1.53,4.346c-1.153,1.552-3.452,1.467-5.275,1.604     c-2.21,0.166-3.095,0.524-4.392,2.267c-1.257,1.684-0.44,2.004-0.545,3.929c-0.084,1.531-1.647,2.641-2.881,3.241     c-0.594,0.287-1.19,0.674-1.798,0.195c-1.049-0.827-1.914-0.602-3.215-0.602c-3.769,0-6.636,3.494-10.436,3.387     c-2.461-0.068-1.787-5.933-4.43-6.221c1.121-1.17-1.612-5.28-2.168-6.312C256.545,278.383,254.55,274.648,253.275,270.764     L253.275,270.764z" />
		</g>
	</g>
	<path
   id="ge"
   fill="#CD3512"
   stroke="#FFFFFF"
   stroke-width="1.0003"
   d="M123.752,19.716c-0.183-4.075,9.465-0.246,11.329,0.419   c2.213,0.787,4.136,1.791,6.631,1.397c1.18-0.185,2.109-0.594,3.206,0.175c0.978,0.685,2.186-0.042,3.24,0.346   c0.807,0.295,1.317,1.175,2.041,1.618c0.877,0.537,1.906,0.753,2.879,1.045c0.818,0.245,1.703,0.514,2.393,1.037   c0.942,0.717-0.235,1.242,0.773,1.651c2.56,1.032,6.561-3.396,8.222,0.042c0.087-1.224,0.955-1.257,1.891-0.901   c0.495,0.019,0.968,0.129,1.42,0.329c0.448,0.404,0.817,1.226,1.413,1.431c0.965,0.334,2.918-0.632,3.407,0.794   c0.355,1.038-0.838,2.023,0.198,2.925c1.599,1.391,3.569,1.161,5.34,1.936c2.851,1.247-1.378,2.109-0.02,3.777   c0.831,1.019,4.639,2.637,4.592,3.961c-0.11,3.004-3.933-0.058-4.828,0.268c-2.394,0.873-3.926-2.016-6.171-2.457   c-0.901-0.176-1.593,0.216-2.262,0.768c-0.629,0.522-2.362,1.116-2.06,1.516c-1.465,0.102-2.929-0.19-4.397-0.098   c-1.533,0.098-2.827,0.788-4.417,0.782c-1.538-0.005-2.293,0.265-3.5-0.243c-0.507-0.213-2.498-0.359-1.692-1.302   c-1.347-0.44-2.279-2.444-3.864-2.147c0.762-1.701-1.795-0.798-2.199,0.212c-0.283,0.71-3.955-0.036-4.839-0.212   c-0.802,0.111-0.385,0.975-1.436,0.657c-1.101-0.332-2.239-0.411-1.67-1.645c0.851-1.853,1.535-3.023,0.205-4.902   c-1.267-1.788-1.436-4.106-2.671-5.915c-1.021-1.496-2.892-1.338-3.979-2.763c-1.017-1.334-3.16-1.522-4.647-1.737   C126.214,22.179,125.715,19.996,123.752,19.716L123.752,19.716z"
   style="fill:#000000;fill-opacity:1" />
	<g
   id="sa">
		<g
   id="g7791">
			<path
   id="path3234"
   stroke="#FFFFFF"
   stroke-width="1.0003"
   d="M165.934,295.927c-0.048-0.967-0.449-1.869-1.288-2.405     c-0.019,0.316-0.051,0.632-0.095,0.944c-1.119,0.044-1.521-1.138-2.481-1.459C163,294.555,165.396,294.523,165.934,295.927     L165.934,295.927z" />
			<path
   id="path3380"
   stroke="#FFFFFF"
   stroke-width="1.0003"
   d="M171.694,297.52c0.116-1.084-0.545-3.65-1.52-4.271     c-0.496-0.316-2.9-5.367-2.762-2.93c-0.222-4.365-3.248-5.487-5.655-8.442c-0.912-1.119-2.198-2.733-2.624-4.103     c-0.553-1.767-1.549-2.27-2.453-3.703c-0.53-0.844-0.079-1.578-0.689-2.442c-0.436-0.614-1.163-2.57-1.45-3.356     c-0.27-0.738-0.434-1.521-0.78-2.229c-0.317-0.652-0.982-0.744-1.302-1.318c-0.305-0.552-0.006-1.303-0.428-1.786     c-0.429-0.486-1.128-0.556-1.592-0.986c-1.166-1.085-2.515-2.182-3.544-3.389c-1.248-1.468-2.712-0.854-4.12-1.892     c-2.337-1.726-3.892-4.929-5.361-7.381c-0.855-1.428-0.609-2.245-0.68-3.752c-0.079-1.632-1.26-2.981-1.382-4.632     c-0.159-2.164,0.736-4.317,0.305-6.476c-0.196-0.982-0.733-1.813-1.26-2.644c-0.278-0.438-1.956-2.602-0.062-1.121     c-0.416-1.089-1.362-1.101-1.607-2.292c-0.221-1.065-0.744-2.229-1.16-3.235c-1.153-2.785-3.401-4.685-5.509-6.688     c-1.537-1.46-3.06-1.689-4.936-2.202c-0.799-0.219-1.181-1.74-1.416-2.389c-0.503-1.392-1.477-2.345-2.349-3.505     c3.019-1.101-1.186-6.055-2.171-7.252c-0.665-0.807-2.53-2.272-2.449-3.336c0.139-1.831-2.219-2.891-3.012-4.536     c-2.406-4.999-6.201-9.151-8.866-14.056c-0.813-1.494-1.719-3.797-3.51-4.301c-0.814-0.229-4.013-0.762-4.076,0.74     c-1.07-0.979,0.659-3.549,0.96-4.576c0.63-2.153,0.208-4.382,0.479-6.566c0.353-2.843,0.872-2.568,3.331-2.226     c2.055,0.288,4.783,1.501,6.834,1.227c4.132-0.556,4.01-6.811,7.837-7.413c1.435-0.229,4.325,0.081,4.803-1.8     c0.676-2.654,1.878-2.561,4.241-3.988c-0.863-1.775-2.049-2.584-2.914-3.557c-0.064-0.071-3.413-1.892-1.917-1.27     c-1.843-1.726-3.228-3.575-4.896-5.465l7.555-2.417c2.192-0.701,4.558-1.22,6.756-2.073c1.835-0.714,3.257-2.297,5.311-1.872     c3.213,0.665,6.573,0.803,9.605,2.157c11.461,5.124,20.892,13.301,30.781,20.827c2.095,1.595,4.133,3.177,6.089,4.935     c2.227,2,3.964,1.977,6.899,2.26c3.384,0.327,6.758,0.729,10.143,1.042c1.241,0.115,1.854-0.518,3.203-0.227     c1.821,0.392,3.711,0.614,5.566,0.782c1.965,0.177,2.121,2.462,2.748,3.908c0.929,2.149,4.06,0.792,5.837,0.948     c1.839,0.162,2.079,1.158,2.68,2.662c0.65,1.629,3.882,3.703,3.38,5.529c-0.166-0.288-0.369-0.545-0.609-0.772     c-0.551,1.31,0.77,1.16,0.609,2.315c0.022,0.018,5.525,0.525,3.423,2.144c0.807,0.255,2.518,4.384,3.34,2.058     c-0.548,2.071,4.422,4.396,5.571,5.655c-0.613-0.185-1.07-0.557-1.371-1.112c0.028,2.281,1.413,2.314,1.904,4.147     c0.287,1.073,0.172,3.339-1.39,1.938c0.142,1.218-0.251,1.46,0.855,1.685c0.171,0.033,1.622,3.179,1.722,3.544     c-0.323-0.276-0.637-0.563-0.944-0.856c0.951,1.395,2.648,2.178,3.399,3.721c0.763,1.561,0.994,2.992,1.911,4.508     c0.704,1.167,1.721,3.167,3.178,3.524c0.667,0.163,3.086-0.47,2.739,0.847c0.255-0.667,0.833-0.913,1.456-0.515     c-0.815,0.993-1.893,3.745,0.859,3.042c-0.181,0.048,1.75,2.994,1.902,3.213c1.214,1.719,2.562,3.344,3.856,5.004     c1.553,1.99,3.446,5.405,6.115,5.877c4.091,0.722,8.282,0.777,12.395,1.571c1.204,0.23,8.833,2.216,9.336,0.404     c1.48,2.124,2.965,4.25,4.445,6.375c1.188,1.702-0.442,5.317-0.818,7.104c-0.546,2.609-1.094,5.22-1.643,7.83     c-0.321,1.542-0.472,6.289-1.977,6.984c-3.806,1.761-7.997,2.982-11.913,4.507c-2.287,0.889-4.576,1.778-6.866,2.668     c-1.144,0.444-2.288,0.89-3.432,1.335c-0.785,0.307-3.685,0.925-3.169,1.763c-5.904,0.823-11.812,1.616-17.722,2.384     c-2.71,0.354-5.572,0.468-8.167,1.385c-2.297,0.813-4.352,2.163-6.452,3.37c-3.163,1.817-6.386,6.773-7.053,10.313     c-0.294,1.557-1.986,3.092-3.65,3.099c-1.738,0.007-2.091-2.31-3.401-3.031c-1.283-0.706-3.643,0.305-5.063,0.149     c-2.157-0.233-4.718-0.254-6.776-0.96c-2.418-0.829-4.078-1.021-6.651-1.021c-2.256,0-4.221,1.438-6.466,1.511     c-1.718,0.053-3.169-2.156-4.647-1.776c-1.949,0.499-2.118,3.141-2.228,4.755c-0.107,1.592,1.547,2.866-0.068,3.669     c-1.622,0.808-0.885,3.33-3.392,3.355C171.718,297.936,171.707,297.727,171.694,297.52L171.694,297.52z" />
			<path
   id="path5480"
   stroke="#FFFFFF"
   stroke-width="1.0003"
   d="M163.01,291.376c0.634,0.157,0.776,0.358,0.43,0.603     C163.296,291.777,163.152,291.577,163.01,291.376z" />
			<path
   id="path5482"
   stroke="#FFFFFF"
   stroke-width="1.0003"
   d="M163.439,291.979c0.261,0.368,0.316,0.77,0.167,1.201     c-0.314-0.088-0.6-0.229-0.859-0.429C162.978,292.493,163.209,292.235,163.439,291.979L163.439,291.979z" />
		</g>
		<path
   id="path5488"
   stroke="#FFFFFF"
   stroke-width="1.0003"
   d="M224.587,185.048c0.423-0.645,1.085-0.472,1.551,0    C225.622,185.145,225.104,185.145,224.587,185.048z" />
	</g>
	<g
   id="az"
   style="fill:#cd3512;fill-opacity:1">
		<path
   id="path5796"
   fill="#CD3512"
   stroke="#FFFFFF"
   stroke-width="1.0003"
   d="M168.51,40.931    c2.249-2.016,4.015-1.687,6.236,0.243c1.412,1.226,2.518,0.472,4.079,0.909c1.225,0.345,1.676,1.188,3.07,0.567    c2.611-1.163-1.978-2.86-2.598-3.677c-0.39-0.514-1.678-1.612-1.669-2.25c0-0.002,1.658-1.651,1.764-1.744    c1.437-1.259,4.243,1.768,4.975,2.613c0.619,0.713,1.517,0.415,1.875,1.143c0.505,1.028,1.147,2.151,2.268,2.521    c0.998,0.328,2.119,0.634,3.177,0.61c0.957-0.022,1.25-1.539,1.896-2.16c0.332-0.317,4.13-4.13,3.818-4.228    c1.84,0.596,3.172,2.553,4.181,4.085c1.445,2.195,2.64,4.155,4.456,6.093c0.29,0.108,0.575,0.223,0.861,0.342    c0.024,0.315,0.053,0.631,0.082,0.945c0.825,0.917,1.691,1.346,2.938,1.446c2.724,0.216,4.14,1.03,5.221,3.536    c-0.978-1.358-3.733-1.941-5.146-1.021c-2.025,1.32-2.098,2.256-2.493,4.465c-0.355,1.985-0.021,3.317,0.397,5.137    c0.149,0.647-0.808,1.322-0.874,2.089c-0.102,1.165,0.411,2.062-0.985,1.782c1.455-1.374-1.494-2.151-1.189-0.58    c0.428,2.198-0.201,4.103,0.581,6.42c-0.635,0.018-1.761,0.725-2.32,0.333c-0.808-0.564-1.296-1.458-2.121-2.046    c-0.51-0.364-4.382-2.146-3.353-3.107c0.371-0.344,2.106-0.739,2.037-1.358c-0.187-1.688-3.391-2.31-0.159-3.527    c-2.262-2.712-3.474-4.287-6.6-1.923c-1.41,1.065-3.662,1.98-4.308,3.741c-0.187,0.515-1.1,0.489-1.497,0.679    c-0.737,0.354-1.777,2.046-2.196,2.743c-0.549-0.688-1.422-3.509,0.084-3.694c-0.408-0.496-2.28-1.338-1.95-2.174    c0.144-0.364,1.04-0.605,0.484-1.071c-0.442-0.375-1.149-0.555-1.715-0.584c-2.522-0.135-4.212-3.099-6.531-3.985    c1.022-0.418,2.457,0.008,2.918-1.301c0.468-1.322-1.076-1.644-1.937-2.075c-1.409-0.7-5.46-3.753-2.174-4.783    c-0.782-2.126-3.235-2.145-4.821-3.351C171.545,43.208,168.583,41.55,168.51,40.931L168.51,40.931z"
   style="fill:#cd3512;fill-opacity:1" />
		<path
   id="path5798"
   fill="#CD3512"
   stroke="#FFFFFF"
   stroke-width="1.0003"
   d="M168.843,57.247    c1.379-0.301,3.694-0.963,3.531,1.289c1.02-0.595,1.722,0.824,2.853,0.473c0.574-0.177,2.213-0.579,2.657,0.058    c0.915,1.311-0.308,1.561,1.518,2.473c0.755,0.376,1.799,3.758,2.505,4.556c-2.811-0.99-5.337-1.098-7.732-3.058    C172.185,61.413,169.869,59.691,168.843,57.247L168.843,57.247z"
   style="fill:#cd3512;fill-opacity:1" />
	</g>
	<path
   id="am"
   fill="#B9BABE"
   stroke="#FFFFFF"
   stroke-width="1.0003"
   d="M155.709,42.819c1.259-0.559,3.207-0.169,4.615-0.512   c2.263-0.553,4.75-0.358,7.063-0.519c-0.46-0.376-0.317-0.575,0.429-0.598c0.583-0.483,0.907-0.354,0.97,0.385   c0.28,0.273,2.823,1.646,0.483,1.158c1.587,1.206,4.039,1.225,4.821,3.35c-3.083,0.967,0.35,3.717,1.69,4.518   c0.708,0.421,2.309,0.703,2.498,1.663c0.371,1.866-1.988,1.57-2.995,1.979c1.041,0.398,4.997,4.462,6.067,4.033   c0.544-0.217,3.098,0.588,2.131,1.168c-1.438,0.863,1.029,2.025,1.512,2.615c-1.507,0.185-0.632,3.007-0.083,3.694   c-1.494-0.482-2.794,0.893-3.771-0.694c-0.944-1.533-1.054-3.174-2.674-3.984c-0.759-0.38-0.107-2.009-0.992-2.352   c-0.83-0.322-1.37,0.177-2.068,0.504c-1.13,0.533-1.751-1.438-3.03-0.688c0.173-2.437-3.191-1.117-4.626-2.188   c-1.329-0.99-1.988-2.369-3.83-2.313c-1.9,0.058-3.493-0.217-5.203-1.083c0.845-0.569,0.157-1.215-0.294-1.741   c-0.844-0.986-0.015-2.232,0.583-3.211C160.601,45.395,155.766,44.895,155.709,42.819L155.709,42.819z"
   style="fill:#000000;fill-opacity:1" />
	<path
   id="il"
   stroke="#FFFFFF"
   stroke-width="1.0003"
   d="M87.764,144.768c0.415-0.568,2.674-3.295,1.633-3.95   c1.774-2.954,2.196-6.388,2.838-9.705c0.199-1.017,0.227-2.686,1.048-3.415c0.615-0.547-0.321-1.732,0.241-2.34   c0.518-0.556,1.771,0.006,2.368,0.08c1.414,0.175,1.227-1.286,1.665-2.142c1.643,0.671,0.739,7.516,0.429,9.275   c-0.863-0.068-1.611-1.039-2.453-1.377c-1.26-0.505-1.916,1.27-2.085,2.2c-0.208,1.146-1.027,5.162,0.738,5.071   c3.208-0.164-1.424,2.308-1.041,4.384c0.262,1.413,4.179-1.08,4.925-1.089c0.164,1.479-0.563,2.438-0.136,3.963   c0.479,1.721-1.106,3.816-1.581,5.397c-0.962,3.198,0.718,8.768-1.885,11.423c-1.379-2.78-1.272-6.126-3.078-8.725   c-0.757-1.091-0.899-2.475-1.403-3.675C89.237,148.356,88.401,146.766,87.764,144.768L87.764,144.768z" />
	<g
   id="_127554528">
		<path
   id="lb-"
   stroke="#FFFFFF"
   stroke-width="1.0003"
   d="M93.521,125.356c1.897-2.213,1.834-6.201,3.445-8.688    c0.798-1.23-0.137-2.895,0.779-4.081c0.714-0.924,2.667-1.944,2.039-3.378c0.735,0.155,1.849,0.469,2.554,0.049    c1.622-0.966,0.476,0.873,0.714,1.427c-0.03-0.073,1.068,0.337,1.183,0.447c0.817,0.787,0.356,0.612,0.975,1.745    c1.317,2.411-2.891,2.797-1.216,4.833c-1.704-0.509-4.606,0.684-2.575,2.577c-0.757,0.175-3.323,2.665-3.437,3.436    c-0.187-0.1-0.33-0.241-0.429-0.43c-0.282,0.555-0.191,1.286-0.602,1.778C96.219,125.954,94.462,125.384,93.521,125.356    L93.521,125.356z" />
	</g>
	<g
   id="kw">
		<g
   id="kw-">
			<path
   id="path5440"
   stroke="#FFFFFF"
   stroke-width="1.0003"
   d="M210.413,157.479c0.169,0.372-2.03,4.006,0.692,3.734     C213.459,160.98,211.062,158.276,210.413,157.479z" />
			<path
   id="path5486"
   stroke="#FFFFFF"
   stroke-width="1.0003"
   d="M196.933,166.496c2.996-2.287,2.369-9.131,6.032-9.873     c1.752-0.355,4.77-0.55,5.763,1.242c0.33,0.594,1.871,3.229,1.338,3.908c-1.135-1.594-2.75,1.106-3.352,1.89     c1.745-0.232,3.685,0.446,4.116,2.331c0.524,2.291,2.247,3.94,3.018,6.257c-1.519,0-5.309,0.79-6.576-0.046     c-1.153-0.761-1.067-2.608-1.717-3.698C204.138,166.129,199.245,166.755,196.933,166.496L196.933,166.496z" />
		</g>
	</g>
	<g
   id="qa">
		<path
   id="qa-"
   stroke="#FFFFFF"
   stroke-width="1.0003"
   d="M237.467,205.918c-0.052-0.465-0.725-3.323,0.597-1.976    c-0.075-0.464-0.379-3.032,0.441-0.858c0.066-2.167,0.837-7.885,3.821-4.73c0.749,0.789,2.185,1.346,2.192,2.587    c0.006,0.864-0.422,1.415-0.619,2.204c-0.172,0.686,0.247,1.575,0.313,2.259s0.792,0.695,0.984,1.288    c0.314,0.965,0.08,1.842-0.31,2.73c-0.675,1.543-0.454,2.67-2.145,3.176c-1.405,0.424-2.671,1.54-3.612-0.521    C238.271,210.193,237.913,207.927,237.467,205.918L237.467,205.918z" />
	</g>
	<g
   id="ps">
		<g
   id="ps-">
			<path
   id="path5472"
   stroke="#FFFFFF"
   stroke-width="1.0003"
   d="M87.249,143.564c0.828-0.816,1.598-1.716,2.148-2.748     c1.028,0.648-1.154,3.365-1.634,3.864C87.559,144.325,87.387,143.953,87.249,143.564z" />
			<path
   id="path5474"
   stroke="#FFFFFF"
   stroke-width="1.0003"
   d="M93.093,134.631c0.52-0.94,0.594-3.885,2.335-3.55     c0.607,0.117,2.296,1.134,2.545,1.713c0.748,1.73,0.536,4.184,0.442,6.013c-0.132,2.557-0.457,2.586-2.386,3.956     c-1.068,0.758-2.745,0.729-2.237-1.132c0.135-0.492,1.458-3.031,1.709-2.947c-0.521-0.178-2.135,0.391-2.182-0.57     C93.271,137.046,93.608,135.617,93.093,134.631L93.093,134.631z" />
		</g>
	</g>
	<g
   id="bh"
   style="fill:#000000">
		<path
   id="bh-"
   stroke="#FFFFFF"
   stroke-width="1.0003"
   d="M234.034,196.729c0.272,0.571,0.389,1.172,0.344,1.804    c-0.16,0.824,0.839,1.417,1.026,2.146C235.756,199.773,235.797,194.843,234.034,196.729z"
   style="fill:#000000" />
	</g>
	<g
   id="_127587560"
   style="fill:#000000">
		<path
   id="path3458"
   fill="#CD3512"
   stroke="#FFFFFF"
   stroke-width="1.0003"
   d="M10.542,59.559c0.121-0.889,0.23-5.286,0.893-5.538    c1.643-0.623,2.168-2.984,3.867-3.825c0.906-0.446,2.065,0.344,2.904-0.241c1.052-0.729,1.507-0.173,2.429,0.375    c1.324,0.788,5.604,0.453,2.889-1.164c0.861-0.349,1.795-0.304,2.68-0.086c-0.438,0.158-0.653,0.437-0.644,0.836    c0.507,0.705,3.08,0.289,3.735,0.229c2.015-0.182,4.921,0.985,6.606-0.464c-0.805-0.781-1.843-0.096-2.69-0.771    c1.086-2.748,6.066-1.712,8.316-2.232c-1.941-0.949-4.714-0.152-6.343-1.81c-1.829-1.86,0.012-3.404,1.971-3.221    c2.152,0.202,4.299,1.195,6.487,0.722c2.92-0.629,5.292,0.951,8.269,0.658c1.375-0.133,1.578-0.835,2.088-1.901    c0.563-1.174,2.663-1.688,3.73-2.31c3.083-1.794,5.54-3.371,9.027-4.307c3.638-0.977,6.426-0.456,10.118-0.456    c1.49,0,3.069,0.61,4.544,0.171c0.68-0.202,0.907-1.01,1.562-1.201c0.668-0.196,1.247,0.199,1.899,0.258    c-1.103,1.32,0.788,3.115,1.99,3.478c0.914,0.275,1.858,0.504,2.819,0.379c2-0.259,2.98-1.281,3.831,1.292    c0.275,0.837,2.579,3.669,3.484,2.707c1.193-1.272,2.469-0.992,3.751,0.027c1.563,1.243,3.485,1.466,5.233,2.333    c0.982,0.493,1.152-1.526,2.503-0.053c1.085,1.184,3.193,1.154,4.682,1.302c2.069,0.208,4.187-1.212,6.263-1.415    c1.774-0.173,2.747-0.406,4.444,0.197c2.379,0.847,4.145,1.423,6.592,0.286c2.938-1.366,5.626-2.923,8.137-4.927    c1.004-0.803,1.937,0.555,2.953,0.576c0.621,0.014,0.571-0.83,1.298-0.686c0.472,0.093,0.942,0.198,1.413,0.294    c0.684,0.139,2.627,0.9,3.043-0.013c0.51-1.119,2.964-2.051,2.204-0.367c0.774-0.144,1.447,0.349,1.998,0.806    c0.397,0.359,0.812,0.697,1.242,1.012c0.697,0.085,0.856,0.405,0.478,0.96c0.32,0.961,1.631,0.026,2.166,0.811    c0.347,0.512,0.571,2.029,1.085,2.44c1.638,1.315,2.978,2.626,2.037,3.968c-0.926,1.325,1.573,3.294,0.26,4.172    c2.108,1.055,3.185,0.814,5.392,0.896c1.886,0.068,4.533,2.555,5.243,4.17c-1.025-0.839-2.589-2.057-3.022,0    c-0.133,0.634,0.032,1.302-0.163,1.935c-0.256,0.817-2.438,0.384-3.126,0.643c0.507,0.594,1.52,2.125,1.715,2.87    c0.326,1.244,0.881,1.892,1.325,3.043c0.652,1.696,0.058,4.172,2.238,4.907c-0.739,0.692-1.171,2.082-1.404,3.032    c-0.467,1.905,1.522,1.627,2.533,2.55c1.017,0.927,0.813,2.148,1.135,3.358c0.163,0.607,1.244,0.875,1.667,1.248    c0.469,0.414,0.055,1.393,0.313,1.917c-2.016-1.41-2.849,2.097-4.005,1.718c-1.498-0.49-0.273-2.447-1.369-3.177    c-0.548-0.364-1.458-0.331-1.955,0.114c-0.896,0.801-2.212,0.614-3.268,0.284c-1.722-0.536-3.049-1.102-4.87-1.074    c-1.293,0.019-2.103-0.337-2.778,0.79c-0.818,1.364-2.454,2.59-3.015,0.555c-0.485-1.771-2.742,0.361-3.729,0.681    c-2.537,0.814-4.665,0.79-7.241,0.452c-4.626-0.604-8.623,4.015-13.305,4.339c-1.87,0.129-5.244,0.587-6.813-0.593    c-1.712-1.285-2.785-2.023-4.9-1.005c-2.257,1.088-7.171,3.652-9.115,1.264c-0.974-1.199-3.046-1.616-3.342,0.271    c-0.293,1.856,0.361,3.154,1.159,4.744c-0.849,0.047-1.748,0.287-2.597,0.085c-0.138,0.734,0.358,1.51,0.097,2.231    c-0.307,0.855-1.452,1.036-1.729,1.975c-0.651-0.432-1.307-0.921-2.08-1.117c0.744-0.961-0.282-2.213-0.867-2.932    c-1.094-1.346,0.088-2.136,1.216-3.106c1.159-0.998,1.909-1.703,0.782-3.214c-0.452-0.604-1.397-1.349-2.04-0.521    c-0.89,1.142-1.79,0.961-2.903,1.787c1.844-0.186-0.047,1.654-1.414,1.406c-1.696-0.307-3.207-1.298-4.724-2.051    c-3.614-1.798-5.49,3.477-7.191,5.626c-0.259-0.288-0.519-0.574-0.781-0.857c-0.652,0.679-1.081,1.885-2.14,1.488    c-0.917-0.347-3.514,0.288-4.378,0.717c-1.573,0.78-3.416,0.663-4.95-0.009c-2.353-1.031-3.198-3.621-5.438-4.708    c-2.461-1.197-4.948-2.561-7.66-3.039c-1.427-0.252-4.34-0.822-4.34,1.428c0,1.291,0.241,3.64-0.709,4.672    c-0.52,0.563-1.208-0.479-1.7-0.547c-1.254-0.171-2.548,1.305-3.79,1.512c-1.43,0.238-3.606-0.678-4.787-1.43    c-0.896-0.569-0.937-2.435-2.165-2.49c0.956-1.336-1.268-2.787-1.549-1.028c-0.928-0.805-3.271-1.106-3.557-2.493    c-0.218,1.003-2.655,2.653-3.461,3.266c0.285-0.602,0.084-0.972-0.603-1.117c0.683-0.146,1.116-0.686,1.12-1.374    c-0.878,0.731-5.008,1.605-6.142,1.287c0.901-1.092,2.581-1.157,3.876-1.123c1.312,0.032,1.175,0.377,1.709-0.629    c0.373-0.699,1.182-1.019,1.688-1.597c-1.596-0.708-7.08-0.8-8.389,0.516c-1.979-2.307,1.783-1.088,2.067-1.684    c0.234-0.495,0.202-1.188-0.078-1.656c-0.663-1.102-1.397,0.428-1.037-1.299c-1.909,2.421-1.77-2.565-3.547-2.488    c1.233-0.665,2.639-1.307,1.582-2.967c-0.762-1.195-2.935-0.576-3.459-1.467c-0.541-0.921-1.091-2.209-1.905-0.599    c-0.359,0.715-2.925-1.206-2.972-1.839c2.579,0.613,0.347-2.097,0.44-3.154c0.077-0.874,1.465-0.236,1.729,0.194    c0.547,0.889,0.361,2.348,1.208,3.047c-0.188-1.904,2.8,0.478,3.631-1.46c-1.722-0.21-2.422-1.039-3.462-2.318    c0.9-0.495,1.364-1.575,2.428-1.803c-0.471-1.394-1.926,0.052-1.792-1.524c0.132-1.567-0.702-1.77-1.851-2.77    c0.767-0.875,1.649-1.643,2.345-2.576c-2.466-1.247-4.795,1.324-7.275,0.518L10.542,59.559L10.542,59.559z"
   style="fill:#000000" />
	</g>
	<g
   id="_127554416"
   style="fill:#000000">
		<path
   id="cy-"
   fill="#CD3512"
   stroke="#FFFFFF"
   stroke-width="1.0003"
   d="M66.833,105.585c-0.117-0.313-0.231-0.63-0.35-0.944    c1.183,1.155,2.923-1.044,4.275-0.952c2.076,0.14,0.516-1.933,2.444-1.888c2.07,0.051,3.91,0.416,5.985-0.139    c2.333-0.622,4.419-3.029,6.861-3.033c-1.546,0.966-2.934,3.226-4.653,3.76c-1.879,0.586,0.002,2.372,0.748,3.194    c-0.803,0.099-2.628-0.06-3.244,0.49c-0.684,0.614-0.917,1.482-1.856,1.806c-0.822,0.28-4.059,0.625-3.553,2.085    c-2.712-1.358-5.379-0.957-6.66-4.379H66.833L66.833,105.585z"
   style="fill:#000000" />
	</g>
</g>
</svg>