<?xml version="1.0" encoding="utf-8"?>
<!-- Generator: Adobe Illustrator 27.5.0, SVG Export Plug-In . SVG Version: 6.00 Build 0)  -->
<svg version="1.1"
	 id="svg2" xmlns:mapsvg="http://mapsvg.com" xmlns:svg="http://www.w3.org/2000/svg" xmlns:dc="http://purl.org/dc/elements/1.1/" xmlns:rdf="http://www.w3.org/1999/02/22-rdf-syntax-ns#" xmlns:cc="http://creativecommons.org/ns#"
	 xmlns="http://www.w3.org/2000/svg" xmlns:xlink="http://www.w3.org/1999/xlink" x="0px" y="0px" viewBox="0 0 111 132.5"
	 style="enable-background:new 0 0 111 132.5;" xml:space="preserve">
<style type="text/css">
	.st0{fill:#FFFFFF;stroke:#000000;stroke-width:0.25;stroke-miterlimit:10;}
</style>
<path id="BI" class="st0" d="M28.8,59.6L28.8,59.6l-0.3,0.6l-0.1,0.1l0,0l0.1,0.1l-0.1,0.2l0,0v0.2v0.1l0.1,0.1l0.2,0.1h0.2l0.3,0.1
	h0.2v0.1v0.2v0.1v0.2L29.3,62L29,62.1l-0.2,0.1v0.1v0.1v0.1l-0.3,0.2L28.2,63l-0.1,0.2L28,63.4l-0.1,0.1l-0.2,0.2l-0.2,0.4l-0.1,0.3
	L26.8,65l-0.5,0.3l-0.1,0.1h-0.9L25.2,65l-0.1-0.6l-0.3-0.5v-0.2v-0.4v-0.6v-0.3v-0.2v-0.4v-0.2l-0.2-0.3L24.4,61l-0.1-0.1v-0.1
	v-0.1v-0.2l0.1-0.2h0.1l0.3,0.1l0.3,0.1l0.1,0.3h0.1h0.2H26h0.1l0.2-0.1l0.2-0.1l0.1-0.1l0.1-0.3l0.1-0.6h0.1l0.3,0.2h0.1h0.1
	l0.1-0.1l0.1-0.1h0.1l0.4-0.1l0.2,0.2L28.8,59.6L28.8,59.6z"/>
<path id="DJ" class="st0" d="M64.3,20.4l-0.2,0.4l-0.3,0.5l-0.4,0.6h-0.2h-0.3l-0.1-0.1l-0.2-0.1h-0.3L62,21.8l-0.4,0.1h-0.4
	L60.9,22l-0.3,0.1h-0.2L60.2,22v-0.6v-0.6v-0.5l0.1-0.3l0.1-0.1l0.4-0.4l0.1-0.2l0.4-0.6l0.4-0.5l0.3-0.4l0.1-0.1l0.1-0.1h0.1
	l0.6,0.4H63l0.2-0.1l0.2-0.4l0.1-0.2l0,0l0.3-0.1l0.3-0.1v0.1l0.6,0.6l0.2,0.3l0.2,0.5L65,18.9l-0.1,0.2l-0.2,0.2L64,19.7L63.2,20
	l-0.4,0.5h-0.3l0.1,0.2h0.1h0.2l0.4-0.1l0.3-0.1H64l0.3,0.1L64.3,20.4z"/>
<path id="ER" class="st0" d="M64,16.9L63.7,17l-0.3,0.1l0,0l-0.1,0.2l-0.2,0.4l-0.2,0.1h-0.1l-0.5-0.4h-0.1l-0.1,0.1L62,17.6
	l-0.2-0.3L61.6,17l-0.3-0.3l-0.2-0.1l-0.3-0.2L60.5,16l-0.3-0.5l-0.4-0.4l-0.7-0.5l-0.7-0.7l-0.5-0.7l-0.3-0.4l-0.1-0.1l-0.7-0.2
	l-0.5-0.3l-0.4-0.3l-0.2-0.1h-0.2L55,11.9l-0.4-0.2h-0.2h-0.3l-0.2-0.1l-0.2,0.1l-0.5,0.1H53l-0.1-0.1l-0.1-0.1l-0.2-0.1h-0.1
	l-0.1,0.1l-0.5,0.3L51,12.1h-0.2L50.6,12l-0.4-0.5l-0.1-0.1H50l-0.2-0.1l-0.2-0.1L49.4,11l-0.2-0.1L49,11.3L48.7,12l-0.2,0.4
	l-0.2,0.5h-0.1h-0.1l-0.4-0.6l-0.3-0.2h-0.2l-0.1,0.1L47,12.4l-0.1,0.1l-0.1,0.1h-0.2l-0.4-0.1h-0.4l-0.4,0.1h-0.1l-0.1-0.8
	l-0.1-0.6L45,10.6L44.9,10l0.3-0.3l0.1-0.3l0.3-1.1l0.1-0.2l0.2-0.6V7.3l0.2-0.7V6.1L46,5.6l0.1-0.3l0.1-0.2V4.9l0.1-0.5V4.3h0.1
	l0.3,0.1h0.2h0.3h0.2l0.1-0.1l0.2-0.5l0.1-0.1h0.1l0.2-0.1l0.2-0.2l0.2-0.1h0.1h0.2L49,3.2l0.1-0.1L49.3,3h0.2l0.1-0.1h0.1h0.1
	l0.1-0.1V2.7L50,2.6l0.2-0.1l0.1-0.1V2.3V2.2l0.1-0.1l0.3-0.3l0.2-0.2l0.8,1.7l0.3,1l0.3,1l0.2,1.6l0.2,0.8L53,8.1l0.2,0.7h0.2
	L53.5,9l0.3,0.7L54,10l0.1-0.2V9.7L54,9.5l0.1-0.3L54.2,9l0.3,0.2l0.2,0.2v0.3l0.1,0.2l0.3,0.4l0.3,0.1h0.4l0.3,0.1l0.2,0.1l0.5,0.4
	l1.1,0.4l0.9,1.1l0.5,0.8l1.6,1.1l0.3,0.5l0.1,0.5h0.3l0.6,0.6l0.2,0.4l0.5,0.2l0.1-0.3l0.2,0.2L64,16.9L64,16.9z M55.5,7.2l0.1,0.3
	l-0.3-0.1V7.3L55.5,7.2L55.5,7.2L55.5,7.2L55.5,7.2z M55.7,8.3l0.1,0.2h0.1L56,8.4V8.3l0.4,0.2v0.1h-0.3l-0.3-0.1h-0.3l-0.3-0.1
	l-0.1-0.2l0.2,0.1h0.1l0,0l-0.2-0.2H55V8l0.1-0.1l0.1-0.1l-0.1-0.2h0.2l0.2,0.1l0.1,0.1L55.7,8.3L55.7,8.3z"/>
<path id="ET" class="st0" d="M50.3,11.4h0.2l1-0.2l0.5-0.3l0.1-0.1h0.1l0.2,0.1v0.2l0.1,0.2h0.2l0.5-0.1l0.2-0.1l0.2,0.1h0.3h0.2
	l0.4,0.2l0.5-0.1h0.2l0.2,0.1l0.4,0.3l0.5,0.3l0.8,0.2l0.1,0.1l0.3,0.4l0.5,0.7l0.8,0.7l0.8,0.5L60,15l0.3,0.5l0.3,0.4l0.3,0.2
	l0.2,0.1l0.8,0.5l0.2,0.3l0.2,0.3L62,17.7l-0.4,0.5l-0.4,0.6L61.1,19l-0.4,0.4l-0.1,0.1l-0.1,0.3v0.5v0.6v0.8l0.2,0.1h0.2l0.3-0.1
	l0.3-0.1h0.4l0.4-0.1l0.3-0.1h0.3l0.2,0.1l0.1,0.1h0.2h0.2v0.1l-0.1,0.2l-0.1,0.2l-0.1,0.2L63,22.8v0.1V23l0.2,0.2l0.2,0.3l0.1,0.3
	l0.1,0.2l0.2,0.2l0.3,0.4l0.2,0.2l0.3,0.1l0.1,0.3l0.2,0.5l0.3,0.4l0.2,0.3l0.3,0.1h0.1l0.7,0.5l0.4,0.4l0.1,0.1l0.9,0.3l1,0.3
	l0.8,0.2l1,0.2l1,0.3l1,0.3l1.3,0.4l1.1,0.3l0.9,0.3l0.2,0.1h1h1h1.1l-0.8,0.7l-0.9,0.8l-0.9,0.8L76.2,33l-0.9,0.8l-0.8,0.7
	l-0.8,0.7L73,35.9l-0.9,0.9l-0.5,0.6l-1,0.9l-0.5,0.6H70h-0.9h-0.9l-1.1-0.1H67l-0.3,0.1L66.5,39l-0.8,0.2h0.2l-0.7,0.3l-0.7,0.3
	L64.2,40L64,40.3l-0.1,0.2l-0.1,0.1l-0.2,0.1l-1.3,0.2h-0.4l-0.7,0.2l-0.3,0.3l-0.1,0.2h-0.4h-0.8h-0.3h-0.1h-0.3l-0.2-0.1l-0.1-0.1
	l-0.2-0.2L58,40.8l-0.3-0.2l-0.8,0.3l-0.7,0.3l-0.9,0.4l-0.5,0.3l-0.1,0.3l-0.4,0.5l-0.4,1h-0.1l-0.9-0.1l-0.3-0.1l-0.4-0.1
	l-0.7-0.1l-0.4-0.1h-0.4H50l-0.4-0.1l-0.4-0.3l-0.5-0.3l-0.5-0.3l-0.5-0.4L47,41.4L46.2,41h-0.3h-0.1h-0.9H44h-0.5l-0.2-0.1
	l-0.1-0.1L43,40.5l-0.2-0.2L42.6,40v-0.4l0.1-0.4l0.1-0.1V39v-0.2l-0.1-0.2l-0.9-0.2h-0.1l-0.1,0.1l-0.1,0.1l-0.1-0.1l-0.1-0.1v-0.1
	v-0.1v-0.1l-0.2-0.2l-0.2-0.3l-0.1-0.3l-0.1-0.2l-0.1-0.5l-0.2-0.3l-0.2-0.4L40,35.1l-0.1-0.3l-0.2-0.2l-0.2-0.2l-0.2-0.3l-0.7-0.3
	l-0.2-0.2L38,33.2L37.9,33v-0.2l-0.1-0.2l-0.2-0.2l-0.8-0.5l-0.2-0.1h-0.2h-0.3l-0.5-0.1l-0.4-0.2L35,31.4v-0.1v-0.1l0.1-0.3
	l0.3-0.6l0.2-0.4l0.1-0.1h0.4h0.4h0.3h0.4h0.5l0.2-0.1l0.1-0.2l0.1-0.1v-0.3v-0.2v-0.8v-0.5V27v-0.1v-0.1l0.1-0.6l0.1-0.4l0.1-0.2
	l0.3-0.6l0.1-0.2v-0.2l-0.1-0.8l0.2-0.4l0.2-0.4l0.2-0.2l0.2-0.1h0.1l0.2,0.2l0.3,0.2h0.1l0.2-0.1l0.1-0.2v-0.3l0.1-0.6v-0.3
	l0.1-0.4l0.1-0.6l0.1-0.4L41,20l0.4-0.4l0.3-0.6l0.2-0.4l0.4-0.7l0.2-0.2l0.4-1l0.3-0.1l0.5-0.1l0.3-0.1v-0.1v-0.1v-0.3l0.1-0.5
	l0.1-0.5l0.2-0.4l0.1-0.2l0.1-0.2l0.3-0.4l0.2-0.6v-0.4l0.2-0.8h0.1l0.4-0.1h0.4l0.4,0.1h0.2l0.1-0.1l0.1-0.1l0.1-0.2l0.1-0.1h0.2
	l0.3,0.2l0.4,0.6h0.1h0.1l0.2-0.5l0.2-0.4l0.3-0.7l0.2-0.4l0.2,0.1l0.2,0.2l0.2,0.1l0.2,0.1h0.1l0.1,0.1l0.4,0.5L50.3,11.4z"/>
<path id="GI" class="st0" d="M-71.9-56.1L-71.9-56.1L-71.9-56.1v0.2l0,0l0,0V-56.1L-71.9-56.1L-71.9-56.1L-71.9-56.1z"/>
<path id="GO" class="st0" d="M75.8,85.5L75.8,85.5L75.8,85.5L75.8,85.5L75.8,85.5L75.8,85.5z"/>
<path id="JU" class="st0" d="M63,101.4L63,101.4L63,101.4L63,101.4L63,101.4L63,101.4L63,101.4z"/>
<path id="KE" class="st0" d="M60.6,40.9l-0.3,0.5L59.9,42l-0.8,1.1l-0.6,0.6l-0.4,0.4v0.1v0.5v1.2v2.4v2.4v2.4v1.2v0.4l0.4,0.5
	l0.4,0.5l0.5,0.6l0.3,0.3v0.1v0.2l-0.4,0.5L59,57.6l-0.5,0.1h-0.1l-0.2-0.1l-0.1,0.1L58,57.9h-0.1l-0.1-0.1v0.3v0.2l-0.1,0.2
	l-0.2,0.2v0.2L57,59.3h-0.7l-0.4,0.2l-0.2,0.2l-0.1,0.4v0.6l-0.2,0.4v0.2l-0.3,0.3l-0.2,0.3l-0.1,0.3l-0.1,0.1l-0.1,0.6l-0.2,0.4
	v0.1v0.1l-0.1,0.2l-0.1,0.1l-0.1,0.1l-0.4,0.9l-0.3,0.4h-0.5l-0.2,0.2v0.1h-0.1l-0.2-0.2L52,65l-0.4-0.3l-0.4-0.3l-0.4-0.3l-0.4-0.3
	L50,63.5l-0.4-0.3l-0.4-0.3l-0.3-0.2l-0.1-0.1l-0.1-0.2v-0.1l-0.1-0.1h-0.1l0,0v-0.1V62l0.2-0.3v-0.2v-0.2V61v-0.1l-0.3-0.2
	l-0.6-0.3l-0.6-0.3l-0.6-0.3L46,59.5l-0.6-0.3l-0.6-0.3l-0.6-0.3l-0.6-0.3L43,58l-0.6-0.3l-0.6-0.3l-0.6-0.3l-0.6-0.3L40,56.5
	l-0.6-0.3l-0.6-0.3l-0.2-0.1l-0.2-0.1h-0.2v-0.5l0.1-1.2v-1.1l0.1-0.5l0.3-0.3l0.1-0.2l0.1-0.3l0.1-0.3l0.3-0.2l0.1-0.1l0.3-0.4
	l0.2-0.5l0.1-0.2l0.2-0.2l0.1-0.1l0.2-0.1h0.2l0,0v-0.1l-0.1-0.3l0.1-0.1l0.1-0.2l0.1-0.2l0.1-0.1l0.1-0.1v-0.2V48v-0.2v-0.6
	L41,46.7l-0.1-0.5L41,46l-0.1-0.3h-0.1l-0.1-0.1l-0.1-0.3L40.5,45l-0.1-0.1L40,44.7l-0.2-0.5l-0.2-0.1l-0.1-0.5v-0.2l0.1-0.5v-0.1
	l-0.1-0.1l-0.4-0.1l-0.3-0.2v-0.1v-0.1l-0.2-0.1l-0.4-0.9l0.6-0.6l0.6-0.6l0.7-0.7l0.7-0.7l0.6-0.6l0.5-0.5v0.1v0.1l0.1,0.1l0.1,0.1
	l0.1-0.1l0.1-0.1h0.1l0.8,0.2l0.1,0.2v0.2v0.1l-0.1,0.1l-0.1,0.4v0.4l0.2,0.3l0.2,0.2l0.2,0.3l0.1,0.1l0.2,0.1h0.5h0.8h0.8h0.1h0.2
	l0.7,0.4l0.6,0.4l0.5,0.4l0.5,0.3l0.5,0.3l0.4,0.3l0.4,0.1h0.6H51l0.4,0.1l0.6,0.1l0.4,0.1l0.3,0.1l0.8,0.1h0.1l0.3-0.3l0.4-0.5
	l0.1-0.3l0.5-0.3l0.8-0.4l0.6-0.3l0.7-0.3l0.3,0.2l0.4,0.4l0.2,0.2l0.1,0.1l0.2,0.1h0.3h0.1h0.3h0.7L60.6,40.9L60.6,40.9z M58,58
	h-0.1l0.1-0.2l0.3-0.2h0.1l0,0l0,0h-0.1L58,58L58,58z"/>
<path id="KI" d="M471.5,60.6L471.5,60.6l0.2,0.1v0.1l0,0h-0.1h-0.1l0,0l0,0l0,0h0.1h0.1l0,0l0,0l-0.1-0.1L471.5,60.6L471.5,60.6
	L471.5,60.6L471.5,60.6L471.5,60.6L471.5,60.6L471.5,60.6L471.5,60.6L471.5,60.6L471.5,60.6z M473.2,61.6L473.2,61.6L473.2,61.6
	L473.2,61.6L473.2,61.6L473.2,61.6L473.2,61.6L473.2,61.6z M472.8,65.4L472.8,65.4L472.8,65.4L472.8,65.4L472.8,65.4L472.8,65.4
	L472.8,65.4L472.8,65.4L472.8,65.4L472.8,65.4z M470,65.5L470,65.5L470,65.5L470,65.5L470,65.5L470,65.5L470,65.5L470,65.5L470,65.5
	L470,65.5L470,65.5L470,65.5L470,65.5L470,65.5L470,65.5z M463.6,66L463.6,66L463.6,66L463.6,66L463.6,66L463.6,66L463.6,66
	L463.6,66L463.6,66L463.6,66L463.6,66L463.6,66L463.6,66L463.6,66L463.6,66z M-504.2,41.9l0.2,0.2v0.1h-0.2h-0.1h0.1l0,0l-0.1-0.1
	h-0.1h-0.1v0.1l-0.1-0.1l0.1-0.1L-504.2,41.9L-504.2,41.9L-504.2,41.9z M428.5,44.1l-0.2,0.1h-0.1L428.5,44.1L428.5,44.1L428.5,44.1
	L428.5,44.1z M428.1,44.3l-0.2,0.1l-0.1-0.1h0.1H428.1L428.1,44.3L428.1,44.3L428.1,44.3z M-498.6,47.7l0.5,0.3h-0.2l-0.5-0.2
	l-0.4-0.3l0.1-0.1l0.1,0.1l0.2,0.1l0.1-0.2l0.1-0.1l-0.4-0.2h0.1l0.3,0.2L-498.6,47.7L-498.6,47.7z M428.6,47.7L428.6,47.7
	L428.6,47.7l-0.2-0.2l0,0l0,0L428.6,47.7L428.6,47.7L428.6,47.7L428.6,47.7z M428.6,48L428.6,48L428.6,48L428.6,48v-0.3l0,0v0.1V48
	L428.6,48L428.6,48z M428.6,49.1L428.6,49.1L428.6,49.1l0.3-0.1l0,0h0.1l0,0l0,0h-0.2L428.6,49.1L428.6,49.1L428.6,49.1z M428.6,50
	l0.2,0.1v0.1l-0.1,0.1l-0.2,0.2h-0.1l0.2-0.2l0.1-0.1L428.6,50L428.6,50L428.6,50L428.6,50L428.6,50L428.6,50L428.6,50z M432.8,55.1
	L432.8,55.1L432.8,55.1L432.8,55.1l-0.2-0.4h-0.1l-0.1-0.1l0,0l0.1,0.1h0.1l0.1,0.2L432.8,55.1L432.8,55.1z M418.9,55.3L418.9,55.3
	L418.9,55.3L418.9,55.3L418.9,55.3L418.9,55.3L418.9,55.3z M433.5,56.3L433.5,56.3L433.5,56.3L433.5,56.3L433.5,56.3l-0.2-0.2h0.1
	L433.5,56.3L433.5,56.3L433.5,56.3z M-491.9,64.3L-491.9,64.3L-491.9,64.3h-0.1h-0.1l0,0h0.1H-491.9L-491.9,64.3L-491.9,64.3
	L-491.9,64.3z M-494.4,68.6L-494.4,68.6h-0.1l0,0l0,0l0,0l0,0H-494.4L-494.4,68.6L-494.4,68.6L-494.4,68.6z M-483,85.1L-483,85.1
	L-483,85.1L-483,85.1l-0.1-0.1v-0.1l0,0L-483,85.1L-483,85.1L-483,85.1z"/>
<path id="KM" class="st0" d="M65,86.5L65,86.5l-0.3-0.1h-0.1l-0.2-0.3l0.1-0.9l0.1-0.1h0.1h0.1l0.1,0.1v0.6l0.2,0.4l0.1,0.3H65
	L65,86.5z M67.8,87l0.1,0.4v0.3l-0.1,0.1l-0.1-0.1l-0.2-0.2l-0.4-0.2h0.2h0.1h0.1l0.1-0.1v-0.1L67.8,87L67.8,87L67.8,87z M65.9,87.6
	l0.2,0.2l-0.5-0.1l-0.1-0.2v-0.1h0.2L65.9,87.6L65.9,87.6z"/>
<path id="MG" class="st0" d="M82,88l0.1,0.3l0.1,0.3l0.5,0.7l0.2,0.3l0.2,0.3l0.1,0.6l0.3,0.9l0.3,1.3l0.1,1.4l0.1,0.6l0.2,0.6
	l0.4,0.6l0.1,0.7l-0.2,0.7L84.2,98l-0.1,0.1L84,98.3h-0.1l-0.3-0.2l-0.2-0.3l-0.3-0.7L83,96.8l-0.1-0.1h-0.3l-0.2,0.2V97v0.4
	l0.1,0.3V98v0.4l0.1,0.1l0.1,0.1l0.1,0.3v0.7l-0.1,0.3l-0.2,0.3v0.2l0.1,0.2l-0.1,0.1l-0.3,0.1l-0.1,0.1l-0.2,0.3l-0.3,0.6v0.3
	l0.2,0.9v0.7l-0.3,1.3l-0.2,0.6l-0.3,0.7l-0.4,1l-0.4,1.2l-0.3,1.3l-0.2,0.8l-0.3,0.7l-0.4,1.3l-0.3,1.3l-0.5,1.5l-0.7,1.7l-0.1,0.2
	l-0.1,0.9l-0.2,0.7l-0.2,0.7l-0.4,1.2v0.4l-0.1,0.4l-0.4,0.8l-0.2,0.3l-0.1,0.3l-0.1,0.4l-0.1,0.4l-0.3,0.7l-0.4,0.6l-0.3,0.2
	l-0.6,0.3l-0.3,0.1h-0.7l-0.6,0.2l-0.7,0.3l-0.6,0.4l-0.2,0.2l-0.3,0.1h-0.8l-0.3-0.1l-0.8-0.6l-0.3-0.1l-0.6-0.1l-0.2-0.1l-0.2-0.1
	l-0.3-0.3l-0.5-0.3l-0.1-0.1l-0.1-0.2l-0.1-0.2l-0.1-0.2L66,124l-0.2-0.3l-0.5-0.6v-0.2v-0.6v-0.4v-0.7l0.1-0.3l0.2-0.3l-0.1-0.3
	l-0.2-0.3l-0.1-0.4l-0.1-0.3l-0.5-0.6l-0.1-0.3l-0.1-0.3l-0.2-0.9v-0.3v-0.7l0.1-0.4l0.1-0.2v-0.2l0.1-0.2l0.1-0.1l0.1-0.1l0.2-0.9
	l0.2-0.2l0.3-0.1l0.3-0.2l0.2-0.3l0.2-0.6l0.4-0.6l0.2-0.3l0.3-0.5l0.3-0.7l0.1-0.3l0.1-0.3l0.1-0.7l0.1-0.4v-0.4l-0.2-0.4l-0.4-0.7
	v-0.1v-0.5v-0.4l-0.2-0.4l-0.2-0.3l-0.2-0.6l-0.1-1v-0.4l-0.1-0.3l-0.1-0.3l0.1-0.6l1.2-2v-0.2l-0.1-0.6v-0.4v-0.1l0.1-0.1h0.2
	l1-0.1l0.1-0.1l0.2-0.2l0.3-0.3l0.2-0.1h0.1l0.1,0.1l0.1,0.1l0.4-0.1h0.2h0.2l0.1-0.1v-0.2l0.1-0.1l0.1-0.1h0.5l0.3-0.1l0.4-0.1h0.1
	l0.3,0.5h0.1h0.1l0.1-0.1l-0.3-0.2v-0.1v-0.2l0.2-0.3L73,97l0.6-0.4l0.6-0.4h0.2l0.1,0.1l0.1,0.5v0.1h0.1l0.1-0.1l0.1-0.2v-0.2
	l-0.1-0.2v-0.1V96l0.3-0.3l0.2-0.3l0.1-0.4l0.1-0.2l0.2-0.2h0.1l0.1,0.1v0.2l-0.1,0.2l-0.1,0.2v0.2h0.1h0.1l0.2-0.4l0.2-0.4l0.1-0.2
	l0.2-0.1h0.3l0.3,0.1l-0.4-0.4l-0.1-0.5l0.5-0.9v-0.2l0.1-0.1v-0.1L77,92l-0.1-0.1v-0.2l0.1-0.2l0.1-0.1l0.2-0.1l0.1,0.1l0.3,0.2
	h0.2l0.2-0.2l0.2-0.3l0.3-0.2l0.3-0.1l0.5-0.5l0.3-1V89l-0.1-0.3l-0.1-0.3L79.3,88v-0.1l0.3,0.1l0.1-0.1l0.3-0.4l0.5-0.7h0.2
	l0.1,0.1l0.1,0.2l0.1,0.1l0.3,0.3L82,88L82,88z M78.7,90.7v0.1h-0.4l-0.1-0.4h0.2v-0.1h0.1L78.7,90.7L78.7,90.7L78.7,90.7z
	 M83.2,100.9l-0.3,0.5L83,101l0.4-0.6h0.1L83.2,100.9L83.2,100.9z"/>
<path id="MU" class="st0" d="M104.8,111.5l-0.4,0.1H104l-0.2-0.2v-0.1l0.1-0.1V111l0.1-0.3l0.1-0.1l0.2-0.1l0.1-0.3l0.2-0.2h0.2
	l0.2,0.3l0.2,0.3v0.3L105,111l-0.1,0.2L104.8,111.5z"/>
<path id="MW" class="st0" d="M41.7,85.5h-0.4h-0.5l-0.1,0.1v0.2l-0.1,0.4l-0.1,0.2l-0.2,0.3l-0.2,0.4L40,87.2v0.1l0.1,0.5l0.2,0.6
	v0.2l0.1,0.7l0.1,0.5v0.3l0.1,0.4l0.1,0.2l0.1,0.1l0.5,0.1l0.2,0.1l0.3,0.3l0.7,0.7l0.4,0.5l0.3,0.4l0.6,0.8l0.4,0.6l0.1,0.6
	l0.1,0.1l-0.1,0.4l-0.1,0.7l0.1,0.4v0.8l-0.1,0.8l-0.1,0.3L44,98.5l-0.5,0.2l-0.7,0.1l-0.1,0.1l-0.1,0.2l-0.1,0.4l-0.2,0.4l-0.1,0.2
	l0,0l0.1,0.2l0.1,0.5v0.8l-0.1,0.1h-0.2h-0.2h-0.1l-0.1-0.1l-0.1-0.2l0.1-0.1l0.1-0.2l-0.1-0.2h-0.2l-0.2-0.2l-0.5-0.6l-0.4-0.4
	l-0.2-0.3L40,99.3l-0.1-0.1l-0.1-0.1v-0.2v-0.1l-0.1-0.2l-0.2-0.3l-0.1-0.1V98l0.1-0.2l0.2-0.2l0.2-0.4l0.1-0.3l0.3-0.5v-0.5v-0.4
	v-0.3l-0.1-0.6l-0.1-0.4l-0.4-0.5h-0.1h-0.3L39,93.8l-0.1,0.1h-0.2L38.1,94h-0.2l-0.1,0.1h-0.1l-0.4-0.4L37,93.3l-0.4-0.7l-0.1-0.1
	l-0.1-0.2l-0.1,0.1l-0.2,0.1H36l0,0l0,0v-0.1l-0.1-0.3l-0.1-0.2l-0.2-0.1l-0.1-0.1l0.1-0.1l0.1-0.1v-0.1l-0.1-0.1l-0.3-0.1v-0.1
	l0.2-0.1l0.2-0.1l0.1-0.1l0.1-0.3l0.1-0.3l0.1-0.1v-0.2v-0.2l0.1-0.3v-0.3L36.1,89L36,88.8l0.1-0.3l0.1-0.2l0.6-0.2l0.4-0.2l0.1-0.1
	l0.1-0.2l0.1-0.2h-0.1h-0.3L37,87.3l-0.2-0.6l0.1-0.6v-0.3v-0.3v-0.2l-0.1-0.1l-0.1-0.1v-0.3h0.1l0.2-0.4l0.1-0.3L37,83.9l-0.1-0.3
	l-0.1-0.2v-0.1l0.1-0.1l0.1-0.1h0.2l0.2-0.1l0.5-0.5v-0.1l-0.1-0.2l-0.2-0.3v-0.1v-0.3l-0.1-0.1l-0.3-0.2L37,81l0.1-0.2v-0.3
	L37,80.4l-0.2-0.1l-0.1-0.2v-0.2l-0.1-0.1h-0.1l-0.1,0.1h-0.1h-0.1v-0.1v-0.2l-0.1-0.1L36,79.4v-0.1l0,0h0.1l0.4,0.3h0.3l0.3,0.1
	l0.3,0.3h0.1h0.2h0.5h0.2l0.2,0.1h0.1h0.2l0,0V80v-0.2v-0.1l0.1-0.1l0.3,0.1l0.7,0.6v0.1l0.4,0.5l0.1,0.2v0.1l0.1,0.5v0.2v0.2v0.1
	l0.1,0.2v0.1l0.1,0.3l0.1,0.2v0.2v0.2l-0.1,0.3v0.1v0.1l0.1,0.1l0.1,0.1l0.1,0.2l0.1,0.2l0.1,0.1h0.1h0.1l0.1,0.1l0.1,0.2L41.7,85.5
	L41.7,85.5L41.7,85.5z M40.8,86.8L40.7,87h-0.1l-0.1-0.1v-0.1h0.1L40.8,86.8L40.8,86.8L40.8,86.8z M41.1,87.1L41.1,87.1h-0.2v-0.2
	v-0.1H41h0.1v0.1L41.1,87.1L41.1,87.1L41.1,87.1L41.1,87.1z"/>
<path id="MZ" class="st0" d="M35.3,130.7H35h-0.5h-0.3h-0.3l-0.4-0.1h-0.2v-1l-0.1-0.2l-0.1-0.3v-0.2l0.1-0.2v-0.3v-0.3l-0.3-0.1
	h-0.1l-0.1-0.2v-0.3l0.2-0.4v-0.8V126v-0.6v-0.7v-0.6v-0.5l-0.1-0.3v-0.1l-0.1-0.3l-0.1-0.6l-0.2-0.5l-0.2-0.3l-0.1-0.2l-0.1-0.2
	l-0.2-0.4l-0.2-0.2v-0.2v-0.4l-0.2-0.8l-0.1-0.6l-0.2-0.6l-0.1-0.4v-0.1v-0.2l0.4-0.3l0.4-0.4l0.5-0.5l0.4-0.5l0.4-0.4l0.5-0.6
	l0.5-0.5l0.1-0.1l0,0l-0.2-0.5l0.3-0.6v-0.4v-0.3v-0.2l0.1-0.1l0.4-0.3l0.3-0.5l0.2-0.4l0.3-0.7v-0.2v-0.2l-0.1-0.2l-0.2-0.4
	l-0.2-0.3l-0.1-0.5l0.1-0.4l0.1-0.3v-0.1l-0.1-0.1l-0.2-0.1l-0.1-0.1v-0.2v-0.2l0.1-0.1l0.4-0.2l0.1-0.1v-0.1v-0.4l0.1-0.4l0.1-0.4
	v-0.1l-0.1-0.1v-0.2v-0.3v-0.9l0.1-1v-0.5l-0.2-0.6v-0.5l0.2-0.3v-0.2h-0.1h-0.3l-0.2-0.1l-0.3-0.3l-0.5-0.2l-0.6-0.2l-0.9-0.1
	L32,98.7l-0.6-0.1l-0.2-0.1l-0.5-0.4h-0.8H29h-0.5L28.4,98v-0.5V97v-0.4l-0.1-0.5l-0.1-0.2l-0.1-0.3L28,95.3v-0.2V95l0.6-0.2
	l0.3-0.1l0.4-0.1l0.7-0.2l0.6-0.2l0.6-0.2l0.6-0.2l0.2-0.1l0.3-0.1l0.7-0.2l0.2-0.1l0.4-0.1l0.2-0.1l0.8-0.3l0.9-0.3l0.3-0.1
	l0.6-0.2l0.1,0.1l0.4,0.7l0.3,0.4l0.4,0.4h0.1l0.1-0.1H38l0.6-0.1h0.2l0.1-0.1l0.3-0.1h0.3h0.1l0.4,0.5l0.1,0.4l0.1,0.6v0.3v0.4v0.5
	l-0.3,0.5l-0.1,0.3l-0.2,0.4l-0.2,0.2l-0.1,0.2v0.2l0.1,0.1l0.2,0.3l0.1,0.2v0.1v0.2l0.1,0.1l0.1,0.1l0.2,0.1l0.2,0.3l0.4,0.4
	l0.5,0.6l0.2,0.2h0.2l0.1,0.2l-0.1,0.2l-0.1,0.1l0.1,0.2l0.1,0.1h0.1H42h0.2l0.1-0.1v-0.8l-0.1-0.5l-0.1-0.2l0,0l0.1-0.2l0.2-0.4
	l0.1-0.4l0.1-0.2l0.1-0.1l0.7-0.1l0.3-0.1l0.1-0.1l0.1-0.3l0.1-0.8v-0.8l-0.1-0.4l0.1-0.7l0.1-0.4L44,94.7l-0.1-0.6l-0.4-0.6
	l-0.6-0.8l-0.3-0.4l-0.4-0.5l-0.7-0.7l-0.3-0.3L41,90.7l-0.5-0.1l-0.1-0.1l-0.1-0.2l-0.1-0.4v-0.3l-0.1-0.5L40,88.4v-0.2l-0.2-0.6
	l-0.1-0.5V87l0.1-0.1l0.2-0.4l0.2-0.3l0.1-0.2l0.1-0.4v-0.2l0.1-0.1H41h0.4H42h0.7h0.1h0.1h0.2l0.2-0.1l0.2-0.1l0.2-0.2h0.4l0.5,0.2
	l0.3,0.2v0.2l0.3,0.1h0.6l0.4-0.1l0.3-0.2l0.3-0.1h0.3l0.2,0.1l0.2,0.2l0.3,0.1l0.4,0.1l0.5-0.1l0.5-0.3l0.3-0.3l0.1-0.3l0.1-0.2
	l0.1-0.1h0.3h0.4l0.4,0.1l0.5,0.3l0.3-0.2l0.5-0.3l0.5-0.2h0.5l0.4-0.1l0.3-0.3l0.3-0.2l0.4-0.1l0.3-0.1l0.5-0.3l0.5-0.4l0.5-0.4
	l0.3-0.2l0.1,0.3l0.3,0.3l-0.2,0.1l-0.2,0.1L57,83l-0.2,0.3v0.2l0.1,0.1l0.1,0.1L56.9,84l-0.2,0.2l-0.1,0.2l0.2,0.3l-0.1,0.6
	l0.2,0.5v0.3l0.1,0.2l-0.1,0.3v0.6v0.2l-0.1,0.3l0.2,0.1l0.1,0.3v0.4L57,88.7l-0.3,0.2V89v0.1h0.4v0.2v0.2v0.3V90l0.1,0.2l-0.1,0.3
	v0.2V91l0.1,0.6v0.8v0.1l0.1,0.1h0.2v0.2l-0.2,0.3v0.2v0.3l0.2-0.3h0.1l0.1,0.1v0.2v0.1v0.2l0.1,0.2v0.2l-0.2,0.1l-0.2,0.3v0.2v0.2
	h-0.1l-0.1,0.1l0.1,0.2v0.2L57,96.2L56.3,97L56,97.3l-0.3,0.3v0.1v0.1l-0.3,0.5l-0.3,0.1l-0.2,0.1l0.2,0.4L54.9,99l-0.4,0.3
	l-1.1,0.6l-0.2,0.1l-0.3,0.4l-0.4,0.1l-0.2,0.1h-0.4h-0.1h-0.1l-0.1,0.1l-0.7,0.3l-0.7,0.2l-0.2,0.1l-0.1,0.1l-0.6,0.2l-0.9,0.5
	l-0.8,0.5l-0.5,0.5l-0.1,0.1l-0.2,0.2l-0.1,0.3l-0.1,0.1l-0.4,0.5l-0.6,0.6l-0.1,0.2l-0.2,0.3v0.2l-0.2,0.1l-0.2-0.2l-0.1,0.4h-0.1
	l-0.2-0.1l-0.4,0.2l-0.4,0.2l-0.6,0.5l-0.8,1l-1.2,0.9h-0.2h-0.1l-0.4-0.3h-0.2l0.2,0.2l0.1,0.2v0.3v0.5l-0.1,0.9v0.2l0.2,0.3
	l0.3,0.3l0.3,0.4l0.4,1.2v0.6l0.4,0.8v0.3l0.2,0.8v0.7v0.4l0.2,0.2l0.1-0.2v-0.3l0.1-0.4l0.1-0.2h0.1v0.2l0.1,0.2v0.2v0.2l-0.1,0.9
	v0.3l0.2,0.6l-0.2,0.7l-0.3,1.6v0.3l0.1,0.1h0.2l0.1-0.2H43l0.1,0.1l-0.1,0.7l-0.1,0.3l-0.5,0.8l-0.3,0.3l-0.5,0.3l-1.1,0.5
	l-2.2,0.8l-0.9,0.4l-0.5,0.2l-1.1,0.7l-0.5,0.5l-0.2,0.5l-0.2,0.3l-0.2,0.3l0.2,0.3l0.2,0.2l0.2,0.1l0.1,0.1l0.1,0.1l0.1-0.4
	l0.1-0.1h0.1l-0.1,0.5L35.3,130.7L35.3,130.7L35.3,130.7z M40.5,86.5L40.5,86.5l0.1-0.1v-0.1v-0.1h-0.1h-0.1v0.1v0.2L40.5,86.5
	L40.5,86.5L40.5,86.5z M40.2,86.2L40.2,86.2l-0.1-0.1H40v0.1l0.1,0.1h0.1V86.2L40.2,86.2z"/>
<path id="RE" class="st0" d="M99.6,114.1l-0.4,0.1h-0.3l-0.5-0.3l-0.1-0.2l-0.2-0.5V113l0.2-0.3l0.4-0.1h0.4l0.2,0.1l0.2,0.3
	l0.3,0.4v0.4L99.6,114.1z"/>
<path id="RW" class="st0" d="M28.6,55.8L28.6,55.8L28.5,56l0.1,0.2l0.3,0.4l0.2,0.1l0.1,0.2l0.1,0.3v0.4L29.2,58v0.3l0.1,0.2v0.3
	l-0.1,0.3l-0.1,0.2L29,59.4h-0.1h-0.1h-0.2l-0.2,0.1h-0.1h-0.1l-0.1-0.1l-0.2-0.2l-0.4,0.1h-0.1l-0.1,0.1l-0.1,0.1h-0.1H27l-0.3-0.2
	h-0.1l-0.1,0.6l-0.1,0.3l-0.1,0.1l-0.2,0.1l-0.2,0.1h-0.1h-0.5h-0.2H25l-0.1-0.3l-0.3-0.1L24.3,60h-0.1l-0.1,0.2v0.2l-0.3-0.1
	l-0.1-0.1V60l-0.1-0.3l0.1-0.1l0.1-0.1l0.2-0.2l0.3-0.2l0.1-0.1v-0.2v-0.4v-0.3V58l0.1-0.3l0.2-0.3l0.2-0.3H25l0.2-0.1l0.2-0.2
	l0.1-0.1h0.1l0.6-0.1h0.1l0.1,0.3h0.1h0.1l0.2-0.1l0.3-0.2l0.1-0.1l0.2-0.2l0.2-0.2l0.1-0.2l0.1-0.1h0.1h0.2L28.6,55.8z"/>
<path id="SC" class="st0" d="M98.9,66v0.3l-0.1-0.1V66l-0.2-0.1l-0.1-0.1l0.2-0.1L98.9,66z"/>
<path id="SO" class="st0" d="M59.6,57.6v-0.2v-0.1L59.3,57l-0.5-0.6l-0.4-0.5L58,55.4V55v-1.2v-2.4V49v-2.4v-1.2v-0.5v-0.1l0.4-0.4
	l0.6-0.6l0.8-1.1l0.4-0.6l0.3-0.5l0.1-0.2l0.3-0.3l0.6-0.2h0.4l1.2-0.2l0.2-0.1l0.1-0.1l0.1-0.2l0.2-0.3l0.3-0.2l0.6-0.3l0.6-0.3
	h0.1L66,39l0.2-0.1l0.3-0.1h0.1l1,0.1h0.8h0.8h0.1l0.5-0.6l0.9-0.9l0.5-0.6l0.8-0.9l0.6-0.7l0.7-0.7l0.7-0.7l0.8-0.8l0.5-0.5
	l0.8-0.8l0.8-0.8l0.7-0.7h-1h-0.9h-0.8l-0.2-0.1l-0.8-0.3l-1-0.3l-1.2-0.4l-0.9-0.3l-0.9-0.1L69,28.4l-0.7-0.2l-0.9-0.3l-0.8-0.3
	l-0.1-0.1l-0.4-0.4l-0.6-0.5h-0.1l-0.3-0.1l-0.2-0.3l-0.3-0.4l-0.2-0.5L64.3,25L64,24.9l-0.2-0.2l-0.3-0.4l-0.2-0.2l-0.1-0.2
	l-0.1-0.3l-0.2-0.3l-0.2-0.2V23v-0.1l0.3-0.5l0.1-0.2l0.1-0.2l0.1-0.2v-0.1l0.4-0.6l0.3-0.5l0.2-0.4l0.5,0.4l0.5,0.9l0.6,0.7
	l0.9,0.7l0.3,0.2l0.3,0.1h1.6l1.1-0.6l1-0.4l0.3-0.1l0.6,0.1h0.6l0.6,0.1h0.3l1.1-0.5l0.7-0.5l0.5-0.2h0.2l0.7,0.2l0.9-0.1l1.2-0.4
	l0.4-0.1h0.3l0.6,0.2h0.1h0.3l0.9-0.2l0.7-0.3l1.3-0.2l1-0.6l0.2-0.3l0.3-0.3l0.4-0.1l1.1,0.4h0.2l-0.1,0.2v0.3l-0.2,0.4l-0.1,0.5
	l0.1,0.7l0.1,1.2v0.2L86.2,23v0.1h-0.1L86,23.2h0.1l0.4-0.1V23v-0.1l0.3,0.2l0.2,0.1l0.1,0.2v0.1h-0.3l-0.2-0.1l-0.5,0.1l-0.3,0.1
	l-0.1,0.2l-0.1,0.9l-0.1,0.6v0.8l-0.4,0.5L85,27l-0.6,0.7l-0.3,0.6L84,28.6l-0.5,0.9l-0.7,0.7l-0.3,0.9l-0.3,0.5l-0.3,0.5L81.3,33
	L81,33.6l-0.4,1l-0.1,0.7l-1.1,1.9l-1.2,1.5L77.5,40l-1.3,1.5l-1.8,1.9l-2.3,2.3l-0.6,0.5L69,47.6l-1.6,1.2l-0.8,0.8l-0.9,0.7L65,51
	l-2.1,2.2l-0.2,0.2l-0.2,0.2L62.2,54L62,54.1l-0.5,0.6L61.2,55l-0.4,0.3l-0.2,0.2l-0.1,0.3l-0.1,0.1l-0.3,0.6l-0.3,0.4L59.6,57.6z"
	/>
<path id="SS" class="st0" d="M38.3,25.6L38.1,26L38,26.3v0.2v0.1v0.1l0,0l0,0l0,0l0,0h0.5l0,0l0,0v0.1v0.6v0.5v0.8v0.2v0.3l-0.1,0.1
	l-0.1,0.2l-0.2,0.1h-0.5h-0.4h-0.3h-0.4h-0.4L36,29.6L35.8,30l-0.3,0.6l-0.1,0.3V31v0.1l0.2,0.1l0.4,0.2l0.5,0.1h0.3H37l0.2,0.1
	l0.7,0.5l0.2,0.2l0.1,0.2v0.2l0.1,0.2l0.4,0.4l0.2,0.2l0.6,0.3l0.2,0.3l0.2,0.2l0.2,0.2l0.1,0.3l0.2,0.8l0.2,0.4l0.2,0.3l0.1,0.5
	l0.1,0.2l0.1,0.3l0.2,0.3l0.2,0.2v0.1L41,38.2l-0.6,0.6l-0.7,0.7L39,40.1l-0.6,0.6l-0.6,0.6L37.1,42l-0.5,0.5l-0.1,0.1l-0.1,0.1
	h-0.5l-0.5-0.1L35,42.3l-0.4,0.2l-0.3,0.1h-0.2h-0.4l-0.6,0.1l-0.3,0.2l-0.1,0.1l-0.1,0.2h-0.1h-0.1L32.3,43L32,42.9l-0.2-0.3
	l-0.1-0.2l-0.1-0.1l-0.5,0.3l-0.2,0.1h-0.2l-0.3-0.2L30,42.5h-0.2l-0.3,0.2l-0.3,0.3L29,43.2l-0.1,0.1l-0.1-0.1l-0.1-0.1L28.6,43
	l-0.2-0.1h-0.1h-0.2L28,42.8v-0.2v-0.2l-0.1-0.1l-0.2-0.1L27.1,42l-0.5-0.5l-0.2-0.3l0.5-0.4l-0.3-0.4l-0.3-0.3L25.9,40l-0.2,0.1
	l-0.2,0.3l-0.4,0.3h-0.2l-0.3-0.2l-0.3-0.1l-0.6-0.1l-0.2,0.1l-0.3,0.2l-0.3,0.1h-0.2l-0.2-0.1h-0.2h-0.2l-0.3-0.2l-0.2-0.2
	l-0.1-0.1L21.3,40l-0.2-0.1L21,39.8h-0.1l-0.1-0.2l-0.2-0.2l-0.5-0.3L20,39l-0.1-0.2l-0.2-0.2l-0.2-0.3l-0.1-0.4v-0.3v-0.2l-0.1-0.2
	l-0.1-0.1L19,36.9l-0.4-0.2l-0.4-0.3L18,36.3l-0.4-0.1l-0.2-0.1l-0.2-0.3l-0.1-0.3l-0.2-0.2l-0.1-0.1v-0.2l0.1-0.5l-0.2-0.2
	l-0.3-0.2l-0.2-0.3l-0.1-0.2l-0.4-0.3l-0.9-0.5l-0.5-0.3L14,32.3l-0.2-0.3V32l0.2-0.3v-0.2l-0.1-0.2l-0.5-0.4L13,30.4l-0.3-0.2
	l-0.8-0.1L11.7,30l-0.2-0.1l-0.2-0.2l-0.1-0.3l0.1-0.4l-0.1-0.1h-0.1l0,0v-0.1l0.1-0.2l0.2-0.1l0.7-0.2v-0.1V28l0.1-0.1l0.2-0.4
	v-0.1v-0.3V27l0.1-0.1l0.2-0.2l0.1-0.1v-0.2v-0.5l0.1-0.2l0.4-0.4l0.1-0.2V25v-0.2v-0.2l0.1-0.2l0.1-0.1l0.3-0.1h0.2l1.4-0.3h0.2
	l0.1,0.2v0.3v0.1l0.1,0.1l0.2,0.1l0.2,0.2l0.1,0.1l0.2,0.1l1.1,1.3l0.3,0.1h0.3l0.6-0.3l0.3-0.1l2,0.1h0.2l0,0l0.3,0.6l0.1,0.1H24
	v-0.2v-0.2l0.3-0.3l0.1-0.1l0,0h0.1l0.3-0.2l0.3-0.1l0.6-0.1l0.2-0.2l0.1-0.2v-0.4l0.1-0.1l0.2-0.1l0.7-0.4l0.1-0.1l1.3,0.8l0.7,0.7
	l0,0l0,0l0,0l0,0h0.1l0,0h0.3h0.6l0.2-0.1l1.2-1.2l0.3-0.4l0.1-0.1l0.2-0.3l0.2-0.5V23l1.3-1.1v-0.1v-0.1l-0.2-0.4v-0.2v-0.3v-0.5
	v-0.3l0,0l0,0l0,0l-0.7-0.8h1.9v-0.1l0,0l0,0v-0.1V19l0,0l0,0v-0.1l0,0l0,0l0,0l0,0l0,0h1.3v0.2l-0.2,0.6V20v0.4l0,0v0.1l0,0l0,0
	l0,0l0,0l0,0l0.3,2v0.1l0,0l-0.1,0.1l0,0l0,0l0,0l0.6,0.2l0,0l0,0l0.2,0.3l1.2,1v0.1l0.1,0.3l0,0v0.1v0.1V25v0.1v0.1L38.3,25.6
	L38.3,25.6L38.3,25.6L38.3,25.6z"/>
<path id="TZ" class="st0" d="M54.5,75.3h-0.2h-0.1l-0.1-0.1l0.2-0.1l0.2-0.2l0.4-0.3l0.1-0.2l0,0v0.2l-0.2,0.5h-0.2L54.5,75.3
	L54.5,75.3z M53.9,70.2l0.2,0.6v0.1L53.9,71h-0.1l-0.1-0.1l-0.1-0.2h-0.1l-0.2-0.2h-0.2l-0.2-0.3l0.1-0.3v-0.4l0.2-0.2l0.1-0.4
	l0.1,0.3v0.4l0.2,0.5L53.9,70.2L53.9,70.2L53.9,70.2z M54.9,66.6L54.9,66.6v0.2v0.4v0.3l-0.2,0.4L54.6,68h-0.1l-0.1-0.1l-0.1-0.1
	l0.2-0.7l-0.1-0.5l0.3,0.1C54.7,66.7,54.9,66.6,54.9,66.6z M29.5,55.7L29.5,55.7h0.4h0.5h0.5h0.5h0.5h0.5h0.5h0.5h0.5h0.5h0.5h0.5
	h0.5h0.5h0.5h0.5h0.5h0.3h0.2l0.2,0.1l0.2,0.1l0.6,0.3l0.6,0.3l0.6,0.3l0.6,0.3l0.6,0.3l0.6,0.3L43,58l0.6,0.3l0.6,0.3l0.6,0.3
	l0.6,0.3l0.6,0.3l0.6,0.3l0.6,0.3l0.6,0.3l0.6,0.3l0.3,0.2V61v0.3v0.2v0.2L48.5,62v0.1v0.1l0,0h0.1l0.1,0.1v0.1l0.1,0.2l0.1,0.1
	l0.3,0.2l0.4,0.3l0.4,0.3l0.4,0.3l0.4,0.3l0.4,0.3l0.4,0.3L52,65l0.4,0.3l0.2,0.2h0.1l-0.1,0.2l-0.2,0.6v0.2l-0.1,0.3L52.2,67
	L52,67.8l-0.2,0.3l-0.3,0.7v0.5l0.1,0.4l0.1,0.4l0.3,0.3l0.2,0.1l0.2,0.2l0.3,0.4l0.2,0.4l0.5,0.2l0.2,0.4l-0.1,0.3l-0.2,0.2
	L53.1,73l-0.2,0.5v0.8l0.1-0.1l0.3,0.2V75L53,75.7L52.9,76v0.3l0.2,0.8l0.3,0.4v0.1l-0.1,0.1l0.5,0.7V79l0.2,0.5l0.1,0.4l0.1,0.3
	v0.2L54,80.6l0.4,0.1l0.2,0.2l0.1,0.2H55l0.2,0.1l0.2,0.1l0.5,0.3l0.1,0.2v0.1V82l-0.3,0.2l-0.5,0.4L54.7,83l-0.5,0.3l-0.3,0.1
	l-0.4,0.1l-0.3,0.2L52.9,84l-0.4,0.1H52l-0.5,0.2L51,84.6l-0.3,0.2l-0.5-0.3l-0.4-0.1h-0.4h-0.3L49,84.5l-0.1,0.2L48.8,85l-0.3,0.3
	L48,85.6l-0.5,0.1l-0.4-0.1l-0.3-0.1l-0.2-0.2l-0.2-0.1h-0.3l-0.3,0.1l-0.3,0.2l-0.4,0.1h-0.6l-0.3-0.1v-0.2l-0.3-0.2l-0.5-0.2H43
	l-0.2,0.2l-0.2,0.1l-0.2,0.1h-0.2h-0.1H42h-0.7h-0.6v-0.1V85l-0.1-0.2l-0.1-0.1h-0.1h-0.1l-0.1-0.1l-0.1-0.2L40,84.2l-0.1-0.1
	L39.8,84v-0.1v-0.1l0.1-0.3v-0.2v-0.2l-0.1-0.2l-0.1-0.3v-0.1l-0.1-0.2v-0.1V82v-0.2l-0.1-0.5v-0.1L39.4,81L39,80.5v-0.1l-0.7-0.6
	L38,79.7l-0.1,0.1v0.1v0.2v0.1l0,0h-0.2h-0.1l-0.2-0.1h-0.2h-0.5h-0.2h-0.1l-0.3-0.3l-0.3-0.1h-0.3l-0.4-0.3H35l0,0l-0.2-0.1
	l-0.3-0.2L34.1,79l-0.3-0.2l-0.2-0.2l-0.3-0.1H33l-0.3-0.1h-0.3h-0.3L32,78.3v-0.2L31.9,78l-0.2-0.1h-0.2h-0.1h-0.1l-0.2-0.1
	l-0.2-0.2l-0.1-0.3l-0.2-0.2L30.3,77h-0.8h-0.1l-0.2-0.1L29,76.7l-0.2-0.3l-0.2-0.3l-0.1-0.2l-0.1-0.3l-0.2-0.4l-0.3-0.5l-0.2-0.4
	l-0.2-0.5l-0.1-0.3l-0.2-0.4l-0.3-0.5l-0.1-0.2l-0.2-0.2l-0.4-0.3l-0.5-0.3l-0.2-0.2l-0.3-0.6l-0.1-0.2L25,70.2l-0.1-0.4v-0.2
	l0.3-0.5V69v-0.2l-0.1-0.4L25,68.1l-0.1-0.2l-0.2-0.4L24.5,67l-0.1-0.2v-0.2l0.1-0.5l0.1-0.5v-0.1h0.9l0.1-0.1l0.5-0.3l0.6-0.6
	l0.1-0.3l0.2-0.4l0.2-0.2l0.1-0.1l0.1-0.2l0.1-0.2l0.3-0.3l0.3-0.2v-0.1v-0.1v-0.1l0.2-0.1l0.3-0.1l0.1-0.2v-0.2v-0.1v-0.2v-0.1
	h-0.2l-0.3-0.1H28l-0.2-0.1L27.7,61v-0.1v-0.2l0,0l0.1-0.2l-0.1-0.1l0,0l0.1-0.1l0.3-0.5l0.1-0.1h0.1l0.2-0.1h0.2h0.1h0.1l0.1-0.1
	l0.1-0.2l0.1-0.3v-0.3l-0.1-0.2v-0.3l0.1-0.4v-0.4l-0.1-0.3L29,56.9l-0.2-0.1l-0.3-0.4l-0.1-0.2v-0.1h0.1l0,0h0.2l0.2-0.1l0.2-0.1
	L29.5,55.7L29.5,55.7L29.5,55.7z"/>
<path id="UG" class="st0" d="M38.2,55.7h-0.3h-0.5h-0.5h-0.5h-0.5h-0.5h-0.5h-0.5h-0.5h-0.5h-0.5h-0.5h-0.5h-0.5h-0.5h-0.5h-0.5
	h-0.3h-0.1l0,0h-0.2l-0.2,0.1l-0.2,0.1h-0.2l0,0h-0.1h-0.2h-0.1L28.2,56l-0.1,0.2l-0.2,0.2l-0.2,0.2l-0.1,0.1l-0.3,0.2L27.1,57H27
	h-0.1l-0.1-0.3h-0.1l-0.6,0.1H26v-0.1V56v-0.4l0.1-0.3V55v-0.3l0.1-0.4V54l0.1-0.9V53l0.1-0.4l0.1-0.1l0.1-0.1l0.1-0.3l0.2-0.4
	l0.1-0.2V51v-0.3v-0.1l0.3-0.1l0.4-0.3l0.2-0.4l0.2-0.2l0.4-0.1l0,0l1.3-1.2l0.6-0.7l0.3-0.3v-0.1l0.1-0.2l-0.1-0.1l-0.1-0.1v-0.1
	l-0.1-0.1h-0.2l-0.1-0.1l-0.1-0.2L30,46.2h-0.4L29.3,46v-0.2l0.1-0.4l0.2-0.5v-0.1v-0.1l-0.1-0.1l-0.1-0.1l-0.1-0.1l0.1-0.3l0.1-0.3
	l0.1-0.2l0.1-0.2v-0.2l-0.2-0.1l0.1-0.1l0.2-0.3l0.3-0.3l0.3-0.2h0.2l0.4,0.1l0.3,0.2h0.2l0.2-0.1l0.5-0.3l0.1,0.1l0.1,0.2l0.2,0.3
	l0.3,0.1l0.1,0.1h0.1h0.1l0.1-0.2l0.1-0.1l0.3-0.2l0.6-0.1h0.4h0.2l0.3-0.1l0.4-0.2l0.4,0.3l0.5,0.1H37l0.1-0.1l0.1-0.1l0.5-0.5
	l0.7-0.7l0.4,0.9L39,42v0.1v0.1l0.3,0.2l0.4,0.1l0.1,0.1v0.1l-0.1,0.5v0.2l0.1,0.5L40,44l0.2,0.5l0.4,0.2l0.1,0.1l0.1,0.3l0.1,0.3
	l0.1,0.1h0.1l0.1,0.3L41.1,46l0.1,0.5l0.1,0.5v0.6v0.2V48v0.2l-0.1,0.1l-0.1,0.1L41,48.6l-0.1,0.2l-0.1,0.1l0.1,0.3v0.1l0,0h-0.2
	l-0.2,0.1l-0.1,0.1l-0.2,0.2l-0.1,0.2l-0.2,0.5l-0.3,0.4l-0.1,0.1l-0.3,0.2l-0.1,0.3L39,51.7l-0.1,0.2l-0.3,0.3l-0.1,0.5v1.1
	L38.4,55L38.2,55.7z"/>
<path id="YT" class="st0" d="M69.8,89.5h-0.2l-0.1-0.1l-0.1-0.2l0.1-0.2v-0.1l-0.1-0.2l0.1-0.1l0.1,0.2h0.1l0.2,0.1l-0.1,0.2v0.1
	l-0.1,0.2L69.8,89.5z"/>
<path id="ZM" class="st0" d="M36.3,78.8L36.3,78.8l0.1,0.2l0.1,0.1v0.2v0.1h0.1h0.1l0.1-0.1h0.1l0.1,0.1v0.2l0.1,0.2l0.2,0.1
	l0.1,0.1v0.3l-0.1,0.2l0.2,0.2l0.3,0.2l0.1,0.1v0.3v0.1l0.2,0.3l0.1,0.2V82l-0.5,0.6l-0.2,0.1h-0.2l-0.1,0.1l-0.1,0.1V83l0.1,0.2
	l0.1,0.3l0.1,0.2L37.3,84l-0.2,0.5H37v0.3l0.1,0.1l0.1,0.1v0.2v0.3v0.3l-0.1,0.7l0.2,0.7l0.1,0.1h0.3h0.1l-0.1,0.2l-0.1,0.2
	l-0.1,0.1L37.1,88l-0.6,0.2l-0.1,0.2l-0.1,0.3l0.1,0.2l0.1,0.1v0.3l-0.1,0.3v0.2V90l-0.1,0.1l-0.1,0.3l-0.1,0.3L36,90.8l-0.2,0.1
	L35.6,91v0.1l0.3,0.1l0.1,0.1v0.1l-0.1,0.1l-0.1,0.1l0.1,0.1l0.2,0.1l0.1,0.2l0.1,0.3v0.1l0,0l0,0h0.1l0.2-0.1l0.1-0.1l0.2,0.2
	l-0.6,0.2L36,92.7L35.1,93l-0.8,0.3l-0.2,0.1l-0.4,0.1l-0.2,0.1l-0.7,0.2l-0.3,0.1L32.3,94l-0.6,0.2l-0.6,0.2l-0.6,0.2l-0.7,0.2
	l-0.4,0.1L29.1,95l-0.6,0.2v0.1v0.2l0.1,0.3l0.1,0.3l0.1,0.2l0.1,0.6v0.5h-0.4h-0.7h-1l-0.7,0.2l-0.6,0.2l-0.7,0.5l-0.2,0.1
	l-0.2,0.1l-0.1,0.1l-0.1,0.3v0.6l-0.1,0.3l-0.2,0.3l0,0l-1,0.5l-0.7,0.3l-0.6,0.5l-0.5,0.6l-0.3,0.7l-0.6,0.8l-0.6,0.7L19,105
	l-0.7,0.2l-0.6-0.1l-0.7-0.3l-0.5-0.1l-0.4,0.2l-0.4-0.1l-0.3-0.3l-0.3-0.1l-0.2,0.1h-0.3l-0.5-0.2l-0.5-0.6l-0.3-0.2l-0.2-0.1
	l-0.6-0.1l-1.3-0.1h-0.1l-0.5,0.1l-0.7,0.1l-0.6,0.1l-0.6,0.1L8.1,103l-0.6-0.7l-0.7-0.7L6.3,101l-0.2-0.3l-0.4-0.5L5.4,100
	l-0.1-0.1L5,98.8l-0.2-1V97v-1v-1v-0.5v-1v-1v-1v-1v-1V89h0.6h0.7h0.8h0.8h0.8h0.8h0.6h0.2h0.2v-0.1l-0.2-0.6v-0.2l0.1-0.3l0.1-0.3
	l0.1-0.3V87l-0.1-0.8v-0.5v-0.5v1.2v-0.3V86l0.1-0.2v-0.2v-0.2v-0.1v-0.2v-0.5L10.3,84l-0.1-0.5h0.1h0.2l0.1,0.2l0.1,0.2h0.1
	l0.4,0.1l0.1,0.2l0.1,0.5l-0.1,0.2L11.2,85l0.1,0.1l0.2,0.1h0.1L12,85h0.2h0.2l0.2-0.1l0.6-0.1h0.3l0.2-0.1h0.1l0.1,0.1l-0.1,0.3
	v0.2l0.1,0.5L14,86l0.2,0.1l0.1,0.1l0.1,0.2h0.3l0.7,0.2l0.2,0.1l0.3,0.1h0.2l0.7,0.1l0.3,0.1l0.5,0.1H18h0.3l0.2-0.1l0.1-0.1
	l0.1-0.1l0.1-0.2l0.1-0.6l0.1-0.1l0.1-0.1h0.2l0.1,0.1l0.1,0.6l0.5,0.6l0.2,0.5l0.1,0.3l0.1,0.1l0.2,0.1h0.3h0.3l0.6,0.2l0.5,0.2
	l0.3,0.1l0.2,0.1l0.1,0.2L23,89l0.1,0.3l0.1,0.3l0.2,0.1h0.2l0.2,0.2l0.1,0.2l0.2,0.5l0.2,0.3l0.1,0.3l0.2,0.2l0.3,0.1h0.3l0.1-0.1
	l0.4-0.1l0.3-0.2l0.2-0.1h0.1l0.1,0.1v0.2v0.1l0.2,0.1h0.1l0.1-0.1v-0.1v-0.7V90v-0.6v-0.7v-0.6v-0.5v-0.5h-0.1l-0.2,0.1h-0.4
	L26,87.3v0.1v0.1v0.2l-0.1,0.1h-0.2l-0.2-0.1l-0.4-0.1l-0.4-0.1l-0.3-0.3l-0.3-0.5l-0.2-0.2L23.4,86l-0.1-0.1l-0.2-0.2L23,85.4
	l-0.1-0.2L22.8,85l-0.1-0.2l0.1-0.5l0.2-0.8l0.1-0.6l0.1-0.5l0.3-0.5v0.5l-0.1-0.5v-0.2V81v-0.6v-0.2l-0.1-0.5l-0.2-0.6l-0.4-0.8
	v0.1l0.2-0.2l0.4-0.3l0.2-0.2l0.2-0.2l0.1-0.1l0.2-0.3l0.1-0.2v-0.3L24,76.3l0.2-0.1l0.7-0.1l0.8-0.1l0.8-0.1l0.8-0.1l0.8-0.1
	l0.7-0.1l0.5-0.1l0.1,0.2l0.2,0.3l0.2,0.2l0.2,0.2l0.2,0.1h0.1h0.8l0.3,0.1l0.2,0.2l0.1,0.3l0.2,0.2l0.2,0.1h0.1h0.1h0.2l0.2,0.1
	l0.1,0.1v0.2l0.1,0.1h0.3h0.3l0.3,0.1h0.3l0.3,0.1l0.2,0.2l0.3,0.2l0.4,0.1l0.3,0.2L36.3,78.8z"/>
<path id="ZW" class="st0" d="M31.5,117.3l-0.3-0.2l-0.3-0.1l-0.4-0.1h-0.6l-0.7,0.1l-0.8-0.1l-0.8-0.2l-0.7-0.1l-1,0.1l0,0l-0.1-0.1
	l-0.2-0.2h-0.4l-0.1-0.1l-0.1-0.1l-0.1-0.1V116l0.1-0.4l0,0h-0.1h-0.2l-0.5-0.2l-0.6-0.2l-1-0.2h-0.4l-0.1-0.1l-0.1-0.1l-0.2-0.4
	l-0.2-0.3l-0.4-0.5l-0.1-0.1v-0.4v-0.3v-0.2v-0.2v-0.3v-0.2l-0.1-0.1l-0.2-0.1h-0.4h-0.5v-0.3l-0.1-0.4l-0.1-0.3l-0.1-0.1l-0.2-0.1
	l-0.5-0.2l-0.7-0.3l-0.6-0.4l-0.7-0.5l-0.2-0.1l-0.2-0.5l-0.4-0.9v-0.3l-0.1-0.1l-0.4-0.4l-0.1-0.2l-0.1-0.2l-0.6-0.6l-0.2-0.3
	l-0.1-0.3l-0.1-0.3l-0.1-0.1l-0.2-0.2l-0.1-0.2l-0.1-0.2V104l0.1-0.1l0.5,0.2h0.3L15,104l0.3,0.1l0.3,0.3l0.4,0.1l0.4-0.2l0.5,0.1
	l0.7,0.3l0.6,0.1l0.7-0.2l0.6-0.7l0.6-0.6l0.6-0.7L21,102l0.5-0.5l0.6-0.4l0.7-0.3l1-0.4l0,0l0.2-0.3l0.1-0.3v-1.1l0.1-0.3l0.1-0.1
	l0.2-0.1l0.2-0.1l0.7-0.4l0.6-0.2l0.7-0.2h0.7h0.7h0.4v0.5v0.5h0.1h0.5H30h0.8l0.5,0.4l0.2,0.1l0.6,0.1l0.7,0.6l0.9,0.1l0.6,0.2
	l0.5,0.2l0.3,0.3l0.2,0.1h0.3h0.1v0.2l-0.2,0.3v0.5l0.2,0.6v0.5l-0.1,1v0.9v0.3v0.2l0.1,0.1v0.1l-0.1,0.4l-0.1,0.4v0.2v0.1l-0.1,0.1
	l-0.4,0.2l-0.1,0.1v0.2v0.2l0.1,0.1l0.2,0.1l0.1,0.1v0.1l-0.1,0.3l-0.1,0.4l0.1,0.5l0.2,0.3l0.2,0.4l0.1,0.2v0.2v0.2l-0.3,0.7
	l-0.2,0.4l-0.3,0.5l-0.4,0.3l-0.1,0.1v0.2v0.3v0.4l-0.3,0.6l0.2,0.5l0,0l-0.1,0.1l-0.5,0.5l-0.5,0.6l-0.4,0.4l-0.4,0.5l-0.5,0.5
	l-0.4,0.4L31.5,117.3z"/>
</svg>
