<?xml version="1.0" encoding="utf-8"?>
<!-- Generator: Adobe Illustrator 27.0.1, SVG Export Plug-In . SVG Version: 6.00 Build 0)  -->
<svg version="1.1" id="Southamerica_Blank" xmlns="http://www.w3.org/2000/svg" xmlns:xlink="http://www.w3.org/1999/xlink" x="0px"
	 y="0px" viewBox="0 0 215.5 152.3" style="enable-background:new 0 0 215.5 152.3;" xml:space="preserve">
<g id="FrenchGuiana" transform="translate(-17.178 -5.4121)">
	<path style="fill:#CCCCCC;stroke:#FFFFFF;" d="M207.1,96.6c1.3-0.1,2.3-2.3,2.8-3.2c0.8-1.8,0-3.8,1.2-5.5c1.5-2,0.1-3.4-1.1-4.9
		c-1.3-1.6-1.2-4.5-1.4-6.5c-0.1-2.3,0.2-3.6,1.9-5.2c0.6-0.6,1.4-1.3,1.6-2.1c0.3-1.1,0.6-2.6,2.2-2c1,0.4,1.8,1.2,2.9,1.5
		c1.2,0.3,2.7,0.3,3.7,1.1c1.2,1,2.8,4.6,4.7,4.5c-0.3,0.5-0.5,1-0.6,1.5c0.5-2.4,4.6,1.7,2.3,3.3c1.1-0.4,0.5-1.5,1-2.2
		c0.9-1.1,1.5,1.5,1.6,2.1c0.3,2.7-1.8,5.6-3.2,7.7c-1.6,2.5-2.7,4.6-3.8,7.3c-0.4,1-0.9,1.9-1.8,2.6c-0.4,0.3-1,1-1.5,1.1
		c-0.8,0.2-1.4-0.4-2.2,0c0.3-1-0.3-1-1-0.8c-1,0.3-1.9-0.1-2.9-0.4c-0.5-0.2-2.4,1.2-2.7,1.6C210.1,98.8,207.5,97,207.1,96.6"/>
</g>
<g id="Venezuela" transform="translate(-17.178 -5.4121)">
	<path style="fill:#CCCCCC;stroke:#FFFFFF;" d="M66,37.3c2-2.3,3-4.8,3.6-7.7c0.6-2.8,1.5-4.8,3-7.3c1.2-2,3.3-2.6,4.4-4.7
		c1.3-2.4,4-2.1,6.1-3.4c-0.9,2.1-3.6,0.6-4.8,2.2c-1.1,1.3,0.4,4.3,1.8,4.9c-1.2-0.1,0,2.7,0.1,3.2c0.4,1.6-1.2,3.2-2.2,4.2
		c-1.4,1.3-2.1,2.9-1.2,4.6c0.3,0.7,0.4,1.5,1.1,2c0.7,0.5,0.8,0.3,0.7,1.2c-0.3,2,1.3,2.5,2.9,1.5c1.7-0.9,2.3-2.3,2.5-4.2
		c0.3-2.4-0.8-3.7-2-5.6c-0.5-0.8-0.9-1.6-1.2-2.5c-0.3-0.8,0.4-1.8-0.2-2.5c0.9,0.1,1.7-1.3,2.4-1.7c1.3-0.7,2.5-1.7,3.9-1.9
		c1.3-0.2,2.3-0.4,3.4-1.1c0.4-0.3,1.7-1.3,2.2-1c-0.1-0.4-0.3-0.7-0.6-1c0.6,0.2,2.2,1.6,2.8,1c0.4-0.5,0-1.6-0.5-1.8
		c-0.9-0.4-2,0.5-2.9,0.5c0.2-1-0.7-6.3,2.3-5c1.3,0.6,1.1,3.5,1.3,4.6c0.5,2.5,3.2,0.8,5,1.5c2,0.7,4.5,1.2,5.4,3.6
		c0.5,1.4-0.9,4.6,1.5,5.1c2.8,0.6,6.4-0.7,9.2-1.1c2.4-0.3,4.9-0.8,6.4,1.3c0.6,0.9,1.5,1.6,2.5,2c0.8,0.3,1.7,0.5,2.5,0.7
		c-0.1,0,2.8,0.6,1.5,0.6c2.3,1.2,3.3-1.4,5.1-1.6c1.1-0.1,1.3-1.2,2.2-1.7c1.2-0.6,2.7,0.5,3.9-0.2c-1.1-1.2-3.7,0.1-4.4-1.4h1.9
		c0.9,0,1.1-0.5,1.8-0.6c0.3,0.1,0.6,0.2,0.9,0.4c0.9,0.2,1.8,0.1,2.7-0.1c3.7-0.6,7.6,0.1,11.2-0.7c-0.6,1.2-2.4,0.9-3.5,1.5
		c-1.7,0.9-3.6-0.5-5.2,0.8c0.5-0.5,1-0.4,1.2,0.3c-0.6-0.1-1.1,0.3-1.1,0.9c1.4-0.8,2.4,0,2.4,1.6c0,1.3-2.1,0.4-2.8,0.4
		c0.5,1.8,3.4,0.5,3.1-1.1c0.8,0.1,1.1,1,1.2,1.7c0.1,0.9,0.9,1.9,0.8,2.8c0.6-0.6,0.8-1.4,0.6-2.2c0.7,0.7,0.8,2.1,0.2,2.9
		c0.8-0.5,0.4-1.6,0.4-2.4c0.4,0.1,0.8,0.2,1.1,0.4c-0.1-0.1-2.5-1.3-1.1-1.2c1.3,0.2,3.1,1.6,2.4,3c0.3-0.6,0.8-0.5,0.4-1.1
		c0.5-0.3,1.1-0.3,1.7-0.1c-1.2-1.4,0.8-0.1,1.2,0.6c0.8,1.3,2.3,0.8,3.3,1.6c2.8,2.2-0.5,2.2-1.2,4.2c0.2-0.3,0.5-0.5,0.7-0.7
		c0.2,1-0.9,2.8-1.4,3.7c-0.3,0.5-0.2,1-0.9,1c-0.6,0-2.5-0.5-2.9,0c0.9,0.5,2.3,0.6,2.8,1.7c0.6-0.7,1.4-1.3,1.5-0.1
		c0.8-0.9,1.4-1.3,2.7-1.6c1.1-0.2,1.6,1,2.6,0c1.8-1.8,5.1,2.6,4.1,3.1c-1,0.5-1.6,1.3-2.4,2.1c-0.8,0.7-2.1,1.1-2.7,1.7
		c-0.4,0.5-0.8,1.1-1.2,1.6c-0.8,1,0.4,1.7,0.3,2.8c-0.1,0.7,0.2,1.5,1,1c1-0.5,1.7,0.7,0.9,1.5c-0.8,0.8-2,1.1-2.8,1.8
		c-0.4,0.4-1-0.2-1.4-0.2c-0.3,0-0.5,0.6-0.9,0.8c-3,1.2,0.1,3.1-1.6,4.8c-0.4,0.5-2,1.5-1.5,2.3c1,1.3,2,2.7,3,4
		c1.3,1.5,3.8,3.9,1.4,5.7c-0.8,0.6-1.3,1.5-2.1,2.1c-0.4,0.3-2.1,0.1-2.2,0.3c-0.4,0.7-1.7,0.6-1.8,1.3c0,0.9-1.6,0.9-2.2,1.2
		c-1.2,0.6-2.6,1.3-3.9,0.7c-0.9-0.4-1.7,0.7-2.6,0.8c-1.1,0.2-1.1,1.4-0.9,2.3c0.4,1.3-0.7,2.3-1.8,1.3c-0.8-0.7-1.1-1.6-1.8-2.3
		c-0.9-1-1.5,0.3-2.4,0c-1.2-0.4-1.7-0.1-2.9-0.2c-1-0.1-0.8,0.3-1.1-0.9c-0.4-1.1-1.8-1.2-2.8-1c-1.3,0.3-1.2-0.9-2.2-1.3
		c-0.8,0.8,0.7,2.7,1.2,3.3c1.5,1.8,2.7,2.1,2.7,4.6c0,0.8,0,1.6,0.3,2.4c0.3,1,1.3,2,1.2,3.1c-0.2,1.8-0.2,2.6,1.9,2.7
		c0.6,0,3.1-0.4,2.9,0.7c-0.4,2.1-1.3,1.3-2.5,2.6c-0.7,0.7-2.4,0.5-2.8,1.3c-0.4,0.8-0.1,1.7-0.7,2.5c-0.5,0.7-1.2,1.3-1.7,2.1
		c0.1-2-2.7,0.8-3.5,1.2c-1.3,0.5-2.2,1-3,2.2c-0.5,0.8-1.7,2.7-2.6,3c-0.6-0.7,0.2-1.6,0-2.4c-0.3-1.3-2.3,0-2.8,0.3
		c-2.9,2.1-4.8,0.1-6.8-2.4c-0.9-1.2-1.1-2.9-1.5-4.2c-0.5-1.6-1.6-3.8-1.6-5.4c0.1-1.3-3.2-5.6-4.8-4.4c-0.1-1.5,2.1-2.9,3.1-3.7
		c1.8-1.4,0.6-2.9-0.7-4.3c-2.8-3.2-1.8-9-1.8-12.8c0-1.4,0.6-1.7,1.5-2.6c0.6-0.6,0-1.7,0.3-2.4c0.3-0.8,1.5-1.2,1.4-2.2
		c-0.1-1.3,0-1.6-1.4-2.1c-1.5-0.6-4.2,0.8-6,0.9c-1.1,0.1-2.3,0.1-3.4-0.1c-1.7-0.3-1.4,0.5-2.8,0.8c0.3-0.1-1.7-0.4-1.5-0.3
		c-0.8-0.5-1.4-2.1-1.9-2.9c-0.7-1.1-1.4-2.1-2-3.3c-0.3-0.6-0.8-1.5-1.6-1.2c-1.5,0.5-2.2-0.9-3.7-1c-0.9-0.1-1.6,0.7-2.5,0.9
		c-1.3,0.3-2.4-0.6-3.7-0.3c-0.8,0.1-1.3-0.4-2.1,0.1c-0.8,0.4-1.9-0.1-2.4-0.8c-0.4-0.6-0.5-1.2-0.6-1.9c-0.2-0.9-1.5-0.6-2-1.2
		c-0.9-1.2,0.2-3.8,1-4.8c1.4-1.9-1.4-3.8-2-5.2c-0.7-1.5,0.1-4.9-2.1-4.3c0-0.5,0-1-0.2-1.5C68,36.9,67.1,37.3,66,37.3"/>
	<path style="fill:#CCCCCC;stroke:#FFFFFF;" d="M158,43.4c-0.7-0.1-1.5-0.3-2.2-0.6C156.5,42.4,157.9,42.3,158,43.4"/>
	<path style="fill:#CCCCCC;stroke:#FFFFFF;" d="M158.7,41.5c0.4-0.7,1.1-1.5,2-1.1C160.4,41.4,159.5,41.2,158.7,41.5"/>
	<path style="fill:#CCCCCC;stroke:#FFFFFF;" d="M158.9,43.1c-0.2-0.2-0.4-0.4-0.6-0.6c0.5,0,1-0.1,1.5-0.3
		C159.8,42.8,159.5,43.1,158.9,43.1"/>
	<path style="fill:#CCCCCC;stroke:#FFFFFF;" d="M159.6,41.9l-0.7-0.3c0.5-0.3,0.9-0.3,1.4-0.1C160.1,41.6,159.8,41.8,159.6,41.9"/>
	<path style="fill:#CCCCCC;stroke:#FFFFFF;" d="M160.5,42.1c-0.1-0.5,0.1-0.6,0.8-0.3C161,41.9,160.8,42,160.5,42.1"/>
	<path style="fill:#CCCCCC;stroke:#FFFFFF;" d="M160.7,39.8H160c0.2-0.5,0.6-0.9,1.2-0.7C161.1,39.3,160.9,39.5,160.7,39.8"/>
	<path style="fill:#CCCCCC;stroke:#FFFFFF;" d="M161.1,37.9c-0.7-0.2-0.7-0.5,0.2-0.7C161.2,37.4,161.2,37.6,161.1,37.9"/>
	<path style="fill:#CCCCCC;stroke:#FFFFFF;" d="M161.2,38.2c-0.7,0.3-1.2,1-1.9,1.4C159.6,38.9,160.4,38.3,161.2,38.2"/>
	<path style="fill:#CCCCCC;stroke:#FFFFFF;" d="M161.4,37.8c0.1-0.3,0.4-0.5,0.7-0.6C161.9,37.4,161.6,37.6,161.4,37.8"/>
	<path style="fill:#CCCCCC;stroke:#FFFFFF;" d="M128.4,22.6l-0.7-0.2c0.2-0.2,0.4-0.4,0.7-0.6C128.7,22.1,128.7,22.3,128.4,22.6"/>
	<path style="fill:#CCCCCC;stroke:#FFFFFF;" d="M137.7,22.8c-0.2-0.5-3.6-1.3-1.8-1.9c0.9-0.3,1,0.7,1.5,0.6
		c0.9-0.1,1.1-1.2,1.9-1.5C139.8,22,139.5,21.8,137.7,22.8"/>
	<path style="fill:#CCCCCC;stroke:#FFFFFF;" d="M147.3,26c0.4,0.5,0.7,1,0.9,1.5C147.7,27.2,147.3,26.6,147.3,26"/>
	<path style="fill:#CCCCCC;stroke:#FFFFFF;" d="M156.3,12.8c-0.8-0.7-0.1-1.7,0.6-2C157.2,11.6,157,12.4,156.3,12.8"/>
	<path style="fill:#CCCCCC;stroke:#FFFFFF;" d="M153.6,29.8c0.8-1.3,3.1-1.1,3.6-2.6c0.3-0.9,0.1-3-1.2-2.9c1-1,2.6-1.2,3.9-1.3
		c2.6-0.2,0.4,1.4,0.6,2.9c0.2,1.4,1,2.7-0.8,3.4C157.7,30.1,155.5,29.1,153.6,29.8"/>
	<path style="fill:#CCCCCC;stroke:#FFFFFF;" d="M162.6,20.3c0.2-0.9,1-1.5,1.8-1.7C164.5,19.6,163.2,19.9,162.6,20.3"/>
	<path style="fill:#CCCCCC;stroke:#FFFFFF;" d="M93.5,8.7c-0.1-0.2-0.2-0.5-0.4-0.7c0.8-0.3,1.1,0.8,1.2,1.4
		C94.1,9.1,93.8,8.9,93.5,8.7"/>
	<path style="fill:#CCCCCC;stroke:#FFFFFF;" d="M102.8,12.5c-1.2-0.3-2.9-1.4-2.9-2.8C100.5,9.8,102.6,11.9,102.8,12.5"/>
	<path style="fill:#CCCCCC;stroke:#FFFFFF;" d="M106.5,12.7c-0.2-0.4,0.1-1.5-0.4-1.7c-0.4-0.2-0.6-0.1-0.5-0.8
		C106.5,10.9,107.7,11.5,106.5,12.7"/>
</g>
<g id="Colombia" transform="translate(-17.178 -5.4121)">
	<path style="fill:#CCCCCC;stroke:#FFFFFF;" d="M21,103c-0.3-0.1-0.5-0.1-0.8-0.2c0.3-1.7,2.1-2.3,3.5-1.4c0.8-1.5-1.1-2.9-0.4-4.3
		c1-1.9,3.1-1.8,4.9-2.1c0.3-0.1,0.2-0.9,0.7-0.6c0.3,0.2,1.1,0.4,1.1-0.2c0-1.2,1.6-2.7,0.6-3.5c1.7,0,2-2.3,2.5-3.4
		c0.4-0.9,1.2-1.6,2-2.1c-1-0.8,0.2-1,0.5-1.8c-0.7,0-1.6,0.6-1.9-0.4c0.6-0.1,1-0.6,0.9-1.2c-0.5-0.2-1.7,1.3-1.8,0.1
		c-0.1-1.2,0.6-1.4,1.5-1.9c-1.4,0-0.8-1.9-0.6-2.7c0.4-1.6,0-3.6-0.1-5.2c-0.1-1.2-0.6-2.3-0.7-3.5c0-0.7,2-0.9,1.7-2.4
		c-0.2-0.9-2.3-3-0.9-3.5c1.3-0.5,0.2-3.1-0.4-3.7c-1.1-1.2-1.2-3.1-2.4-4.1c-0.8-0.7,0-1.5,0.5-2.2c0.5-0.7,0-1.7,0.7-2.4
		c0.4,0.4,0.6,0.9,0.8,1.4c1.5-1.1,3.7-3.2,3-5.3c-0.7-2.1-2.1-2.6-0.8-4.6c0.7,1,1.6,2.3,2.2,3.3c0.7,1.1,2.3,1.4,0.8,2.8
		c2,2.2,1-4.2,0.7-4.9c-0.4-1,4.2-3.3,4.8-4.1c0.7-1,1.3-2.7,2.5-3.2c0.7-0.3,2.3-0.1,2.7-0.9c0.6-1.1-0.5-1.5-0.3-2.2
		c0.4-1.2,0.6-2.7,1.3-3.8c-1.1-0.1-0.8-0.5-0.1-0.8c0.7-0.3,0.4-1.2,0.4-1.8c0-1.3,2.2-1.7,2.2-2.2c0-0.7,2.7-3.4,3.3-3.4
		c1.3,0,2.3,1.1,3.6,1.2c-1.1-0.1-0.9,1-1.9,1c0.7,2.7,2.3-0.9,2.7-1.9c0.9-2.4,2-2.3,4.6-1.8c3.5,0.6,4.6-1.7,7.4-3.4
		c1.5-0.9,6-2,4.6-4.6c0.6-0.2,2.2-0.7,1.3,0.5c1.1-0.2,0.4-1.2,1.6-1.8c1.4-0.6,2.7-0.6,3.9,0.4c4.2,3.5-4.8,4.9-6.1,6.6
		c-0.7,0.9-1,2.2-1.8,3c-0.6,0.6-1.5,0.4-2.1,1c-1,1.1-2,2.8-2.7,4.2c-0.9,2-1,4.1-1.5,6.2c-0.5,2.1-2,4.6-3.4,6.2
		c1.1,0,2-0.4,2.9-1.2c0.2,0.5,0.3,1,0.2,1.5c2.2-0.6,1.4,3.3,2.6,4.7c1.6,2,2,3.2,1.1,5.7c-0.5,1.2-1.2,3.9,0.5,4.5
		c1.9,0.7,0.9,3,2.9,3.4c0.8,0.2,1.6-0.3,2.3-0.4c1.3-0.1,2.4,0.7,3.7,0.6c1.1-0.1,2.1-0.9,3.2-0.9c1,0,1.8,1,2.8,1.2
		c0.7,0.2,1.4-0.4,2,0.1c0.9,0.7,1.4,2.1,2.1,3c0.6,0.9,1.1,1.7,1.6,2.6c0.7,1.2,1,0.8,2,1.1c1.5,0.4,2.9-0.8,4.8,0
		c0.6,0.2,1.9-0.4,2.6-0.4c1.4,0,2.6,0.1,3.8-0.7c1.4-0.8,3.7,0.8,3,2.3c-0.4,0.8-1.4,1.5-1.6,2.4c-0.2,1.2,0.2,1.8-0.9,2.5
		c-1.5,1-0.9,5-1,6.7c-0.2,1.9,0.6,4,1,6c0.3,1.5,3.2,3.6,2.8,5.2c-0.6,1.9-4.2,2.7-4.2,5c1.3-1,4.6,2.6,5,3.7
		c-0.1,0.3-0.2,0.6-0.2,0.9c0.2,0.6,0.7,1.1,0.7,1.7c0,1.2,0.7,2.6,1,3.8c0.2,1,1.3,3.4,0,3.6c-1.2,0.1-0.9-1.1-0.8-1.9
		c0.2-1.2-1.2-6.7-2.9-6.1c-0.9,0.3-3.7,5.1-4.4,2.3c-0.3-1-1.6-1.5-1.5,0c0.2,1.7-2,1.1-3.2,1.1h-5.2c-1.2,0-2.4-0.7-3.5-0.2
		c-1.7,0.7-0.3,4.5-0.5,5.9c1.4-0.9,4.6-0.1,5.2,1.4c0.2,0.6,0.4,2.4-0.7,2.3c-0.7-0.1-1.1-0.9-1.8-0.8c-1.6,0.3-4.3,0.7-4.4,2.5
		c-0.1,2.2-0.3,5.3,1.6,6.8c1,0.7,2.1,1.4,2.1,2.8c0,1.3,0.6,1.8,1.2,3c1.2,2.6-0.3,6-0.7,8.7c-0.9,6.3-0.7,13.1-2.7,19.2
		c-0.5-1.2-1.4-2.2-2.2-3.1c-0.9-1-2.1,0-3.2-0.6c-1-0.6,1.6-4.5,2-5.1c0.7-1.2,3-3.5,1.9-4.7c-0.5-0.5-1.3-1.8-2-1.5
		c-1.2,0.5-2.3-1.4-3.1-1.9c-1.4-0.8-1.6-0.1-2.9,0.5c-1.3,0.6-2.5-0.5-3.5-1.1c-1.1-0.8-3.2,1.7-4.5,2.2c-0.8,0.3-2.4-0.2-3.4,0
		c-1.4,0.2-2.1-0.1-3.2-1c-0.9-0.7,0-2.3-0.3-3.3c-0.4-1.4-2.6-0.6-2.9-2c-0.2-1-0.4-2.2-0.8-3.1c-0.4-1-1.9-0.8-2.5-1.6
		c-0.7-0.9-1.1-0.9-2-1.2c-1.1-0.4-1.5-2.1-1.6-3.1c-0.2-1.9-3.9-4.7-5.7-5.3c-0.3-0.1-0.7-0.7-1-0.2c-0.3,0.5-0.3,0.7-1,0.4
		c-1-0.5-2.6-1-3.5-1.7c-0.7-0.5-4.1-4.7-4.5-1.8c-0.2,1.5-5.5-0.3-6.6-0.5c-1.9-0.3-0.5-1.9-1.9-2.5c-1.2-0.5-0.7-1.5-2.2-1.6
		c-1.2,0-3.4-1.7-4.3-2.4C23.7,105.8,22.2,104.6,21,103"/>
	<path style="fill:#CCCCCC;stroke:#FFFFFF;" d="M29.5,94.4c0.5-0.3,0.4-0.6-0.4-0.7C29.2,93.9,29.3,94.2,29.5,94.4"/>
	<path style="fill:#CCCCCC;stroke:#FFFFFF;" d="M31.7,89.4c-0.2,0.2-0.5,0.5-0.6,0.7C31.8,90.3,32,90.1,31.7,89.4"/>
	<path style="fill:#CCCCCC;stroke:#FFFFFF;" d="M32.3,80.5c0.2,0.3,0.4,0.5,0.6,0.8C32.8,81,32.6,80.8,32.3,80.5"/>
	<path style="fill:#CCCCCC;stroke:#FFFFFF;" d="M33.7,72l0.1-0.8C33.8,71.5,33.8,71.8,33.7,72"/>
	<path style="fill:#CCCCCC;stroke:#FFFFFF;" d="M27.2,94.9c-0.2-0.3-0.3-0.5-0.4-0.9C27.4,94.1,27.8,94.5,27.2,94.9"/>
	<path style="fill:#CCCCCC;stroke:#FFFFFF;" d="M27.2,94.9C27.5,95.1,27.4,95,27.2,94.9"/>
	<path style="fill:#CCCCCC;stroke:#FFFFFF;" d="M30,94.3c-0.2-0.2-0.4-0.5-0.6-0.7C29.9,93.6,29.9,93.8,30,94.3"/>
	<path style="fill:#CCCCCC;stroke:#FFFFFF;" d="M33.4,79.3c0.3,0.2,0.5,0.4,0.8,0.6c-0.5,0.3-1,0.4-1.5,0.2
		C32.8,79.7,33,79.5,33.4,79.3"/>
	<path style="fill:#CCCCCC;stroke:#FFFFFF;" d="M33.8,79.6c0.1,0.1,0.2,0.1,0.3,0.2C33.9,79.8,33.8,79.7,33.8,79.6"/>
	<path style="fill:#CCCCCC;stroke:#FFFFFF;" d="M59.4,21.7l0.6-0.2L59.4,21.7"/>
</g>
<g id="Suriname" transform="translate(-17.178 -5.4121)">
	<path style="fill:#CCCCCC;stroke:#FFFFFF;" d="M183.5,85.8c-0.8-0.5-2.6-3.5-2.6-4.4c0-1.4,2.4-4.1,1.7-5.4c-1.2-2.4,2-2.5,3.6-2.7
		c0.9-0.1,2.1-2.2,0.5-2.6c1.6-1.9,1-6.2,4.5-5.7c1.1,0.2,7.1,0.7,6.5,2.6c0.8-1.5-0.4-2.6,2-2.6c0.9,0,3.8-0.1,3.9,1.3
		c0.5-0.6,1.4-0.3,2-0.3c-0.2-0.1-2.1-0.8-1.8-1c1.3-0.9,4.8,0.5,6.2,0.7c2.5,0.4,2.4,2.2,1.3,4c-1.2,2-2.8,3.1-2.7,5.7
		c0.1,2.2-0.2,4.9,0.9,6.9c0.9,1.6,3,3,1.8,5c-0.4,0.7-1,1.3-1.2,2.1c-0.2,0.8,0.2,1.6,0,2.5c-0.4,1.6-1.5,3.4-2.6,4.6
		c-0.4,0.4-2.8-1.2-3.1-1.5c-1-1.2-3,0.3-4.4,0.5c-1.1,0.2-1.3,0.5-2.3-0.1c-1.1-0.6-0.9,0-1.4,0.6c-1.5,1.6,0.4,1.5,0.7,3.3
		c0.4,2.2-3.3,1-4.1,0.4c-0.6-0.4-1.6-0.5-2.1-1c-0.5-0.6-0.7-1.5-1.1-2.2c-0.7-1.4-2.5-3.6-2.5-5.2c0-0.6-0.2-3.7-1-3.8
		c-0.5-0.1-1.5,0.7-1.9,0.1C183.9,87,184.2,86.3,183.5,85.8"/>
</g>
<g id="Guyana" transform="translate(-17.178 -5.4121)">
	<path style="fill:#CCCCCC;stroke:#FFFFFF;" d="M156.1,65.2c1.5-1.6,2.2-2.2,1.7-4.3c-0.4-1.5,0.3-2.2,1.7-2.3
		c0.7-0.1,0-0.9,0.9-0.7c1,0.3,1.3-0.3,2.2-0.6c0.7-0.2,1.6-0.7,1.9-1.4c0.3-0.6-0.3-1.6-1-1.4c-1.8,0.6-0.7-1-1.5-2
		c-0.7-0.9,0.2-1.8,0.8-2.6c0.7-0.9,0.8-0.5,1.8-1.1c1.4-0.7,2-2.5,3.2-3.2c1.7-1,0.5-1.5-0.3-2.9c1.2,1.4,2.7,2.3,4.1,3.5
		c-0.7-1-2-1.2-2.5-2.4c1.7,0.8,3.4,1.8,4.6,3.2c1,1.1,2.3,3.2,3.5,4c1.4,0.8,1.7,3.4,1.2,4.7c-0.4,1-0.9,1.7-1,2.8
		c-0.1,1-0.1,2-0.7,2.8c1.9-0.3,0.5-5,3.4-4c2.2,0.8,4.9,2.4,5.4,4.9c1.4-1.3,2.5,1.4,2.7,2.4c0.4,1.8-0.3,4.5-1.5,5.9
		c1.9,0.5-0.2,1.5,0.3,2.5c-1.2,0.2-5.3-0.1-4.7,2.2c0.6,2-1,3.3-1.3,5.3c-0.2,1.3,1.2,4,2.2,4.9c1,0.9,0.3,2,1.8,2.2
		c0.3,0,1.1-0.3,1.3,0c0.6,1,0.7,2.1,0.9,3.2c0.3,2,2.4,3.7,2.4,5.7c0,2,2.3,2,3,3.2c-2.5,1.6-4.9-1.6-7.2,0.3
		c-0.4,0.3-0.6,0.8-1,1.1c-0.6,0.7-1.5,0.4-2.3,0.6c-1.4,0.5-1.5,1.2-3.2,1.2c-0.5,0-0.8,0.4-1.2,0.8c-0.3,0-0.5,0.1-0.7,0.3
		c0.1,0.3,0.1,0.6,0.1,0.9c-0.4,0.7-2.5,1.1-3.2,0.8c-0.5-0.2-0.2-0.8-0.9-0.8c-0.6,0-1.8-0.4-2-1.1c-0.4-1-1.8-2.5-2.9-2.7
		c0.1-0.2,0.2-0.5,0.3-0.7c-1,0.1-0.9-0.8-0.8-1.5c0.2-1.2-0.1-1.7-0.8-2.5c-1.2-1.4-1.1-4.2-0.8-5.9c0.3-1.3,1.3-2.5,1.3-3.9
		c0-1.2,0.3-1.1,1-2.1c0.4-0.6,1.4-1.8,1-2.5c-0.3-0.6-1.2-1.5-1.2-2.2c0-0.7,0.4-1.4-0.4-1.7c-0.6-0.2-2-0.3-2.3-0.8
		c-0.3-0.5,0.8-2.2,0.9-2.8c0.2-1.1,0-2.3-0.8-3c-1.2-1.1-3.2,0.6-4.7-0.1C159.1,70.6,156.9,67,156.1,65.2"/>
</g>
</svg>
