<?xml version="1.0" encoding="utf-8"?>
<!-- Generator: Adobe Illustrator 27.0.1, SVG Export Plug-In . SVG Version: 6.00 Build 0)  -->
<svg version="1.1"
	 id="Layer_1" xmlns:inkscape="http://www.inkscape.org/namespaces/inkscape" xmlns:sodipodi="http://sodipodi.sourceforge.net/DTD/sodipodi-0.dtd" xmlns:svg="http://www.w3.org/2000/svg" xmlns:cc="http://creativecommons.org/ns#" xmlns:dc="http://purl.org/dc/elements/1.1/" xmlns:rdf="http://www.w3.org/1999/02/22-rdf-syntax-ns#"
	 xmlns="http://www.w3.org/2000/svg" xmlns:xlink="http://www.w3.org/1999/xlink" x="0px" y="0px" viewBox="0 0 930 501.7"
	 style="enable-background:new 0 0 930 501.7;" xml:space="preserve">
<sodipodi:namedview  bordercolor="#666666" borderopacity="1" gridtolerance="10" guidetolerance="10" id="namedview123" inkscape:current-layer="Layer_1" inkscape:cx="600" inkscape:cy="615" inkscape:pageopacity="0" inkscape:pageshadow="2" inkscape:window-height="716" inkscape:window-maximized="1" inkscape:window-width="1366" inkscape:window-x="-8" inkscape:window-y="-8" inkscape:zoom="0.40406504" objecttolerance="10" pagecolor="#ffffff" showgrid="false">
	</sodipodi:namedview>
<g id="g3248">
	<path id="Aegypten" inkscape:connector-curvature="0" style="fill:#CCCCCC;stroke:#000000;stroke-linecap:round;" d="M690.1,264.6
		l132-3.9l4.3,4.2l8.7-1.1l0.9-7.4l9.7-2.7l2-9.1l4.2,1.4l5.3-5.6l-2.9-14.3l4.6,0.2l-11.2-10l-30.8-50.9l-0.1-6.2
		c-7.3-4.8-12.7-10.8-15.9-18.3l-0.3-4.7l-4.7-3.4l1.2-7.5l13.8,18.5c1.2,1.4-0.2,2.4,1,4c3.6,5,9.8,10,13.5,13c1.9-0.6,4.1-0.2,5-4
		l3.6-24l-16.2-33c-10.9,7.7-21.9,10.7-32.8-0.7l-13.4,1c-3.1,1.3-6.3,3.3-8.1,0.1L741.9,113l-35.7-8c-5.4-1.1-11.1-2.9-15.5-2.1
		c-4.5,2.8-7.8,0.6-11-1.5c-1.8,3.2-3.8,6.4-2,8.3l1.4,13c-3.2,5.1-6.1,10.3,3.9,22.3L690.1,264.6L690.1,264.6z"/>
	<path id="Algerien" inkscape:connector-curvature="0" style="fill:#CCCCCC;stroke:#000000;stroke-linecap:round;" d="M164.6,137.6
		l16-8l3.3,1.2l5.5-4.8l9.2,0.8l0.5-4.3c19.1,0.9,23-4.2,26.4-9.3l16-6.6l5.9,0.2l-3.1-4.1l0.8-3.2l-0.1-5.3c6.2-0.8,14,0.2,14-6.3
		l25.8,0.4l3.6-7.4c-5-1.8-5.8-9-5.2-16.6c0.5-5.7,0-18.5,0-18.5c-1.7-2.1-3.8-4-4.3-7c1.4-0.6,7.9,0.4,11.8-4.8
		c2-2.7,4.6-8.2,8-7.1c4,1.3,11.5,2,12-0.5c0.5-2.7,7.8-8.6,18.4-8.6c19.4,0.1,44.5-7.3,52.7-4.9c8.2,2.4,18.9-3.2,23.6-2.9
		c4.8,0.3,6.2,5.5,12.7,1.1c2.4-1.7,11.2,5.2,19.6,2.8c0,0-5,2.2-5.3,7.3c-0.4,7.9-1.2,32.5-1.2,32.5c-0.8-1.3-6.8-0.3-7.7,3.7
		c-1.3,5.5-7.4,4-7.9,6.8c-1,5.5,3.9,10.6,9.6,15.6c1.5,1.3-0.5,8.3,0.9,9.6c4.4,3.9,12.2,6.6,12.2,6.6c1.8,18.1,5,30.6,5,30.6
		c-8.3,0.6-3.9,8.2,1.7,16.4l0.3,47c0,0-7.5,1.5-7,3.4c1.2,4.3,1.4,7.5,6.9,12.4c3.5,3.1,3.6,8.4,3.3,11.9c-0.3,4,3.7,5.8,4.7,5.8
		c8.2-0.2,15.1-4.2,22.9,17.2L378,305.4c-14.6,6.3-38.6,10-39.5,9.7c-5.5-2.4,0.9-8.4-1-12.5c-1.8-4-4.1-7.1-10.3-6.4
		c-3.3,0.4-5.1-3.9-6.4-3.7c-5.3,0.9-6.7-5.2-7.9-6.2c-4.7-4.3-9.3-5.5-8.2-9.4L161.1,167.3L164.6,137.6L164.6,137.6z"/>
	<path id="Libyen" inkscape:connector-curvature="0" style="fill:#CCCCCC;stroke:#000000;stroke-linecap:round;" d="M474,78.6
		c0,0,2.5,9.7-5,15c-3.8,2.7-16,11.7-16,11.7c1,5.5,2.3,19.3-9.6,21.1c-8.2,1.3-3.9,7.9,1.6,16.9l0.3,46.8c0,0-7.3,1.4-6.8,3.4
		c1.2,4.3,1.2,7.4,6.7,12.3c3.5,3.1,3.6,8.8,3.3,12.2c-0.3,4,4.1,5.7,5.2,5.7c8.2-0.2,14.7-4.1,22.5,17.3l38.6,1.2
		c4.5,1,9.3,7.8,9.3,7.8l22.1-6.3l130,64.3l-0.2-10.4c14.4,1.2,16-0.5,16-0.5L683,145.2c-5.2-7.2-10.4-14.2-4.1-22.1
		c0,0,0-8.4-1.5-13.2c-1.6-5,2.9-8.4,2.9-8.4c-0.1-6.4-12.4-6-18.9-6.3c-8.5-0.4-14.3-1.6-12.8-8c0,0-22.3-8-31-2.7
		c-4.6,2.8-14.3,7.3-16,13c-1.2,3.9-0.1,6.5,2.2,10.4c4,6.9-9.6,30.5-25.2,11.6c0,0-20.5-5.6-32-8.2c-11.3-2.5-19.1-12.4-14.4-18.4
		c0.5-0.6-30.7-9.6-30.7-9.6C487.1,85.6,476.6,81.4,474,78.6L474,78.6z"/>
	<path id="Marokko" inkscape:connector-curvature="0" style="fill:#CCCCCC;stroke:#000000;stroke-linecap:round;" d="M162.5,157.5
		l2.6-19.7l15.5-8l3.5,1l5.5-4.5l9.1,0.7l0.5-4.4c19.1,0.9,22.9-4.2,26.3-9.3l16-6.5h6l-3-4l1-3.7l-0.5-4.8c6.2-0.8,14,0.2,14-6.3
		l25.9,0.4l3.5-8c-5-1.8-5.8-9-5.2-16.6c0.5-5.7,0-18.5,0-18.5c-1.7-2.1-3.8-4-4.3-7c-4.2-0.8-9.3-0.9-11-3.4c-6-1-12-1.6-17.4-1
		c-9.9,1-14-2.6-18-11.9c-9.5-0.6-19.6,19.8-27,30c-17.8,4.9-30.6,12.9-39.4,23.5c1.2,4.3-0.9,5.9-5.2,8.7
		c-2.8,1.8-12.6,17.5-9.3,26.2c0,6.8-5.3,18.2-20.6,25.8c0,0-7.1,6.7-18.4,10.3c-4.8,1.6-15.8,2.8-19.1,5.9L162.5,157.5L162.5,157.5
		z"/>
	<path id="Sudan" style="fill:#CCCCCC;stroke:#000000;stroke-linecap:round;" d="M857.5,240.4l-5.4,5.5l-4.5-1l-2.1,9l-9.7,2.5
		l-0.9,7.3l-8.5,1l-4.1-4.2l-132.1,4l1.6,33.1c-5.6,0.4-11.4,0.4-16-0.2l0.2,10.5l1.5,62.6l-17.9,1l0.2,6.7l-10.2,13l0.7,9.2
		L647,402c-0.3,5.8-1,10.8-3.4,12.4l0.1,7.5l7.5-1.6c1.5,8.4,1.9,17.2,8.9,23.6l0.9,5.6l-3.3,0.5c5.6,7,12.1,13.6,15.8,21.6
		c-6.3,19.4,2.6,16.7,8.1,19.1l0-0.3l14.5-28.4h8h5.5l4.5,8.6l6.5-0.6h19.6v-7.4l20.4,0.7l0.2,5.8l9.3-3v-5.7l10.7-3.9l16.2,10.6
		l17.2-22l-1-13.9l-5.9-4.4h11.4V421l6.5,2.6l6,33.5l7.5,2.8l4.5,8.5v11.8l7.7-2.8h0l-0.2-20.4l5-7.5l5.1,0.1l2.5-12.9
		c6-7.4,8.4-16.9,18.1-22.3l3.1-24.4c-1.8-17.2,3.5-32.1,6-47.9c2.5-1,5.3,0.9,7.4-3.9l11.2-5.7c2.2-1.5,2.9-4.9,3.6-8.4
		c-1.5-3.4-3.7-2.8-5.7-3.2c-3.3-6.3-8.8-6.9-13.5-9.3l-6.6-40.1l-5.2-5.6C882.7,251.6,865.8,249,857.5,240.4z"/>
	<path id="Tunesien" inkscape:connector-curvature="0" style="fill:#CCCCCC;stroke:#000000;stroke-linecap:round;" d="M459.1,10.2
		c-3,0.1-14.8-6.1-21.5,3.6c0,0-5,2.2-5.3,7.3c-0.4,7.9-1.2,32.5-1.2,32.5c-0.8-1.3-6.8-0.3-7.7,3.7c-1.3,5.5-7.4,4-7.9,6.8
		c-1,5.5,3.9,10.7,9.6,15.6c1.5,1.3-0.5,8.3,0.9,9.6c4.4,3.9,12.2,6.6,12.2,6.6c1.8,18.1,5,30.6,5,30.6c1.2,0.7,13.8-3.6,9.5-21.3
		c-0.5-2.1,25.9-10.6,21.1-27.1c-0.5-1.7-4.8,0.3-5.5-2.8c-1.6-7-1.4-8.7-4-9.8c-1.3-0.5-6.9,4.8-8,4.1c-2.5-1.5-5.6-5-4.3-6.8
		c2.3-3,19.2-13.4,19.3-19.2c0.3-8.6-2.9-9.4-7.1-11.7c-2.4-1.3-1.5-5.3-0.8-7.7c0.5-1.4,9.6-4.5,8.5-7.8c-0.7-2.2-2-2.6-2.5-4.3
		c-0.4-1.3-7.2,5.9-7.7,4.8C460.8,14.1,460.5,12.3,459.1,10.2L459.1,10.2z"/>
	<path id="Westsahara" inkscape:connector-curvature="0" style="fill:#CCCCCC;stroke:#000000;stroke-linecap:round;" d="M80.1,262.9
		c2.1-14.7-7.1-35.4,21.5-35.9l6-44.4l50.9,4.5l3.9-30l-68.1-5c-6.3,9.7-10,17.9-19.5,21.7c-9,3.6-12.5,14.7-15.1,24.3l-26.8,30.7
		c-1,7-5,11.6-10.4,15.2c-4.9,6.4-7.9,14.4-8.6,21.4l6.8-6.2C20.6,259.1,80.1,262.9,80.1,262.9z"/>
</g>
</svg>
