<?xml version="1.0" encoding="utf-8"?>
<!-- Generator: Adobe Illustrator 27.0.1, SVG Export Plug-In . SVG Version: 6.00 Build 0)  -->
<svg version="1.1"
	 id="svg3157" xmlns:sodipodi="http://sodipodi.sourceforge.net/DTD/sodipodi-0.dtd" xmlns:rdf="http://www.w3.org/1999/02/22-rdf-syntax-ns#" xmlns:svg="http://www.w3.org/2000/svg" xmlns:inkscape="http://www.inkscape.org/namespaces/inkscape" xmlns:dc="http://purl.org/dc/elements/1.1/" xmlns:cc="http://creativecommons.org/ns#"
	 xmlns="http://www.w3.org/2000/svg" xmlns:xlink="http://www.w3.org/1999/xlink" x="0px" y="0px" viewBox="0 0 438.6 336.7"
	 style="enable-background:new 0 0 438.6 336.7;" xml:space="preserve">
<style type="text/css">
	.st0{fill:#C0C0C0;stroke:#FFFFFF;stroke-width:0.4024;stroke-miterlimit:4.0246;}
	.st1{fill:#C0C0C0;stroke:#FFFFFF;stroke-width:1.723299e-03;stroke-miterlimit:10;}
	.st2{fill:#C0C0C0;stroke:#FFFFFF;stroke-width:1.722869e-03;stroke-miterlimit:10;}
	.st3{fill-rule:evenodd;clip-rule:evenodd;fill:#C0C0C0;stroke:#FFFFFF;stroke-width:0.4024;stroke-miterlimit:4.0246;}
	.st4{fill-rule:evenodd;clip-rule:evenodd;fill:#C0C0C0;stroke:#FFFFFF;stroke-width:0.2012;stroke-miterlimit:4.0246;}
</style>
<sodipodi:namedview  bordercolor="#666666" borderopacity="1" gridtolerance="10" guidetolerance="10" id="namedview3085" inkscape:current-layer="layer1" inkscape:cx="538.32993" inkscape:cy="212.63315" inkscape:pageopacity="0" inkscape:pageshadow="2" inkscape:window-height="706" inkscape:window-maximized="1" inkscape:window-width="1366" inkscape:window-x="-8" inkscape:window-y="-8" inkscape:zoom="11.313709" objecttolerance="10" pagecolor="#ffffff" showgrid="false">
	</sodipodi:namedview>
<g id="layer1" transform="matrix(1.0020524,0,0,1.0020524,0.25102907,-0.17691186)">
	<path id="is" class="st0" d="M143.9,134.9c-0.3-0.1-6.3-3-6.6-3.2c-0.4-0.3,0.8-0.7,1.1-1c0.3-0.5,0-1.9,0.5-1.7
		c0.8,0.3,0.3,1.5,0.8,2.1c0.1,0.2,0.2-0.5,0.5-0.5c0.8-0.1,1.6,0.6,2.3,0.3c2.9-1.1-0.9-2.2,2.6-2.4c0.7,0,1.3,0.5,2,0.6
		c0.5,0.1-0.8-0.7-1.1-0.8c-0.2,0-0.4,0-0.6,0c-0.8-0.1-1.5,0.1-2.2-0.2c-0.5-0.3,1.1,0.2,1.5-0.2c0.2-0.2-0.8-0.3-0.7-0.6
		c0-0.5,0.4-0.8,0.8-1c0.3-0.1,0.8,0.2,1.1,0.2c0.7-0.1,1.4-0.2,2-0.7c0.3-0.2-0.8-0.1-1-0.3c-0.3-0.1-2.6,1-3.3,0.9
		c-0.5-0.1,0.3-1,0.4-1.5c0-0.6-0.4-1-0.3-1.6c0.1-0.6,1.1-0.9,0.9-1.6c-0.1-0.4-0.9,0.2-1.3,0c-0.3-0.1-0.2-0.8-0.5-0.7
		c-0.1,0.1,0.3,0.6,0.1,0.5c-0.8-0.4-1.5-1.6-2.2-2.1c-0.1-0.2-0.4-0.1-0.6-0.1c-0.2,0-0.4,0.3-0.5,0.2c-0.2-0.1-0.1-0.6-0.4-0.7
		c-0.4-0.2-5.5-0.2-1.8-2c1-0.5,0.8,0.5,1.8,1c0.8,0.5,2.2-0.8,3-0.3c0.4,0.2-0.7,0.9-0.3,1.2c0.3,0.3,0.5-0.6,0.8-0.7
		c0.7-0.2,1.4-0.6,2-0.2c0.4,0.4-0.2,1.1-0.1,1.6c0,0.3,0-0.5,0.1-0.6c0.5-0.6,7.5,4,5.1,0c-0.4-0.6-1.3,0.5-2.1,0.4
		s-1.5-1.1-1.9-1.9c0,0,0.1-0.1,0.2-0.2c1-0.8,2.7-0.9,3.8-1c0.6,0,1.2,0.6,1.6,0.1c0.8-0.7-2.8-0.4-2.7-1.4
		c0.1-0.7,1.9-0.4,1.9-1.1c-0.1-4.4-3.3,0.5-3.5-0.4c-0.1-0.6,0.4-1.1,0.2-1.6c-0.1-0.2-0.4,0.4-0.6,0.4c-0.2,0,0.2-0.5,0-0.5
		c-0.7,0.2-0.7,1.3-1.1,0.1c-0.1-0.1,0.1-0.5,0-0.5c-0.4,0.3-0.4,0.9-0.8,1c-0.3,0-0.2-0.7-0.5-0.8c-0.6-0.2-3.2,1.1-3.3-0.4
		c0-0.3,0.5-0.3,0.5-0.6c-0.3-0.8-2.5-0.8-2.3-1.7c0.8-3.9,3,1.7,3.5,1.4c1.3-0.8-1.5-3.6,0.4-3.6c1.7-0.1,0.6,6.3,2.7,3.4
		c0.3-0.4-1.1-0.8-0.8-1.1c0.4-0.5,1.4,0.6,1.9,0.1c0.3-0.5-1.2,0-1.6-0.4c-0.6-0.6-0.8-1.4-0.8-2.2c-0.4-3.2,1.8,2.9,2.6,2
		c0.3-0.3-2.9-2.8-1.5-3.5c0.7-0.3,1.1,1.5,1.8,1.2c0.4-0.3-1.8-3.3,0.9-2.3c2.3,0.8-0.3,4.8,2.3,6.4c0,0.1,1.6-0.7,1.7-2.5
		c0-0.4-0.6-0.2-0.8-0.5c-0.3-0.3-1.3-2.1-0.9-2.6c0.7-0.8,2,0.7,2.9,1.1c0.3,0.1-0.8-0.2-0.8-0.5c-0.1-0.3,0.5-0.2,0.7-0.3
		c0.1-0.1,0.1-0.3,0-0.3c-1.2,0.1-1.1,2-2.5-1.1c-1.2-2.7,1.4-0.7,1.5-0.7c0,0,0.1-0.1,0.1-0.2c0-0.2-0.2-0.6,0-0.5
		c0.3,0.3,0.3,0.8,0.7,1.1c0.4,0.3,1,0.2,1.4,0.5c0.9,0.8-0.5,1.7-0.4,2.2c0,0.2,0.5,0,0.7,0.1c0.1,0.1,0.8,0.7,0.6,1
		c-0.2,0.1-0.7,0-0.6,0.2c0.2,0.4,0.9,0.3,0.9,0.8c0.1,0.7-0.8,1.3-0.7,2c0.2,0.6,1.6,0.2,1.5,0.8c0,0.6-1.4-0.4-1.6,0.1
		c-0.1,0.5,4.2,2.3-0.1,3c-0.8,0.2-1-1.1-1.8-1.4c-0.3-0.1,0.1,0.6,0.3,0.8c0.2,0.8,1,1.4,0.8,2.1c-0.2,0.8-1.6,0.8-1.7,1.5
		c-0.2,0.5,1.1,0.2,1.2,0.7c0.2,0.5-0.6,0.9-0.8,1.4c-0.2,0.6-0.8,1.7-0.3,1.8c2,0.4,1.9-3.6,3.1-4.2c3.8-2.1,1.2,0.6,1.1,0.9
		c-0.6,2.3,2.3-0.2,2.4-0.4c1.2-1.3,0.8-5.1,1.7-5c3.3,0.3,0.4,4.4,2.3,5.9c1.5,1.3,0.7-1.7,1-2.4c0.1-0.5,0.5-1,0.9-1.2
		c0.3-0.1,0.7,0.1,1,0.3c0.1,0.1,0.1,0.4,0.2,0.4c0.8-0.2,1.5-1.2,2.2-0.8c0.7,0.3,0.6,1.3,0.7,2.1c0,0.5-0.6,0.8-0.5,1.2
		c0.5,2.3,1.6-1.7,0.9,1.8c-0.3,2-0.9,0.9-0.5,2.7c0.8,3.2,0.8-6.1,1.7-6.3c2.4-0.7,1.9,3.4,2.1,4.3c0,0.2,0-0.5,0.2-0.6
		c0.1-0.1,0.5,0,0.4-0.1c-0.6-1.2,0.2,0.6,0.2,0.6c0.1,0,0.1-0.3,0.2-0.4c0.5-0.8,1.4-2.1,2.4-2.2s0.9,2.1,1.8,2.6
		c0.4,0.2-0.2-0.8,0.1-1.1c0.6-0.7,0.9,0.8,0.9,0.8c0.1,0.2-0.1-0.5,0-0.7c0.2-0.3,0.7-0.5,0.8-0.8c0.2-0.4,0-0.8,0-1.3
		c0.1-0.6,0-1.3,0.5-1.6c0.7-0.3,1.3,0.2,2,0.4c1.7,0.4,0.3,1.1,0.5,1.8c0.2,0.4,0.8,0.3,0.9,0.6c0.7,1.4-2.8,1.8,0.3,3.5
		c0.4,0.2,0.4-0.8,0.8-1c0.4-0.2,0.8,0.2,1.2,0c0.8-0.3,1.8-2.3,3-0.1c0.2,0.4-0.8,0.2-1.3,0.3c-1.4,0.3-2,0.1-2.9,1.6
		c-0.1,0.2,0.5,0.2,0.5,0.4c0.1,0.3-0.5,0.5-0.3,0.6c0.5,0.4,1.3,0.1,1.8,0.5c1.5,1.1-2.1,3.2-2.3,3.4c-0.2,0.1,0.4-0.3,0.7-0.2
		c0.7,0.2,1.3,0.7,1.9,1.1c0.1,0.1-0.5,0.1-0.5,0.3c0,0.3,0.5,0.6,0.5,0.8c0,0.2-0.4-0.1-0.5,0c-0.7,0.4-2.4,1.1-1.8,1.4
		c0.8,0.3,1.6-1.8,2.3-1.2c0.3,0.4,0.6,0.8,0.9,1c0.2,0.2,0.6-0.2,0.7,0.1c0.5,0.8,0.9,2.4-0.2,3.2c-0.6,0.4-1.4,0.3-2,0.6
		c-0.3,0.2-0.7,0.6-0.5,0.8c0.3,0.3,5.2,0.8,1.3,3.1c-0.8,0.5-3-1.5-3-1.6c-0.7-0.8,3,1.5,2.1,2.3c-0.5,0.4-1.2-0.9-1.7-0.6
		c-0.4,0.3,0.9,0.6,1.1,1c0.1,0.2-0.4,0.4-0.6,0.5c-0.8,0.4-2,1.4-2.6,0.8c-0.5-0.5-0.4-2.3-0.8-1.9c-0.5,0.6,1,1.4,0.7,2.1
		c-0.3,0.6-1.5-0.1-2,0.4c-0.6,0.5-0.2,1.6-0.7,2.2c-0.2,0.3-0.8-0.3-1-0.2c-0.7,0.2-1,1-1.7,1.1c-0.6,0.1-0.3-2.3-1.8-2.7
		c-0.5-0.1,0.1,1-0.2,1.5c-0.1,0.2-0.5-0.2-0.7,0c-0.1,0,0.4,0.3,0.3,0.3c-2.5,0.5-1.1-0.2-3.5,0.2c-1.2,0.2-2.3,1.2-3.5,1.7
		c-0.2,0.1-0.6,0.2-0.8,0.1c-0.7-0.3-0.8-1.3-1.5-1.3c-0.6,0.1-0.4,1.3-0.8,1.5c-0.4,0.1-0.5-0.7-0.8-0.8c-0.6-0.2-2.6-0.3-3.4-0.6
		c-1.3-0.4-1.4,1.9-1.7,2.2c-0.7,0.6-4.1,0.2-4.8-0.1c-1.7-0.6-3.1-3.3-3.9-4.1c-1.2-1-2.3-0.2-2.9-2.1c-0.1-0.5-0.6-1-0.4-1.5
		c0.2-0.7,2-0.9,1.4-1.2s-1,1.5-1.5,1.1c-0.6-0.5,0.7-1.5,0.3-2.2c-0.2-0.4-0.7,0.8-1,0.7c-0.7-0.4-0.7-1.3-1.2-1.8
		C144.7,134.9,144.3,135,143.9,134.9L143.9,134.9z"/>
	<path id="fi" class="st0" d="M383,87.1v0.2c-1.9,0.4-1.5,2.5-3.1,3c-1.4,0.4-0.8-1.6-2.4,0.2c-0.2,0.3,0,0.7-0.1,1.1
		c-0.1,0.1-1.1,2.1-1.1,2.2c-0.3,0.8,0.3,3.2,0.4,3.8c0,0.3-0.2,0.5-0.2,0.8c0,0.6,0.1,1,0.2,1.6c0.3,0.8,0.9,1.3,1,2.1
		c0.5,3.3-0.4,1-1.5,2.1c-1.3,1.3-0.1,1.7-0.5,3.3c-0.1,0.4-0.5,0.6-0.6,0.9c0,0.1-1.2-1-1.4-1.1c-0.3-0.2-3.7-1.4-4-1
		c-0.4,0.4-0.1,1.1-0.4,1.5c-1.1,2-2.6,0.7-4.2,1c-0.5,0-0.9,0.3-1.3,0.2l-0.4-0.3c-0.2-0.4-0.2-0.9-0.4-1.3c-0.7-1.1-2.8-4-3.9-4.7
		c-2.4-1.4-2.5,0.6-2.3,2.1l-0.6,2h0.1l-0.1,0.1l0.4,0.5c-0.1,0.2-0.5,0.3,0,0.6c1.6,1.2,4.3,3.5,6,4.2c2,0.8,3.6,0.1,5.3,1.9
		c0.4,0.3,0.1,1.1,0.5,1.3c0.3,0.1,0.5-0.4,0.7-0.3c0.8,0.3,1,1.2,1.6,1.8c0.2,0.2,0.7,0.2,0.7,0.5c-1,2,0.1,2.1,0.4,4.3
		c0.1,0.4-0.3,0.7-0.3,1.1l-0.1,0.1c0,0.9,1.4,0.2,1.8,0.6c1.2,0.9-0.8,2.2-0.2,3.2c0.6,1.3,2.8,2.5,3,4c0.1,1.1-0.7,4.7-0.7,5.2
		c0.8,3,3.1,4.5,4.2,6.9c0.7,0.3,0.9-0.4,1.5,0c0.3,0.7,0.5,1.2,1.2,1.6c0.4-0.2,0.7-0.2,1.4,0c0.3,0,0.6,0.3,0.8,0.5
		c0.6,0.3,0.6-0.8,1.1,0.1c1,2.2,0.4,3.8,0.7,4.7c0.3,0.8,0.7,0.3,1.7,1.9c-0.3,0.6-0.8,0.2-1.3,0.4c0,0.1,0.1,0.2,0.3,0.3
		c0.7,0.2,0.7,0.5,0.6,1.1c-0.1,0.5-0.9-0.3-1.7-0.9c-0.4,0.2-0.7,0.5-0.9,0.8c-0.2,0.2,0.1,0.7-0.1,0.8c-0.2,0.2-0.7-0.3-0.7-0.1
		c-0.3,0.7-0.4,1.5-0.4,2.2c0,0.5-0.2,1-0.3,1.4c-0.1,0.8-0.8,1.2-1,1.9c-0.2,0.6-0.2,1.7-0.4,2.1c-0.5,1-1.3,0.6-1.4,2
		c0,0.6,0.5,0.7,0.5,1.1c0,0.1,0,0.1,0,0.2c-0.5-0.1-1-0.1-1.2-0.1c-0.3,0-0.1,0.7,0.2,1.5c-0.5,0.3-1.1,0.6-1.5,1.2
		c-0.1,0.7-1,2.8-1.1,2.9c-0.4,0-0.7-1.1-1.1-0.8c-0.8,0.8,0.5,2.5-0.3,3.1c-0.3,0.2-0.8-0.5-0.7-0.1c0,0.5,0.5,0.4,0.7,0.9
		c-0.3-0.2-0.8-0.2-1-0.2c-0.1,0-0.2,0-0.2,0.1c-0.1,0.2,0.8,0.8,1.6,1.5c0.1,0.9-0.5,0-1.1,0.8c-0.8,0.3-0.5,1.2-0.9,1.2
		c-0.6-0.1-0.3-0.8-0.8-0.9c-0.9,0.4-1.1,0.6-1.6,0.6c-0.7,2.5,1.5,0.7,1.3,2.2c0,0.1-0.1,0.1-0.1,0.2c-0.8-0.1-1-0.5-1-0.5
		l-0.2,0.4l0.1,1.4c-0.6,0.6-1.2,1.2-1.2,1.7c-0.5,5.4,0.2,1.2,0.9,2.7c0,0.8-0.7,1.3,0,1.8c0.1,0.1,0.3-0.4,0.4-0.3
		c0.2,0.3-0.1,0.9,0.3,1c0.2,0.1-0.2-0.8,0.1-0.8c0.3-0.1,0.4,0.3,0.5,0.6c0.6,1.5-0.1,3.9,0.2,4.5c0.2,0.4,0.5,0.6,0.8,0.9
		c0.4,0.5,0.4,0.7,0.7,1.2c0.1,0.2,0.2,0.6,0.2,0.8c0.2,0.3,0.7,0.1,0.8,0.2c0.1,0.1-0.4,0-0.4,0.1c-0.1,0.2,0.1,0.4,0.2,0.6
		c0.5,0.6,1.3,1.1,1.2,1.7c-0.1,0.6-1.4-0.6-1.5,0c-0.2,0.8,1,1.7,1.2,2.3c0.1,0.3-0.4,0.6-0.3,0.9c0.1,0.2,0.7,0.2,0.7,0.5
		c-0.1,1.2-1-0.1-0.7,0.9c0.1,0.4,0.6,0.7,0.5,0.9c-0.1,0.4-1-0.1-1.1,0.2c-0.1,2.4,0.9,2.7,1.7,3.8c0.2,0.2-0.7,0.4-0.6,0.7
		c0.1,0.5,0.3,0.8,0.6,1.2c2.3,2.7,0.5-0.1,2.4-0.5c0.4,0-0.4,1,0,1.3c0.6,0.3,1.2,0.2,1.9,0.2c0.6,0.1,0.8,0.7,1.3,0.7
		s0.7-0.6,1-0.6c0.2-0.1,0,0.3,0.1,0.4c0.3,0.1,0.5,0,0.7-0.1c-0.1,0.2-0.2,0.4-0.2,0.6c-0.3,0.8-0.4,0.8-0.1,1c0.3,0.1,0,0,0.5-0.4
		c0.1-0.1,0.2-0.3,0.3-0.4c0,1-0.8,1.2-0.5,1.3c0.1,0,1.1-0.7,1.9-1.2c-0.2,0.4-0.4,0.7-1,0.8c-0.6,0.2-0.8,0.8-1,0.4
		s-0.6,0.1-0.5,0.5c0.1,0.2,0.4,0.3,0.6,0.3c-0.3,0.1-0.3,0.4-0.1,0.6c0.3,0.2,0,0.3-0.4,0.3s0,0.8,0.3,0.9s1.3-0.3,1.7-0.7
		s0.7-0.9,0.5-1.4s-0.2-0.5,0.2-1.3c0.1-0.3,0.1-0.5,0-0.6c0.1-0.1,0.4-0.3,0.4-0.3c0.1-0.1,0.3-0.6,0.4-0.7c-0.5,1.4-1.7,3,0.6,3.8
		c0.4,0.2,1.1-0.7,1.3-0.3c0.2,0.6-1.3,1.4-0.7,1.6c0.6,0.3,0.5-1.3,1-1.4c0.5-0.1,0.1,0.9-0.1,1.3c-0.3,0.5-0.8,0.7-1.3,1
		c-0.1,0.2-0.5,0.6-0.7,0.8c2.9-1.1,1.8-3,3.3-3.9c0.5-0.3-0.8,1.2-0.3,1.5c0.7,0.4,1.5-0.1,2.2-0.5c0.5-0.2,0.7-0.9,1-1.2
		c1.7-1.1,3.1-0.7,3.4-1.1c0.3-0.3-0.7-0.7-0.4-1c0.5-0.4,1.2-0.1,1.9-0.2c0.2,0,0.6,0.1,0.7-0.1c0.2-0.3-0.2-0.7-0.1-0.8l0,0
		c0,0.1,0.3,0.1,0.4,0.2c0.7-0.7,0.9-1.3,2.3-1.6c0.5-0.3-0.4-1.6,0.6-1.4c0,1.1,2.3,1.8,1.3-0.6c0.7,0.3,2.1,2,1.7,0.3
		c-0.2-0.7-2.1-0.9-1.8-1.6c0.2-0.7,0.6,0.3,1.2,0.5c0.4,0.1,1.1,0.1,1.5-0.1c0.9-0.7-0.6-2.8,0.6-2.1c0.9,0.7-1,2.7,1.6,1.1
		c4.5-1.5,0.8-0.2,1.7-1.6c0.1-0.1,0.2,0.2,0.4,0.2c0.2,0,0.5,0,0.6-0.2s-0.3-0.8,0-0.8c0.1,0,1,0.8,1.4,0.6
		c0.7-0.2,1.7-0.2,2.1-0.7c0.1,0,0.1-0.1,0.1-0.2l-0.2-0.2c0.6-2.2,2.3-4.4,3.5-6.3c2.9-5.2,4.7-11.1,6.7-16.6c1.5-4,2-5.1,2.2-9.4
		c0.1-0.7,0.5-1.4,0.2-2.1c-0.8-2.2-9.1-5.2-11.2-6.7c-0.3-0.2,3.1-5.3,0.7-7.1c-0.8-0.7-2.6,0-3.2-0.9c-2.4-4.2,0.6-2.2-0.2-3.5
		c-1.1-1.7-2.3-0.4-3.7-2.1c-1.2-1.4-0.4-1.5,0.3-2.8c0.4-0.8-1.9-0.8-1.9-1.2c0.1-0.7,0.1-4,0.1-4.1c-2-1.7,0.4-0.7,0.9-1.3
		c0.4-0.6-2-3.9-2.2-4.3c-1.6-2.2-3.4-4.7-5.2-6.6c-0.3-0.3-1.8-1.4-2.1-2c-1.4-2.6,3.1-9.3,1.3-10.9c-0.5-0.6-1.3-0.6-1.9-0.9
		c-1-0.8-1.5-2.1-2.5-2.7c-0.1,0-3.3-0.5-3.4-0.5c-0.6-0.5-0.7-1.2-1.1-1.9c-2.1-3.4,0.3-3.1-0.7-5.5c-0.5-1.1-2.2-0.1-1.9-0.8
		c0.5-0.8,1.1-1.4,1.7-2.2c-3-1.4,0.9-3.7-0.3-5.7c-1.9-3.3-4.8-2.1-7.2-4.7l-0.1-0.5c-0.1,0-0.2,0-0.3,0.1
		C383.1,87.2,383,87.2,383,87.1L383,87.1z M384.2,150.9c-0.2,0-0.4,0-1,0.3c-0.2,1.2,0.5,0.9,0.7,1.1s0.6,0.2,0.6-0.5
		s0.1-0.5,0.8-0.5s0.1-0.5-0.5-0.4C384.6,150.9,384.4,150.9,384.2,150.9L384.2,150.9z M370.8,176.4c-0.1,0-0.2,0.1-0.2,0.2
		c-0.2,0.3-0.5,0.6-0.6,0.1s-0.4-0.3-0.7-0.3c-0.3,0-0.1,0.3,0.1,0.8s0.4,0.4,1,0.4c0.6-0.4,0.7-0.1,0.6-0.7
		C370.9,176.5,370.9,176.4,370.8,176.4z M384.5,209.1C384.5,209.1,384.6,209.1,384.5,209.1C384.6,209.1,384.6,209.2,384.5,209.1
		c0,0.1,0,0.2-0.1,0.2C384.5,209.3,384.5,209.2,384.5,209.1L384.5,209.1z M379.5,209.4c-0.1,0-0.1,0.1,0,0.2
		c0.2,0.3-0.2,0.5-0.1,0.6c0.1,0.2,0.3,0.3,0.5,0.3c0.6,0.2,1,0.3,0.9,0s-0.6-0.3-0.5-0.5c0-0.2,0.4,0-0.2-0.4
		C379.8,209.5,379.6,209.4,379.5,209.4L379.5,209.4z M381.9,210.8c-0.3,0-0.7,0.3-0.5,0.6s0.5-0.3,0.7-0.1c0.2,0.1,0.3,0.1,0.7-0.1
		C383.4,211,383.1,210.7,381.9,210.8L381.9,210.8z M367.9,212.2c-0.1,0-0.3,0.2-0.4,0.5c-0.3,0.8,0.2,0.2,0.7,0.7s-0.1,0.9-0.5,1.3
		s-0.3-0.3,0.1-0.7s-0.4-0.5-0.5-0.3s-0.4,0.4-0.9,0.5s-0.4,1-0.2,1.7c0.3,0.7,0.4-0.5,0.7-0.4s0.2,0,0.7,0.6
		c0.4,0.6,0.9,0.4,1.2,0.2c0.4-0.1,0.6-0.5,0.6-0.9s-0.5-0.5-0.9-0.7s0.7,0.2,0.3-0.3s0.2-0.7,0.2-0.3s0.3,0.2,0.5,0.7
		s0.3,0.2,0.8-0.3s0.1-1-0.5-1.3s-0.7-0.3-1.4-0.5C368.3,212.4,368.1,212.2,367.9,212.2z M387.9,213.9c-0.2,0-0.5,0.1-0.9,0.1
		l0.1,0.8c0.2,0.2,0.3,0.2,0.3,0.1c0,0,0-0.1,0-0.2c0-0.1,0-0.1,0-0.2c0-0.1,0-0.1,0-0.1c0.1-0.1,0.2,0,0.4,0.2
		c0.3,0.2,0.2,0.2,0.2-0.3C388.1,214,388.1,213.9,387.9,213.9L387.9,213.9z M369.7,215.9c-0.2,0.1-0.2,0.4,0.1,0.7
		c0.5,0.5,1.1,0.8,0.8,0c-0.2-0.8-0.2-0.6-0.7-0.7C369.9,215.9,369.8,215.9,369.7,215.9L369.7,215.9z"/>
	<path id="se" class="st0" d="M353.4,106.1c-0.3,0-0.5,0.1-0.7,0.4c-0.3,0.5,0.9,0.7,1.2,1.2c0.3,0.6,0.5,1.2,0.5,1.9
		c0,1.1-1.6,2-1.3,3.1c0.1,0.8,3.4,0.7,0.3,2.7c-0.8,0.6-7.3-2.6-8.6-0.9c-0.6,0.8,1.8,6.1-0.1,6.8l-3-1.3c-0.6,0-2.3,3.3-2.4,4
		c-0.2,1-0.2,2.3-0.9,3.3c-0.6,0.7-1.6-0.4-1.3,1.3c0.4,2.1,2.8,2.2,1.8,4.8c-0.6,1.6-3.7,5.2-4.2,6.9c-0.2,0.8,1,1.6,0.7,2.4
		l-2.1,1.8c-0.8,0.4-2.2-0.5-2.6,0.4l0.9,3.7c0,0-0.5,2.8-0.5,2.9l0.3,3.5c-0.1,0.4-0.6,0.5-0.7,0.8c-0.8,2.5-2.2,5.2-3,7.8
		c-0.6,1.7,3.4,0.7,2.7,5.3c-0.7,4.4-3.2,0-7,2.5c-1.2,0.8-3.3,3.9-3.6,5.4c-0.1,0.5,0.5,0.8,0.4,1.2c-0.1,1-1.4,1.7-1.4,2.7
		c0,11.3,1.4-8.3,1.4,3c0,0.6-0.7,0.9-0.7,1.5c-0.1,0.7,0.3,1.2,0.4,1.9c0,0.6-0.5,1.2-0.4,1.8c0.1,1.4,1.6,2.6,1.8,4
		c0.2,2.1-1.3,4.7-0.8,6.7c0.6,2.2,4.1,2,4.5,4.3l-1,3.8c-0.8,0.7-2.6,0.2-2.5,1.1c0.5,4,2.9,3,1.9,8.3l0.1,2.7
		c-0.8,2.2-3.8,2.3-4,3c-0.1,0.2,0.4,0.3,0.4,0.6c0.2,0.4,0.4,0.8,0.2,1.2c-0.3,0.6-1.2,0.7-1.4,1.3c-0.6,1.7,2.1,5.5,0,8.4
		c-0.8,1.2-1.2,0.3-1.5-0.7c-0.6,0.1-1.5-0.8-1.9-0.3c0,0,1.1,4.2,1.2,5.3c0,0.7-0.9,2.3-0.4,2.9c3.6,3.6,2.6-0.7,3.7,0.6
		c0.4,0.5,0.2,2.2,0,2.8c-0.2,0.6,0,0.9-0.2,1.4c-0.3,0.7,0.3,0.4,0.1,0.7c-0.4,0.5-1,0.6-0.7,0.9c1,0.9,0.6,0.8,0.3,1.6
		c-0.2,0.6,0.9-0.3,1.1-0.1c0.3,0.5-0.3,0.2-0.2,0.6c0.1,0.5,0.4,0.4,0.5,1.1c0.2,0.7-0.2,1.9,0.4,2.3c0.3,0.5,0.3-1.1,0.8-0.7
		c0.7,0.4-0.7,1.1,0.3,1.2c-0.2,1-0.1,1.4,0.5,1.4c-0.2,0.8,0.4,2.1,1,2.3c0.2,0.4,0.1,0.7,0.2,1c0.4,0.5,1.1,0.5,1.5,0.9
		c0.6,0.7,0.3,2.2,1.1,2.5c0.4,0.1,0.9-0.2,1.1,0.2c0.4,0.7,0.7,1.4,0.2,2c-0.3,0.6-1.6-0.2-1.9,0.5c-0.4,0.8,2.2,1.9,1.5,2.2
		c-0.8,0.4-2.2-1.5-2.5-0.7c-0.2,0.2,0,1.1,0.7,2.3l0.6,1c1.3,2.1,2.4,3.9,2.4,3.9c-0.2,0.5-0.9,1.1-0.9,1.7
		c-0.1,0.6,0.5,0.9,0.5,1.5c0,0-1,0.3-0.3,0.7c0.4,0.2,0.9-0.1,1.3-0.1c0.7,0.1,1.3,0.6,2.1,0.6c2.3,0,1.7-1.6,4-1.4
		c0.3,0,1.8,0.9,2.2,0.5c0.6-0.6,1-1.2,1.1-2c0.1-2.4-3-1.3-0.6-4.9c0.3-0.5,0.4-1.1,0.9-1.3c0.7-0.2,1.5,0.4,2-0.1
		c0.3-0.5-0.7-1-0.6-1.6c0.1-0.4,0.7-0.1,1-0.1c0.5,0,0.8,0.2,1.3,0.1c0.2,0,1-0.2,1.7-0.6c0.3-0.1-0.3,1.3,0.6,0.7
		c0.5-0.5,0.6-0.9,1.5-1c0.1,0-0.2,0.4-0.1,0.5c0,0,1.4-0.2,1.4,0.1c0.1,0.2-0.2,0.4-0.2,0.6c0.1,0.2,0.4,0.3,0.5,0.2
		c1.6-1.5,1.5-4.7,1.7-6.7c0.5-3.2,0,2.2,1-0.9c0.2-0.3-0.5-0.7-0.3-0.9c0.1-0.3,0.8,0,0.8-0.3c0.3-1.2-1.1-2.5-0.4-3.2
		c0.3-0.3,0.7,0.1,0.9-0.1c-0.9-1.2-1.2-2.2-1-2.8c0.1-0.8,0.5-1.5,0.9-2.2c0.1-0.1,0.6-0.1,0.5-0.3c-0.4-0.5-1.3-0.5-1.3-1
		c-0.1-0.8,1.1-1.1,1.1-1.8c0-0.8-1.5-1.2-1.9-1.7c-0.2-0.2-0.6-0.6-0.3-0.6c0.7-0.3,1.8,0.6,2.2,0c0.7-0.8-1.3-2.7-1.2-3.2
		c0.1-0.4,0.8,0.4,1,0c0.3-0.5-0.5-2.4-0.9-2.7c-0.6-0.4-2.2-0.3-1.7-0.9s1.6,0.1,2.3,0.1c1,0,0.2-0.6,0.6-0.9
		c0.1-0.1,0.6,0.2,0.6,0c-0.7-1.5-2-0.7-3.4-1c-0.3,0,0,0.6-0.2,0.6c-0.3,0.1-0.3-0.5-0.5-0.6c-0.1,0-0.2,0.3-0.3,0.3
		c-0.3,0-0.6,0-0.7-0.2c-0.4-0.8,4.1-0.5,4.2-0.5s0.2-0.2,0.3-0.3c0.1-0.1,0.4,0,0.5,0c0-0.2-0.4-0.3-0.6-0.3l0,0
		c0.2-0.2,1.6,0.6,1.2-0.6c0-0.3-1-0.5-0.7-0.6c0.7-0.1,1.8,0,2.4-0.4c1.7-1.2,1-4.9,1-4.9c1.5-0.2,0.4,2.6,1.4,3
		c0.3,0.2-0.5-0.8-0.2-1c0.5-0.2,0.7,1.6,0.9,1.2c0.3-0.7,0.2-1.5,0.6-2.2s0.3-0.5,1-0.9c0.2-0.2,1.2-0.2,1.2-0.4
		c0-0.7-0.5-0.7-0.7-1.3c-0.1-0.1-0.3-0.6-0.2-0.6c1.5,1.6,1.7,0.4,2.2-0.2c0.3-0.5-0.6-1.1-1.2-1c-0.1,0.7-0.2,0.8-0.9,0.4
		c-0.5,0.2-1.3,0.8-2.2,1c-0.4,0.3-0.5,0.7-1,0.9c-0.7,0.3-0.7-0.2-1.4-0.4c-0.3,0.7-1.1-0.2-1.5,0c-0.2,0.1,0.2,0.5,0,0.7
		c-0.3,0.3-0.5,0.4-0.7,0.1c-0.2-0.5,0.5-0.7,0.2-0.9c-0.5-0.5-1,0-1.6-0.2c-0.6-0.3-0.4-0.3-0.7-0.7c-0.5-0.3-0.5-0.5-1.2-0.3
		c0.1,0.2,0.3,0.3,0.7,0.6c0.5,0.4,0,0.4-0.3,0.2s-0.6-0.4-0.8-0.8c-0.3,0-0.6-0.1-1.2,0c-0.6,0.2-1.3,0.9-2.6,0.2
		c-0.2-0.2,0.9-0.3,1.1-0.4c0.7-0.4,0.6-0.2,1.4-0.3c0.3,0,0.1-0.7,0.2-0.8c0.3-0.5,0.7,0.6,1.1,0.5c0.6-0.1,0.3-0.8,0.9-0.7
		c0.9,0.3,0.9-0.2,1.7,0c0.9,0.7,1.5,1.2,1.7,0.7c-1-2.3,0-1.6,0.6-0.9c0.4,0.5,0.8,0.8,1.4,0.8c1.1-0.9-0.6-1.3-1.2-1.8
		c0.1-0.7,0-1.1-0.2-0.8s-0.5,0.5-0.5,0.4c0.4-0.7-0.5-0.5-0.4-0.8s0.7,0.1,1.2-0.8c0.5,0.7,0.3,1.2,0.4,1.9c0.5,0.6,0.5-0.8,1.4,1
		c0,0.7-0.3,2.2,0.4,2.2c0.8,0,1.5-1,2.2-1.1c0.4-0.1,0.7,0.3,0.8,0.1c0-0.1-0.4-0.9-0.3-1c2.6-1.2,1.8-2.1,2.6-3
		c0.4-0.3,0.1-0.4,0.5-0.5c0.1,0,0.8,1.1,0.9,0.2c0-0.1,0-0.2,0-0.4c-0.4-0.2-0.6-0.2-1-0.1c-0.4,0.2-0.7,0.3-0.9,0.4
		c-0.1,0.1-0.3-0.1,0.1-0.3s0.5-0.3,0.6-0.5c0-0.1,0.1-0.2,0.1-0.2c-0.1,0.4,0,0.6,0.4,0.4s0.4-0.2,0.1-0.5
		c-0.2-0.2-0.3-0.2-0.4-0.1v-0.1c0-0.2,0-0.1-0.2-0.5c-0.2-0.3,0.2-0.1,0.4,0.2c0.5,0.4,0.3,0.6,0.8,0.4c-0.3-1.2-1.3-1-1.6-2.4
		c-0.4-0.3-0.1-0.6-0.5-0.8s-0.6,0.3-0.9,0.2c-0.6-0.4-1.4-1-1.8-1.5c-0.3-0.4-0.6-0.8,0.4-0.2c0.7,0.6,0.8,0.3,0.8,0
		c-0.8-0.6-1.4-0.7-2.2-0.9c-0.2-0.1,0.2-0.2-0.2-0.7c-1.1-1-1-0.5-1.5-1.3c-0.2-0.4-0.2-0.6-0.6-0.8c-0.5-0.3-0.9,1.2-1.5,1.2
		s0.3-1.5-1.7-1.4c-0.3,0-0.3-1.1-0.6-1.2c-0.2-0.1-0.5,0.2-0.5,0c-0.1-0.6,0.2-0.7,0.2-1.3c-0.1-0.6-0.5-1.2-0.7-1.7
		c0-1,0.8-0.6,0-1.6c-0.2-0.4-0.2-0.3-0.3-0.7c-0.2-0.4,0-0.6,0-1c0-0.2,0.5-0.1,0.4-0.3c-0.1-0.4-0.8-0.5-0.7-0.9
		c0.6-1.7-1.5-2.2-0.3-4.3c0.8-0.3,1.2,1.4,1.7,0.8s-0.1-1-0.4-1.6c-0.4-0.3-0.3-0.7-0.3-1.1c-0.2-0.6-0.2-1.1-0.1-1.7
		c0.1-0.5,0.5-0.8,0.6-1.3c0.1-0.8-0.2-0.7-0.1-1.4c0.6,0.1,0.8-0.2-0.1-0.6c0.6-1.4-2.5-0.8-1.1-2.8c0.6-0.4,0.9,0.7,1.6,0.6
		c0.3,0,0.1-0.6,0.9-0.9c0.4-0.5,0.1-1.2,0.4-1.7c0.2-0.2,0.3,0.8,0.5,0.8c0.8,0.2,0.7-1.2,0.4-1.9c-0.8-0.4-1.2-0.4-2.4-3
		c1.4,1.3,1.2,1.6,2.1,1.7c0,0.3,0.1,0.6,0.6,0.5c0.3-0.1-0.2-0.9,0.3-1.1c0.8,0.3,1.3-0.5,1.6-1.2c0.2-0.7-1.1,0.1-1.6-0.4
		c-0.4-0.3,0.9-0.7,1.3-1c0.3-0.3,0.1-0.9,0.3-1.3c0.1-0.1,0.5,0.1,0.5,0c-0.1-0.3-0.7-0.4-0.6-0.6c0.3-0.3,0.8,0.3,1,0.1
		c0.2-0.3-0.5-0.6-0.4-0.8s0.5-0.2,0.7-0.1c-0.3-0.2-0.7-0.3-0.5-0.3c0.7-0.1,1.3,0.8,1.9,0.6c0.7-0.4,0.7-1.3,0.8-2
		c0.1-0.6-0.8-1-0.3-1.3c0.4-0.3,1,1.1,1.3,0.7c0.3-0.7-1.2-1-0.8-1.6c0.4-0.5,1.2,1.4,1.8,1.2c0.5-0.2,0.4-2,0.7-2.3
		c0.3-0.6,1.4-0.4,1.7-0.8c0.3-0.2-0.1-0.7,0.1-1h0.1c0-0.1,0-0.2,0.1-0.2c0.3-0.2,0.2,1.2,0.5,1c0.7-0.3-0.3-1.8,0.4-1.9
		c0.2-0.1,0.2,0.6,0.4,0.6c1.1-0.2,1.6-5.3,2.2-6.5c0.4-0.8,1.5-1.9,2.1-2.8c-0.8-1.7-3.5-2.2-3.4-4.4c0.1-1.9,2.5-2.3,1.9-4
		c-0.3-0.8-0.7-1.2-1.4-1.7c-0.2-0.1-0.5-0.2-0.5-0.5c0-0.1,0-0.1,0.1-0.2c0.1,0.1,0.2,0.2,0.2,0.2c0.4,0.3,0.4,0.4,0.4,0.5
		c0.1,0.2,0.7,0.5,0.9,0.6s0.6-0.3,0.7-0.5s-0.4-0.7-0.7-0.8c-0.3,0-0.3,0.2-0.5,0c-0.1-0.1-0.2-0.4-0.3-0.7
		c0.8-0.4,2.1-0.3,2.7-0.7c0.2-0.1-0.2-0.5-0.1-0.6c0.2-0.1,0.3,0.5,0.4,0.4c0.6-0.5-0.1-0.5-0.6-0.9c-0.2,0-0.6,0-0.5-0.1
		c0.6-0.3,1.7-0.1,1.5-0.7c-0.1-0.5-1.4-0.4-2.2-1.2c0.7,0.1,2.7,1.3,3.4,1.1c0.2-0.1-0.5-1-1.2-0.8c-0.2-0.6,0.1-0.6,0.8-0.7
		c0.1-0.8-0.9-0.5-0.2-1.4c0.2-0.2-0.4-0.9-0.2-0.9c0.3,0,0.6,0.3,0.8,0.7c0.1,0.2,0.2,0,0.5-0.1c0.2-0.1,0.5,0,0.5-0.1
		c-0.4-1.4-0.3-1,1.7,0.4c0.7,0.5,0.6,0,0.8-0.3c0.3-0.3-0.5-0.6-0.2-0.8c0.7-0.4,0.6,0.5,1.3,0.4c0.2,0-0.2-0.7,0.5-0.6
		c0.8,0.1,0.5-0.4,0.9-0.4s0.6,0.5,1.1,0.3c0.4-0.2,0.8-0.2,1.1-0.6c-1.1-2.4-3.4-3.9-4.2-6.9c-0.1-0.5,0.7-4,0.7-5.2
		c-0.2-1.5-2.4-2.7-3-4c-0.6-0.9,1.4-2.2,0.2-3.2c-0.5-0.4-1.9,0.5-1.7-0.7c0-0.4,0.4-0.7,0.3-1.1c-0.3-2.3-1.4-2.3-0.4-4.3
		c0.1-0.3-0.5-0.3-0.7-0.5c-0.6-0.6-0.8-1.5-1.6-1.8c-0.2-0.1-0.4,0.4-0.7,0.3c-0.4-0.2-0.1-1-0.5-1.3c-1.8-1.8-3.4-1.1-5.3-1.9
		c-1.7-0.8-4.4-3-6-4.2c-0.8-0.5,0.8-0.4-0.4-1.1c-0.4-0.3-0.8-0.3-1.1-0.5h-0.2c-0.4,0.1-0.8,0-1.2,0
		C353.5,106.1,353.5,106.1,353.4,106.1L353.4,106.1z M357,178.3c0.2,0.2-0.3,0.7-0.1,0.7c0.2,0,0.7-0.1,0.6-0.3
		C357.4,178.5,357.2,178.4,357,178.3L357,178.3z M363.9,172.1c0,0.1,0.1,0.3,0.1,0.3C364,172.3,364,172.2,363.9,172.1z M358.6,212.3
		h-0.1c-0.2,0.1-0.1,1.4,0.2,1.7s1.1,0.8,1.2,0.5c0.2-0.4-0.6-0.6-0.8-1C358.9,213.2,358.9,212.3,358.6,212.3L358.6,212.3z
		 M351.3,225.3c0,0-0.1,0.1-0.1,0.2c0,0.3-0.3,0.5-0.1,0.8l0,0c0.4,0.4,0.6,0.4,0.6,0.1c0-0.3,0.2-0.3,0.3-0.6
		c0-0.2-0.1-0.4-0.5-0.5C351.4,225.3,351.4,225.3,351.3,225.3L351.3,225.3z M355.6,225.9c0,0-0.1,0-0.2,0.1
		c-0.3,0.1-0.4,0.1-0.7,0.1c-0.3,0,0.1,0.4,0.3,0.5s0.2-0.1,0.3,0.1l0,0c0.2,0.4,0.4,0.9,0.7,0.5s0.5-0.3,0.2-0.6s-0.4-0.2-0.4,0
		s-0.1-0.1-0.2-0.4C355.8,226,355.8,225.9,355.6,225.9L355.6,225.9z M352.2,226c-0.2,0-0.2,0.1,0.1,0.3c0.1,0.3-0.2,0.5,0.4,0.5
		s0.9-0.1,0.8-0.3s-0.2-0.4-0.4-0.5s-0.2,0.2-0.3,0.2c-0.1,0,0.1-0.2-0.4-0.2C352.3,226,352.3,226,352.2,226z M367.4,242.3
		c-0.1,0-0.1,0-0.2,0.1c-0.5,0.3-0.3,0.3-0.5,0.6s-0.1,0.5,0.1,0.7s0.7,0.5,0.7,0.2c0-0.4-0.4-0.4-0.1-0.7s1-0.3,1-0.6
		s-0.1-0.3-0.5-0.2C367.5,242.4,367.5,242.2,367.4,242.3L367.4,242.3z M319.2,242.8c-0.1,0-0.3,0.1-0.5,0.3
		c-0.8,0.8-1.8,0.8-1.6,1.5c0.4,1.1,0.5,0.2,1.2,0.2c0.6,0,1.3,0.3,1.3-0.7C319.6,243.3,319.6,242.7,319.2,242.8L319.2,242.8z
		 M365.5,243.3c-0.2,0-0.1,1.2-0.3,1.2c-0.2,0-0.6-1.1-0.7-1.1c-0.4,0.1-0.2,0.8-0.5,1.1c-0.3,0.3-0.7,0.1-0.9,0.4
		c-0.9,1.2-1.8,3.5-1.9,3.9c0,0.7,0.4,1.3,0.5,1.9c0,0.6-0.4,0.6-0.4,1.2c0.1,0.3,0.4,0.2,0.7,0.7s0.5,1.3,0.7,1.5
		c0.1,0.1,0,0.4,0.1,0.4c0,0,0.1,0,0.2-0.1c-0.3,0.6-0.9,1.3-0.6,1.8c0.3,0.6,1-0.7,1.3-1.2c0.8-1.4-1.6,0.6,1.2-2.6
		c1.8-1.4-0.4-0.6,0.8-2c0.4-0.4,1.2-0.3,1.2-0.8c0-0.8-1.6,0.5-1.3-2c0.1-1.1-0.5-0.3,0.1-1.5c0.3-0.6,1.7-1.6,0.8-2.6
		C366,243.6,365.8,243.3,365.5,243.3L365.5,243.3z M318.9,245.4c-0.3,0-0.7,0.1-1,0.1c-0.3,0.3-0.2,0.5,0.1,1.2
		c0.3,0.8,0.8-0.4,1.2-1C319.3,245.4,319.2,245.4,318.9,245.4L318.9,245.4z M355.3,251.3c-0.3,0.1-0.7,0-0.8,0.3
		c-0.8,1.1-0.2,1.6-0.4,2.7c-0.5,2.5-2.6,4.1-2.8,6.8c0,0.3,0.4,4.5,0.6,4.5c1.2-0.1,0.8-3.7,0.9-4.2
		C353,259.5,354.6,252.8,355.3,251.3L355.3,251.3z"/>
	<path id="no" class="st0" d="M355.1,106.2L355.1,106.2 M330.6,5.2c0,0.2,0,0.4,0,0.4c-0.4,0.4-1.2-0.2-1.5,0.2
		c-1.1,1.3-0.2,1.9-0.2,3.1c0,0.8,0.1,1.7-0.2,2.4c-0.1,0.2-0.8-0.2-0.8,0.1c0.1,0.4,0.8,0.5,0.8,0.9c0.1,0.8-1.1,1.5-0.8,2.3
		c0.3,0.8,2.1,0.8,0.5,2.2c-0.5,0.4-1.2,0.8-1.8,0.6c-0.5-0.2,0-1.1-0.4-1.6c-1.7-2.8-0.5,3.6-2.4-2c-0.4-1,1.8-1.3,2.7-1.7
		c0.3-0.1-0.5,0.4-0.8,0.3c-0.4-0.2-0.3-1.1-0.8-1.1c-0.8,0-1.1,0.9-1.8,1.1c-0.8,0.2-0.8-1.1-1-1.3c-0.5-0.3-1.1-0.2-1.6-0.5
		c-0.8-0.6-1.8-3.7-1.9-4.3s0.9-0.8,1.5-0.8c0.9,0.2,0,0.8,0.2,1.2c0.4,0.5,0.6-1.1,1.2-1.1c1.8,0.1,2.1,0.4,3.5,1.3
		c0.1,0.1-0.2-0.3-0.1-0.4c0.2-0.5-0.5-0.9-0.9-1.1c-0.4-0.2-0.9-0.2-1.5-0.3 M343.5,5.2c-0.4,0.8-0.7,1.9-1.3,1.6
		C342,6.6,341.9,6,342,5.2 M356.1,106.5C356.2,106.5,356.2,106.5,356.1,106.5 M371.4,122.6L371.4,122.6 M371.3,122.7L371.3,122.7
		 M396,87.1c0.6,0.8,1.9,2.5,0.8,2.9s-4-1.1-3.1-0.3c1.8,1.5-1.8,3.7-2.3,4.8c0,0.1,1.1,4.1-0.2,3.7c-3.6-1.4,0.7-3.8-0.6-5.8
		c-1.9-3.3-4.8-2.1-7.2-4.7l-0.1-0.5c-0.1,0-0.2,0-0.3,0.1c0-0.1-0.1-0.1-0.1-0.2v0.2c-1.9,0.4-1.5,2.5-3.1,3
		c-1.4,0.4-0.8-1.6-2.4,0.2c-0.2,0.3,0,0.8-0.1,1.1c-0.1,0.1-1.1,2.1-1.1,2.2c-0.3,0.8,0.3,3.2,0.4,3.8c0,0.3-0.2,0.5-0.2,0.8
		c0,0.6,0.1,1,0.2,1.6c0.3,0.8,0.9,1.3,1,2.1c0.5,3.3-0.4,1-1.5,2.1c-1.3,1.3-0.1,1.7-0.5,3.3c-0.1,0.4-0.5,0.6-0.6,0.9
		c0,0.1-1.2-1-1.4-1.1c-0.3-0.2-3.8-1.4-4-1c-0.4,0.4-0.1,1.1-0.4,1.5c-1.1,2-2.6,0.8-4.2,1c-0.5,0-1.1,0.5-1.5,0.2
		c-0.5-0.4-0.3-1.1-0.6-1.6c-0.7-1.1-2.8-4-3.9-4.7c-3.8-2.2-2.1,3.5-2.1,3.5c-0.6,0.1-1-0.6-1.6-0.6c-0.3,0-0.8,0.3-0.7,0.5
		c0.1,0.1,0.2,0.2,0.3,0.2h-0.2c-0.8,0.2-1.8-0.3-2.2,0.4c-0.3,0.5,0.9,0.8,1.2,1.2c0.3,0.6,0.5,1.2,0.5,1.9c0,1.1-1.6,2-1.3,3.1
		c0.1,0.8,3.4,0.7,0.3,2.6c-0.8,0.6-7.3-2.6-8.6-0.9c-0.6,0.8,1.8,6.1-0.1,6.8l-3-1.3c-0.6,0-2.3,3.3-2.4,4c-0.2,1-0.2,2.3-0.9,3.3
		c-0.6,0.7-1.6-0.4-1.3,1.3c0.4,2.1,2.8,2.3,1.8,4.8c-0.6,1.6-3.7,5.3-4.2,6.9c-0.2,0.8,1,1.6,0.8,2.4l-2.1,1.8
		c-0.8,0.4-2.3-0.5-2.6,0.4l0.9,3.7c0,0-0.5,2.8-0.5,2.9l0.3,3.5c-0.1,0.4-0.6,0.5-0.7,0.8c-0.8,2.5-2.2,5.2-3,7.8
		c-0.6,1.7,3.4,0.8,2.7,5.3c-0.7,4.4-3.2,0-7,2.4c-1.2,0.8-3.3,3.9-3.6,5.4c-0.1,0.5,0.5,0.8,0.4,1.2c-0.1,1-1.4,1.7-1.4,2.7
		c0,11.3,1.4-8.3,1.4,3c0,0.6-0.7,0.9-0.7,1.5c-0.1,0.7,0.3,1.2,0.4,1.9c0,0.6-0.5,1.2-0.4,1.8c0.1,1.4,1.6,2.6,1.8,4
		c0.2,2.1-1.3,4.7-0.8,6.7c0.6,2.2,4.1,2,4.5,4.3l-1,3.8c-0.8,0.7-2.6,0.2-2.5,1.1c0.5,4,2.9,3,1.9,8.3l0.1,2.7
		c-0.8,2.2-3.8,2.3-4,3c-0.1,0.2,0.4,0.3,0.4,0.6c0.2,0.4,0.4,0.8,0.2,1.2c-0.3,0.6-1.2,0.7-1.4,1.3c-0.6,1.7,2.1,5.4,0,8.3
		c-0.8,1.2-1.2,0.3-1.5-0.7c0.1,0,0.1,0,0.2-0.1c0.4-0.3-0.2-1-0.5-1.4c-2-3.1-0.9,1.5-4-1.4c-0.3-0.3,0.3-0.8,0.3-1.2
		c0-0.6-0.6,0-0.6,0c-0.6-0.8-0.4-2.3-0.2-2.1c0-0.2-0.1-0.3-0.1-0.4c-0.2-0.9-0.5-1.8-0.7-2.7c-0.1-0.6,0.8-1.8,0.1-1.8
		c-2.3,0,1.7,2.9-0.7,4.5c-0.1,0-0.2-0.1-0.2-0.2c-0.1-0.6,0.2-1.2,0-1.7c-0.3-0.5-1.2-1.3-1.3-0.8c-0.1,0.8,0.8,1.2,1.1,1.9
		c0.2,0.4-0.4,1.2-0.2,1.7c0.8,2,1.3,0.9,0.8,2.3c0,0.1,0,0.4-0.2,0.4s-0.4-0.6-0.6-0.4c-0.7,1.2,0.2,2.8-0.6,2.8
		c-0.4,0,0.1-1.2-0.2-1c-1.6,1,1.4,2.1-2.5,2.1c-0.5,0,0-0.9-0.4-1.2c-0.5-0.3-1.3-1.3-1.6-0.8c-0.3,0.7,0.9,1,1.2,1.7
		c0.1,0.3-2.4,0.5-2.7,1.4c-0.1,0.4,0.9,0.8,0.7,1c-0.5,0.6-1.7,0.1-2.2,0.6c-0.3,0.4,0.9,0.5,0.8,0.8c-0.6,3.8-1.3-1.1-1.8,0.8
		c-0.1,0.2,0.3,0.4,0.2,0.6c-0.5,0.7-2.9,3.6-3,3.7c-0.2,0.2-0.5-0.4-0.7-0.2c-0.6,0.5-0.5,1.7-1.2,1.8c-0.6,0.2-0.7-1.4-1.3-1.2
		s-0.4,1.4-0.8,1.8c-0.4,0.3-1-0.2-1.4,0c-0.3,0.1-0.4,0.5-0.7,0.6c-0.9,0.6-0.7-0.3-2-0.3c-0.7,0-1.4,1-1.8,0.6s1.2-0.8,1-1.4
		c-0.3-0.5-0.8,0.8-1.4,0.8c-0.8,0.1-1.5-0.2-2.3-0.5c-1.6-0.8,1.5-1.8,1.8-2.4c0.1-0.4-0.6-0.8-0.9-0.7c-0.4,0.1-0.3,0.9-0.8,1
		c-0.6,0.1-1.1-0.3-1.7-0.6c-1.1-0.5-1.8-2.2-2.3-2.5c-0.3-0.3-0.8-0.1-1.2-0.3c-0.7-0.4-1.8-2.8-1.7-3.5c0-0.6,0.7-0.9,0.8-1.6
		c0.1-0.6-0.7-2,0-1.8c0.8,0.2,0.2,1.8,0.9,2.1c0.4,0.3,0.5-0.9,0.9-1.1c0.2-0.2,0.4,0,0.6,0.2c-0.2-0.5-0.3-0.9-0.5-1.4
		c-0.1-0.7,1.3-0.5,1.7-0.9c0.2-0.2-0.8,0-0.8-0.3c0.2-0.5,0.7-0.8,1.1-0.9c0.6-0.4,1.7-0.1,2-0.8c0.4-0.8-2.3,0.4-2.8-0.2
		c-0.4,0.5-0.6,0.5-0.6-0.4c0.1-0.8,1.7-0.9,1.5-1.6c-0.3-0.8-1.4-0.9-2.2-0.8c-1.2,0.4-0.8,3.3-2,3.2c-0.7,0-0.2-1.2-0.5-1.7
		c-0.2-0.3-0.6-0.5-0.9-0.7c0,0,0,0.1,0.1,0.1c-0.1,0-0.1,0-0.2,0.1c0-0.1,0.1-0.2,0.1-0.2c-0.3-0.2-0.6-0.4-0.6-0.7
		c0-0.5,1.1,0.4,1.5,0.1c0.6-0.5,0.4-1.7,1-2c0.5-0.3,0.8,0.8,1.2,0.8c0.2,0.1-0.1-0.5,0.1-0.6c0.2-0.2,0.5,0.1,0.7,0
		c0.4-0.1-0.9-0.1-0.8-0.5c0-0.1,3.8-1.8,3.6-1.8c-3-0.2-1.1,2.3-4-0.3c-0.1-0.1,0.5,0,0.6-0.2c0.2-0.2,0-0.7,0.3-0.8
		c0.4-0.3,0.8,0.1,1.2-0.2c0.2-0.1-0.1-0.4-0.1-0.6c0.2-0.4,0.4-0.7,0.6-0.8c0.5-0.3,1.5,0,1.6-0.5c0.1-0.6-1.2-0.5-1.2-0.9
		c-0.1-0.2,0.1-0.5,0.3-0.8c-0.2,0-0.5-0.5-0.7-0.3c-0.5,0.3-0.8,0.8-1,1.1c-0.4,0.8-0.2,1.7-0.8,2.3c-0.3,0.3-0.2-0.8-0.3-1
		c-0.6-1-1-0.8-0.7-1.7c0.4-0.8,1.9-2.4,1-2.3c-0.9,0.3-1.6,4.4-2.7,2.3c-0.3-0.7-0.6-1.4-0.8-2.2c-0.1-0.8,1.3,0,3-0.6
		c0.4-0.1,0.6-0.5,0.7-0.9c-0.7,0.7-1.9-0.8-1.9-1.1c0-0.8,1.3-1,2.1-1.4c-0.2-1-1-0.1-1.8,0.8c0,0-0.1,0-0.1-0.1
		c-0.1-0.1-0.2-0.3-0.4-0.5c0.3,0.3,0.4,0.7,0.5,0.6c-0.5,0.5-0.8,0.8-1.1,0.9c-0.5,0-0.3-0.9-0.5-1.3c-0.1-0.2-1.8-1.9-1.3-2
		c0.7,0,1.2,0.6,1.8,1c0-0.1-0.1-0.3,0-0.5c0.2-0.7,1.3-0.7,1.9-1.1c0.1-0.1-0.1-0.5-0.3-0.4c-0.8,0.1-2,1-2.6,0.7
		c-0.8-0.5-0.2-2.6,0.3-2.9c0.7-0.5,1.4,0.9,2.3,0.9c0.1,0.1,2-2.2,4-1.1c0.7,0.3,0.8,1.2,1.4,1.5s-0.6-1.4,1.6-2
		c2.7-0.8-0.1,4,2.8,3.8c1.8-0.2-0.7-1.7-0.6-2.9c0.1-1.3,4.9,1.8,4.2-1.5c-0.1-0.7-1.3,0.6-1.9,0.4c-0.4-0.1-0.5-0.7-0.5-1
		c0-1,2.6-2.1,1.7-2.4c-2.3-0.9-1.6,3.4-1.8,3.8c0,0.1-1.1,0.4-2.1,0.5c-0.2,0.1-0.1-0.3-0.2-0.4c-0.7-0.4-1.4-0.6-2.1-0.9
		c0,0,0,0-0.1-0.1c-0.3,0.7-0.6,1.1-0.8,1.3c-0.1,0.1-3-1.2-3.8-1.2c-0.3-0.1-0.1,0.5-0.3,0.6c-1,0.5-2.3,0.7-3.3,0.4
		c-0.2,0-1.6-1.6-1.4-1.9c0.5-0.7,1.3-0.9,2-1.1c0.8-0.2,2.2,0.7,2.2-0.1c0.1-0.7-1.4-0.2-2.2-0.1c-0.5,0-0.8,0.7-1.3,0.5
		c-2-0.8,0.4-1.8,0.9-1.8c0.9,0.1,2.5,1.2,3.7,0.5c1.1-0.8-3.3,0.3-3.8-1c-0.2-0.6,2.2-0.5,1.7-0.8c-0.6-0.3-1.4,0.1-1.9-0.4
		c-1.5-1.2,0.8-3.7,2.2-3.8c1,0,2.3,0.2,2.9,1c0.3,0.4-0.6,1-0.3,1.4c0.3,0.4,0.1-1.1,0.5-1.2c0.5-0.1,0.7,0.8,1.1,0.9
		c0.4,0-0.8-0.7-0.6-0.8c0.5-0.6,2.7,1.4,4.4-0.2c0.3-0.3-0.5-0.5-0.8-0.5c-3.3-0.2,1.6,0.8-1.1,0.9c-0.5,0.1-3.4-1.3-4.7-1.5
		c-0.5,0-0.8-0.3-1.3-0.3c-0.6,0-1.6,0.8-1.7,0.3c-0.1-0.7,1.4-0.7,1.6-1.3c0.2-0.8-1.7-1.2-1.7-2.2c0-0.4,0.9,0,1.1,0.3
		c0.3,0.5,0.3,1.6,0.8,1.5c0.6-0.1-0.7-1.6-0.1-1.7c0.8-0.1,1.1,1.4,1.9,1.4c0.6,0,0.4-1.8,0.8-1.4c0.5,0.4-0.2,1.2-0.2,1.9
		c0,0.1-0.2,0.4-0.1,0.4c0.6-0.2,0.3-1.4,0.8-1.4c0.3,0,0.1,0.7,0.4,0.8c0.6,0.3,1.5,0.8,1.8,0.3c0.2-0.5-1.2-0.3-1.5-0.7
		c-0.5-0.6-0.7-1.2-0.7-1.9c-0.1-0.8,1.3-1.5,2.2-1.3c0.4,0.1,0.2,0.8,0.4,1.2c0.3,0.6,0.8,0.9,0.9,1.5c0,0.2-0.5,0.6-0.3,0.6
		c0.3,0,0.4-0.4,0.4-0.6c-0.4-1.9-2.4-3.1,0.8-3.7c1.1-0.2,1.3,1.4,1.3,2.9c0.1-0.2,0.2-0.5,0.4-0.6c0.6-0.5,2.2,0.6,2-0.1
		c-0.2-0.8-1.5-0.1-2.2-0.6c-0.5-0.4-0.3-1.2-0.7-1.7c-0.5-0.7-3-1.5-3.4-1.8c-0.1-0.1,0.3-0.4,0.6-0.4c0.4-0.1,0.8-0.1,1.2,0.1
		c0.2,0.1,0.1,0.6,0.3,0.6c0.3,0.1,1.4-1.9,2.7-0.8c0.4,0.3-0.2,1.2,0.3,1.4c0.4,0.2-0.2-1,0.2-1.2c0.7-0.4,2.1,1.7,2.1,1.8
		c0.6,0.1,1.7-0.4,1.4-0.8c-0.3-0.6-1.4,0.4-1.9,0c-0.7-0.6,0.7-1.6,1.7-2c-0.8,0.3-1.4,0.5-2.1,0.5c-5.6,0.1-0.7-0.6-0.8-1.7
		c-0.1-0.8-1.3-0.7-1.8-1.3c-0.7-0.8-0.4-1.4,2.2-1.1c0.6,0.1,0.6,1.1,1.1,1.3c0.4,0.1,0.7-0.6,1-0.6c0.6-0.1,1-0.1,1.6,0
		c-0.1-0.1-0.2-0.3-0.3-0.4c-0.1-0.6,0.7-1.1,1.2-1.2c0.3-0.1,0,0.6,0.2,0.8c0.3,0.4,0.9,0.4,1.1,0.8c0.2,0.4-0.4,0.9,0,1.2
		c0.5,0.5,1.7,1.3,2.1,0.7c0.3-0.7-1.5-0.9-1.6-1.7c0-0.5,1-0.1,1.4-0.4c0.2-0.2-0.7,0.2-0.8,0c-0.1-0.1,0.6-0.5,0.4-0.4
		c-0.5,0.1-0.8,0.8-1.2,0.6c-0.7-0.4-0.8-1.2-1-1.9c-0.2-0.3,0.5,0.3,0.8,0.4c0.3,0.2-0.9-0.9,0-0.8c0.1,0,3.8,2,3.5-0.6
		c-0.4-3.1-3,2.7-2.4-1.3c0.1-0.8,2.3-2.3,3-2c0.6,0.3-0.1,1.5,0.4,2.1c0.2,0.3,0.5-0.5,0.8-0.7c0.5-0.2,1.8-0.2,1.4-0.6
		c-0.3-0.4-1.6,0.9-1.5,0.4c0-0.7,1-0.8,1.5-1.4c0.6-0.6,0.6-1.7,1.3-1.8c0.6-0.2,0.3,0.9,0.6,1.4c0.2,0.4,0.8,0.6,0.8,1
		c0,0.6-0.8,0.8-0.8,1.4c0.1,0.4,0.6-0.5,0.9-0.4c0.6,0.1,1.2,1.5,1.5,1c0.3-0.8-1.1-1.3-1-2.1c0-0.8,3.8,0.2,3.9,0.2
		c0.7-0.5,0.8-1.5,0.7-2.3c-0.1-0.4-1.2,0.4-1.1,0c0.3-1.2,4.1-1.4,3.9-2.3c-0.1-0.8-2.3-0.8-1.9-1.4c0.4-0.7,2.1-0.5,2.2-1.2
		c0.3-3.8-3.1,0.8-3.8,1.5c-0.4,0.3-1.5,0.6-1.2,1c0.4,0.7,1.5,0.3,2.2,0.6c0.1,0-0.2,0.1-0.3,0.2c-0.5,0.3-1,0.5-1.5,0.8
		c-0.5,0.4-2.8,2.4-3.6,2.3c-0.5-0.1-0.3-0.8-0.5-1.2s-0.8-0.7-0.7-1c0.3-0.7,1.2-0.8,1.8-1.2c0.1-0.1-0.4,0.3-0.6,0.2
		c-0.2,0,0.3-0.5,0.2-0.4c-0.7,0.3-1.7,1.8-2.6,1.4c-1.4-0.6,0.7-1.8,1.7-2.4c0.6-0.3,1.3-0.3,1.7-0.8c0.3-0.3-0.8,0.3-1.2,0.2
		c-0.2,0-0.1-0.2-0.1-0.4c0.1-0.7,0-1.3,0.4-1.9c0.2-0.3,0.8,0.2,1,0c0.2,0-0.4,0-0.4-0.2c0-0.3,0.1-0.6,0.2-0.8
		c0.3-0.3,0.9,0.4,1.1,0c0.2-0.3-0.1-0.8,0.2-1.2c0.3-0.4,1.1-0.3,1.3-0.8c0.1-0.4-1.2-0.8-0.8-0.9c0.7-0.2,1.2,0.9,1.9,0.8
		c0.5-0.1-0.8-0.6-1-1c-0.5-0.7,0.9-1.4,1.7-1.9c0.8-0.5,1,1.7,2,2.1c0.6,0.2,1.3,0,1.7-0.5c0.2-0.3-1.3,0-1.1-0.4
		c0.3-0.6,1.5-0.5,1.8-1c0.5-1.3-2.9,2.2-2.1-1.4c0.1-0.6,0.3-0.9,0.4-1.1c-0.4,0.3-0.8,0.6-1.2,0.8c-1.4,0.7,2.6-1.8,2.3-2.2
		c-0.1-0.2-0.3-0.2-0.6-0.1v-0.1c0-0.2-0.7,0-0.6-0.2c0.3-0.7,3.2-0.5,3.7-0.7c0.2-0.2-0.2-0.7,0-0.8c1.4-1.3,3.3-0.5,3.8-3.2
		c0-0.5-0.8,0.5-1.1,0.7c-0.5,0.1-0.9,0-1.4,0c-0.4,0.1-1,0.7-1,0.3c0.2-1.2,3.6-1.2,2.6-2.8c-0.1-0.3-0.9-0.1-1.6-0.1
		c0.1,0.2,0.3,0.4,0.5,0.8c-0.5,0.5-0.8,1-1.3,1.5c-0.2,0.1-0.6,0.7-0.7,0.4c-0.1-0.5-0.1-3.1,0.7-3.2c0-0.3,0-0.5,0.2-0.8
		c0.3-0.8,1.5-0.4,2.2-0.8c0.2-0.1-0.5,0-0.6-0.1c-0.3-0.4-0.6-0.8-0.7-1.2c-0.1-0.6,0.8-2.7,1.3-2.7c0.8-0.1,1.1,1.1,1.9,1.3
		c0.3,0.1-0.3-0.7-0.4-1c-0.2-0.5-0.1-1.3-0.6-1.6s-1.3,0.5-1.8,0.1c-1.5-1.2,1.6-0.8,2.1-0.9c0.8-0.4,0.9-1.6,2.3-1.3
		c0.6,0.2,0.8,0.9,1.4,0.9c0.5,0-0.8-0.6-0.8-0.9c0-0.1,0-0.1,0-0.1c-0.1,0-0.2,0.1-0.3,0.1c-0.2,0,0-0.6-0.2-0.7
		c-0.9-0.2-1.6,1.5-2.6,1.4c-3.3-0.5,1.8-1.1,2.3-1.6c0.2-0.1-0.4-0.1-0.7-0.1c-0.7-0.1-1.2,0.2-1.9,0.1c-0.8-0.2-0.6-1.7-0.4-2.4
		c0.7-3.5,2.1-2,4.4-2.9c1.3-0.6-1.5-1.5-1.9-2.2c-0.2-0.4,0.8-0.1,1.2-0.3c0.4-0.2-1.6-1.6,0.8-0.8c0.2,0-0.3,0.4-0.3,0.6
		c0.1,1.3,0.6-0.7,0.6-0.8s0.2-0.6,0.3-0.4c0.3,0.3-0.1,1.1,0.4,1.2c0.8,0.1,1.8-0.3,2-0.9c0.3-0.7-1-0.9-1.1-1.6c0-0.1,2.3-1.4,3-1
		c0.5,0.2-0.5,1.7,0.1,1.6c0.6,0-0.1-1.3,0.4-1.6c0.1-0.1,0.1-0.1,0.2-0.2c-0.1-0.1-0.2-0.2-0.3-0.3c-0.3-0.2,0.6-0.8,0.3-0.8
		c-0.3-0.1-0.5,0.6-0.8,0.8c-0.9,0.4-2.1,1.1-3,0.6c-0.4-0.3,0.8-0.8,1-1.3c0.6-1.2,0.8-4,2.2-3c0.5,0.4-1.4,0.9-0.9,1.3
		c0.4,0.4,0.9-0.7,1.6-0.8c0.5,0,0.9,0.2,1.3,0.6c0.6,0.6,1.6,2.6,1.3,1.9c-0.2-0.7-1.1-1.2-0.9-2c0.1-0.7,1.2-0.8,1.6-1.3
		c0.2-0.3-0.6,0.2-0.8,0.3c-1.4,0.5-1.9,1.1-2.5-0.7c-0.4-0.9,0.5-0.4,0.6-0.8c0.1-0.1-0.3,0.1-0.3,0c-0.3-0.8,2.3,0.5,2.7,0
		c0.7-1.1-2.3-2.1-2.4-2.1s0.2,0.4,0.1,0.6c-0.3,0.6-1.9,2.5-2.4,2.3c-0.7-0.3-0.8-1.3-0.5-2c0.2-0.6,1.1-0.2,1.5-0.6
		c0.3-0.3-0.8,0.4-1,0.1c-0.4-0.6,1.2-0.9,1.7-0.6c0.2,0.1-0.2,0.6-0.1,0.5c1.5-1.5,3.9-0.6,3.8-2.6c0-0.3-0.6,0.3-0.8,0.1
		c-0.2-0.1,0.1-0.5-0.1-0.6c-0.1-0.1-0.1,0.4-0.2,0.4c-0.4,0.2-0.7,0.1-0.9,0.1c-0.6,0.1-1.3,0.6-1.5,0.1c-1.2-2.4,2.4-0.8,2.5-0.8
		c0.6-0.5,0.1-1.5,0.4-2.2c0.1-0.3,0.3,0.7,0.4,1c0.1,0.1,0.4-0.1,0.4,0c0,0.6-0.4,1.1-0.2,1.6c0,0.2,2.1,3.2,2.5,2.6
		c1.1-1.3-3.6-5.4-2.2-6.1c0.5-0.3,1.4,0.5,2.2,1.1c-0.1-0.3-0.1-0.6-0.3-0.8c-0.5-0.4-1.9-0.2-1.7-0.8c0.1-0.8,1.3-0.7,2.1-0.8
		c4-0.7,0.7,1.3,3.2,2.5c1.8,0.8-2.1-2.9-0.4-2.9c0.5,0,0.8,0.6,1.1,0.6c0.6-0.1,1.4-0.1,1.3-0.6c-0.6-3.9-2.9,0-3.8-0.2
		c-0.2-0.1,0.4-0.3,0.3-0.5c0-0.2-0.3-0.5-0.5-0.4c-0.3,0.1-0.3,0.7-0.7,0.7c-0.6,0.1-1.5,0.2-1.8-0.4c-0.2-0.4-0.1-0.8,0.1-1.2
		c-0.5,0.1-1,0.2-1.3,0.5c-0.5,0.5,0,1.7-0.6,2.1c-0.4,0.3,0-1.1-0.4-1.4c-0.5-0.3-1-0.2-1.5-0.1c-0.4,0.1-0.2,0.8-0.5,1.1
		c-0.3,0.3-0.7,0.6-0.9,0.8c-0.4,0.4-0.7,0.8-0.9,1.1c0-0.2,0-0.3,0-0.4c0.3-0.7,0.8-1.3,0.9-2c0.1-0.4-0.4-0.8-0.2-1.2
		c0.5-0.5,1.4-0.3,1.9-0.8c2-1.9-3.1-1.3-0.4-4.2c2-2.3,1.6,2,1.1,4c0.2-0.4,0.5-0.7,0.8-0.8c0.2-0.1,0.4,0.6,0.5,0.4
		c0.3-0.5-0.2-5,1.4-2.8c0.8,1.1,1.1,2,1.1,2.4c0.4-0.2,0.7-0.4,0.9-0.4c0.4,0,0.6,0.8,0.9,0.8c0.8,0.1,1.6-0.1,2.3-0.5
		c0.9-0.6-2,0.2-2.2-1c0-0.4,0.5-0.8,0.9-0.8c0,0,0.1,0,0.2,0c-0.1-0.1-0.2-0.1-0.2-0.3c0-0.6,1.1-0.4,1.6-0.8
		c0.1-0.1-0.4-0.1-0.5-0.2c-0.7-0.5-0.9-1.5-0.8-2.3s2-0.1,2.2-0.8c0.2-0.6-0.3-1.1-0.5-1.7c0,0.7-0.1,1-0.2,1.1
		c-0.7,0-1.3-0.6-1.9-0.2c-0.9,0.4-1.1,1.6-1.7,2.4c-0.5-0.3-1.3-0.3-1.3-0.8c0.2-0.8,1.4-0.8,1.6-1.6c0.2-0.4-1,0.5-1.1,0.1
		c-0.2-0.6,0.8-1,0.8-1.7c0-0.4-1.3,0.1-1-0.1c1.3-0.7,3.5-0.1,2.5-1.3c-0.4-0.4-1.8-0.2-1.4-0.5c0.5-0.3,1.2,0.6,1.8,0.3
		c0.6-0.4,0.3-1.6,0.8-1.8c0.9-0.3,1.1,1.5,1.2,3c0-0.6,0.2-1,0.4-1.5c0.5-0.8,0.7,1.9,1.3,2.3c0.7,0.4,1.5,0,2.2-0.3
		c0.1,0-2.8-1-2.6-1.7c0.2-0.7,0.8-1.5,1.5-1.4c0.7,0,0.6,1.2,1,1.7c0.5,0.5,1.1,0.4,1.7,0.8c0.3,0.3,0.6,1.5,0.8,1.1
		c0.8-2.3-4.8-1.7-2.7-6.1c0.4-0.8,2-1.7,2.7-1.1c0.7,0.4-0.2,4.8-0.2,5c0.2,0.2,0.5-0.3,0.6-0.6c0.1-0.6-0.4-1.3,0-1.8
		c0.3-0.5,1.5,0.3,1.6-0.3c0-0.6-1.3-0.5-1.5-1s0.8-4.5,2.2-2.8c0.4,0.6,0,5.8,0,6c-0.2,0.7-1.4,1.8-0.8,2c1.7,0.6,0.8-2.7,1.4-3.1
		s1.4,0,2-0.3c0.3-0.2-0.5-0.4-0.7-0.6c-0.7-0.6-2.1-1.3-1.5-2.6c2.4-5.4,0,0.8,2.8-1.1c0.8-0.5,0-1.9,0.6-2.5
		c0.2-0.2,0.5,0.1,0.7,0.3c0.2,0.2,0.1,0.6,0.3,0.8c0.5,0.4,1,0.5,1.5,0.8c0.4,0.3,0.7,0.8,1.1,1c0.5,0.1-0.8-0.7-1-1.1
		c0-0.1,0.4-0.1,0.4-0.3c0.2-1.3-0.1-3.3-0.3-3.2c-0.5,0-3.2,2.3-3.9-0.4c-0.4-1.5,2.3-2.2,3.1-2c0.7,0.1,1,0.9,1.7,1.1
		c0.2,0-0.1-0.6,0.1-0.7c0.2-0.2,0.6,0,0.8,0.1c0.6,0,1.2-0.1,1.7,0.1c1.2,0.4-0.4,3.1,2.2,2.9c0.5-0.1,0.8-0.8,0.7-1.2
		c0-0.3-0.6,0.1-0.8,0c-0.3-0.1-0.8-0.2-0.8-0.5c0-0.4,1.1-0.2,0.8-0.8c-0.4-0.6-0.5-1.1-0.1-2.9c0-0.1,0-0.1,0-0.2
		c-0.2,0.4-0.5,0.8-0.8,1.2c-0.5-0.5-1.3-0.8-1.5-1.3c-0.5-1.7,5.2-5.7,3-1.2c0.8-0.8,2.1,0.1,2.3-0.2c0.5-0.3-1-0.3-1.2-0.8
		c-0.7-1.6,2.2-1.3,2.3-1.6c0.4-0.8-2.5-1.9-2.5-2.2c0.1-0.6,1.4,0.8,1.6,0.3c0.4-0.7-0.8-1.4-0.7-2.2c0.3-0.8,5.4-0.3,5.5,0
		c0.2,0.3-2.3,4.9-2.3,5.2c0,0.1,0.1,0.1,0.2,0.1c-0.2,0-0.3,0-0.3,0.1c0.2,0.3,0.8-0.2,1,0c1.2,0.8-1.6,1.2,0,1.7
		c0.6,0.2-0.4,1-0.5,1.6c0,0.2-0.2,2.9,1.4,1.3c0.3-0.3,0-0.8,0.1-1.2c0.1-0.6,0.4-0.9,0.6-1.4c0.2-0.6-0.8,0.1-0.6-0.8
		c0.6-1.6,2.1-7.8,3.1-8.3c0,0,0.7,2.4,0.7,2.6c-0.2,0.6-1.1,0.8-1,1.5c0.1,0.4,0.9-0.7,1.2-0.3c0.4,0.5-0.4,1.7,0.2,2
		c0.7,0.5,1.6,0,2.2-0.5c0.4-0.4-0.8-0.7-0.8-1.1c0-0.7-0.3-1.5,0.1-2.1c0.3-0.7,1.2-0.8,1.7-1.3c0.2-0.2-0.5,0-0.7-0.1
		c-0.7-0.3-1.8-0.5-1.8-1.2c-0.1-0.6,1.4,0.1,1.7-0.4c0.4-0.7-0.5-1.4-0.3-2.1c0.1-0.5,0.8,0.9,1.2,0.7c0.8-0.3,1.3-0.9,2.8,0.1
		c1.1,0.8-2,4.8-2.3,5.3c-0.1,0.2,0.6-0.3,0.7-0.5c0.6-0.5,0.8-1.5,1.5-1.7c0.5-0.1,0.2,0.8,0.1,1.3c-0.3,0.7-1.4,1.3-1,2
		c0.4,0.6,1.3-1.1,1.9-0.8c0.1,0.1,0.2,0.2,0.2,0.3c0.2-0.1,0.6,0.2,0.8,0.1c0.6-0.6-0.8-1-0.8-1c-0.1-0.4-0.2-3.6,0.2-4.1
		c1.7-2.2,2.8,2,2.9,2c6.1,0.3-3.1-3.7,2.9-1.8c3.1,0.9,0.8,1,0.4,2.3c-0.1,0.2,0.5,0.1,0.7,0c0.6-0.2,1-0.7,1.6-0.8
		c0.2,0,0,0.4,0.1,0.5c0.3,0.2,0.7,0.2,0.9,0.3c0.1,0.1,0.2,0.3,0.4,0.4c0.5,0.4,1.2,0.7,1.6,1.2c0.1,0.2-0.4,0.2-0.6,0.4
		c-0.5,0.3-1.1,0.4-1.4,0.8c-0.6,0.8-0.1,2.1-0.8,2.4c-2.1,1-4.6-0.4-6.3,1.5c-0.3,0.2,0.6-0.3,0.9-0.3c0.5,0,0.8,0.1,1.3,0.2
		c0.1,0.1,0.2,0.2,0.3,0.2c0.8,0.1,1.8-0.5,2.3,0.2c0.4,0.5-1.1,1.1-0.8,1.7c0.3,0.5,0.7-1.3,1.2-1.2c0.7,0.2,0.5,1.7,0.2,2.6
		c0.1-0.2,0.2-0.3,0.3-0.4c0.7-0.3,1.6,0.2,2.3-0.1c0.2-0.1-0.6-0.4-0.6-0.7c-0.1-0.7,0-1.2,0.2-1.8c0.1-0.2-0.1,0.6,0.2,0.6
		c0.8,0.2,1.5,0,2.3-0.1C395.8,87.1,395.9,87.1,396,87.1L396,87.1z M355.5,106.3L355.5,106.3L355.5,106.3z M355.7,106.4L355.7,106.4
		L355.7,106.4z M355.8,106.4L355.8,106.4L355.8,106.4z M356,106.5L356,106.5L356,106.5z M356.1,106.5L356.1,106.5L356.1,106.5z
		 M372.9,77.7c0.1,0.8-1.2,0.9-1.7,1.5C367.4,75.6,372.5,75.6,372.9,77.7z M358.6,85c0.4,0,0.6,0.7,0.8,0.5c0.4-0.3-0.7-1.3-0.3-1.2
		c0.2,0.1,0.2,0.6,0.5,0.6c0.2-0.1-0.2-0.6,0-0.7c0.8-0.4,0.5,2,1.3,0.8c0.2-0.2-0.5-0.6-0.3-0.8c0.6-0.8,1.5-1,2.3-1.6
		c0,0.1-0.1,0.1-0.1,0.1c0,0.1,0.4,0.1,0.4,0.2c-0.1,0.4-0.5,0.8-0.7,1.1c-0.8,2.1-1.8,2.9-4,3.3c0.2-0.6,0.8-1.2,0.6-1.8
		c-0.1-0.1-0.3-0.2-0.5-0.2C358.7,85.2,358.5,85,358.6,85z M357.9,85.4c-0.2,0-0.3,0-0.4,0C357.4,85.3,357.6,85.4,357.9,85.4z
		 M352.3,92.1c0.2-0.4,0.8-0.6,1.2-0.8c0.1-0.1,0.4,0,0.3,0.1c-0.3,0.8-0.8,1.4-1.1,2.1C352.6,93,352.1,92.5,352.3,92.1z
		 M350.5,94.4l0.1,0.2c0,0.1-0.1,0.2-0.1,0.3C350.5,94.7,350.4,94.6,350.5,94.4z M345.6,96.2c0.8-2.1,8.3-1.6,1.8,1.4
		C346.9,97,345.4,96.9,345.6,96.2z M332.5,111.5c0.2,0.2-0.4,0.4-0.3,0.7c0.2,1,2.6,0.9-0.8,2.3c-0.4,0.1-0.8-0.4-1.2-0.6
		c2.4-2,1-2.3,1-1.7c0.1,1.1-1.1,0.4-1.7,0.8c-0.5,0.2-0.8,1.8-0.9,1.2C328.4,112.6,330.8,109.9,332.5,111.5z M325,120
		c0.2-0.6-0.2-1.6,0.4-1.7c3.5-0.7,0.4,2.6-0.8,2.9c0-0.1-0.2-0.1-0.2-0.2C324.7,120.7,324.9,120.4,325,120z M301.9,173.6
		c0.5,0.1,0.2,0.8,0.3,1.2c-0.1,0.1-0.3,0.2-0.4,0.2c-0.4,0.1-0.8,0.1-1.2,0.2C296.6,175.7,301.8,173.5,301.9,173.6L301.9,173.6z
		 M284.4,191.1c0.4-0.2,0.8,0,1.3,0.1c0-0.1,0-0.2,0.1-0.2c0-0.1,0.1,0.1,0.1,0.2c-0.1,0.1-0.2,0.1-0.3,0.2l0.1-0.1
		c-0.4,0.2-0.8,0.7-1.1,0.7S284.2,191.3,284.4,191.1L284.4,191.1z M278.3,227.1c0.1-0.1,0.1-0.1,0.2-0.2c0.2,0.9,0.6,2,0.1,2.9
		C277.6,231.7,278.1,228.3,278.3,227.1L278.3,227.1z M279.8,220.2L279.8,220.2V220c0.2,0.2,0.5,0.3,0.5,0.5c0.6,4-1.5,1.1-0.7-0.2
		c0,0,0,0.1-0.1,0.2C279.6,220.4,279.8,220.3,279.8,220.2L279.8,220.2z M315.8,160.7c-0.4,0.1-0.7,0.2-0.9,0.2
		C314.2,160.8,315.1,160.8,315.8,160.7z M370.9,85.1c-0.2,0.1-0.5,0.1-0.7,0.1C370.5,85.2,371.1,85,370.9,85.1z M355,106.2
		L355,106.2L355,106.2z M355.3,106.3c0.1,0,0.1,0,0.2,0C355.4,106.3,355.4,106.3,355.3,106.3z M355.6,106.3
		C355.6,106.4,355.6,106.4,355.6,106.3C355.6,106.4,355.6,106.4,355.6,106.3z M355.7,106.4L355.7,106.4L355.7,106.4z"/>
	<path id="ie" class="st0" d="M187,262.6c0,0,0,0.3-0.1,0.8c0,0.2-0.8-0.2-1.2,0.5c-0.5,0.7,0.3,1.2-0.1,2.1
		c-0.1,0.2-0.1,0.4-0.2,0.5c-0.5,0.5-1.8,0.7-1.8,0.7s0.8-0.5,1.2-1.1c0.4-0.5,0.4-1.1,0.2-1.4c-0.4-0.5,0.3-0.8,0-1
		c-1.1-0.8-1.8,0.6-3.3,0.6c-0.4-0.1-0.7-0.4-1-0.3c-4.9,2.3-1.5,1.2-1.5,2.2c-0.1,0.3-0.8,0.1-0.7,0.2c0.3,0.3,1.1,1,0.6,1.1
		s-1.2-0.4-1.5-0.1c-0.3,0.4,1.4,0.9,1,1.1c-0.6,0.2-2.5-1.9-3,0c-0.3,1.1,1.6,1.2,2,1.4c0.1,0.3,0,0.8,0,0.8
		c1.2,0.1,0.9-1.3,1.2-0.3c0,0.2,1.7-0.2,1.4,0.2c-0.5,0.6-1,1.1-1.8,1.4c0,0.1-2.8-0.2-3,0.7c-0.1,0.8,0.8,1.5,0.6,2.2
		c-0.1,0.3-2.5-2.5-3.4-2.1c-0.5,0.3-0.5,1.4-1,1.2s-0.2-1.2-0.5-1.9c-0.5-1.2-4.9-1.2-5.7-1s-0.2,0.2-0.2,0.5
		c-0.2,0.5-1.2,1-0.8,1.4s1.1-1.2,1.5-0.8c-1.7,2.1-0.4,1.3,0.2,1.3c0.3,0-0.7,0.6-0.7,0.9c0.1,0.1,1.1,0.9,0.7,1.3
		c-0.5,0-1.5-0.2-1.3,0.4c0.2,0.8,2.1-0.8,2.3,1.1c-0.1,0.2-0.3,0.7-0.5,0.7c-0.8,0-1-0.6-1.6-0.4c-0.8,0.2-1.2,0.8-1.6,1.5
		c-0.1,0.1,0.4,0.4,0.3,0.5c-0.1,0-2.3-0.1-1.9,1.6c0.4,0.6,0.5,1,1.3,1c0.4,0,1.5-0.5,1.2-0.1c-0.1,0.2-1.4,0.6-1.1,0.8
		c0.1,0,0.4,0.8,0.9,0.5s1.5-0.7,1.5-0.6c0.2,0.9-1.4,1.8,0.1,2.1c1.9,0.7,4.3,0.2,4.4,0.5c0,0.3-0.7,0.2-0.7,0.5
		c0,0.2,0.6,0.2,0.8,0.2c-0.7,0.4-1.4,0.7-2.2,0.7c-0.3,0.1-0.4-0.7-0.7-0.6c-0.5,0.1-0.7,0.6-0.9,0.9c-0.4,0.4-1.6,0.7-1.2,1.2
		c0.2,0.3,1,0.1,0.8,0.3c-0.3,0.1-0.6,0.2-0.8,0.4c-0.5,0.5-0.6,1.1-0.9,1.5c-0.2,0.1-0.6-0.2-0.8,0c-0.8,0.3-1.3,0.7-2.1,1.1
		c-0.2,0.1-0.8,0.1-0.9,0.1c0.4,0.2,3.1-0.4,3.1-0.4c0.1,0.1-0.1,0.3,0,0.5c0.2,0.3,0.5,0.6,0.8,0.7c0.4,0.1,0.7-0.3,1-0.2
		c0.2,0.1-0.1,0.3-0.2,0.5c-1.2-0.2-2.6-0.4-2.6-0.4c-0.4,0.1-0.4,0.7-0.8,0.8c-0.7,0.3-1.8-0.2-2.1,0.5c-0.4,0.8,1.8,2.7,1,2.3
		c-0.8-0.4-1.3-1.2-2.2-1.2c-0.7-0.1-2-0.2-2.4,0.1c-0.2,0.1,0,0.5-0.2,0.6s-1.4,0.7-1.3,0.8c0.6,0.8,3.9,1.1,4,1
		c0.2-0.1-0.1-0.5,0-0.7c0.5-0.3,1.8,0.4,1.4,0.7c-0.5,0.5-1.3,0.4-2,0.5c-0.8,0.2-2.3-0.3-2.5,0.6c0,0.3,0.5,0.6,0.2,0.8
		c-0.3,0.2-1-0.6-1.1-0.2c-0.1,0.9,0.6,2.2,1.4,2.4c0.2,0,4.4-0.6,4.5-0.5c0.4,0.5-1.2,0.6-1.8,0.8c-1.1,0.5-0.7-0.8-1.6,0
		c-0.1,0.1,0.2,0.2,0.2,0.3c0,0.2-0.3,0.7-0.5,0.7c-1.2,0.4-1.8,0.8-1.8,0.8c3,0.5,4.7-0.1,5.4-0.7c0.2,0.1,0.6,0.1,0.5,0.3
		c-0.7,0.9-3.9,2.3-3.6,2.9c0.2,0.2,2.4-0.6,3-0.8c1.5-0.3-1.4,1.2,0.5,1c0.7-0.1,1.3-0.1,2-0.2c0.6-0.1,2.2,0.5,3.1,0.4
		c0.3-0.1,0.2-0.4,0.3-0.6c0.3-0.1,0.5,0.1,0.7,0.3c0.2,0.1,0.1,0.2,0.2,0.2c0.4-0.1,0.6-0.7,0.8-0.8c0.5-0.3,1,0.1,1.2-0.2
		c0.4-0.7-0.5-1.8-0.1-2c1.3-0.3,0.4,2.8,2.4,1.7c0.6-0.4,1.3-1,2-1.3c0.4-0.1,0.3,0.3,0.7,0.3c0,0,1.6-0.6,1.7-1.1
		c0-0.3-0.4-0.3-0.2-0.4c1.3-0.5,1.7-0.1,3.1,0c0.3,0.1,1-0.5,0.9-0.2c0,0.2-0.5,0.2-0.4,0.4c0.5,0.6,2.5-0.5,3.2-0.3
		c0.4,0.1,0.4,0.7,0.8,0.8c0.9,0.4,1.1-0.5,1.4,0.2c0,0.1,0.8,0.2,0.8,0.1c0.3-0.8-0.8-1.5-0.6-2.2c0.1-0.4,0.4,0.3,0.7,0
		c2.7-2.5,1.6-3.1,4.2-6.8c0.4-1.2,0.2-1.7,0.1-2.9v-0.8c-0.1-0.5-0.8-0.8-0.6-1.2c0.2-0.4,0.9,0.5,1.2,0.1c0.2-0.4-0.4-0.7-0.3-1.1
		c0-0.6,0.8-0.7,0.8-1.1c0-0.7-0.9-1-1-1.6c0-0.8,0.5-1.8,0.4-2.5c0-0.4-1-0.6-0.8-0.8c0.6-0.4,1.7,0.1,2.1-0.5
		c0.4-0.4-0.5-0.8-0.7-1.3l-0.1-0.2c-0.8-0.5-0.5,0-0.7,0.3c-0.1-0.1-0.3-0.1-0.4-0.2c-0.3-0.1-0.5-0.2-0.8-0.2
		c-0.2,0-0.5,0.1-0.8,0.2c-0.1,0-0.1,0-0.1-0.1c-0.2-0.2,0.3-0.9,0.5-1.3c0-0.2,0-0.3-0.1-0.3c-0.3-0.2-0.7-0.4-0.9-0.5
		c-0.4-0.7-0.2-2.2-0.5-2.8c0-0.1-0.1-0.1-0.2-0.2c-0.1,0-0.2,0-0.3,0s-0.1,0.1-0.4,0.3c-0.3,0.2-0.5,0.5-0.7,0.4s0,0.2-0.2,0.3
		c-0.2,0.1-0.1,0.1,0.1,0.4c0.2,0.3,0.2,0.7,0,0.7c-0.3-0.1-0.6,0.1-0.8,0.2c-0.1,0.2-0.1,0.4-0.2,0.6c-0.1,0.2-0.4,0.3-0.7,0.2
		c-0.4-0.3-0.9-0.4-1.4-0.5c-0.2-0.1-0.4-0.2-0.4-0.5c-0.3-0.6-0.6-0.6-1.2-0.9l-0.2-0.2c0-0.3,0.1-0.6,0.1-1c0,0-0.8-0.8-1-1
		s0.1-0.5-0.3-1c-0.2-0.2-0.3-0.3-0.4-0.3s0.3-0.2,0.4-0.2c0.2,0,0.6,0,0.6,0c0.1-0.1,0.2-0.3,0.3-0.5c0.2-0.2,0.4-0.1,0.5,0
		s0.3,0.2,0.5,0.2s0.4,0,0.5-0.1c0.2-0.2,0.5-0.3,0.7-0.4l0.2-0.1c0.1,0,0.2-0.2-0.1-0.2s-0.4-0.2-0.8-0.4c-0.3-0.1-0.3-0.4-0.2-0.6
		c0-0.1-0.1-0.1-0.1-0.2c-0.1-0.2,0.2-0.2,0.4-0.2c0.1-0.1,0.2-0.1,0.4,0c0.3,0,0.6,0.1,0.8,0.1c0.4-0.2,0.5-0.2,0.8,0.1
		c0.1,0,0.2,0,0.3-0.2c0-0.1,0-0.1,0-0.2c0-0.2,0.3-0.4,0.6-0.6c0.1-0.3,0.3-0.5,0.5-1.2s0.6-1.2,1.7-1.2c-0.2-0.3-0.2-0.3-0.3-0.5
		c0.2-0.2,0.6-0.5,1.1-0.7c0.2-0.1,1.5-0.4,1.6-0.8c0.1-0.3-1.1-0.5-1.4-1.5C188.2,262.9,187,262.6,187,262.6L187,262.6z
		 M168.1,291.2L168.1,291.2c0.2,0.3-0.2,0.7-0.1,1c0.3,0.5,2,0.4,1.5,0.7c-0.3,0.2-2,0-3.6-0.2C166.7,292.3,167.8,291.3,168.1,291.2
		z"/>
	<path id="lt" class="st0" d="M408.6,254.1c-1.1,0.2-1.1,1.8-1.7,2.4c-0.8,1.1-0.7-0.3-1.6-0.1c-0.5,0.1-0.7,0.7-1.1,0.8
		c-0.1,0.1-2.9-0.7-3-0.6c-0.6,0-0.8,0.6-1.4,0.7c-1,0.1-1.4-0.8-2.2,0c-0.3,0.3-0.2,0.7-0.5,0.9c-0.4,0.5-0.7-1.1-1.4-1.2
		c-0.4,0-0.7,0.7-1,0.8c-0.7,0.2-3.7,0-4.3,0.2c-1.1,0.3-4.1,2.2-4.9,3.1c-0.4,0.6-0.3,1.4-0.7,2c-0.3,0.3-0.7,0.2-1,0.2
		c0.1,0.2,0.1,0.3,0.2,0.4c0.7,2.4-0.5,0.9,0.5,3.3c0.1,0.2,0.2,0.4,0.4,0.6c1.2,0,1.2,2.1,1.5,3.1c0.1,0.6-0.3,1.1-0.2,1.7
		c0.1,0.2,0.2-0.5,0.4-0.5c0.4-0.1,0.4,0.7,0.5,0.9v0.4c0.3-0.1,0.4-0.5,0.7-0.5c0.3,0.1,0.3,0.6,0.6,0.8c1.1,0.7,3,0.6,4.2,0.9
		c0.2,0.1-0.1,0.4,0.1,0.4c1.4,0,2.7-1.2,4-0.8c0.4,0.1,0.2,0.8,0.6,1.1c0.1,0.1,0.4-0.2,0.6-0.1c0.4,0.2,0.7,0.5,1,0.8
		c0.6,0.9-1.4,3.5,0.7,6.3c0.2-0.2,0.2-0.6,0.5-0.7c1.4-0.5,0.7,0.7,1.7,1.1c2.6,1.1,1.6-0.9,3.3,1.5c0.6,0.8,0,1.8,0.6,2.2
		c1.1,0.8,3.8-0.7,4.6-1.1c0.8-0.3,1.1,1.4,2,0.7c0.6-0.4,0.7-1.3,1.2-1.7c0.5-0.3,1,0,1.5-0.1c0.5-0.2-0.8-1.2-0.5-1.6
		c0.5-0.6,1.4-0.4,2.1-0.7c1.5-0.8-0.6-0.7,0.5-1.8c0.3-0.4,2.4-1.4,2.6-0.2c0.1,0.3-0.4,0.5-0.4,0.8c-0.1,0.8,1.8,0.2,2-0.3
		c0.8-2.1-2.1-1.5-2.1-1.9c-0.1-0.4,0.8-3,0.8-3.1l-0.8-2.6c0-0.1,0.4-0.1,0.4-0.3c1.1-3.5,0.3,0.2,2.1-2.6c0.5-0.6,0-1.5,0.4-2.2
		c0.5-0.7,1.9,0.3,2.4-0.4c0.3-0.4-0.1-0.9,0-1.3c0.2-0.3,0.7-0.3,0.7-0.6c0.4-1.3-2.7,0.4-2.6-0.5c0.1-1.4,0.8-2.6,0.2-4v-0.1
		c-0.3,0.1-0.6,0.1-0.8,0.1c-2.2-0.4-5-3.8-6.7-4.3c-1.2-0.4-2.4,0.4-3.7,0.4S409.5,253.9,408.6,254.1L408.6,254.1z M385.3,268.2
		c0.1,0.4,0.2,1,0.1,1.8s-0.1,1.3-0.3,1.8s-0.3,0.7-0.3,0.7l0.5,0.3c0,0,0.1-0.2,0.1-0.3c0-0.1,0-0.3,0.2-0.4s0.2-0.2,0.1-0.3
		c0-0.2,0-0.2,0.1-0.5s0.2-0.4,0.1-0.5s-0.2-0.2-0.1-0.5c0.1-0.2,0.1,0.1,0.1-0.4s0.1-0.6,0-1.1c-0.1-0.3-0.4-0.8-0.5-0.8
		C385.4,268.1,385.3,268.1,385.3,268.2L385.3,268.2z"/>
	<path id="lv" class="st0" d="M383.7,263.4c0.4,0,0.8,0.1,1-0.2c0.4-0.6,0.3-1.4,0.7-2c0.8-0.9,3.8-2.8,4.9-3.1
		c0.7-0.2,3.7,0,4.3-0.2c0.4-0.1,0.7-0.8,1-0.8c0.7,0.1,1,1.7,1.4,1.2c0.3-0.2,0.2-0.7,0.5-0.9c0.8-0.8,1.2,0.1,2.3,0
		c0.6-0.1,0.8-0.7,1.4-0.7c0.1-0.1,2.9,0.7,3,0.6c0.5-0.1,0.7-0.8,1.1-0.8c0.8-0.2,0.8,1.2,1.6,0.1c0.6-0.7,0.6-2.3,1.7-2.4
		c0.9-0.2,1.3,2.8,2.5,2.8s2.4-0.8,3.7-0.4c1.8,0.5,4.6,3.9,6.8,4.3c2.3,0.4,2.4-3.2,3.8-3.1c0.5,0,0.8,0.6,1.1,0.6
		c0.3,0,0.1-0.7,0.3-0.8c0.6-0.2,1.3,0.4,1.8,0c0,0,0.5-2.8,0.7-3.1c0.2-0.6,2-2,2-2.1c0.8-2.7-2-5.3-3.6-6.6
		c-0.7-0.5,0.7-1.3-0.7-1.5c-0.5-0.1-0.8,0.7-1.3,0.6c-0.2,0,0-0.3,0-0.5c0-0.1,0.1-0.3,0.1-0.4c0-0.7,0.2-1.3,0.1-2
		c-0.1-0.3-0.8-0.2-0.8-0.5c0-1.2,2.3-2-0.8-3.1c-0.4-0.1-0.9-0.1-1.2-0.4c-0.3-0.4,0.2-1-0.2-1.2c-0.4-0.3-0.8,0.2-1.2,0.3
		c-0.1,0.5-2.9-0.6-3.3-0.5c0,0-1.8,2-1.9,2c-0.7,0.1-3.7-1.9-4-2.4c-0.2-0.2,0.2-0.8-0.1-0.8c-0.6-0.2-1.1,0.4-1.7,0.2
		c-0.3-0.1-0.2-0.7-0.5-0.8c-0.3,0-0.6,0.6-0.8,0.5c-0.6-0.2-1.6-1.6-2.4-1.6c-0.2,0,0,0.3,0,0.5c0,0.1,0.1,0.1,0.1,0.2
		c0.3,1.2-0.8-0.6-1.3-0.2c-0.8,0.7-3.8,3.4-4.5,3.6l-0.2-0.1c0.1,0.2,0.1,0.5,0.1,0.8c0.4,2,2.8,4.7,2.3,6.8
		c-0.3,1.3-2.5,4-3.9,4.2c-0.6,0.1-0.9-0.5-1.4-0.6c-0.9-0.3-1.1,0.4-1.7-0.6c-0.7-0.9-0.7-2.3-1.5-3c-0.8-0.8-2.8-1.2-3.8-2.1
		c-0.6-0.5,0-1.7-0.6-2c-0.8-0.4-1.5,0.9-2.3,1.4c-0.9,0.8-2.3,0.9-3.1,1.9c-2.3,2.3-0.3,5.1-1.1,7.4c-0.3,0.9-1.5,1.3-1.8,2.3
		c-0.2,0.6,0.3,1.1,0.3,1.8c0,0.7-0.3,1.3-0.1,1.9c0,0.1,0.1,0.2,0.2,0.2l0,0C381.7,259.2,383.2,262,383.7,263.4L383.7,263.4z"/>
	<path id="ee" class="st0" d="M419.7,212.9c-0.1,0.4-0.3,0.7-0.9,1.1c-0.8,0.6-9.7,0.7-11.2,0.5c-0.3,0-0.5-0.5-0.8-0.4
		c-1.8,0.4,2.3,1.4-0.8,1c-0.5-0.1-0.6-1.1-1-1s0.3,0.8,0.1,1.2c0,0.1-0.1,0.2-0.2,0.2c-0.2-0.1-0.3-0.2-0.6-0.4
		c-0.5-0.5-0.4,0.4,0.1,0.8l0.1,0.1c-0.3,0.3-0.6,0.5-0.9,0.7c-0.1,0.1-0.3,0.1-0.4,0.2c-0.5-0.1-0.6,0-1-0.1
		c-0.1,0-0.2,0.1-0.1,0.3c-0.5,0.1-1,0.1-1.5,0c-0.4-0.1-0.7-0.8-0.9-0.7c-0.4,0.3,0.5,1.2,0.2,1.4l0.2,0.3
		c-0.2,0.3-0.9,0.2-1.4,0.3c-0.8,0.1-1.4,0.1-1.4,0.5s-0.6,1.2-1.3,1s-0.4,0.6,0.1,1.1s-1.6,0.4-2.1,0.9s-2,0.6-1.6,1.2
		s0.7,0.9,0.2,1.3s-0.1,1.4,0.2,1.1s1.4-0.2,0.9,0.1s-0.9,0.6-0.6,1.6s0.1,1.1,0.9,0.7s1.5,0,0.8,0.3s-1.2,0.6-0.6,1.4
		s1,1.1,1.2,1.9s0.6,1.2,1.6,1.2c1,0.1,1.2,0.8,1.8,0.8s0.9-0.8,0.8-1.6c-0.1-0.7,0.9-1.2,1.7-0.5c0.1,0.1,0.2,0.2,0.2,0.3
		c0.2,0.3-0.5,0.6-0.5,0.9c0,0.8,0.4,1.5,0.4,2.2c0,1.9-0.8,0.8-0.6,2.5l0.2,0.1c0.8-0.2,3.7-2.9,4.5-3.6c0.6-0.4,1.6,1.4,1.3,0.2
		c0-0.1-0.1-0.1-0.1-0.2c0-0.2-0.2-0.5,0-0.5c0.8,0,1.9,1.4,2.4,1.6c0.3,0.1,0.6-0.5,0.8-0.5c0.3,0.1,0.2,0.7,0.5,0.8
		c0.6,0.2,1.1-0.4,1.7-0.2c0.3,0.1-0.1,0.7,0.1,0.8c0.4,0.6,3.4,2.5,4,2.4c0.1,0,1.9-2,1.9-2c0.4-0.1,3.1,0.9,3.3,0.5l0,0
		c0.2-0.5-0.5-1.8-0.2-2c0.2-0.2,0.7-0.2,0.8-0.5c0.1-0.2-0.3-0.3-0.3-0.6c-0.1-0.2-0.1-0.5,0-0.7c0.1-0.1,0.3-0.2,0.4-0.2
		s0.3,0.1,0.3,0.1c0.1,0.1,0.2,0,0.4,0c0.1,0,0.1-0.2,0.1-0.3c0,0,0-0.1,0.1-0.1c0.1-0.1-0.1-0.3-0.2-0.5s-0.2-0.2-0.3-0.2
		c-0.1,0-0.3,0.1-0.4,0s-0.2,0-0.2-0.2c-0.1-0.1,0-0.5-0.2-0.7c-0.1-0.2-0.3,0.1-0.5,0s-0.2-0.6-0.2-0.8s-1.3-1.5-1.3-1.7
		s0-0.5-0.1-0.8c0-0.3,0-0.7,0-0.8s-2.3-4.9-2.3-5.1c0-0.2,0.9-1.8,1.3-2.3h0.1c0.2-0.2,0.4-0.5,0.5-0.7l0.1-2.1c0,0,0,0,0-0.1
		c0.1-0.3,0-0.5-0.1-0.7s0.3-0.5,0.4-0.6s0.6-0.4,0.8-0.4s0.3-0.8,0.3-1.1c0-0.1-0.1-0.2-0.2-0.3
		C420.8,213.7,420.5,213.4,419.7,212.9L419.7,212.9z M397.7,216.8c-0.1,1.3,0.7,0.8,0.7,0.8L397.7,216.8z M391.9,225.2
		c-0.2,0.6-1.7-0.3-1.3,0.8c0.4,0.6,2,0.3,1.5-0.5C392,225.3,391.9,225.3,391.9,225.2z M387.2,225.6c-0.1,0-0.1,0-0.2,0.1
		c-0.1,0.3,0,1-0.6,0.9c0.2,0.4,0.1,0.8-0.2,1c0,0.7-1-0.1-1.4,0.4c-0.4,0.1-1.2,0.2-0.5,0.7c0.7,0.4,1.4-0.4,2.1-0.1
		c0.5,0.3,0.8,1,0.7,1.6c0.5,0.8,1.7,0.1,1.6-0.7c0.2-0.5,0.6,0.1,0.7-0.4c0.1-0.6,0.7-1,1.2-1c0.1-0.8-0.8-1-1.2-1.4
		c-0.5-0.5-1.5,0.2-1.8-0.6C387.6,225.8,387.4,225.6,387.2,225.6z M391.8,229.7c-0.3,0.5-0.7,1.3,0.2,1.4c0.5,0.3,1.6,0.6,1.5-0.3
		C393.5,230,392.5,229.9,391.8,229.7z M390.2,230.8c-0.5,0.1-0.6,0.8-1.1,0.7c-0.4,0.5-0.9-0.7-1.1,0.1c-0.1,0.7-1.3,0.3-1.3,1.1
		c0.5,0.3-0.4,1-0.3,0.3c-0.4-0.5-0.8,0.6-0.7,0.9c0.1,0.5-0.4,0.5-0.5,0c-0.2-0.5-0.8-0.7-1-0.2c-0.9,0.1,0.4,0.4,0.5,0.8
		c0.3,0.2,0.4,0.7,0,0.9c0.3,0.5-0.7-0.1-0.2,0.4c0,0.2-0.6,0.2-0.2,0.5c0.6,0.3,1.2,0.2,1.6,0.8c0.3,0.3,1.2,0,0.8,0.7
		c-0.2,0.3,0,0.8-0.5,0.6c-0.3,0.4-0.4,1.2-0.4,1.7c0.3,0.9,1-0.1,1.1-0.6c0.1-0.9,0.2-1.8,0.2-2.6c0.1-0.6,0.9-0.7,1.3-0.9
		c0.4-0.1,1-0.5,1.4,0c0.6-0.1-0.3-1.1,0.4-0.8c0.6-0.3,0.9-1.2,1.4-1.8c0.4-0.4,0.7-1.4,1.2-0.8c0.2-0.2-0.2-0.4,0.3-0.4
		c0.4-0.6-0.8-0.5-1.1-0.9c-0.5-0.4-1.2-0.6-1.8-0.7C390.3,230.8,390.3,230.8,390.2,230.8L390.2,230.8z M384.4,234.9
		c-0.5,0-0.5,0.5,0,0.2C384.5,235.1,384.6,234.9,384.4,234.9z M398.6,234.9c-0.5,0-0.5,0.8-0.2,0.8S398.6,234.9,398.6,234.9z
		 M388.9,236.6c-0.5,0.1,0.3,1.1,0.1,0.2C389,236.8,388.9,236.7,388.9,236.6z M394.2,239.9c-0.2,0-0.3,0.1-0.1,0.2
		c0.2,0.2,0.1,0.2,0.3,0.2S394.5,240,394.2,239.9z"/>
	<g id="gb" transform="matrix(0.06543739,0,0,0.06544988,-100.0242,-11.29837)">
		<path id="gb-nir" inkscape:connector-curvature="0" class="st1" d="M4508.1,4240.2c0,2.4,0.6,5.1,3.3,0c2.7-5.1,3.7-6.3-4.8-7.6
			c-0.8-0.2-2.2-0.3-4.5,0.3s-5.4,2.8,1.7,3.1C4511,4236.3,4508.1,4237.9,4508.1,4240.2L4508.1,4240.2z M4428.8,4235
			c-1.1,0.2-2.3,0.7-3.3,1.4c-8.6,4.3-11.5,18.6-20.1,22.9c-5.7,2.9-11.5-1.4-15.8-7.2c-23.6,0-24.7,20.2-33.4,36.3
			c-5.1,3.1-9,5.8-9.1,8.6c0,1.1-0.5,1.8-0.5,2.9c-1,2-3.1,1.7-4.3,2.4c-4.6-3.4-5.8-3.7-11.9-1c-4.4-0.7-8.6-1.4-12.9-1.9
			c-2.4-2.2-3.6-2.2-5.7-0.5c-4.3-0.1-7.5,0.8-6.7,3.3c0.2,1.1,0.8,1.9,1.4,2.9c-1.4,3.2-1.1,6.7,3.3,8.6c5.7,2.4,7.5,5.6,11.9,5.7
			s2.4,3.3,1.4,3.8c0,0.2-3.5,1.4-3.8,1.4c-3.2,1.4-7.5,3.4-10.5,6.2c-1.7,1.6-4.3,1.8-7.2,1.4c-2.7,0.2-5.2-2.1-7.2-2.9
			c-1.5-2.7-4.6-4-7.6-0.5c-1.8,2.3-3.3,4.9-4.8,7.2c0,0-6.1-0.1-9.6,0c-1.9,0.4-7.5,2-6.7,2.9c0.9,0.9,2.9,2.2,5.7,5.3
			c6.7,7.4,1.9,12.4,5.3,15.8c3.4,3.4,14.8,15.8,14.8,15.8c-1.2,4.9-1.1,9-1.4,14.8l3.8,3.3c10,1.1,13.3,6.6,18.1,13.4
			c0.7,4.7,3.5,6.6,6.2,7.6c8.8,0.1,15,3.6,22,7.2c5.1,1,8.8-1,10.5-3.3c1.7-3.1,1.5-5.5,2.4-8.6c3.2-3.4,8.4-2,11.9-2.4
			c3-0.1,3.2-6.8,0.5-11s-4.5-4.4-1-6.2c3.5-1.9,0.6-5.6,3.8-4.3c3.2,1.4,6.1-2.8,11-6.2c3.7-2.5,3.5-4.5,5.7-4.8
			c1.8,0.2,3.1,0.3,4.8,0.5c9.3,4.9,4.7,32.8,11,45.4c2.9,5.7,17.2,2.9,15.8,12.9c-2.9,7.2-12.9,20.1-5.7,21.5
			c10.2-2.6,14.3-5.6,23.9-1c1.8,0.9,3.8,1.6,5.7,2.4c2.3-4.7-1.4-11.4,10.5-4.3c0.9-0.5,0.5-0.2,1-0.5c6.7,0.5,9.1,0,8.6,5.3
			s4.1,2.9,6.7,4.3s6,2.9,1.4,3.8c-1.5,0.3-1.8,1.5-1.9,2.9c2.2,1.8,4.5,1,6.7,1.4c8.3-3.7,6.7-2.8,12.9-6.2c4.3-2.4,7.5-4,8.6-6.7
			c1.5-3.8,3.1-6,3.3-10c0.2-4,0.7-5,1.4-5.7c3.6-4.1,10.3-4.1,17.7-3.8c5.4,3.7,8,7.5,14.8,0c5.7-4.8,9.4-7.9,8.6-13.4
			c-0.5-3-1.3-5-1.9-6.2s-0.8-1.7-1.4-1.9c-3.2-0.5-5.8,0.3-9.1,0.5c-1.4-0.1-1.9-0.5-1.9-0.5s9.1-6.5,9.1-18.1s-5.7-14.3-5.7-14.3
			l4.3-5.3c8.6,5.1,15,12.4,11.9,21.5s-9.7,9.2-6.2,16.2c2.8,5.5,4.7,9.2,5.7,15.8c5.6-5,9.9-13.5,11.5-29.1
			c1.9-25.1-2.1-35.7-9.1-39.2c-1.2-1.8-2.6-2.7-5.3-1.9c-4.6,1.4-7.3-0.5-10.5-1.9s-12.9,4.8-12.9,4.8l-4.3-2.9
			c1.1-2.2,1.7-2.4,2.9-5.3c2.5-1.9,5.9-4,11-5.3c11.1-2.9,13-2.9,13.4-11.5s-0.5-9.3-3.3-12.9c-2.9-3.6-5.3-1-5.3-1
			s-5.5-6.6-6.2-13.4s-8.6-15.3-8.6-15.3s6.1-6,5.7-11c-0.1-0.8-0.7-1.3-1.4-1.9c1.5-10.7-1.1-23-6.2-32c-1.4-4.3-10,1.4-14.3-1.4
			c-8.6-2.9-14.3-12.9-24.4-14.3c-8.6-1.4-15.8,5.7-25.8,5.7C4445.2,4243.4,4436.6,4233.6,4428.8,4235L4428.8,4235z"/>
		<path id="gb-gbn" inkscape:connector-curvature="0" class="st2" d="M5260.6,3287c-1.6,0.4-2.6,1.4-3.3,2.9
			c-3.1,5.9-6.9,18.1-10,22c-3.1,3.8-1-6.5-1-8.6s-8.8-4.3-10.5,1c-1.7,5.2-0.2,10.1-3.3,12.9c-3.1,2.8-3.9,0-6.7,9.1
			c-2.8,15.4-3.8,21.6,2.9,24.4s7.6-2.1,11.5-10.5c3.8-8.4-0.7-7.6-1.4-11.5c-0.7-3.8,0.7-4.4,6.7-8.6c5.9-4.2,9.4-1.7,12.9-2.4
			s14.3-22.3,14.3-25.8C5272.6,3289.2,5265.4,3286,5260.6,3287L5260.6,3287z M5209.5,3320.5c-6.3,0-4.1,10.2-10,11.9
			s-4.9-12.1-10.5-1.9c-5.6,10.1-2.9,8.8-0.5,15.8s4.1,2.4,6.2,0s3.2-0.5,1.4,8.6c-1.7,9.1-8.8,14.7-4.3,17.2
			c4.5,2.5,6.7,2.6,8.1-1.9s6.1,5.8-1.9,8.6c-8,2.8-18.7-5.2-26.7-2.4s-9.4,11.1-3.8,15.3s10.3,6.4,14.8,2.9s3.4,3.9,4.8,8.1
			c1.4,4.2,1.5,8.3,5.7,1c4.2-7.3,13.8-5.2,7.2,13.4c-6.6,18.6-8,24.3-11.5,32c-3.5,7.7-7.9,7-4.8,11.9c13.3,7.3,12.1-5.4,17.7-13.8
			c5.6-8.4,8-22,12.9-30.1s-4-8.3-0.5-18.1s5.5-0.4,11.5-11.9s10.6-19.6,4.3-19.6c-6.3,0-6.8-4-7.2-12.4c-0.4-8.4-3.5-9.2-9.1-2.9
			s-5.8-2.3-1.9-15.3C5215.3,3323.8,5215.8,3320.5,5209.5,3320.5L5209.5,3320.5z M5001.8,3537.7c-1.4,0.4-2.3,1.9-2.9,3.8
			c-2.1,8.4-1.2,13.5,4.8,10c5.9-3.5,9.8-2.1,9.1,3.8c-0.7,5.9,5.5,7.4,4.8,1.4c-0.7-5.9-5.1-11.3-10-16.2
			C5005.1,3538.1,5003.2,3537.3,5001.8,3537.7L5001.8,3537.7z M5047.2,3551.1c-7.3,0.7-5.1,3.8-4.8,6.2c0.4,2.4,0.7,1-3.8,3.8
			c-4.5,2.8-7.2,2.6-8.6,7.2c-1.4,4.5,1.9,7.5,5.7,3.3s1.7-8.1,3.8-6.7c2.1,1.4,0.3,0.1,1,2.9c11.2-0.4,8.3-4.8,11.5-7.6
			c3.1-2.8-3.7,1.9-4.8-1.9C5046.2,3554.4,5054.6,3550.4,5047.2,3551.1z M4990.9,3563.5c-0.5,0.3-1,0.8-1.4,1.9
			c-1.7,4.5-1,5,1.4,9.5c4.9,6.3,7.7,9.6,11.9,7.2c4.2-2.4,8.6-7,4.8-10.5c-3.8-3.5-8.2,0.4-11-3.8
			C4994.5,3564.6,4992.4,3562.6,4990.9,3563.5z M4971.3,3569.2c-4.5,0.9-9.1,4.9-13.8,19.1c-6.3,18.9-0.4,20.4,2.4,20.1
			c2.8-0.3,8.4-3.2,5.3,1c-3.1,4.2,2.2,8.1,11,8.1c8.7,0,15-6.7,16.7-4.3c1.8,2.4-1,4.7,2.9,12.4c3.8,7.7,10.1,5.8,14.3,1.9
			s13.9-6.9,11.5-11.5c-2.4-4.5-11.7,7.8-14.8,4.3c-3.1-3.5,5.7-9.5,5.7-9.5s-10.8,3.9-12.9,1.4c-2.1-2.4,6.5-3.7,3.3-7.2
			c-3.1-3.5-6.1,1.7-9.5-1.4c-3.5-3.1-11-2.4-11-2.4s6.7-4,11.9-5.7s2.7-9.9-11-21.5c-2.4-3.5-1.7-4.1-7.6-4.8
			C4974.1,3569.1,4972.8,3568.9,4971.3,3569.2z M4948.9,3611.7c-1.3,0.3-2.3,1.2-3.3,2.4c-4.2,4.5-6.9,7.4,0.5,8.1
			c7.3,0.7,1.9,2.6,1.9,7.2c2.8,11.2,3.7,15.3,12.4,15.3c8.7,0,12.4,2.1,8.6-5.3c-3.8-7.3-1.2-14.7-7.2-21
			C4957.3,3613.7,4952.7,3610.9,4948.9,3611.7L4948.9,3611.7z M4651.4,3632.2c-1.3-0.2-11.7,9.4-12.9,9.5c-8.5,1.3-8.7,4.7-16.2,11
			c-1.4,0-7.2,1.9-8.6,3.3c-14.3,1.4-19.6,5.3-26.7,7.6c-4.3,4.3,0.5,17.2-1,17.2c-20.1-4.3-28.8-19-38.2,7.2
			c-1.4,5.7,0,11.5,2.9,17.2c0,1.4,5.7,0,4.3,1.4c-2.9,2.9-14.3,1.4-12.9,5.7c4.3,11.5,24.4,19.6,24.4,22.9
			c-4.3,11.5-28.6-5.7-34.4,4.3c-5.7,8.6,8.3,29.4,14.8,32.5c6.8,3.2,18.6-11.1,21.5-15.8s-4.5-10,0.5-12.9c2.9-2.9,6.7,11,11,9.5
			c8.6-4.3-8.1-22,0.5-16.2c7.2,7.2,14.7,6.8,22,3.8c22.3-8.7,20.1-42.5,21.5-49.7c2.9-8.6,22.9-20,30.1-31.5
			C4650.9,3652.3,4658.6,3633.7,4651.4,3632.2L4651.4,3632.2z M4996.6,3634.6c-5.9,0-4.7,3.3-8.6,3.3c-3.8,0-7,2.9-3.8,8.1
			c2.4,4.2-3.9,9,1,11.5s6,3,6.7-1.9s0.2-8,4.8-12.9C5001.1,3637.9,5002.5,3634.6,4996.6,3634.6z M4778.4,3640.4
			c-4.1,1.3-13.2,17.9-17.2,22c-1.4,4.3,5.1,4.7,0,10.5s-9.6,1.6-11,18.1c-0.3,8.2,8.6,8.6,2.9,15.8c-7.2,8.6-6.2,4.8-16.2,0.5
			c-4.3,0-12.4-6.7-12.4-2.4c-1.4,10,8.1,27.2,2.4,37.2c-2.9,7.2-14.8-13.4-14.8-6.2c-1.4,18.6,18.1,20,13.8,38.7
			c0,1.4-13.8,6.2-36.8-6.7c-17.2-10,6.2,23.9-5.3,26.7c-8.6,2.9-5.7-24.4-12.9-20.1c-11.2,4.9-14.3,13.7-3.3,23.9
			c20,18.5-0.7,5.1-6.7,10c-6,5,3.9,16.3,6.2,21c7,8.6,7.1,19.9-10.5-1.9c-3.9-4.9-6.8,4.6-9.1,12.4c-1.6,5.5,4.1,10.3-1,24.8
			c-1.1,3,4.9,4.6,12.4,3.8c7.3-0.8-4.9,8.8-6.7,11c-1.8,2.1-9.9,8.2-18.1,4.8c-3.4-1.4-1.6-13.1-11-15.3
			c-5.8-1.4-11.2-11.5-9.5-18.6c1.2-5.5,13.4-42.2-0.5-55.9c-1.5-1.4-13.3,1.7-15.8,5.7s4.2,9,1.4,13.4c-5.5,8.7-4.3,8.5-9.1,11.5
			c-1.9,1.2-9.4-5.1-10-11c-1.3-12.7-9.3-9.9-8.1-2.4c1.8,11.5,3.2,15.3-1,15.8c-2.1,0.2-7.3-1.5-7.6-5.7c-0.4-6-4.2-0.8-6.7,3.8
			c-4,7.5-6.8,11.2,7.6,23.9c4.4,3.9,9.4-4.6,10.5-5.7c-1.8,13.3,11,9.1,11.5,11c1.4,6.5-10.1,3.1-9.5,10
			c1.1,13.9,14.3,22.4,17.2,22.4c15.3,0.5,13,6,14.3,10.5c2.8,9.3,4.5-10.5,10-7.6c7.8,4.1,11.6,6.1,9.5,8.1
			c-5.9,5.9-8.8,6.1-10.5,8.6c-4.7,6.9-8,14.7-7.2,15.3c6.6,4.8,42.7-23.6,40.6-18.6c0,0,15.7,13.2,13.8,17.2
			c-1.9,4-13.9-11.6-19.1-9.1c-11.5,2.9-20.1,28.6-20.1,28.6c-5.1,9.3,10.5,10.5,4.8,24.8c-2.9,5.7-45.4-9.1-54,2.4
			c-11.5,17.2,84,14.8,71.1,20.5c-10,4.3-21.5-1.4-32.9-1.4c-4.3,0-15.8-4.3-14.3,0c1.2,6,3.3,10.8,5.7,14.8
			c4.9,6.9,6.3,8.7,12.7,15.1c3,3,2.9,2.5,4.5,4.5c12.4,2.4,26.9-16.4,44.4-25.8c8.6-4.3,7.2-7.2,17.2-14.3
			c4.3-4.3,15.8-11.5,12.9-7.2c-2.9,8.6-17.2,10-17.2,18.6c0,5.7,22.9,0,18.6,4.3c-1.4,0-60.2,10-50.1,30.1
			c4.3,7.2,20.1,7.2,20.1,14.3s-12.9-8.6-20.1-7.2s-7,13-23.9,22c-4.9,2.7-9.8,11.6-9.1,19.6c0.3,4,6,7.5,3.8,11
			c-4.2,6.8,5.7,10.1,3.3,13.8c-2.3,3.8-3.3-4.3-7.2,0c-3,5-14.3,17.6-13.8,21c0.4,3.2,6.1-6.2,14.3-11.5
			c-5.4,6.6-13.3,18-16.2,22.9c3.3,2.4,2.9-6.2,11.5-3.3c1.5,5-15.7,15.2-11.5,23.4c2.9,7.2,13.8-4.3,16.7,2.9l-24.4,19.6
			c-8.6,11.5-5.2,27.7-13.8,39.2c-4.3,7.2-24.4,18.6-15.8,22.9c11.5,4.3,24.3,0,34.4-5.7c2.9-1.4-5.7-7.2-4.3-10
			c4.3-11.5,15.8-17.2,20.1-28.6c1.4-2.9-1.4-8.6,0-12.9c0-4.3,2.9-8.6,5.7-11.5c4.3-4.3,12.4-1.9,13.8-7.6
			c2.9-15.8-7.2-23.8-1-45.8c3.8,7.2,36.6-30.1,57.3-33.9c-39.3,28.1-50.3,39.3-53.5,54.9c-0.4,2.9,3.2,21.8,9.5,18.6
			c9.7-4.9,12.4,2.3,6.2,8.6c-2.6,2.6,4.1,7.4,11.5,19.1c4,6.4-0.3-12.9,5.7-26.7c10.3-23.8,21.7-26.3,29.6-24.8
			c0,0,43.5,38.7,9.5,18.6c-14.3-8.9-17.3-8.6-24.8,0.5c-4.3,11.5,0.5,14.7-1,25.8c-1.4,4.3-10,4.3-8.6,8.6
			c1.4,2.9,28.7,35.8,22.9,45.8c-2.9,5.7-12.9,5.7-17.2,10c-45.9,41.6,17.2-7.2-20.1,34.4c-20.1,22.9-30.7,20.5-24.4,53.5
			c0.4,1.8-3.2,3.9-6.2-1.9s-5.4-19.7-6.7-19.6c-6.9,0.5-12,4.3-5.3,29.6c3.4,10,13.8,45.5,18.6,44.9c4.8-0.6,3.8-36.8,7.2-39.6
			c6.7-5.7,7.4-7.7,28.2,19.6c5.7,8.6,12.9,31.5,18.6,22.9c14.3-22.9-12.9-47.3,7.2-43c15.8,2.9,15.8,24.3,22.9,32.9
			c1.4,1.4,4.3,2.9,5.7,1.4c2.9-2.9,1.4-12.9,5.7-11.5c4.3,1.4-4.3,8.6-2.9,12.9c1.4,2.9,5.7,2.9,8.6,1.4c7.2-2.9,11.5-10,20.1-12.9
			c7.2-1.4,15.8,4.3,22.9,1.4c8.6-2.9,12.9-14.3,21.5-17.2c7.2-1.4,12.9,5.7,18.6,7.2c8.6,1.4,23.9-8.1,21,0.5c-1.4,5-5.7,8.6-11,11
			c-4.8-3-13.9-5.3-16.7-4.3c-7.5,2.8,4.6,4.1-0.5,9.5c-2.9,1.4-5.7-1.4-8.6-2.9c-1.4,0-43.5,46.8-42,64l17.2,35.8
			c3.8,7.9-11,21,6.2,26.7c5.7,1.4,12.9-15.8,15.8-10c4.3,11.5-20.5,35.3-7.6,35.3c20.1-1.4,40.1-30.1,41.5-8.6
			c1.4,11.5-6.7,11.9-11,22c-4.3,10,7.2,5.7,5.7,14.3c0,17.2-33.4-15.9-28.6,35.3c2.9,8.6,18.6-1,21.5,7.6
			c1.4,7.2-12.9,2.9-18.6,7.2c-7.2,5.7-15.8,12.9-17.2,21.5c-0.7,4,5.9,21.9,6.2,26.3c0.1,1.1,5.9,14.2,9.5,18.1
			c1.2,1.4,5.5,4.3,9.1,4.8c1,0.1,3.9-3,7.2-3.8c15.2-3.8,6.9,1,3.3,2.4c-3.8,1.5-8.1,5.6-10.5,6.2c-9.2,2.2-15-5.4-15.3-5.7
			c-1.3-1.2-8.3-24.5-7.6-22.4c-7.9-2.1-14.1-1.2-14.8,1.4c-2.9,10,12.9,25.8,4.3,31.5s-10.5-10.5-17.7-17.7
			c-9.4-8.4-12.4,3.3-32.5,0.5c-10-1.4-16.7-11.9-26.7-13.4c-4.3-1.4,2.4,6.7-0.5,8.1c-13.7,4.9-24.5,6.9-31.5,6.2l-27.7,14.3
			c-0.5,0.6,0.6,5.7-2.4,11c-2.6,4.5-6.1,6-13.4,10c-14.4,8-23.6,8.8-30.6,14.8c-8.1,7-14.9,9.1-13.4,11c0.4,0.9,1.2,3.7,2.9,4.3
			c1.3,0.5,10.6-4.9,15.8-3.3c3.4,1,6.1,9,11,7.2c2-0.7-1.2-13.5,18.1-14.8c16.7-1.1,22,5.3,21.5,9.1c-2.6,18.4,9.5,16.7,7.6,28.2
			c-1.9,11.5-12.4,14.8-12.9,23.9c-1.1,18.1,4.3,11,4.8,22.4c-8.6,20.1-31.5,40.6-54.4,46.3c-20.5,10-27.4,3.5-34.4,5.3
			c-13.4,3.3-24.8,9.1-33.4,11.9c-14.9-9.6-18.5,5.9-29.6,6.2c-11.3,0.3-20.5,8.3-18.6,8.6c25.3,3.3,24.3,7.6,23.4,18.1
			c-0.6,3.6-19.7,6.7-17.2,10.5c6.7,10.3,28,7.4,29.1,11.5c-8.6,1.4-22.4-2.4-13.8,4.3c-2.9,5.7,3.8,11.5,11,12.9
			c8.6,2.9,0.5-9.5,21-2.4c3.8,1.3,6.7-8.6,11-8.6c34.4-10,21.5,1.4,31.5,0c2.9,0,4.3-8.6,5.7-5.7c2.5,4.9-0.6,16.7,7.2,21.5
			c7.7,4.7,26.3,2.5,25.8,6.2c-1,7.4-39.9,0.7-25.8,15.3c14.3,7.2,38.7-10.5,50.1,1c12.9,12.9,6.1,37.3,22.4,43.4
			c50.6,19.1,35.3-3.8,69.2-12.9c4.3-1.4,7.6,4.8,11.9,4.8c7.2-1.4,11.5-3.3,18.6-6.2c5.7-4.3,28.7-2.9,20.1,7.2
			s-45.8,21.4-51.6,26.3c-7.4,6.2,0,22.4-8.6,29.6c-13.6,10.7-7.3-3.7-32.9-0.5c-23.9,3-12.9-14.3-60.6-19.6
			c-40.1-7.2-48.7-1.4-51.1,9.5c-1.1,5,5.7,12,1.9,13.8c-6.1,3-12.9,4.7-24.4,9.5c-5.7-1.4-8.1-12.4-13.8-11
			c-10,4.3-12.9,36.8-17.2,42.5c-7.2,8.6-16.7,10-23.9,17.2c-4.3,2.9-4.3,9.1-8.6,11.9c-4.3,1.4-22,3.3-26.3,6.2
			c-10,7.2-2.4,11-12.4,19.6c-2.9,1.4-7.2,0.5-10,3.3c-2.9,1.4-0.5,7.2-3.3,8.6c-4.3,5.7-26,22.3-44.4,18.1
			c-1.4,0-30.1,4.8-30.1,14.8c0,7.9,0.9,12.4,11,11.5c5-0.5,10.1-6.9,16.7-7.6c6.6-0.8,14.6,4.1,16.7,7.6c5.7,7.2,3.8,21,12.4,22.4
			c5.7,0,15.8-6.7,18.6-13.8c-13.6-4.2-8.3-6-1-7.2c9.9-1.6,25.8-13.4,34.4-16.2c5.7-2.9,2.9-16.2,10-17.7
			c20.1-5.7,44.4,11.9,61.6,16.2c14,3.2,5.5-6.1,3.3-9.1c0.2,0.1,0.4-0.3,1,0c11.5,5.7,41.5,47.8,58.7,40.6
			c21.5-10,22.9-45.8,45.4-65.9c39.4-16.9,73.5-14.3,92.2,4.3c7.2,5.7,16.2,13.4,19.1,20.5c1.4,4.3,0.5,13.8,3.3,11
			c4.3-7.2-2.4-16.7,6.2-21c7.2-2.9,24.3,8.1,31.5,12.4l7.6,1.9c4.2,1.1,14.8,1,16.2-3.3c3.8-16.5-14.8-12.9-10.5-20.1
			c2.9-4.3,82.6,12.4,84-1.9c1.4-8.6-13.8-16.2-8.1-23.4c4.3-4.3,11.9,22.9,29.1,28.6c4.3,1.4-3.8-21,6.2-8.1
			c2.9,4.3,0,9.1,4.3,10.5s3.8-10.5,8.1-9.1c4.3,0,1.7,3.9-1.4,11c1.4,2.9,5.3,2.9,8.1,1.4c2.9-4.3,0-15.8,8.6-10
			c14.3,10-3.8,2.9-2.4,10c4.3,15.8,67.8,3.3,77.8,4.8c12.9,2.9,46.8,23.9,59.7,23.9c8.6,0,7.2-12.9,14.3-15.8
			c15.8-7.2,23.9,1.9,39.6-8.1c15.8-10,24.1,4.3,32.5,0.5c7.2-2.9,2.9-19.1,8.6-23.4c14.3-7.2,43.4-3.8,47.7-18.1
			c3.1-12.1-2.6-11.8-0.5-26.7c1.4-5.7,11.9-9.5,6.2-11c-21.5-8.6-34.6-4.8-60.6-1c-13.4-3.2-14.7-4.6-20.1-10.5
			c-10.4-0.2-14.6-4.5-17.7-9.1c3.3-1.7,7.1-3.4,8.1-4.3c3.2-2.8,5,0.4,10.5,2.4c5.6,2,0.5-4.4-1.9-7.2c-2.4-2.8-18.4-4.3-24.4-4.3
			c-2,0-3.4,1.1-4.8,2.4c-2.8-0.6-6.1-0.6-11,0.5c-4.3-2.9,10-8.1,14.3-9.5c15.8-5.7,43,13.4,54.4-5.3c4.3-7.2,11-22.4,5.3-28.2
			c-5.7-7.2-31.5,10.9-27.2-2.9c11.2-6.1,22-12.6,34.4-16.7c1.4,0,4.8,9.1,6.2,9.1c4.3,2.9,4.8,4.3,9.1,2.9
			c38.6-10.6,21.2-10.9,9.5-17.7l7.6-7.2l-15.3-3.8c0.1-1.6,0.4-3.2,1.4-5.3c2.9-7.2,15.3,9.1,23.9,6.2
			c10.5-2.1,12.6-10.1,20.1-17.2c7.5-7.1,15.8-13.6,18.1-24.4c4.5-20.9,17.9-36,20.1-48.2c12.7-96.8-64.9-100.7-113.6-107.9
			c-30.1-4.3-7.1,10-35.8,28.6c-4.3,2.9-3.1-6.7-15.8-8.6c-6-0.9-5.7-12.9-11.5-17.2c-2.9-2.9-14.3,2.9-12.9-1.4
			c24.6-25.5,24.8-12.9,44.9-32.9c15.1-18.5-0.2-70.6-27.2-86.9c-6.4-4.9-20-25.1-24.4-29.1c-1.7-1.6-9.7-8.8-21-6.7
			c-8.1,1.5-13.8-0.8-16.7-4.3c-0.6-0.8-12.9,1-12.9,1s9.3-7.9,19.1-3.8c7.2,2.9,24.9,1.2,33.4,1.4c14,25.8,27.1,24.8,29.1,25.3
			c8.1,2,13.1,14.1,9.5,0.5c-5.7-20.1-32.9-57.8-27.2-80.7c1.4-8.6,17-6,16.2-11.5c0.8-8.4-15.6-4.5-26.7-28.2
			c-7.2-11.5-4.3-25.8-12.9-35.8c-24.4-30.1-17.7-20-43.4-35.8c-5.7-2.9-10-10-15.8-11.5c-2.9-1.4-5.7,7.2-7.2,4.3
			c-8.6-21.5-22-115.1-23.4-140.9c0-8.6,1.4-25.3,2.9-33.9c0-2.4-0.5-12.4-1.9-15.3c-4.3-5.7-11.9-9.1-17.7-14.8
			c-5-5.7-12.6-15.8-21-46.3c-4.5-16.3-18.9-13.6-23.9-17.2c-5.7-5.7-24.3-24.4-41.5-31c-5.7,2.9-12.4,9.5-18.1,13.8
			c-12.9,8.6-18.6-5.3-30.1-8.1c-10-1.4-8.6,2.4-18.6-1.9c-62.7-38.8-21.6-14.1,1.9-10c42.2,7.4,20.9-19.1,57.3-22.4
			c6.1,8,21-1.5,34.4-9.5c-9.4-9.3-17.7-6.7-22-16.7c-1.3-3.8,5.7-10.4,5.7-15.8l-4.8-2.4c-10,1.4-19.6,5.3-31,6.7
			c-4.3,1.4-10,1-5.7-1.9c9.1-7,9.4-10.1,16.2-10.5c6.7-0.4,11.8,0.9,19.6,1.9l7.6-1c3.8,0.2,10.2-2.9,14.8-3.3
			c3.1-0.3,18.8-9.5,22.4-14.3s-4.8-4.9-2.9-8.1c3.8-6.4,1.5-3.8,7.2-12.4c5.7-8.6,17.5-10,24.8-18.1s10.3-22.9,14.3-28.6
			c7.7-10.8,15.7-15.4,14.3-31.5c1.4-7.2,7.2-15.3,11.5-21l26.3-26.7c2.9-8.6,2.2-17.7-2.4-26.3c-10.6-21-36.2-16.9-55.9-20.1
			c-19.6-3.2-28.9-6.9-41.1-10.5c-5-1.4-11.5,7.6-26.3-1.4c-12.2-7.5-11.2-11.7-16.2-12.4c-20.1-4.3-43.9,12.9-59.7,14.3
			c-8.6,0-12.4-4.3-19.6-2.9c1.7,0.8,7.3,2.6,6.2,4.8c-1.8,2.1-21.4,13.9-27.7,10c-3.1-1.9,31.4-21,32.5-27.2
			c0.3-1.6-10.7-0.5-14.3-1.4c-3.6-0.9,0.3-3.9-3.8-3.3c-8.3,1.1-14.4,5.6-15.8,6.2c-8.4,3.8-2-4.8,3.3-10c4.3-10,8.1,3.3,18.1-1
			c4.3-1.4,9.1-5.3,14.8-3.8c2.9,0-2.9,7.2,0,7.2c7.2-1.4,15.8-14.3,20.1-18.6c5.7-4.3,19.8-9.3,13.4-9.1
			c-21.4,0.8-43.7,10.2-43-2.4c6.1-7.2,8.2,1.8,14.8-2.9c4.8-4.1-5.3-11.3,14.8-21.5c16.3-8.2,12.8-11.7,34.4-19.6
			c7.5-2.8,16-20.6,35.8-27.7c6.6-2.4,26.3-7.2,31.5-16.2c11.5-19.8-4.8-16.7-2.9-22.4c3.1-9.1,25.2-30,16.2-29.6
			c-5.8,0.2-21.9-6.1-27.7-4.3c-5.8,1.8-1.4,11.7-7.2,11c-3.4-1.3-14.8-6.9-24.8-10c-11.4-3.5-20.4,4.5-26.7,3.3
			c-12.7-2.4-6.2-5.3-14.8-6.2c-17.3-1.8-16.3,0.5-31.5,3.3c-5.7,1.4-16.2,11-16.2,11c4.3-9.5,5.1-16.6,1.9-19.6
			c-9.9-9.3-11.4,0.2-17.2-2.4c-4.5-2-11-10.8-18.6-12.4C4784.4,3645.6,4780.1,3639.9,4778.4,3640.4L4778.4,3640.4z M4494.3,3770.7
			c-2.7,0.9-5.6,3.2-8.6,6.7c-5.9,6.9,2.4,6.8,9.1,16.2s-0.1,10.3-3.8,16.7c-3.7,6.4-7,15.2-11.9,36.8c-4.9,21.5-4.4,23.7,5.3,29.6
			c9.6,5.9,11.8,2.8,8.6-2.4c-3.2-5.2,0.9-7,2.9-18.6s5.9-5.4,7.6-15.3c1.7-9.9-8.3-18.9-4.3-16.7s8,6.3,10,2.4c2-4,0.4-7.3,3.3-9.5
			c3-2.2,3.3-2.4,11-14.8c7.7-12.4-2.2-8-0.5-11.9c1.7-4,4.5,2.5,6.2,0s7-5.1,4.3-8.6s-5.9,1.7-8.1,0s0.6-6.9-3.3-7.2
			c-3.2-1.5-5.1,0.5-9.1,1s-8.5,2.1-11.9-2.4C4499.3,3770.4,4497,3769.8,4494.3,3770.7L4494.3,3770.7z M4638.5,3825.6
			c-1.4,1-6.7,6.8-8.6,10.5c-2.5,4.9-8.1,6.4-9.5,13.8s-2.5,10.9,0,13.4c4,2.5,6.2-1.2,6.2-7.6c0-6.4,2.7-8.9,6.7-13.8
			c4-4.9,2.8-11.8,5.3-15.3C4639.1,3825.7,4639,3825.3,4638.5,3825.6z M4552.1,3971.7c-2-0.7-6.7,0.9-11.5,2.9
			c-9.4,3.8-21.4,15-17.2,14.3c4.2-0.7,7.7,1.6,22.4-5.7C4552.9,3975.7,4554,3972.4,4552.1,3971.7z M4575.9,3983.7
			c-6.7-0.1-18.8,6.2-22.9,15.3c9.3,2.7,19.7,10.6,22.4,12.9c2.9,2.4-1.2,3.1-7.2-0.5c-5-3-8.4-3.4-11.9-2.9c1.5,2.4,8.2,4.6,10,8.1
			c14.8,0.6,21.3-2.7,21.5-1c-5.1,8.3-7.7,5.4-15.3,5.7c-2.2,1.9-1.5,2.9-3.3,3.8c0.1,2-5.4,3.8-6.7,4.8c-0.4,0.5-1.9,4.4-1,5.3
			c1.1,0.8,7.5-0.2,9.5,0.5c6.7,2.1,8.6-4.6,12.4-0.5c-1.2,3.6-11.2,5.3-24.4,3.3c-0.2,1.1-1.8-1.1-2.4-1.4c-6,0.8-3.6-4.6-14.3,1
			c-2.5,9,4.3,10.5,5.7,11.9c10.5,0.6,25.4-0.4,32.9,0.5c14.9-5.9,25.5-11.4,21-6.7c-1.7,1.8-4.3,5.1-6.7,8.1
			c13.7,0.2,22.7-4,32.9-22.4c1-2.5-3-5.5-4.2-6.7c-18.4-15.9-15.4-18.3-28.3-32.6C4591.7,3985.3,4580.5,3983.7,4575.9,3983.7
			L4575.9,3983.7z M4604.1,4087.7c-9.4,1.7-31.3,15.6-33.4,19.1s-1.8,6,1,6.7c2.8,0.7,3.8,2.7-2.9,2.4c-6.6-0.3-9.4,4.6-11.5,6.7
			c-2.1,2.1-5.1,2.2-3.3-2.4c1.7-4.5,0.7-8.7-9.1-3.8c-8.5,4.3-14,7.3-15.8,10c0.6-1.8,1.5-4.3,2.9-6.2c2.8-3.8-2-2.3-6.2,0.5
			c-4.2,2.8-8.6-0.2-12.4,7.2c-3.8,7.3,2.8,8-3.8,12.9c-6.6,4.9-9.4,11.7-6.2,12.4c3.1,0.7,11-1.3,13.8-4.8s3.8-8.7,9.1-9.1
			c5.2-0.3,9.5,2.1,2.9,5.3c-6.6,3.1-11,4.3-7.2,5.7s9.4,4.9,6.2,9.1c-3.1,4.2-8.3,3.8-10,9.1c-1.7,5.2,3,8.8,7.2,8.1
			c4.2-0.7,3.1-8.1,7.6-6.7s12.3,2.2,17.2-1c4.9-3.2,5.7-8.8,5.7-13.4c0-4.5,0.2-3.6-1.9-9.5s-5-10.7,2.4-4.8s8.9,6.2,11,2.4
			c2.1-3.8,2-5.8,4.8-8.6c13.6-15,25.7-30.8,30.6-35.3C4607.6,4095.1,4613.6,4086,4604.1,4087.7L4604.1,4087.7z M4633.2,4174.6
			c-4.1,0.8-8.4,4.8-11.5,8.1c-4.9,5.2-5.9,12.5-2.4,16.7s-3.1,4.7-2.4,9.5c0.7,4.9,0.2,2.2,3.3,8.1c7.3,11.2,6.8,10.1,13.8,11.5
			s11.1,2.4,11.5-10.5c0.3-12.9-3.5-10.2-1.4-18.6s1.8-13.4-3.8-21.5C4638.3,4175,4635.7,4174.2,4633.2,4174.6L4633.2,4174.6z
			 M4638.5,4621.1c-2.4-0.3-4.5,0-5.7,0.5c-11.7,4.8-11,8.7-11,15.8c0.1,18.3,7.3,25.2,16.2,36.3c0,0,42.6-19.7,41.5-22.4
			c-2.7-7.1-3.4-6.9-16.2-1.9c-1.5,0.6-5.3-7.7-5.3-20.5C4655.8,4625.3,4645.6,4621.8,4638.5,4621.1L4638.5,4621.1z M4611.8,4634
			c-0.4,0.2-1.1,0.8-1.4,1.4c-1.2,2.6,0.7,4.3,1.9,5.7c3.6,2.6,1,6.9,4.8,8.1s4.8,2.1,4.3-1s-2.1-8.8-4.8-11.5
			C4614.6,4634.9,4613.1,4633.5,4611.8,4634L4611.8,4634z M5168.5,5080.9c-3.8,1.6-5.4,5.4-3.8,7.2c4.8,6.1,8.1,4.9,11.5,6.7
			c3.4,1.8,13,3.6,9.1-1.9C5181.2,5087.3,5172.3,5079.3,5168.5,5080.9z M4907.8,5173c-1.7-0.2-3.4,1.2-6.7,3.8
			c-6.5,5.2-7.7,1.3-18.6,4.3c-2.6,0.8-5.9,2.4-9.1,4.8s6.5,2.3,12.4,4.3c5.9,2,11.1,10.7,16.2,16.2c5.2,5.6,11.9,2.4,14.3-1
			s4.6-11.1,12.9-11.9s1.1-7.3-4.3-10.5s-9-2-12.4-6.2C4910.9,5174.8,4909.5,5173.2,4907.8,5173z"/>
	</g>
	<g id="dk_kingdom">
		<path id="gl" class="st0" d="M220,5.1c0.5,0.4,0.8,0.7,0.8,0.7c0.3,0.7-0.2,1.3-0.2,2c0,0.3,0.5,0.5,0.4,0.7
			c0,0.2-0.3-0.3-0.5-0.3c-0.3,0.1-0.6,0.4-0.7,0.7c-0.4,1.3-0.4,4.8-2.3,5.3c-3.4,0.9-0.5-1.5-1.1-2.3c-0.3-0.5-1.3,0-1.7-0.5
			c-1.7-1.4,0.5-4.6-1.9-6.1L220,5.1L220,5.1z M191.9,33.9c-0.4,1.9,2.6,7.2,0.9,6.7c-2.6-0.9,2.5-2.3-2.3-2c-0.3,0-0.2,0.6-0.2,0.8
			c0.5,1.7,2.6,2,0.3,3.5c-0.3,0.2-1.3-0.6-1.3-0.8c-0.1-0.3,0.7-0.3,0.6-0.6c0-0.3-0.5,0.2-0.8,0c-0.6-0.3-0.3-1.4-0.5-2.2
			c-0.5-2.2-2.3-3.1-2.2-5.5c0.1-0.9,0.7-1.9,1.2-2.6C188.3,30.4,191.9,33.9,191.9,33.9L191.9,33.9z M212.6,5.1
			c0.1,0.6,1.6,3.6,1,3.5c-1.1-0.1-2.5-2.3-2.5-2.3s0.5,0.8,0.8,1.1c0.8,0.8,3.7,4.4,2.3,5.8c-0.3,0.3-1.5-0.9-2.2-0.8
			c-0.8,0.1-1.5,0.9-2.3,0.7c-0.4-0.1,0.2-0.9,0.1-1.3c-0.2-0.7-0.5-2.2-0.8-1.7c-0.5,0.6,0.5,1.3,0.6,2c0.1,0.5-0.2,0.9,0,1.4
			c0.5,1.2,2.3-2,3.8,0.4c0.5,0.8-1.3,1.3-1.7,2.2c-0.3,0.5,0.2,1.2-0.3,1.5c-0.5,0.4-1.3-0.2-2,0.1c-0.1,0.1,2.6,1,2.7,1.2
			c0.4,0.4,0.2,1.2,0.8,1.5c0.6,0.2,1.2-0.6,1.8-0.5c0.2,0,0.3,2.1,0,2.7c-0.4,0.9-1.5,1.4-2.4,1.8c-2.6,1.1-1.9-2.6-1.9-3.5
			c0.1-0.6-3.3-1.3-3.7-1.9c-0.5-0.7,0.2-2.4-0.6-2.3c-0.8,0.2,0.3,1.7-0.1,2.3c-0.2,0.5-0.8,0.8-1.3,0.8s-1-1.2-1.4-0.8
			c-0.3,0.5,1.1,0.9,0.9,1.5c-0.3,0.9-2.5-0.3-2.5,1.2c0,0.6,0.9,0.9,1.1,1.5c0.2,0.8-1.8,3.4-1.7,4c0,0.4,0.7-0.6,0.8-1
			c0.5-1.2,0.7-2.7,2.1-3.3c0.2-0.1,1.8,3.4,1.9,3.5c0.4,0.4,1.2,0.3,1.4,0.8c0.5,1.2-1.6,1-1.8,1.4c-0.8,1.3,0.8,1.8-1.5,2.9
			c-0.8,0.4-2.5-1.7-3-2c-0.7-0.4-0.5,0.8-0.6,0.8c-0.5,0.2-1.1,0.1-1.6,0.1c-0.7,0-1.4,0.4-2,0.1c-1.3-0.6-3-6-2.1-7.6
			c0.9-1.4,2.5,3.6,2.5,3.7c0.1,0.1,0.3,0.2,0.5,0.3c0.8,0,2.3,0.6,2.2-0.1c-0.3-0.7-1.6,0.2-2.3-0.3c-1.1-0.7-0.9-3.8-2.2-4.8
			c-1.6-1.3-2.6,2.3-3.2,2.3c-1-0.2-0.6-5.5-0.7-6.5c-0.1-0.2-0.4,0.1-0.4,0.3c-0.2,0.5-0.4,0.9-0.3,1.5c0,0.1,0.6,4.5,0.4,4.6
			c-0.6,0.5-1.3-0.7-2.1-0.8c-0.5,0-3.1,2.9-4,0.7c-0.2-0.4,0-0.9-0.2-1.3c-0.1-0.2-0.4,0-0.5-0.1c-0.3-0.2-0.6-0.4-0.7-0.7
			c-0.3-0.8,0.4-1.8-0.2-2.3c-0.2-0.2-0.8-0.3-0.8,0c-0.2,0.8,1.6,4.2,1.6,4.2c-1,2.4-2.3-0.8-2.5-0.8c-0.6-0.5-1.4-0.6-2.2-0.7
			c-0.3-0.1,1,0.4,0.8,0.8c-0.3,0.8-1.3,0.9-1.7,1.6c-0.3,0.8,2.6-1.5,2.7-1.4c0.5,0.3,0.5,1.2,1,1.4c0.5,0.2,0.8-0.7,1.4-0.7
			c0.4,0.1,3.4,3.8,3.4,3.8c0.2,3.1-3,0.7-3.3,0.7c-1-0.1-1.7,1.3-2.5,0.2c-0.3-0.6-0.2-1.3-0.7-1.7c-0.2-0.2-2.5-1.1-2.4-0.8
			c0.3,0.7,3.6,1.3,2.6,2.4c-0.4,0.4-1.2-0.7-1.6-0.3c-0.4,0.6-0.7,1.8,0,2.2c0.6,0.5,1.2-0.8,1.9-0.9c0.4-0.1,0.7,0.4,1,0.4
			c2.4-0.1,2.2-0.9,3.1,2.2c0.1,0.2,0.2,0.5,0.2,0.8c-0.9,3.6-2.4,0.7-4.5,1.2c-0.4,0.1,0.8,0.4,0.8,0.7c-0.4,0.7-1.2,0.8-1.7,1.2
			c-0.4,0.3-0.8,0.6-0.9,1.1c-0.1,0.2,0.5,0,0.7-0.1c0.4-0.3,0.5-0.8,0.8-1.2c0.8-0.7,2.9-1.1,3.6-0.1c0.3,0.6,0.1,1.2,0.4,1.7
			c0.3,0.7,1.1,1,1.1,1.7c0.1,0.6-1,0.7-1,1.2c0,0.4,0.8-0.1,1,0.2c0.5,0.4,0.8,1,0.9,1.7c0,0.2-0.5,0.2-0.7,0.4
			c-0.1,0.2,0.5,0.2,0.6,0.3c0.6,0.7,1.5,1.6,1,2.3c-0.3,0.5-0.9,0.4-1.5,0.6c-0.4,0.1-1.5,0.1-1.1,0.3c0.6,0.5,2-0.2,2.3,0.6
			c0.2,0.7-1.2,0.5-1.7,0.9c-1.6,1.5,2.6,0.5,3.1,0.6c0.2,0-0.5,0.3-0.7,0.3c-0.4,0.1-0.8,0.1-1,0.2c-1.8,0.7-3,1.8-3.2,3.8
			c0,0.1,0.3,0,0.4-0.1c0.6-0.5,0.7-1.3,1.3-1.6c0.7-0.4,1.5-0.2,2.3,0c0.2,0-0.1,0.3-0.1,0.4c-0.2,0.8,0,1.6-0.6,2.1
			c-0.4,0.4-1.2-0.5-1.5-0.1c-0.5,0.6,0.3,1.5-0.1,2.1c-0.3,0.4-2.3-0.3-2.5-0.5c-0.8-0.2,2.2,0.2,2.3,1c0.1,0.7-1.6,0-1.7,0.6
			c-0.1,0.6,1.3,0.4,1.4,0.9c0.1,0.8-2.2,0.3-2.3,0.9c0,0.5,0.9,0.4,0.9,0.8c0.1,0.3-0.7,0-0.8,0.3s1,0.8,0.7,0.8
			c-0.3,0.1-0.6-0.6-0.8-0.4c-1.5,1.4,3.2,0-0.8,2.9c-1.2,0.9-2.6-0.1-3.1-1.2c-0.4-0.9,2-3.8,2.3-4.7c0.3-1.2-1.4,1.6-2,2.7
			c-0.8,1.5-2.8,2.1-3.8,0.1c-1.6-3.1-0.7-5.1,0.8-7.9c0.4-0.8,0-2.4,0.1-2.9c0.1-0.6,0.9-1,0.7-1.5c-0.4-0.6-1.3,0-1.9-0.4
			c-0.3-0.3-0.1-3.1-0.2-3.6c-1.2-3.4-1.8-1.8-3.8-2.5c-0.8-0.4,0-2.3,0-2.7c0-0.1-0.1-3.8-0.4-4.2c-0.9-1.1-0.6,1.4-0.9-0.7
			c-0.1-0.7,0.1-1.5-0.2-2.2c-1.3-2.6-1.3,1-1,2.3l1.7,1.6c0.1,0.2,0,0.6-0.1,0.5c-0.8-0.5-1.2-1.6-0.2,1c0.3,0.5,0.8,0.9,0.7,1.5
			c-0.3,2-3.8-1.8-4.9-0.8c-1.7,1.6,2.6,0.6,3.3,1.2c0.4,0.5,0.2,1.2,0.2,1.9c0,0.2-0.2,0.4-0.1,0.5c0.4,0,0.8-0.4,1.1-0.3
			c0.4,0.1,0.5,0.6,0.8,0.9c0,0.1,0,0.2,0.1,0.3c1.2,1,5.2,2.3,2.6,4.9c-1.8,1.7-8.1,1-9.3-0.9c0-0.1,0.6-2.6,0.6-2.6
			c-0.1-0.2-0.5-0.6-0.5-0.4c-0.4,0.8,0.1,3.1-0.7,2.6c-0.2-0.2-0.2-0.6-0.4-0.8c-0.6-0.5-1.3-1.8-1.9-1.2c-0.6,0.5,1,1.3,0.9,2.1
			c-0.3,1.9-2.4,1.3-3.1,1.7c-0.2,0.1,0.2,0.5,0,0.6c-1.4,0.8-3.9-2.5-4.6-0.4c-0.1,0.4,3.3,0.4,3.8,1c0.4,0.5-1.8,0.8-0.7,1.5
			c0.7,0.6,6.2,2.1,6.6,2.8c0.3,0.6-0.4,1.3-0.8,1.7c-1.1,0.8-1.2-0.9-1.8-1.1c-0.5-0.2-1.1-0.2-1.7-0.1c-1.4,0.3-0.8,1.5-2.8,0.4
			c-0.5-0.2-0.4-1-0.8-1.3c-0.6-0.4-2.5-0.4-2.1,0.2c0.4,0.4,1.2,0.4,1.6,0.8c0.2,0.3-0.1,0.8,0.1,1.1c0.4,0.7,0.8,1.2,1.5,1.7
			c1,0.8,1.8-1.3,2.4-1.6c2.5-1.1,1.6,0.7,3.3,1.5c0.6,0.3,5-0.5,5.2,0.1c0.3,0.6-1.6,0.8-1.3,1.3c0.2,0.6,1.1-0.6,1.7-0.4
			c0.4,0.1,0,0.7,0.1,0.9c0.4,0.8,1.8,2.8,2.4,3.8c0.8,1.2,2.4,2.2,3.8,2.8c0.8,0.5,2.8-0.4,2.9,0.7c0.1,0.8-1.6,2-2.3,1.3
			c-0.2-0.1,0.2-0.5,0.1-0.7c-0.2-0.3-0.6,0.8-0.9,0.7c-0.7-0.1-1.2-1.2-1.8-0.9c-0.8,0.3-0.2,2-0.9,2.1c-0.7,0.2-0.2-1.5-0.8-1.8
			c-0.4-0.2,0.2,1.1-0.2,1.3c-1.6,0.7-1.7-0.9-2.5-1.4c-0.3-0.2,0.8,0.5,0.8,0.8c-0.1,0.7-0.6,1.3-1,1.8c-1,1.1-1.8-1.7-2.2-2
			c-0.8-0.5,1.8,2.1-0.3,2.5c-1.1,0.2-0.5-2.8-2.3-1.6c-0.7,0.5-0.3,1.6-0.8,2.3c-0.6,0.7-1.4-1.9-2.2-1.5c-0.7,0.3,0,1.4-0.3,2
			c-0.2,0.2-0.5-0.1-0.8-0.2c-0.6-0.2-1.1-0.8-1.8-0.8c-0.3,0,0.2,0.6,0.1,0.8c-0.4,0.6-0.8,1.2-1.5,1.5c-0.3,0.1-0.3-0.6-0.6-0.6
			c-0.2-0.1,0,0.3-0.1,0.4c-0.4,0.2-0.8,0.4-1.1,0.3c-0.5,0-0.8-0.8-1.2-0.7c-1.5,0.1,0.4,1.5-1.2,0.8c-0.5-0.1-0.9-0.2-1.3-0.5
			c-0.1-0.2,0.6-0.6,0.3-0.6c-0.9-0.3-2,0.7-3,0.6c-0.4-0.1-0.7-0.7-1-0.8c-0.5-0.1-2.8-0.3-3-0.4c-0.3-0.4-0.3-1.8-0.5-1.4
			c-0.2,0.4,0,1.3-0.3,1.1c-0.3-0.2-0.3-0.8-0.6-0.9c-0.4-0.1-0.7,0.8-1,0.6c-0.8-0.3-1.1-1.6-2-1.6c-0.5,0.1-0.2,1-0.5,1.2
			c-0.8,0.6-2.2,0.4-2.3-0.8c0-0.3,0.5-0.4,0.5-0.7c0.1-0.7,0.6-1.7,0-1.9c-1.7-0.4-1.8,3.4-3.5,2.5s0.1-0.2,0-1.9
			c-0.1-0.7-1.4-2.1-1.3-1.4c0.2,1.4,1.4,1.6,0.1,2.9c-1.4,1.3-3.1-3-3.3-3.2c-0.3-0.4-1.3-0.2-1.1-0.6c0.2-0.7,1.6-0.3,1.6-0.9
			c0.1-0.7-1.2-0.8-1.4-1.6c-0.4-1.1,1.6-2.3,1-4.7c0-0.1-0.4,1.3-0.7,1.3c-2.6-0.4,1.1,3-1.1,3.9c-0.6,0.2-0.9-0.8-1.4-1.1
			c-0.1-0.1,0.4,0.2,0.4,0.3c0.3,0.7,0.5,1.3,0.5,2c0.1,1.1-0.6-0.2-1,0.3c-0.5,0.6-0.6,1.7-1.3,1.8c-0.7,0.2-0.8-0.9-1.3-1.2
			c0,0-2.1,0.8-2.2,0.8c-0.7-0.1-1.1-0.7-1.8-0.8c-0.1,0-0.2,0.3-0.2,0.4c0.1,0.2,0.6,0.4,0.4,0.6c-0.3,0.3-0.8,0.2-1.2,0.4
			c-0.6,0.4-0.8,1.1-1.5,1.2c-2.3,0.6-0.6-2.6-2.8,0.7c-0.4,0.6-0.2,1.3-0.6,1.7c-0.2,0.2-0.3-0.3-0.6-0.4c-0.6-0.1-1.3-0.1-1.9,0.1
			c-0.2,0.1,0.3,0.6,0.1,0.7c-0.2,0.1-0.3-0.5-0.5-0.4c-0.2,0,0,0.3-0.1,0.5c-0.4,0.6-0.8,1.2-1.4,1.6c-0.2,0.1,0.3-0.8,0-0.8
			c-0.3-0.1-0.2,0.6-0.4,0.8c-0.7,0.5-1.5,0.8-2.3,0.8c-0.1,0,0-0.4,0.1-0.6c0.2-0.5,0.6-0.9,0.8-1.5c0.2-0.4-0.8,0.5-1.1,0.7
			c-0.1,0.1-0.3,1.4-0.3,1.4c-0.1,0.1-3.7,1.4-4.2,0.7c-0.3-0.5,0.7-1.1,0.6-1.7c-0.1-0.3-0.7-0.1-0.8,0.1c-0.5,0.4-0.4,1.2-0.9,1.4
			c-0.4,0.1-0.2-0.8-0.3-1c-0.5-1.1,0.7-0.1-0.5-2.9c-0.2-0.4-0.1,2.4-0.5,2.6c-0.6,0.4-1.3,0.2-1.9,0.3c-0.2-0.9-1.7,1.2-2.6,1.1
			c-0.4,0,0.1-1.8-0.5-2.9c-0.1-0.1-0.4,0.9-0.8,1c-0.5,0-3.2-0.2-3.1-0.5c0.1-0.1,0.3-0.1,0.4-0.2c0.5-0.7,0.9-1.3,1.3-2
			c0.1-0.4-0.5,0.6-0.8,0.8c-1,0.4-0.9,1.9-2.3,1.7c-0.7-0.2,0.4-2.1-0.4-3.2c-0.2-0.3-1,0.3-1-0.1c0.1-0.4,0.8-0.1,1.2-0.4
			c0.4-0.3-0.6-0.8,0.5-0.9c0.9-0.2,0.9,0,1.9-0.3c0.6-0.2,1.2-0.2,1.9-0.3c0.3-0.1,0.8,0.2,0.8-0.1c-0.1-0.5-0.8-0.7-0.9-1.1
			c-0.1-0.8,0.1-1.7-0.5-2.2c-0.5-0.4-1.3-0.1-1.9,0c-0.1,0-0.2,0.1-0.1,0.2c0.3,0.7,1.1,1.3,0.9,2.1c-0.1,0.5-0.8-0.8-1.3-0.8
			c-0.3,0.1,0.4,0.7,0.2,0.8c-0.3,0.3-0.8,0.1-1.1,0.4c-0.7,0.4-1,1.1-1.7,1.6c-0.2,0.1,0.2-1.9-1-2.3c-4.2-1.9,2.9,3.9-2.3,4.4
			c-0.4,0-0.3-0.7-0.4-0.9c-0.3-0.6-0.4-1.6-0.9-1.5c-0.7,0.1-0.1,1.7-0.7,1.7c-3.3,0.5-0.8-3.1-1.1-4.1c0-0.2-0.3,0.2-0.5,0.4
			c-0.5,0.6-0.8,1.2-1.3,1.7c-0.7,0.5,0.1-1.7,0.1-2.5c0-0.2-0.3,0-0.5,0.1c-0.6,0.3-1,1.1-1.7,1s-0.8-1.1-1.4-1.4
			c-0.3-0.1-0.2,0.6-0.1,0.8c0.2,0.6,0.8,1,0.8,1.6c-0.2,1.3-2.4,2.2-3.4,2.3c-5.1,0.6,0.8-2.2-1.8-2.9c-0.6-0.2-0.9,0.8-1.5,0.8
			c-0.3,0,0.4-0.6,0.3-0.8c-0.1-0.6-0.3-1.6-0.8-1.5c-0.7,0.1-0.4,1.4-0.9,1.8c-0.6,0.6-0.1-1.5-0.8-0.4c-0.1,0.2-0.3,0.6-0.3,0.8
			c0,0.4,0.5,0.7,0.4,0.9c-0.1,0.3-0.6-0.3-0.7,0c-0.2,0.8,0,1.5-0.1,2.3c0,0.2,0.4,0.2,0.3,0.3c-0.4,0.7-1.1,1.1-1.5,1.8
			c-0.3,0.7-0.3,1.5-0.6,2.2c-0.1,0.1-0.3,0-0.4-0.1c0-0.1,0.1-0.3,0-0.3c-0.2-0.1-0.5,0.2-0.6,0c-0.1-0.3,0.4-0.6,0.3-0.8
			c-0.3-1.2-1.7-0.4-2.4-1c-0.8-0.7-0.6-1.7-2.1-1.5c-0.2,0.1,0.3,0.4,0.3,0.7c-0.5,3.3,0.3,2.3,2.1,4.4c0.2,0.2-0.1,0.6-0.3,0.6
			c-0.8,0.2-1.6-0.4-2.2,0c-0.4,0.2,0.5,0.7,0.5,1.1c0,0.9-0.8,1.8-1.5,2.3c-0.3,0.2-1.6-1.5-1.7-1.7l-0.8-2.3
			c0-0.4,0.7-0.9,0.3-1.2c-3.2-2.3,1.6,5.3-0.4,5.9c-0.9,0.4-0.7-2.7-1.6-2.4c-0.7,0.2-0.6,1.8-1.2,1.7c-0.8-0.2-0.4-1.4-0.7-2.1
			c-0.1-0.5,0.3,0.8,0.4,1.2c0,0.5,0.1,1,0.1,1.5c-0.1,0.3-0.2,0.8-0.3,0.7c-0.3-0.5-0.4-1-0.4-1.5c0-0.3,0.3-0.5,0.3-0.7
			c0.1-0.8,0.5-1.7,0-2.3c-0.2-0.5-0.9-0.2-1.4,0c-0.3,0.1-0.4,0.5-0.4,0.8c-0.1,0.4,0.2,0.7,0.2,1s-1.2-1.2-0.8,0.2
			c0.3,1,1.7,0.3-0.3,2.7c-2.3,2.9,0.2-1.9-1.1-3.3c-1.2-1.2-2.2,1.8-2.1,2.2c0.1,0.7,1.3,1.1,1.1,1.8c-0.2,0.8-2,1.3-2.3,0.6
			c-0.2-0.3,0.1-0.8-0.2-1c-1.6-1.4-2.8,0.4-4.2-1.1c-0.2-0.1-0.2-0.4-0.3-0.6c-0.3-0.6-0.3-1.4-0.8-1.8c-0.2-0.2-0.6,0.4-0.5,0.7
			c0.1,0.7,0.8,1,0.9,1.7c0.3,0.8-0.7,1.7-0.8,2.5s0.9,1.5,0.8,2.3c-0.5,1.6-1.8-4.2-2-4.4c0.6-1.3,1.2,1,1.2,1.1
			c0,0.4-0.5,0.8-0.4,1.1c0.2,0.7,0.8,1.1,1.1,1.8c0.2,0.8-3.8,1.9-4.3,2c-0.1,0.1,0.2,0.2,0.3,0.3c0.7,0.4,1.8,0.4,1.9,1
			c0.2,0.6-0.8,0.8-1.4,0.9c-2.3,0.6-2.7,0.2-3.6-1.9c-0.1-0.2,0.4,0,0.5,0.2c0.1,0.5-0.3,1-0.1,1.5c0.4,0.6,1.2,0.8,1.6,1.3
			c0.2,0.3-1,0.5-2.3,0.7c-0.8,0.1-1.6-3.2-2-3.1c-2.2,0.6,1.4,2.1,1.6,2.9c0.1,0.5-0.7,0.7-0.9,0.8c-0.6,0.4-1.1,1.1-1.8,0.9
			c-3.2-1,3.3-2.8-2-3c-3.4-0.1,2.7,5.6,0.4,4.7c-1.1-0.5-2.7-4.3-3.7-4.5c-0.6-0.1,0.5,1,0.8,1.5c0.7,1,1.7,1.9,2.2,3.1
			c0,0.2-0.3-0.1-0.5-0.1c-0.7,0.1-1.4,0.7-2.2,0.5c0,0-1.3-2.6-1.3-2.7c-0.2-0.1-0.7,0.2-0.6,0.4c0.6,1.4,2,2.2,1.9,3.9
			c0,0.2-0.5-0.3-0.7-0.5c-0.3-0.4-2.1-3.3-2-3.1c0.2,0.6,2.6,4.3,2,4.3c-0.5,0.1-0.9,0.1-1.3-0.2c-0.6-0.3-0.9-2.1-1.1-1.5
			c-0.3,0.8,0.5,1.5,0.9,2c0.4,0.3,1.3-0.3,1.3,0.1c-0.3,2.1-2.9-0.3-2.9-0.3c-1.7-1.5-2.5-3.6-3.4-5.4c-0.1-0.2,0,0.4-0.1,0.5
			s-0.1-0.2-0.2-0.2c-0.8,0,0.7,1.3,0.8,2.1c0,0.4-0.5,0.6-0.7,0.9c-0.1,0.3,0.6-0.6,0.8-0.4c0.1,0,1.1,2,1.1,2.4
			c0.1,0.8-1.6,0-2.4,0.2c-0.4,0,0.8,0.1,1.1,0.3c0.6,0.2,1,0.5,1.6,0.7c0.3,0.2-0.8-0.8-1.1-0.5c-1,1.9,1.6,2.5-1.3,3.5
			c-1.4,0.5-1.3-2.7-1.4-3.1c-0.1-0.1-0.4,0.3-0.5,0.2c-0.8-0.4-0.8-1.5-1.3-2.1c-0.2-0.2-0.6-0.1-0.6-0.3c0.1-0.9,2-0.8,2.3-1.6
			c0.1-0.4-0.8-0.5-1.1-0.3c-0.4,0.1-0.4,0.8-0.8,1c-0.2,0.1-0.2-0.5-0.4-0.4c-0.4,0.1,0,1.1-0.8,0.7c-0.3-0.1-0.3-0.6-0.6-0.6
			c-0.8,0.1-1.4,1.1-2.1,0.8c-0.6-0.2,0.7-0.8,0.8-1.3c0.1-0.5,0-1-0.3-1.4c-0.5-0.4-1.4,0.1-1.8-0.4C8.4,89.4,10,89,10,88.9
			c0.2-0.1,1.4-0.1,2.3-0.2c0.7-0.1,1.1-0.5,1.5-0.8c0.2-0.2-0.6-0.4-0.4-0.5c0.8-0.4,3.1,0.1,3.8-0.9c0.2-0.4-0.9-0.3-1.4-0.2
			c-1,0.1-4.6,1.3-3.8-0.2c0.4-0.8,1.8-0.4,2.6-0.8c1.1-0.6,0-1.8-0.5-2c-0.3-0.1-0.4,0.6-0.7,0.6c-0.4,0.5-1.2,0.9-2.1,1
			c-1.8,0.2,1.9-1,1.6-1.8c-0.4-0.8-1.5-0.6-2.1-1.1c-1.1-1,1.5,0.8,2.6,0.8c0.3,0-0.7-0.2-0.8-0.4c-0.2-0.3-0.5-0.8-0.2-0.8
			c0.6-0.1,1.1,0.5,1.7,0.6c0.1,0.1-0.1-0.2,0-0.3c0.6,0,1.2,0,1.8,0.1c0.3,0.1,0.5,0.8,0.8,0.6c2.5-2.2-2.9-0.8-3-0.8
			c-0.7-0.1-2-2.2-2-2.3c-0.1-0.4,2.3-0.2,2.9,0.1c3.4,1.9,1.1,0.5,5,0.6c0.6,0-1.5,0.8-1.7,0.4c-0.3-0.8,1.3-1.4,0.9-2.2
			c-0.2-0.6-0.7,1.1-1.2,1.5c-1,0.7-2.9-0.4-3.8-0.8c-0.2-0.2,0-0.8,0.3-0.8c3.2-0.7-0.2,1.2,3.4,0.7c0.2,0-0.2-0.5-0.1-0.7
			c0.3-0.7,1.5-1.1,1.2-1.8c-0.2-0.8-1.3-1.1-2-0.8c-0.5,0.4,0.5,1.3,0.3,1.9c-0.2,0.4-0.8,0.7-1,0.5c-0.7-0.4-0.8-1.6-1.5-1.7
			c-0.5-0.1-0.5,1.7-0.8,1.3c-0.4-0.5,0.5-1.2,0.5-1.8c0.1-0.2-0.2,0.5-0.4,0.5s0-0.6-0.2-0.5s0,0.8-0.3,0.7
			c-0.2-0.2,0.1-0.8-0.2-0.8c-2.8-1.9-1.6-0.5-3.3,0.6c-0.2,0.1-0.4-0.2-0.3-0.4c0-0.1,0.3,0,0.4-0.1c0.5-0.6,1.2-1.1,1-1.8
			c-0.2-0.6-1.2,0-1.7-0.4c-0.1-0.1,0.7-3.4-1.7-2.3c-0.7,0.3,0.5,1.5,0.2,2.2C7.4,74,7,73,6.8,72.7c-0.7-0.9-1.7-1.6-2.2-2.6
			c-0.1-0.5,0.6-0.4,0.8-0.3c1.1,0.1,2,1.3,3.1,1c0.6-0.1-2.8-2.3-2.6-3.2C6,67.2,6.5,68,6.7,68.2c0.4,0.6,0.7,1.5,1.5,1.6
			c0.6,0.2,1.9-0.2,1.7-0.8c-0.2-0.7-1.4-0.3-2.1-0.6c-0.2-0.1,0-0.4,0.2-0.5c0.8-0.5,2.2,0,2.5-1.2c0.5-1.9-3.2-3.8-3.2-5.3
			c0.2-2.2,8.2,7.7,4.5,1.6c-1-1.7-5,0-3.8-3.9c0-0.2,0.4,0.2,0.6,0.1c0.1,0,0-0.3,0.1-0.3c0.4,0.6,0.6,1.2,0.9,1.7
			c0.5,0.5,1,0.8,1.7,1.1c0.2,0,0-0.5-0.2-0.6c-0.5-0.6-1.3-0.8-1.6-1.4c-0.9-2.6,4.2-1.5,4.6-1.7c0.5-0.1-0.7-0.8-1.1-0.8
			c-1.1,0-2.2,0.9-3.2,0.8c-0.3,0-0.1-0.7,0.2-0.8c0.5-0.4,1.6,0.1,1.9-0.4c0.2-0.5-1.2,0.2-1.7-0.1c-0.2-0.1,1.4-1.2,2.1-0.8
			c1.4,0.8,3,2.4,3.1-0.8c0-0.2-0.4-0.2-0.6-0.1c-0.7,0.2-1.1,0.8-1.7,0.9c-0.2,0-2.3-1.6-1.9-2.2c1.1-1.4,2.6,2.6,3.9-0.4
			c0.1-0.2-1.7-1.6-2.2-2.5c-0.1-0.2,1.5,0.4,1-1.1c-0.1-0.3-0.8,0.5-0.9,0.2c-0.2-0.6,0.2-1.1,0.3-1.7c0.9-3.3,5.8-1.7,8.2-2.9
			c0.2-0.1,0-0.6-0.2-0.6c-1.6-0.8-2.9-0.4-4.7-0.4c-0.1,0,0.4,0,0.5-0.1s0-0.4,0.2-0.5c0.3-0.2,0.8-0.3,1.1-0.3
			c0.4-0.1,1.5,0.5,1.3,0.1c-0.3-0.8-1.7-0.5-1.9-1.2C17.3,40,20.6,41.2,21,41c0.7-0.4,0.8-1.4,1.4-1.8c0.3-0.1,0.4,0.7,0.8,0.7
			c0.2,0.1,0-0.4-0.2-0.6c-0.3-0.3-0.7-0.3-0.9-0.6c-0.4-0.4-2.2-2.2-1.8-2.5c0.1-0.2,0.5-0.1,0.6-0.3c0.1-0.1-0.4-0.3-0.2-0.4
			c0.8-0.8,4,2.8,4.5,1.3c0.8-2.3-5.1-0.3-4.1-2.9c0.1-0.4,0.9,0.2,1.2-0.1c0.5-0.7,0.1-1.9,0.8-2.2c0.5-0.3,0.8,0.8,1.2,1
			c0.8,0.3,1.6,0.3,2.3,0.3c0,0-3.1-1-3-1.2c0.6-0.5,1.6-0.3,2-0.9c0.3-0.5-0.5-1-0.4-1.6c0.1-0.2,0.6-0.1,0.7,0.1
			c0.2,0.5-0.1,1,0.2,1.5c0.2,0.2,0.1-0.8,0.3-0.7c0.8,0.1,1.5,1.4,2.1,1.8c0.4,0.2,1,0,1.3,0.4c0.3,0.3,0,0.8,0.3,1.1
			c0.4,0.4,1,0.3,1.5,0.6c0.2,0.1,0.2,0.7,0.5,0.7c0.2-0.1,0.1-0.6,0-0.8c-0.5-0.6-2-0.6-1.7-1.3c0.2-0.7,1.8,0.2,2.2-0.5
			c0.4-0.6-1.2,0.1-1.9-0.1c-0.8-0.2-1.8-0.7-2.5-1c-1.5-0.8-2.6-3.7-1.4-3.6c2.6,0.2-0.1,3.5,2.7,3.3c0.6-0.1,2.3-2.3,3.2-0.8
			c0.3,0.6,0.1,1.3,0.3,1.9c0.1,0.2,0.6,0.6,0.6,0.4c0-0.7-1.7-5.1,0.8-4.2c0.6,0.2,1.2,0.3,1.6,0.8c1.1,1.4-1.2,2.3-1.4,3.5
			c-0.1,0-0.1,3.6,0.3,3.3c1-0.6,0.2-2.6,0.6-3.6c0.8-2.2,2.5,0.3,3.6-2.3c0.6-1.4-2.1,0.6-2.7-1.6c-0.4-1.4,3.8-3.1,4.1-3.8
			c0.2-0.5-0.2-1.3-0.8-1.3c-0.5,0-0.5,0.9-0.8,1.3c-0.4,0.3-1.1,0.4-1.2,0.8c0,0.3,0.7,0.3,0.6,0.6c-0.2,1-1.3,1.6-2.3,2.3
			c-0.1,0.1-0.3,0-0.4-0.1c0-0.2,0.5-0.3,0.4-0.4c-0.5-0.2-0.9,0-1.4-0.1s-1.4,0-1.4-0.6c-0.1-0.7,1.7-0.8,1.3-1.4
			c-0.2-0.3-7.1,2.4-8.1,0.9c-0.2-0.3,1.9-1.5,2-1.6c0.8-1,2.3-2.8,4.7-2.5c0.6,0.1,1,0.3,1.5,0.7c0.1,0.1-0.4,0.6-0.2,0.6
			c0.9,0.3,3.5,0.1,2.7-0.3c-0.2,0-0.4,0.1-0.5,0.1c-0.8-0.2-2,0-2.3-0.7c-0.3-0.5,1.8-0.8,1.3-1c-0.7-0.3-1.1,0.8-1.7,0.8
			c-0.8,0.1-2.5-0.8-2.1-1.4c0.6-0.7,1.7-0.2,2.4-0.6c0.3-0.1-0.3-0.5-0.2-0.8c0-0.2,0.4-0.2,0.5-0.4c0.2-0.2-0.2-0.7,0.1-0.8
			s0.5,0.5,0.8,0.6c0.3,0.1-0.1-0.8,0.2-0.8c0.7-0.3,2,0.5,2.2-0.3c0.3-1.6-5.2,1.4-1.6-2.3c0.7-0.6,2.8,1.1,3.4,1.2
			c1,0.2,2.1-0.7,3.1-0.4c1.3,0.4,3.5,2.9,3.3,4.4c-0.1,1.2-1.5-1-0.7-0.9c0.2,0.1,0.2,0.5,0.4,0.5c0.1,0.1-0.4-2.4-0.8-2.9
			c-0.5-0.6-2.7-1.7-3.5-1.6c-0.4,0-0.7,0.7-1,0.7c-0.5,0-0.8-0.6-1.2-0.7c-0.7-0.2-1.5-0.1-2.1-0.5c-0.6-0.3,1-0.5,1.5-0.8
			c0.4-0.2,3-2.1,2.3-3c-0.4-0.6-1.2,0.7-1.8,0.4c-0.6-0.2-1-2.2-0.2-2.2c0.5,0,0.8,0.4,1.3,0.6c0.8,0.2,1.7-0.1,2.2,0.5
			c0.5,0.7-0.3,1.6,0,2.3c0,0,1.2-0.2,2.6,0.1c0.5,0.1,1.6,0.8,1.3,0.5c-0.5-0.7-1.2-1-1.9-1.3c-0.5-0.1-1.2,0.6-1.4,0.2
			c-0.4-0.6,0.7-1.2,0.5-1.9c-0.2-0.8-5,0.5-2.7-3.5C41,7.1,41.4,7,41.6,7.1c1.3,0.1,2.3,0.9,3.6,1.1C45.6,8.3,46,8,46.3,8
			c0.8,0.1,1.5,0.2,2.2,0.5c0.6,0.3,0.9,0.9,1.5,1.2c0.2,0.1,0.1-0.4,0.2-0.5c0.5-0.3,1-0.5,1.6-0.4c0.8,0.1,1.1,1.2,1.9,1.3
			c0.8,0,1.4-0.6,2.1-0.5c0.3,0.1,0,0.7,0.3,0.8c0.2,0.1,0.4-0.7,0.5-0.5c1.6,3.3-2,0.2,1.6,3.4c0.1,0.1,0-0.3-0.1-0.5
			c-0.5-0.8-2.2-2.3-0.6-2.6c2.1-0.6,2.3,4.4,3.1,3.2c0.3-0.5-2-3.4-2.5-3.6c-1.6-0.7-4.4-1.5-6.2-1.6c-0.7,0-1.2,0.5-1.8,0.4
			c-1.2-0.1-2.2-0.9-3.3-1c-0.3-0.1-4.9,0.1-4.7-1.3c0.5-2.7,2.1-0.2,2.9,0.2c0.2,0.2-0.3-0.5-0.5-0.7c-0.3-0.3-0.8-0.5-1-0.8h3.9
			c0.3,0.1,0.7,0.1,0.9,0.4c0.4,0.5,0.4,1.3,0.8,2c0.1,0.1,0.5,0.2,0.5,0c0-0.6-0.7-1.5-1.4-2.3h1.9c0.7,1,1.5,1.7,2.9,1
			c0.8-0.5,1.3-0.8,1.5-1h5.1c-0.1,0.7-0.3,1.3-0.7,2.2c-0.6,1.4,0.3,0.5,1.6,1.8c0.5,0.5,1.2,2.1,1.2,1.4C61.8,8.8,59.3,9,58.9,8
			c-0.1-0.2,0.9-2.3,1.2-2.9h0.6c0.7,0.4,1.5,1.3,1.2,0.8c-0.3-0.4-0.8-0.6-1.2-0.8h3.5c0,0.2,0,0.3,0,0.4c0,0.6-0.5,1.1-0.4,1.7
			c0.1,0.7,1.7,4.2,2,2.2c0-0.1-3-2.2-1.2-3.7c0.4-0.4,0.8,0.5,1.2,0.7C66.4,6.6,67,6.7,67.5,7c0.3,0.2,0.4,1,0.6,0.8
			c0.6-0.8-1.5-1.1-2.3-1.5c-0.8-0.4-1-0.7-1.2-1h3.2c0.5,0.6,0.9,1.5,0.8,1c0-0.3-0.1-0.7-0.3-1h0.8c0.1,0.1,0.4,0.3,0.8,0.5
			c0.2,0.1-0.4-0.4-0.5-0.7c0,0,0,0,0-0.1L212.6,5.1L212.6,5.1z"/>
		<path id="dk" class="st3" d="M311.9,249.3c-0.8,0-1.5,1.2-2.1,1.5c-0.7,0.3-1.5,0.2-2.1,0.5c-0.9,1.1-1.2,1.2-1.7,2.5
			c-0.4,1-0.8,1.9-1.8,2.4c-0.8,0.3-1.7,0.4-2.6,0.2c-0.5-0.1-1,0.4-1.4,0.5c-0.4,0-0.9-0.3-1.2-0.2c-1.2,1-2.6,3.3-2.6,4.8
			c0.4,0.6,0-0.4,0.2-0.6s0.2,0.6,0.7,1.2c0.7-0.3,0.9,0,1-0.2c0.1-0.3-0.5-0.5-0.1-1.1c0.4-0.7,0.4-0.2,1.5-2
			c0.3,0.1,0.7-0.1,0.8-0.5c0.7,0.1,1.2,0,1.9-0.5c0.3,0,0.4,0.6,0.7,0.6c0.6-0.4,1.6-0.5,2.2-0.7c0.4-0.2,1.3-0.4,1.3-0.6
			s0.5,0.2,1,0.4c0.6-0.3,0.5-0.1,1,0.2c0.4,0.3,1.2,0.7,1.5,0.8c0.4,0.2,0.3-1.6,1.3-2.6c0.3-0.3,0.4-0.8,0.2-1.8
			c-0.2-0.6,0.2-1.2,0.1-1.5c-0.5-1.4-0.9-0.5-0.7-1.8C310.9,250,313.3,249.3,311.9,249.3z M315.5,254.3c-0.2,0-0.8,0.2-1.1,0.3
			c-0.3,0.1-0.4,0.1-0.6,0.4c-0.4,0.3,0,0.4,0.4,0.4s0.3,0.1,0.5,0.3s0.4-0.5,0.3-0.8s0.2-0.2,0.6-0.2S315.8,254.3,315.5,254.3
			L315.5,254.3z M306.7,257.6c-0.3,0-0.6,0.1-0.8,0.2c-0.5,0.3-0.5,0.9-0.8,1.3c-0.2,0.2,0.3-0.7,0.1-0.8c-0.3-0.3-1.4-0.1-1.8,0.2
			c-0.5,0.4-1,0.8-0.9,1.2c0,0.1,0.4,0.4,0.2,0.5c-0.2,0.2-0.3,0.5-0.2,0.6c0.1,0.3,0.5,0.3,0.5,0.3c0,0.4-0.7,0.9-0.6,1.1
			c0.1,0.3,0.7-0.4,0.8-0.2c0.3,0.4,0,0.7-0.1,1.4c0,0.4,0.7,0,0.3,0.3c-1.5,0,0.7-0.9-1-1.1c-0.5-0.1-0.7,1-0.9,0.8
			c0.1-0.4,0.1-1,0.6-1.5s0.6-0.6,0-0.8c-0.2-0.4-0.5-0.7-1.2-0.4c-0.1,0-0.6,0.5-0.9,0.9c-0.2,0.3-0.1,0.6-0.8,0.9
			c0,0.5,0.8,1.7,0.2,1.8c-0.3,0-0.6,0.1-0.7-0.2c-0.2-0.9-0.3-1.1-0.5-0.7c-0.3,0.4-0.5-0.4-1.6-0.2c-0.9-1.1,0.1-1.4-0.4-1.6
			c-0.4-0.2-0.7,2-0.8,3.3c-0.1,0,2.3,2.7,0.1,1.2c-0.1-1.8-0.1-0.8-0.2,0.6c0,0.2,0,0.5,0,0.8c0,0.6-0.1,1.2-0.2,1.8
			c0,0.3,0,1,0.2,0.9c0.2-1.2,0.2-1.3,0.7-1.2c0.4,0.4,0.5,1,0.6,1.2c0.2,0.4,0.8,1.1-0.5,1.9c0.1-0.3,0.2-0.6,0.1-0.7
			s-0.3,0.2-0.3,0.1c-0.3-1.5-0.5-1.3-0.2,0.5c0,1.2-0.8,2.5-0.9,3.7c2.5,2.6,0.7-0.1,1.3,0c0.4,0,0.6,0.5,1,1
			c-0.2,0.1-0.5,0.2-0.5,0.3c-0.1,0.2-0.1,0.2,0.1,0.6c0.2,0.8,0.7,1.2,0.7,0.8s0.1-0.8-0.2-1c-0.3-0.2-0.3-0.4,0.1-0.3
			c0.1,0,0.2,0,0.2-0.1c0.2,0.1,0.5,0.2,0.8,0.3c0.4,0.4,0.1,1.2,0.2,1.8c0,0.7,0.2,1.2,0.2,1.9c-0.1,0.5-0.4,0.9-0.4,1.4
			c-0.1,0.6-0.1,1-0.1,1.5c0.7,0.1,1.8,0,2.1,0c1.2,0.2,2.4,0.8,3.7,1c0.3-0.4,0.8-1.2,1.3-1.4c0.1,0.6,0.6,0.8,0.9,0.8
			c-0.2-0.5-0.4-0.8,0.1-0.7c0.1,0,0.1,0,0.1-0.1c0.1,0.1,0.3,0.2,0.5,0.1s0.2-0.3,0.8,0.2s0.4,0.2,0.7,0.1c0.2-0.1,0-0.5-0.5-1.3
			c-0.4-0.5-0.6-0.3-1-0.8s-0.9-0.3-1.2-0.2c-0.3,0.1-0.2,0.3,0,0.5s0.5,0.2,0.8,0.2s-0.1,0.6-0.1,0.9c-0.2-0.4-0.6-0.9-1.2-1.2
			c-0.3-0.2-1,0.4-1,0c0-0.3,0.4,0,0.6-0.3c0.3-0.4-0.2-0.6-0.3-0.8c-0.1-0.2,0.3-0.5,0.4-0.6c0.6-0.5,0.8,0.6,1.1-0.7
			c0.1-0.3-0.2-0.3-0.3-0.6c-0.2-0.5-0.2-0.9-0.4-1.6c0-0.3,0.9-0.4,0.4-0.8c-0.2-0.4-1.2,0.2-1-0.2c0-0.1,1-0.4,1.5-0.7
			c0.5-0.3,1.1-1,0.9-1c-0.8,0-0.4-0.6-2.2-0.7c-0.2-0.7,1.2,0.2,1.9,0.2c0.8,0,1.2-0.1,1.7-0.5c-0.5-0.1,0-0.7,0-0.8
			c-0.1-0.2-0.7-0.1-1.1-0.4s0.7-0.4,1.1-0.4s0.1,0.3,0.5,0.5c0.1,0,0.2,0,0.2,0.1c0-0.1,0.1-0.2,0.2-0.3c0.8-1.1,0.1-5.1,0.9-4.8
			c0.3-1.1,1.1-0.9,0.9-0.3c-0.1,0.4-0.3,0.6-0.8,0.8c0.2,0.4,0.6,0.3,0.9,0.2c0.2,0.2,0.2,0.3,0.2,0.7c0,0.5,0.6,0.8,0.6,0.5
			s-0.4-0.5-0.3-0.8s0.3-0.5,0.4-0.8c0.2,0,0.5,0.1,0.4,0.2c-0.3,0.6,0.6,1.6,0.5-0.4c0.3,0.2,1-0.9,1-1.5c0-0.9,0.3-0.8,0.2-1.1
			c-0.1-0.4-0.2-0.3-0.4-0.5c-0.2-0.1-0.3-0.6-0.9-0.6s-1.2,0.4-1.8,0.3c-0.9-0.1-0.7-0.9-1.1-1c0-0.1,0.2-0.4,0.2-0.6
			c0-0.5-0.2-0.6-0.4-0.6c0.1,0,0.1-0.1,0.2-0.2c0-0.6-0.4-1-0.4-1.5c-0.1-0.7,0.3-1,0.2-1.6c0,0-0.7-0.2-1.2-0.6
			c-0.4-0.3-0.6-0.6-0.9-0.6c-0.1,0-0.2,0-0.2,0.1C307.3,257.7,307,257.6,306.7,257.6L306.7,257.6z M300.6,258.9
			c-0.1,0-0.3,0.2-0.4,0.5c-0.2,0.3-0.6,0.3-0.9,0.3s-0.2,0.3-0.3,0.5c-0.1,0.2-0.3,0.3,0,0.4c0.3,0.1,0.1,0.1-0.2,0.2
			c-0.1,0-0.3,0-0.4,0.1c-0.2,0.1,0.1,0.2-0.2,0.5c-0.2,0.3,0.1,0,0.3,0.1c0.2,0,0.3,0.3,0.4,0.5s0.2,0.3,0.5,0.3s0.4-0.2,0.5-0.4
			c0.1-0.1,0.2-0.4,0.4-0.6c0.2-0.2,0.4-0.5,0.2-0.7c-0.2-0.2-0.3-0.5-0.1-0.8c0.1-0.2,0.3,0.1,0.3,0.1c0-0.2,0.1-0.6,0-0.9
			C300.7,258.9,300.7,258.9,300.6,258.9L300.6,258.9z M309.3,261.9c0.2,0,0.4,0.1,0.5,0.1c-0.3,0-0.6,0.1-0.8-0.1
			C309.2,261.9,309.3,261.9,309.3,261.9L309.3,261.9z M298.6,262c0,0-0.1,0-0.1,0.1c-0.2,0.2-0.2,0.5-0.4,0.3
			c-0.2-0.1-0.3-0.3-0.4-0.1c-0.2,0.2,0.1,0.3,0.2,0.5c0.2,0.5,0.2,0.6,0.4,0.6c0.2,0,0-0.2,0.2-0.2s0.3-0.1,0.3-0.5
			C298.7,262.4,298.7,262.1,298.6,262z M323.7,268.9c-0.4,0-0.8,0.2-1.3,0.6c-0.6,0.4-1.1,0.7-1.6,1.2c-0.2,0.2,0,0.4,0.1,0.3
			c0.2-0.1,0.7-0.2,0.7-0.2c0.2,0,0.4,0.2,0.4,0.5c0.4,1.5,1.3,4-0.2,2.7c-0.4-0.3,0.5-0.3,0.6-0.8c-0.1-0.6-0.2-0.9-0.4-1.2
			c-0.2-0.2,0.2-0.3-0.2-0.8c-0.5-0.5-0.6,0.1-0.4,0.3c0.1,0.1,0.2,0.4,0.3,0.7s-0.4,0.3-0.8,0.4s-0.5,0.3-0.4,0.5s0.3,0.3,0.4,0.2
			c0.2-0.1,0,0.4-0.1,0.7c-0.1,0.4-0.2,0-0.2-0.2s-0.3-0.1-0.7-0.1c-0.4,0-0.2-0.1,0-0.2c0.3-0.1,0.4-0.2,0.3-0.4
			c-0.1-0.3-0.3-0.2-0.5-0.3c-0.1-0.1,0-0.2,0.3-0.2s-0.1-0.6-0.4-0.9s0.2-0.2,0.3-0.1c0.1,0.1,0.3,0,0.2-0.2
			c-0.1-0.2,0.1-0.3,0.2-0.5c0-0.1,0-0.1,0-0.2c-0.3,0.1-0.6,0.2-0.9,0.4c-0.4,0.3-0.3-0.2-1.8-0.3c-0.3,0-0.9-0.6-0.8-0.2
			c0.5,0.6,1.6,0.5,1.7,0.8c0,0.2,0.1,0.8-0.2,0.8c-0.8-0.1-0.7,0.2-0.6,0.5c0.2,0.6-0.6,0.9-1,0.8c-0.5-0.2-0.7-0.1-1.2,0.2
			c-1.2-0.2-1.2,0-0.6,0.2c0.5,0.2,0.8,0.5,0.4,0.5c-0.8,0-0.8,0.2,0.1,0.3c2.1,1.6,0.4,1.2,1.3,3.1c-0.1,0.4-0.6,0.1-0.7,0.5
			c-0.1,0.3,1.2,0.4,0.9,1.5c0,0.1,0,0.4,0.2,0.4c0.4,0.1,0.8-0.3,1.3-0.2c0.5,0.1,0.6,0.3,1.1,0.3c0.2,0,0.3-0.3,0.5-0.1
			c1.8,1.1-0.9,0.3,0.8,1.6c-0.1,0.3-0.5-0.1-1.3-0.3c0.8,0.4,2,1.4,2.9,1.4c0.2-0.1,1.1-0.4,0.8-0.8c-0.2-0.3-0.2-0.6,0-0.7
			c0.4-0.2-0.1-0.6-0.3-0.6c-0.6,0.1-0.7-0.4,0-0.4c0-0.8,1.6-0.7,2.3-1.4l-0.3-1.3c-0.8-0.5-2.3-0.6-1.4-1.6c0.4-0.4,0.6-1,1.8-1.2
			c0.1,0.2,0.2,0.4,0.2,0.4c0.4,0.4,0.4,0.5,0.7,0.2c0.2-0.2,0.5-0.2,0.3-0.7c-0.1-0.2-0.1-0.3-0.2-0.4c0.2-0.5-0.4-1.4-0.6-2.6
			c0-0.6-0.1-1.2,0.3-1.9c0-0.2-0.4-0.4-0.5-0.6C324.9,269.1,324.4,268.8,323.7,268.9L323.7,268.9z M312.2,271.4c0,0,0,0.1-0.1,0.2
			c-0.1,0.2,0,0.6-0.2,0.7c-0.3,0.1-0.2,0.4-0.2,0.6s-0.2,0.3,0,0.5c0.1,0.2,0.5,0.2,0.7,0s0-0.7,0.1-0.9c0.2-0.2,0.1-0.6,0-0.9
			C312.3,271.4,312.2,271.3,312.2,271.4L312.2,271.4z M312,274.9c-0.1,0-0.1,0.4-0.2,0.7c0.2,0.3,0.3,0.5,0.4,0.7
			c0.1,0.3-0.2,0.6-0.5,0.8s-0.5,0.5-0.8,0.3c-0.1-0.4,0.5-0.6,0.5-1c0-0.1,0-0.2,0-0.3c-0.5-0.2-0.8-0.9-1.5-1
			c-0.9-0.1-0.6,0.4-1.9,0.8c-0.3,0.2-0.4,0.5-0.8,0.5c0,0-0.3-0.6-0.4-0.6c-0.3,0.1-0.5,0.4-0.7,0.6c0,0-0.4,0-0.4,0.2
			c0,0.5,1.2,1,0.8,1.4c-0.3,0.4,0.1,0.4,0.4,0.5c0.2,0.8,0,0.9,0.3,1.3c0.9,0.6,0.1,1.3,0.6,1.3c1,0-0.6-0.7,0.6-0.8
			c1,1.1-0.4,0.7,0.4,1.3c0.7,0.6,0.4-0.1,0.7-0.1c0.5,0.5,1.2,0.7,1.9,0.8c2.3-0.1,2.6-2.2,2-2.9c-0.7-0.8,1.1,0.5-0.3-1.2
			c-0.2-0.3-0.3-0.7-0.5-0.9c-0.7-1.3,1.4,1.2-0.3-1.8C312.2,275,312.1,274.9,312,274.9L312,274.9z M341.1,279l-0.2,0.2l-0.1,0.3
			l-0.1,0.3l-0.2,0.4l0.1,0.2v0.5l-0.1,0.2l-0.1,0.4l0.2,0.1l0.3,0.3h0.2l0.3,0.1l0.3,0.2l0.3,0.2l0.3,0.2h0.5
			c0.1,0,0.1,0.2,0.2,0.2s0.2-0.1,0.2-0.1s0.1-0.3,0.2-0.3s0.1-0.3,0.1-0.3v-0.3c0,0,0.1-0.6,0.1-0.7s-0.2-0.2-0.2-0.2l-0.3-0.1
			l-0.3-0.2c0,0-0.2-0.1-0.2-0.2s-0.2-0.3-0.2-0.3l-0.1,0.1L342,280l-0.1-0.2c0,0-0.3-0.2-0.4-0.2c-0.1,0-0.2-0.3-0.2-0.3L341.1,279
			L341.1,279z M297.6,280.4c-0.2,0-0.3,0.2-0.2,1.1c0.1,0.9,0.2,0.5,0.5,0.2c0.2-0.3,0.1-0.4,0.2-0.8
			C298.2,280.4,298.1,280.4,297.6,280.4z M314.8,280.7c-0.1,0-0.3,0.4-0.4,0.9c-0.4,1.1-0.6,1-1,1.6s-0.2,0.5-0.3,0.9
			s-0.1,0.4-0.4,0.3c-0.2-0.1-0.1,0,0.1,0.2s0.3,0.6,0.3,1s0.6-0.1,0.7-0.8c0.1-0.7,0.2-0.9,0.3-1c0.4-1.1,0.5-0.9,0.8-2.2
			C315,280.9,314.9,280.7,314.8,280.7z M323.7,281.7c-0.2,0-0.3,0,0,0.2c0.5,0.3,0.5,0.2,0.4,0.5s-0.4,0.4-0.5,0.2
			c-0.1-0.2-0.3,0-0.4,0.2c-0.2,0.2-0.3,0.3-0.1,0.6s0.4,0.6,0.6,0.4s0.4-0.6,0.6-0.7c0.6-0.5,0.8-0.3,1.3-0.2
			c0.5,0.2,0.7-0.2,0.2-0.8c-0.5-0.6-0.9,0-1.4-0.2C324.2,281.8,323.9,281.7,323.7,281.7L323.7,281.7z M320.5,282.9
			c-0.1,0-0.1,0.1-0.2,0.2c-0.3,0.2,0.1,0.3,0.2,0.8l0,0v0.1c0,0.3,0.2,0.1,0.4,0.3s0,0.2,0,0.3s0.2,0.2,0.3,0.3
			c0.2,0.1,0.2,0.4,0.2,0.6s0.1,0.3,0,0.5c0,0.1-0.1,0.1-0.1,0.2c0.1,0.2,0.1,0.8,0.6,1.3c0.3,0.2,0.1-1.1,0.2-1.5
			c0.2-0.4,0.4-0.7,0.6-1.1c0.3-0.4,0.9-0.6,0.3-1.2c-1.6-0.1-0.6-0.4-1.3-0.6c-0.3,0.3-0.4,0.1-0.5-0.1c-0.4-0.3-0.2,0.1-0.4,0.1
			C320.8,283.1,320.7,282.8,320.5,282.9L320.5,282.9z M309.9,283c-0.1,0,0.2,0.5,0.4,0.8c0.7,0.9,0.9,1.1,1.1,1s0.2-0.3,0.5-0.3
			s0.3-0.1,0-0.4s-0.2,0.3-0.4,0c-0.3-0.3-0.4-0.1-0.6-0.3C310.6,283.5,310,283,309.9,283L309.9,283z M316.5,283
			c-1.1,0.1-1.5,1.7-1,2.4c0.4,0.4,1.2,0.4,1.7,0.7c0.7,0.4,0.6,0.9,1.3,1c0.6,0.1,0.3-0.5,1.4-0.5c0.9,0.2,1.2,0.3,1.5-0.1
			c0-0.2-0.1-0.4-0.2-0.5c-0.2-0.2,0-0.2,0.1-0.2s0.2-0.2,0.2-0.4c0-0.2-0.3-0.5-0.5-0.6s-0.1-0.4-0.3-0.5c-0.1-0.1-0.1-0.2-0.1-0.2
			l-0.1-0.1c-0.1,0-0.2,0-0.3-0.1c-0.2-0.1-0.3-0.3-0.4-0.3l0,0c0,0,0.1,0.2,0.2,0.5c0.1,0.2-0.5,0.2-0.7,0.2
			c-0.1,0.1,0.2,0.3,0.2,0.3s-0.3-0.1-0.6-0.1c-0.3,0-0.3-0.3-0.6-0.5c-0.2-0.1-0.3-0.3-0.5-0.7c-0.1,0-0.2-0.1-0.4-0.1
			C317,283,316.7,282.9,316.5,283L316.5,283z M307.1,283.8c0,0,0,0.1,0.1,0.3c0.3,0.2,0.9,0.1,0.4-0.1
			C307.4,283.8,307.2,283.7,307.1,283.8z"/>
		<path id="fo" class="st4" d="M213.1,178.1c-0.2,0.7,0.2,1.4,0.2,2c0.6,0.1,0-0.7,0-1C213.2,178.8,213.2,178.5,213.1,178.1
			L213.1,178.1z M211.8,178.2c-0.1,0.4-1.1-0.2-0.7,0.5c0.2,0.6,0,1.5,0.7,1.9c0.3,0.2,0.3,1.4,0.7,0.8c0.2-0.3-0.3-1-0.2-1
			c0.6,0.4,0.2,1.2,0.2,1.7c0.3,0.4,0.2-0.4,0.6-0.3c0.4-0.1-0.4-0.7,0.2-0.4c0.3,0.3,0.4,0.1,0.1-0.2c-0.2-0.1-0.7-0.8-0.2-0.6
			c0.2,0.2,0.6,0.2,0.3-0.1c-0.1-0.3-1.3-0.4-0.5-0.7c0.2-0.3-0.6-0.4-0.4-0.7c-0.2,0-1,0.1-0.4-0.2
			C212.5,178.7,212,178.2,211.8,178.2L211.8,178.2z M214.5,178.2c-0.1,0.3,0.2,0.9-0.1,1.1c0-0.2,0-0.9-0.3-0.5
			c-0.1,0.5,0,1.2-0.5,1.5c-0.1,0.3,0.4,1.1,0.4,0.4c0-0.8,0.3,1,0.6,0.2c0-0.2-0.6-0.8-0.3-0.8c0.1,0.6,1,0.1,0.3-0.2
			c-0.2-0.4,0.6,0.3,0.5-0.3c0-0.4-0.5,0-0.3-0.4C214.8,178.9,214.8,178.5,214.5,178.2z M210.5,178.4c-0.5,0.4-0.7,1.2-0.7,1.7
			c0.1,0.6,0.7,0.8,1,1.2c-0.1,0.4-0.1,0.8,0.3,1c0,0.5,0.3,1.6,0.9,1.3c0-0.5,0-0.9,0-1.4c-0.2-0.6-0.2-1.3-0.7-1.8
			c-0.2-0.6-0.1-1.2-0.4-1.8C210.9,178.5,210.7,178.3,210.5,178.4L210.5,178.4z M213.7,178.4c-0.3,0.4-0.2,1.6,0.2,1.4
			C213.9,179.4,214,178.8,213.7,178.4z M215.9,179.1c-0.6,0.2,0.3,0.9,0.3,0.2C215.9,179.6,216.2,179.1,215.9,179.1z M215.5,179.8
			c-0.6,0-0.6,1.2,0,0.7c0-0.2,0.2-0.4,0.3-0.4C215.8,179.9,215.7,179.8,215.5,179.8L215.5,179.8z M208.4,180
			c-0.4,0.4,0.6,1.1,0.4,1c-0.3-0.2-0.5,0.1-0.1,0.2c0.3,0.3,0.8,1,1.2,0.5c0.6,0.4,0.8-0.6,0.2-0.8c-0.4-0.2-0.3-1.2-1-0.7
			C208.8,180.5,208.7,180,208.4,180L208.4,180z M207.1,180c-0.3,0.1,0.5,0.2,0.6,0.4C207.9,180.2,207.3,179.9,207.1,180z
			 M212.5,182.7c0,0.3,0,1,0.2,1C212.9,183.4,212.6,183,212.5,182.7z M211,183c-0.4,0.3,0.6,0.8,0.2,0.2
			C211.1,183.1,211,183,211,183z M210.6,183.7c0,0.5-0.3,1.4,0.5,1.3c0.4,0,0,1.4,0.6,1c0-0.4,0.6-0.8,0.1-1.2
			C211.6,184.4,211.2,184,210.6,183.7L210.6,183.7z M210.7,185.5c-0.5,0.2,0.5,0.9,0.2,0.2C210.9,185.6,210.8,185.5,210.7,185.5z
			 M210.9,186.7C210.6,187,211.4,187.1,210.9,186.7z M209.5,187.1c-0.6,0.5,0.1,1.2,0,1.8c0,0.7,0.4,1.3,0.8,1.8c0.6-0.1,0-1-0.3-1
			c0.4,0,0.7-0.3,0.2-0.4c0.3-0.1,0.4-0.3,0.1-0.4c-0.3-0.1-0.3-0.8,0-0.3c0.4,0.3,0.4-0.6,0-0.6c-0.1-0.3-1.1-0.3-0.4-0.6
			c0.1-0.1-0.2-0.3,0.1-0.3C209.9,187,209.6,187.1,209.5,187.1L209.5,187.1z"/>
	</g>
</g>
</svg>
