<?xml version="1.0" encoding="utf-8"?>
<!-- Generator: Adobe Illustrator 27.0.1, SVG Export Plug-In . SVG Version: 6.00 Build 0)  -->
<svg version="1.1"
	 id="svg2" xmlns:cc="http://creativecommons.org/ns#" xmlns:dc="http://purl.org/dc/elements/1.1/" xmlns:sodipodi="http://sodipodi.sourceforge.net/DTD/sodipodi-0.dtd" xmlns:rdf="http://www.w3.org/1999/02/22-rdf-syntax-ns#" xmlns:inkscape="http://www.inkscape.org/namespaces/inkscape" xmlns:svg="http://www.w3.org/2000/svg" sodipodi:docname="Oceania_grey_map.svg"
	 xmlns="http://www.w3.org/2000/svg" xmlns:xlink="http://www.w3.org/1999/xlink" x="0px" y="0px" viewBox="0 0 800 520"
	 style="enable-background:new 0 0 800 520;" xml:space="preserve">
<defs>
	
		<inkscape:perspective  id="perspective108" inkscape:persp3d-origin="400 : 173.33333 : 1" inkscape:vp_x="0 : 260 : 1" inkscape:vp_y="0 : 1000 : 0" inkscape:vp_z="800 : 260 : 1" sodipodi:type="inkscape:persp3d">
		</inkscape:perspective>
</defs>
<sodipodi:namedview  bordercolor="#666666" borderopacity="1.0" gridtolerance="10.0" guidetolerance="10.0" id="base" inkscape:current-layer="svg2" inkscape:cx="403.72397" inkscape:cy="182.68039" inkscape:pageopacity="0.0" inkscape:pageshadow="2" inkscape:window-height="750" inkscape:window-maximized="0" inkscape:window-width="1280" inkscape:window-x="0" inkscape:window-y="0" inkscape:zoom="0.50994553" objecttolerance="10.0" pagecolor="#ffffff" showgrid="false">
	</sodipodi:namedview>
<polygon id="tk-border" style="fill:none;stroke:#000000;stroke-width:0.1233;stroke-dasharray:0.6164,0.3697,0.123,0.3697;" points="
	463,208.9 463.3,220.3 510.1,220.3 510.1,220.6 510.1,220.3 517.1,220.3 517.1,208.7 517.1,208.7 "/>
<polygon id="fm-border" style="fill:none;stroke:#000000;stroke-width:0.4368;stroke-miterlimit:14.1732;stroke-dasharray:2.184,1.3099,0.4358,1.3099;" points="
	368.4,157.7 368.4,136.4 309.8,107.5 309.4,95.7 309.4,95.7 172,95.5 172,96 172,146.6 172,157.7 200.5,157.7 337.2,157.7 "/>
<rect id="nr-border" x="337.2" y="157.7" style="fill:none;stroke:#000000;stroke-width:0.4368;stroke-miterlimit:9.9048;stroke-dasharray:2.184,1.3099,0.4358,1.3099;" width="31.2" height="30.4"/>
<path id="sb-border" style="fill:none;stroke:#000000;stroke-width:0.4368;stroke-miterlimit:9.9048;stroke-dasharray:2.184,1.3099,0.4358,1.3099;" d="
	M407.8,230.4L368.2,188l-30.9-0.1l0,3l-31.8,0l-16.1,7.7c0.9,0.8,1.5,1.8,0.9,2.8c-0.7,1.2-2.9,0.2-3.5-0.4c0,0,0,0,0,0l-0.7,0.3
	l-3.2,3.1l2.5-0.1l-0.2,30.4l0,0l16.5,0l0,5.8l0,0l87.3,0L407.8,230.4z"/>
<path id="pg-border" style="fill:none;stroke:#000000;stroke-width:0.4368;stroke-miterlimit:9.9048;stroke-dasharray:2.184,1.3099,0.4358,1.3099;" d="
	M200.2,215.6l-0.1-9.5c0-0.7,0-1.4,0-2c0-0.7,0-1.4,0-2c0,0,0.1,0,0.1,0c-1-0.5-1-0.1-1-1.7c0-0.1,0.8-1.4,0.9-1.7l0.5-22.2
	l-0.1-18.7l136.7,0l0.1,30.2l0,3l-31.8,0l-16.1,7.7c0.9,0.8,1.5,1.8,0.9,2.8c-0.7,1.2-2.9,0.2-3.5-0.4c0,0,0,0,0,0l-0.7,0.3
	l-3.2,3.1l2.5-0.1l-0.2,30.4l0,0l-59.7,0.1L224,225l-2.9-3.2l-7.3-3.6h-4l-2,0.2l-1.2,0.3l-1.4-0.1l-1.1-0.4l-3.7,1.3L200.2,215.6
	L200.2,215.6z"/>
<polygon id="tv-border" style="fill:none;stroke:#000000;stroke-width:0.4368;stroke-miterlimit:14.1732;stroke-dasharray:2.184,1.3099,0.4358,1.3099;" points="
	407.8,230.4 425.9,230.5 463.1,230.2 463.1,230.2 463.1,220.2 463,220.2 463,208.8 447.3,208.7 447.4,187.9 368.2,188 "/>
<polygon id="vu-border" style="fill:none;stroke:#000000;stroke-width:0.4368;stroke-miterlimit:14.1732;stroke-dasharray:2.184,1.3099,0.4358,1.3099;" points="
	388.8,240.5 301.7,240.5 301.6,240.5 301.5,264.6 340,264.5 373.6,285.6 401.4,285.4 401.4,263.8 "/>
<polygon id="wf-border" style="fill:none;stroke:#000000;stroke-width:0.4368;stroke-miterlimit:14.1732;stroke-dasharray:2.184,1.3099,0.4358,1.3099;" points="
	425.9,230.5 426.1,250.4 458.2,250.3 458.2,250.8 458.2,250.3 463.1,250.3 463.1,230.2 463.1,230.2 "/>
<polygon id="nc-border" style="fill:none;stroke:#000000;stroke-width:0.4368;stroke-miterlimit:14.1732;stroke-dasharray:2.184,1.3099,0.4358,1.3099;" points="
	401.4,285.4 373.6,285.6 340,264.5 301.5,264.6 301.5,305.8 401.4,305.8 "/>
<polygon id="fj-border" style="fill:none;stroke:#000000;stroke-width:0.4368;stroke-miterlimit:14.1732;stroke-dasharray:2.184,1.3099,0.4358,1.3099;" points="
	401.4,305.8 401.4,263.8 388.8,240.5 407.8,230.4 425.9,230.5 426.1,250.4 458.2,250.3 458.1,305.8 "/>
<polygon id="ws-border" style="fill:none;stroke:#000000;stroke-width:0.4368;stroke-miterlimit:14.1732;stroke-dasharray:2.184,1.3099,0.4358,1.3099;" points="
	463.1,250.3 489.1,250.2 489.1,250.2 489.2,231.2 483.3,220.3 483.3,220.2 463.1,220.2 "/>
<polygon id="as-border" style="fill:none;stroke:#000000;stroke-width:0.4368;stroke-miterlimit:14.1732;stroke-dasharray:2.184,1.3099,0.4358,1.3099;" points="
	492.9,261.1 516.7,261.1 517.1,261.1 517.1,220.2 483.3,220.2 483.3,220.3 489.2,231.2 489.1,250.2 489.1,250.2 489.2,250.2 
	489.1,261.1 "/>
<polygon id="ki-border" style="fill:none;stroke:#000000;stroke-width:0.4368;stroke-miterlimit:14.1732;stroke-dasharray:2.184,1.3099,0.4358,1.3099;" points="
	517.1,209.2 517.1,208 583.5,208 583.5,233.3 631.6,233.4 631.4,201.8 595.9,125.1 544.7,125.1 544.6,143.1 559,143.1 559.1,175.2 
	521.8,175.2 521.9,160.4 448.4,160.5 429.2,136.3 368.4,136.4 368.5,157.7 368.2,188 447.4,187.9 447.3,208.7 516.7,208.9 "/>
<polygon id="mh-border" style="fill:none;stroke:#000000;stroke-width:0.4368;stroke-miterlimit:14.1732;stroke-dasharray:2.184,1.3099,0.4358,1.3099;" points="
	429.2,136.3 429.3,64.7 309.7,64.8 309.7,95.7 309.4,95.7 309.4,95.7 309.8,107.5 368.4,136.4 "/>
<polygon id="pf-border" style="fill:none;stroke:#000000;stroke-width:0.4368;stroke-miterlimit:14.1732;stroke-dasharray:2.184,1.3099,0.4358,1.3099;" points="
	583.4,305.8 583.5,305.8 634,343.1 703.4,343.1 732.8,323.2 732.5,201.8 631.4,201.8 631.6,233.4 583.5,233.3 "/>
<polygon id="pn-border" style="fill:none;stroke:#000000;stroke-width:0.4368;stroke-miterlimit:14.1732;stroke-dasharray:2.184,1.3099,0.4358,1.3099;" points="
	780.4,323.1 732.8,323.1 732.8,296.6 780.4,296.6 "/>
<path id="au" style="fill:#B3B3B3;fill-opacity:0.9843;stroke:#000000;stroke-width:0.8736;stroke-miterlimit:9.9048;" d="
	M222.1,411.5c5.5-0.4,1.3-3.9,0.9-3.6c-0.2,0.1-0.1,0.4-0.2,0.5c-0.2,0.2-0.5,0.4-0.8,0.5c-0.6,0.4-1.9,0.3-1.8,1
	c0.1,0.7,1.4-0.4,2,0c2,1.3-1.6,1.3-1.9,1.4c-1.2,0.5-3.7,4.1-4.7,4.3c-0.7,0.1-5.5-3.2-6.3-3.6c-1-0.5-1.5,0.4-2.4,0
	c-0.3-0.1-1.7-1.3-2.3-0.9c-0.3,0.2-0.2,0.9-0.6,1c-0.5,0.2-1.1,0-1.6-0.1c-0.1,0-0.1-0.2-0.1-0.3c0.2-1.1-1.2-2.1-2.3-2.3
	c-1.3-0.3-2.5,0.3-3.5-0.9c-0.2-0.3-4.1-5.5-4.1-5.7c-0.1-0.5-0.4-1.1-0.3-1.6c0.1-0.6,0.9-1,1-1.6c0.3-1.3-1.4-5.4-1.9-6.4
	c-0.4-0.8-2.7-2.7-3.5-3.1c-0.2-0.1,0,0.5-0.2,0.5c-0.2,0-0.5-0.2-0.7-0.2c-1,0-2.8,1.9-3.9,0.9c-0.5-0.5,1.9-2,2-2.4
	c0.3-0.8,0.5-3.2,0.7-4.1c0.1-0.8-1.7-1.8-1.9-2.3c-0.2-0.4-0.1-2.2-0.9-2.3c-1.1-0.2-1.1,5.9-2.1,7.2c-0.8,1-1.4-0.5-2.3,0
	c-1.2,0.6-1.3,1.6-3.1,1.2c-0.3-0.1,0.9-2.8,0.9-2.8c0.2-0.2,0.6,0,0.9,0c0.6,0,1.4,0.3,1.8-0.1c1-1.1-0.1-4.4,0-5.6
	c0-0.2,0.4,0,0.5-0.1c0.7-1.3,0.2-1.7,1.4-3c0.4-0.4,1.1-0.6,1.2-1.1c0.2-0.8-1.3-1.6-0.9-2.3c0.3-0.5,1.1-0.7,1.3-1.2
	c0.1-0.3-0.4-0.4-0.5-0.7c-0.4-1.5-1.2-3.4-1.2-3.2c-0.2,0.9,0.6,2.6,0.2,3.4c-0.3,0.7-1.4,0.6-1.9,1.1c-0.8,0.8-0.7,2.6-1.5,3.6
	c-0.7,0.9-1.2,0-1.7,0.2c-0.2,0.1,0,0.4,0.1,0.5c0.1,0.1-0.1,0.2-0.2,0.2c-1.2,0.7-1.8,0.7-2.9,1.8c-0.7,0.8-1.4,1.5-1.9,2.4
	c-0.2,0.4,0,0.9-0.2,1.2c-0.3,0.4-1,0.5-1.3,1c-0.2,0.3-0.4,0.8-0.3,1.2c0.1,0.5,1.2,0.8,0.9,1.2c-0.2,0.4-0.6-0.8-1.1-0.9
	c-0.4,0-0.6,0.8-1,0.7c-0.8-0.1-0.7-1.5-1.3-2c-0.5-0.4-1.4-0.2-1.7-0.7c-0.2-0.3,0.1-1.1,0.5-1.1c4.3,0.2,1.9,1.1,1.2,1.1
	c-0.2,0-0.1-0.6-0.1-0.7c-0.1-0.4-0.8-3.7-1-4.1c-0.4-1-1.9-1.5-2.4-2.2c0,0,0.2-2.2-0.7-3.1c-0.7-0.7-3.1-1-3.3-1.2
	c-0.2-0.2,0.2-0.5,0.1-0.7c-0.2-0.6-1.1-1-0.9-1.6c0.2-0.5,1.4,0,1.5-0.5c0.6-2.9-2.3-0.7-2.6-1c-1.8-1.8,1.5-2.4-1.4-3.2
	c-1-0.3-1.9,0.8-2.9,0.8c-0.2,0,0-0.3-0.1-0.5c-0.4-0.6-1.2-1-1.8-1.3c-1.5-0.8-2.4,0.6-3.8,0.5c-0.3,0-0.2-0.5-0.4-0.7
	c-1.4-1.3-3.5-2.4-5.3-3c-0.8-0.2-1.4,0.9-2.2,1.1c-0.7,0.2-2.9-0.4-3.5-0.5c-1.9-0.1-5.1,0.3-6.9,0.7c-2,0.4-3.7,2-5.6,2.7
	c-3.1,1.2-6.3,2.1-9.6,2.1c-0.2,0-0.5-0.2-0.7-0.2c-0.6-0.1-1.2-0.4-1.8-0.4c-2.5,0-6.7,3.9-9.2,4.8c-0.6,0.2-1.3,0-1.9,0.1
	c-2.9,0.8-2,6.1-5.1,7.5c-0.3,0.1-0.5-0.4-0.8-0.5c-1.5-0.2-2.5,0-3.8-0.1c-0.7-0.1-2.3,1-3.9,0.6c-0.3-0.1-0.3-0.6-0.6-0.8
	c-0.3-0.3-0.9,0.4-1.2,0.4c-1.3-0.1-3.3-0.6-4-0.6c-1.3,0-3,1.2-4.4,1.2c-0.8,0-1.5-0.5-2.2-0.5c-2.1-0.1-2.4,2.8-2.8,3.4
	c-1.5,2.1-2,1-3.9,0.7c-0.8-0.1-0.7,1.1-1.1,1.3c-0.5,0.3-1.3,0.4-1.7,0.9c-0.2,0.2,0,0.7-0.2,1c-1,1.2-3.5,2.1-4.9,1.6
	c-0.5-0.2-0.7-0.8-1.1-1.1c-0.5-0.3-1.1,0.7-1.7,0.7c-0.4,0-0.6-0.7-0.9-0.6c-1,0.2-1.6,0.8-3,0.1c-0.3-0.2-0.2-0.8-0.5-1
	c-0.2-0.1-0.1,0.5-0.3,0.5c-0.7-0.1-1.4-0.3-2-0.7c-0.4-0.3-1.8-2.5-2.1-2.8c-1-1-3.3-0.6-4-1.5c-0.2-0.2-0.3-5.3,0.1-5.5
	c0.3-0.2,0.5,0.6,0.8,0.7c0.5,0.2,1.1,0.3,1.5,0c3.2-1.9,0.9-4.1,1.2-7c0-0.3,0.2-1.1,0.4-0.8c0.4,0.4-0.1,1.2,0.3,1.6
	c0.5,0.4,0.1-1.2,0-1.8c-0.2-1.8,0.5-2.6,0.2-4.4c-0.5-3.3-3.4-6.4-4.2-9.8c-0.6-2.5-0.2-4.6-0.4-7.1c-0.2-2.1-1.2-2.7-2.2-4.3
	c-0.5-0.8-0.1-1.7-0.6-2.5c-0.7-1-1.7-1.9-2.2-3c-0.8-1.5,0.1-2.4-0.3-4c-0.7-2.6-5.8-8.8-5.6-9.1c0.1-0.2,0.1-0.3,0.2-0.4
	c0,0-0.1,0.1-0.2,0.1c-0.3-0.8-1-1.3-1.2-2.1c-1.4-4.8,1.9,0.7,1.5,1.9c1-1.3,2.3,3.7,2.8,3.8c5,1-3.7-6-1.1-7.6
	c0.2-0.1,0.1,0.5,0.2,0.7c0.5,0.6,1.4,1,1.4,1.9c0,0.6-0.8,1.6-0.2,1.9c0.5,0.3,0.5-1.1,0.8-1.6c0.2-0.3,0.2,0.7,0.3,1
	c0.2,0.8,0.2,2.3,1,2.4c1.1,0.1,1.1-3.4,1-3.8c-0.2-0.8-1.2-1.2-1.6-1.9c-0.7-1.3-1.1-2.5-1.8-3.7c-0.3-0.5,0-1.2-0.2-1.7
	c-0.1-0.2-0.3-0.2-0.4-0.3c-0.4-0.5-1-1-1.2-1.7c-0.8-2.9,1.1-4.6,2.4-6.7c0.9-1.4-0.4-4.6-0.7-6c0-0.3,0.4-0.4,0.5-0.7
	c1-1.7-0.2-0.2,1-3c0.2-0.4,0.4-0.8,0.8-1.1c1.6-1.1-0.2,3.4,0.7,4.4c0.3,0.3,1.1,0.1,1.4-0.2c0.7-0.8,0.1-2.1,0.6-3
	c1.2-2.1,4.1-2.3,6-3.4c0.6-0.3,2.2-2.5,2.4-2.7c1.4-1,2.6-1.2,3.9-2.3c0.5-0.5,1-1.2,1.7-1.3c0.4,0-0.4,1.1,0,1.2
	c0.7,0.1,1.3-0.9,2-0.9c0.5,0,0.5,1,1,1.1c1.6,0.3,3.9-1.8,5.1-2.6c0.5-0.3,3.6-0.3,4-0.4c0.9-0.3,1-1.5,1.8-2
	c0.6-0.4,1.9,0.8,2.6,0.8c0.3,0,1-0.7,1.2-0.8c2.5-1,5.3-0.9,7.7-2.6c1.9-1.3,3.5-3.9,4.4-5.9c0.2-0.4,0-1,0.2-1.4
	c0.1-0.2,0.5,0.2,0.7,0c0.5-0.4,2.5-1.5,2.7-2c0.1-0.3,0.1-0.9-0.2-1.1c-0.3-0.2-0.7,0.3-1,0.2c-0.2,0,0.2-0.3,0.2-0.4
	c0-0.3,0.1-0.6,0-1c-0.1-0.5-0.5-0.9-0.5-1.4c-0.3-4.7,3-2.7,4.3-4.9c0.2-0.2-0.7-0.3-0.6-0.6c0.2-0.7,0.6-1.5,1.2-1.8
	c0.3-0.2-0.1,0.9,0.1,1.2c0.3,0.4,1.1,0.3,1.4,0.7c0.2,0.4-0.2,0.9-0.1,1.4c0.1,0.3,0.7,0.3,0.8,0.6c0.1,0.2-0.1,0.4,0,0.6
	c0.4,0.7,0.9,1.2,1.3,1.8c0.2,0.3,1.5,7,1.5,3.3c0-0.7-0.8-1.2-1-1.8c-0.8-2.2,0.5-0.3,0.6-2.6c0-0.5-1-1.1-0.6-1.3
	c0.7-0.3,2.8,3.8,2.1-1.2c-0.1-0.4-0.8,0.2-1.1,0c-0.8-0.4-2.3-1.2-1.9-2c0.2-0.5,1.2-0.2,1.4-0.6c0.2-0.5-0.9-1.3-0.4-1.6
	c1.8-1.2,4.1,2.6,4.6,2.4c0.4-0.1-0.3-0.8-0.1-1.2c0.1-0.2,0.3,0.3,0.5,0.3c0.5,0.1,1.1-0.1,1.6-0.1c0.3,0,0.8,0.2,1,0
	c0.1-0.1-3-0.4-3.1-0.5c-0.3-0.4-0.1-1.2,0.3-1.5c0.3-0.2,0.2,0.9,0.6,0.9c0.3,0.1,0.3-0.5,0.4-0.7c0.3-0.7,1.2-1.4,0.8-2
	c-0.4-0.6-1.6,0.2-2.2-0.3c-0.3-0.3,0-1,0.3-1.3c0.4-0.4,1.2,0,1.6-0.4c0.8-0.8-0.6-1.7,0.9-0.9c0.1,0-0.2,0.2-0.1,0.2
	c0.8,0.7,2,2.3,2.7,1.6c2.8-2.6-3.6-0.7-2.6-2.8c1.2-2.6,1.7,0.9,3.7-0.1c0.2-0.1-0.2-0.4-0.3-0.6c-0.6-1.2-3-2-0.4-3.1
	c0.5-0.2,1.2,0.6,1.5,0.2c0.5-0.5-0.3-2.4,0.2-2c0.6,0.5-0.3,1.7,0.2,2.3c1.4,1.8,3-2.5,3-2.9c0-0.5-0.9-1-0.7-1.5
	c0.1-0.4,0.9,0.1,1.1,0.4c0.3,0.5-0.3,1.2,0,1.7c0.1,0.2,0.5-0.1,0.7-0.3c0.5-0.5,0.6-1.7,1.3-1.6c0.6,0.1-0.3,1.7,0.3,1.9
	c0.6,0.2,0.6-3.5,2-3.1c0.6,0.2,0.7,1.1,1.2,1.3c0.6,0.2,1.2-0.1,1.8,0c0.2,0,2.8,3.7,3.1,4c0.4,0.4,1.3,0.3,1.6,0.8
	c0.2,0.3-0.5,0.5-0.7,0.8c-0.3,0.6,0.4,2.5-0.2,3.3c-0.4,0.5-1.5,0.7-1.3,1.4c0.1,0.5,1.1-0.5,1.4-0.9c0.3-0.5-0.3-1.7,0.3-1.7
	c0.8,0.1,0.8,1.3,1.3,1.9c0.1,0.1-0.2-0.3-0.2-0.4c-0.3-0.7-0.6-1.4-0.7-2.2c-0.1-0.9,1.1-1.4,1.8-1.9c0.6-0.3,1.1,0.3,1.5,0.4
	c0.7,0.2,1.5-0.1,2,0.3c0.6,0.5,0.3,1.5,0.8,2.1c0.9,1.1,0-3.3,0.9-2.1c1.3,1.6,1.2,2.1,2.8,3.3c0.2,0.1,2.9,0.8,2.3-0.2
	c-0.3-0.6-1.4,0.2-1.9-0.1c-0.3-0.2-2-2.7-1.4-3.3c0.5-0.5,1.8,0,2-0.7c0.2-0.5-3.7-1.8-3.8-2c-0.5-0.7,0.7-1.3,0.9-1.6
	c0.9-1.1,1.7-4.4,2.5-3.8c0.7,0.5,2.3-0.1,2.4-0.9c0.1-0.6-1-0.9-1.2-1.4c-0.7-2,2.5-1.4,3.1-2.5c0.3-0.6-0.5-1.4-0.2-2.1
	c0.3-0.7,1.3,1.6,2,1.2c0.4-0.2-0.7-0.7-0.6-1.1c0.1-0.6,0.5-1.3,1-1.7c2.9-2.1,1.3,0.1,2.4,0.8c0.4,0.3,1,0.1,1.5,0.1
	c0.7,0,1.4-0.1,2.1,0c0.7,0.1,1.4,0.7,2.1,0.5c0.4-0.1,0-1.1,0.4-1.3c0.4-0.3,1.2,0.3,1.6,0c0.2-0.2-0.5-0.4-0.5-0.7
	c0-0.4,0.5-0.6,0.6-1c0.1-0.5,0.2-1.2-0.1-1.6c-0.2-0.3-0.7,0.2-0.9,0c-0.2-0.2,0.1-0.6-0.1-0.8c-0.9-0.9-4.2,2.3-4.6-0.8
	c-0.1-0.6,0.8-1.2,1.4-1c0.6,0.2,0.4,1.7,1,1.6c0.6-0.1-0.4-1.3,0-1.7c0.3-0.3,0.3,0.9,0.7,0.9c0.3,0,0.1-0.8,0.4-0.7
	c0.3,0.1-0.1,0.6,0.1,0.8c0.5,0.5,1.1,1.2,1.8,1.2c0.6,0.1,0.9-0.8,1.5-0.9c0.8-0.2,1.2,2,1.9,2.4c0.6,0.3,1.1,0.7,1.7,0.8
	c0.2,0,0.2-0.4,0.4-0.4c0.6-0.2,1.4-0.6,2-0.4c0.3,0.1-0.6,0.6-0.4,0.8c0.4,0.4,1.2-0.1,1.6,0.2c0.4,0.3,0,1.2,0.4,1.4
	c0.3,0.2,0.2-0.9,0.5-0.9c9.3-0.8-2.6,2.1,3,0c0.3-0.1,0.2,0.7,0.5,0.8c0.6,0.3,2.1,1,2.9,0.8c0.6-0.1,3-2,3.3-1.8
	c0.5,0.4-1.5,1.4-0.9,1.8c0.6,0.4,1.1-1,1.8-1.1c0.4-0.1-0.7,0.6-0.6,0.9c0,0.3,0.6,0,0.8,0.2c0.4,0.3,0.5,1.2,1,1.2
	c0.4,0,0.8-0.7,0.7-1.1c0-0.4-0.8-0.3-0.9-0.6c-0.3-0.9,1.4-2,2.2-1.5c0.7,0.4,0.1,1.6,0.6,2.2c0.5,0.5,1.8-0.1,2,0.5
	c0.2,0.5-1.1,0.4-1.5,0.8c-0.5,0.5-0.3,1.4-0.8,2c-0.2,0.2-0.9-0.4-0.8-0.1c0.1,0.5,1.1,0.7,1.1,1.2c-0.2,4.1-1.8,0.3-2,0.3
	c-0.5,0.1-0.4,1.1-0.9,1.3c-0.3,0.1,0-0.9-0.3-0.8c-0.4,0.1-0.4,0.7-0.6,1c-0.4,0.6-1.2,1-1.1,1.7c0,0.3,2.3,0.1,0.3,3.7
	c-0.7,1.3-2.7,1.8-3.1,3.4c-0.5,1.8,4.1,3.3,5,4.2c0.3,0.3,0.2,0.8,0.4,1c0.4,0.4,1.1,0.5,1.5,0.9c1.7,1.8,4.8,1.8,7.2,3.4
	c0.3,0.2,1.6,2,2.5,2.6c1.6,1,3.8,0.5,5.5,1.4c1,0.5,0.6,2.2,1.6,3.1c0.2,0.2,0.6-0.1,0.9,0c1.1,0.5,2.7,2,3.9,2.1
	c1.3,0.2,3.8-1.2,4.5-2.1c0.6-0.8,0.3-1.8,0.6-2.6c0.7-1.8,2.2-3,2.7-5.5c0.2-1.1-0.6-3.1,0.3-4.1c0.5-0.5,1.1-0.8,1.6-1.4
	c0.2-0.3-0.3-0.7-0.4-1c-1.1-3.2-0.1-3-0.4-5.6c-0.1-0.7-0.7-1.3-0.8-2c-0.1-1,0.1-4.6,1.5-1.3c0,0.1,0.1-0.4,0.2-1.5
	c0-0.1-0.2-0.2-0.2-0.3c-0.3-0.7-0.8-1.4-0.7-2.2c0.3-1.8,3.8-1.8,2.7-2.6c-0.1,0-2.5,0.5-2.6,0c-0.2-0.6,0.4-1.2,0.6-1.9
	c0.1-0.4,0.1-1,0.5-1.2c0.5-0.3,1.2,0.2,1.6-0.1c0.2-0.2-0.6-0.3-0.6-0.6c-0.2-0.9,0.7-2.1,1-2.9c0.3-0.9-0.1-1.9,0.1-2.9
	c0.1-0.4,0.8-0.2,1.1-0.4c0.5-0.3,0.7-1.4,1.3-1.2c0.5,0.2-0.5,1.2-0.2,1.6c0.3,0.4,1-0.1,1.4,0.1c0.8,0.5,0.5,4.5,0.9,5.3
	c0.3,0.7,1,1.1,1.3,1.8c0.2,0.3-0.2,0.8,0,1.1c0.1,0.2,0.4,0,0.6,0.1c0.5,0.4,1.1,0.9,1.3,1.5c0.2,0.6-0.6,1.2-0.3,1.8
	c0.2,0.3,0.7-0.4,1.1-0.3c0.2,0-0.2,0.3-0.2,0.5c0,0.8,0,1.5,0.1,2.3c0.4,2,0.4,4.4,1.5,6.5c1.2,2.2,2.9-1.8,4.4-1.4
	c1.3,0.3,0.4,2.4,1.1,2.5c0.3,0.1,4,2.5,4,2.5c0.1,0.5-0.6,0.9-0.7,1.4c-0.1,0.6-0.2,1.2-0.1,1.8c0.1,1,1.2,2.8,1.4,3.9
	c0.1,0.8-0.4,1.5-0.4,2.3c0,0.4,2.2,2.8,2.3,2.8c0.3,0.2,0.8-0.4,0.9-0.1c0.2,0.3-0.3,0.8-0.3,1.2c0.1,1.1,1.3,2.6,1.5,3.8
	c0.1,1-0.8,2.7-0.6,3.6c0.1,0.6,0.6,1.2,1,1.7c0.2,0.2,0.8-0.1,0.8,0.2c0.2,0.7-0.5,1.5-0.3,2.2c0.2,0.7,4.5,3.4,5.1,3.4
	c0.7,0,1.3-0.8,1.9-0.6c2.1,0.7-0.4,1.9,0.9,2.8c0.4,0.3,1.1-0.2,1.6,0c0.3,0.1-0.1,0.7,0.2,0.9c0.6,0.3,1.4,0,2,0.3
	c0.5,0.3,0.5,1.2,1.1,1.4c0.3,0.1,0.4-0.8,0.7-0.8c0.7,0.2,1.1,0.8,1.5,1.4c1.5,2.1,0.7,1.4-0.6,2.7c-0.2,0.2,0.5,0.5,0.7,0.8
	c0.5,0.9,1.5,0.9,2.4,1.7c0.9,0.8-1.1,1.5,0.5,2.9c0.3,0.3,1.1-0.2,1.3,0.2c0.3,0.6-0.3,1.3-0.4,2c-0.1,0.8,0.7,1.4,0.8,2.2
	c0.1,0.8-0.4,2.5,0.4,2.5c0.5,0,0.5-1,1-1c0.5,0,0.9,1.4,1.3,1c0.4-0.4-0.7-1-0.7-1.6c0-0.5,0.8-1.3,1.1-1c0.8,0.8,1.9,3.4,3.3,3.4
	c0.4,0,0.6-0.7,1-0.9c0.2-0.1-0.1,0.4-0.1,0.5c0.1,0.8-0.2,1.5-0.2,2.2c0,0.9,1.2,2.7,0.7,3.6c-0.2,0.4-1.4-0.3-1.3,0.1
	c0.2,0.6,1.1,0.9,1.7,1.1c0.2,0.1,0.2-0.7,0.4-0.6c1.1,0.8,1.6,2.2,2.7,3.1c0.2,0.1,0.4,0.2,0.6,0.2c0.7,0.2,1.5,0.2,2,0.7
	c0.9,0.7,0.9,2.2,1.7,3c0.5,0.4,1.2,0.6,1.7,1c0.7,0.5,0.3,1.7,0.6,2.4c0.3,0.7,1.6,0.3,2.2,0.9c0,0,0.1,3.3,0.1,3.3
	c0.3,0.5,1.2,0.6,1.5,1.1c0.2,0.3-0.4,0.7-0.5,1c-0.6,1.7,0.4,2.6,0.2,4.3c0,0.2-0.7,3.8-0.7,3.8c0.1,0.4,0.7,0.5,1,0.9
	c0.5,0.7,2.2,4.3,2.5,5.5c0.1,0.5-0.2,1-0.2,1.5c0.1,4.6-0.6,2-1.3,5.5c-0.4,2-0.3,4.2-0.8,6.1c-0.4,1.3-1.1,2.4-1.2,3.9
	c-0.2,2,0.3,2.9-0.4,4.9c-0.4,1.1-1.1,2.5-2.4,4.6c-0.5,0.7,0,2.5-0.1,3c0,0.2-0.4,0.1-0.6,0.2c-0.6,0.5-0.9,1.3-1.5,1.6
	c-0.4,0.2-1.3-0.7-1.4-0.2c-0.1,0.5,1,0.2,1.3,0.6c0.1,0.2-0.3,0.4-0.5,0.5c-0.6,0.3-1.4,0.4-2,0.7c-0.8,0.5-1,3.2-1.8,4
	c-0.3,0.3-1.1-0.1-1.2,0.2c-0.3,0.6,0.6,1.5,0.3,2.1c-0.2,0.4-1.4-0.4-1.5,0.1c-0.1,0.5,1.3,0,1.4,0.5c0.1,0.4-0.9,0.3-1,0.7
	c-0.5,1.7,1.5-0.8,0.2,1c-0.9,1.2-1.6,1.3-2,2.9c0,0.2,0.4,0.3,0.4,0.5c0,0.4,0,0.9-0.2,1.2c-0.3,0.4-1.2,0.4-1.2,0.9
	c0,0.6,1,0.8,1.1,1.4c0,0.3-0.7-0.2-0.9,0c-0.2,0.3,0.4,0.8,0.1,1c-0.3,0.2-0.5-0.6-0.8-0.6c-0.2,0,0.3,0.4,0.2,0.6
	c-0.3,1-1.2,2.9-1.8,3.8c-1.8,3-0.5,2.1-1,4.6c0,0.2-0.4,0.2-0.5,0.4c-0.3,0.6-0.8,3.7-0.9,4.3c-0.1,1.3,1.8,2.9,0.4,4.2
	c-0.4,0.4-1.2-0.2-1.6,0.1c-0.4,0.4-0.2,1.2-0.5,1.7c-0.4,0.7-1.4,0.7-2.2,0.8c-0.3,0-0.5-0.2-0.8-0.3c-0.3-0.1-0.7-0.2-1-0.1
	c-1.8,0.2-4,0.9-5.8,1c-0.6,0-1.2-0.6-1.7-0.4c-0.4,0.1,1.2,0.1,1.3,0.5c0.1,0.3-0.7,0.2-1,0.4c-0.4,0.2-0.7,0.6-1,0.9
	c-1.4,1.4-3.8,4-4.9,4.5c-0.5,0.2-3.2,0.1-3.3,0.3c-0.8,0.9,0.9,2.3,0.9,3.5c0,0.2-0.3-0.1-0.4-0.3c-0.5-0.7-0.2-2.2-1-2.5
	c-0.5-0.1-0.9,1.2-1.4,0.9c-0.6-0.4-0.1-1.6-0.6-2.1c-1.2-1.1-2,2.5-2.8-0.9c-0.2-0.7,0.9-1.5,0.6-2.2c-0.6-1.7-2.2,2.2-3.2,2.1
	C223,412.8,222.6,412,222.1,411.5L222.1,411.5z M31.1,318.2c0.1-0.5,0.3-1.6,0.3-1.6S31.2,317.7,31.1,318.2z M31.5,316.2
	c0-0.2,0.1-0.7,0.1-0.7S31.6,316,31.5,316.2z M139.2,232.9c-0.9-0.5-2-0.9-2.5-1.7c0.1,0.5,0.3,0.9,0.5,1.2c-1,0.2-0.6-0.2-1.6-0.3
	c-0.6,0-1.4,0.5-1.8,0.1c-0.3-0.3,1-0.3,1.2-0.7c0.4-0.6-0.1-2.1,0.6-2.1c0.2,0,0.4,0.1,0.5,0.2c-0.3-0.8-0.5-1.7,0.1-1.1
	c0.6,0.6,1.4,1.4,2.2,2c0.2,0.2-0.6-0.5-0.5-0.7c0.3-0.6,2.9-0.4,3-0.4c0.4,0,1-0.6,1.3-0.3C144,231,140.5,232.3,139.2,232.9
	L139.2,232.9z M44.7,289.2c0.3-0.4,0.9-1.2,0.9-1.2S45,288.8,44.7,289.2z M172.9,229.7c0.2-0.4,0.5-0.8,0.7-1.1
	C175.9,224.9,173.2,230.4,172.9,229.7z M238.4,420.6c0-0.1-0.1-0.2,0-0.3C238.6,420,238.4,420.6,238.4,420.6z M175,247.6
	c-1.4-0.2-1.3,0.7-3.2-0.4c-0.2-0.1,0.5-0.2,0.5-0.4c0.3-1.5-0.9-2.9,1.8-3c0.5,0,1.3,0.4,1.3,0.9c0,0.5-1.1,0.4-1.2,0.9
	C174.1,246.3,174.7,247,175,247.6L175,247.6z M178.2,390.8c0.4,0,1-0.3,1.3,0c0.3,0.2-0.4,0.7-0.2,1c0.3,0.4,3.5-0.4,2.9,1.2
	c-0.2,0.7-1.5-0.2-2.1,0c-0.6,0.2-0.8,1.2-1.5,1.4c-0.6,0.1-1.1-0.6-1.7-0.6c-0.6-0.1-1.9,0.8-2.8,0.5c-0.2-0.1-0.1-0.4-0.2-0.6
	c-0.2-0.5-0.9-1.1-0.7-1.6c0.1-0.4,0.8,0,1.2-0.1C175.7,391.7,176.9,390.8,178.2,390.8L178.2,390.8z M218.1,421.9
	c1.6,1.2,1.2,3-0.5,4.1c-0.1,0.1-0.3-0.2-0.3-0.4C217,424,216.9,422.9,218.1,421.9z M228.9,450c-0.9-1.6-0.7-1-1.7-1.5
	c-0.1,0-0.7-2.3-0.8-2.6c-0.2-0.4-2-3.2-1-3.7c0.7-0.3,1.2,0.9,1.6,1.5c0.2,0.3-0.2,1,0.1,1c0.9-0.2,0.8-1.2,0.3-1.5
	c-0.5-0.4-1.3-0.4-1.7-1c-0.2-0.3,0.2-0.8,0.1-1.2c-0.2-1.1-1.7-1.8-2.1-2.6c-0.5-1.1-2.1-5.1-1.8-6.3c0.2-0.7,0.3-1.4,0.6-2.1
	c0.1-0.2,0.1,0.4,0.2,0.5c0.5,0.6,1.4,0.7,2.2,0.7c0.4,0,0.6-0.8,1-0.8c0.3,0,0.1,0.7,0.3,0.9c0.2,0.2,0.5,0.2,0.8,0.3
	c0.1,0,0.3-0.2,0.4-0.1c1.3,0.7,2.7,2,4.3,2.4c0.6,0.1,1.3-0.3,1.9-0.1c0.3,0.1,0.1,0.9,0.4,0.8c0.4-0.2,0.4-0.9,0.7-1.2
	c0.2-0.2,0.2,0.6,0.5,0.8c0.1,0.1,0.4-0.3,0.5-0.1c0.6,0.5,0.8,1.3,1.3,1.9c0.3,0.3-0.5-0.6-0.7-0.9c-0.5-0.6-1.2-1.1-1.2-1.9
	c0-0.8,3.6-0.3,3.9-0.4c2.6-1.3,2.8-3.7,5.4-0.4c0.3,0.4-0.4,0.5-0.4,0.8c0,0.6,0.3,1.2,0.3,1.7c0,0.1-0.3,0.3-0.2,0.4
	c0.1,0.1,0.5-0.3,0.5-0.1c0,0.5-0.5,3.6-0.5,4.2c-0.1,2.2,1.3,3.3,0.5,2.8c-0.5-0.3-0.3-1.5-0.9-1.5c-0.4,0-2,4.2-2,4.4
	c-0.2,1.8,1,3.4,0.5,5.4c-0.1,0.2-1.1,0.6-2.1-1c-0.2-0.4-0.1-1.1,0.3-1.2c0.4-0.2,0.8,0.9,1.2,0.7c3.2-1.2-1.9-0.9-2.1-1
	c-0.5-0.1-0.9-1-1.4-0.8c-0.4,0.1,0.4,0.7,0.5,1.1c0.1,0.8-0.2,1.8-0.7,2.5c-0.2,0.2-1.1,0.1-1.4,0.7c-0.3,0.7-0.2,1.5-0.6,2.1
	c-1.3,1.7-1.6-0.4-2.1-0.8c-0.2-0.2-0.2,0.6-0.4,0.6c-0.9-0.1-2,0.5-2.8,0.1C229.5,452.7,229.5,451,228.9,450L228.9,450z
	 M242.4,422.9c0.3,0.5,0.6,1,1,1.4c0.2,0.2,0.7,0.1,0.8,0.4c0.7,2,0,2.3-1.7,1.8c-0.1,0,0.1-0.3,0.1-0.4c0-0.3-0.7-1-0.7-1.1
	c-0.3-0.5-1.1-0.9-1-1.4C241,423.2,241.9,423.2,242.4,422.9L242.4,422.9z M272.8,321.6c-1.3-0.9-0.1-1.6,0.1-2.7
	c0.1-0.4-0.5-0.8-0.3-1.2c0.3-0.6,1.1-0.7,1.4-1.2c0.3-0.6-0.5-2,0.2-2C276.2,314.4,272.9,321.4,272.8,321.6L272.8,321.6z"/>
<path id="nz" style="fill:#B3B3B3;fill-opacity:0.9843;stroke:#000000;stroke-width:0.8736;stroke-miterlimit:9.9048;" d="
	M417.3,422c0.4,0,0.9-0.4,1.1-0.1c0.2,0.3-0.5,0.5-0.6,0.8c-0.6,1.4-0.6,3-2,3.9c-0.5,0.3-0.1,1.2-0.4,1.7c-0.2,0.4-0.9,0.5-1.2,0.9
	c-1.7,2.7-2.1,5-4.8,6.8c-0.7,0.5-1.9,2.1-2.3,1.3c-3.7-6.9,4.4,4.6-2.2-1.6c-0.4-0.3,0.6-1.2,0.2-1.5c-0.5-0.4-1.7,0.9-1.8,0.3
	c-0.1-0.7,1.2-0.8,1.6-1.3c0.7-0.9,2.7-5.9,2.9-7.2c0.1-0.3-0.6,0.8-0.8,0.5c-0.7-1.1-0.7-2.6-2.3-3.2c-0.6-0.2-1.2-0.1-1.7-0.4
	c-0.6-0.4-0.8-1.2-1.4-1.6c-0.9-0.5-2.7-0.1-3.1-1.6c-0.9-3.5,3.4-2.6,4.7-4.5c0.7-1,0.3-5,0.7-5.5c0.3-0.4,1,0.2,1.4-0.1
	c0.4-0.3-2.3,0.4-0.9-1.9c0.2-0.4,0.8-0.2,1.2-0.4c0.1,0-0.2,0-0.2-0.1c-0.2-1.2-0.1,0.9-0.6-0.1c-0.4-0.8-0.9-1.7-0.8-2.5
	c0-0.4,0.8-0.7,0.7-1.1c-0.1-0.3-0.8,0.2-1,0c-0.4-0.4-1.2-1.3-0.7-1.6c0.2-0.1,2.1,4,2.4,0c0.2-2.2-2.7-0.3-2.7-0.3
	c-0.9-0.5-0.7-2.1-1.2-3c-0.2-0.4-1.2-1.4-0.7-1.3c0.7,0.2,0.8,1.5,1.5,1.5c0.5,0,0.3-1,0.1-1.5c-0.2-0.4-1.1-0.4-1.1-0.9
	c0-0.6,1.3-0.9,1.1-1.5c-1-3-1.7,3.4-3.2-2.1c0-0.1,0.1,0.3,0.1,0.4c-0.3,0.7-0.1,0.8,0.4,1.6c0.4,0.6,1.9,1.5,1.2,1.6
	c-0.5,0.1-4.7-5.4-4.8-5.8c-0.2-0.8,1.9-2.6,1.5-1.9c-2.2,4-1.3,0.8-2-0.1c-0.2-0.3-0.9,0.2-1-0.1c-0.2-0.7,0.3-1.5,0.2-2.2
	c-0.1-0.9-3.3-3.9-2.9-4.2c0.6-0.5,1.6-0.4,2.2,0c0.4,0.3-0.8,0.5-0.9,1c-0.1,0.3,0.2,0.7,0.5,0.7c0.3,0,0-0.9,0.2-0.7
	c0.5,0.5,0.6,1.3,0.9,2c0.2,0.5,0,1.5,0.5,1.5c0.6-0.1,0.4-1.5,1-1.6c0.4-0.1-0.2,1.1,0.2,1.4c1.5,1.1,2.8-1,4.1,1.4
	c0.2,0.4-0.5,1.4,0,1.5c0.6,0.1,0.8-1,1.3-1.2c0.1,0-0.4,0.8-0.1,1c0.1,0.1,0.2-0.1,0.3,0c0.7,0.4,0.1,1.6,0.4,2.4
	c0.2,0.5,1.1,1,0.8,1.5c-0.2,0.4-1-0.1-1.5-0.1c-0.4,0,0.9-0.2,1.1,0.1c0.2,0.3-0.3,0.8-0.2,1.1c0.1,0.3,0.5,0.2,0.7,0.4
	c0.6,0.7,1.2,1.4,1.6,2.2c0.1,0.2-0.7-0.2-0.8,0c-0.2,0.3,0.3,0.7,0.2,1c-0.1,0.2-0.3-0.7-0.4-0.5c-0.2,0.4,0,0.9,0,1.4
	c0,0.8-0.5,1.6-0.2,2.3c0.1,0.4,0.8,0.6,1.2,0.5c0.3-0.1,0-1,0.3-1c0.7-0.1,1.4,0.3,1.8,0.8c0.5,0.6,0.3,1.6,0.8,2.1
	c0.3,0.4,0.9,0.2,1.4,0.3c0,0,0.1,0,0.1,0c-0.1-0.3-0.3-0.7-0.4-1c-0.9-3.1-0.1-1.4-0.1-2.5c0-0.2-0.3-0.3-0.4-0.5
	c-0.3-0.6-0.8-1.2-0.6-1.8c0.1-0.3,0.8,0,1,0.3c0.4,0.5,0.1,1.4,0.5,1.9c0.9,1.3,1.7,0.4,1.7,1.8c0,0.7,0.3,1.8,0.6,3.5
	c0.1,0.4-0.2,0.9,0,1.3c0.3,0.5,1.5,1.2,1.5,0.6c0-0.2-0.3-0.4-0.3-0.6c0-0.3,0.4,0.4,0.6,0.5c2,1.2,4.9,2.8,7.1,2
	c1.7-0.6,1.1-2.6,3.1-3.2c0.2-0.1,3.9,0.1,3.5,1.3c-0.3,0.8-1,1.5-1.3,2.3c-0.3,1,0.2,2.8-0.3,4c-0.3,0.6-0.8,1.1-1.4,1.4
	c-0.2,0.1-0.6-0.3-0.8-0.1c-0.2,0.1,0.2,0.3,0.2,0.5c0,0.8-0.5,1.6-0.5,2.5c0,0.4,0.6,1.3,0.2,1.3c-0.5,0-0.1-0.9-0.4-1.3
	c-1.1-1.6-5.4,0.9-5.7,2.6C417,420.6,417.3,421.3,417.3,422L417.3,422z M428.8,507.2c-0.2,0.1-0.7,0.2-0.7,0.2
	S428.6,507.3,428.8,507.2z M361.5,481.2c0-0.1,0.2-0.3,0.1-0.3c-0.1,0-0.2,0.2-0.2,0.3C361.4,481.2,361.5,481.2,361.5,481.2z
	 M355.7,471c-0.5,0.3-1.4,0.9-1.4,0.9S355.2,471.3,355.7,471z M363.3,480.4c0.4,0.5,1.3,0.9,1.2,1.6c0,0.5-1.6,0.1-1.4,0.6
	c0.2,0.6,1.8-0.3,1.8,0.3c0,0.9-3.7,2.2-4.5,2.4c-0.4,0.1,0.5-0.7,0.7-1C361.7,483.1,362.5,481.7,363.3,480.4L363.3,480.4z
	 M399.7,438c0.4,0.4,1.3,0.6,1.3,1.2c0,0.9-0.8,1.7-1.6,2.2c-0.2,0.1-0.6-0.2-0.6,0c-0.1,0.3,0.5,0.5,0.4,0.8
	c-0.8,2-1.5,1.2-2.2,2.3c-0.7,1.1-0.9,2.8-1.7,3.8c-0.7,0.8-1.9,1-2.7,1.7c-0.3,0.2-0.2,0.8-0.5,1c-0.5,0.2-1,0-1.5,0
	c-0.4,0-0.8-0.2-1.2-0.1c-0.2,0,0.4,0.2,0.6,0.3c0.7,0.1,1.5-0.2,2.1,0.1c0.3,0.1,0.1,0.7-0.1,0.8c-2.4,1.4-2.8,0-4.6-0.8
	c-1.3-0.6,1.1,1.8,2.8,1.5c0.6-0.1,1.4-0.8,1.8-0.4c0.4,0.4-0.5,1.2-0.3,1.8c0.1,0.3,4.3-0.9,1.7,2.2c-0.2,0.3-1.2-0.6-1.2-0.6
	c-1-0.2-2.1,0.6-3,0.3c-0.1,0-3.6-3-3.6-3.1c-0.5-0.5-1.1-1.1-1.3-1.8c-0.2-0.6,2.7-2.2-0.8-2.2c-0.4,0,0.8,2.1,0.7,2.2
	c-0.4,0.3-0.9-0.1-1.4-0.1c-0.5,0-1.2-0.3-1.5,0.1c-0.9,1.2,0.6-0.2,3,0.4c0.8,0.2,2.5,2.5,3,3.1c0.5,0.5,1.5,0.8,1.5,1.5
	c0,0.6-1,0.5-1.5,0.8c-0.2,0.2-0.4,0.7-0.6,0.6c-0.3-0.1-0.1-1.1-0.4-1c-0.4,0.1-0.1,1.2-0.5,1.3c-0.7,0.2-1.5-1.1-2.1-0.7
	c-0.6,0.4,0.6,1.8,0,2.2c-1.7,1.3-2-2-2-1.4c0,2.6,0.2,0.2,2,1.5c0.4,0.3-0.5,1-0.6,1.6c-0.1,1.3,0.5,2.9-0.4,3.8
	c-0.6,0.7-4.1-1.5-4.2-1.6c-0.4-0.2,0.7,0.6,1.1,0.9c0.1,0.1,0.2,0.2,0.4,0.3c0.4,0.1,2.5,0.2,2.6,0.7c0.1,0.7-0.9,1.1-1.2,1.7
	c-0.8,1.4-0.1,2.2-1,3.4c-0.3,0.5-1.1,0.7-1.1,1.3c0,0.6,0.8,0.9,1,1.4c0,0-2.5,0.7-2.6,0.7c-0.8,0.4-0.3,1.2-0.7,1.7
	c-0.6,0.8-1.7,1.1-2.3,1.9c-1.7,2.1-2.5,2.3-5.1,2.6c-1.5,0.2,0-0.4-1-1c-0.3-0.2-0.6,0.1-0.9,0.1c-0.6,0.1-1.4,0.7-1.9,0.3
	c-0.4-0.3,0.1-2.5-1.1-2.5c-0.7,0-1.4,0.8-2.1,0.6c-0.6-0.2-0.6-1.1-0.8-1.6c0-0.1,0.1-0.3,0-0.3c-0.4-0.2-0.9-0.4-1.3-0.3
	c-1.5,0.2,0.1,0.5-0.5,0.9c-0.8,0.5-4.5,0.1-4.4-0.9c0.1-0.8,1.6-0.9,1.7-1.7c0.4-2.1-2.8,3.3-2,1.2c0.2-0.6,1.7-1,1.2-1.3
	c-0.6-0.4-1.4,1-2,0.7c-0.5-0.3-0.2-1.2-0.1-1.7c0-0.2,3.6,0,3.2-0.9c-0.6-1.4-3.2-1.7-0.7-3.7c2.1-1.7-1.3,1.7,2,1.7
	c0.5,0-1.2-0.8-1-1.3c0.2-0.5,1.6,0.3,1.5-0.1c-0.2-0.7-1.6-0.3-1.8-1c-1.1-3.4,1.7-1,2.1-1.4c0.5-0.5,0.2-1.6,0.7-2.1
	c0.2-0.2,0.4,1.1,0.6,0.9c0.4-0.4-0.3-1.3,0.1-1.6c0.6-0.4,1.6,0.5,2.1,0c0.4-0.5-0.7-1.1-0.6-1.7c0.1-0.4,2.5-2.6,2.7-2.8
	c0.3-0.3,0.3-0.8,0.6-1.1c0.4-0.4,1.1-0.4,1.6-0.6c0.1,0,0.1,0.2,0.2,0.3c0.1,0.1,0.4,0.2,0.5,0.1c0.7-0.4,1.1-1.3,1.8-1.4
	c0.5-0.1,0.9,1.4,1.1,1c0.2-0.5-0.9-0.7-1-1.3c0-0.3,0.5-0.4,0.8-0.6c0.4-0.3,0.7-0.8,1.2-0.8c0.2,0,0.3,0.6,0.5,0.6
	c0.2,0-0.3-0.5-0.1-0.6c0.7-0.4,1.6-0.1,2.2-0.6c0.2-0.2-0.3-0.5-0.3-0.8c0-0.3,0.2-0.6,0.5-0.7c0.7-0.3,2.8-0.1,3.2-1.1
	c0.2-0.5-1.2-1-0.8-1.4c0.7-0.7,2.5,0.6,2.8-0.3c0.3-0.9-0.7-4,1.4-2.9c0.7,0.3-0.5,2.2,0.2,2.2c0.7,0-0.3-1.5-0.1-2.2
	c0.5-2.2,2.7-2.4,4.2-3.6c0.1-0.1-0.4-0.1-0.5,0c-0.6,0.3-0.9,0.9-1.5,1.2c-0.2,0.1-0.7,0.3-0.8,0c-0.1-0.4,0.4-0.8,0.5-1.2
	c0.1-0.4,0.8-4.2,0.9-4.3c0.2-0.3,0.8,0.2,1.1,0.1c0.5-0.1,0.9-0.4,1.2-0.8c0.7-0.9,1.3-1.9,1.7-3c0.9-2.2-1.3-2.5,1.3-4.7
	c0.7-0.6,1.2-1.5,2.2-1.7c0.5-0.1,1.8-0.3,1.6,0.3c-0.2,0.7-1.6,0.3-2,0.9c-0.2,0.3,1.3,1.6,2.2,2.8c0.3,0.4,0.4,2.1,0.9,2.5
	c0.3,0.3,3.1-3.7,5.2-3.1c0.5,0.1-1.3,0.2-1.5,0.7c-0.3,0.6-0.6,1.8,0,2.1c3.6,2.3,0.9-2.9,3.2-2.3c3.2,0.9-1.9,1.9-2.3,2.1
	c-0.2,0.1,0.4,0.2,0.6,0.1c0.6-0.1,1.2-0.7,1.8-0.5c2.3,0.5-1.2,0.5-1.7,1.6C399.6,436.5,399.8,437.2,399.7,438L399.7,438z
	 M456.1,457.2c0.2-0.4,0.9-0.7,0.7-1.1c-0.2-0.6-1.4-0.5-1.5-1.1c-0.3-1,2.6-0.7,3.1,0.1C459.7,457.1,456.7,458.9,456.1,457.2
	L456.1,457.2z"/>
<path id="gu" style="fill:#D33512;stroke:#000000;stroke-width:0.8736;stroke-miterlimit:9.9048;" d="M223.6,77.1
	c1.3,1-2.7,4.2-1.6,1.2C222.2,77.7,223,77.5,223.6,77.1z"/>
<polygon id="mp-border" style="fill:none;stroke:#000000;stroke-width:0.4368;stroke-miterlimit:14.1732;stroke-dasharray:2.184,1.3099,0.4358,1.3099;" points="
	193.7,75.2 193.6,30.1 261.8,30.1 261.8,75.1 "/>
<path id="mp" style="fill:#D33512;stroke:#000000;stroke-width:0.8736;stroke-miterlimit:9.9048;" d="M228.9,57.9
	c0.2-0.3,0.2-0.1,0.2-0.1C229.1,57.9,229,57.9,228.9,57.9z M226,73.6c-0.3,0.1-0.9,0.4-0.9,0.4S225.7,73.8,226,73.6z M228.2,68.1
	c0,0.2,0.1,0.6,0.1,0.6S228.2,68.3,228.2,68.1z M229.2,67c-0.3,0.3-0.8,0.9-0.8,0.9S229,67.3,229.2,67z M229.1,48.5
	c-0.1,0.2-0.4,0.7-0.4,0.7S229,48.8,229.1,48.5z"/>
<path id="nr" style="fill:#B3B3B3;stroke:#000000;stroke-width:0.8736;stroke-miterlimit:9.9048;" d="M354.4,167.8
	c0.6,0,1.1-0.6,1.1-1.4c0-0.7-0.5-1.4-1.1-1.4c-0.6,0-1.1,0.6-1.1,1.4C353.3,167.2,353.8,167.8,354.4,167.8z"/>
<path id="pg" style="fill:#B3B3B3;fill-opacity:0.9843;stroke:#000000;stroke-width:0.8736;stroke-miterlimit:9.9048;" d="
	M200.1,215.7c0-3.2,0-6.4,0-9.6c0-0.7,0-1.4,0-2c0-0.7,0-1.4,0-2c0,0,0.1,0,0.1,0c-1-0.5-1-0.1-1-1.7c0-0.1,0.8-1.4,0.9-1.7
	c0.1-0.4,0-0.8,0-1.2c0-0.4,0-0.8,0-1.2v-4v-16.1c0-0.5,1.1-0.1,1.3-0.1c1.8,0.5,3.5,1.9,5.1,2.7c2.5,1.3,6.4,1.2,8.8,2.2
	c1.4,0.6,1.3,1.4,3,2.3c0.2,0.1,0.5,0,0.8,0c0.7,0,1.5-0.3,2.2,0c0.4,0.2,0,0.9,0.3,1.1c0.5,0.4,1.3,0.2,1.8,0.6
	c0.6,0.4,0.7,1.2,1.3,1.6c0.4,0.3,1.1,0,1.5,0.2c1.1,0.6,2,1.6,2.8,2.6c0.5,0.7-0.4,3.2-0.2,3.9c0,0.2,0.4-0.1,0.6,0
	c0.7,0.2,2.6,0.3,3.6,0.7c1.4,0.6,2.3,1.7,3.8,2.2c2,0.7,3.2-0.5,4.4,2.2c2.1,4.5-4,1.3-5.2,2.5c-0.4,0.4,0.5,1.1,0.6,1.6
	c0.1,0.3-0.1,0.5,0,0.8c0.2,0.7,0.4,1.3,0.7,1.9c0.4,0.9,1.7,0.8,2.4,1.4c0.4,0.4,0.5,1.1,0.9,1.4c0.2,0.2,0.6-0.1,0.9,0
	c0.5,0.2,1.1,0.4,1.5,0.7c0.2,0.1,0.1,0.4,0.1,0.6c0.2,0.8-0.1,1.9,0.5,2.5c0.3,0.3,0.9,0.3,1.3,0.6c0.7,0.5,0.4,1.8,0.9,2.5
	c0.4,0.7,3.1-0.6,3.2-0.6c2.2,0,0.6,2.1,0.6,3.2c0,0.2,0.5,0,0.7,0.1c1.2,0.4,0,0.7,1.6,0.7c0.3,0,0.5-0.2,0.8-0.2
	c0.5,0,1.7-0.3,1.6,0.2c-0.1,0.7-1.5,0.6-1.8,1.2c-0.4,1,5.2,2.7,5.5,2.8c0.5,0,1.5-0.8,1.5-0.3c0,1.3-2.9,0.5-3.1,0.5
	c-0.8,0.1,1.3,1,1.9,1.5c0.2,0.2-0.5,0.2-0.7,0.3c-0.7,0.2-1.4,0.4-2.1,0.5c-2.3,0.4-1.8-1.4-2.8-2.2c-0.1-0.1-4.6-0.4-4.7-0.4
	c-0.6-0.2-1-1-1.7-1.1c-0.5-0.1-0.8,0.6-1.3,0.6c-0.7,0-1.2-0.6-1.8-0.7c-0.6-0.1-1.2-0.2-1.8-0.2c-0.3,0-0.6,0.4-0.9,0.3
	c-0.1,0-2.3-3.3-2.5-3.5c-0.6-0.7-2.8,0.5-2-3.1c0.2-0.8-1.7,0.2-2.3-0.2c-0.3-0.2,0.1-0.7,0.1-1.1c0-0.3-0.3-0.4-0.5-0.6
	c-0.5-0.6-2.2-3.6-2.5-3.9c-2.1-1.8-5-0.1-7.4-1.8c-1.3-0.9,1.8-2.7-2.2-1.7c-0.6,0.2,0.4,2-0.2,1.8c-0.5-0.1-0.5-1.1-1-1.1
	c-0.4,0-0.4,2.7-3.8-0.7c-0.1-0.1,0.3,0.2,0.4,0.4c0.9,1.9,0.2-0.2,1.2,2.5c0.1,0.2-0.3-0.2-0.5-0.3c-0.7-0.4,0.8,0.7-0.1,0.7
	c-0.8,0-2.2-0.6-2.9-0.8c-0.1,0,0.3,0,0.4,0.1c0.4,0.6,1.3,1.2,1.1,1.9c-0.2,0.5-1.1-0.1-1.7,0c-0.7,0.1-1.4,0.6-2.1,0.6
	c-0.3,0-0.6-0.3-0.9-0.4c-1.3-0.4-3.2,1.2-4.2-0.3c-0.3-0.4,1-0.1,1.4,0c0.3,0.1,0.1,1,0.9,0.8c2-0.6,6.7,1.3,4.9,4.1
	c-0.3,0.5-1.2,0-1.7,0.3c-0.3,0.1-0.4,0.5-0.7,0.6c-0.6,0.4-1.2,0.7-1.8,0.9c-0.5,0.2-1.9-1-2.5-1c-1.2-0.1-2.3,0.6-3.6,0.4
	C202.1,216.1,201.9,215.8,200.1,215.7L200.1,215.7z M259.7,224.3c0.1,0.1,0.2,0.4,0.2,0.4S259.8,224.4,259.7,224.3z M261,224.7
	c0,0.2-0.1,0.5-0.1,0.5S260.9,224.9,261,224.7z M282.9,193.2c0.1,0,0.2,0,0.3,0c0.6,0.2,1.3,0.4,1.9,0.7c0.5,0.2,0.5,1.5,0.8,1.9
	c1.1,1.6,5.7,3.3,4.3,5.7c-0.7,1.2-2.9,0.2-3.5-0.4c-0.4-0.4-0.9-0.7-1-1.2c-0.1-0.4,0.4-0.9,0.3-1.3
	C286,198.4,282.9,197.8,282.9,193.2L282.9,193.2z M241.4,173.8c-0.2,0.2-0.5,0.7-0.5,0.7S241.2,174,241.4,173.8z M282.4,190.6
	c0.5,0.8,0.5,3.5,0.1,2.7C282.2,192.7,281.8,191.3,282.4,190.6z M237.2,191.7c0.2,0.3,0.6,0.9,0.6,0.9S237.4,192,237.2,191.7z
	 M230.3,187.7c-0.1,0.5-0.3,1.4-0.3,1.4S230.2,188.2,230.3,187.7z M273.9,229.1c0.1,0.1,3.3,1.6,3.4,1.9c0.2,0.3-0.7,0.1-1,0
	c-0.7-0.1-1.4-0.2-1.9-0.6C274,230.1,274,229.5,273.9,229.1L273.9,229.1z M278.9,229.3c0.5,0.1,1.6,0.3,1.6,0.3
	S279.4,229.4,278.9,229.3z M269.9,224.8c0.6,0.1,1.9,0.3,1.9,0.3S270.6,224.9,269.9,224.8z M270,214.8c0.5,0,2.6-0.3,2.7,0.9
	C272.9,218.1,270.5,215.2,270,214.8z M261.3,211.4c0,0.7,0.5,1.8-0.1,2c-0.6,0.2-0.4-1.2-0.4-1.8
	C260.8,211.4,261.3,211.2,261.3,211.4z M257.5,216.9c0.6,0.2,1.3,0.2,1.8,0.6c0.4,0.4,0.5,1,0.6,1.5c0,0.1-0.3-0.1-0.4-0.2
	c-0.1-0.1-0.2,0.1-0.3,0.1c-0.7,0-1.7,0.3-2.1-0.2C256.7,218.3,257.4,217.5,257.5,216.9L257.5,216.9z M255.9,216.2
	c0.3,0.3,0.7,0.6,0.9,1c0.1,0.2,0.1,0.6-0.1,0.6c-0.6-0.1-1.3-0.4-1.6-0.9C255,216.6,255.7,216.5,255.9,216.2z M214.2,211
	c0.5,0.3,1.9,0.4,1.5,0.8c-0.4,0.4-1.1-0.4-1.6-0.7C214.1,211.1,214.2,211.1,214.2,211L214.2,211z M259.4,175.8
	c2.3,1.8,4.8,2.9,7.5,4.1c0.8,0.4,2.5,2.8,3.1,3.4c0.6,0.6,1.7,0.5,2.3,1.1c1.7,1.6,0.9,2.9,0.2,4.6c-0.1,0.2-0.3,0.6-0.5,0.5
	c-2-0.8-0.9-2.7-1.2-4c-0.2-0.8-2-3.2-2.5-3.7c-1.1-1.1-0.6,0-2-0.6c-2.1-0.9-3.4-3.3-5.7-4.1c-0.5-0.2-1.2,0.3-1.5-0.1
	C258.8,176.7,259.3,176.2,259.4,175.8L259.4,175.8z M276.7,184.7c-0.1,0.2-0.3,0.6-0.3,0.6S276.6,184.9,276.7,184.7z M270.5,178.7
	c0,0.3,0,1,0,1S270.5,179,270.5,178.7z M266.3,176.7c0.1,0.1,0.4,0.4,0.4,0.4S266.4,176.8,266.3,176.7z M267.7,185.4
	c0,2.8,2.5-1,1.3,3.2c-1.1,3.9-0.5,0.6-2.6,1.9c-0.8,0.5,1.2,1.7,0.9,2.5c-0.7,2.2-2.9,0.4-3.9,0.7c-0.3,0.1,0.4,0.6,0.3,0.9
	c-0.1,0.4-0.7,0.6-1,0.9c-0.1,0.1-5.2,2.8-5.7,2.8c-0.4,0.1-4.5,0-4.6,0c-0.7-0.2-1.1-1.1-1.8-1.4c-2.3-1-1.8,0-3.4-1.2
	c-0.2-0.1-0.5,0-0.7-0.1c-0.5-0.1-1.3,0-1.6-0.4c-0.4-0.5-0.2-1.2-0.1-1.8c0.1-0.4,0.8,0.4,1.2,0.4c0.2,0,0.3-0.4,0.5-0.4
	c0.7-0.1,1.5-0.1,2.2,0c0.5,0.1,0.8,0.6,1.2,0.7c0.4,0.1,3.9-0.6,4.4-0.7c0.3-0.1-0.3-0.5-0.2-0.8c0.1-0.3,0.6-0.5,0.7-0.8
	c0.2-0.4,0-1,0.3-1.3c0.2-0.2,0.7,0.1,0.7,0.4c-0.1,0.6-1,0.8-1,1.4c-0.1,2.2,2.4,1.7,3.5,1.5c3.1-0.4,1.9-1.4,3.9-3.4
	c0.6-0.6,1.7-0.2,2.5-0.5c0.4-0.1-0.1-0.7-0.1-0.8c-0.2-1.5-0.5-1.5-0.9-3.4c0,0,0.1-0.1,0.1-0.1c0.4,0,0.8,0,1.1,0.1
	c0.5,0.2,0.9,0.9,1.5,0.8C267,186.4,267.3,185.7,267.7,185.4z M241.5,193.6c0.5,0.3,1.7,0.5,1.4,0.9c-0.4,0.5-1.4,0.1-1.9-0.2
	C240.8,194.1,241.3,193.8,241.5,193.6L241.5,193.6z M238.8,172.2c0.6,1.7-2.5,1.2-3.4,1.3c-0.5,0-1.3,0.7-1.6,0.3
	C231.9,171.6,237.4,172.2,238.8,172.2L238.8,172.2z M252,168.4c0.4,0.5,1.5,0.8,1.2,1.4c-0.2,0.5-1.1-0.3-1.5-0.7
	C251.5,168.9,251.9,168.7,252,168.4z M254.2,175.2c3.9-1.6,4,2.3,1.3,1.2C255,176.2,254.6,175.6,254.2,175.2z M259.9,177.9
	c0.3,0.1,0.8,0.3,0.8,0.3S260.1,178,259.9,177.9z"/>
<path id="sb" style="fill:#E6E6E6;fill-opacity:0.9843;stroke:#000000;stroke-width:0.8736;stroke-miterlimit:9.9048;" d="
	M293.7,200.2c1,0.3,2.8,1.2,3.4,1.8c0.5,0.4,0.4,1.2,0.8,1.7c0.5,0.6,1.4,0.7,2,1.2c0.1,0.1-1,0.2-1.2,0.1c-0.6-0.2-1.2-0.4-1.8-0.7
	C296,203.9,293.4,201.3,293.7,200.2L293.7,200.2z M310.3,215.1c0,0.2-0.1,0.5-0.1,0.5S310.3,215.3,310.3,215.1z M304.2,213.1
	c0,0.3,0,0.8,0,0.8S304.2,213.3,304.2,213.1z M357.8,220.3c0-0.1,0-0.2,0.1-0.2c0,0,0.1,0.1,0.1,0.1
	C358,220.3,357.8,220.3,357.8,220.3L357.8,220.3z M350,225.6c0.7-0.2,1.4-0.4,2.1-0.5C352.4,225.1,350.3,227.6,350,225.6z
	 M354.3,228.9c0.1,0,0.4,0,0.4,0S354.4,228.9,354.3,228.9z M355.7,230.9c0.4,0.1,1.2,0.4,1.2,0.4S356.1,231,355.7,230.9z
	 M289.2,202.5c0.3,0.3,0.8,0.8,0.8,0.8S289.4,202.8,289.2,202.5z M294.2,206.2c0.5,0.4,1.2,0.6,1.4,1.2c0.1,0.4-0.1,1.1-0.5,1
	C293.3,208,293.9,207.1,294.2,206.2L294.2,206.2z M305.7,205.9c0.2,0.1,1.6,0.3,1.7,0.4c1.4,1.1-0.1,0.8,2,1.8
	c1.5,0.8,5.3,1.6,4.9,4.1c0,0.2-0.4,0-0.5-0.1c-0.9-0.6-1.2-1.2-2.3-1.6C308.6,209.5,307.5,208.2,305.7,205.9L305.7,205.9z
	 M299.9,208.6c0.2,0.6,2.8,3.4,2.2,3.8C300.2,213.7,300,209,299.9,208.6z M313.1,216.4c2.4,1.9,1.9,0.3,4.1,1.1
	c0.9,0.3,4.1,3.1,1.5,3.1c-4.2,0,1-0.1-1.9-0.7C314.4,219.4,311.6,221,313.1,216.4z M315.9,214.9c0.3,0.2,1.1,0.5,0.8,0.7
	c-0.3,0.3-0.9-0.1-1.2-0.4C315.3,215.1,315.7,215,315.9,214.9L315.9,214.9z M319.3,210.7c3,1.5,0.9,2.2,1.3,3.1
	c0.2,0.5,1,0.5,1.4,0.9c0.4,0.3,1.2,3.3,1.3,4.1c0,0.2-0.4-0.2-0.5-0.3c-0.3-0.3-0.4-0.8-0.7-1.1c-0.2-0.2-0.4-0.3-0.6-0.5
	C320.5,215.9,317.1,211.2,319.3,210.7L319.3,210.7z M326.9,219.3c0,0.2,0.1,0.7,0.1,0.7S326.9,219.5,326.9,219.3z M322.9,222.3
	c1.2,0.1,1.8,1.2,2.9,1.3c0.6,0.1,1.4-0.1,1.9,0.2c1.1,0.6,0.5,1.4,0.8,2.3c0,0.1,0.4,0.2,0.3,0.2c-1.1-0.4-3.2-0.3-4.1-1.3
	c-0.4-0.4-0.3-1.2-0.6-1.6C323.8,222.8,323.3,222.6,322.9,222.3L322.9,222.3z M315.1,230c0.4,0.2,0.9,0.4,1.3,0.7
	c0.4,0.2,0.9,0.4,1.3,0.7C320.4,233,314.4,230.8,315.1,230z M288.2,204.6c0.1,0.1,0.3,0.3,0.3,0.3S288.3,204.7,288.2,204.6z"/>
<path id="nc" style="fill:#CCCCCC;fill-opacity:0.9843;stroke:#000000;stroke-width:0.8736;stroke-miterlimit:9.9048;" d="
	M345.2,288.2c2.5,0.8,1.9,2.3,3.8,3.8c0.1,0.1,1.3,0.5,2.1,0.9c1.5,0.7,2.4,2.1,4,3.4c0.6,0.4,1.3,0.6,1.8,1.1c0.9,1,0.5,1.5-0.2,2
	c-0.1,0.1-0.3-0.5-0.4-0.5c-0.6,0,0.4,0.7-0.4,0.5c-0.7-0.1-1.5-0.1-2.1-0.5c-0.2-0.2,0.2-0.7,0-0.9c-0.5-0.4-1.4-0.1-1.9-0.5
	c-0.3-0.3,0-1-0.3-1.3c-0.2-0.2-0.3,0.5-0.5,0.4c-0.4-0.1-0.6-0.5-1-0.7c-0.3-0.1-0.2-0.8-0.5-1c-0.1-0.1-0.2,0.3-0.3,0.3
	c-0.2,0.1-2.2-1.4-2.5-1.6c-0.6-0.4-1.5-0.5-2-1.1c-0.6-0.6-1.2-2-1.5-2.3c-2-2.1-1.7-1.5-3.2-4.4c-0.3-0.5-1.5-1.4-0.9-1.5
	c0.7-0.1,1,1,1.5,1.4c0.5,0.3,0.4,0.2,0.3-0.3c0,0,0.1-0.1,0.1-0.1C342.5,285.6,344.1,287.3,345.2,288.2L345.2,288.2z M364,293.7
	c0,2.5-2.8-0.9-1.8-1.1C362.9,292.5,363.4,293.4,364,293.7z M359.6,289.8c-0.1,0.4,0,1.2-0.4,1.2c-0.8-0.1-1.7-0.7-1.8-1.4
	c-0.1-0.6,0.6-1.6,1.2-1.5C359.3,288.2,359.3,289.3,359.6,289.8z M354.5,288c0.1-0.6,0.4-1.8,0.4-1.8S354.6,287.4,354.5,288z
	 M337.1,281.7c0,0.2,0,0.6,0,0.6S337.1,281.9,337.1,281.7z M314.8,278.9c0-0.3-0.1-0.9-0.1-0.9S314.7,278.6,314.8,278.9z
	 M360.4,300.4c-0.2,0.2-0.6,0.5-0.6,0.5S360.2,300.5,360.4,300.4z"/>
<path id="vu" style="fill:#008000;stroke:#000000;stroke-width:0.8736;stroke-miterlimit:9.9048;" d="M359.8,261.1
	c-0.1-0.6,0-1.2-0.2-1.7c-0.3-0.7-1.1-1.1-1.2-1.8c-0.1-0.3,0.6-0.1,0.9,0.1c0.5,0.3,0.2,0.9,0.5,1.3c0.1,0.1,2.9,1.6,2.5,2
	C360.4,263,360.5,262.3,359.8,261.1z M364,253.9c0,0.2,0.1,0.6,0.1,0.6S364.1,254.1,364,253.9z M366.6,268.8c0,0.3,0,0.8,0,0.8
	S366.6,269.1,366.6,268.8z M364.3,263.5c0-0.1,0-0.2,0.1-0.2c0,0,0.1,0.1,0.1,0.1C364.5,263.5,364.4,263.5,364.3,263.5L364.3,263.5z
	 M364.6,259.5c-0.2,0.3-0.2,1-0.6,1c-0.5,0-1.5-0.5-1.2-0.9C363.1,259.1,364,259.6,364.6,259.5z M364.3,257.5
	c-0.1-0.5-0.3-1.5-0.3-1.5S364.2,257,364.3,257.5z M358.5,256.7c-0.2-0.1-0.6-0.3-0.6-0.3S358.3,256.6,358.5,256.7z M355.9,252
	c0.3,0.3,0.9,1,0.9,1S356.2,252.3,355.9,252z M360,247.7c-0.1-0.3-0.2-0.8-0.2-0.8S359.9,247.4,360,247.7z M361.2,243.8
	c0.1-0.1,0.2-0.4,0.2-0.4S361.3,243.6,361.2,243.8z M371,276.3c-0.4,0.2-0.9,0.9-1.1,0.5c-0.4-0.6-0.5-1.7,0.1-2
	C370.5,274.6,370.6,275.8,371,276.3z M372.2,281c-0.2,0.1-0.6,0.5-0.7,0.3c-0.4-0.5-1-1.7-0.4-1.9
	C371.7,279.1,371.8,280.5,372.2,281z"/>
<path id="fj" style="fill:#B3B3B3;fill-opacity:0.9843;stroke:#000000;stroke-width:0.8736;stroke-miterlimit:9.9048;" d="
	M423.8,272.6c-1-0.1-4.9-0.5-4.5-1.9c0.1-0.6,0.9-0.8,1.1-1.4c0.1-0.2-0.4-0.5-0.3-0.7c0.2-1,1.6-1.3,2.5-1.6
	c1.6-0.5,5.5,0.7,5.4,3.9C428,271.6,424.8,272.1,423.8,272.6L423.8,272.6z M432.1,266.8c0.1-0.2,0.3-0.6,0.3-0.6
	S432.2,266.6,432.1,266.8z M428.9,268.9c-0.2-0.1-0.6-0.2-0.6-0.2S428.7,268.8,428.9,268.9z M431.7,271.5c-0.2-0.3-0.5-0.8-0.5-0.8
	S431.6,271.3,431.7,271.5z M442.1,265.7c-0.1,0.2-0.2,0.7-0.2,0.7S442,266,442.1,265.7z M441.9,270.8c-0.1,0-0.4-0.1-0.4-0.1
	S441.8,270.8,441.9,270.8z M435.2,274.4c0.2,0,0.5,0,0.5,0S435.3,274.4,435.2,274.4z M434.5,278.6c0-0.2,0-0.5,0-0.5
	S434.5,278.4,434.5,278.6z M424.8,277.3c0.4-0.1,1.3-0.4,1.3-0.4S425.2,277.1,424.8,277.3z M421.7,274.1c0,0.1,0,0.4,0,0.4
	S421.7,274.2,421.7,274.1z M419.4,265.2c-0.2,0.1-0.6,0.4-0.6,0.4S419.2,265.3,419.4,265.2z M421.3,262.8c-0.2,0.2-0.5,0.5-0.5,0.5
	S421.1,263,421.3,262.8z M435.4,264.6c0.2-0.5,0.2-1.2,0.7-1.6c0.3-0.2,0.1,0.8-0.1,1.2C435.9,264.4,435.6,264.4,435.4,264.6z
	 M428,264.6c-0.3-0.8-1.6-1.7-1-2.3c0.4-0.4,1.2,0.2,1.7,0c0.4-0.2,0.5-0.8,0.8-1.1c0.7-0.5,1.9,0.1,2.7-0.3
	c0.3-0.2,0.2-0.7,0.4-0.9c0.2-0.2,1.1-0.1,1.3-0.2c0.7-0.2,1.4-1.5,2.3-0.7c0.4,0.3-0.9,0.6-1.2,0.9c-0.4,0.5-2.5,3-2.3,3.2
	c0.8,0.7,1.9-2.6,2.7-1.9c0.4,0.4,0.2,1.1,0.1,1.7c0,0.1-0.2,0.2-0.3,0.2c-0.6,0.3-3.4-0.9-4.4-0.2c-0.4,0.3-0.5,1-0.9,1.3
	C429.4,264.5,428.6,264.4,428,264.6L428,264.6z"/>
<path id="as" style="fill:#D33512;fill-opacity:0.9843;stroke:#000000;stroke-width:0.8736;stroke-miterlimit:9.9048;" d="
	M491.8,248c-0.2-0.1-0.5-0.2-0.5-0.2S491.6,248,491.8,248z"/>
<path id="ws" style="fill:#E6E6E6;stroke:#000000;stroke-width:0.8736;stroke-miterlimit:9.9048;" d="M485.8,246.1
	c-0.6-0.4-1.8-1.3-1.8-1.3S485.2,245.6,485.8,246.1z M481.1,244.5c-0.4-0.6-1.3-1.9-1.3-1.9S480.7,243.9,481.1,244.5z"/>
<path id="wf" style="fill:#B7673C;stroke:#000000;stroke-width:0.8736;stroke-miterlimit:9.9048;" d="M447.1,247.6
	c0.2,0,0.6,0.1,0.6,0.1S447.3,247.7,447.1,247.6z"/>
<path id="to" style="fill:#FFFB9C;stroke:#000000;stroke-width:0.8736;stroke-miterlimit:9.9048;" d="M466.5,293.1
	c-0.1-0.1-0.3-0.3-0.3-0.3S466.4,293,466.5,293.1z M471.8,275.2c0.3-0.1,0.9-0.2,0.9-0.2S472.1,275.1,471.8,275.2z M465.6,282.3
	c0-0.1,0-0.4,0-0.4S465.6,282.2,465.6,282.3z M465.2,292c0-0.1,0.2-0.2,0.2-0.1C465.4,291.9,465.3,292,465.2,292z M470.3,282
	c0.1-0.1,0.3-0.3,0.3-0.3S470.4,281.9,470.3,282z"/>
<path id="tv" style="fill:#008000;stroke:#000000;stroke-width:0.8736;stroke-miterlimit:9.9048;" d="M419.3,197.2
	c0-0.1,0.2-0.2,0.2-0.1C419.5,197.2,419.4,197.2,419.3,197.2z M418.5,203.8c0-0.1,0.2-0.2,0.2-0.1
	C418.7,203.8,418.6,203.8,418.5,203.8z M427.9,205.6c0-0.1,0.2-0.2,0.2-0.1C428.1,205.6,428,205.6,427.9,205.6z M425.9,209.1
	c0.2-0.3,0.2-0.1,0.2-0.1C426.1,209.1,426,209.1,425.9,209.1z M431,211.6c0,0.2-0.1,0.5-0.1,0.5S431,211.8,431,211.6z"/>
<path id="ki" style="fill:#008000;stroke:#000000;stroke-width:0.8736;stroke-miterlimit:9.9048;" d="M573.8,149.9
	c-1.9,0-5.4-2.9-1-1.3C573.3,148.8,573.5,149.4,573.8,149.9z M411.4,175.4c0-0.1,0-0.2,0.1-0.2c0,0,0.1,0.1,0.1,0.1
	C411.6,175.3,411.5,175.3,411.4,175.4L411.4,175.4z M409,171.3c0.1,0.1,0.3,0.3,0.3,0.3S409.1,171.4,409,171.3z M411.5,168
	c0.1,0.2,0.4,0.6,0.4,0.6S411.6,168.2,411.5,168z M405.9,168.9c-0.1,0.2-0.3,0.7-0.3,0.7S405.8,169.2,405.9,168.9z M404,167.2
	c0.1,0.2,0.2,0.7,0.2,0.7S404.1,167.4,404,167.2z M401.8,163.9c0-0.1,0-0.2,0.1-0.2c0,0,0.1,0.1,0.1,0.1
	C402,163.9,401.9,163.9,401.8,163.9z M397.3,159.2c0-0.1,0-0.2,0.1-0.2c0,0,0.1,0.1,0.1,0.1C397.4,159.1,397.3,159.1,397.3,159.2
	L397.3,159.2z M393.6,154.1c0,0.4-0.1,1.1-0.1,1.1S393.5,154.5,393.6,154.1z M393.4,150.1c0-0.1,0-0.2,0.1-0.2c0,0,0.1,0.1,0.1,0.1
	C393.6,150,393.5,150,393.4,150.1L393.4,150.1z M392.1,142.1c0.2-0.1,0.7-0.4,0.7-0.4S392.4,142,392.1,142.1z M488.8,187.2
	c0-0.1,0.2-0.2,0.2-0.1C488.9,187.2,488.8,187.2,488.8,187.2z M482.9,187.6c0-0.1,0-0.2,0.1-0.2c0,0,0.1,0.1,0.1,0.1
	C483.1,187.6,483,187.6,482.9,187.6z M489.8,179.2c0-0.1,0.2-0.2,0.2-0.1C489.9,179.2,489.8,179.2,489.8,179.2z M561.2,137.3
	c-0.3-0.2-0.9-0.6-0.9-0.6S560.9,137.1,561.2,137.3z"/>
<polygon id="pw-border" style="fill:none;stroke:#000000;stroke-width:0.4368;stroke-miterlimit:14.1732;stroke-dasharray:2.184,1.3099,0.4358,1.3099;" points="
	172,95.5 128.6,95.4 128.5,146.5 172,146.6 172,96 "/>
<path id="pw" style="fill:#FFFB9C;stroke:#000000;stroke-width:0.8736;stroke-miterlimit:9.9048;" d="M161.7,113.5
	c-0.1,0.7-0.3,2.1-0.3,2.1S161.6,114.2,161.7,113.5z"/>
<path id="fm" style="fill:#008000;stroke:#000000;stroke-width:0.8736;stroke-miterlimit:9.9048;" d="M332.6,128.3
	c0.2-0.2,0.6-0.6,0.6-0.6S332.8,128.1,332.6,128.3z M303.8,118.9c0-0.1-0.1-0.4-0.1-0.4S303.7,118.7,303.8,118.9z"/>
<path id="mh" style="fill:#E6E6E6;stroke:#000000;stroke-width:0.8736;stroke-miterlimit:9.9048;" d="M381.8,117
	c0.4,0.1,0.7,0.4,1.1,0.4c0.3,0,0.6-0.1,0.9-0.2 M368,132.2c-0.2,0.1-0.5,0.4-0.5,0.4S367.8,132.4,368,132.2z M373.8,123.9
	c-0.3,0.4-0.9,1.3-0.9,1.3S373.5,124.4,373.8,123.9z M387.7,123.6c-0.2,0-0.5-0.1-0.5-0.1S387.5,123.6,387.7,123.6z M385,117.6
	c0.3,0.1,1,0.4,1,0.4S385.3,117.8,385,117.6z M386.9,117.1c0-0.1,0-0.2,0.1-0.2c0,0,0.1,0.1,0.1,0.1
	C387.1,117.1,387,117.1,386.9,117.1L386.9,117.1z M367.5,115.8c0.2,0.1,0.5,0.3,0.5,0.3S367.6,115.9,367.5,115.8z M368.9,114.3
	c0-0.1,0.2-0.2,0.2-0.1C369,114.2,368.9,114.2,368.9,114.3z M380.4,106.3c0-0.1,0.2-0.2,0.2-0.1
	C380.5,106.3,380.4,106.3,380.4,106.3z M360.2,103.3c0,0.1,0.1,0.4,0.1,0.4S360.2,103.4,360.2,103.3z"/>
<path id="us" style="fill:#B3B3B3;fill-opacity:0.9843;stroke:#000000;stroke-width:0.8736;stroke-miterlimit:9.9048;" d="
	M582.1,35.1c1.1,0.7,3.9,1.2,4.4,2.5c0.1,0.3-0.1,0.7,0.1,1c0.4,0.5,1.2,0.7,1.6,1.3c0.8,1-2.7,1.6-3,1.7c-1.2,0.6-2.4,3.9-3.6,1.2
	c-0.3-0.6,0.2-1.2,0.1-1.8c-0.1-0.8-1.3-1.6-1-2.4c0.3-0.7,1.1-1,1.4-1.7C582.3,36.3,582.1,35.7,582.1,35.1z M579.3,30.8
	c0.5,0.5,1.6,1.4,1.6,1.4S579.9,31.3,579.3,30.8z M575.4,31c0.1-0.2,0.2-0.1,0.2-0.1C575.6,31,575.5,31,575.4,31z M573.9,29.1
	c0.4,0,3.3-0.2,2.4,0.8c-0.1,0.1-3.2,0-3.2,0C572.8,29.6,573.6,29.3,573.9,29.1z M569.1,25.8c0.9,0.6,2.5,1.9,1.8,2.7
	c-0.4,0.5-1.2-0.7-1.9-0.8c-0.3,0-0.4,0.8-0.7,0.6C565.6,26.6,567.9,26.3,569.1,25.8z M560.9,22.7c-0.3,0.7-0.8,2.1-0.8,2.1
	S560.6,23.4,560.9,22.7z M556.5,23.8c0,0.2-0.1,0.7-0.1,0.7S556.4,24,556.5,23.8z"/>
<path id="ck" style="fill:#E6E6E6;stroke:#000000;stroke-width:0.874;stroke-miterlimit:9.9048;" d="M557.8,291.7
	c0.2,0,0.6,0.1,0.6,0.1S558,291.7,557.8,291.7z"/>
<path id="pf" style="fill:#E6E6E6;fill-opacity:0.9843;stroke:#000000;stroke-width:0.874;stroke-miterlimit:9.9048;" d="M631.2,309
	c0-0.1,0-0.2,0.1-0.2c0,0,0.1,0.1,0.1,0.1C631.4,309,631.3,309,631.2,309L631.2,309z M685.9,223.8c-0.1,0.2-0.2,0.6-0.2,0.6
	S685.9,224,685.9,223.8z M691.9,223.9c0-0.1,0-0.2,0.1-0.2c0,0,0.1,0.1,0.1,0.1C692.1,223.9,692,223.9,691.9,223.9z M689.9,219.5
	c0-0.1,0.2-0.2,0.2-0.1C690,219.5,689.9,219.5,689.9,219.5z M689.3,220.5c0-0.1,0-0.2,0.1-0.2c0,0,0.1,0.1,0.1,0.1
	C689.4,220.5,689.3,220.5,689.3,220.5z M686.6,214.4c0-0.1,0.2-0.2,0.2-0.1C686.8,214.3,686.7,214.4,686.6,214.4z M683.4,213.9
	c0.2-0.3,0.2-0.1,0.2-0.1C683.6,213.8,683.5,213.8,683.4,213.9z M683.2,217c0-0.1,0.2-0.2,0.2-0.1C683.4,217,683.3,217,683.2,217z
	 M683.9,219.3c0.3,0.1,0.9,0.2,0.9,0.2S684.2,219.4,683.9,219.3z M680.6,214.2c-0.2,0.1-0.6,0.4-0.6,0.4S680.4,214.3,680.6,214.2z
	 M677.5,213.7c-0.4,0.3-1.1,0.8-1.1,0.8S677.1,213.9,677.5,213.7z M677.3,216.9c0,0.2-0.1,0.7-0.1,0.7S677.2,217.2,677.3,216.9z
	 M679.7,208.8c0-0.1,0.2-0.2,0.2-0.1C679.9,208.7,679.8,208.7,679.7,208.8z M673.8,208.6c-0.1,0.2-0.3,0.5-0.3,0.5
	S673.6,208.7,673.8,208.6z M639.9,248.9c0-0.1-0.1-0.4-0.1-0.4S639.9,248.7,639.9,248.9z M641.9,247.9c0.6,0.1,0.6,0.3,0,0.5
	c-0.1,0.1-0.4,0.2-0.4,0.1C641.5,248.3,641.8,248.1,641.9,247.9z M646.4,249.6c0,0.1,0,0.3-0.1,0.3
	C646,249.9,645.9,249.3,646.4,249.6z M644.9,254.9c-0.3-0.1-0.8-0.2-0.8-0.2S644.7,254.8,644.9,254.9z M641.7,257.2
	c0.1,0.1,0.3,0.3,0.3,0.3S641.8,257.3,641.7,257.2z M647.2,257.6c-0.2-0.3-0.7-0.8-0.7-0.8S646.9,257.4,647.2,257.6z M649.7,256.7
	c0-0.1,0.2-0.2,0.2-0.1C649.8,256.7,649.7,256.7,649.7,256.7z M643.7,258.8c0.3,0.6,0.8,1.7,0.8,1.7S644,259.4,643.7,258.8z
	 M651.3,260.4c-0.1,0-0.4-0.1-0.4-0.1S651.1,260.3,651.3,260.4z M654.6,261.7c-0.2-0.2-0.7-0.6-0.7-0.6S654.4,261.5,654.6,261.7z
	 M644,267c-0.1-0.1-0.2-0.4-0.2-0.4S644,266.9,644,267z M645.1,267.6c-0.1-0.1-0.3-0.4-0.3-0.4S645,267.5,645.1,267.6z M677.1,258.2
	c-0.1,0-0.4,0-0.4,0S676.9,258.2,677.1,258.2z M672.7,269.7c0.2-0.4,1.3-1.2,1-0.8C673.5,269.2,672.6,270.1,672.7,269.7z
	 M672.7,272.3c-0.2-0.2-0.6-0.7-0.6-0.7S672.5,272,672.7,272.3z M673.6,273.6c-0.2-0.2-0.7-0.5-0.7-0.5S673.4,273.4,673.6,273.6z
	 M699.9,274.5c-0.3-0.2-0.9-0.5-0.9-0.5S699.6,274.3,699.9,274.5z M696,273.1c-0.2-0.2-0.6-0.5-0.6-0.5S695.8,273,696,273.1z
	 M686.5,289.4c-0.1-0.2-0.2-0.6-0.2-0.6S686.5,289.2,686.5,289.4z M684.1,295.8c0.2-0.1,0.8-0.1,0.6,0
	C684.5,295.9,684.3,295.8,684.1,295.8z M705.2,293.6c-0.1-0.1-0.4-0.3-0.4-0.3S705.1,293.5,705.2,293.6z M629.1,252
	c-0.3-0.2-0.8-0.5-0.8-0.5S628.8,251.8,629.1,252z M625.5,251.4c-0.5-0.6,0-0.2,0-0.2C625.5,251.2,625.5,251.3,625.5,251.4z
	 M633.3,253.5c-0.1-0.1-0.1-0.1-0.2-0.2C632.8,252.9,632.2,252.2,633.3,253.5z M609,300c0-0.1,0.1-0.4,0.1-0.4S609,299.9,609,300z
	 M621.8,270.1c-0.7-0.3-2-0.8-2-0.8S621.1,269.8,621.8,270.1z M618.1,268.2c-0.2-0.2-0.5-0.5-0.5-0.5S618,268,618.1,268.2z
	 M608.5,263.9c0-0.4-0.1-1.1-0.1-1.1S608.4,263.6,608.5,263.9z M608.3,262.6c0-0.1,0.2-0.2,0.2-0.1S608.3,262.5,608.3,262.6z
	 M603.7,261.1c-0.1,0-0.4,0.1-0.4,0.1S603.6,261.1,603.7,261.1z"/>
<path id="pn" style="fill:#FFFB9C;stroke:#000000;stroke-width:0.8736;stroke-miterlimit:9.9048;" d="M769.7,314.2
	c0-0.1,0-0.2,0.1-0.2c0,0,0.1,0.1,0.1,0.1C769.8,314.2,769.7,314.2,769.7,314.2L769.7,314.2z"/>
<path id="nu" style="fill:#E6E6E6;stroke:#000000;stroke-width:0.8736;stroke-miterlimit:9.9048;" d="M496.7,277.9
	c0.1-0.3,0.3-0.9,0.3-0.9S496.8,277.6,496.7,277.9z"/>
<polygon id="to-border" style="fill:none;stroke:#000000;stroke-width:0.4368;stroke-miterlimit:14.1732;stroke-dasharray:2.184,1.3099,0.4358,1.3099;" points="
	492.9,261.1 489.1,261.1 489.2,250.2 458.2,250.3 458.1,305.8 492.9,305.8 "/>
<rect id="nu-border" x="492.9" y="261.1" style="fill:none;stroke:#000000;stroke-width:0.25;stroke-miterlimit:4.1732;stroke-dasharray:0.6164,0.3697,0.123,0.3697;" width="24" height="36"/>
<rect id="ck-border" x="517.5" y="208.5" style="fill:none;stroke:#000000;stroke-width:0.25;stroke-miterlimit:4.1732;stroke-dasharray:0.6164,0.3697,0.123,0.3697;" width="66.8" height="97.8"/>
</svg>
