<?xml version="1.0" encoding="utf-8"?>
<!-- Generator: Adobe Illustrator 27.0.1, SVG Export Plug-In . SVG Version: 6.00 Build 0)  -->
<svg version="1.1"
	 id="Layer_1" xmlns:cc="http://creativecommons.org/ns#" xmlns:sodipodi="http://sodipodi.sourceforge.net/DTD/sodipodi-0.dtd" xmlns:dc="http://purl.org/dc/elements/1.1/" xmlns:rdf="http://www.w3.org/1999/02/22-rdf-syntax-ns#" xmlns:svg="http://www.w3.org/2000/svg" xmlns:inkscape="http://www.inkscape.org/namespaces/inkscape"
	 xmlns="http://www.w3.org/2000/svg" xmlns:xlink="http://www.w3.org/1999/xlink" x="0px" y="0px" viewBox="0 0 356.8 321.1"
	 style="enable-background:new 0 0 356.8 321.1;" xml:space="preserve">
<style type="text/css">
	.st0{fill:#CCCCCC;stroke:#000000;stroke-linecap:round;}
</style>
<sodipodi:namedview  bordercolor="#666666" borderopacity="1" gridtolerance="10" guidetolerance="10" id="namedview123" inkscape:current-layer="Layer_1" inkscape:cx="600" inkscape:cy="615" inkscape:pageopacity="0" inkscape:pageshadow="2" inkscape:window-height="716" inkscape:window-maximized="1" inkscape:window-width="1366" inkscape:window-x="-8" inkscape:window-y="-8" inkscape:zoom="0.40406504" objecttolerance="10" pagecolor="#ffffff" showgrid="false">
	</sodipodi:namedview>
<g id="g3248">
	<path id="Botsuana" inkscape:connector-curvature="0" class="st0" d="M228.5,26.1l-10.6,6c-10.5,0.1-11.1,6.2-15.1,9.6l-3-8.3
		l-39.7,3.5l-2.3,61.5L141.6,98l-1.1,44.4c4.4,5.5,10.4,11.4,13.5,15.4c2.9,3.9,1.1,11.4-1.8,18.5c7.9,3.3,15.5,3.5,23.1,1.5
		c1.1-3,2.7-5.1,4.7-6.3c3.3-1.9,6-4.3,7-8.2l9.9-8.3c6.1,0.5,10.8,3,15.6,6.4c10.1,0.1,16.1-1.7,20.3-3.8l2-9.3l58.1-46.4
		c-7.3-5.3-11-4.1-15.1-5.1c-4.2-1-9.4-8.5-8-21.3c-4-0.8-6.6-3-8.8-5.6c-2.5-4.2-5.8-3.8-8.8-5.6c-4.6-6.3-12.9-14.5-13.6-19.3
		c-0.3-2.4-1.6-2.2-3.3-4.9C233.1,36.9,230.4,29.9,228.5,26.1L228.5,26.1z"/>
	<path id="Namibia" inkscape:connector-curvature="0" class="st0" d="M7.8,18.5c0.7,9.3,1.6,18.6,10.1,25.2l35.3,62.9l0.9,28.8
		l6.3,13.3c0.4,5.2-1.6,10.4,1.6,15.6l4.4,24.6l19.2,21.3c11.9-12.8,16.2-2.5,19.2,5.7c7.3-0.7,14.6-1.4,21.9-0.1
		c3.4-3.1,6.9-6.1,12.3-8.4l2.8-109.6l16.2,0.5l2.3-61.7l39.6-3.5l3,8.3c2.8-3.1,6.7-8.9,12.6-9.2c5.3-0.2,7.8-3.6,13-6.4l-3.8-5.5
		l-25.5,4.2l-28.5,6.6l-46-6.1l-7.7-6.5l-72.5,0.8c-3.5-4.6-16.6-15-26.1-2.7C15.2,12.9,11.3,17.7,7.8,18.5L7.8,18.5z"/>
	<path id="Suedafrika" inkscape:connector-curvature="0" class="st0" d="M85.6,210.2l26.8,54l0.4,12.3c-1.4,3-3.6,3.1-6.1,2.6
		c-1,1.4-2,3.3,0.3,4.6c3.3,5.9,5.7,13.1,10,18.1c3.5,4.2,8.6,6.3,12.7,9.9l10.7,0.9c2.2-1.5,0.2-3.6,8.2-4.4l15.6-0.1
		c4.9-1.9-0.6-6.8,15.5-5.6c2.6,0.3,3.8,3.2,7.9,1c7.5-1.2,14.6,1.6,21.9,2.7c2.2-1.7,1.4-4.7,13.5-2.3l1.2-4.7l14.2,0.2l84.1-78.2
		c13.3-5.5,16.3-21.7,20-37l-10.6-0.7c-0.1-1.3-10.1,5.9-11.4,6c-5.4,0.6-8.6-1.1-7.8-10.6c0.6-7.1,8.2-12.7,10.2-14
		c2.7-1.7,5.3,4.8,8,3.1c0,0-0.9-30.1-2.1-55.3c-5.7-3.4-9.7-9.4-19.8-6c-5.3-4-10.6-3.6-15.9-4.8l-58.2,46.2l-2.1,9.6
		c-6.6,3.5-13.2,3-19.8,3.7c-5-3.8-10.4-6.1-16.3-6.4l-9.7,8.5c-0.9,4.7-3.6,5.1-5.7,7.1c-3.3,1.9-5,4.4-5.7,7.1
		c-9.8,2.4-16.6,0.8-23-1.4c1.2-5.7,4.9-9.4,1.8-18.7l-13.5-15.1l-1.8,65c-4.1,1.8-8.2,4.5-12.3,8.4c-6.8-0.6-12.5-1.5-22,0.2
		C103.2,208.9,96.6,197.1,85.6,210.2z"/>
	<path id="Swasiland" inkscape:connector-curvature="0" class="st0" d="M330.9,168.6l0.8,14.7c-4.4,2.2-7.7,4.4-11.4,6.6
		c-4.1-0.1-6.7-1.2-7.4-4.5c-1-5.2-0.4-8.8,2.5-13.2c2.1-3.2,5.9-7.2,8.5-7.7c1.3-0.2,3.3,1.8,4.4,3.4L330.9,168.6L330.9,168.6z"/>
	<path id="Lesotho" inkscape:connector-curvature="0" class="st0" d="M276.7,238.5c-1.2,0.1-3.3,0.5-4.8,1.1
		c-1.1,0.4-2.1,0.9-2.9,1.7c-0.7,0.7-0.9,1.7-1.1,2.5c-0.2,0.9-2.1,2.1-2.8,2.3c-1,0.3-2.4,0-3.5,0c-2.1,0-3.2-0.5-4.4-2.1
		c-1.5-2-3.5-3.6-4.8-5.9c-1-1.6-1.8-2.6-2.4-4.3c-0.4-1.3-0.3-2.7-0.3-4c0-1.7,0.8-3.3,2.3-4c0.2-0.1,0.4-0.2,0.5-0.3
		c1.8-0.9,2.2-2.9,3.5-4.2c1.4-1.4,3.3-2.7,4.8-4c1-0.8,2.4-1.6,3.5-2.1c1.7-0.8,3.3-1.3,5.1-1.7c1.3-0.3,2.9-0.8,4-1.1
		c0.2-0.1,0.4-0.1,0.7-0.1s0.4-0.1,0.7-0.1c1.6-0.3,3.6,0.5,4.4,1.6c1.2,1.6,2.6,3.1,3.8,4.6c0.6,0.8,0.6,2.7,1.1,3.8
		c0.7,1.5,1.6,2.6,2.1,4.2c0.5,1.6-0.2,3.3-0.9,4.7c-0.8,1.7-2,2.6-3.2,3.9c-1,1-2.1,1.9-3.2,2.7
		C278.1,237.9,277.3,238.1,276.7,238.5z"/>
</g>
</svg>
