<?xml version="1.0" encoding="utf-8"?>
<!-- Generator: Adobe Illustrator 27.0.1, SVG Export Plug-In . SVG Version: 6.00 Build 0)  -->
<svg version="1.1"
	 id="svg3157" xmlns:svg="http://www.w3.org/2000/svg" xmlns:dc="http://purl.org/dc/elements/1.1/" xmlns:sodipodi="http://sodipodi.sourceforge.net/DTD/sodipodi-0.dtd" xmlns:inkscape="http://www.inkscape.org/namespaces/inkscape" xmlns:rdf="http://www.w3.org/1999/02/22-rdf-syntax-ns#" xmlns:cc="http://creativecommons.org/ns#"
	 xmlns="http://www.w3.org/2000/svg" xmlns:xlink="http://www.w3.org/1999/xlink" x="0px" y="0px" viewBox="0 0 531.1 157"
	 style="enable-background:new 0 0 531.1 157;" xml:space="preserve">
<style type="text/css">
	.st0{fill:#C0C0C0;stroke:#FFFFFF;stroke-width:0.4032;stroke-miterlimit:4.0329;}
	.st1{fill:#C0C0C0;stroke:#FFFFFF;stroke-width:0.4032;stroke-miterlimit:4.0246;}
	.st2{fill:#C0C0C0;stroke:#FFFFFF;stroke-width:0.4024;stroke-miterlimit:4.0329;}
	.st3{fill:#C0C0C0;stroke:#FFFFFF;stroke-width:0.1008;stroke-miterlimit:4.0329;}
	.st4{fill:#C0C0C0;stroke:#FFFFFF;stroke-width:0.4034;stroke-miterlimit:4.0329;stroke-dasharray:0.4034,0.4034;}
</style>
<sodipodi:namedview  bordercolor="#666666" borderopacity="1" gridtolerance="10" guidetolerance="10" id="namedview3085" inkscape:current-layer="layer1" inkscape:cx="538.32993" inkscape:cy="212.63315" inkscape:pageopacity="0" inkscape:pageshadow="2" inkscape:window-height="706" inkscape:window-maximized="1" inkscape:window-width="1366" inkscape:window-x="-8" inkscape:window-y="-8" inkscape:zoom="11.313709" objecttolerance="10" pagecolor="#ffffff" showgrid="false">
	</sodipodi:namedview>
<g id="layer1" transform="matrix(1.0020524,0,0,1.0020524,0.25102907,-0.17691186)">
	<g id="g3905">
		<path id="tr" class="st0" d="M502.7,64.6c0.2-0.2,0.5-0.5,0.7-0.8c0.4-0.4,0.8-0.6,0.9-1c0.2-0.5,0.1-2.9,0.7-3
			c0.7-0.2,1.3,0.3,1.9,0s0.8-1.3,1.4-1.6c1.4-0.8,6.1,0.2,7.4-1.5c1.4-1.8-0.8-1.4,1.4-2.1c2.8-0.8,1.2,2.1,2.8,3.2
			c0.7,0.4,1.4-3.3,2.3-4c0.5-0.3,1.9-0.1,1.6-0.6c-2.1-3.2-0.5-0.3-3.1-2.1c-1.4-0.9-1.1-3-1.2-3.3c-0.2-0.3-2.9-0.7-3.2-0.7
			c-0.4,0-1.1,0.8-1.2,0.4c-0.3-1.2,0.1-3.1,0.2-4.4c0-0.5,0.2-1,0.1-1.5c-0.8-2.3-1.4,1-2.3-0.5c0-0.2-2.3-4.8-2.3-4.8
			c-1.1-0.5-0.5,1.6-1.7-1c-0.2-0.5,0-1.2-0.2-1.7c-0.5-0.9-2.3-1-2.8-2.1c-0.6-0.9,2.8-0.7,3-2.3c0.2-2.4-3.6-5.5,2.1-4.1l0.2-0.2
			c-1.1-0.6-2.9-1.3-3.8-1.6c-3.4-1.1-4.6,1.5-8.4,1.6c-0.3,0,0.5-0.7,0.3-0.8c-0.4-0.7-1.2-0.8-1.8-1.4c-1-1.1-0.2-3.3-0.5-4.6
			c-0.6-2.4-3.5-2.3-4.2-2.9c-0.3-0.3-0.2-0.8-0.5-1.1c-0.3-0.3-0.7-0.4-0.9-0.3c-0.5,0.2-0.8,0.8-1.2,0.8c-0.3,0-0.3-0.6-0.6-0.7
			c-0.3,0-0.6,0.7-0.7,0.4c-0.2-0.3,0.4-0.6,0.4-0.9c0.1-0.7-1.3-0.3-2-0.5c-0.6-0.1-1-0.5-1.6-0.5c-0.2,0,0,0.5-0.1,0.6
			c-1.6,0.4-0.3-0.9-0.8-1.3c-0.3-0.2-0.6,0.3-0.8,0.5c-0.4,0.2-1,0.2-1.2,0.6c-0.3,0.6,0.3,1.3,0,1.9c-0.3,0.4-0.8,0.3-1.2,0.4
			c-1.2,0.4-2.7,0.3-3.8,1.1c-0.4,0.3-0.1,1-0.6,1.4c-0.4,0.3-0.9,0.1-1.4,0.1s-0.9,0.1-1.5,0.1h-0.2c-0.6,2.3-1.2,4-3.2,5.9
			c-0.3,0.3-0.8,0.2-0.9,0.5c-1.2,1.4-2.6,5.1-4.5,5.9c-0.5,0.2-1.1-0.4-1.6-0.3c-0.4,0.1-0.5,0.8-0.8,0.8s-0.8-0.2-1.1-0.2
			c-0.4,0.1-0.7,0.6-1.1,0.5c-0.1,0-1.9-0.9-2.4-0.5s-0.5,1-0.8,1.3c-0.4,0.2-0.8-0.2-1.2,0c-0.4,0.3-0.4,0.8-0.8,1
			c-0.6,0.5-1.4,0.6-2,1c-0.9,0.8-1,1.5-2.1,2.3c-1.2,0.9-4.2,1.4-5.6,1.4c-3.4,0,0.4-0.4-1.6-1.1c-1.1-0.4-1.4,1.7-1.8,1.9
			c-0.7,0.3-1.5-0.1-2.3-0.2c-0.1-0.1-0.1-0.4-0.3-0.4c-0.8,0.1-1.4,0.8-2.3,0.7c-0.3,0-0.2-0.8-0.5-0.9c-0.5-0.3-1.1-0.6-1.8-0.6
			c-3.7,0.1-1.9,3.8-5.5,2.2c-1.1-0.6-1.7-3.5-2.9-3.3c-0.5,0-0.5,1.1-0.9,0.9c-0.4-0.1,0.4-1.2-0.1-1.2c-0.9,0.1-2.4,3.6-5.7,2.3
			c-3.5-1.3-1.5-3.1-1.7-3.3c-0.5-0.6-1.3-0.2-2-0.2c-0.3,0-0.6-0.2-0.7,0c-0.3,0.5-0.1,1.2-0.5,1.7c-1,1.9-10.8,3.2-13.2,4.2
			c-1.1,0.4-2.1,1.9-2.9,2.6c-0.8,0.8-2.1,1-2.9,1.6c-2.3,1.9-3.9,4.8-6.1,7.1c-0.6,0.7-1.5,1.7-2.2,2.2c-0.1,0.1-0.6,0-0.6,0.2
			c-0.4,1.9,1,1.9-0.8,3.2c-0.2,0.2-0.7,0-0.9,0.1c-2.3,0.8-0.5,1.1-3.4,1.2c-1,0-3.7-0.8-4.6-0.4c-0.3,0.1-0.2,0.6-0.5,0.8
			c-1,0.9-2.9,1.3-4.2,1.4c-1.6,0.2-5.4,0.9-5.5,1.1c-0.4,0.8-0.6,1.8-0.8,2.7c-0.3,1.2,2,1.7,2.3,1.8c0.2,0,0.5,0,0.6,0.2
			c0.1,0.3-0.4,0.7-0.2,0.8c0.3,0.1,0.5-0.5,0.8-0.5c0.2,0.1,0.1,0.6,0.3,0.6c1.8,0.2,3.4-1.6,5.3-1.4c1.6,0.1-2.8,1.9-3.2,2
			c-0.3,0-0.3-0.7-0.5-0.6s-4.6,1.9-5.9,3.3c-1.3,1.8,4.4-0.9,2.6,1.8c-0.4,0.5-4,0.7-5.3,0.9c-2.5,0.4-4.8,1.6-4.9,1.5
			c-0.4-0.5,1.3-1,0.8-1.3c-0.6-0.5-0.8-0.4-1.6-0.3c-0.1,0.1-1,0.2-1.1,0.2c-0.2,0-0.9,0.5-0.8,0.6c0.4,1,1.8,0.6,1.7,1.2
			c-0.3,0.9-1.2,0.6-2.1,0.9c-2.9,0.6-2.3-0.8-2.8-0.9c-1.2-0.2-1.9,0.9-2.8,1.1c-0.4,0.1-1.9,0-2.4,0.7s-0.7,1.7-1.2,2.3
			c-0.3,0.3-0.8,0.1-0.9,0.4c-0.2,0.4,0.1,0.8,0.1,1c-0.1,0.5-0.1,1-0.4,1.4c-0.6,0.6-1.6,0.1-1.6,1.1c0.1,1.5,0.8,2.3,0.8,3.4
			c0.1,0.4-1.1,2.5,0.3,2.7c0.2,0,6-2.8,6.7-3c0.2-0.1,0.6-0.3,0.5-0.1c-0.3,1-1.1,3-1.8,3.9c-0.1,0.2-0.9-0.1-0.4,0.3
			c0.6,0.5,2.7,0.5,3,1.9c0,0.5-0.9,1.1-0.6,1.6c0.3,0.2,3.2-0.8,2.7,0.4c-0.5,1.4-3.3,2.5-2.7,3.4c0.6,0.9,2.2,2.2,2.3,2
			c0.4-0.3,0.8-0.5,1.2-0.6s1.2-0.4,1.2,0c-0.1,0.2-2.9,2-3.3,2c-0.5,0.1-0.8-1-1.1-0.8c-0.5,0.4,0.7,1.8,0.2,1.6
			c-0.2,0-1.8-3.6-2.3-3.8c-0.3-0.2-0.9-0.3-1.1,0.1c-0.3,0.6,0.2,1.3,0.3,2c0,0.3-0.3,0.6-0.1,0.7c0.5,0.2,1.5-0.3,1.4,0.1
			c-0.2,0.8-1,1.1-1.7,1.5c-0.2,0-0.4-0.6-0.5-0.4s0.4,0.4,0.3,0.6c0,0.3-0.8,0.6-0.5,0.8c0.6,0.4,1.3,0,2,0.2c0.2,0,1.7,1.2,1.9,1
			c0.6-0.5,0.7-1.4,1.3-1.8c0.8-0.4,0.7,1.7,1.4,2c0.4,0.1,0.7-0.7,1-0.7c0.5,0,3,0.8,3,0.8c0.1,0.2,0.7,2.4,0.3,2.9
			c-0.6,0.6-2.8,1-2.1,1.3c0.8,0.2,1.6-0.1,2.3,0.3c0.8,0.6-0.6,2.7,0.4,2.8c0.8,0.1,1.2-1.3,2-1.3c0.8,0.1,1,1.1,1.7,1.5
			c0.2,0.1,0.6-0.4,0.6-0.2c1.4,4.6-6.7-0.2-3.1,3.8c0.5,0.5,1.2-0.5,1.8-0.5c0.9,0,0.6,1,1.6,0.5c0.2-0.1-0.2-0.4-0.1-0.4
			c0.7-0.4,1.4,0,2.1-0.3c0.8-0.4,2.5-1.2,3-1.4c0.8-0.3,1.8-1.2,2.3-0.6c1.8,2.3-2.7,1.4-2.7,2.2c0,0.6,0.9,1.1,0.6,1.5
			c-0.6,0.6-1.5,0-2.3,0.2c-1.5,0.4-2.8,1.6-4,2.4c-0.5,0.4,1.2-0.2,1.8-0.3c0.5,0,0.9,0.4,1.2,0.2c0.4-0.3-0.1-1,0.3-1.3
			c0.6-0.4,1.3-0.2,2-0.3c2-0.6,1.7-1.5,1.8-1.3c1.2,2.7-0.1,1.9-0.9,2.7c-0.2,0.2,0.6,0.5,0.8,0.3c0.2-0.3,2.9-3.4,2.9-3.5
			c0.3-0.5,0-1.2,0.4-1.4c2.4-1.1,1.3,1.3,2,1.9c0.6,0.4,1.5,0.2,2.2,0.5c0.2,0,0.2,0.5,0.3,0.4c0.9-0.8-0.8-2.1,0.5-2.3
			c2.6-0.5,2.4,3.8,2.6,3.9c2,1.4,3.5,0.7,5.5,0.8c0.3,0,0.4,0.8,0.8,0.8c0.8-0.1,3.9-3.1,4.1-3.2c0.5-0.6,1.9-0.8,2.4-0.5
			c0.2,0.1,0,0.9,0.2,0.8c0.5-0.5,0.8-1.2,0.8-1.9c0-0.4-0.7-0.4-0.7-0.7c-0.1-0.6,0.4-1.1,0.6-1.7c0.4-1.1-1.5-2.6-0.5-4
			c0.4-0.5,4.9-1.3,5.6-1.4c0.3,0,8.4,0.8,8.6,0.9c3.7,1,3,3.8,7.9,4.1c2.4,0.2,0.4-0.5,2.3-1.6c0.5-0.3,1.1,0.2,1.6-0.1
			c0.3-0.2,0-0.8,0.2-0.9c0.7-0.5,3.6-0.8,3.9-1c0.4-0.3,0.5-0.9,0.8-1.2c0.3-0.1,0.3,0.6,0.6,0.5c0.1,0,1-2.8,1.2-2.7
			c0.5,0,0.7,1,1.1,0.8c1.9-0.6,0.4-1.7,0.5-2.5c0.3-1.8,2.3-4.4,3.3-5.8c1.9-2.5,7.4,0.7,8.1,0.2c0.6-0.5,0.8-1.2,1.3-1.6
			c0.2-0.2,2.8,0.4,1.5-1.7c-0.2-0.3-0.8,1.3-0.8,0.9c0.2-0.5,1.1-0.8,0.8-1.1c-0.2-0.4-0.8,0.6-1.2,0.5c-0.3-0.1,0.3-0.5,0.6-0.7
			c0.4-0.4,1-0.6,1.4-0.9c0.6-0.8,0.4-2.3,1.3-2.4c1.3-0.4,2.6,1.6,2.9,2.6c0.1,0.5-3.1,4.7-2.8,5.3c0.6,1.2,2.8,1.5,3,3
			c0.1,0.3-0.1,0.7-0.4,1l0,0c0.7-0.3,2.4,0.9,2.8,0.5c0.5-0.5-0.3-1.3-0.1-2c0.2-0.5,1-0.6,1.2-1l-0.6-2.4c0-0.2,2.7-1.1,2.9-1.3
			c0.2-0.3-1.5-1.3-1.7-1.5c-0.8-0.9-1.5-4.3-0.9-5.3c0.2-0.3,3.7-0.4,4,0c0.1,0.1-0.5,1.7,0.7,1c0.3-0.2,0.1-0.7,0.3-0.8
			c0.9-0.6,2.2-0.3,3.1-0.8c2.6-1.3,4.1-6.3,7.6-6.6c1.3-0.1,2.6,1,4,1c2.7,0,5.8-2.3,8.1-3.8c3.7-2.3,5.3-6.7,8.8-9.2
			c2.2-1.5,5.3-1.8,7.5-3.3c1-0.7,3-1.8,3.7-3c0.4-0.7,0.7-3.2,2.3-1.5C502.3,63.6,502.5,64.1,502.7,64.6L502.7,64.6z M356.1,54.4
			h-0.2c-0.6,0.1-1.1,0-1.7,0.2c-0.8,0.3-1.3,0.9-2,1.4c-0.2,0.1,0,0.5-0.1,0.4c-2.2-0.5-2.8-2.2-5-1l-1.6,1.8
			c-0.7,0.3-1.5-0.2-2,0.3c-0.6,0.5,0,1.4-0.4,2c-0.6,0.7-2.7,0.6-1.8,2c1.3,0.3,2.1,0.9,2.5,1c0.4,0.9,1,1.9,0.8,3.2
			c-0.6,0-0.8,0.1-0.8,0.1s-1,1.4-1.5,1.3c-0.1,0.1,0.2,1.9,1,2.8c-0.2,0.4-0.1,0.5,0.1,0.6c-0.2,0.4-0.7,0.6-1.1,1.3
			c-0.4,0.7-0.3,1.7-1,1.9l-0.1,1c0.3,0.7,0.6,0.5,1,0.7c1.4,0.5,5.8-2.7,6.3-1.7c0.1,1.3-4.5,3.1-4.7,4.6c0,0.3,0.6,0.4,0.7,0.7
			c0.1,0.3,0.1,0.6,0,0.8c-0.1,0.6-0.8,2.2-0.3,1.8c1.8-1.5,2.2-3.9,3.7-5.9c1.3-1.9,3.8-2.3,5-4.3c0.4-0.7,0.8-1.4,1-2.2
			c0.1-0.6-0.5-0.6-0.1-1.1c1.6-2.1,2.3-0.2,4.1-0.8c0.3-0.1,0.1-0.7,0.4-0.9c0.6-0.5,1.1-0.8,1.9-1c2.2-0.8,3.2,1.6,2.7-0.8
			c-0.2-0.5,0.4,1.3,0.8,1.2c0.8-0.1,3.1-0.6,3.4-1.3c0.3-0.6-0.1-1.2,0.1-1.9c0-0.4,0.8-1,0.3-1.2c-2-0.7-6.3-0.5-8.7-2
			C355.1,57.2,356.6,55.9,356.1,54.4L356.1,54.4z"/>
		<path id="path3903" inkscape:connector-curvature="0" sodipodi:nodetypes="ccsc" class="st0" d="M337.8,77.5
			c-1.6,0.1-1.7,0.9-0.9,1.4c0.7,0.8,0.6,0.2,1.2-0.2S339,77.4,337.8,77.5z"/>
	</g>
	<path id="gi" inkscape:connector-curvature="0" sodipodi:nodetypes="csccsccc" class="st1" d="M37,129.7c0.1,0,0.2,0,0.3,0
		s0.1,0,0.1,0c0,0.1,0.2-0.1,0.2,0c-0.1,0-0.4,1.5-0.5,1.5s-0.4-1.7-0.5-1.7c0.1,0,0.3,0.3,0.5,0.2H37z"/>
	<path id="pt" class="st1" d="M24.7,51.9c-1.4,0-3,0.5-4.1,1.1c-0.2,0.9-2.5,1.4-2,2.2c0.4,0.5,1.5,0.3,1.7,0.8s-1-0.1-1.3,0.3
		c-0.6,0.8-0.5,4.9-0.3,5.9c0,0.3,0.5,0.4,0.5,0.7c-0.1,1.6-0.7,2.5-1.4,3.8c-0.3,0.6-1.5,1.8-0.8,1.7c0.7-0.2,0.7-1.6,1.3-1.8
		c0.5-0.1,0.7,0.8,0.6,1.2c-0.5,0.7-1.8,0.4-2.2,1.1c-0.7,1.1-1,2.5-1.8,3.6c-0.3,0.5-0.8,0.7-0.7,1.2c0,0.5,0.8,0.7,1,1.1
		c-0.1-0.1-0.5-0.5-0.7-0.4c-0.5,0.3-0.7,1-1,1.6c-0.9,1.5-2,3.4-3.1,4.7c-0.3,0.4-0.9,0.5-1.2,0.9c-0.1,0.1,0.5,0.4,0.3,0.5
		c-0.8,0.2-1.7-0.5-2.2,0s0.4,1.2,0.2,1.8c-0.1,0.3-0.4,0.9-0.9,1.7c-0.3,1.9-0.1,2.4-1.2,3.3C5.2,89,5,89.2,4.7,89.3
		c0,0.2-0.1,0.3,0,0.4c0.1,0.2,0.1,0.4,0.2,0.6c0.2,0,0.4,0,0.5,0.1c0.6,0.3,1,0.4,1.7,0.5s1.4,0.3,1.8-0.6c0.5-0.9,1-1.2,1.1-0.5
		s0,1.1-0.7,1.2s0.1,0.8-0.4,0.7c-0.6-0.1-0.7,0.6-1,0s0.1-0.6-0.8-0.4s0.6,0.3,0,1.4C7,93,6.7,93.4,6.4,94c0.7,0.1,1.4,0.1,2.1,0
		c0.4,0,0.6-0.5,0.9-0.4c0.4,0,0.6,0.6,1.1,0.7c0.3,0.1,0.3-1.2,0.5-0.9c0.3,0.5-0.2,1.2,0,1.5c0.3,0.4,1.6,0.6,1.2,0.7
		c-2.5,1.2-1.1-2-3.1-1.7C8.5,94,9.8,94.8,10,95.2c0.1,0.6,0,1.2-0.1,1.9c-0.2,1.2-1.8,2.3-1.8,3.3c0,0.4,0.6,0.7,0.6,1
		c0.1,0.7-0.9,1.9-0.3,2.1c0.2,0,0.8-0.3,0.7-0.1c-0.2,0.3-0.7,0.1-0.9,0.4c-0.5,0.9-0.2,2.1-0.7,3c-0.4,0.8-2.6,3.8-2.4,4.9
		c0.1,0.4,0.7-0.4,1.1-0.4c0.6-0.1,1.1,0.1,1.7,0c0.3,0,0.6-0.3,0.8-0.2c1.5,0.4,6.4,3.6,7,3.5c0.3,0,3.2-1.4,3.4-1.5h1.2
		c0.2-3.9-0.7-4.6,2.4-7.3c0.6-0.5,0.5-1.5,1-1.8c0.2-0.1,4.8-0.2,3.6-2.1c-0.3-0.5-1.2,0.3-1.7,0c-0.5-0.4-0.4-1.1-0.6-1.7
		c-0.2-0.6-0.2-1.2-0.6-1.7c-0.1-0.2-0.7,0-0.7-0.2c0.3-0.7,0.9-1.1,1.2-1.8c0.6-1.1-1-0.3,0.6-1.6c1.4-1.1,3.3-1,3.5-3.4
		c0-0.2-1.8-1.4-2.2-2.2c-0.6-1.2,0.1-3.2,0.1-3.4c-0.1-0.1-1.6-3-1.6-3.1c-0.1-0.2,0.3,0.1,0.5,0.1c0.8,0.3,1.4,0.4,2.2,0.6
		c2.2,0.6,2.6,0.7,3.7-1.4c1.3-2.6-0.1-1.7-0.4-3.6c-0.3-1.8,2.6-0.9,2.7-2.2c0.1-0.9-0.9-0.1-0.4-1.2c0.1-0.2,0.5-0.2,0.6-0.5
		c0.3-0.7,0.3-1.3,0.4-2c0.1-0.8,0.7-1.5,0.6-2.2l-0.8-2.3c0.3-0.3,1,0.3,1.3,0.1l2-2.1c1.4-0.8,4-0.8,4.8-2.9
		c0.6-1.9-1.9-1.7-2.5-1.8c-0.5-0.1,0.4-3.7,0-3.9c-1.8-0.9-2.1-0.1-4.3-0.9c-0.4-0.2-0.3-1.1-1.2-0.6c-0.2,0.2,0.2,0.7,0,0.8
		c-1.3,1.1-2.7-0.2-3.1-0.3c-0.4-0.2-0.8,0.3-1.1,0.1c-0.2-0.1,0.6-0.3,0.4-0.5c-0.1-0.4-0.6-0.5-0.9-0.5c-0.6-0.1-1.2,0.1-1.8,0
		c-0.1-0.1,0.1-0.3,0.1-0.5c0-0.1,0.1-0.5,0-0.4c-0.5,0.1-1.6,1.4-2.4,0.8c-2.3-1.6,2.2-2,1-3.1c-0.2-0.2-0.6,0-0.7-0.2
		c-0.1-0.2,0.4-0.6,0.2-0.7C25.6,51.9,25.1,51.9,24.7,51.9L24.7,51.9z"/>
	<path id="it" class="st2" d="M210.5,12c-0.1,0-0.2,0-0.4,0l0,0l0,0c-0.1,0-0.2,0-0.4,0c-0.1,0-0.3,0.1-0.4,0.1s-0.1,0-0.2,0.1l0,0
		c-0.1,0-0.1,0-0.2,0.1c-0.9,0.4-1.7,1-2.7,1c-0.4,0-1.5,0-2.5,0c-0.5,0-1,0-1.4,0s-0.8,0.1-1,0.3l-1.2,2.5l0,0
		c-0.1,0-0.2,0.1-0.3,0.1c-0.8,0.3-1.4-0.2-1.9-0.7c-0.2-0.2-0.4-0.4-0.6-0.5c-0.1-0.1-0.2-0.1-0.3-0.1c-1.1-0.1-0.7,0.4-1,0.3
		c-0.1,0-0.3-0.1-0.7-0.3c-0.1,0.4,0,0.8-0.2,1.2c-0.1,0.4-0.4,0.7-0.6,1c0,0.1,0.2,0.2,0.4,0.4h0.4l0.3,0.3l-0.3,1l-0.9-0.2
		l-0.2,0.2l-0.8-0.4V18c-0.2-0.3-0.5-0.5-1.2,0c-0.2,0.1-0.3,0.3-0.4,0.4l0,0c-0.5,0.9-0.4,1.6,0,1.8l0,0c0.1,0.1,0.2,0.1,0.4,0
		c0.2-0.1,0.2-0.1,0.4,0.1c0.2,0.2,0.2,0.3,0,0.4s-0.1,0.2-0.3,0.3c-0.2,0.2,0,0.4,0.3,0.8s0.3,0.4,0.1,0.7
		c-0.2,0.2-0.3,0.1-0.6,0.1c-0.3,0-0.4-0.1-0.3-0.1c0.1-0.1,0.2-0.5-0.1-0.5s-0.4,0-0.3-0.3c0.1-0.2-0.2-0.3-0.2-0.3l0.2-0.2
		l-0.2-0.3c-0.1,0-0.1-0.1-0.2-0.1c-0.3-0.1-0.4-0.1-0.6-0.1l-1,0.5l-0.3-0.2l-0.3,0.2l0.2,0.2l-0.3,0.3l-0.3-0.2
		c0,0-0.3,0.3-0.9,0.1c-0.6-0.2-0.4-0.7-0.6-0.8c-0.2-0.1-0.5-0.2-0.5-0.2s0.3-0.2,0.2-0.6c0-0.1,0-0.1-0.1-0.3
		c-0.1-0.1-0.1-0.2-0.2-0.4l-0.3,0.3l-0.5-0.6c-0.6,0.1-0.6,0.7-0.5,1.3v0.1c0.1,0.6-0.2,1-0.3,1.5c-0.2,0.5-0.7,1.2-0.8,1.3
		c-0.2,0.1-0.5,0.4-0.7,0.5s0.1,0.7-0.2,0.7c-0.3,0-0.7,0.3-0.4,0.6c0.3,0.3-0.2,0.8,0.2,1s0.6,0.3,0.2,1s-0.7,0.5-1,0.2
		c-0.3-0.2,0.2-1-0.3-1.7c-0.1-0.2-0.4-0.3-0.6-0.5c0.2-0.2,0.4-0.3,0.4-0.5s-0.2-0.4-0.3-0.4c-1-0.4-2.5-0.7-3.2-1.9
		c-0.1-0.4,0.2-0.7,0.2-1c0-0.6,0.1-1.1-0.1-1.7c-0.1-0.1-0.1,0-0.2,0s-0.8,0.1-1.2,0.3c-0.4,0.2-0.3,0.3,0.1,0.5c0,0,0,0,0.1,0
		c-0.2,0.2-0.3,0.3-0.5,0.5c-0.5,0.4-1.2,0.6-1.4,1.1c-0.1,0.4,0.7,0.6,0.7,1V23c-0.6,0.4-1.1,0.6-1.4,0.7c-0.3,0.2,0.1,0.8-0.2,1.1
		c-0.3,0.3-0.7-0.2-0.9,0.1c-0.1,0.1-0.2,0.4-0.2,0.6c-0.3-0.1-0.5-0.1-0.7-0.1s-0.3,0-0.4,0s-0.1-0.1-0.2-0.1c0,0-0.1-0.1-0.1-0.2
		c-0.3-0.4-0.6-0.4-1-0.4c-0.3,0-0.6,0.3-0.6,0.3c-0.3,0.3-1.1,1-1.4,0.6c-0.3-0.3-0.9,0.1-1.6,0.6c-0.3-0.1-0.6-0.3-0.8-0.6
		c-4.3,2.5-1.9,1.4-0.6,3.7c0.2,0.4-0.2,1,0.1,1.4c0.3,0.7,1.2,0.7,1.5,1.3c0.3,0.5-0.5,1.4-1.3,2.1c-0.7,0.1-1.2,0.6-1.4,0.8
		c-0.1,0.1-0.3,0.3-0.5,0.5c-0.2-0.1-0.3-0.4-0.5-0.4c-0.5,0.1-1.3,0.1-1.3,0.6c0,0.3,0.1,0.6,0.2,0.9c0.3-0.1,0.7-0.1,0.8,0.1
		c0.1,0.3,0.2,0.4,0,0.8c0,0.3,0,0.6,0.3,0.8c0.4,0.4,0.8,0.6,1.2,0.5c0.2-0.1,0.4-0.1,0.6-0.1c0.1,0.1,0.2,0.2,0.2,0.2s0,0.1,0,0.2
		c-0.1,0.5-0.2,1.1,0.2,1.3c0.1,0.1,0.2,0.1,0.3,0.2c0,0.1,0,0.3,0,0.4c0,0-0.1,0-0.2,0c-0.5-0.1-0.5-0.3-0.8,0
		c-0.2,0.2-0.2,0.5,0,0.7c-0.3,0.4-0.7,0.7-1.1,1.1c-0.3,0.6,0.7,0.8,0.7,1.1c0,0.2-0.5,0.2-0.5,0.4c-0.1,0.8,0.7,1.6,1.6,2.3
		c0.4,0.1,0.7,0.1,1.1,0.3c0.5,0.3,0.8,0.5,1.1,0.7c0.5,0,0.9-0.1,1.4-0.1c0.6-0.1,1.2-0.5,1.7-0.2c0.1,0,0.1,0.1,0.2,0.1
		c0,0.1,0,0.2,0,0.3c0,0.2,0.1,0.3,0.2,0.4c0.2,0.1,0.5,0,0.5,0l-0.7,0.4c-0.2,0.4-0.4,0.8-0.7,1.2c-0.5,0.1-0.4,0.1-0.5,0.4
		c0,0.3-0.2,0.6-0.6,0.6c-0.4,0.1,0,1.3,0.3,1.3V52c1.4-0.2,3.5-0.1,4.8-1.3c0.8-0.7,1.2-2.2,1.9-2.8c0.3-0.3,1-0.2,1.3-0.6
		c0.3-0.3,0-0.8,0.2-1.2c0.2-0.4,2.6-1.8,3-1.8c0.9,0,2.9,0.9,3.4,1.5c0.1,0.2,0.4,0.3,0.6,0.2s-0.1-0.6,0.1-0.6
		c0.8,0,3.1,2.4,3.4,2.6c0.7,0.5,1.2,1,2,1.2c0.3,0.1-0.3-0.7,0-0.7c0.5,0,0.8,0.6,1.2,0.7c0.1,0.1,0.2-0.2,0.3-0.2
		c0.3,0.1,0.7,0.2,0.8,0.5c2.3,2.2,0.9,4.7,2.9,7.5c1,1.6,1.3,2.2,1,4.1c0,0.6-0.7,1.4-0.3,1.6c0.8,0.3,1.7-0.3,2.2,0.2
		c0.5,0.3-0.4,1-0.1,1.4c0.4,0.6,1.3,0.3,1.8,0.7c0.4,0.3,0.4,0.8,0.7,1.2c0.2,0.2,0.6,0,0.8,0.2c0.3,0.3,1.4,1.5,0.8,2.3
		c-0.1,0.1-0.3,0.2-0.4,0.2s-0.2,0-0.2,0c-0.1,0,0,0.1,0,0.1c-0.1,0.1-0.2,0.2-0.1,0.2s0.2,0.1,0.3,0.1c0.3,0.3,0.7,0.7,0.8,0.2l0,0
		c1.3,0.1,2.3-0.3,3.7,0.9c1,0.8,1,2.4,2.1,3.3c0.2,0.1,0.6-0.2,0.7-0.1c0.7,0.4,1.3,0.7,1.9,1.2c1.3,1,0,0.7,1.1,2.4
		c0.6,0.7,1.6,0.7,2.2,1.3l1.4,2c0.6,0.4,2.3,0.2,2.9,0.8c0.5,0.5,0.5,1.5,1.1,1.9v-0.1c0.6-0.4,1.1-1,1.6-0.9s0.6-0.4,0.9-0.2
		c0,0,0.1,0.1,0.2,0.1c0.6,0,1.2,0.6,1.8,0.9c0.1-0.1,0.3-0.1,0.6-0.1h0.1c-0.1-0.4-0.4-0.9,1.2-0.3c0.9,0.4,2.9,3.4,3.3,4.5
		c0.1,0.3-0.2,0.8,0.1,0.8c0.1,0,0.2,0,0.3,0c0-0.6,0.2-0.7,0.5-0.6s0.4,0.6,0.6,0.3s0.2-1,1-0.4c0.1,0.1,0.3,0.2,0.4,0.3
		c0.3,0.2,0.4,0.3,1,0.7c0.1,0.1,0.2,0.2,0.2,0.3c0,0.1,0,0.1-0.1,0.1c-0.4,0.1-0.6,0.7-0.8,0.8s-0.4-0.1-0.5,0.4s0.2,0.3,0.6,0
		c0.3-0.4,0.9-0.5,1.1-0.3s0.9-0.1,0.9-0.3c0-0.2,0.5,0,0.7,0.1c0.1,0,0.1-0.1,0.2-0.2h0.1c0.5-0.2,1.1-0.1,1.9,1
		c0.4,0.6,0.9,1.2,1,2c0,0.1,0,0.2,0,0.3c-0.4,0.2-0.5,0.5-0.4,0.7c-0.2,0.3-0.4,0.5-0.4,0.8c0.7,0,0.8-0.1,1.1,0.7v0.1
		c0.4,0,0.8,0,1.1,0.2c0.6,0.3,1,0.8,1.4,1.1c0.1,0.2-0.1,0.5,0,0.5c0.2,0,0.3,0,0.4-0.1c0.5,0.2,1,0.3,1.2,0l0.1-0.2
		c0.1-0.2,0.2-0.3,0.3-0.4c0.7-0.5,2.1-0.5,2.4,0.9c0,0,0,0.1,0,0.2c0.2,0.3,0.4,0.7,0.6,1.2c1.1,2.8-0.7,1.3,1,3.8
		c0.2,0.2,0.6,0.2,0.7,0.4c0.5,0.6,0.8,1.2,1.1,2c0.6,1.2,0.2,2.8,0.9,3.9c0.8,1,2.6,1.3,1,3.2c-0.7,0.9-2.9,0-3.3,1.7
		c-0.1,0.6,0.8,0.8,0.9,1.4c0.1,0.5-0.3,0.8-0.4,1.3s-0.1,1-0.4,1.4c-0.5,0.5-1.4,0.4-1.8,0.9c-0.4,0.7,0.2,0.7-0.1,1.7
		c-0.1,0.4,0.3,0.5,0.3,1.1c0,0.5,0.8,1,1,1c4.7,1.3,3.3-3.2,5.5-5.2c0.9-0.8,1.9-0.4,2.2-1.8c0.4-1.7-1.2-3.1,0-4.5
		c1.3-1.6,4-1.4,5-2.3c-0.1-0.1-0.2-0.2-0.2-0.2c-0.1-0.5,0.9-0.7,0.1-0.9c-0.7-0.1-0.7-1-0.3-2.1c-0.2-0.2-0.3-0.5-0.3-1.3
		c0-0.4,0.6-0.7,0.4-1c-0.2-0.4-0.7-0.2-1.1-0.4c-1-0.5-1.8-1.6-2.9-2c-1-0.3-1.3,0.8-2.3-0.4c-1.6-2.1,0.3-2,0.7-3.8
		c0.1-0.4-0.4-0.7-0.4-0.9c0-0.2,2.3-4.9,2.5-5.2c1.8-1.9,2.8,0.3,4.7,0.9c1.4,0.5,4.1-0.7,5,0.5c1.5,2,0.3,3.7,3.2,4.8
		c0.6,0.3,1.2,0.6,1.6,0.3c0.4-0.2,0.1-2.1,0.3-2.5c0.3-0.8,1.1-0.5,0.8-1.7c-0.9-3.3-3.9-3-5.1-4.6c-0.3-0.3,0.1-0.9-0.3-1.2
		c-0.9-0.8-4-1.2-5.2-1.7c-1.4-0.5-1.9-1.5-3.1-2.2c-3.5-1.8-8.2-1.6-11.5-3.8c-3.6-2.4,3.5-3.4,1.1-6c-0.8-0.9-2.2,0.1-2.9,0.2
		c-3,0.5-7.8,1.3-10.3-1.3c-0.2-0.2,0.1-0.7-0.2-0.9c-0.5-0.5-1.3-0.6-1.9-0.9c-1.7-1.3-4.3-3.2-5.3-5.1c-1-1.9-2.8-9.5-4.2-10.7
		c-1.2-1-0.3,0.5-1.7-0.2c-1.3-0.7-4.7-4-5.5-4.1c-0.9-0.1-1.7-0.4-3.8-3.1c-0.3-0.6-1.5-5.6-1.3-6.1c0-0.1,0.1-0.2,0.1-0.2
		s0-0.1-0.1-0.1c0-0.5,0-0.9,0.1-1.1V39c0.1-0.2,0.2-0.4,0.3-0.4c0.2,0,0.4,0.4,0.1,0.5s-0.1,0.3,0.2,0.3c0.3,0,0.7,0,1-0.5
		s0.2-1,0.5-1.2s0.3-0.7-0.1-0.8c-0.3-0.2-0.6-0.1-0.9-0.5c-0.2-0.3-0.4-0.5-0.6-0.5v-0.1c-0.2,0-0.4,0.2-0.4,0.1
		c-0.1-0.2,0-0.4,0.2-0.5c0.4-0.3,0-1-0.2-1.4c-0.2-0.2-0.3,0.5-0.5,0.4c-0.3-0.1-0.2-0.7-0.2-1l0,0c-0.4,0-0.7,1-0.8,0.1
		c-0.1-0.9,0.5-1.7,0.7-1.2c0.2,0.4-0.4,0.8-0.1,0.9c0.2-0.2,0.3-0.5,0.4-0.7c0.2-0.4-0.2-0.9,0.2-1c0-0.1,0.3-0.3,0.5-0.5
		c0.5-0.3,0.4-0.6,0.6-0.4c0.1,0.1,0.4,0.1,0.4,0c-0.1-0.2-0.1-0.2,0.2-0.5c0.3-0.3,0.9,0.1,0.8,0.3c-0.1,0.2-0.3,0.6-0.5,0.5
		s-0.4,0.1-0.9,0.6c-0.1,0-0.2,0-0.3,0c0.2,0.1,0.4,0.1,0.6,0.1c1.5-0.3,2.7-1.8,4-2.3c0.6-0.2,1,0,1.4-0.3c0.4-0.4,0.3-0.5,0.7-0.8
		c0.9-0.5,1.5,0.3,2.1,0.2c0.3,0,1-0.5,1.2-0.7c-0.7-0.3-0.2-1.5,1.6,0.2c0.4,0.5,0.3,0.8,0.5,1.2c2.7,0.2-0.7-2.2-1.7-2.8
		c-0.7-0.4,0.6-1.5,0.4-1.9c-0.2-0.5-1.7,0.8-1.3-0.4c0.3-0.8,1.7-1.5,1.1-2c-0.5-0.4-2.4,0-2.2-1.1c0-1.1,2.5-1.8,2.7-3.2
		c0,0,0,0-0.1,0c-3.3-0.7-3,0.4-6-0.6c-0.8-0.1-1.4-0.3-2-0.4c-1.2-0.2-1.9-0.5-2.9-1.2c-0.2-0.1-0.4-0.3-0.7-0.5c0,0-0.1-0.1-0.1,0
		c-0.1,0-0.2,0.1-0.3,0.1h-0.1l0,0c-0.2-0.4,0.3-0.7,0.1-1c-0.2-0.3-0.4-0.4-0.6-0.5c-0.1,0-0.2-0.1-0.2-0.1l0,0
		c0-0.1,0.1-0.2,0-0.3c-0.1-0.2-0.6-0.9-0.1-1s0.7,0,0.7-0.5c0-0.1,0-0.2,0-0.2v-0.1l0,0C210.7,12,210.6,12,210.5,12L210.5,12z
		 M223,18.3L223,18.3L223,18.3c0.1,0,0.2,0.1,0.2,0.1S223.1,18.3,223,18.3L223,18.3z M223.3,18.4C223.4,18.4,223.4,18.4,223.3,18.4
		C223.4,18.4,223.4,18.4,223.3,18.4C223.4,18.4,223.4,18.4,223.3,18.4L223.3,18.4z M213.8,49.9c0,0,0.1,0.1,0.1,0.3
		c0.1,0.3,0.3,0.7-0.3,1c-0.5-0.3-0.6,0.1-0.7-0.3s0.2-0.5,0.6-0.8C213.7,50,213.7,49.9,213.8,49.9z M195.6,64.1
		c-0.1,0-0.3,0.2-0.4,0.5c-0.2,0.4-0.4,0.3-0.6,0.1c-0.2-0.2-0.5-0.1-0.5,0.2c0,0.3-0.7-0.3-1.2,0s-0.2,0.8,0.5,0.9s0.5-0.2,0.6-0.1
		s0.3-0.3,0.5-0.2c0.2,0.2,0.1-0.1,0.3-0.2c0.3-0.1-0.1,0.6,0.3,0.5c0.4,0,0.5,0.3,0.4,0c0-0.3-0.5-0.6-0.1-0.6S195.7,65,195.6,64.1
		C195.7,64.1,195.7,64.1,195.6,64.1L195.6,64.1z M214.3,75.5c0.1,0,0.2,0.1,0.2,0.2s-0.1,0.2-0.2,0.2s-0.2-0.1-0.2-0.2
		S214.2,75.5,214.3,75.5z M184.5,83.9c-0.8,1-6,5.3-7.4,5.2c-1.7,0-2.3-2-2.4-1.9c-0.3,0.3,0.2,0.7,0.1,1c-0.1,0.7-0.8,1.1-0.8,1.8
		c-0.2,3.5,0.2,2.1,0.8,1.7c0,0.4,0,0.6,0.2,0.6c0.1,0,0.3-0.2,0.6-0.4c0.6,0.8,1.9,5.2,1.6,6.2c-0.2,0.4-0.7,0.3-0.9,0.6
		c-0.1,0.1,0.3,0.1,0.3,0.2c0,0.5-0.5,1-0.2,1.5c0.3,0.4,1.3-0.1,1.4,0.4c0.2,0.6-0.8,0.8-0.9,1.4c-0.2,0.7,0.2,1.2,0.1,1.9
		c-0.3,1.6-1.6,2.8-1,4.7c0.2,0.6,1.1,0.9,1.1,1.6c0.1,0,0.2,0,0.3,0c1.8,0.8-0.5,4.2,3.2,2.5c2.6-1.2,1.1-0.8,1.7-3
		c0.1-0.5,0.6-0.7,0.7-1c0-0.3-0.9-0.7-0.7-0.7c1.6-0.1,3.3,1.2,4.6,1.7c0.2,0.1,0.1,0.6,0.2,0.4c1.8-3.1,1.4-7.4,1.7-10.5
		c0-0.5,0.5-0.8,0.5-1.2c-0.2-1-1.6-1-1.1-2.2c0.5-1.3,2.2-1.9,2.1-3.5c-0.2-4.5-1,0.3-1.6-3.1c0-0.3,0.7-0.4,0.5-0.6
		c-0.5-0.6-1.8-0.4-2-1c-0.2-0.7,1.4-0.5,1.5-1C188.9,84.9,184.8,85.2,184.5,83.9L184.5,83.9z M228,89C228,89,227.9,89,228,89
		c-0.3,0.1-0.3,0.5-0.1,0.7c0.2,0.3,0.9,0.1,1-0.2c0.1-0.3-0.2-0.3-0.8-0.5C228.1,89.1,228.1,89,228,89L228,89z M238.4,114.9
		c-0.3,0-0.5,0.2-0.2,0.4c0.4,0.2,0.9-0.3,0.5-0.4C238.7,114.9,238.5,114.8,238.4,114.9L238.4,114.9z M239.4,115.6
		c-0.2,0-0.3,0.1-0.3,0.2c-0.2,0.7,0.3,0.3,0.5,0.5s0.2-0.7,0-0.7C239.5,115.6,239.4,115.6,239.4,115.6L239.4,115.6z M239.6,116.9
		c-0.1,0-0.1,0.2,0.1,0.3c0.3,0.3,0.7,0.2,0.4-0.2C239.9,116.9,239.7,116.8,239.6,116.9L239.6,116.9z M245.4,118
		c-0.5,0-1.2,0.9-2.5,1.2c-0.3,0.1,0-0.9-0.3-0.7c-0.8,0.8,0.5,0.3-1.2,1.8c-0.9,0.1-0.1-0.4-1.4-0.2c-0.4-0.6-0.6-0.6-2.1,0.1
		c-1.2,0.7,0,1.1-3.2,1.8c-1.1,0.2-3.3,0.5-3.8,0.1c0,0-2.4,1.1-2.5,1.1c-0.7,0-1.6-0.4-2.1-0.8c-0.2-0.1-0.2-0.8-0.5-0.9
		c-0.6,0.3-0.4,0.5-1.2,0.4c-0.5-1.6-0.7-1-0.8-1.5c-1.3,1-0.9,0.4-1.9,0.4c-0.8,0,0.5,1.5-1.9,2.2c-0.8,0.1-1.4-1.4-1.6-1.7
		c-1-0.6,0.6,0.9-1,0.8c0.4,0.9-0.7,0.3-0.9,0.7c-0.3,0.4-0.3,0.9-0.6,1.5c-0.3,0.7,0.2,0.9-0.2,1.5c-0.4,0.3-0.3,0.3,0,0.7
		c0.5,0.3,0.1,0.7,0.6,1.1c0.6,0.4,0.9-0.2,1.4,1.2c0.8,0.4,1.8-0.5,2.6-0.3c1,0.3,0.3,0.2,1.1,0.8c0.8,0.6,0.8-0.8,4.1,2.2
		c0.5,0.2,0.9-0.1,1.3,0.2c0.5,0.2,1.3,1.1,1.6,1.3c1,0.2,1.5,0.3,1.9,0.7c0.6,0.7,1.7-0.8,3.4,0.2c2.4,1.7,1.5,2.2,2.4,3.1
		c2.8,0.3,1.4,1.4,4,0.6c1.8-0.1,1.8,0.8,2.5,0.6c0.5-0.2-0.3-1-0.3-1.6c0.1-0.5,0.2-1,0.5-1.5s0.7-0.7,1.2-1
		c0.2-0.2,0.6-0.1,0.5-0.3c-0.3-0.8-0.6,0.1-0.9-1c-0.3-0.4-0.8-1-0.8-1.2c0.3-0.7,0-0.2,0.5-0.5c0.3-0.7-1-0.2-1.4-0.8
		c-1-3.1,0.7-2.7,0.6-5.4c2-3.2,3.1-6.3,3.8-6.6C246,118,245.9,118.2,245.4,118L245.4,118z M214.2,123.5c0.1,0.5,0.3,0.4,0.3,0.2
		L214.2,123.5z M214.5,123.7l0.2,0.1c-0.1-0.1-0.1-0.2-0.2-0.2V123.7z M214.3,124.3c-0.3,0.1-0.5,0.3-0.3,0.5c0.4,0.2,0.3-0.2,0.6,0
		C214.9,124.9,214.6,124.2,214.3,124.3L214.3,124.3z"/>
	<path id="va" class="st0" d="M214.3,75.5c-0.1,0-0.2,0.1-0.2,0.2s0.1,0.2,0.2,0.2s0.2-0.1,0.2-0.2S214.4,75.5,214.3,75.5z"/>
	
		<path id="gr" inkscape:connector-curvature="0" sodipodi:nodetypes="csscccccccccsccccccccccscccccsccccccscscccccccsccccccsccscccccccccccccscccccccccccccccccccccccccsccccccccscccccccccccccccccccccccccscccccscccscccccccccccccccccccscccccccccccscccccccccsscscccccccccssccsscccscccccccccsccccccscccccscccccccccccccsccccscccccccccccssscccccsssscccssssssssscscsccccscsssccsccscccccssccccccssscccccccccsccccccccccccscccscccccssscccsccccccccccscssccccscsscccsssccccccccccccccccccccccccsccccccsccscsccccccccccccccccccsccccccsssccccssccccssccccccccccccccccccccccccccccssscccccccccccccccccccccccscccsccccccsscccccccccccsccccsccccssccscccccsscccccccccccccccccccccccccccccccccsccc" class="st0" d="
		M340.1,61.4c-1.8,0.4-1.2,1.2-0.4,2c0.9,0.8,0.2,0.9,0.5,1.3s0.1,0.5,0.2,0.8c0,0.3,0,0.5-0.3,0.7c0,0-1.3,0.9-1.9,1.1
		s-0.5-0.2-0.7-0.2c-0.3,0.1-0.7,0.5-1.1,0.6s-0.9,0-1.3,0.1s0,0.4-0.4,0.5s-1.5,0.7-2.2,0.8c-0.3,0-0.2-0.2-0.3-0.3
		c-0.5-0.2-2.4-0.7-3.1-0.8c-0.3-0.1-0.4,0.1-0.8,0.1c-0.4,0.1,0.1,0.5-0.2,0.6c-0.3,0.1-0.5-0.5-0.8-0.6c-0.2-0.1-1.1,0.1-1.2-0.1
		c-0.7-0.4-0.4-1.2-0.9-1.3c-0.6-0.2-0.6,0.5-1.2,0.6c-0.4,0.2-0.9,0.1-1.1-0.1c-0.2-0.1-0.6,0.5-0.9,0.6s-0.6-0.3-0.8-0.1
		c-0.4,0.4,0.3,1-0.6,1.2c-0.8,0.2-0.7-0.2-1.2,0.2c-0.9,0.8-1.1,0.7-1.6,0.9c-0.3,0.1-0.1,0.3-0.5,0.4c-0.6,0.2-1.7-0.3-2.3,0.4
		c-0.3,0.4-0.5-0.4-1-0.1c-0.4,0.2-0.1,0.7-0.5,0.9c-0.3,0.3-0.7,0.3-1,0.3c-0.4,0-0.8,0-1.2,0c0-0.1,0-0.2,0-0.3c0,0.1,0,0.2,0,0.3
		c-3.5,0.3-0.7,2-1.8,2.8c-0.2,0.2-0.4-0.5-0.6-0.4c-0.3,0.2-0.1,0.6-0.4,0.8c-0.1,0.1-0.6,0-1.2,0.2c-0.5,0.2-1,0.1-1.6-0.1
		s-1.3,0.2-1.7,0.4c-0.4,0.2-0.4-0.3-1,0.2c-0.9,0.3-0.9,0.8-0.9,1.2c0,0.2-0.5,0.7-0.6,1s0.2,0.2-0.1,0.5c-0.1,0.1-0.3,0-0.9,0.1
		c-0.3,0.1-0.2,0.3-0.6,0.7c-0.7,0.6-0.6-0.4-2,0.1c-0.8,0.3-0.7,0.8-1.5,0.7c-0.8-0.1-2.1,0.8-2.2,0.8c-0.1,0.1-0.1,0.1-0.2,0.2
		c0,0.1-0.1,0.2,0,0.2c0,1.2,1.5,1.2,1.2,2.3c-0.9,3.6-1.5,0.5-2.2,3c0,0,0.1,0.4,0,0.8s-0.5,0.3-0.4,0.8s-0.1,0.9-0.2,1.2
		c-0.1,0.3,0,1,0,1c-0.6,0.8-1.8,0.1-2.2,0.8c-0.3,0.6-0.2,0.8-0.9,1.1l1.1,1.9c0.3,0.8-1,0-1,0.6c0.1,2.4-0.9,1.1-2.5,1.4
		c0,0,0.1,0.1,0,0.2c0,0,1.1,0.2,1.7,0.3c0.4,0.6-0.5,1.4,0.7,1.4c0.4,0-0.2,1.1,0.2,1.2c0.7,0.8,1.6,1.4,2.6,1.5
		c0.2,0.8,1.8,1.5,2.3,2.2c0.2,0.3,0.1,0.7,0.3,0.9c0.3,0.2,0.5,0.4,0.7,0.5c0.1,0.2,0.1,0.4,0.2,0.6c-0.4,0.3-0.8,0.8-1.2,1.2
		c-0.7,0.8-0.2,2-0.1,2.5s0.8-0.1,2.1-0.9c-0.5,0-0.4-0.1-0.6-0.8s-0.1-0.9,0.1-0.7s0.1,0.1,0.6-0.1c0.1,0,0.2-0.1,0.2-0.2
		c0.2,0.4,0.2,1,0.5,1.3c0.1,0.2,0.6-0.2,0.8-0.1c0.8,0.5,0.3,1.8,1.2,1.5c1.2,1.3,0.6,1.4,0.7,1.9c0.1,0.2-0.1,0.9,0.1,0.8
		c0.9-0.2,1.5-0.4,1.8-1c0.2-0.2,0.2-0.9,0.4-0.8c0.6,0.3,0.2,1.5,1.3,1.2c0.4-0.1,0.9-0.4,1.3-0.6c0.7-0.1,1.2-0.1,1.9-0.6
		c0.3-0.2,0.8-0.6,0.9-0.8c0.4,0,2.6,0.8,2.9,0.2c0.2-0.3,0.8,0.3,1.1,0c0.4-0.3,0.1-0.8,0.2-1.2c1.7,0.4,1,1.4,2,1.6
		c0.8-0.3-0.2-0.5,0.3-1c0.2-0.4,0.4,0.3,0.9,0.4c0.7,0.1,0.9,0.2,0.5,0.8c1.2,0.6,1.8-0.8,2.5,0.2c0.5,0.6,0.6-0.6,0.7-0.6
		s0,0.5,0.2,0.6c0.4,0.2,1.1-0.3,1,0c-0.8,2.2-1.2,0.4-3.5,2.1c0.2,0.5,1.2,0,1.4,0.4c0.1,0.5-0.5,0.7-0.9,0.6
		c-0.9-0.1-1.5-1.2-2.4-1.4c-1.6-0.5-3.5-0.1-5-0.6c-1-0.4-1.8-1.6-3.1-0.8c-1.9,1.2-0.3,1.1-1.3,2.1c-0.8,0.8-1.6,0-2.5,0
		c-0.4,0.5-0.4,0.9-0.5,1.7c-0.2,0.8-0.9,1.5-1.6,2.1c-0.6,1.3-0.5,1.4,1.5,1.6c0.5,0.5,0.2,1.3,0.6,1.8c0.2,0.3,0.4-0.4,0.7-0.3
		c1.2,0.4,3.9,2.1,3.8,3.6c-0.2,2.2-0.8,1-0.6,2.4c0.2,1-0.1,0.7,0.6,1.6c0.3,0.3,0.8,0.6,0.8,0.8c0,0.4,0.3,1.7,0.9,1.5
		c1-0.2,0.5,0.8,1.2,0.4c1.6-0.8-1.6-3.6,1.8-3.7c0.6,0.1,0.1,0.8,0.4,1.2c0.4,0.5,0.7-0.6,2.3,2.2c0.8,1.4,0.5,2.1,0.7,2.6
		c0.3,0.5,0.6,0.1,1.4,0.9c0.2-0.2,0-1.1-0.1-1.3c-0.7-1.5,0-1.7,0-3.4c1.5-1.2,1.6-1,2.6,0.5c0.6,0.6,1.2,1,1.3,1.2
		c0.4,0.6,1.1,0.7,1.4,0.8c0.4,0.8,1.1,0.6,1.5,0.4c-1.2-0.9-0.2-0.9-1.9-1.9c-0.1-0.2-0.1-0.6-0.1-0.8c-0.1-0.2-0.5-0.3-0.5-0.6
		s1,0.2,0.7-0.6c-0.4-0.8-1.7-2.9-2.1-3.6c-0.2-0.3-0.7,0-0.9-0.3c-0.1-0.3,0.2-0.7,0.1-1c-0.4-0.7-2.6-3.2-1.8-4.2
		c0.5-0.6,0.4,0.6,1.2,0.6c0.1,0,0.6-0.4,0.7-0.3c0.2,0.3,1.8,0.7,2.1,0.8c-0.2,0.4-0.1,0.6-0.3,0.7c-0.2,0-0.3,0.5,0.1,0.5
		s0,0.3,0.7,0.4s-0.3-0.4,0.4-0.6c0.7-0.2,0.8-0.2,0.4-0.3c-0.4-0.1-0.3-0.2,0.2-0.5c0.1,0,0.1-0.1,0.1-0.1c1-0.1,2.3-0.4,1.9-0.9
		c-0.1-0.2-0.3-0.3-0.5-0.4c0.3-0.2,0.5-0.4,0.3-0.5c-0.3-0.2-0.3-0.2-0.4,0.2c0,0.2-0.1,0.2-0.2,0.2s-0.1,0-0.2-0.1
		c-0.1,0-0.2-0.1-0.3-0.1l0,0c0-0.2,0-0.6,0.1-0.9c0.1-0.5-0.1-0.6-0.7-0.4s-0.2,0.5,0.1,0.7c0.1,0.1,0.2,0.3,0.3,0.6
		c-0.8-0.1-1.7-0.1-2.2-0.7c-0.3-0.3,0.1-0.7-0.1-1.1c-0.1-0.2-0.7-0.1-0.7-0.3c0-0.3,0.9-0.7,0.6-0.8c-0.7-0.3-1.8,0.1-2.1-0.6
		c0.5-0.8,2.6-1.5,3.7-1.9c0.7-0.2,0.2-1,1.2-1.2c0.9,0.3,2,2.2,2.6,2.6c0.2,0.1,0.3-0.4,0.5-0.3c0.1,0,1.2,0.7,1.3,0.9
		c0.1,0.2-0.1,0.5,0.1,0.7c0.3,0.1,0.7,0.3,0.8,0c1-1.6,0.3-2-0.2-2.8c-0.2-0.4-0.4-0.9-0.6-1.4c-0.1-0.4-0.7-0.7-0.7-1.1
		c0-0.7,1.6-0.2,0.6-1.3c-1.3-1.5-1.7-0.9-3.6-1c-1.2-0.4-0.9-1.2-1.2-1.3c-0.7-0.5-1.9,0.3-2.6-0.1c-1.2-0.8,0.4-1.1-0.7-1.6
		c-0.6-0.3-1.1,0.7-1.8,0.5c-0.6-0.1-0.3-1-0.9-1.2c-0.7-0.1-1.6-0.1-2.3-0.1c-0.2,0.1-0.2,0.2-0.4,0.1c-0.3-0.2-0.4-0.7-0.8-0.7
		s-0.6,0.5-0.8,0.6c-0.3,0.1-1.1-0.2-0.8-0.3c1.4-1.4,1.3-0.4,2.4-0.8s0.2-0.5,2-1.1c0.8-0.7,0.7-1.5,0.3-1.3
		c-0.6,0.3-0.6-0.1-0.7-0.5c-0.3-0.2-0.7-0.3-1.2-0.8c-0.2-0.1-0.5-0.4-0.6-0.9c0.4-0.4,0.7-0.1,0.8-0.6c0-0.3-0.3-0.8,0-0.8
		c0.6,0.2,1.3,0.5,2,0.6c0.4,0.4,0.4,0.6,0.7,0.8c0.3,0.3,0.5,0.2,0.3,0.5s-0.1,0.5-0.5,0.7s-0.6,0.3-0.5,0.1
		c0.2-0.3,0.1-0.4-0.1-0.3s-0.1-0.1-0.2,0.3s-0.3,0.8,0.7,0.4c1-0.4,1.4-0.9,1.9-1.3c-0.6-2.1-3.1-3.6-4.8-4.4l-1.2-2.5
		c-2.1-1.4-1.1-1.5-1.8-1.8c-0.8-0.4-1.5-1-1.7-1.9l0.7-2.8c-0.1-0.5-0.9-0.5-0.9-1c0-0.3,0.7-0.2,0.6-0.4c0-0.4,0.2-0.3,0.6-0.4
		s-0.2-0.6,0.2-0.8c0.3-0.1,0.9-1,1-0.9c2.8,2.1-2.3,0.1,0.6,2.8c1,0.3,2.3,1.1,4.1,1.4c0.4,0.8,0,0.8,0.4,1.4
		c0.5,0.7,0.5,1.1,0.7,1.6c1.2-0.4,1.8,0.3,3.4,0c0.5-0.8-5.8-1.5-3.7-3.8c0.3-0.4,0.8,0.2,1.3,0.2c0.4,0.1,0.8-0.2,1.2-0.1
		c1.5,0.8,1.6,2.4,3.1,3c0.7,0.3,0.8-1.6,0.2-2.2c-0.8-0.8-3.3-0.9-3-2c0.1-0.6,1.4-1.1,2.2-0.5c0.9,0.7,1.4,0,2.3,0.4
		c0,0,0.8,0.9,1.5,1.5c0.2,0.2,1.1-0.1,0.9-0.5c-0.3-0.7-0.7-0.5-1.3-1.1c-0.8-0.8-1.5-0.9-2.2-1c-0.4-0.1-0.5-0.9-0.9-0.8
		c-0.3,0,0.2,0.4,0.2,0.6c-0.1,0.2-0.2,0.3-0.3,0.3c-0.4,0.1-1.1-0.2-1.3-0.3c-0.8-1.3,0.4-1,0.3-1.4s-1.1,0-1.5-0.9
		c-0.3-0.2-1.4-0.3-0.7-1.1c1.7-2.2,1.8,0.1,3.6-0.6c2.1-0.9,1.3-2.4,2.4-3c2.3-1.2,0.7,1.2,3.7,0.2c0.5-0.8,1.1-1.2,1.8-1.7
		c1.2-1.5,0.4,0,1.4-0.1c0.4,0,0.8-0.2,1.4-0.2s1.3,0.4,2.1,0.4c0.9,0.1,3.4-0.8,4.2-0.3c1.5,1.3,0.4,1,0.9,1.7l0.1-1
		c0.7-0.2,0.5-1.2,1-1.9s0.9-0.9,1.1-1.3c-0.2-0.1-0.3-0.2-0.1-0.6c-0.8-0.9-1-2.7-1-2.8c0.6,0.1,1.6-1.3,1.6-1.3s0.1-0.1,0.7-0.1
		c0.2-1.3-0.4-2.3-0.8-3.2c-0.4-0.1-1.2-0.7-2.5-1l0,0C340.9,61.7,340.4,61.4,340.1,61.4L340.1,61.4z M328.7,75.6
		c-0.7,0.1-0.6,0.1-1.3,1.1c-0.7,1.1,0.6,1.2,0.9,1.6s1.1-0.2,1.4-0.6S329.7,75.9,328.7,75.6z M337.4,83.5h-0.1
		c-0.4,0.2-0.9,0.6-0.9,1.1s-0.4-0.6-1-0.3c-0.6,0.2-1.1-0.1-1.2,1.1s0.3,1,0.9,1.3s0.9,0.2,0.6-0.9s0.4,0.4,1.1,0.9
		c0.7,0.4,0.2-0.4,0.4-2C337.3,84.4,337.6,83.5,337.4,83.5L337.4,83.5z M346.9,89.7c-0.8,0.1-1.4,0.8-3.1,1.8s-1.1,1.6,0.7,2
		s0.9-0.1,1.9-1.3s0.9,0.1,0.1,1.1s-0.4,0.9,1.9,1.2c2.3,0.3,1.9-0.8,1.6-0.8s-1.1-1-0.7-1.1s0.7,0.7,1.4,0.8s-0.1-0.7-2.3-2.5
		C348,90.5,347.7,89.6,346.9,89.7z M334.5,90c-0.1,0-0.2,0.2-0.2,0.4c0,0.7-0.1,0.8,0.4,0.3C334.9,90.3,334.7,90,334.5,90z
		 M285.7,95.2c-0.1,0-0.2,0-0.3,0.1c-0.7,0.3-2.3,0.4-1.9,1.1s0.7,0.4,1.2,0.7c1.6,2.6,2.2,2.8,3.2,3.1c1.1,0.2,1.2,0.1,0.7-0.4
		c-0.5-0.5-1.7-0.4-1.9-1.1c-0.2-0.7-0.2-0.6-0.3-1.2s-0.6-0.2-0.7-0.6s0.6-0.4,0.7-0.8C286.6,95.7,286.3,95.1,285.7,95.2z
		 M325.2,95.4c-0.1,0-0.3,0.2-0.5,0.6c-0.3,0.8-0.8,1.9,0.5,0.4C325.4,95.7,325.4,95.4,325.2,95.4L325.2,95.4z M322,96.9
		c-0.2,0,0,0.3,1,1.3c0.9,0,0.7,0.2,0.9-0.3s0.2-0.1-0.7-0.5C322.7,97.1,322.2,96.8,322,96.9z M320.6,97c-0.1,0-0.2,0.1-0.3,0.2
		c-0.3,0.4,0,1.2,0.7,0.5C321.4,97.3,321,97,320.6,97z M331,98c-0.5,0-0.5,0.7-0.2,1.1c0.4,0.5,0.8,0.8,1.7,1
		c0.8,0.3,0.9-0.3,0.1-0.8c-0.8-0.5-0.6-0.9-1.3-1.3C331.1,98,331,98,331,98z M319.6,99.3c-0.5,0-0.9,0.6-1.5,0.7
		c-0.4,0.3-0.5,0.7-0.8,1.1c-0.3,0.3-0.7,0.3-1,0.6c-0.6,0.5-0.8,1.1-0.8,1.1s1-0.3,1.3-0.5c0.4-0.2,0.2-0.5,0.4-0.6
		c0.9,1,0.8-1,3.6,1.5c1.6,1.5,3,1.3,3.2,1.7c0.2,0.3,0.1,1.2,0.3,1.5c2.1,0.2,2.2-0.4,3.5-0.5c0.1,0.6,0.1,0.8,1.1,0.8
		c0,0.4,0.2,0.7,0.2,1.1c0.5,0,0.7,0.4,0.9,0.4c0.1,0.5,0.2,0.7,0.3,1c0.5,0,1.9,1.1,2,1.2c0-0.7,0.4-0.7,1.3,0
		c0.8-1.9,0.1-1.8,0.2-2.7c-1,0.4-2.5,0.6-3.1-0.1c-0.5-0.9-1.7-2.4-1.2-3.7c-0.3-0.5-0.6-0.5-1-0.8c-0.3-0.2-0.1-0.4,0.1-0.6
		c-0.6-0.5-1.3-0.2-2.2,0.1c-0.6-0.2-1.2,0-1.7-0.1c-0.2-0.1-0.5-0.7-0.7-0.7c-0.4,0-0.8,0.2-1.1,0c-1.2-0.3-1.7-0.7-1.7-1.8
		c-1,0.2-0.6-0.5-1.3-0.7C319.7,99.3,319.6,99.3,319.6,99.3L319.6,99.3z M346.1,99.9c-1.1,0.1-1.4,0.8-1.4,1.1s1.8,1.4,1.6,2.1
		c-0.2,0.7-0.8,0.8-0.4,1.3s1.3,0.6,1.7,0.3s0.7-1.4,0.2-3.4C347.6,100,347.2,99.7,346.1,99.9L346.1,99.9z M342,100.4
		c-0.9,0.2,0.2,1,0.4,1C342.6,101.4,343.1,100.3,342,100.4z M289.3,101.8c-0.2,0-0.1,0.3,0.3,0.5c0.5,0.3,0.6,0.1,0-0.4
		C289.4,101.8,289.3,101.8,289.3,101.8L289.3,101.8z M357.8,107.5c-0.1,0-0.3,0.2-1,0.2c-1.3,0.1-1.4,0.2-2.4,0.6s-0.4,1.3,0.4,0.9
		c1.1,0,1.1,0.7,1.6,0.4s0.6-1.2,1.1-1.2s1.1-0.5,0.7-0.8C357.9,107.4,357.9,107.4,357.8,107.5L357.8,107.5z M336,109.5
		c-0.7,0.1-1.1,0.5,0.1,1.4c2.1,1.8,3.1,2.6,4.2,3s1.3-0.1,1.2-0.6s-2.1-0.8-2.7-0.9s0-0.9-0.6-1.5S336.7,109.4,336,109.5z
		 M351.4,110.2c-0.1,0-0.2,0.1-0.5,0.3c-0.9,0.8-0.9,0.2-1.7,0.8c-0.8,0.6-0.7,1.7,0,1.2s0.4,0.1,2-1.3l-2.1,0.2
		C351.2,110.6,351.7,110.1,351.4,110.2z M295.4,110.3c-0.2,0-0.2,0.2,0.1,0.8c0.8,1.5,1.2,1.6,1.3,1.2c0.1-0.4-0.4-0.9-0.8-1.5
		C295.9,110.4,295.6,110.3,295.4,110.3L295.4,110.3z M294.6,110.5c-0.1,0.1-0.1,0.2-0.2,0.3c0.3,0.7,0.3,1.1,0.2,1.4
		c-0.3,0.5-0.1,0.9-0.8,0.2l-0.1-0.1c-0.8,2-0.4,3.3,0.2,2.1c0.2-0.4-0.3-1,0-1.2c0.6-0.5,0.3,1.7,0.9,1.9c0.4,0.1,0.7-0.4,1.1-0.4
		c0.7,0.1,0.9,1,1.7,0.4c1-0.8-1.4-1.9-1.9-2s-0.2-0.9-0.2-1C295.3,111.4,294.9,110.9,294.6,110.5L294.6,110.5z M323.8,111.8
		c-0.5,0.1-0.9,0.4-0.2,0.4c0.7,0,0.3,0,0,0.2s-0.9,0.5-0.3,0.8c0.6,0.2,0.3,0.1,0.9-0.8C324.2,112,324.3,111.7,323.8,111.8
		L323.8,111.8z M332.4,113.7c-0.2,0-0.4,0.2-0.4,0.8c0,1.6-0.1,1.8,0.8,0.8C333.1,114.4,332.7,113.7,332.4,113.7z M343.3,114.2
		c-0.9,0.1-1.4,1.4-0.3,1.2C344,114.7,344.2,114,343.3,114.2z M324.4,114.3c-0.1,0-0.2,0-0.3,0.1c-1.1,0.2-0.1,1.3,0.2,1
		C324.5,115.1,325,114.3,324.4,114.3L324.4,114.3z M357.1,114.8c-0.2,0-0.3,0.3,0.2,0.7c0.9,0.6,1.7,1,1.8,1.3
		c0.1,0.4,0.1,1.6,0.6,1c0.5-0.6,0.6-0.9-0.1-1.4c-0.8-0.5-1.2-0.7-1.7-1.3C357.7,114.9,357.4,114.7,357.1,114.8L357.1,114.8z
		 M338.6,115.1c-0.5,0-0.3,1.7,0.2,1.6c0.6-0.1,0.4-0.6,0-1.5C338.7,115.1,338.7,115.1,338.6,115.1z M333.8,116.4
		c-0.3,0.1-0.5,0.6-0.2,1.2c-0.1,1,0.2,1.3,0.6,0.3c0.4-1,0.2-1.1-0.2-1.4C334,116.4,333.9,116.4,333.8,116.4L333.8,116.4z
		 M297.2,117.1c-0.1,0-0.1,0-0.2,0.1c-0.5,0.2-0.9,0.5-0.7,0.9c0.9,1.2,1.4,2.6,2.2,2s0.3-1.4,1.1-1.1s0.2-0.5-0.7-0.9
		C298,117.7,297.6,117.1,297.2,117.1L297.2,117.1z M363.5,117.4c-0.1,0-0.4,0-0.9,0.2c-1.9,0.6-1.3,1.3-2.2,1.9s-0.6,2,0.2,0.8
		s0.6-1.1,1.2-1.3C362.8,118.3,363.8,117.4,363.5,117.4L363.5,117.4z M345.2,117.5c-0.4,0.1-0.9,1.2-1.4,1.5s0.1,0.8,0.5,1.2
		c0.9,0.9,1.3,1.1,1.6,0.1c0.2-1-0.1-2.6-0.5-2.8C345.3,117.5,345.2,117.5,345.2,117.5L345.2,117.5z M342.7,118.5
		c-0.5-0.1-1.4,1.4-2.1,2.3c-0.9,1.2,0.4,0.2,1.5,0.2c1.1-0.1,0.7-0.9,0.9-1.8C342.9,118.7,342.8,118.5,342.7,118.5z M369.1,119.4
		c-0.1,0-0.3,0.1-0.6,0.2c-0.6,0.3-0.1,0.5,0.4,0.8c0.6,0.3,0.6,0.6,0.4-0.7C369.3,119.5,369.2,119.4,369.1,119.4z M334.8,119.6
		c-0.1,0-0.1,0.1-0.2,0.1c-0.4,0.6,0.4,1.4,0.7,0.9C335.7,120,335.3,119.5,334.8,119.6L334.8,119.6z M350.4,119.9
		c-0.1,0-0.2,0.1-0.2,0.2c0,0.3-0.6,0.7-1.3,1.3c-0.7,0.6-0.6,0.8-0.2,0.6c0.4-0.2,0.6-0.2,1.2-1.1c0.4-0.6,1.4-0.9,1-1
		C350.7,119.9,350.5,119.9,350.4,119.9L350.4,119.9z M373,120.9c-0.5,0.1-1.5,1.2-3.1,2.6c-0.4,0.4-1.5,1.8-0.6,2.3s0.2,0.9,0.4,2.2
		c0.1,1.3,0.9,0.3,1.7-1.3s1.4-3,1.8-4.9C373.4,121.1,373.3,120.8,373,120.9L373,120.9z M337.1,121.2c-0.2,0-0.3,0.2,0,0.6
		c0.9,1.4,1.6,0.2,0.9-0.2C337.8,121.3,337.4,121.2,337.1,121.2L337.1,121.2z M343.8,122.9c-0.3,0.1-0.4,0.7,0.1,1.1
		c0.8,0.5,1.5,0.7,1.1,0s-0.5-0.9-1-1C343.9,122.9,343.9,122.9,343.8,122.9L343.8,122.9z M354,123.3c-0.2,0-0.3,0.1-0.1,0.7
		c0.6,0.5,1,0.2,0.7-0.2C354.5,123.5,354.2,123.3,354,123.3L354,123.3z M336.6,123.6c-0.4,0-0.5,0.6-0.1,0.8
		c0.5,0.3,0.8-0.6,0.2-0.8H336.6z M342.8,124c-0.1,0-0.2,0.1-0.5,0.3c-0.7,0.6-0.7,1.1,0.1,0.6C342.8,124.4,342.9,124,342.8,124z
		 M337.4,124.3c-0.2,0.1-0.2,0.3,0,0.5c0.3,0.2,0.5-0.3,0.3-0.4C337.6,124.2,337.5,124.2,337.4,124.3L337.4,124.3z M335.7,124.7
		c-0.3,0-0.5,0.2-0.2,0.4c0.6,0.5,0.1,0.8-0.2,0.4c-0.4-0.4-1.7,1.3,0.4,0.6c1.3-0.6,1.1-0.3,0.9-1
		C336.4,124.8,336,124.7,335.7,124.7z M339.9,125.3c-0.1,0-0.1,0-0.1,0.1c-0.1,0.2,0.4,0.2,0.7,0.5c0.4,0.3,0.8,0,0.2-0.3
		C340.3,125.3,340,125.2,339.9,125.3L339.9,125.3z M345.6,126.5c-0.2,0,0.1,0.4,0.4,0.7c0.5,0.5-0.4,0.8,0.4,0.9s0.6-0.2,0.1-1.1
		C345.9,126.6,345.7,126.5,345.6,126.5z M349.3,126.8c-0.5,0-0.3,0.6,0.4,0.6c0.8,0,0.8-0.4-0.1-0.6
		C349.5,126.8,349.4,126.8,349.3,126.8L349.3,126.8z M365,129.5c-0.1,0.2-0.3,1.3-0.2,1.9c0.2,0.9-0.2,1.1-0.5,1.8s0,0.9,0.5,2.1
		c0.3,0,0.7-0.1,0.9-0.1c0.2-0.6,0.5-0.7-0.2-1.4c-0.7-0.7-0.4-1.6-0.3-3.4C365.1,129.8,365.1,129.5,365,129.5L365,129.5L365,129.5z
		 M322.1,132.3c-1.5,0,0.2,2.6,1.1,2.8s0.1-1,0.6-1.2S323.7,133.2,322.1,132.3L322.1,132.3z M363.8,135.7c-0.1,0-0.4,0.2-0.7,0.4
		c-0.7,0.5-1,1.9,0.2,0.6C364,135.8,364,135.6,363.8,135.7z M357.3,138.7c0,0-0.5,1.3-1.1,1.6c-0.6,0.3-0.9-0.7-2.2,0.7
		c-0.4,0.3-0.6,1.3-1,1.1c-2.5,0-0.6-2-1-2.6c-0.8-0.2-2.2,1.2-2.7,1.2c-0.3,0.1-0.9-0.2-1.3-0.5c-1.1-0.1-1.9,0.9-2.9,0.6
		c-0.6-0.1,0-0.9-0.7-0.7c-1,0.2-1.7,0-2.8,0.3c-0.8,0.3-1.5,1-2.4,1.3c-0.5,0.2-1.1,0.6-1.6,0.5c-0.6-0.1-0.7-0.7-1.1-1.3
		c-0.5,0.1-1.4,0.4-1.5-0.1c-0.2-0.5,1.6,0.3,0.7-1.1c-1.6-0.5-0.9,0.7-1.4,0.9c-0.7,0.3-1.6,0.4-2.3,0.2c-2.3-3.7-0.5,0.4-1.2,0.5
		c-0.6,0.1-0.7-2.3-0.9-1c-0.3,0.7,0.2,1.5,0.2,2.2c-0.1,0.6-0.7,2.3,0.7,2.3c0.7-0.1,1.9-0.3,2.6-0.5c0.7-0.1,0.8-0.4,1.4-0.3
		c0.3,0,0,0.4,0.3,0.4c2.3-0.1,1.3-0.4,3.7-0.6c2.2,1.2,2.8,0.1,3.8,0.6c0.4,0.2-0.3,1,0.2,1.7c0.6,0.5,5.8-1.8,6.4-2
		c0.4-0.1,2.8-0.6,5-1.3c1.9-0.6,2,0.4,3.4-1.1C357.7,139.1,357.3,138.7,357.3,138.7L357.3,138.7z"/>
	<path id="hr" class="st0" d="M245.5,16.4c-0.2-0.1-1.2,0.7-1.1,0.9c0.1,0.4,0.3,0.6,0.4,0.9c0.2,0.1,0.3,0.2,0.2,0.4
		c0,0-0.1,0-0.3,0s-0.3-0.1-0.3-0.1c0,0.3-0.4,0.2-0.4,0.1c-0.1-0.2-0.2-0.3-0.4-0.2c-0.2,0.1-0.7,0.1-0.7,0.2
		c-0.1,0.1,0.4,0.5,0.2,0.6c-2.1,1.6-2,1-2.2,1.2s0.1,0.3-0.3,0.7c-0.1-0.1,0-0.2-0.2-0.2s-0.5-0.1-0.7,0c-0.2,0.3-0.3,0.7-0.5,1
		c0,0,0.1,0,0.1,0.2c0.1,0.6,0.5,0.6,1,0.9c0.1,0.1-0.1,0.4-0.1,0.6c0.1,0.5,0,0.8-0.1,1.2c0,0-0.2,0.3,0,0.4
		c0.1,0.1,0.4,0.3,0.2,0.3c-0.2,0-0.4,0.2-0.5,0.3c-0.1-0.1-0.7-0.2-0.7-0.2c0,0.2-0.2,0.1-0.2,0.1s-0.1,0.4-0.3,0.3
		c-0.1-0.1-0.3-0.1-0.3,0.1c-0.1,0.1,0.1,0.3,0,0.3s-0.4,0-0.9,0.2c-0.5,0.3-0.7,0.5-0.8,0.7c0.1,0.5,0.2,0.4,0.5,0.6
		c0-0.7,0.5-0.1,0.8,0.3c-0.2,0.4-0.4-0.1-0.5,0c0,0.2-0.2,0.2-0.4,0.4c-0.1,0.7,0.2,1.6,0.9,1.5c0.2,0-0.3,0.5-0.5,0.5
		c-0.5-0.3-0.8,0.1-0.8,0.3c-0.2,0.1-0.6,0.1-0.7,0.1c-0.6-0.7-2.1-1.3-2.2-0.8c0,0.3,0.1,0.4-0.3,0.5c-0.4,0.2-0.6-0.3-1.7-0.8
		c-0.1-0.1,0.3-0.4-0.1-0.6c-0.3-0.2-0.7-0.2-0.7-0.4c0-0.2,0.3-0.5,0-0.6c-0.4-0.2-0.5,0.7-0.7,0.9c-0.3,0.3,0,0.2-0.1,0.7
		c-0.4,0.6-0.9,0.8-1.4,1.1c-0.4-0.1-0.4-0.4-0.8-0.4c-0.3,0-0.2,0.4-0.2,0.4c-0.6,0-1-0.1-1.5-0.3c-0.3-0.4-1.1-0.1-0.3,0.4
		c-0.1,0.7-0.4-0.2-1.1,0.7c-0.2,0-0.5-0.1-0.5-0.2c-0.3-0.4-0.5-0.2-1,0c-0.3,0.1-0.8-0.2-1.2-0.3c-0.3-0.2-0.3-0.4-0.5-0.2
		l-0.1,0.2c0,0,0.1,0.3,0.2,0.4s-0.1,0.3,0.1,0.6c0.2,0.3,0.2,0.7,0.2,0.9s0.1,0.2,0.3,0.2c0.2,0,0.3,0,0.3,0l-0.4,0.2l0.3,0.2
		c0,0-0.2-0.1-0.2,0.1s0.1,0,0.2,0.2c0,0.2-0.1,0.6-0.1,0.8c0.1,0.1,0.1,0.2,0.2,0.3c0.1,0.1-0.1,0,0,0.2s0.1,0.1,0.2,0.1
		c0.2,0,0.3,0.1,0.4,0c0.1,0,0.2-0.1,0.3-0.1c0.1,0,0.2,0.1,0.2,0.1s-0.3-0.1-0.4,0c0,0-0.1,0-0.2,0s-0.1,0-0.2,0s-0.2,0-0.2,0
		c0,0.1,0.1,0.1,0,0.2c-0.1,0-0.1,0-0.1,0.1c0.1,0.1,0.3,0.1,0.2,0.3c0,0.2-0.2,0.3,0,0.3s0.4,0.1,0.4,0.2c0,0.2,0.1,0.2,0.2,0.2
		s0,0.1,0.1,0.2s0.2,0.2,0.3,0.2c0.1,0,0.4,0.3,0.5,0.5s0.2,0.4,0.2,0.5c-0.1,0.1-0.1,0.2,0,0.2c0.1,0.1,0.1,0,0.2,0
		c0.1-0.1,0.2,0,0.1,0.1s-0.2,0.2-0.3,0l-0.2-0.1v0.2c0.1,0.1,0.3,0,0.3,0.1c0.1,0,0,0.2,0,0.2c0,0.1,0.1,0,0.1,0v-0.1V39h0.1h-0.1
		v0.1l0.1,0.1l0,0v0.1c0.1,0,0.1,0,0.1,0c0.1,0,0.1,0,0.1,0c0.1,0,0.1,0,0.1,0.1s0,0.2,0,0.2c0,0.1,0,0.1,0.1,0.1s0.1,0,0.1,0
		l-0.1-0.1l0,0v-0.1c0,0,0.1,0,0.1-0.1s0-0.1-0.1-0.2s-0.1-0.1-0.1-0.2c0,0,0.2,0,0.2,0.1s0,0.2,0.2,0.2s0.4-0.1,0.4-0.1l-0.2-0.2
		h-0.1l0,0l0.1-0.1c0,0-0.1,0-0.1-0.1s0.1-0.2,0.1-0.2c0-0.1-0.1-0.2,0-0.2c0.1-0.1,0.1-0.1,0.1-0.1h-0.1l0,0h0.1
		c0,0,0.1-0.1,0.2-0.2c0-0.1,0-0.3,0-0.3l0.1,0.1c0,0,0.1,0,0.1-0.1s0.1-0.2,0-0.2l-0.2-0.2l0.2,0.1c0,0,0,0,0-0.1s0.1-0.2,0.1-0.2
		c0-0.1,0.1-0.2,0-0.2c-0.1-0.1-0.2-0.1-0.2-0.1c-0.1,0,0-0.1,0-0.2s-0.1-0.1-0.1-0.2s0.1-0.1,0.1-0.2l0,0c0,0.1,0,0.2,0,0.2
		c0,0.1,0.1,0.1,0.1,0.2s0,0.1,0,0.1c0.1,0,0.2,0,0.2,0v0.1c0,0.1,0,0.2,0.1,0.2s0.1,0,0.1,0s-0.1,0-0.2,0.1s-0.1,0.2-0.1,0.2v0.1
		c0,0,0-0.1,0.1-0.2c0-0.1,0.1-0.1,0.2-0.2c0.1,0,0.1-0.1,0.1,0c0,0,0,0.1,0.1,0.1l0,0c0.1-0.1,0.1-0.1,0.1-0.1c0,0.1,0,0.2,0.1,0.1
		s0.2-0.2,0.2-0.3c0-0.1,0-0.3-0.1-0.5s-0.2-0.4-0.2-0.4l0.1,0.1V36c0-0.1,0,0-0.1-0.1c0-0.1,0-0.2,0-0.1c0.1,0.1,0.1,0,0.2-0.1
		s0.2-0.4,0.2-0.4c0-0.1-0.2-0.2-0.2-0.2s0.2,0.1,0.2,0.2c0,0,0.1,0,0.1-0.1s0-0.2,0.1-0.3s0.1-0.3,0.1-0.4s0-0.2,0.1-0.5
		s0.1-0.6,0.2-0.8c0.1-0.2,0.2-0.4,0.2-0.6c0.1-0.1,0.2-0.2,0.2-0.2s0.1,0.1,0.3,0.1c0.2,0,0.4,0.1,0.5,0.1s0.3,0,0.4,0.2
		c0.1,0.1,0.3,0.2,0.4,0.3c0.1,0.1,0.4,0.1,0.4,0.1v-0.1l-0.1-0.1c-0.1-0.1-0.1-0.1,0.1,0s0.3,0.2,0.2,0.2c-0.1,0-0.1-0.1-0.1,0
		c0,0,0,0.2,0.1,0.2s0.4,0.3,0.4,0.4s0.1,0.1,0.4,0.3s0.5,0.4,0.6,0.5s0.1,0.2,0.2,0.2c0.2,0.1,0.3,0.1,0.5,0.2s0.2,0.2,0.3,0.1
		s0.1,0,0.1,0.1s0.1,0.1,0.2,0.3c0.1,0.3,0.2,0.5,0.3,0.6s0.1,0.2,0.1,0.3c0,0.1,0.3,0.1,0.2,0.4s-0.2,0.8-0.2,0.9
		c0,0.2-0.1,0.3-0.1,0.4s0,0.6,0.1,0.9s0.2,0.5,0.2,0.6s-0.2,0.2,0,0.4s0.3,0.5,0.5,0.7c0.1,0.1,0.3,0.5,0.4,0.6
		c0.1,0.2,0.4,0.3,0.7,0.5s0.7,0.7,0.9,0.9s0.8,0.6,1.1,0.9s0.8,0.6,1,0.6s0.5,0.2,0.6,0.3c0.1,0.2,0.3,0.1,0.3,0.2s0.2,0.1,0.3,0
		c0.1,0,0.3,0.2,0.3,0.2s-0.4,0-0.6,0c-0.2-0.1-0.3-0.1-0.4,0s-0.7-0.2-0.8-0.3c-0.1-0.1-0.1-0.2-0.3-0.3c-0.1-0.1-0.1,0-0.1,0
		s-0.1-0.1-0.2-0.2c-0.8-0.6-1.2-1.3-1.7-1.4s-0.2,0.3-0.6,0s-1-0.7-0.6-0.6s1.7,0.9,1,0.3s-1.2-1.4-1.5-1.4s0.1,0.7-0.7,0
		c-0.8-0.7-1.3-1.3-0.4-0.1c0.9,1.3,1.2,1.5,1.8,2c0.7,0.8,1.2,0.6,1.1,0.9s-0.1,0.7,0.4,0.8c0.4,0.1-0.1-0.2,0.2-0.2
		c0.3,0.1,1,0.2,0.7-0.1c-0.1-0.2,0.1-0.1,0.2,0c0,0.1,0,0.2,0.1,0.2c0.1,0.1,0.4,0.2,0.3,0.2c0,0.1-0.3,0-0.2,0.1
		c0,0.1,0.3,0.3,0.2,0.4c-0.1,0-0.5-0.1-0.6-0.3c-0.2-0.2-0.2-0.2-0.2-0.2v0.2l-0.2-0.1V45c0,0,0.2,0.1,0.2,0.2s0,0.2-0.1,0.2
		c-0.1-0.1-0.1,0-0.1,0v0.1l-0.4-0.4c0,0,0,0-0.1,0c-0.1,0.1-0.2,0.2-0.2,0.2s0.1,0,0.2,0.1c0,0.1,0.1,0.1,0.2,0.2s0.1,0.1,0.1,0.2
		s0,0.2,0,0.2c-0.1,0-0.1,0,0.1,0.2c0.1,0.1,0.4,0.3,0.4,0.5s0.2,0.2,0.2,0.2c0,0.1,0.1,0.3,0.3,0.3c0.2,0,0.2,0.2,0.2,0.3
		c0,0.1,0.1,0.2,0.2,0.2s0,0.2,0.1,0.2s0.4,0.1,0.6,0.4s0.6,0.5,0.7,0.6s0,0.3,0.2,0.4s0.5,0.1,0.6,0.2c0.1,0.1,0.1,0.2,0.2,0.3
		c0.1,0,0.2,0.1,0.3,0.2c0.1,0,0.1,0.1,0.2,0.1l0,0c0.1,0,0.1,0.1,0.2,0.1c0.2,0,0.4,0.1,0.5,0.3l0,0l0,0c0,0,0,0,0,0.1h-0.1l0,0
		l0,0h-0.1h-0.1c-0.1,0-0.2-0.1-0.2-0.1l0,0l0,0l0,0l0,0c0,0,0,0,0.1,0c0.1,0.1,0.1,0.1,0.2,0.2l0,0c0.1,0,0.1,0,0.2,0.1
		c0,0,0,0,0.1,0.1c0.1,0,0.1,0.1,0.2,0.2c0,0,0,0,0.1,0c0.1,0.1,0.1,0.1,0.2,0.1s0.2,0,0.3,0.1h0.1c0.1,0,0.1-0.1,0.3,0
		c0.2,0.1,0.4,0.2,0.5,0.2s0,0,0.1,0.1c0,0.1,0.2,0.2,0.3,0.2c0.1,0,0-0.1,0.1,0s0.2,0.2,0.2,0.2s0,0,0.1,0.1s0.2,0.2,0.2,0.2
		c0,0.1,0.1,0.1-0.1,0c-0.1-0.1-0.2,0-0.1,0l0.2,0.1c0,0,0,0.1-0.1,0.1c-0.2,0-0.2-0.1-0.1,0.1c0.1,0.1,0.1,0.2,0.1,0.3
		c0,0.1-0.1,0.1,0,0.2c0.1,0,0.1,0,0.1,0.1c-0.1,0.1-0.1,0.2,0,0.2s0.2,0,0.1,0.1s-0.2,0.1-0.1,0.1c0.2,0,0.3,0.1,0.3,0.2
		s0,0.3,0.1,0.2c0.1-0.1,0-0.2,0.1-0.2s0.1,0,0.1,0.1s0.1,0.1,0,0.2s0,0.1-0.2,0.1c-0.1,0-0.3,0.1-0.1,0.1c0.2,0,0.2,0,0.3,0
		c0.1,0,0,0,0,0.1s0.1,0.1,0.2,0.1c0.1-0.1,0.1-0.1,0.2,0s0.1,0.2,0.2,0.1s0.1-0.1,0.2-0.1c0.1,0.1,0,0.1,0.2,0.1
		c0.3,0,0.4,0,0.2-0.1c-0.2,0,0,0,0.2-0.1s0.3-0.1,0.2-0.2c-0.1-0.1-0.4-0.1-0.4-0.1c-0.1,0-0.2-0.1,0.1-0.1c0.3,0,0.5,0.1,0.6,0.1
		s0.2-0.2,0.3-0.1c0.1,0.1,0.2,0,0.2,0.1c0,0,0.1,0.1,0,0.1s-0.2-0.1-0.3,0c-0.1,0-0.2,0.1-0.1,0.1s0.2,0,0.2,0s0.1,0,0,0.1
		c-0.1,0-0.1,0.1,0,0.1s0.2-0.1,0.3-0.2c0.1-0.1,0-0.1,0.1,0l0,0c0,0,0,0,0.2,0c0.4,0,0.4,0,0.6,0s0.3-0.1,0.2-0.1
		c-0.1,0-0.2,0-0.5-0.1c-0.2-0.1-0.3-0.2-0.4-0.2s-0.2,0-0.2,0s0.1-0.1,0.2-0.1s0.1-0.1,0.2-0.2s0.2-0.2,0.4-0.2c0.2,0,0.4,0,0.6,0
		s0.4,0,0.4,0l0,0c-0.2,0.1-0.3,0.1-0.4,0.1s0.1,0.1,0,0.2s-0.2-0.1-0.2,0c-0.1,0.1-0.2,0.1,0,0.1s0.3,0.1,0.3,0l0,0
		c0.1,0,0.2,0,0.3,0c0.1,0,0.3-0.1,0.4-0.1s0.3,0.2,0.4,0.3c0.1,0.1,0.6,0.3,0.7,0.3s0.3,0.1,0.3,0c0.1-0.1,0.2,0,0.2,0.1
		s0.1,0.3,0.5,0.3s1.1,0,1.2,0c0,0,0.2,0.1,0.2,0.2c0.1,0,0.3,0.2,0.3,0.2c0.1,0.1,0.2,0.2,0.4,0.4s0.5,0.5,0.6,0.6
		c0.1,0,0.3,0.2,0.2,0.3c0,0.1,0.1,0,0.1,0.1s0.3,0.2,0.3,0.2c0,0.1,0.1,0.3,0.3,0.3c0.2,0,0.2,0.3,0.4,0.3c0.2,0,0.5,0.1,0.6,0.2
		c0.1,0,0.3,0.1,0.3,0.2s0.1,0.2,0.2,0.2s0.2,0,0.2,0.1c0.1,0,0.1,0.1,0.2,0.1c0,0.1,0.1,0.1,0.1,0.2c0,0,0.1,0,0.1,0.1l0.1,0.2
		c0.1,0,0.2,0.1,0.2,0.2s0.2,0.2,0.2,0.1c0-0.1,0-0.1,0-0.2c0,0,0,0,0-0.1l0,0l0,0c0,0,0.1,0,0,0.1c0,0.1,0,0.2,0,0.2s0,0,0.1,0
		s0.1-0.1,0.2-0.1l0,0l0,0l0,0c0,0,0,0,0,0.1c-0.1,0,0,0.1,0,0.1s0,0,0.1,0s0.1-0.1,0.1,0c0,0.1,0,0.1,0,0.2s0.1,0.1,0.1,0.1
		c0,0.1,0.4,0.4,0.5,0.5c0.1,0,0.2,0,0.2,0.1h0.1c0.1,0,0.4-0.1,0.5-0.1s0.1-0.2,0.3-0.3c0.2-0.1,0.4-0.2,0.4-0.2l-0.8-1.4
		c-0.7-0.3-1.3-0.7-2-0.9c0,0,0.1-0.4-0.1-0.6c-0.3-0.1-0.7-0.2-0.9-0.5c-0.3-0.4-0.7-0.9-0.8-1.5c0,0,0.3-0.3,0.2-0.6
		c-0.4-0.3-0.2-0.6-1.2-0.4c-0.4-0.3-0.9-0.6-1.3-0.8c-0.3-0.2-0.8-0.7-0.9-0.9c-0.3-0.3-0.5-0.7-0.9-0.9c-0.2-0.1-0.1-0.2-0.2-0.3
		c-0.3-0.1-0.7-0.1-0.8-0.5c-0.2-0.5-0.2-0.8-0.8-1c-0.2-0.3-0.5-0.6-0.9-0.7c-0.1-0.1-0.1-0.1-0.2-0.2c-0.1-0.2-0.2-0.4-0.4-0.6
		c-0.2,0-0.4,0-0.6,0c0,0,0-0.4,0-0.5c-0.2-0.1-0.6,0-0.7-0.3c0-0.1-0.4-0.1-0.4-0.2c-0.1-0.1-0.1-0.3-0.1-0.3l-0.9-0.8
		c0-0.1,0-0.3-0.2-0.4c-0.1-0.3-0.3-0.5-0.1-0.9c0-0.1,0.3-0.3,0-0.4h-0.3c-0.1-0.1-0.2-0.4-0.4-0.2v-0.2c0.1-0.1,0.3,0,0.3-0.2
		c-0.1-0.1-0.1-0.3-0.3-0.2v-0.4c0,0,0.1-0.2,0-0.3s-0.3-0.6-0.5-0.6s-0.6-0.3-0.6-0.3l-0.1-0.3c0,0,0.1,0,0.2,0
		c0-0.3,0.1-0.6-0.2-0.8c-0.3-0.2-0.6-0.1-0.7-0.6c0-0.1-0.2,0-0.2,0l-0.4-0.5c-0.1,0.1-0.1,0.5-0.3,0.2l-0.2,0.2
		c-0.4-0.3-0.9-0.7-1-1.3c0.2,0,0.4-0.1,0.5-0.3c-0.1-0.2-0.5-0.2-0.3-0.5c-0.1-0.6-0.4-0.6,0.1-0.9v-0.4l-0.2-0.2l-0.2-0.5
		c0.1-0.1,0.4-0.2,0.2-0.4l0.2-0.3c-0.1-0.4-0.4-0.6-0.1-1c0.3-0.2,0.3-0.5,0.7-0.4c0.1,0,0.3-0.3,0.4-0.1c0,0.2,0.1,0.2,0.2,0.1
		s0.2-0.2,0.4-0.1c0.3,0.4,0.1,0.5,0.4,0.5c0.1,0.1,0.4,0.4,0.4,0.5s-0.1,0.3,0.1,0.4s0.5,0.1,0.7,0.2c0.6,0.6,0.8,0.8,1.7,0.8
		c0.1-0.2,0-0.5,0.2-0.7v-0.4c0.2-0.3,0-0.4,0.3-0.5c0,0,0.3-0.3,0.4-0.4c0.1-0.2,0-0.3,0-0.3c0-0.1,0.1-0.2,0.1-0.3
		c0-0.1,0.3-0.3,0.4-0.3s0.2,0.1,0.3,0c0.2-0.1,0.2-0.2,0.3-0.1c0.1,0.1,0.7,0.3,0.7,0.3s0.2-0.2,0.3-0.2c0.2,0.1,0.6,0.3,0.8,0.2
		c0.2-0.1,0.1-0.2,0.1-0.3c0.1-0.1,0.3-0.3,0.3-0.4c0.1-0.2,0.3-0.3,0.4-0.5c0.1,0,0.3,0.2,0.1,0.4c-0.1,0.2,0.7,0.3,0.9,0.1
		c0.1-0.1,0.1,0.2,0.3,0.3s0.5,0.2,0.7,0.3c0.1,0.1,0.1,0.1,0.4,0.2s0.6,0,0.6-0.2s0.1-0.3,0.1-0.3c0.2,0.2,0.4,0.1,0.5,0.4
		c0,0,0.1,0.1,0.5,0.1s0.4-0.3,0.5-0.3s0.1,0.4,0.1,0.4c0.4,0.1,0.7,0.1,1.1,0c0.1,0,0,0.2,0.2,0.1s0.4-0.4,0.5-0.3s0.1,0.1,0.3,0.2
		s0.5,0.3,0.6,0.3s0.2,0,0.5,0.3s0.6,0.1,0.9-0.2c0.3-0.3,0.1-0.3,0.1-0.4s0.1-0.2,0.2-0.2s0.1-0.4,0.2-0.4s0.2-0.1,0.3,0.1
		c0.1,0.2,0.1-0.1,0.2-0.1s0.2,0.1,0.3,0.2c0.1,0.1-0.1,0.2,0,0.2c0.1,0.1,0.3,0.3,0.5,0.2s0.3,0,0.5,0s0.4-0.2,0.3-0.3
		c-0.1-0.1-0.3-0.3,0.1-0.4s0.3,0.2,0.4,0.2s0.1-0.1,0.2,0.1c0.1,0.1,0.8-0.1,0.9-0.1s0.2,0.2,0.4,0.4c0.2,0,0.5,0.1,0.7,0
		c-0.3-0.4,0.7-0.6,0.8-0.2c0.3-0.4,0.7-0.2,0.4,0.2c0.2,0.1,0.2,0,0.3,0.2c0.2,0.2,0.1,0.3,0.1,0.4c0.4-0.3,1,0.7,0.5,0.7
		c-0.2-0.1-0.3,0-0.2,0.2c0.1,0.1,0.4,0.6,0.8,0.7c0.5,0.1,1.1,0,1.6-0.1c-0.2-0.4-0.4-0.6-0.2-0.8c0.3-0.2,0.4,0.4,0.7,0
		c-0.1-0.3,0.3-0.3,0.5-0.5c0-0.1-0.1-0.2-0.1-0.3c-0.1-0.1-0.8,0.3-0.8,0.1c0.5-0.5,0.2-1.1,0.2-1.6c-0.5-0.2-0.2-0.8,0.4-0.4
		l0.4-0.6c-0.6-0.4-0.1-0.4,0.9,0c-0.1-0.1-0.3-0.4,0-0.5c0.2,0,0.3,0.4,0.3,0.4c0.2,0,0.5,0,0.8,0c0.2-0.4,0.1-0.5-0.2-0.8
		c-0.4,0.3-0.9,0-1.3-0.1c0.2-0.5-0.5,0-1-0.1c-0.5-0.4-1.1-0.8-1.7-1.1c0.2-0.2,0.4-0.5,0.4-0.6c-0.1-0.1-0.4-0.2-0.4-0.4
		c0-0.2,0.2-0.3,0.3-0.4c0,0,0.4,0.1,0.5-0.1s0.1-0.3-0.1-0.4c-0.3,0.1-0.3-0.2-0.4-0.2c-0.3,0-0.6,0.2-0.8,0.2
		c-0.2-0.3-0.3-0.4-0.4-0.5c0-0.3,0.4-0.2,0.4-0.3c-0.6-0.4,0.1-0.3,0.2-0.6c-0.1-0.4-0.5-0.3-0.6-0.5c0.9,0.2,0.5-1.5-0.1-0.5
		c-0.3-0.1-0.7-0.4-0.4-0.4c0.9,0.1,0.4-0.9-0.2-0.4c-0.1-0.5,0.5-0.4,0.3-0.7c-0.3-0.3,0-0.4,0-0.5c-0.1,0-0.4,0-0.4,0
		c0,0.3-0.3,0.2-0.4,0.1c-0.2,0.1,0,0.3,0,0.5c-0.4,0-0.6-0.2-1-0.4l-0.3,0.1c-0.1,0.5-0.1,0.4-0.3,0.8c0.2,0.2-0.2,0.5-0.3,0.5
		c0,0.2-0.3,0.3-0.5,0.4l-0.2-0.1c0.2,0.4-0.1,0.4-0.3,0.4c0.2,0.6-0.2,0.2-0.4,0.3c0-0.6-0.5,0-0.6,0l-0.4-0.1
		c-0.1,0.2-0.3,0-0.5,0c-0.5-0.4-0.9-0.2-1.2,0.1l-0.7-0.1c-0.4-0.3-1.1,0-1.2,0.3c-0.7-0.7-1.4-0.6-2-1.1c-0.2-0.4-0.5-0.5-0.9-0.8
		c-0.3,0.2-0.7,0-1-0.1c0,0.5-1,0.2-0.6,0c0.1,0,0.2,0,0.2-0.1c-0.3-0.1-0.1-0.1-0.2-0.4c-0.2,0.1-0.4,0.2-0.5,0.3
		c0-0.2,0.1-0.2,0.2-0.3c-0.5,0.1-0.4-0.1-0.7-0.2c0.1-0.2,0.2-0.4-0.8-1.4c-0.2-0.2-0.7,0.2-0.2-0.3c-0.3-0.3-0.9-0.5-1.6-0.7V20
		h-0.2c-0.2-0.2-0.4-0.3-0.6-0.4c0-0.6-0.2-0.7-0.5-1.1c-0.1,0.1-0.2-0.1-0.3-0.1h-0.5c0-0.3-0.2-0.1-0.3-0.1l-0.5-0.8
		c-0.3,0-0.5-0.2-0.7-0.1C246.5,16.8,245.8,16.5,245.5,16.4L245.5,16.4z M241.6,50.6c0,0-0.1-0.1-0.1-0.2c-0.1-0.1-0.2-0.3-0.2-0.1
		c0,0.2,0,0.2,0,0.2c0.2,0.3,0.3,0.1,0.4,0.3s0.3,0.2,0.4,0.2s0-0.1-0.1-0.2C241.9,50.6,241.9,50.8,241.6,50.6
		C241.6,50.7,241.6,50.6,241.6,50.6L241.6,50.6z M231.1,33.8c-0.2,0.1-0.2,0.8-0.2,1.1c0,0.3,0,0.5-0.2,0.4s-0.4,0-0.4,0.2
		c0,0.3-0.4,0-0.2,0.4c0.1,0.4,0.8,0.7,1.2,0.5s0.5,0,0.4,0.3c0,0.3,0.6,0.4,0.9,0.6s0.3-0.2,0.2-0.3s0.5,0,0.7-0.1
		s-0.5-0.6-0.8-0.9s-0.4-0.3-0.7-0.5c-0.2-0.2,0.1-0.5-0.1-0.7s-0.5,0-0.3-0.2c0.1-0.1,0.1-0.2-0.5-0.9
		C231.2,33.7,231.1,33.7,231.1,33.8z M229.1,34.7c-0.2,0.1-0.4,0.4-0.4,0.8c-0.1,0.4,0.5,0.5,0.8,1.2s0.5,1.4,0.2,1.3
		s-0.5-0.6-0.6-0.3c-0.1,0.3,0,0.5,0.2,1.2s0.7,1.7,1.1,2.3c0.4,0.6,0.5,0.5,0.8,0.4s-0.2-0.6-0.6-1.7s-0.2-1.6-0.2-2.3
		s0-0.6-0.2-0.4s-0.3-0.4-0.7-1.2c-0.2-0.7,0.1-0.9-0.2-1.2C229.3,34.7,229.2,34.7,229.1,34.7L229.1,34.7z M232.7,38.5
		c-0.1,0,0,0.2,0.1,0.4c0.2,0.2,0,0.3-0.2,0.2s-0.6-0.1-0.2,0.3c0.3,0.3,0.4,0.2,1,0.4c0.6,0.2,0.5,0.5,0.7,0.4s-0.2-0.5-0.9-1.1
		c-0.2-0.2-0.1-0.6-0.4-0.6C232.8,38.5,232.7,38.5,232.7,38.5L232.7,38.5z M229.6,40.5c-0.1,0,0,0.2,0.1,0.7
		c0.2,0.6,0.2,0.5,0.2,0.8s0.1,0.5,0.3,0.2c0.2-0.2,0.3,0.2,0.7,0.6c0.4,0.4,0.4,0.4,0.6,0.3s-0.1-0.3-0.6-0.7
		c-0.5-0.4-0.7-0.8-0.8-1.3c0-0.4,0.1-0.4-0.2-0.6C229.7,40.5,229.7,40.5,229.6,40.5z M233.7,43.7c-0.1,0-0.2,0.2-0.1,0.3
		c0.1,0.2-0.3,0.3,0,0.4s0.4,0.2,0.3-0.1C233.9,44.1,234,44,233.7,43.7C233.8,43.7,233.8,43.7,233.7,43.7L233.7,43.7z M233.9,45.6
		c0,0,0,0.1,0.2,0.4c0.6,0.3,1.4,0.6,0.7,0.1C234.4,45.8,234,45.6,233.9,45.6L233.9,45.6z M234.4,46.6c0,0,0.1,0.1,0.3,0.4
		c0.7,1,1.5,1.4,1.7,1.9s0.3,0.3,0.4,0.5c0.8,0.9,1.2,1,2.1,1.6c0.9,0.5,1.8,1.1,1,0.4c-0.8-0.7-1.3-0.8-1.6-1.2
		c-0.3-0.4-0.3-0.2-0.8-0.7s-0.6-0.5-1.1-0.9c-0.4-0.5,0.1-0.3-0.7-0.9C235.1,47.2,234.4,46.5,234.4,46.6L234.4,46.6z M236.4,46.9
		c0,0,0.1,0.3,0.7,0.8c0.5,0.5,1.2,0.9,1.9,1.6c0.7,0.7,1.5,0.7,1.2,0.5c-0.3-0.2-1.2-1.1-1.6-1.4s-1.3-1-1.7-1.3
		C236.7,46.9,236.4,46.8,236.4,46.9L236.4,46.9z M247.5,55.1c-0.2,0-0.3,0.1-0.2,0.2c0.1,0.2,0.2,0.2,0.4,0.2
		c0.3,0.2,0.3,0.1,0.5,0.2s0.6,0.4,0.7,0.3s0-0.2-0.3-0.5c-0.2-0.3-0.2-0.3-0.6-0.4C247.8,55.1,247.6,55.1,247.5,55.1L247.5,55.1z
		 M249.5,55.2c-0.1,0-0.1,0-0.1,0.2c0.1,0.2,0.2,0.3,0.1,0.4s0,0.2,0,0.2c0,0.1-0.1,0.1-0.2,0c0-0.1-0.2,0,0.1,0.2
		c0.3,0.2,0.1-0.1,0.4,0.1s0.8,0.4,1.7,0.3c1.8-0.2,2-0.3,2.1-0.7s0-0.3-0.7-0.5s-2-0.2-2.7-0.2C249.8,55.2,249.6,55.2,249.5,55.2
		L249.5,55.2z M250.6,57c-0.2,0-0.3,0.1-0.2,0.2s0.3,0,0.4,0.2c0.2,0.2,0.2,0.1,0,0.2s-0.2-0.2-0.4-0.3c-0.2-0.1-0.4,0-0.6,0
		c-0.2,0.1-0.4,0.2-0.5,0.2s-0.3,0-0.2,0.1c0.1,0.1,0.3,0.1,0.5,0.2s0.3,0,0.4,0.1s0.3,0.1,1.1,0.2c0.8,0.1,0.6,0.2,1,0.1
		s0.5-0.2,1.3-0.1s2.3-0.1,2.8-0.2c0.5-0.2,0.2-0.2-0.1-0.2c-0.3,0-0.8,0-1.6,0c-0.8-0.1-0.9,0.1-2.2,0.2c-0.3,0-0.2-0.1-0.4-0.2
		c-0.2-0.1,0.2-0.1-0.1-0.2s-0.2-0.2-0.2-0.3c0-0.1-0.2,0-0.4,0s-0.3,0-0.4,0C250.6,57.2,250.7,57,250.6,57L250.6,57z M255,58.9
		c-0.1,0,0,0.5,0,0.5s0.5,0.2,0.8,0.2s0.8-0.2,0.9-0.1c0.2,0.1,1,0.3,1.2,0.5s0.6,0,0.8,0.2c0.3,0.2-0.2,0.2,0.3,0.4
		s2.6,0.7,2.7,0.7c0.1-0.1-0.4-0.5-0.4-0.5l0.8,0.5c0,0,0.1-0.4,0.5-0.1c0.4,0.2,0.6,0.5,1.2,0.8c0.5,0.3,0.9,0.4,0.9,0.4
		s0.4,0.2,0.2,0.2c-0.2,0.1-0.1,0.2,0.3,0.3c0.5,0.1,0.7,0.2,0.8,0.2c0.1,0,0.4,0,0.3,0.2s-0.3,0.3,0.4,0.7c0.7,0.3,1.6,0.7,2,1.1
		c0.5,0.4,0.7,0.5,0.7,0.5l-0.2-0.4l-0.5-0.4l-0.3-0.2l0.1-0.3l-0.2-0.6v-0.2c0,0-0.1,0-0.2-0.1s-0.2-0.1-0.3-0.2
		c-0.1-0.1-0.1-0.2-0.2-0.2c-0.1-0.1-0.2-0.1-0.2-0.1c-0.2,0.1-0.6,0.2-0.7,0.3h-0.1c0,0-0.1-0.1-0.3-0.2l0,0
		c-0.1,0-0.1-0.1-0.1-0.1c-0.1-0.1-0.1-0.2-0.2-0.2c0,0,0-0.1-0.1-0.1c0,0,0,0-0.1,0s-0.1,0.1-0.2-0.1s-0.2-0.1-0.3-0.2
		c-0.1,0-0.1,0-0.2,0c0,0,0,0,0-0.1c0.1-0.1,0.1-0.2,0-0.2c-0.1-0.1-0.2,0-0.3-0.1c-0.1-0.1-0.2-0.2-0.4-0.2c-0.1,0-0.2,0-0.2,0
		s0,0-0.1,0c0,0,0,0,0-0.1c-0.1-0.2,0-0.2-0.2-0.2s-0.2-0.2-0.5-0.2s-0.4,0-0.4,0c0-0.1,0.1-0.2,0.1-0.2s-0.1-0.1-0.2-0.1
		s-0.2-0.2-0.2-0.3c0-0.1,0-0.2-0.1-0.3c0-0.1-0.3-0.3-0.4-0.3c0,0,0,0-0.1,0c-0.1,0.1-0.1,0.3-0.2,0.3c0,0-0.1-0.1-0.2-0.1
		c-0.1-0.1-0.3-0.1-0.5-0.1s-0.2,0-0.2,0l-0.2,0.3l-0.1,0.2c0.4,0.2,0.3,0.3,0.5,0.2v-0.1c0,0,0,0.1,0.1,0.2
		c0.3,0.2-0.2,0.1-0.6-0.1s-1.2-0.3-1.2-0.4c-0.1-0.1,0.1,0.2,0.1,0.2s-0.5-0.1-0.7-0.2c-0.1-0.2,0.2-0.2-0.9-0.5s-1.5-0.2-2.2-0.3
		C255.4,59.1,255.1,58.9,255,58.9L255,58.9z M247.8,59.3c-0.2,0-0.4,0-0.7,0.1c-0.6,0-0.9,0.2-0.8,0.3s0.5,0.2,0.3,0.4
		s-0.1,0.1,0.5,0c0.8-0.3,1-0.4,1-0.7C248,59.3,247.9,59.2,247.8,59.3L247.8,59.3z M254.7,59.9c-0.2,0-0.3,0.1-0.5,0.1
		c-0.3,0.1-0.2,0.3-0.9,0.2s-0.9-0.2-1.2-0.2c-0.4,0-0.5,0.2-0.1,0.2s0.5,0,0.2,0.2c-0.2,0.1-0.2,0.2-0.3,0.3
		c-0.1,0.1-0.1,0.2,0.1,0.3s0.1-0.3,0.5-0.1c0.4,0.2,0.2,0,0.3,0.1c0.6,0,0.8,0.2,1.3-0.1s0.6-0.3,1.4-0.3s1.2,0,1.2-0.2
		c0.1-0.1-0.2,0.1-0.4-0.1c-0.1-0.2-0.1-0.3-0.8-0.3C255.2,59.9,254.9,59.9,254.7,59.9L254.7,59.9z M258.6,61.6
		C258.6,61.6,258.5,61.6,258.6,61.6c-0.3,0.2-0.8,0.4-0.4,0.4s0.7,0.1,1,0.2s0.5,0.1,0.7,0.2c1.5,0.2,1.8,0.2,1.9,0.2
		s0.3-0.1-0.1-0.2c-0.4-0.2-1-0.3-1.7-0.3c-0.6,0-1-0.2-1.2-0.2C258.6,61.8,258.6,61.6,258.6,61.6L258.6,61.6z M262.7,61.8
		c0,0,0.1,0.2,0.3,0.3c0.4,0.1,0.5,0.2,0.5,0.1c0-0.2-0.1-0.2-0.4-0.4C262.9,61.8,262.7,61.7,262.7,61.8L262.7,61.8z M253.9,62.3
		c-0.2,0-0.4,0-0.4,0.2c0,0.3-0.2,0.1,0.3,0.5c0.6,0,1.2-0.5,0.7-0.5C254.4,62.4,254.1,62.3,253.9,62.3z"/>
	<path id="sm" class="st3" d="M213.8,49.9c0,0-0.1,0.1-0.3,0.2c-0.3,0.3-0.6,0.4-0.6,0.8s0.2,0,0.7,0.3c0.6-0.3,0.4-0.7,0.3-1
		C213.9,50,213.8,49.9,213.8,49.9z"/>
	<path id="ba" class="st0" d="M251.6,31.6c-0.1,0.1-0.3,0.3-0.4,0.5c0,0.2-0.2,0.3-0.3,0.4c0,0.1,0.1,0.2-0.1,0.3
		c-0.2,0.1-0.6-0.1-0.8-0.2c-0.2-0.1-0.3,0.2-0.3,0.2s-0.7-0.2-0.7-0.3c-0.1-0.1-0.1,0-0.3,0.1s-0.3,0-0.3,0s-0.4,0.2-0.4,0.3
		c0,0.1-0.1,0.2-0.1,0.3c0,0.1,0.1,0.2,0,0.3c-0.1,0.2-0.4,0.4-0.4,0.4c-0.3,0.1-0.2,0.2-0.3,0.5v0.4c-0.3,0.1-0.2,0.4-0.2,0.7
		c-0.9,0.1-1.1-0.1-1.7-0.8c-0.1-0.1-0.5-0.2-0.7-0.2c-0.2-0.1-0.1-0.3-0.1-0.4s-0.3-0.4-0.4-0.5c-0.3-0.1-0.1-0.2-0.4-0.5
		c-0.2-0.1-0.3,0-0.4,0.1s-0.2,0.1-0.2-0.1s-0.3,0.1-0.4,0.1c-0.4-0.1-0.5,0.2-0.7,0.4c-0.3,0.4-0.1,0.6,0.1,1l-0.4,0.2
		c0.2,0.2-0.1,0.3-0.2,0.4l0.2,0.5l0.2,0.2v0.4c-0.5,0.3-0.2,0.4-0.1,0.9c-0.2,0.3,0.2,0.3,0.3,0.5c-0.1,0.2-0.3,0.3-0.5,0.3
		c0.1,0.6,0.6,1,1,1.3l0.2-0.2c0.2,0.3,0.2-0.2,0.3-0.2l0.4,0.5c0-0.1,0.2-0.1,0.2,0c0.1,0.5,0.4,0.4,0.7,0.6
		c0.3,0.2,0.1,0.6,0.2,0.8c-0.1,0.1-0.2,0-0.2,0l0.1,0.3c0,0,0.4,0.3,0.6,0.3s0.4,0.5,0.5,0.6s0,0.3,0,0.3v0.4
		c0.2-0.1,0.2,0.1,0.3,0.2c0,0.2-0.2,0.1-0.3,0.2v0.2c0.2-0.2,0.2,0.1,0.4,0.2h0.3c0.3,0.1,0,0.3,0,0.4c-0.2,0.4,0,0.6,0.1,0.9
		c0.2,0.1,0.1,0.3,0.2,0.4l0.9,0.8c0,0,0.1,0.2,0.1,0.3c0.1,0.1,0.4,0.1,0.4,0.2c0.1,0.3,0.5,0.2,0.7,0.3c0.1,0.1,0,0.5,0,0.5
		c0.2,0,0.4,0,0.6,0c0.2,0.2,0.3,0.4,0.4,0.6c0,0.1,0,0.2,0.2,0.2c0.4,0.1,0.7,0.5,0.9,0.7c0.6,0.2,0.6,0.5,0.8,1
		c0.2,0.4,0.5,0.4,0.8,0.5c0.2,0.1,0.1,0.2,0.2,0.3c0.4,0.2,0.6,0.6,0.9,0.9c0.1,0.2,0.6,0.7,0.9,0.9c0.5,0.2,0.9,0.5,1.3,0.8
		c0.9-0.2,0.8,0.1,1.2,0.4c0.1,0.3-0.2,0.6-0.2,0.6c0.2,0.5,0.6,1,0.8,1.5c0.2,0.3,0.6,0.4,0.9,0.5c0.2,0.2,0.1,0.6,0.1,0.6
		c0.7,0.2,1.4,0.6,2,0.9l0.8,1.4c0,0-0.2,0.1-0.4,0.2c-0.2,0.1-0.2,0.2-0.3,0.3s-0.4,0.1-0.5,0.1H260c0,0.2,0.6,0.3,0.8,0.3
		c0,0,0.1,0,0.1,0.1l0.2-0.3c0,0,0.1,0,0.2,0s0.4,0.1,0.5,0.1C261.9,60,262,60,262,60s0.1-0.3,0.2-0.3s0.4,0.2,0.4,0.3
		c0,0.1,0,0.2,0.1,0.3s0.2,0.3,0.2,0.3c0.1,0,0.2,0.1,0.2,0.1l-0.1,0.2c0,0,0.1,0,0.4,0s0.3,0.2,0.5,0.2s0.1,0.1,0.2,0.2
		c0.1,0.2,0.1,0.1,0.3,0.1c0.2,0,0.3,0.2,0.4,0.2c0.1,0.1,0.2,0.1,0.3,0.1c0.1,0.1,0,0.2,0,0.2c-0.1,0.1,0,0.1,0.2,0.1
		c0.1,0,0.2,0,0.3,0.2c0.1,0.2,0.1,0.1,0.2,0.1s0.2,0.1,0.3,0.3c0,0.1,0.1,0.1,0.1,0.1l0,0c0.1,0.1,0.2,0.1,0.4,0.2
		c0.1,0,0.5-0.2,0.7-0.3c0.2-0.1,0.3,0.1,0.5,0.3c0.1,0.2,0.5,0.3,0.5,0.3v0.2c0.1,0,0.1,0,0.2-0.1c0,0,0.4,0,0.4-0.3
		c0-0.1-0.1-0.1-0.1-0.2l0.1,0.1c0.2,0,0.5,0.1,0.5,0.1s0.1-0.2-0.2-0.3c-0.2-0.1-0.4-0.3-0.1-0.4c0.2-0.1,0.5-0.1,0.3-0.3
		c-0.1-0.2-0.2-0.2-0.2-0.5c0-0.2-0.1-0.3-0.4-0.4c-0.6-0.5-0.4-0.9-0.3-1.5c0.1-0.1,0.4-0.1,0.5-0.3c0.1-0.2-0.2-0.5-0.2-0.7
		s0.3-1,0.4-1.1c0-0.1,0.7,0.2,0.8,0.2s0.5-0.1,0.3-0.5s-0.4-1.2-0.4-1.5s0.3-0.6,0.3-0.7s-0.4-0.4-0.3-0.6c0.1-0.1,0.8-0.6,0.9-0.6
		c0-0.1,0.1-0.4,0.1-0.4c0.1,0,0.6-0.2,0.7-0.2s0.4,0.3,0.4,0.3s-0.1,0.3,0.2,0.5s0.4,0.2,0.5-0.1c0.1-0.3,0.5-0.4,0.5-0.5
		c0-0.2-0.1-0.3-0.3-0.5s-0.3-0.8-0.5-0.8c-0.1-0.1-0.4,0.1-0.6-0.1s-0.5-0.5-0.5-0.5c0.1-0.1,0.3,0,0.4-0.4c0-0.4,0.1-0.2,0.2-0.1
		s0.5,0.3,0.6,0.2s0.3-0.1,0.5-0.2s0.3-0.1,0.5-0.1s0.2,0.1,0.3,0l0.1-0.1c0.2-0.2,0.3-0.5,0.3-0.6c0.1-0.1,0.3-0.2,0.5-0.2
		s0.3-0.2,0.4-0.3s0.1-0.2,0.2-0.1s0.2,0.3,0.3,0.4c0.1,0.1,0.1,0,0.2,0s0.5,0.2,0.5,0c0-0.2-0.2-0.4,0-0.7c0.2-0.2,0.4-0.3,0.4-0.6
		c0-0.3,0-0.3-0.3-0.4s-0.4-0.4-0.7-0.7c-0.4-0.3-1.1-0.3-1.3-0.5c-0.2-0.2-0.4-0.2-0.4-0.9c-0.1-0.7-0.6-0.9-0.6-1.2
		c0-0.4,0.2-0.1,0.3-0.1c0.2,0,0.7,0.1,0.8,0.1c0.1,0.1,0.4,0.2,1,0.2s0.5,0,0.7-0.3s0.4-0.5,0.4-0.6s0.1-0.3-0.2-0.2
		s-0.2-0.3-0.4-0.3c-0.2,0-0.5-0.1-0.6-0.3c-0.1-0.2-0.3-0.3-0.2-0.4s-0.1,0.1-0.3,0c-0.2-0.1-0.4-0.4-0.6-0.4s-0.2-0.3-0.2-0.3
		c0-0.1-0.1-0.3-0.2-0.4s-0.2-0.3-0.5-0.2s-0.4,0.1-0.6-0.1c-0.1-0.1-0.3,0.2-0.5,0s-0.4-0.5-0.4-0.6c0-0.1-0.2-0.2-0.2-0.5
		s0.3-0.4,0.3-0.7s-0.5-0.9-0.3-1.1s0.5-0.2,0.5-0.5c0-0.2-0.2-0.2,0-0.4c0.2-0.2,0.4-0.4,0.4-0.7s0.1-0.6,0.2-0.7s0.4-0.5,0.3-0.7
		s0-0.5,0-0.8s0-0.5,0.1-0.6s0.2-0.2,0-0.2c-0.2-0.1-0.4-0.2-0.6-0.2s-0.4-0.1-0.5,0s-0.2,0.2-0.4,0.1s-0.3,0-0.4,0.1
		c-0.2,0.1-0.3,0.2-0.5,0.4c-0.1,0.1-0.4,0.5-0.7,0.2c-0.4,0-1.1,0.2-1.6,0.1c-0.4-0.1-0.7-0.6-0.8-0.7c-0.1-0.1,0-0.3,0.2-0.2
		c0.5,0.1-0.1-1-0.5-0.7c-0.1-0.1,0-0.2-0.1-0.4c-0.2-0.2-0.2-0.1-0.3-0.2c0.3-0.4-0.2-0.6-0.4-0.2c-0.2-0.5-1.1-0.2-0.8,0.2
		c-0.2,0.1-0.5,0.1-0.7,0c-0.2-0.2-0.3-0.4-0.4-0.4s-0.8,0.2-0.9,0.1s-0.1-0.1-0.2-0.1s0-0.4-0.4-0.2c-0.4,0.1-0.2,0.3-0.1,0.4
		s-0.1,0.3-0.3,0.3s-0.4-0.1-0.5,0s-0.4-0.2-0.5-0.2c-0.1-0.1,0.1-0.2,0-0.2c-0.1-0.1-0.2-0.2-0.3-0.2c-0.1,0-0.1,0.3-0.2,0.1
		c-0.1-0.2-0.2-0.1-0.3-0.1c-0.1,0-0.1,0.4-0.2,0.4s-0.3,0.1-0.2,0.2s0.2,0.1-0.1,0.4c-0.3,0.3-0.6,0.5-0.9,0.2s-0.4-0.3-0.5-0.3
		s-0.5-0.3-0.6-0.3s-0.1-0.1-0.3-0.2s-0.3,0.2-0.5,0.3c-0.2,0.1-0.2-0.1-0.2-0.1c-0.4,0.1-0.7,0.1-1.1,0c0,0,0-0.4-0.1-0.4
		s-0.1,0.3-0.5,0.3s-0.5-0.1-0.5-0.1c-0.1-0.3-0.3-0.2-0.5-0.4c0,0-0.1,0.1-0.1,0.3c0,0.2-0.3,0.2-0.6,0.2s-0.3-0.1-0.4-0.2
		c-0.2-0.1-0.6-0.2-0.7-0.3s-0.2-0.4-0.3-0.3c-0.2,0.1-1,0.1-0.9-0.1C251.9,31.8,251.7,31.7,251.6,31.6L251.6,31.6z M258.6,58.4
		L258.6,58.4C258.6,58.5,258.6,58.5,258.6,58.4C258.7,58.4,258.6,58.5,258.6,58.4L258.6,58.4L258.6,58.4z M258.9,58.7L258.9,58.7
		L258.9,58.7C259,58.7,259,58.7,258.9,58.7L258.9,58.7L258.9,58.7z"/>
	<path id="si" class="st2" d="M244.5,12.6c-1.4,0-2.7,0.3-2.5,1.8c0.1,0.3,0.7,0.8,0.4,0.9c-2.1-1.4-1.8,0-3.1-0.4
		c-1.6,0.6-0.8,1-1.3,1.3c-0.6,0.3-0.2-0.3-1-0.4c-0.4,0-1,0.3-1.7,0.2c-0.4-0.1-1.2-0.1-1.4,0.3c-0.4,0.9-0.2,0-0.5,0.1
		c-0.2,0-0.2,0.6-0.5,0.2c-0.6,0.7-0.4,1.2-0.7,1.4c-1.1,0-0.7,0.8-1.6,0.9c-0.2,0.1-0.1,0.9-0.3,0.8c-0.5-1-0.6-0.2-0.9-0.6
		c-0.7-0.7-1.5,0.1-2.3,0c-1-0.9-1.5-0.2-2.2-0.8c-0.3-0.3-0.9,0.1-1.7-0.2c0,1.4-2.7,2.2-2.7,3.3c-0.2,1.1,1.7,0.7,2.2,1.1
		c0.7,0.6-0.8,1.2-1.1,2c-0.4,1.2,1.1-0.1,1.3,0.4c0.2,0.5-1.1,1.6-0.4,1.9c0.9,0.6,4.4,2.9,1.7,2.8c-0.4-0.3-0.6,0.2-0.6,0.2
		s0.7,0.3,0,0.5c-0.2,0.1-0.5,0.2-0.7,0.2s-0.1,0.2-0.5,0.2c0.4,0.3,0.2,0.6,0.2,0.6c0.1,0.1,0.2,0.1,0.3,0.2
		c0.2,0.1,0.4,0.1,0.6,0.1c0.4-0.1,0.6-0.3,1,0c0,0.2,0.3,0.2,0.5,0.2c0.7-0.9,1,0,1.1-0.7c-0.8-0.5,0.1-0.7,0.3-0.4
		c0.6,0.2,0.9,0.3,1.5,0.3c0,0-0.1-0.4,0.2-0.4c0.4,0,0.3,0.3,0.8,0.4c0.5-0.3,1-0.5,1.4-1.1c0.1-0.5-0.2-0.4,0.1-0.7
		c0.2-0.2,0.4-1.1,0.7-0.9c0.3,0.1,0,0.4,0,0.6s0.4,0.2,0.7,0.4c0.4,0.3,0,0.5,0.1,0.6c1.2,0.4,1.3,0.9,1.7,0.8
		c0.5-0.2,0.3-0.2,0.3-0.5c0-0.5,1.5,0.1,2.2,0.8c0.1,0,0.5,0,0.7-0.1c0-0.2,0.3-0.5,0.8-0.2c0.2,0,0.7-0.5,0.5-0.5
		c-0.7,0.1-1-0.8-0.9-1.5c0.2-0.2,0.4-0.2,0.4-0.4c0.1-0.1,0.3,0.3,0.5,0c-0.2-0.4-0.8-1.1-0.8-0.3c-0.3-0.3-0.4-0.2-0.5-0.7
		c0.1-0.1,0.3-0.4,0.8-0.7c0.5-0.3,0.8-0.2,0.9-0.2s-0.1-0.2,0-0.3c0.1-0.1,0.2-0.1,0.3-0.1s0.3-0.3,0.3-0.3s0.2,0.1,0.2-0.1
		c0,0,0.6,0.1,0.7,0.2c0-0.1,0.2-0.2,0.5-0.3s-0.1-0.2-0.2-0.3c-0.1-0.1,0-0.4,0-0.4c0.1-0.4,0.2-0.8,0.1-1.2c0-0.2,0.1-0.5,0.1-0.6
		c-0.5-0.3-0.9-0.3-1-0.9c0-0.2-0.2-0.2-0.1-0.2c0.2-0.3,0.3-0.7,0.5-1c0.2-0.1,0.5,0,0.7,0s0.1,0.1,0.2,0.2
		c0.4-0.4,0.1-0.5,0.3-0.8c0.2-0.2,0.1,0.4,2.2-1.2c0.1-0.1-0.3-0.4-0.2-0.6c0.1-0.1,0.5-0.1,0.7-0.2s0.2,0.1,0.4,0.2
		c0.1,0.1,0.4,0.2,0.4-0.1c0,0,0.1,0.1,0.3,0.1c0.2,0,0.3,0,0.3,0c0-0.2,0-0.4-0.2-0.4c-0.1-0.3-0.3-0.6-0.4-0.9
		c0-0.2,1-0.9,1.2-0.9c0.3,0.1,1,0.5,1.7,0.8c0.1,0,0.1,0,0.2,0l0,0C245.5,15.5,244.9,12.6,244.5,12.6L244.5,12.6z"/>
	<path id="rs" class="st0" d="M276.5,17.4c-0.1,0-0.2,0-0.2,0.1c-0.4,0.1-0.5,0.4-1.2,0.7c-1.2-0.1-0.4-1.1-1.7-0.3
		c-0.3,0.2-0.4-0.3-0.7,0.6c-0.2,0.4-0.5,1-0.9,1.3c-0.2,0.2-0.3-0.3-0.7,0.2c-0.1,0.2,0.4,0.5-0.7,0.6c-1,0.1-0.6-0.8-1-0.5
		c-0.1,0.3-0.3,0.4-0.2,0.7c0,0.4-0.7,0.4-0.7,0.5c0.4,0.6-0.5,0.1-0.8,0.5c0.1,0,0.2,0,0.2,0c0,0.1-0.2,0.2-0.1,0.4l0,0l0,0
		c0,0,0,0,0,0.1c0.2,0.3-0.5,0.2-0.3,0.7c0.6-0.5,1.1,0.5,0.2,0.4c-0.2,0,0.1,0.3,0.4,0.4c0.7-1,1,0.8,0.1,0.5
		c0.1,0.2,0.4,0.1,0.6,0.5c-0.1,0.3-0.8,0.2-0.2,0.6c0,0.2-0.4,0.1-0.4,0.3c0.1,0.1,0.2,0.3,0.4,0.5c0.2-0.1,0.5-0.3,0.8-0.2
		c0.1,0,0.1,0.4,0.4,0.2c0.2,0.1,0.3,0.2,0.1,0.4c-0.1,0.2-0.5,0.1-0.5,0.1c-0.1,0.1-0.3,0.3-0.3,0.4c0,0.2,0.3,0.2,0.4,0.4
		c0,0.1-0.2,0.3-0.4,0.6c0.6,0.3,1.2,0.7,1.7,1.1c0.5,0.1,1.1-0.4,1,0.1c0.4,0.1,1,0.4,1.3,0.1c0.3,0.3,0.4,0.4,0.2,0.8
		c-0.3,0-0.6,0-0.8,0c0,0-0.2-0.4-0.3-0.4c-0.3,0-0.1,0.4,0,0.5c-1-0.4-1.4-0.3-0.9,0l-0.4,0.6c-0.6-0.4-0.9,0.2-0.4,0.4
		c0.1,0.5,0.3,1.1-0.2,1.6c0,0.2,0.6-0.2,0.8-0.1c0,0.1,0.1,0.2,0.1,0.3c-0.2,0.2-0.5,0.2-0.5,0.5c-0.3,0.4-0.4-0.2-0.7,0
		c-0.3,0.1-0.1,0.4,0.2,0.8c0.3,0.2,0.5-0.1,0.7-0.2s0.3-0.2,0.5-0.4c0.2-0.1,0.3-0.3,0.4-0.1s0.2,0.1,0.4-0.1c0.1-0.1,0.3,0,0.5,0
		s0.4,0.1,0.6,0.2s0,0.2,0,0.2s-0.1,0.4-0.1,0.6s0,0.6,0,0.8s-0.1,0.5-0.3,0.7c-0.2,0.2-0.2,0.4-0.2,0.7s-0.2,0.5-0.4,0.7
		c-0.2,0.2,0,0.2,0,0.4c0,0.2-0.3,0.3-0.5,0.5s0.3,0.8,0.3,1.1c0,0.3-0.3,0.4-0.3,0.7s0.2,0.4,0.2,0.5s0.2,0.4,0.4,0.6
		c0.2,0.2,0.4-0.1,0.5,0s0.3,0.1,0.6,0.1s0.5,0,0.5,0.2c0.1,0.1,0.2,0.3,0.2,0.4s0,0.3,0.2,0.3s0.3,0.3,0.6,0.4
		c0.2,0.1,0.4-0.1,0.3,0s0.1,0.2,0.2,0.4c0.1,0.2,0.3,0.3,0.6,0.3s0.1,0.5,0.4,0.3s0.2,0,0.2,0.2c0,0.1-0.2,0.3-0.4,0.6
		c-0.2,0.3-0.1,0.2-0.7,0.3s-0.9-0.1-1-0.2s-0.6-0.1-0.8-0.1s-0.3-0.3-0.3,0.1s0.6,0.6,0.6,1.2c0.1,0.7,0.2,0.7,0.4,0.9
		c0.2,0.2,1,0.2,1.3,0.5s0.4,0.6,0.7,0.7c0.3,0.1,0.3,0.1,0.3,0.4s-0.2,0.4-0.4,0.6s0,0.4,0,0.7c0,0.2-0.4,0.1-0.5,0
		c-0.1,0-0.2,0.1-0.2,0s-0.2-0.3-0.3-0.4c-0.1-0.1-0.2,0-0.2,0.1s-0.2,0.2-0.4,0.3s-0.4,0.1-0.5,0.2s-0.2,0.4-0.3,0.6
		c0,0.1-0.1,0.1-0.1,0.1v0.1c0.1,0.1,0.1,0.3,0.1,0.5s0.2,0.1,0.4,0.1s0.4,0,0.4,0.1s0.3,0.2,0.4,0.2s0.1,0.1,0.2,0.2
		s0.3,0.2,0.4,0.2s0.4,0.3,0.5,0.4s0.4,0,0.6,0.2c0.2,0.1,0.3,0.2,0.3,0.3c0.1,0.1,0.1,0.1,0.3,0.1s0.2,0.1,0.4,0.2
		c0.1,0.1,0.2,0.2,0.2,0.3c-0.1,0.2,0.1,0.2,0.2,0.2s0.1,0.1,0.3,0.2c0.2,0.1,0.3-0.1,0.5-0.1s0.1,0.3,0.2,0.4s0.3,0.1,0.5,0.1
		s0.3,0.2,0.3,0.3c0.1,0.1,0.2-0.1,0.3,0c0.1,0.1,0.2,0.2,0.5,0.1s0.4,0.1,0.5,0.2s0.6,0.6,0.7,0.7s-0.1,0.4,0,0.5
		c0,0.2,0.3-0.3,0.5-0.1c0.2,0.2,0.4,0,0.6-0.1s0.5,0.2,0.8,0.3c0.2,0,0.9,0.2,1,0.3c0.2,0.1,0.1,0.5,0.2,0.7s-0.1,0.5-0.3,0.7
		c-0.2,0.2-0.4,0.6-0.5,0.7s-1.1-0.1-1.3-0.1c-0.2-0.1-0.3,0.2-0.4,0.4c-0.1,0.2,0,0.3,0.1,0.5s0.4,0.3,0.6,0.3
		c0.2,0.1,0.2,0.2,0.1,0.4c-0.1,0.2-0.3,0.3-0.3,0.4c-0.1,0.1,0.1,0.4,0,0.5l0,0c0.1,0,0.1,0,0.1,0.2c0,0.1,0.1,0.1,0.4,0.2
		s0.2,0.1,0.5,0.3s0.1,0.3,0.3,0.5c0.2,0.2,0.3,0.1,0.2,0.4c-0.1,0.3,0.3,0.2,0.3,0.7s0.1,0.4,0.2,0.3s0.4-0.2,0.7-0.1
		c0.2,0.1,0.7,0.4,1.1,0.5s0.8,0.7,1,1.1s0.4,0.1,0.4,0.8c0,0.6,0,0.5,0.3,0.7s0.5,1,0.5,1.2s-0.3,0.4-0.2,0.7s-0.1,0.3-0.1,0.4
		c0,0,0,0.1,0,0.2c0,0,0.1,0,0.2,0.1l0,0c0,0,0,0,0.1,0c0.1-0.1,0.2-0.2,0.4-0.2s0.3-0.3,0.4-0.3s0.2,0.3,0.3,0
		c0.2-0.3,0.2-0.6,0.1-1.1c-0.1-0.4-0.3-0.4,0.2-1.4s0.4-0.4,0.8-0.9s0.9-0.4,1.3-0.9c0.4-0.5,0.7-0.6,0.8-0.4
		c0.8,0.3,0.7,1.3,1.2,1.2c0.6-0.1,0.2-0.9,0.5-1.6c0.1-0.1,0.3-0.7,0.5-0.7c0.2,0.1,0.4,0,0.3-0.4c0.1-0.4,0.5,0.2,1.2-0.1
		c0.8-0.3,1.2,0,1.3,0c0.1,0,0-0.3,0.1-0.3c0.1-0.1,0.3,0,0.4-0.2c0.1-0.1,0.4-0.7,0.8-0.4c0.4,0.2,0.4-0.1,0.4-0.4
		c-0.1-0.3,0.6,0,0.7,0.2c0.2,0.1,0.3,0,0.4,0s0.7,0,0.8-0.1c0.2-0.1,0.9,0.2,0.7-0.1c-0.2-0.2-0.3-0.4,0.1-0.5
		c0.3-0.1,0.1-0.3,0.2-0.3c0,0,0.1,0,0.2,0.1c0.5,0.3,0.6,0.6,0.7,0.4c0,0,0-0.1,0.1-0.1c0-0.2,0.2-0.3,0.7-0.4
		c0.3-0.1,0.1-0.4,0.2-0.7c-0.1-0.5,0.7-0.1,0.4-1.3c-0.1-0.4-0.6-0.8-0.9-1c-0.2-0.1-0.2,0.2-0.2,0c-0.1-0.5,0-0.6,0-1.1
		c-0.2-0.6,0.2-0.8,0.1-1.2c-0.2-0.4-0.7-0.6-0.6-0.8c1-0.6,0.2-1.2,1-0.8c0-0.5,0.4-0.5,0.5-0.3c0.3,0.2,0.4,0,0.7-0.1
		c0.1,0,0.5,0,0.4-1.1c0-0.3,0.4-0.1,0.6-0.8c0.1-0.4,0.3-0.8,0.4-0.9c0.4-0.4,0.7-1.1,0.4-1.3c-0.1-0.1-0.5,0.1-1-0.3
		c-0.6-0.4-0.5-0.8-0.8-0.9c-0.5-0.1-0.6-0.8-0.9-0.8c-0.8,0.1-0.6-0.6-1.1-0.4c-0.4,0.1-0.1-0.3-0.8-0.3c-0.3-0.2-0.7-0.6-0.8-1.7
		c-0.1-0.9-0.8-0.4-1-1.1s-0.4-0.8-0.5-0.9s-0.2-0.3-0.1-1c0.1-0.5-0.1-0.5-0.1-0.7s0.2-0.2,0.1-1c0.1-0.3,0.4-0.2,0.7-0.3
		c0.2-0.1,0.2-0.3,0.3-0.5s0.5-0.2,0.6-0.3c-0.2-0.8-0.1-1.4,0.4-1.8c0.1-0.4,0.1-0.5,0-0.7c-0.2-0.3-1-0.2-1.3-0.4
		s-0.5-0.8-0.6-1.1c-0.2-0.3-0.3-0.3-0.5-0.5c0-0.2,0.3-0.1,0.6-0.3c0.3-0.2,0-0.7,0.4-0.8s0.9,0.6,1.5-0.3l0.1-0.1v-0.1
		c0,0,0-0.1-0.1-0.1c0,0-0.1-0.1-0.2-0.2c-0.7-0.6-1.1-0.1-1.8-0.6c-0.5-0.4-0.8-1.2-1.7-0.2c-0.4,0.4-0.4-0.2-0.9,1.2
		c-0.3,0.8-0.3,1.5-0.7,1.6c-0.6,0.2-1-1.4-1.7-1.7c-0.5-0.3-1.1,0-1.6,0c-0.6,0-0.9,0.3-1.5,0.1c-0.3-0.2-0.2-0.6-0.4-0.9
		c-0.2-0.5-1.2-0.1-1.7-0.2c-0.5,0-0.2-0.5-0.8-0.4c-0.6-1.1,2.2-0.6,1.4-1.6c-0.2-0.1-1.2-0.3-1.2-0.3s-0.3-0.3-0.5-0.6
		c0-0.4,0.4,0,0.6-0.5c-0.2,0-0.3-0.2,0-0.5c0-0.2-0.2-0.4,0.2-0.5c0.2-0.1,0.3-0.4,0.1-0.5c-0.9-0.5-1.5-0.6-2.4-0.6
		c-0.4,0-0.5-0.7-0.8-0.8c-0.3-0.1-0.1,0.4-0.5,0.4s-1.4-0.6-1.5-0.8c-0.4-0.6-0.6-0.2-0.7-0.7s-1-0.4-1-0.4
		c-0.1-0.2,0.4-0.3,0.3-0.7c-0.1-0.5-0.9-0.3-0.6-1c0.3-0.6,0.1-0.7,0.1-1.2c0-0.4-0.1-0.5-0.2-0.6l-0.1-0.1
		c-0.3,0.1,0.2,0.3-0.6,0.3c-0.7-0.4-0.3-0.7-1.2-1.3c-0.1-0.1-0.2-0.2-0.2-0.2s-0.2,0-0.5,0.1c-0.1-0.1-0.2-0.6-0.5-0.8
		c-0.3-0.1-0.8,0.1-0.9-0.2c-0.4-1-0.6-1-0.9-1.2c0,0,0-0.1-0.1-0.1c-0.4-0.1-0.6-0.6-0.9-0.4c-0.3,0.2-0.5,0-0.7-0.1
		c0,0-0.1,0-0.2,0.1C276.9,18,277,17.4,276.5,17.4L276.5,17.4z M304.6,61.5c0.1,0,0.1,0.1,0.2,0.1C304.8,61.6,304.7,61.5,304.6,61.5
		z"/>
	<path id="xk" class="st4" d="M288.9,51.8c-0.3,0-0.6,0.6-0.7,1s-0.4,0.1-0.5,0.3c-0.2,0.2-0.6-0.1-0.5,0.1s0.1,0.4,0.7,0.4
		c0.7,0,0.1,0.1,0.1,0.4s0.6,0.1,0.4,0.4c-0.2,0.2-0.2,0.3,0.1,0.5s-0.4,0.4-0.5,0.2s-0.2-0.1-0.3,0.2c-0.1,0.3-0.7,0.7-0.8,1
		c-0.2,0.3,0.4,0.3,0.4,0.6c0,0.3-0.9,0.6-1.7,0.9c0,0.2-0.2,0.4-0.3,0.6c-0.2,0.2-0.4,0.6-0.5,0.7s-1.1-0.1-1.3-0.1
		c-0.2-0.1-0.3,0.2-0.4,0.4c-0.1,0.2,0,0.3,0.1,0.5s0.4,0.3,0.6,0.3c0.2,0.1,0.2,0.2,0.1,0.4c-0.1,0.2-0.3,0.3-0.3,0.4
		c-0.1,0.1,0.1,0.4,0,0.5l0,0c0.1,0,0.1,0,0.1,0.2c0,0.1,0.1,0.1,0.4,0.2s0.2,0.1,0.5,0.3s0.1,0.3,0.3,0.5c0.2,0.2,0.3,0.1,0.2,0.4
		c-0.1,0.3,0.3,0.2,0.3,0.7c0,0.5,0.1,0.4,0.2,0.3c0.1-0.1,0.4-0.2,0.7-0.1c0.2,0.1,0.7,0.4,1.1,0.5s0.8,0.7,1,1.1s0.4,0.1,0.4,0.8
		c0,0.6,0,0.5,0.3,0.7s0.5,1,0.5,1.2s-0.3,0.4-0.2,0.7s-0.1,0.3-0.1,0.4c0,0,0,0.1,0,0.2c0,0,0.1,0,0.2,0.1l0,0c0,0,0,0,0.1,0
		c0.1-0.1,0.2-0.2,0.4-0.2s0.3-0.3,0.4-0.3s0.2,0.3,0.3,0c0.2-0.3,0.2-0.6,0.1-1.1c-0.1-0.4-0.3-0.4,0.2-1.4s0.4-0.4,0.8-0.9
		s0.9-0.4,1.3-0.9s0.7-0.6,0.8-0.4c0.8,0.3,0.7,1.3,1.2,1.2c0.6-0.1,0.2-0.9,0.5-1.6c0.1-0.1,0.3-0.7,0.5-0.7c0.2,0.1,0.4,0,0.3-0.4
		c0.1-0.4,0.5,0.2,1.2-0.1c0.1,0,0.1,0,0.2-0.1c-0.1-0.2-0.2-0.3-0.2-0.5c-0.2-0.6-0.2-0.7,0-1.1s0.1-0.5,0.1-0.9s0.1-0.5,0.3-0.9
		s0-0.6,0.2-0.7s0-0.4,0.2-0.9c0.1-0.6-0.3-0.9-0.6-0.5s-0.3,0.5-0.4,0.2s-0.9-0.5-1.1-0.4s-1,0.2-1.2,0.2s-0.2-0.5-0.1-1.2
		s-0.2-0.6-0.4-0.6s-0.4-0.4-0.7-0.2c-0.3,0.2-0.3,0.2-0.5,0s0-1-0.4-1.1c-0.4,0-0.2,0.2-0.3,0.4c-0.1,0.2-0.5-0.2-0.5-0.6
		s-0.1-1.1-0.3-0.9c-0.2,0.2-0.3,0.1-0.3-0.1s-0.1-0.4-0.2-0.2c-0.2,0.2-0.2,0.2-0.4,0.1c-0.2-0.1-0.5,0.3-0.6,0.2
		c-0.1-0.1-0.4,0.1-0.7,0c-0.2-0.2,0.3-0.4,0.3-0.6C290,52.5,289.2,51.8,288.9,51.8L288.9,51.8z"/>
	<path id="mk" class="st0" d="M303.6,61.1c-0.1,0,0.1,0.2-0.2,0.3c-0.4,0.1-0.3,0.2-0.1,0.5c0.2,0.2-0.6-0.1-0.7,0.1
		c-0.2,0.1-0.8,0.1-0.8,0.1c-0.1,0-0.2,0.1-0.4,0c-0.2-0.1-0.8-0.5-0.7-0.2c0.1,0.3,0,0.6-0.4,0.4s-0.7,0.3-0.8,0.4
		c-0.1,0.1-0.3,0.1-0.4,0.2s0,0.3-0.1,0.3s-0.5-0.3-1.3,0s-1.2-0.3-1.2,0.1c0.1,0.4-0.1,0.5-0.3,0.4c-0.2-0.1-0.4,0.5-0.5,0.7
		c-0.2,0.7,0.1,1.5-0.5,1.6s-0.5-0.9-1.2-1.2c-0.1-0.2-0.4-0.1-0.8,0.4s-0.9,0.4-1.3,0.9s-0.3-0.1-0.8,0.9s-0.3,1-0.2,1.4
		c0.1,0.4,0,0.8-0.1,1.1c-0.2,0.3-0.2,0-0.3,0s-0.2,0.3-0.4,0.3s-0.2,0.1-0.4,0.2c0,0,0,0-0.1,0l0,0c-0.1,0-0.1,0-0.2-0.1
		c0.1,0.9,0.2,1.6,0.2,2.9c0,0,0,0.1-0.1,0.1c-0.2,0.2-0.6,0.2-0.7,0.4v0.1c0,0.1,0,0.1,0.1,0.2c0.2,0.4,0.8,0.8,1,1.2
		c0,0.1,0.1,0.1,0.1,0.2s0,0.1,0,0.2s-0.1,0.1-0.2,0.2s-0.3,0.3-0.3,0.4c0,0.8,2.4,4.2,2.8,4.8c0.1,0.1,0.1,0.2,0.2,0.2s0.1,0,0.2,0
		c0.4,0,0.6-0.6,0.8-0.6c0.4-0.1,0.8,0,1.1,0.2v0.1c0.1,0.2-0.1,0.6,0.1,0.6s1.5-0.9,2.2-0.8c0.9,0.1,0.7-0.4,1.5-0.7
		c1.4-0.5,1.2,0.6,2-0.1c0.4-0.3,0.2-0.6,0.6-0.7c0.6-0.1,0.8,0,0.9-0.1c0.3-0.3,0-0.3,0.1-0.5c0.1-0.3,0.6-0.8,0.6-1
		c0-0.5,0-0.9,0.9-1.2c0.5-0.5,0.6,0,1-0.2c0.5-0.3,1.2-0.7,1.7-0.4c0.6,0.2,1.1,0.3,1.6,0.1c0.6-0.2,1-0.2,1.2-0.2
		c0.3-0.2,0.1-0.6,0.4-0.8c0.2-0.1,0.4,0.6,0.6,0.4c1.1-0.8-1.7-2.4,1.8-2.8h0.1c0-0.8-0.3-1.8-0.5-2.6c-0.3-1.2,0.4-1.3,0.3-2v-0.1
		l0,0c-0.1-0.1-0.2-0.3-0.3-0.5c-0.3-0.7-0.5-0.7-0.6-0.8c-0.1-0.2-0.4-0.6-0.5-1.3s-0.4-0.4-0.6-0.5c-0.2,0-0.3,0-0.5,0
		c-0.3,0-0.4-0.2-0.7-0.2c-0.2,0.1-0.4-0.1-0.7-0.2c-0.3-0.1-0.5-0.3-0.8-0.4s-0.4-0.5-0.5-0.7c-0.1-0.1-0.3-0.1-0.4-0.2
		c-0.1-0.2-0.4-0.4-0.6-0.6c-0.3-0.2-0.4-0.4-0.6-0.3c-0.1,0.2-0.2-0.1-0.7-0.4C303.7,61.1,303.6,61.1,303.6,61.1L303.6,61.1z"/>
	<path id="al" class="st0" d="M280,60.8c-0.1,0-0.2,0.1-0.2,0.2c-0.1,0.1-0.3,0.1-0.5,0.5s-0.3,0.4-0.2,0.6s0.1,0.4-0.1,0.5
		c-0.1,0.1-0.2,0.2-0.2,0.3c0,0.1-0.2,0.4-0.2,0.6c-0.1,0.2,0,0.3-0.2,0.4c-0.1,0.1-0.1,0.2-0.2,0.4c-0.1,0.2-0.3,0.3-0.5,0.4
		s0,0.6,0,0.9s-0.2,0.5-0.5,1.3s0.6,1.6,0.6,1.9s0.3,0.9,0.3,1c0.1,0.1-0.2,0.1-0.3,0.2c-0.1,0.1,0.1,0.3,0.2,0.3
		c0.1,0.1-0.1,0.1-0.2,0.2c0,0.1,0.1,0.1,0.1,0.2c0.1,0,0.2,0.1,0.2,0.1c0.1,0.1,0,0.4,0,0.4c0.3,0.1,0.2-0.7,1.7,0.2
		c0.3,0.2,0.6-0.1,0.3,0.5c-0.1,0.2-0.5,0.5-0.5,0.9c0.1,0.3,0.6,0.7,0.4,0.8c-0.4,0.4-0.9,0.1-1.2,0.4c-0.2,0.3,0.7,0.4,0.6,0.9
		c-0.2,1.3-1.5,0.9-0.7,2c0.7,0.9,1.4,0.1,1.2,1.2c-1.1,1.6-0.4,1.4-0.4,2.1s-0.2,0.5,0.2,1.3c0.1,0.3-0.5,1-0.5,1
		c-0.3,0.3,0,0.7,0,1.2c-0.1,0.4,0,0.8-0.1,1.2c0,0.3-0.5,0.4-0.4,0.7c0.1,0.5,1.1,1.5,1.8,2.2c0.6,0.6,0.2,1.3,0.1,1.4
		c-0.3,0.6-1-1.9-1.6-0.8c1.5,3.1,5.1,3.3,5.8,4.2c1.4,1.1,0.3,1.1,0.7,1.5c0.2,0.3,0.7,0,0.9,0.3c0.2,0.5-0.1,0.8-0.1,1.4
		c0.1,0.4,0.2,0.7,0.3,0.7c1.6-0.3,2.6,1,2.5-1.4c0-0.6,1.3,0.3,1-0.6l-1.1-1.9c0.7-0.3,0.6-0.5,0.9-1.1c0.4-0.7,1.6-0.1,2.2-0.8
		c0,0-0.1-0.7,0-1s0.3-0.7,0.2-1.2c-0.1-0.5,0.3-0.5,0.4-0.8c0.1-0.4,0-0.8,0-0.8c0.7-2.5,1.2,0.6,2.2-3c0.3-1.1-1.2-1.1-1.2-2.3
		c-0.2,0,0.3-0.9,0.1-1.1c-0.3-0.2-0.7-0.3-1.1-0.2c-0.3,0-0.7,1-1.2,0.4c-0.4-0.6-2.8-4-2.8-4.8c0-0.3,0.6-0.6,0.5-0.8
		c-0.1-0.7-1-1-1.1-1.7c-0.1-0.3,0.7-0.3,0.7-0.6c0-0.6-0.1-1.5-0.2-2.1s-0.1-0.9-0.1-1s0.2-0.2,0.1-0.4s0.2-0.4,0.2-0.7
		s-0.2-1-0.5-1.2s-0.3-0.1-0.3-0.7s-0.2-0.3-0.4-0.8c-0.2-0.5-0.6-1.1-1-1.1c-0.4-0.1-0.9-0.4-1.1-0.5s-0.5,0-0.7,0.1
		s-0.2,0.2-0.2-0.3c0-0.4-0.5-0.4-0.3-0.7s0-0.3-0.2-0.4s-0.1-0.3-0.3-0.5s-0.2-0.2-0.5-0.3c-0.3-0.1-0.4-0.1-0.4-0.2s0-0.2-0.1-0.2
		l0,0l0,0c-0.1,0.1-0.2,0.1-0.3,0.1c-0.1,0.1,0,0.3,0,0.4c0,0.2-0.6,0.1-0.7,0.1c-0.2,0-0.2,0.2-0.2,0.3s-0.3,0.1-0.4,0.2
		s-0.3,0.3-0.5,0.2c-0.2-0.1-0.4-0.5-0.6-0.6s-0.1-0.4,0-0.5s0.1-0.4-0.1-0.5C280.2,61.2,280.3,61.1,280,60.8
		C280.1,60.8,280.1,60.8,280,60.8L280,60.8z"/>
	<path id="me" class="st0" d="M271.9,50.8L271.9,50.8c0,0.1-0.1,0.1-0.1,0.2c0,0.4-0.3,0.4-0.4,0.4s0.2,0.4,0.5,0.5
		c0.2,0.2,0.5,0,0.6,0.1s0.2,0.7,0.5,0.8s0.3,0.4,0.3,0.5s-0.3,0.2-0.5,0.5c-0.1,0.3-0.2,0.3-0.5,0.1c-0.3-0.2-0.2-0.5-0.2-0.5
		l-0.4-0.3c-0.1,0-0.6,0.2-0.7,0.2s-0.1,0.3-0.1,0.4s-0.8,0.5-0.9,0.6s0.3,0.4,0.3,0.6c0,0.1-0.3,0.5-0.3,0.7s0.3,1.2,0.4,1.5
		s-0.2,0.4-0.3,0.5c-0.2,0.1-0.8-0.2-0.8-0.2s-0.4,0.9-0.4,1.1s0.2,0.5,0.2,0.7c-0.1,0.2-0.3,0.2-0.5,0.3c-0.1,0.1-0.1,0.2-0.2,0.6
		s0.1,0.8,0.5,0.9s0.5,0.2,0.4,0.4s0.1,0.3,0.2,0.5s-0.1,0.2-0.3,0.3s-0.1,0.3,0.1,0.4s0.2,0.3,0.2,0.3s-0.3-0.1-0.5-0.1l-0.1-0.1
		c0,0.1,0.1,0.1,0.1,0.2c-0.1,0.3-0.4,0.3-0.4,0.3s-0.1,0-0.1-0.1c0.1,0.2,0.2,0.3,0.2,0.4s0,0.1,0,0.2l0,0l0.1,0.3
		c0,0,0.1,0,0.1,0.1c0.1,0,0,0.2,0.1,0.3l0.2,0.1h0.1c0.2-0.1,0.5-0.1,0.7,0s0.5,0.1,0.7-0.1s0.4-0.3,0.1-0.5
		c-0.3-0.2,0.1-0.2,0.2-0.3c0,0.1,0,0.3,0.2,0.2c0.3-0.1,0.5-0.3,0.5,0.2c0.1,0.5,0.2,0.8,0,0.4c-0.2-0.4-0.3-0.4-0.6-0.5
		c-0.3-0.1-0.2,0.3-0.1,0.5s0.3,0.3,0.2,0.5c-0.1,0.2-0.3-0.1-0.7-0.1s-0.7-0.2-0.8,0.1c0,0.2,0.4,0.5,0.5,0.5
		c0.2,0.1,0.4,0.1,0.5-0.1s0.2-0.2,0.3,0c0.1,0.2,0.1,0.5,0.5,0.8s0.4,0.5,0.6,0.3c0.2-0.1,0.7-0.4,0.9,0c0.2,0.4,0.7,0.7,0.8,0.9
		c0.1,0.2,0.5,0.6,0.7,0.6s0.5,0.4,0.4,0.5s0,0.2,0.3,0.4c0.3,0.2,0.4,0.3,0.4,0.7c0,0.4,0.2,0.8,0.8,0.9c0.7,0.1,0.9,0.2,1.1,0.4
		c0.2,0.2,0.4,0.2,0.4,0.2s0.1-0.4,0-0.5s-0.4-0.2-0.3-0.3c0.1-0.1,0.2-0.2,0.2-0.2c-0.1-0.1-0.3-0.3-0.2-0.3
		c0.1-0.1,0.4-0.1,0.3-0.2s-0.3-0.7-0.3-1s-0.8-1.1-0.6-1.9s0.5-1,0.5-1.3s-0.2-0.8,0-0.9s0.4-0.2,0.5-0.4c0.1-0.2,0.1-0.3,0.2-0.4
		s0.1-0.2,0.2-0.4c0.1-0.2,0.2-0.4,0.2-0.6c0-0.1,0.1-0.3,0.2-0.3c0.1-0.1,0.1-0.3,0.1-0.5s0-0.3,0.2-0.6s0.4-0.3,0.5-0.5
		c0.1-0.1,0.2-0.3,0.3-0.1s0.1,0.3,0.2,0.5c0.2,0.1,0.2,0.4,0.1,0.5s-0.2,0.4,0,0.5s0.4,0.5,0.6,0.6s0.4-0.1,0.5-0.2s0.3,0,0.4-0.2
		s0.1-0.3,0.2-0.3c0.2,0,0.7,0.1,0.7-0.1s-0.1-0.3,0-0.4s0.4-0.1,0.4-0.2s-0.1-0.4,0-0.5s0.3-0.2,0.3-0.4c0.1-0.2,0.1-0.4-0.1-0.4
		c-0.2-0.1-0.5-0.2-0.6-0.3c-0.1-0.2-0.2-0.3-0.1-0.5s0.2-0.5,0.4-0.4c0.2,0.1,1.3,0.2,1.3,0.1c0.1-0.1,0.3-0.5,0.5-0.7
		s0.4-0.5,0.3-0.7s0-0.6-0.2-0.7s-0.8-0.2-1-0.3c-0.2,0-0.6-0.4-0.8-0.3c-0.2,0.1-0.4,0.3-0.6,0.1c-0.2-0.2-0.5,0.2-0.5,0.1
		c0-0.2,0.1-0.5,0-0.5c-0.1-0.1-0.6-0.6-0.7-0.7S281,55,280.7,55c-0.3,0.1-0.4,0-0.5-0.1s-0.2,0.1-0.3,0c-0.1-0.1-0.1-0.3-0.3-0.3
		c-0.2,0-0.4,0-0.5-0.1s-0.1-0.4-0.2-0.4c-0.2,0-0.3,0.2-0.5,0.1s-0.2-0.2-0.3-0.2c-0.1,0-0.2-0.1-0.2-0.2c0.1-0.2,0-0.3-0.2-0.3
		c-0.1-0.1-0.2-0.2-0.4-0.2c-0.2,0-0.2,0-0.3-0.1c-0.1-0.1-0.1-0.2-0.3-0.3s-0.5,0-0.6-0.2c-0.1-0.1-0.3-0.4-0.5-0.4
		c-0.1,0-0.3,0-0.4-0.2c-0.1-0.1-0.1-0.2-0.2-0.2s-0.4-0.1-0.4-0.2s-0.2-0.1-0.4-0.1s-0.4,0.1-0.4-0.1s0-0.5-0.1-0.5l-0.1-0.1
		c-0.1,0-0.2,0-0.3,0c-0.2,0-0.3,0-0.5,0.1s-0.4,0.1-0.5,0.2s-0.5-0.1-0.6-0.2C272.1,50.9,272,50.8,271.9,50.8L271.9,50.8z"/>
	<path id="mt" class="st0" d="M234.7,147c0,0,0,0.1-0.2,0.1s-0.2,0.1-0.2,0.2c0,0,0,0.1,0.1,0.1s0.1,0,0.1,0.1s0,0.2-0.1,0.2
		c0,0,0,0,0.1,0.1c0.1,0,0.1,0.2,0.1,0.2c-0.1,0-0.2,0-0.1,0.1s0.1,0.1,0,0.1s0,0.2,0,0.3s0.3,0.4,0.5,0.5s0.6,0.3,1.1,0.4
		c0.4,0.1,0.6,0.1,0.6,0s-0.2-0.1-0.1-0.2s0.2-0.2,0.2,0s0,0.2,0.1,0.1c0-0.1,0.1-0.2,0.1-0.2c0-0.1-0.1,0,0-0.1s0.1-0.1,0-0.1
		s-0.1-0.1,0-0.1s-0.2-0.3-0.3-0.3c-0.1,0-0.2-0.1-0.2-0.1s0.1,0.1,0,0.2s-0.2,0.1-0.2,0.1l0.2-0.2c0,0-0.1,0-0.2,0
		c0,0.1,0-0.2,0.1-0.1c0.1,0,0.1,0,0-0.1s0,0-0.2-0.2c-0.1-0.1-0.1,0-0.3-0.2c-0.2-0.2-0.1-0.1-0.2-0.2l-0.1,0.1v-0.1
		c0,0,0.1-0.1-0.1,0s-0.3,0.2-0.3,0.2l0.2-0.2c0-0.1,0-0.1-0.2-0.1s-0.2,0.1-0.2,0s0.1-0.1,0.2-0.2
		C234.8,147.2,234.8,147.1,234.7,147L234.7,147L234.7,147z M234.4,146.9c0.1,0,0.2,0,0.1-0.1s-0.1-0.1-0.2-0.1
		C234.2,146.8,234.3,146.8,234.4,146.9C234.3,146.9,234.3,146.9,234.4,146.9C234.2,146.9,234.4,146.9,234.4,146.9L234.4,146.9z
		 M234.4,146.6c-0.1,0.1-0.3,0-0.7,0.2c-0.2,0.1-0.1-0.1-0.3-0.1c-0.3,0-0.1-0.2-0.3-0.2c-0.2,0-0.2,0-0.1-0.3
		c0-0.1-0.3-0.2,0.1-0.3s0.6,0,0.7,0.1c0.2,0.3,0.1,0,0.2,0.1c0.2,0.3,0.2,0,0.2,0.1C234.2,146.4,234.4,146.5,234.4,146.6
		L234.4,146.6z"/>
	<path id="es" class="st1" d="M32.6,33c-0.7,0.1-1.4,0.9-2,1.2c-0.6,0.3-1.3,0.6-2,1c-0.2,1.2-0.1,1.4,0.4,1.6s0.3,0.9,0.2,1.4
		s-0.7-1.6-1.1-0.9c-0.4,0.7-0.6-0.2-1.8,0.2c-1.2,0.4-2.2,0.4-2.7-0.2c-0.3,0.1-0.6,0.1-0.9,0.2c-0.8,0.1-1.3-0.2-2.4,0
		c-0.1,0-0.5,0.2-0.4,0.4c0.3,0.2,1.1-0.1,1,0.2c-0.1,0.5-2.7-0.5-2.2,2.6c0.1,0.9,0.4,1.4,0.7,1.7c-0.1,0.9-0.2,1.2,0.3,0.9
		c0.6-0.4,0.6,0.3,1.4,0.1c0.8-0.2-0.1,0.6-0.6,0.7c-0.5,0.2-0.5,1-1,1.4s0.1,0.6,0.1,1c-0.1,0.4,0.5-0.6,1.6-1.2
		c0.8-0.4,0.2-0.2,0.7,0.1c-0.1,0.1-0.3,0.2-0.4,0.3c-0.3,0.4-0.1,0.9-0.3,1.2c-0.1,0.1-1-1.1-0.9-0.2c0.1,0.4,0.4,0.8,0.7,1
		c0.5,0.2,1.8-0.6,1.7,0c-0.2,0.7-1.4,0.4-2,0.7c-0.4,0.4-0.2,1.2,0.3,1.1c0.6-0.1,1.2-0.7,1.7-0.7c0.3-0.1-0.1,0.4-0.3,0.5
		c-0.7,0.6-2.1,0.3-2.3,1.1c-0.1,0.2,0.3,0.6,0.1,0.7c-0.2,0.2-0.7-0.5-0.7-0.2c0,0.8,1,1.4,0.8,2.2c1.4-0.8,3.8-1.3,5.5-0.9
		c0.2,0.1-0.3,0.5-0.2,0.7c0.2,0.2,0.6,0,0.7,0.2c1.1,1.1-3.3,1.5-1,3.1c0.8,0.6,2-0.7,2.4-0.8c0.1-0.1,0,0.3,0,0.4
		c0,0.2-0.2,0.4-0.1,0.5c0.6,0.1,1.2-0.1,1.8,0c0.4,0,0.8,0.1,0.9,0.5c0.2,0.2-0.6,0.4-0.4,0.5c0.3,0.2,0.7-0.3,1.1-0.1
		c0.4,0.1,1.8,1.4,3.1,0.3c0.2-0.2-0.2-0.7,0-0.8c0.8-0.6,0.8,0.4,1.2,0.6c2.2,0.8,2.5,0,4.3,0.9c0.4,0.2-0.5,3.8,0,3.9
		c0.7,0.1,3.1-0.1,2.5,1.8c-0.8,2.1-3.4,2.1-4.8,2.9l-2,2.1c-0.4,0.2-1.1-0.4-1.3-0.1l0.8,2.3c0.1,0.8-0.5,1.5-0.6,2.2
		s-0.1,1.3-0.4,2c-0.1,0.3-0.5,0.3-0.6,0.5c-0.6,1.1,0.5,0.3,0.4,1.2c-0.1,1.3-3,0.5-2.7,2.2c0.3,2,1.7,1,0.4,3.6
		c-1.1,2.2-1.6,2-3.7,1.4c-0.8-0.2-1.4-0.3-2.2-0.6c-0.2,0-0.6-0.3-0.5-0.1c0,0.1,1.5,3,1.6,3.1c0,0.2-0.7,2.1-0.1,3.4
		c0.4,0.8,2.2,2,2.2,2.2c-0.2,2.4-2.1,2.3-3.5,3.4c-1.6,1.3,0,0.5-0.6,1.6c-0.3,0.7-0.9,1.1-1.2,1.8c0,0.2,0.6,0,0.7,0.2
		c0.4,0.5,0.4,1.1,0.6,1.7c0.2,0.6,0.1,1.3,0.6,1.7c0.5,0.3,1.4-0.5,1.7,0c1.1,1.9-3.5,2-3.6,2.1c-0.6,0.3-0.5,1.3-1,1.8
		c-3.1,2.7-2.2,3.4-2.4,7.3c1.2,0,2.9,0.3,3.3,0.5c0.5,0.3,0.7,1,1.3,0.9c0.2,0,0.3-0.1,0.4-0.3v0.2l2.5,2.4c0.4,0.5,0.7,0.9,1,1.5
		c0.2,0.5,0.1,1.4,0.4,1.7c-0.5,0.3-0.8,0.6-0.8,0.8c0,0.1,0.1,0.2,0.2,0.3c0,1.6,0.7,1.2,1.2,1.4l0,0c0.4,0.8,0.1,0.8-0.6,0.5
		c0,0.1,0.1,0.3,0.2,0.4h-0.1c0.2,0.9,1.1,4,1.8,4.7c0.3,0.3,0.8,0,1.1,0.3c0.5,0.4,0.6,1,0.9,1.5c0.3,0.3,0.8,0.4,1.2,0.7
		c0.3,0.2,0.3,0.9,0.6,0.8c0.8-0.3,1.2-1.1,1.8-1.5c0.4-0.3,0.9,0.3,1,0.2c0.8-1.2,0.7-2,2.3-2.8c2.1-1,3.9,0.7,5.4,0.1
		c1-0.5,1.6-1.9,2.7-2.2c1-0.2,6.6,0.7,7.8,1.1c0.7,0.2,1,0.7,1.7,0.9c1.2,0.2,2.4-0.5,3.6-0.2c0.8,0.1,2.8,1.7,3.7,1.4
		c0.7-0.2,0.9-0.9,1.5-1.1c2.8-0.8,3.2,2.3,4.3,1.7c3-1.5,3-5.1,5.9-7c1.7-1.1,4-2.1,6-1.5c0.5,0.1,0.9,0.6,1.4,0.6
		c0.8,0.1,1.8,0.2,2.1-0.5c0.2-0.7-1.3-0.9-1.3-1.7c0.1-3,1.8-0.9,2.5-2.7c0.3-0.6-0.3-1.4,0.1-2c0.3-0.5,1.1-0.1,1.4-0.5
		c0.3-0.4,0-1.1,0.4-1.6c0.2-0.2,0.7,0.2,0.9,0c0.4-0.3,0.2-0.9,0.5-1.2c0.7-0.5,1.5-0.6,2.2-0.7c0.2,0,0.5,0.3,0.7,0.1
		c0.2-0.1,0.2-0.6,0.4-0.7c0.7-0.5,2.2-0.7,2.9-1.2c0.8-0.6-2.6-2.6-2.9-2.9c-0.8-1.2-1.9-5.7-1.1-7.1c1.7-3.5,5.1-6.1,7.8-8.8
		c0.9-0.9,1.3-2.5,2.5-3.4c0.2-0.1,3.1-0.7,3.1-1c0.1-0.7-1.3-0.6-1.6-1.2c-0.2-0.8,1.1-1.3,1.8-1.9c2.5-2.1,8.3-1.4,11.4-2.3
		c0.8-0.2,1.7-1.6,2.2-2c0.8-0.7,2.3-1,3.4-1.4c1.1-0.5,5.2-2.1,5.6-3.1c0.9-1.6-0.6-3.8-0.2-4.1c0.5-0.5,1.7-0.3,1.9-1
		c0.2-0.6-0.2-1-0.7-1.5h-0.4c-1.5-0.4-3.2-1.2-4.6-0.3c-0.3,0.2,0.1,0.9-0.3,1c-0.9,0.3-2.5-1.6-3.5-1.6c-0.8,0-1.5,0.5-2.2,0.6
		c-0.6,0.1-0.7-0.9-0.8-1.1c-0.5-0.4-1.2-0.6-1.9-0.8c-2.9,0.8-2.7-0.5-2.2-1.4v-1c-0.5-0.3-0.2-1.1-0.7-1.5
		c-0.3-0.3-0.8-0.3-1.3-0.4c-0.2,0-0.5,0.1-0.6,0c-1-0.9-2-2.1-3.6-2.3c-1.1-0.2-0.7,2-0.7,2c-1-0.1-1.9-0.8-2.8-0.7
		c-0.3,0-0.3,0.6-0.6,0.6c-0.6-0.1-0.8-0.7-1.4-0.8c-0.6-0.1-0.9,0.5-1.5,0.4c-1.2,0-0.8-1.2-1.4-1.8c-1.3-1.1-2.5,0.6-3.7-0.4
		c-0.1,0-1-2.2-1.1-2.2c-1.2-0.9-3.3-0.5-4.6-1.7c-0.2-0.2,0.1-0.7,0-0.8C89.5,53,89,54,88.4,53.9c-1.2-0.6,1.5-1.7,0.7-2.6
		c-0.3-0.4-0.8-0.6-1.3-0.7c-0.1,0,0,0.5-0.2,0.4c0,0-1.1-0.9-1.6-1.5c-1.8,0.5-4.4,0.6-5.6-0.1c-0.5-0.3-0.7-0.9-1.3-1.2
		c-0.2-0.1-0.5-0.1-0.7,0c-0.3-0.2-0.7-0.3-1-0.4c-0.1-0.2-0.1-0.4-0.2-0.5c-0.5,0.1-1.2,0-2-0.2c0,0,0,0,0-0.1
		c-0.2,0.1-0.4,0.2-0.5,0.3c-0.2,0.2,0.3,0.8,0,0.8c-0.8,0-2.8-2-3.6-2.2c0.1-0.1,0.2-0.3,0.2-0.4c-0.1-0.1-0.2-0.2-0.2-0.3
		c-1,0.1-1.4-0.2-2,0.2c-0.8,0.4-1.3,0.5-0.8,0c0.4-0.5,0-0.6-1.2-0.5c0-0.1,0-0.2-0.1-0.3c-0.2,0.1-0.2,0.5-0.4,0.6
		c-3.1,0.9-9.2-2.1-11.5-3.6c-0.3-0.2-0.8,0.5-1,0.2c-0.2-0.1,0.4-0.4,0.2-0.6c-0.6-0.6-1.7,0-2.2-0.5c-0.6-0.5-0.7-1.6-1.3-1.8
		c-0.8-0.2-1.4,0.7-2.2,0.7c-0.6,0-0.9-0.6-1.4-0.7c-0.6-0.1-1.8,0.2-2.4,0.1c-2.6-0.4-1.2-0.5-3.8-1.1c-0.2,0-0.3,0.1-0.4,0.2
		c-1.2-0.2-1.8-0.3-2.4-0.8c-0.9-1.5-1.3-3.6-3.1-3.6c-0.8,0-1.2,1.3-2,1.2c-0.5-0.1,0.5-1.2,0.1-1.5C33,33,32.8,33,32.6,33L32.6,33
		z M132.7,95.9c-0.3,0-0.7,0.1-1.2,0.1c-0.9,0.1-0.7,0.2-0.6,0.9c0.1,0.7,0.1,1,1.2,0.8c1.1-0.2,0.8,0.7,1.9,1.2
		c1,0.5,1.4,0.4,1.2-0.7c-0.1-1.2-0.6-1.2-0.9-1.7C134.1,96.2,133.7,95.9,132.7,95.9z M125.3,96.6c-0.2,0-0.6,0-1,0.1
		c-1.8,0.4-2.6,0.4-3.4,1.1c-0.8,0.7-2.1,1.3-3.5,2.1c-1,0-0.2,1.2,0.5,1.8c0.7,0.6,0.8,0.2,1-0.4s0.6-0.8,1.3-0.2
		c0.7,0.7-0.1,1.8,0.3,2.3c0.4,0.5,1.5-0.1,1.8,0.8s0.4,1.1,1.3,0.5c1-0.6,1-0.6,1.7-1.6s1.6-1.9,1.9-2.7s-0.7-2.1-0.8-1.7
		s-0.7,1.2-1.5,0.4c-0.8-0.8,0.2-0.8,0.2-1.4s-0.4,0.4-0.6-0.3c-0.2-0.7,0-0.2,0.7-0.5C125.7,96.8,126,96.5,125.3,96.6L125.3,96.6z
		 M108.7,105c-0.4,0-1,0.4-2,0.8c-0.7,0.7-0.7,0.4-0.2,0.7c0.4,0.4-0.6-0.1-0.7,0.5c-0.1,0.6,0.1,0.7,0.4,1c0.3,0.2,1.4,0.6,1.1,0.2
		c-0.3-0.4,0.6-0.4,1-0.9s1.3-1,1-1.8C109.1,105.1,108.9,105,108.7,105z M107,109.7c-0.7,0.1-0.5,1.7,0,1.1c0.5-0.7,0.5,0.2,1.1,0.4
		s1.3-1,0.2-0.6C107.1,110.9,108.3,109.8,107,109.7z M36.8,132.8c-1,0.1-2.1,0.8-2.2,0.9l0.7,2.7h2.1c0-0.3-0.1-0.5-0.1-0.7
		c-0.1-0.6-0.3-1.1-0.1-1.7c0.1-0.3,0.9-0.4,0.8-0.7c-0.1-0.3-0.4-0.5-0.7-0.5C37.1,132.8,36.9,132.8,36.8,132.8L36.8,132.8z
		 M60.2,143.3c-0.3-0.1-0.9,1.4-1.4,1.8l1.4,0.9c0-0.8,0.2-1.8,0.1-2.5C60.2,143.4,60.2,143.3,60.2,143.3z M60.6,145.5
		c0,0-0.1,0.1-0.1,0.2v0.1L60.6,145.5C60.7,145.5,60.6,145.5,60.6,145.5L60.6,145.5z"/>
</g>
</svg>
