<?xml version="1.0" encoding="utf-8"?>
<!-- Generator: Adobe Illustrator 27.0.1, SVG Export Plug-In . SVG Version: 6.00 Build 0)  -->
<svg version="1.1"
	 id="Layer_1" xmlns:inkscape="http://www.inkscape.org/namespaces/inkscape" xmlns:sodipodi="http://sodipodi.sourceforge.net/DTD/sodipodi-0.dtd" xmlns:svg="http://www.w3.org/2000/svg" xmlns:cc="http://creativecommons.org/ns#" xmlns:dc="http://purl.org/dc/elements/1.1/" xmlns:rdf="http://www.w3.org/1999/02/22-rdf-syntax-ns#"
	 xmlns="http://www.w3.org/2000/svg" xmlns:xlink="http://www.w3.org/1999/xlink" x="0px" y="0px" viewBox="0 0 600 438.4"
	 style="enable-background:new 0 0 600 438.4;" xml:space="preserve">
<sodipodi:namedview  bordercolor="#666666" borderopacity="1" gridtolerance="10" guidetolerance="10" id="namedview123" inkscape:current-layer="Layer_1" inkscape:cx="600" inkscape:cy="615" inkscape:pageopacity="0" inkscape:pageshadow="2" inkscape:window-height="716" inkscape:window-maximized="1" inkscape:window-width="1366" inkscape:window-x="-8" inkscape:window-y="-8" inkscape:zoom="0.40406504" objecttolerance="10" pagecolor="#ffffff" showgrid="false">
	</sodipodi:namedview>
<g id="g3248">
	<path id="Benin" inkscape:connector-curvature="0" style="fill:#CCCCCC;stroke:#000000;stroke-linecap:round;" d="M359.4,375.9
		l-15.3,2l-7.9-62c-1-4.7-5.7-6.8-9.3-9.7l1.9-10.1l9.9-7.8l10.3,0.4l7.6-12.2l17.1,2.7l0.1,13.6c4.9,5.2,4,12.2,0.3,14.4
		c0.3,6.5-0.9,11.9-5.2,11.8c-2.6,7.1-4.9,15.5-8.6,18.5L359.4,375.9L359.4,375.9z"/>
	<path id="Burkina_Faso" inkscape:connector-curvature="0" style="fill:#CCCCCC;stroke:#000000;stroke-linecap:round;" d="
		M269.7,321.3c-3.2-0.4-4.3-4.7-6.9-7.2c-5.1-4.9-14.8-1.2-22.6,3.5c-9.4-4.7-10.7-8.9-12.4-12.8c1.9-5.1,0.6-11.8,3.2-17.2
		c2.3-4.8,6.2-9.3,13.2-13.1l8.5-17.8c7.3-2.4,13.9-3.3,19.6-5.3c5.5-1.9,10.4-5.1,13.5-9.1c10.9-6.7,24.4-15.3,32.7-13.2
		c-0.1,2.7-0.1,5.5,1.6,7.8c2.8,1.9,2.2,5.1,1.6,8.3l16.8,22.6l6.4,2.1c0.9-1.1,5.5-6.7,7.8,5.7l3.8,0.8l-7.4,12.4l-10.4-0.6
		l-10,7.8l-15.1-1.8c-8.7-0.1-9.5,1.5-13.2,2.6l-33.5-1L269.7,321.3L269.7,321.3z"/>
	<path id="Elfenbeinkueste" inkscape:connector-curvature="0" style="fill:#CCCCCC;stroke:#000000;stroke-linecap:round;" d="
		M184.8,408l6.4,0.6l50.8-14.4l18.2,2l2.6-10.8c-0.6-8.6-7.9-17.5,2-25.8c0.9-6.3,0.4-13.2,7.2-17.2l-2.3-21.3
		c-2.8,0.1-4-2.8-5.4-5.4c-3.3-5.6-14.2-4.9-24.3,1.9c-4.8-3.4-10.4-5.7-12.3-13c-6.7-2.5-12-1.1-16.3,2.6l0.8-7.3
		c-1.1-2.8-4.9-2-9.3-0.3c-1.1,0.1-0.3,1.9,0.9,4.1c-1.6,0.6-3.3,0.7-4.9,1c-1.1,1.4-2.8,2.9-4.6,3.3c-4.6-8-7.2-6.5-12.7-2.1
		c-1.9,1.5-3.1,5.2-3.8,8.3c-0.9,3.6,0.7,7.1,4.6,6.6l-0.4,4.8c2.8,1.2,2.2,1.7-0.4,4.5c-1.2,1.2,3.3,6.9,2.8,8.2l-8.6-1.7
		c-0.2,1.4-0.5,3.3-0.7,4.8l4,1.7l-3.2,8.4c0.4,0.7-3.8,0.2-4.9,0.4l0.1,5.3c4.4,1.2,2,11.5-2.1,13.1l6,3.8c1.3-1,5.1-0.1,7.5,6.5
		c0,0,6,3.8,5.9,8.5c-0.1,3.8-2.7,4.4-3.3,7.3L184.8,408L184.8,408z"/>
	<path id="Gambia" inkscape:connector-curvature="0" style="fill:#CCCCCC;stroke:#000000;stroke-linecap:round;" d="M41.5,242.8
		h18.4c4-5.3,9.8-3.6,16.4,1.2l10.6,0.8l2.3,3l-7.7,2.7c-5.3-1.1-10-3.1-14.3-5.8c-3.1,1.8-6.6,2.9-11,2.5l-2,3.3l-15.9,0.7
		L41.5,242.8z"/>
	<path id="Ghana" inkscape:connector-curvature="0" style="fill:#CCCCCC;stroke:#000000;stroke-linecap:round;" d="M331.9,381.3
		c-1.6,2.1-1.8,6.6-6.2,4c-22,2.7-30.7,12-46,18l-19.4-7.1l2.6-10.8c-0.6-8.6-7.9-17.5,2-25.8c0.9-6.3,0.4-13.2,7.2-17.2l-5.2-46.5
		l33.5,1c4.5-2.4,9.2-2.7,14-2.7c-2.6,5.3-1.2,10.3,5.1,15c5.1,21,4.5,41.2,6.1,61.7L331.9,381.3L331.9,381.3z"/>
	<path id="Guinea" inkscape:connector-curvature="0" style="fill:#CCCCCC;stroke:#000000;stroke-linecap:round;" d="M63.6,291.2
		c-0.6,1.8-0.4,2.7,1.9,2.7c0.9,1.1,4.3-6.9,3.8,1.2l3,0.3c-1,4.5,2,10,5,11c3.7,1.3,5.8,5.6,7.9,7.5l5.1,9.4
		c3.5,2.4,8.3,0.7,15.9-9.5c-0.8-3.4,3.9-5.2,17.8-4.3c11.5,8.3,14.9,17.9,10.6,28.8c5.1-1.2,8-4.7,16.5-2.5
		c4.3,5.4,6.9,11.3,3.4,19.3c4.7,1.8,6.4,6.9,13-1.8c-0.4-2,1.2-2.7,3.2-1.2c1.3,0.9,3.3-0.5,5.3,0l3.5-9l-4.3-1.7l0.8-4.7l8.7,1.8
		c-0.7-3.2-5-7.4-1.8-9.6c1.4-1.5,0.8-2.6-0.7-3.7l0.2-4.1c-8.4-1-3.6-10.4-0.7-15.1l-5.2-4.7l-0.6-10.4l-4.3,3.1l-1.6-2.4l5.7-5.2
		l-7.7-5.9c1.3-4.1-0.4-9-1.8-14.1l-5.4-1.2c0.1,2.3-0.7,4.1-3.1,4.9c-2-0.6-3.3,0.7-3.7,3.9l-9.6-4l-7.6,5.5c1-2.5-1.5-4-3.1-5.8
		l-4.2,2.8c-3.3,1.1-3.7-0.7-3.7-2.9c0.7-0.7,1.5-1.3,1.8-2.4c-11.9-1.8-24.3-1.1-35.1-7.6l-3.4,0l-1.5,18.4l-9.3,0.2
		C69.2,281.7,64.7,290.1,63.6,291.2L63.6,291.2z"/>
	<path id="Guinea-Bissau" inkscape:connector-curvature="0" style="fill:#CCCCCC;stroke:#000000;stroke-linecap:round;" d="
		M37.4,264.3l1.1,3.1c2.3,1.6,6.7-1.6,6.4,6c2.1,1.1,4.7-1.1,6.3,4c2.6,1.3,9.2-10.9,6.8,7.3l5.8,6.4c3.5-5.4,8.7-10.8,14.1-12.7
		l9.5-0.2l1.6-18.4l-24.6-0.1c-5,2.4-10.1,3.8-15.6,2.6C45.4,263.5,41.8,264.2,37.4,264.3L37.4,264.3z"/>
	<path id="Liberia" inkscape:connector-curvature="0" style="fill:#CCCCCC;stroke:#000000;stroke-linecap:round;" d="M184.7,407.9
		l-14.3-5l-50.5-41.3l16-13.4l-0.3-4.8l7.8-7.6c2.3-1.6,5.2-0.5,7.8-0.2c6.7,9.8,4.9,14.4,3.1,19.4c3.8,1,6.7,7.3,13-1.7
		c-0.2-2.5,1.4-2.5,4-1v4.8c2.1,0.9,3.6,4.9,1.6,8.7c-1.1,2-1.8,4-4.1,4.4l6.6,4c1.9-0.3,3.5-1.7,7.4,6.6c0.8,1.2,10.7,5.3,2.5,15.1
		L184.7,407.9L184.7,407.9z"/>
	<path id="Mali" inkscape:connector-curvature="0" style="fill:#CCCCCC;stroke:#000000;stroke-linecap:round;" d="M248.9,53
		l-25.5,0.7l1.2,147.1l6.7,2.4l-4.7,14.4l-75.1-4.2l-8.6,6.1l-4.7-1.7l-3.3-9.7l-4.3-1.1c-8.5,18.5-9.8,16.3-12.9,19.5
		c0.5,1.9-0.7,3.7-0.1,5.4c1.9,5.4,3.1,10.9,0.2,13.3c3.9,3.5,9,6.3,10.4,11.3c0.3,6.4-0.1,11.3-1.8,13.1c-1.7,1.7,0.3,5.7,3.9,2.7
		l3.5-2.1c1.1,1.8,3.6,2.8,3.3,5.5l7.6-5.2l9.3,3.9c0.9-1.4-0.2-3.6,3.4-4.1c1.9,0.1,3.2-1.3,3.8-4.6l5.1,1.2
		c1.4,4.8,3,9.6,2.2,14.1l7.5,5.7l-5.7,5.3l1.6,2.4l4.2-2.8l0.6,10.1l5.3,4.9c2.2-2.2,5.6-4.9,8.3-3.5c2.5,1.3,3.6,6.3,6,4.7
		c2.4-1.6,2.9-3.2,6.7-3.2c2.8,0-2.4-4.9,1.1-4.8c1.6,0,4.2-1.9,7.1-1.1c2.7,0.7-0.7,10.9,1.3,8.7c5-5.4,14.8-3.3,15.8-2.1
		c2.8-9.9-2.6-19,16.3-30.5l8.4-17.6c11.2-4.7,23.1-2.6,33.4-14.7c12.9-8.6,25.8-15.1,32.8-13.2l13,0l7.3-6.2l35,0.4
		c0.9-1.7,1.4-3,6.2-5.4c0-4.2,3.8-4.5,6.5-5.8l1.4-51.9l-13.1,1.9c-5.2-3.4-0.8-4.5-0.8-12c-3-6.7-6.7-7.7-10.4-7
		c-3.2,0.6-4.7-4-6.4-3.7c-2.9,0.6-6.1-2.2-8.1-6.4c-0.7-1.4-2.5-2.1-3.7-2.9c-2.7-1.9-5.2-3.3-4.5-6.2
		C341.2,123.8,278.6,76,248.9,53L248.9,53z"/>
	<path id="Mauretanien" inkscape:connector-curvature="0" style="fill:#CCCCCC;stroke:#000000;stroke-linecap:round;" d="
		M116.5,109.5c2.1-14.7-7.1-35.4,21.5-35.9l6-44.4l50.9,4.5l2.8-20l51.3,39.4l-25.6,0.6l1.3,147.2l6.5,2.3l-4.4,14.3l-75.3-4.1
		l-8.6,6.1l-4.6-1.5l-3.3-10l-4.6-1.1c0,0-8.3,20.5-13.6,18.4c0,0-2.4-2.6-5-5.3c-2.3-2.4-4.9-4.8-6.7-8.2
		c-2.5-4.8-4.3-12.4-7.7-11.8c-7.4,1.2-13-8.6-13-8.6s-8.6-2.4-14.8-0.7c-8,2.2-17-0.1-18.6,1l7.3-20.4l0.7-23.7l-4.5-7.1
		c2.4-4.2,9.7-8.1,4.9-20.7c-0.5-1.4-3.1-0.7-3.1-0.7l-3.1-9.3l3.8-3.8L116.5,109.5L116.5,109.5z"/>
	<path id="Niger" inkscape:connector-curvature="0" style="fill:#CCCCCC;stroke:#000000;stroke-linecap:round;" d="M388.2,160.2
		l-1.4,51.9c-2.3,1.3-5.5,0-6.4,5.6c-2.6,1.5-5.7,2.5-6.3,5.5l-35.1-0.3l-7.1,6l-13.3,0.1c-0.4,2.9-0.3,6.4,1.9,8.2
		c2,1.6,1.7,4.9,1.2,7.8l16.8,22.4l6.1,2.3c3.4-3,6.5-3.8,8,6.1l20.8,3c1.5-3.3,1.1-7.9,4.9-9.6c5.7-3.2,4.7-8.8,6.8-13.3
		c4.6-2.2,1.7-5.3,26.1-5.1c6.3,4,12.4,5.3,19.1,13.3l4.9,0.2c0.1-1.7,5.1-5.1,8.1-5.7c3.3-1.8,9.1,1.3,16.8,8.1l13.8,1.2l13.3-9.5
		l23.2-0.6c3.5,1.4,6.1,4.5,11.2,3.2c3.7-4.2,10.8-8.2,18.9-11.6c-1.3-3.7-2.7-7.3-1.5-12c2-1.7,4.4-1.9,4.7-8.1l28-31.1l5.2-49.6
		l4-10c-8-3.3-13.5-6.4-15.2-17.4c-1-6,0.4-13.8-0.2-25l-5,0.9c-2.7-3.2-5.4-6.7-8.9-7.9l-39.3-1.4l-99.5,65.6L388.2,160.2
		L388.2,160.2z"/>
	<path id="Nigeria" inkscape:connector-curvature="0" style="fill:#CCCCCC;stroke:#000000;stroke-linecap:round;" d="M454,402.5
		l-3.4-0.2l-1.1,5.9c-5.8,0.1-11.5-0.5-17.3-2.6c-13.8,8.6-24.7,7.2-30.3-12.6c-4.3-11-11.2-14.6-18.5-17.1l-24,0.1l1-38.3
		c3.8-4.8,6.2-11.6,8.3-18.7c6.4-1.6,5-7.2,5.3-12c6.4-4.2,2.2-10.9-0.4-15.4l0.4-12.4c0.5-3.5-0.3-7.3,4.8-10.6
		c2-2.4,3.9-1.2,5.9-13.1c3.5-2.7,7.2-5.4,26.1-4.8c6.6,3.5,15,6.3,19.6,13.4l4.3-0.2c2.7-1.9,3.6-5.3,8.6-5.5
		c2.8-0.1,3-2.8,16.5,7.8l14.1,1.3l13.1-9.4l23.5-0.5c3.4,1.4,6.2,4.6,10.7,3.2c5.9-5.8,13-8.9,19.7-11.7c2.7,4.3,6.4,8.5,9.7,11.1
		l-2.2,1.8l2.8,11.3c1.3,1,3.7,1.3,3.8,3.1c2.5,11.1-3.7,14.6-11.1,17c-9.4,7.3-11.8,27.4-17.2,41.9c-10.5,3.1-14,22.5-22,38.5
		c-7.7,1.5-9.7-2.3-14.6-7.5l-16.9,1.1l-0.4,4.5C462,377.8,459.6,390.6,454,402.5L454,402.5z"/>
	<path id="Senegal" inkscape:connector-curvature="0" style="fill:#CCCCCC;stroke:#000000;stroke-linecap:round;" d="M51.2,190.9
		c-3,5.1-5,7.8-5.1,12c-0.2,9.5-9.7,12.6-14.5,19.5c4.4,6.5,9.3,12.8,10,20.4h18.4c4-5.3,9.8-3.6,16.4,1.2l10.6,0.8l2.3,3l-7.7,2.7
		c-5.3-1.1-10-3.1-14.3-5.8c-3.1,1.8-6.6,2.9-11,2.5l-2,3.3l-16,0.7c-0.9,4.3-1.8,8.7-1,13c3.9-0.4,7.6,0.2,11.7-2
		c5.5,1.4,10.7,0.2,15.7-2.7l27.7,0.3c10.4,5.9,23.4,6.6,35.4,7.3c0.6-6.3,4.1-12.5-9.6-22c2.1-2.7,1.3-8.9-0.5-13.4
		c-1-2.5,1-3.3,0-6c-1.3-0.7-2.9-2.8-5-4.8c-2.4-2.3-7.4-8.9-7.4-8.9c-2.9-8.7-6.7-12.3-6.7-12.3C89.5,201.1,84,191,84,191
		c-7.6-2.1-11.6-0.5-14.9-0.4C60.5,191.1,58.7,192.2,51.2,190.9L51.2,190.9z"/>
	<path id="Sierra_Leone" inkscape:connector-curvature="0" style="fill:#CCCCCC;stroke:#000000;stroke-linecap:round;" d="
		M119.9,361.6l-13.1-6.7c-1.5-4.1-5.5-6.3-9.6-8.4c0.4-5.7-3.4-7-6-9.1l-0.9-13.7c5.8,2.2,10.9-3.6,15.9-10
		c-1.2-5,10.2-4.5,17.8-4.4c7.6,6.6,15.6,13,10.7,29.1c3.3-1.2,6.3-2.6,9.9-3.5l-9.1,8.5l0.3,4.8L119.9,361.6L119.9,361.6z"/>
	<path id="Togo" inkscape:connector-curvature="0" style="fill:#CCCCCC;stroke:#000000;stroke-linecap:round;" d="M331.9,381.3
		l11.9-3.4l-7.9-62c-1-4.7-5.7-6.8-9.3-9.7l1.9-10.1l-14.1-1.8c-2.6,5.3-1.2,10.3,5.1,15c5.1,21,4.5,41.2,6.1,61.7L331.9,381.3
		L331.9,381.3z"/>
</g>
</svg>
