<?xml version="1.0" encoding="utf-8"?>
<!-- Generator: Adobe Illustrator 27.0.1, SVG Export Plug-In . SVG Version: 6.00 Build 0)  -->
<svg version="1.1"
	 id="svg3157" xmlns:cc="http://creativecommons.org/ns#" xmlns:inkscape="http://www.inkscape.org/namespaces/inkscape" xmlns:svg="http://www.w3.org/2000/svg" xmlns:rdf="http://www.w3.org/1999/02/22-rdf-syntax-ns#" xmlns:sodipodi="http://sodipodi.sourceforge.net/DTD/sodipodi-0.dtd" xmlns:dc="http://purl.org/dc/elements/1.1/"
	 xmlns="http://www.w3.org/2000/svg" xmlns:xlink="http://www.w3.org/1999/xlink" x="0px" y="0px" viewBox="0 0 406.3 377.9"
	 style="enable-background:new 0 0 406.3 377.9;" xml:space="preserve">
<style type="text/css">
	.st0{fill:#C0C0C0;stroke:#FFFFFF;stroke-width:0.4048;stroke-miterlimit:4.0412;}
	.st1{fill:#C0C0C0;stroke:#FFFFFF;stroke-width:0.404;stroke-miterlimit:4.0412;}
	.st2{fill:#C0C0C0;stroke:#FFFFFF;stroke-width:0.404;stroke-miterlimit:4.0495;}
	.st3{fill:#C0C0C0;stroke:#FFFFFF;stroke-width:0.4048;stroke-miterlimit:4.0495;}
	.st4{fill:#C0C0C0;stroke:#FFFFFF;stroke-width:0.202;stroke-miterlimit:4.0412;}
</style>
<sodipodi:namedview  bordercolor="#666666" borderopacity="1" gridtolerance="10" guidetolerance="10" id="namedview3085" inkscape:current-layer="layer1" inkscape:cx="538.32993" inkscape:cy="212.63315" inkscape:pageopacity="0" inkscape:pageshadow="2" inkscape:window-height="706" inkscape:window-maximized="1" inkscape:window-width="1366" inkscape:window-x="-8" inkscape:window-y="-8" inkscape:zoom="11.313709" objecttolerance="10" pagecolor="#ffffff" showgrid="false">
	</sodipodi:namedview>
<g id="layer1" transform="matrix(1.0020524,0,0,1.0020524,0.25102907,-0.17691186)">
	<path id="nl" class="st0" d="M216.2,47.5c-0.2,0-0.4,0.4,0,0.6c0.4,0.4,0.2,0.2,0.9,0c0.4-0.2,0.4-0.2,0-0.4
		C216.6,47.5,216.6,47.9,216.2,47.5C216.4,47.5,216.2,47.5,216.2,47.5z M218.6,47.7c-0.2,0-0.2,0-0.4,0.2c-0.4,0.2,0.2,0.4,0.6,0.2
		C219.2,47.7,219,47.5,218.6,47.7z M214.7,48.3c-0.2,0-0.6,0-0.9,0c-0.6,0-1.5,0.2-1.9,0.2c-0.2,0-0.4,0.6-0.4,0.9s0,0.6,0.2,0.4
		c0.2-0.2,0.2-0.4,0.4-0.4s1.5-0.2,1.9-0.4c0.4-0.2,1.1-0.4,1.1-0.6C215.1,48.3,214.9,48.3,214.7,48.3z M204.3,48.9c0,0-0.2,0-0.4,0
		c-0.4,0.2-0.6,0.6-0.4,0.9c0.2,0.2,0.4,0.4,0.9,0.4c0.4,0,0.6-0.4,1.1-0.4c0.2,0,0.6,0.4,1.7,0.2c1.1-0.4,1.9-0.2,1.9-0.4
		c0.2,0-0.2-0.2-1.1-0.2C207,49.2,205.3,49.4,204.3,48.9C204.5,48.9,204.5,48.9,204.3,48.9z M202.1,49.4c-0.4,0-1.3,0.2-1.7,0.4
		c-0.6,0.2-3,0.6-3.4,0.6c-0.2,0.2-0.6,0.9-0.9,0.9c0,0.2,0.4,0.4,0.6,0.2c0.2-0.2,0.4-0.4,0.9-0.4c0.6,0,1.3,0,1.7-0.4
		s0.4-0.2,1.3-0.2c0.6,0,1.1-0.4,1.5-0.4s0.9-0.2,0.4-0.4C202.4,49.4,202.1,49.4,202.1,49.4z M220.7,50.2c-0.2,0-0.4,0-0.6,0.2
		c-0.9,0.2-2.3,0.6-3.6,0.9c-1.1,0.2-2.6,0.2-3.4,0c-0.2,0-0.2,0-0.4,0c0,0.2-0.2,0.4-0.4,0.6c-0.2,0.4,1.1,1.3,0.2,1.1
		c-0.6-0.2-1.1-0.9-0.4-1.7c-0.6,0-1.1,0-1.7,0c-1.3,0-2.3,0.2-3.2,0.4s-2.1,0.9-3.4,1.5c-0.6,0.4-2.6,1.3-3.2,1.9l-0.2,0.2
		c-0.6,0.9-1.1,1.5-1.5,2.3l-5.3,4.7l-0.9-0.2c-0.6,0.6-0.9,1.3-2.3,0.9c-0.9-0.2-1.1-0.9-0.6-1.7c-0.6,0-1.1-0.6-1.3-0.4
		c-2.6,3.2-1.7,9.6-3,13c-1.3,3-3.6,6.4-5.8,8.7c-0.9,1.1-1.5,2.1-2.3,2.8c-0.6,0.4-1.7-0.2-1.9,0.6c-0.6,0.9-0.6,2.6,3,5.1
		c1.1,0.6,2.8,2.1,4.5,2.3c0.9,0,1.9-0.2,1.9-0.2s0.6,0.6-1.1,0.9c-1.7,0.2-2.1-0.9-2.8,0c-0.6,0.9-1.5,0.9-2.6,1.3
		c-0.6,0.2-1.1-1.1-1.9-0.9c-1.1,0.2,0.4,1.3,0.4,1.3S174.4,95,174,96c-0.2,0.6,0.6,1.3,1.7,1.7c1.1,0.4,1.9,0.9,2.1,1.9
		c0,0.2-2.1,0.4-2.6-0.4c-0.6-0.9-2.6-3.6-3.2-3.8c-1.9,0.4-3.2-0.2-4.5-0.2c-1.1,0-1.9,0.2-2.6,1.3c-0.4,0.6,0.9,1.9,1.7,2.3
		c0.9,0.4,2.8,0.6,3,1.1c0.6,1.1,1.9,1.1,2.6,0.9c0.4,0,0.2-0.9,0.6-1.3c0.9-0.6,1.5,0.9,2.3,1.1c0.6,0.2,0.9-0.4,2.3,0.9
		c0.2,0.2,0.4,0.2,0.6,0.2c0,0.2,0.2,0.4,0.2,0.6l0.9-0.2l0.4,0.6h0.2c0.2,0.2,0.4,0.2,0.9,0.2c0.6,0,0.2-1.1,0-1.9
		c0.2,0,0.4,0,0.6,0.2c0.2,0.2,0.9,0.2,0.9-0.2c0-0.2,0.4-0.4,0.9-0.6c0,0.2-0.2,0.4-0.2,0.6c1.5,1.3,2.1,0,3-0.9v0.4l0.9-1.1
		l0.9,0.4l0.4,1.1l-0.4,0.9c0,0-0.9-0.6-0.9,0s0.9,0.4,1.1,0.4c0.4,0,0.9-0.2,1.1,0.4v0.2l1.5-1.1l0.4-1.1l0.9,0.2l0.4,1.1l-0.4,0.9
		c0.2,0.9,0.6,1.7,0.9,2.3l1.1-0.2l0.4,0.6l-0.2,0.9c0.6,0.2,1.3,0.2,1.9,0.2h0.9l1.1-0.9l0.9,1.1l0,0v1.1l1.5,0.9v0.4h1.7v0.9
		l0.9-0.4c0.2,0.2,0.4,0.2,0.4,0.4c0.2,0.4-0.9,0.9-1.1,1.3c-0.2,0.6-0.6,1.3-1.1,1.9l0.2,0.6l-0.9,0.9c0,0,0,0,0,0.2
		c0,0.4,1.1,0.2,0.9,0.6c-0.2,0.4-0.9,0.6-1.3,1.3v0.2l-0.9,0.4c0,0-0.4,1.1,0,1.5s0.6,0.2,0.6,0.6s0,0.6-0.4,0.9
		c-0.2,0.2,1.1,0.4,1.3,0s0.6-0.2,0.9,0.2s1.1,0.2,1.3,0s0.4,0.6,0.9,0.4c0.2-0.2,1.5,0,1.5,0l0,0l0,0c0,0,0,0,0-0.2l-0.4-1.5
		c0.4-0.6,1.5-0.6,1.7-1.5c0.6-4.3-3.8-1.9-2.6-5.1c0.6-0.2,0.2,0.6,0.6,0.6l3.8-3.4c0.2-1.1-2.3,0.2-1.7-1.5
		c0.6-1.5,1.9-2.3,2.6-3.8c1.1-2.6,0-4.9-1.5-6.6l0.2-0.9c0,0-1.3-0.4-1.3-1.1s0.2-0.9,0.2-0.9l-1.3-0.6L206,94l-0.4-0.9
		c0-0.2-0.2-0.6,0-0.6c1.1-0.6,2.1,0,3.4-0.4c0.4-0.2-0.4-1.5,0-1.3c1.3,0.4,1.9,1.7,3.4,1.7c0.9,0.2,3.6-0.6,5.5-1.5l0.2,0.2
		c0,0,0.6-0.4,1.1-1.1c0.2-0.2,0.4-0.4,0.4-0.6v-0.2v-0.2c0-0.2-0.2-0.2-0.2-0.4c0,0-0.2,0-0.2-0.2c-0.2-0.2-0.4-0.2-0.6-0.4
		c-1.7-1.1-0.4-1.1-0.2-1.7l0,0c0.4-0.2,0.6-0.4,1.1-0.6c0.4,0,0.9,0,1.1-0.2c0-0.2,0.2-0.4,0.2-0.6c0.9-0.6,1.7-1.1,2.3-1.9
		c0.2,0,0.4-0.2,0.2-0.6c0.4-0.9,0.6-2.1,0.4-3.6c0-0.6-0.4-0.9-0.9-1.3c-0.2-0.2-0.2-0.6-0.2-0.6l-0.4,0.4l0,0l-0.2,0.4l-4-1.7
		l0.2-0.4c-0.4-0.4-0.4-0.9,0-1.5c0.2-0.6,1.3,0,1.3-0.4c0.2-0.6-0.9-1.3-0.6-1.7c0-0.4,0.6-0.4,1.1-0.4c1.5,0,2.6,0.6,4,0.6
		c1.3,0,0.6-1.7,0.6-3.4l0,0c0.2-1.1,0.4-2.1,1.1-3c0.9-1.1,1.3-2.3,1.5-3.2c0.2-0.4,0.2-0.9,0-1.1l0,0l0,0c0-0.4-0.2-0.9-0.2-1.5
		c-0.2-1.1-0.4-0.4,0-1.3c0.4-0.6,0.2-1.7,0-2.1c-0.2,0-0.4,0.2-0.6,0c-0.2,0-0.4-0.2-0.6-0.4l0,0c-0.4-0.2-0.6-0.6-1.1-1.1
		c-0.6,0-1.7-0.9-2.1-1.5c-0.4-0.6-0.2-1.9-0.4-2.3C222.4,50.2,221.5,50.2,220.7,50.2z M194.7,52.4c-0.6-0.2-3.2,1.7-3.6,2.1
		c-0.2,0.2,0,0.2,0,0.4s0.4-0.2,0.9-0.2c0.4,0,1.1-0.6,1.1-0.9c0.2-0.4,0.4-0.4,0.9-0.4c0.4-0.2,0.6-0.4,1.1-0.4
		C195.3,53,195.3,52.6,194.7,52.4z M191.1,55.5c-0.2,0-1.1,1.3-1.9,2.6c-0.2,0.4-0.6,0.6-0.6,1.7s0.6,0.6,1.3,0.4
		c0.6-0.2,0.6-0.4,1.1-0.9c0.4-0.2,0.9-0.9,0.9-1.3c0-0.4,0.2-1.1,0.2-1.5C191.7,56.2,191.3,55.5,191.1,55.5z M199.2,58.7
		c0,0,0,0.6,0,0.9c0,0.4,0.4,1.7,0.4,2.1c-0.2,1.5-0.6,0.9-0.9,2.3c0,0.9,0.6,0.6,2.3,1.1c0.9,0.2,2.1-0.6,2.8,0
		c0.6,0.6,0,0.6-0.9,1.1s-1.3,2.6-0.9,3.8c0.2,0.6,0.4,1.3,1.1,1.3c0.9,0,1.9,0,2.6,0.2c1.1-0.2,1.5-0.2,1.7-0.4
		c0.4-0.2,0.9-0.6,0.9-0.6l0.6,0.4c0,0-0.9,0.4-1.3,0.6c-0.4,0-0.6,0-1.1,0c-0.4,0.2-0.6,0.4-0.6,0.6s0.2,0.2,0.4,0.4
		s0.2,1.3-0.4,2.6c-0.2,0.2-0.4,0.6-1.1,1.1c-1.1,0.9-2.1,1.3-2.6,1.7c-0.9,0.6-1.1,1.1-1.3,1.7c-0.2,0.9-0.9,0.9-1.9,1.1
		c-0.6,0-1.1,0-1.3-0.4c-0.4-0.6-1.1-0.6-1.3-0.9c-0.4-0.4-1.5-0.4-1.7-0.4c-0.4,0-0.2-0.2-0.4-0.4l-2.6-1.1c-0.6-0.2,2.8-1.7,2.6-3
		c-0.2-0.9-2.1-2.8-1.3-4c1.3-0.9,1.1,0.6,1.7,0.4c0.6-0.2,2.6-1.7,2.6-2.6c-0.2-0.2-0.4-0.6-1.1-0.6c-1.1,0-1.1-0.4-1.3-0.9
		c-0.4-0.6,0-1.5,0-1.9s-0.2-1.3-0.2-1.3L199.2,58.7z M202.6,71.3c-0.2,0-0.2,0-0.6,0c-0.6,0-1.5,1.1-1.7,1.1s-0.4,0-0.6,0.4
		c-0.2,0.4-0.2,0.4-0.2,0.6s-0.9,0.6-0.9,0.6s-4.3,2.6-4.5,2.6c-0.2,0.2,0.2,1.1,0.2,1.1c0,0.2,0.2,0.2,0.4,0c0.2,0,0.6,0,0.9,0.2
		c0.4,0.2,0.9,0.4,1.3,0.9c0.4,0.4,1.1,1.1,1.1,1.3c0.2,0.2,0.9,0,1.5,0c0.6-0.2,0.6-0.2,0.9-0.9c0.2-0.6,0.2-0.9,0-1.3
		c0-0.2,0.4-0.4,0.6-0.4c0.2,0,0.6,0,0.6-0.2c0.2-0.2,1.5-1.1,1.7-1.1s0.2,0,0.9-0.4c1.3-1.1,1.5-2.3,1.3-3.2
		c-0.2-0.6-0.6-0.6-1.1-0.6C203.8,72,202.8,71.5,202.6,71.3C202.6,71.5,202.6,71.5,202.6,71.3z M174.6,89.2h-0.2
		c-0.2,0-0.4,0.2-0.9,0.2c-0.9,0.2-1.1,0.2-1.3,0.4c-0.2,0.2,0,0.6,0.2,0.9c0.2,0.2,0.2,0,0.4-0.2c0-0.2,0.4-0.2,1.1-0.4
		c0.6,0,0.6,0.2,1.1,0.6c0.2,0.4-0.2,0.6,0,0.9c0.2,0.4,0.2,0.6,0.4,0.9c0.2,0.2,0.9,0.2,1.1,0.2s0.6,0.4,0.6,0.6
		c0,0-0.2,0.2-0.4,0.2c0.2,0,0.6,0,0.9,0.2c0.4,0.2,0.4,0.4,1.1,0.6c0.4,0.2,1.5-0.2,1.7-0.2c0.2-0.2,0-0.6,0-0.6h0.6v-0.4
		c0,0-1.1,0.2-1.3-0.2c-0.2-0.2-0.4-0.2-0.6-0.4c-0.2-0.2-1.3-1.5-1.3-1.5c-0.2-0.2-0.2-0.2-0.4-0.2s-0.6-0.6-1.3-0.9
		C175.3,89.9,175.1,89.4,174.6,89.2L174.6,89.2z M176.6,93.7c-0.2,0-0.2,0-0.4,0s-0.4,0.2-0.4,0.2s0,0-0.2,0s0-0.2-0.6-0.4
		c-0.4,0-0.4-0.4-0.6-0.6c-0.2-0.2-0.4-0.9-0.6-0.9c-0.2,0-0.9,0.2-0.9-0.2c-0.2-0.2-0.4-0.2-0.6-0.2c-0.2,0-0.2-0.2-1.3-0.2
		s-1.5,0.4-1.7,0.9c-0.2,0.4,0.2,1.1,0.6,1.1c0.4,0,0.9-0.4,1.3-0.6c0.2-0.2,0.2,0.2,0.4,0.4c0,0.2,0.2,0,0.6,0.2
		c0.4,0.2,0.4,0.9,0.4,1.1s0.6,0,0.6,0c0.2,0-0.2,0.4,0.6,0.4c0.9,0,1.5-0.4,1.9-0.6s0-0.4,0.2-0.6
		C176.1,93.7,176.4,93.7,176.6,93.7z M165.9,100.1c-0.4,0-1.5,0.2-2.8,0.6l0.2,0.2c-0.2,2.8,0.9,3.2,2.6,3c0-0.4,0-0.9,0.4-0.9
		c0.6-0.2,2.1,0.2,2.8,0.6c0.4,0,0.6,0.2,1.1,0.2c0.4,0.2-0.4,1.1,0,1.5c1.5,1.1,2.8,0.2,4-0.9c0.6,0,1.1,0.2,1.5-0.2
		c0.2-0.2,0.2-0.2,0.4-0.4l0,0l0.6-0.4l1.1-1.1c0,0,0,0-0.2-0.2c-0.4-0.4-0.4-0.4-0.9-0.4c-0.2-0.2-0.6-0.4-1.5-0.2
		c-0.9,0.2-1.5-0.6-1.7-0.6c-0.9-0.4-1.7,1.3-2.8,1.3c-2.6-0.4-1.5-0.9-3.4-1.5C167,100.5,166.3,100.3,165.9,100.1z"/>
	<path id="be" class="st0" d="M186.6,99l-0.9,1.1v-0.4c-0.4,0.4-0.9,1.1-1.5,1.3l0,0H184c-0.2,0-0.2,0-0.4,0c0,0,0,0-0.2,0
		s-0.4-0.2-0.6-0.4l0,0c0,0,0-0.2,0.2-0.6h-0.2c-0.2,0-0.2,0.2-0.4,0.2c-0.2,0.2-0.2,0.2-0.2,0.2c0,0.4-0.6,0.4-0.9,0.2
		c-0.2,0-0.4-0.2-0.6-0.2c0.2,0.9,0.6,1.9,0,1.9l0,0l0,0c-0.4,0-0.6,0-0.9-0.2l0,0h-0.2l-0.4-0.6l-0.9,0.2c0,0.2,0.2,0.4,0.2,0.4
		c0.2,0.2,0.2,0.4,0,0.9v0.2c0,0-0.2-0.2-0.2-0.4c0-0.4-0.2-0.4-0.4-0.6l-0.9,0.9l-0.2,0.2l-0.6,0.4c-0.2,0-0.4,0.2-0.4,0.4
		c-0.2,0-0.2,0.2-0.4,0.2s-0.2,0-0.4,0s-0.4,0-0.9,0c-0.2,0.2-0.6,0.4-0.9,0.6l0,0c-0.9,0.6-1.9,0.9-3.2,0.2l0,0l0,0
		c-0.4-0.4,0.4-1.3,0-1.5s-0.6-0.2-1.1-0.2c-0.4-0.2-0.9-0.4-1.3-0.4h-0.2l0,0c-0.2,0-0.4-0.2-0.9-0.2l0,0c-0.2,0-0.4,0-0.6,0h-0.2
		c0,0,0,0.2-0.2,0.2c0,0.2,0,0.2,0,0.4c0,0,0,0,0,0.2l0,0c-0.9,0-1.5,0-1.9-0.4l0,0l0,0c-0.4-0.4-0.6-1.3-0.6-2.6l-0.2-0.2
		c-0.9,0.2-1.7,0.2-2.3,0.6c-0.4,0.2-0.6,0.2-1.1,0.4c-3.8,1.9-7.7,4.5-10.7,5.1l-0.2,0.2c0.2,1.1,0.2,2.8,0.6,4.5
		c-0.4,0.2-0.4,0.6-0.2,1.7s0.2,1.9,0.9,1.7c0.2,0,0.2,0,0.2,0c0.4,0.6,0.6,1.3,1.3,1.7l0,0c0.4,1.1,1.5,1.9,2.1,1.9
		c0.9-0.2,0.6-1.1,1.1-1.3c0.4-0.2,1.3-0.6,1.7-0.6s0.9-0.2,1.5-0.2c0.4,0,0.4,0.4,0.6,1.3c0.2,0.4,0.2,0.6,0.6,0.9
		c0.2,1.3,0,2.6,0.2,3.4c-0.2,0.9,0.4,1.5,1.1,2.1c0.6,0.6,1.3,0.4,2.1-0.4c0.4,0,0.6,0,1.1,0c-0.9,0.9-0.9,1.1,0,1.1
		s1.5-0.2,1.9,0.6c0,0.2,0.2,0.4,0.2,0.6c0,0.6-0.2,1.3-0.2,1.7v0.2c0,0.9,0.2,1.5,0.4,1.7c0.4,0.4,0.4-1.1,1.7-0.9s1.1,0.9,2.3,0.6
		c0.6-0.2,1.1-0.4,1.7-0.4l0,0l1.7,2.8l0.4-0.2c-0.4,0.9-1.5,1.7-1.5,2.6c-0.2,0.9,1.5,0.9,1.5,1.5c0,1.1-1.1,1.5-1.7,2.6
		c-0.4,0.6,1.7,1.5,4.3,1.5c1.1,0.4,2.3,0.4,2.8,0c0.6-0.4,2.3-0.6,2.3-0.6l0,0V137l2.6-2.1l0.9,0.2c0,0-1.5,1.7-1.3,2.1
		c0.2,0.2-0.2,1.1-0.4,1.7c0.4,0.4,1.1,0.6,1.3,1.3c0,1.1-1.7,2.1-0.9,3c0.6,0.9,1.9,0.9,3,0.9c0.2,0.2,0.4,0.4,0.6,0.4
		c0.6,0.2,0.6,1.1,1.1,1.3c0.2,0,0.4,0.2,0.6,0.2c0.2,0.2,0.4,0.4,0.6,0.6c0.2,0.2,0.9-0.6,1.3-0.4c0.4,0.2,0.6,0.6,0.9,1.1
		c0,0.2-1.1,0.6-0.9,0.9c0.6,0.4,1.5,0,1.9,0.6c0.6,0.9-0.2,2.6,0.9,3c1.3,0.6,2.6-0.9,4-0.6c0.4,0,0.9,0,1.3,0.2
		c0.2-0.4,0.4-0.9,0.9-0.6c0.2,0,0.2,0,0.4,0.2c0.2-0.4,0.6-0.6,0.6-1.3c0-0.6,1.1-1.3,0.6-1.9c-0.4-0.4-0.2-0.9,0-1.1
		c-0.6-0.4-0.9-0.9-1.1-1.5c0-0.4-0.4-0.4-0.6-0.6c-0.2-0.2-0.4-0.2-0.4-0.9c0-0.6,0.4-1.1,0.6-1.5c-0.4-0.2-0.4-0.6-0.2-0.9
		c0.2-0.4,0.4-0.6,0.6-1.1c0.6-0.2,0.9-0.6,0.4-1.1c0.4-0.4,1.1-0.6,1.1-1.3c0-0.9,0.2-1.5,1.1-1.7c0.6-0.4,0.4-1.3,1.3-1.3
		c0.4,0.2,0.2,1.1,0.9,0.6c0.2-0.2,0.6-0.4,0.9,0c0,0.2,0,0.4,0.2,0.6c0.4-0.2,1.1-0.6,1.3-0.9c0.2-0.2,0-0.4,0-0.9
		c0-0.4,0-0.6,0.4-0.9c0.9-0.4,1.5-0.9,1.5-1.3c0-0.4,0.4-0.4,1.1-0.4c0.6,0,0.9-0.9,0.4-1.5c-0.6-0.6,0.4-1.9-0.2-3
		c-0.6-1.1-1.7-0.6-2.3-1.1c-0.4-0.4-0.4-1.3,0.4-2.1c0.9-0.6,0.9-1.3,0.2-1.3c-0.6,0-1.3-0.4-1.9-1.3c-0.4-1.1-0.2-1.3-1.1-1.3
		c-0.2,0-0.6-0.4-0.9-0.9l0,0c0,0,0,0,0,0.2l0,0l0,0l0,0c0,0-0.4,0-0.6,0c-0.2,0-0.4,0-0.4,0c-0.2,0-0.2,0-0.4,0.2s-0.4-0.2-0.6-0.4
		h-0.2c0,0-0.4,0.2-0.6,0.2c-0.2,0-0.4,0-0.6-0.2c-0.2-0.4-0.6-0.6-0.9-0.2c-0.2,0.4-1.5,0.2-1.3,0s0.4-0.6,0.4-0.9v-0.2l0,0
		c0,0,0,0-0.2-0.2c0,0-0.2-0.2-0.4-0.4c-0.4-0.4,0-1.5,0-1.5l0.9-0.4l0,0l0,0c0.4-0.4,1.1-0.9,1.3-1.3v-0.2c-0.2,0-0.4,0-0.6-0.2
		l-0.2-0.2c0,0,0,0,0-0.2l0,0l0,0l0.9-0.6l-0.2-0.4l0,0c0.4-0.6,0.9-1.3,1.1-1.9c0.2-0.4,1.3-0.9,1.1-1.3c-0.2-0.2-0.2-0.4-0.4-0.4
		l-0.9,0.4v-0.9H200V108l-1.5-0.9V106l0,0l-0.9-1.1l-1.1,0.9h-0.9l0,0c-0.6,0-1.3-0.2-1.9-0.2l0.2-0.9l-0.4-0.6l-1.1,0.2
		c-0.4-0.6-0.6-1.5-0.9-2.3l0.4-0.9l-0.4-1.1l-0.9-0.2l-0.4,1.1l-1.5,1.1v-0.2c-0.2-0.6-0.9-0.4-1.1-0.4c-0.4,0-1.3,0.2-1.1-0.4
		c0-0.6,0.9,0,0.9,0l0.4-0.9l-0.4-1.1H186.6z"/>
	<path id="de" class="st1" d="M247.7,9.1L247.7,9.1c-0.2,0.2-0.4,0.2-0.4,0.4c-0.4,0.9-1.1,1.7-1.7,6c0,1.1,0.4,1.7,0.4,1.1
		s0.2-2.1,0.4-2.6c0.2-0.4,0.4-0.4,0.9,0c0.4,0.4,0.6,0,1.5-0.4c1.1-0.4,1.3-0.6,0.9-0.6s-1.5,0.2-2.3,0s-0.2-1.5,0-2.3
		c0.2-0.6,0.9-0.9,0.9-1.1C248,9.5,248,9.1,247.7,9.1z M251.2,12.9c0,1.5,0.2,3,0.9,4.5c0.2,0.4,1.7,2.1,3,3.8
		c-0.4,1.5-0.2,1.5-0.9,1.9c-0.6,0.4-0.6,1.7,0.6,1.3c1.1-0.4,1.3-0.6,1.7-1.5c0.2,0.2,0.4,0.6,0.4,0.6c-0.6,2.8-3.8,1.7-6,2.6
		c0.2,0.2,1.7,0.4,1.1,1.3c-0.2,0.4-1.7-0.2-1.7,0.2c0.2,1.3,0.2,2.3,3.6,1.5c0.6,0.6,0.4,0.6,0.6,0.4c0.2-0.2,0.6-0.6,1.1-1.3
		c0.2,0,0.2,0,0.4,0c-1.5,1.7-2.3,1.9-2.1,4.7c0.4,0.2,0.6,0.2,0.9,0.2c0.6-0.2,0.9,0.4,1.3,1.3c0.4,1.1,0.2,1.3-0.6,1.1
		c-0.9-0.2-1.1-0.2-1.5,0c0.2,0.9,0.6,1.7,0.9,2.3c-0.4,2.8,4,1.7,4.7,1.7c3.6,0.4,2.8,3.6,4.9,4.7c0.6,1.5-0.4,3,5.3,4.5
		c-5.5-0.9-5.1-2.1-6.2-3.8c-1.9-1.7-1.7-3.8-3.2-4.3c-1.7-0.9-3.8,0.9-6,0.4c-0.9,0-1.7,0-2.3-0.4c-0.6-0.2-0.6-1.7-1.1-1.5
		c-4.3,3.4-3,6.6-1.9,9.2c-2.8-0.6-3.8-3.6-4.7-1.3c-1.3,3.2,1.7,0.2,0.6,4c-0.2,0.6-1.1,1.3-2.1-0.6c-0.2,0-1.3-0.2-1.3-0.9
		c0-0.7,1.7-1.1,0.9-2.6c-1.1-1.7-1.7-2.1-1.5-3.2c-0.2-0.2-0.9-0.4-1.1-0.4c-4-0.2-4.9,0.4-6.8,0.9c-1.1-0.2-3.6-0.4-4.7,0
		c-0.6,0.2-1.5,1.3-2.3,2.3c0.6,0.6,1.1,1.1,0.6,1.1c-0.4,0-0.6,0-0.6,0.4c0.2,0.2-0.2,0.2-0.9-0.2c-1.1,1.7-1.7,3.8-0.9,4.9
		c0.9,0.2,2.1,0.4,3.2,0.4c0.2,0.4,1.1,0.9,0.4,2.1c0.2,1.5-0.4,3.4-1.1,5.3c0,0.4,0,0.6,0,1.1c-0.2,0.9-0.6,2.3-1.5,3.2
		c-0.6,0.6-0.9,1.9-1.1,3c0,1.5,0.6,3.4-0.6,3.4c-1.5,0-2.6-0.6-4-0.6c-0.4,0-1.1,0-1.1,0.4c-0.2,0.6,0.9,1.3,0.6,1.7
		c0,0.4-1.1-0.2-1.3,0.4c-0.4,0.6-0.2,1.1,0,1.5l-0.2,0.4l4,1.7l0.2-0.4l0,0l0.4-0.4c0,0,0.2,0.4,0.4,0.9c0.4,0.2,0.9,0.6,0.9,1.3
		c0.2,1.5,0,2.6-0.4,3.6c0,0.2,0,0.4-0.2,0.4c-0.6,0.9-1.5,1.5-2.3,2.1c0,0.2-0.2,0.4-0.2,0.4c0,0.2-0.4,0.2-0.9,0.2
		c-0.4,0.2-0.9,0.4-1.1,0.6l0,0c-0.4,0.6-1.5,0.6,0.2,1.7c0.6,0.4,1.1,0.9,1.1,1.1l0,0l0,0v0.2v0.2c0,0.2-0.4,0.4-0.6,0.6
		c-0.4,0.6-1.1,1.1-1.1,1.1l-0.2-0.2c-1.9,0.9-4.5,1.7-5.5,1.5c-1.5,0-2.1-1.5-3.4-1.7c-0.4-0.2,0.4,1.1,0,1.3
		c-1.3,0.4-2.3-0.2-3.4,0.4c-0.2,0.2-0.2,0.4-0.2,0.6l0.6,0.9l-0.6,0.6l1.3,0.6c0,0,0,0.2-0.2,0.9s1.3,1.1,1.3,1.1l-0.2,0.9
		c1.3,1.9,2.6,4,1.5,6.6c-0.6,1.5-1.9,2.3-2.6,3.8c-0.9,1.7,1.7,0.4,1.7,1.5l-3.8,3.4c-0.4,0,0.2-0.9-0.4-0.6
		c-1.7,3,3.2,1.1,2.3,5.1c-0.2,0.9-1.7,0.9-1.7,1.7c0,0.2,0.2,0.6,0.4,1.1c0.4,0.4,0.6,0.9,0.9,0.9c1.1,0,0.6,0.2,1.1,1.3
		c0.4,1.1,1.1,1.3,1.9,1.3c0.6,0,0.6,0.6-0.2,1.3c-0.9,0.6-0.9,1.7-0.4,2.1c0.4,0.4,1.7,0,2.3,1.1c0.6,1.1-0.4,2.3,0.2,3
		c0.6,0.6,0.4,1.5-0.4,1.5c-0.6,0-1.1,0-1.1,0.4s-0.6,0.9-1.5,1.3c-0.4,0.2-0.4,0.6-0.4,0.9s0.2,0.6,0,0.9c-0.2,0.2-0.9,0.6-1.3,0.9
		c0,0,0,0,0,0.2c0.4,0.4,0.2,0.6-0.2,0.9c-0.4,0.2,0,1.3,0,1.5c0,0.6,0.2,2.1,0.6,1.9c0.6-0.2,0.6,0.2,0.9,1.3
		c0.2,0.9,0.9,0.9,1.3,1.5c0.4,0.6,0.6-0.2,1.1,0.4c0.4,0.6,0.2,0.9,1.1,0.9c0.9-0.2,1.1-0.2,1.1,0.6c0,0.4,0,0.9,0,1.3
		c0,0.4-0.2,0.9-0.6,1.1c-0.9,0.6-0.4,1.1-0.9,1.5c-0.4,0.4-0.2,1.1-0.6,1.3c-0.6,0.4-0.6,1.3-0.2,2.1c0.2,0.4-0.2,0.6-0.6,1.1
		c0.2,0.2,0.2,0.2,0.2,0.4c0,0,0,0,0,0.2c0.4,0.6,1.5,0,2.1,0.6c1.7,1.1,2.6,5.5,4.7,7.7c2.3,2.6-1.7-5.5,4.5-0.2
		c0.4,0.4-0.4,1.3-0.2,1.7c0.4,0.6,6.8-1.9,7.9-1.3c0.6,0.6,0.2,1.7,0.9,2.3c0.9,0.6,12.8,1.9,11.9,3.4c-2.1,3.8-6.2,6.2-7.9,9.4
		c-0.6,1.5-0.9,5.8-1.1,7l-3,4.5c-0.4,1.1-0.9,1.9-0.6,3l0,0c1.1,1.1,1.9,1.5,1.7,1.9s-0.9,1.3-0.9,1.7c0,0.6-0.6,0.9-0.4,1.5
		c0.4,0.6-1.1,1.3-0.9,1.9c0.2,0.6,0.4,1.3,0,1.7s-0.4,0.2-0.4,1.1c0,0.9,1.1,1.3,1.1,1.5c0,0,0,0.2,0.2,0.6l0.2,0.6v0.2l0,0
		l0.9-0.9h1.1l-0.4,0.2l0.2,0.6l-0.6,0.2l0,0c0,0,0,0,0.2,0c0,0.2,0.4,0.2,1.1,0.4c0.4,0,0.9-0.2,1.3-0.4c0.9,0,1.3-0.2,2.1-0.4
		c0.2,0.6,0.4,1.1,1.1,0.9c0.9-0.2,1.9,0,3.4-1.1c0.2-0.2,0.4-0.4,0.6-0.6c0.4,0,0.4,0,0.9,0c0.2,0.6,0.6,1.5,1.3,1.3
		c0.9-0.2,0.6-0.2,1.3,0c0.6,0.2,1.1,0,1.3-0.2s-0.9,0-0.4-0.6c0.4-0.4,1.1-0.9,1.5-0.9c0.2,0.2,0.9,0.4,0.4,0.6
		c-0.2,0.2,0.9,0.2,0.6-0.2c-0.2-0.4-0.6-0.4,0-0.9c0.4-0.4,0.9-0.4,0-0.6c-0.9,0-0.9,0-1.1,0.4c-0.2,0.4-1.3,0.2-1.5,0.2
		c-0.2-0.2-1.5-0.4-0.9-1.3c0.6-0.9,0.9-2.1,1.5-2.1l0,0c0.6,0,1.5,0.2,1.3-0.2s-0.2-1.1,0.4-0.4c0.6,0.4,0.2,1.3,0.6,1.3
		c0.4-0.2-0.2-0.9,0.4-1.1c0.4-0.2,0.4,1.3,0.9,1.1c0.4-0.2,0.2-0.2,0.6,0.2c0.2,0.4-0.4,0.4,0,0.9c0.2,0.4-0.4,0.2-0.4,0.6
		c0,0.4,0.6,0,0.9,0.4c0.2,0.4,0.6,0.4,0.6,0.2c-0.2-0.2,0.4-0.2,0-0.6c-0.4-0.4-0.2-0.2-0.2-0.6c0.2-0.2,0.4,0,0.9,0.2
		c0.4,0.2,0.2,0.2,0.6,0.2c0.4,0,0,0-0.2,0.4c0.2,0.4,0.2,0.6,0.6,0.9c0,0,6.6-0.4,6.8-0.4c2.1,0.6,3.6,2.8,5.8,3.6
		c3.2,1.1,3-2.6,4-1.7c0.4,0.4,0,1.5,0.4,1.7c0.9,0.2,1.5-0.9,2.1-0.4c0.9,0.4,1.3,1.5,1.9,1.9c1.1,0.9-0.4,1.5,0,2.1
		c0.2,0.4,0.9,0.6,1.3,0.6s1.1-0.9,1.3-0.6c0.6,0.9-1.7,1.9-0.9,2.8c1.5,1.5,5.1-3.2,5.1-4c0.4-1.1-0.2-3,0.2-3.6
		c1.7,1.5,7-1.5,7.9,1.1c0.2,0.4-1.1,0.2-0.9,0.6c0.2,0.4,1.3,0.4,1.5,0.9c0.4,0.4,0,1.5,0.4,1.7c0.9,0.4,7.7-1.5,7.9-1.7
		c0.4-0.4-0.4-1.5,0.2-1.7c0.9-0.6,1.7,0.4,2.6-0.2c0.9-0.4,0.4-1.7,1.3-2.1c2.6-1.1,7.2,0.2,10-0.6c0.6-0.2-1.5-3.4,0.9-3.6
		c0.4,0-0.4,1.3,0,1.5c1.1,0.4,2.1-0.6,3.4-0.2c0.6,0.2,0.4,1.7,1.3,1.7c1.7,0.2,3-1.3,4.7-1.3c3,0.2-1.9,3.4,4.5,5.1
		c0.4,0,0.9-0.6,0.9-1.1c1.7-6.6-0.4-3.6-2.6-5.5c-1.1-0.9,1.7-3.2,1.7-3.4c0-0.2-4.7-6.8-4.7-6.8c0.2-3.2,8.7-5.1,10.4-6.6
		c1.9-1.7,0.9-3.8,1.3-5.8c0.2-0.4,0.6-0.6,1.1-0.6c4.3,1.1,5.3,2.1,5.5-3.2c0.2-5.1-8.5-8.1-11.7-10.4c-1.5-1.3-1.7-3.4-3-4.7
		c-1.5-1.5-3.4,0-4.7-0.9c-0.4-0.2,0.4-0.6,0.4-1.1c-0.6-1.1-1.3-1.3-2.1-1.3c-2.1-5.3-1.9-6.6-4.7-8.5c0.4-2.1,3-1.3,2.3-4
		c-0.2-1.3-1.5-1.5-1.9-1.7c-1.5-0.9-2.8-2.3-3.6-3.8c0-0.4,0-0.9,0-1.3c0-0.9-0.6-1.1-1.3-1.5c-0.4-0.4-0.6-0.6-0.6-0.9
		c0,0,0.2-0.2,0.4-0.2c0.6-0.4-0.6-0.9,0-1.3c0.9-0.6,1.5,0.6,1.9,1.5c0.9,0.6,0.9,3.4,1.3,2.6c1.7-3.2,2.3-7,7.5-7.9
		c0.6,0,2.8,1.7,3.6,0.9c0.6-0.6,0-1.7,0.6-2.1c0.6-0.6,1.7,0.4,2.3-0.2c1.3-0.9,1.5-3.2,3.2-3.6c0.6-0.2,1.1,1.3,1.5,0.9
		c1.1-0.9,0.6-2.3,1.7-3.2c1.3-1.1,3.4,0.2,4.9-0.6c0.4-0.2,0-1.3,0.4-1.5c2.3-1.5,5.8-1.5,8.1-3.6c0.9-0.6-2.8-1.5-2.3-2.3
		c0.4-0.9,0.6-1.9,1.1-1.7c0.6,0.2,0.9,1.1,1.3,0.9c0.4,0,0.4-0.2,0.6-0.4c0.2,0,0.2,0.2,0.4,0.2c0.2,0,0.2,0,0.4,0
		c1.7,0.4,1.7,0.4,1.5,1.3c-0.2,0.6,0,1.1,0,1.1c0.2,0,0.4-0.2,0.6-0.4c0.6-0.4,0.4,0.4,0,1.3c0,0,0,0,0.2,0.2
		c-0.2,0.9,0.6,1.1,1.3,1.3c0.4,0.2,0.9,0.4,1.1,0.4c1.3-0.2,1.3-3,2.6-7.9c0.6-1.9,1.5-3,0.2-5.8c-0.9-1.5-0.2-3-1.9-4
		c-0.9-0.9-2.6-0.4-3.4-1.7c-0.6-0.9,1.9-1.3,0.4-3c-0.4-0.6-1.5-1.7-1.7-2.8c-0.2-0.9-1.3-0.9-0.6-1.7c2.8-2.8,1.3-3,1.9-6
		c-0.2-0.4-1.1-0.2-1.3-0.9c-0.2-1.1,0.6-2.3,0-3.4c-0.4-1.3-1.9-0.9-2.3-2.6c-0.9-1.1-0.2-2.3,0.2-3c0.4-0.9,0.6-1.1,0.4-3.2
		c-0.2-1.5-2.6-2.6-4.5-4.3c-1.7-1.5-3.6-1.1-4-2.1c-0.4-0.9,0.6-0.4,0.4-2.8c-0.2-1.1,1.3-1.7,2.1-2.6c0.9-0.9,1.1-2.6,1.5-3.6
		c0.2-1.1,0.6-1.5,0.4-2.8c-0.4-1.9-2.8-7.7-3.2-10.9c-0.4,0,0.4-1.3-0.2-1.5s-1.7,0.9-3,0.2c-1.5-0.9-2.6-1.7-3-2.1
		c0.2,0,0.4-0.2,0.4-0.2c0.4,0,0.2-0.9,0.4-0.6c0.2,0.2-0.4,0.4,0,0.6c0.4,0,0.9-0.6,1.3-0.9s0.6,0,1.5,0s1.3,0,1.3,0l-0.2-0.9
		l-0.2-0.4l0.4-0.4c0,0,0,0-0.6-0.6c-0.9-0.4-0.6-0.6-2.1-1.9c-1.3-1.3-1.5-1.1-1.3-0.4c0.4,0.4,0.9,0.9,1.1,1.7
		c0.2,0.6,0,1.1-0.2,0.9s-0.6-0.4-0.6-0.4s-0.2-0.4-0.6-0.4s-0.9,0.4-0.4,0.9s0.4,1.5,0.2,2.1c-0.2,0.2-0.6,0.4-1.3,0.6
		c-0.4-1.3,2.8-1.1-1.3-3.8c-1.5-0.9,3.4-1.3,1.9-1.7c-1.7-3-2.8-2.8-2.6-1.5c-1.7-0.4-4,0.4-4.3,1.7c-0.9-1.7-2.3-2.6-3.6-3.6
		c-0.6-0.9-1.9-0.4-2.6-1.3c-0.9-1.3,0-4-1.5-4h-0.2v0.2c-0.4,0.4-0.4,0.2-1.1,0.6c-0.6,0.4-0.4,0.6-0.6,1.3
		c-0.2,0.6-0.9,0.4-0.9,0.2c0-0.4-0.2-0.6-0.4-0.4c-0.4,0-0.9,0-1.3-0.4c-0.2-0.4,0-0.4-0.4,0s-0.6,0.6-1.3,1.1
		c-0.6,0.4-0.6-0.6-0.9-0.2c-0.2,0.4,0,0.9-0.6,0.9c-0.4,0.2-0.4,0.4-0.4,0.9c0,0.4-0.6,0-0.9,0.6c0,0.2,0.2,0.6,0.9,0.6
		c0.6,0.2-0.2,0.2-1.1,0c-0.6-0.2-0.2-0.4-0.4-0.9c-0.2-0.4,0-0.4,0.4-0.9c0.4-0.4,0.2-0.2,0.2-0.6c0-0.6,0-0.4,0.4-0.9
		c0.4-0.2,1.1,0,1.7-0.4c0.9-0.2,0,0,0.4-0.4s0.4-0.2,1.1-0.2c0.4,0,0.4-0.2,0.9-0.2c0.4,0,0.6,0.2,1.3,0c0.6-0.2,0.9-0.2,1.7-0.2
		c0.2,0,0.2-0.2,0.4-0.6c0,0-0.2,0-0.4,0c-2.6,0-6-1.1-6.4-0.6c-1.3,1.5-1.5,3.6-2.6,4.9c-1.3,0.9-1.7,1.3-3,2.8
		c-0.2,0.2-3.4,1.3-4,1.5c-1.9,0.2-2.6,0-3.2,0.2c-1.7,1.1-2.3,6-3.4,6.6c-2.1-2.8-1.5,1.1-4.3-3c-1.7,0-2.8,1.7-4.3,1.5
		c-0.4-0.4,0.4-1.3-1.5-1.3c-0.9,0-0.6-1.9,0.6-2.1c1.5-0.2,2.6-1.9,3.8-3c0-3-0.4-4,0.4-5.1c-0.9,0-1.1,0.6-1.9,0.2
		c-1.1-0.4-3.2,1.9-3.4,2.1c-1.5-0.4-5.8-3.6-6.8-3.4c-1.5,0.2-2.8,3.2-2.8,3.2s1.1-2.6,0.9-3.8c-0.2-1.7-3.6,0.4-5.1,0
		c-1.1-1.5,1.5,0.4,2.6-2.3c0.4-1.1,0.6-2.1,0-3.2c-0.2-0.4-1.3,0.4-1.5,0c-0.4-0.2,0.4-0.6,0.9-0.9c0,0,0.4,0.2,0.4,0
		c0-0.6-0.2-1.5-0.9-1.7c-0.4-0.2-0.6-0.4-1.7,0c-0.6-0.9-1.5-1.5-2.3-1.3c-1.1-0.4-1.5-0.9-1.9-1.3c-0.9,0.2-1.3,1.3-1.9,1.7
		c-0.4,0.2-0.4,0-0.2-0.6c-2.6-0.4-5.1-1.7-7.9-2.1C255,12.9,252.7,13.1,251.2,12.9z M249.9,16.5c-1.3,0-2.8,0.6-1.9,1.5
		c1.3,0.6,1.9,0.9,2.3,0.2C250.7,17.4,250.9,16.3,249.9,16.5z M324,17.4c-0.9,0.2-1.9,0-2.3,0.9s-0.6,1.3,0,0.9
		c0.4-0.6,1.3-0.6,0.6,0.9c-0.6,1.3-0.2,1.1,0.4,0.6c0.6-0.4,0.6-0.4,0.9-0.9c0.2-0.2,0.2,0,0.6,0.4c0.4,0.4,0.6,0.9,1.3,0.9
		c0.4,0,0.4,0,0.4,0.9s0.2,0.9-0.4,1.1c-0.4,0.2-0.6,0.2-0.9-0.4c0-0.6,0.2-0.4-0.2-0.9c-0.4-0.4,0-0.4-0.4,0
		c-0.4,0.2-0.6,0.4-0.4-0.6c0.2-0.9,0-0.9-0.6-0.2c-0.6,0.6-0.2,0.4-0.2,0.9c0,0.4,0,0-0.4-0.2c-0.4-0.4-1.3,0-1.7,0
		c-0.4,0,0,0.2,0,0.6s0.4,0.4,0.6,0.4c0.4,0,0.6,0,0.4,0.2s-0.2,0.2,0.2,0.4c0.4,0,0.6-0.2,0.2,0.2c-0.4,0.4-1.1,0.6-1.3,1.1
		c-0.4,0.4,0.2,0.4,0.4,0.4s0.2,0,0.4,0.4s0.6,0.9-0.2,0.9c-0.9,0-1.3-0.4-1.5,0.4c-0.2,0.6,0.2,1.1,0.4,1.3
		c1.7,1.5,1.9,1.5,2.3,1.3c0.4-0.2,0.2-0.2,0.4,0.2c0.2,0.4,0.6,0.9,1.3,0.6c0.6-0.2-0.6-1.1,0.2-1.9c0.9-0.9,2.1-1.7,3-1.5
		s1.3,0.9,0.9,1.3s0.9,1.1,1.1,0c0.2-1.1,0.6-1.1-0.4-1.9c-0.9-0.9-1.7-0.4-2.3-2.1c-0.4-1.7,1.3-0.9,1.3-2.1
		c0.2-1.5-0.6-1.5-2.1-1.3s-2.3,0.2-2.3-0.9c0-1.1,0-0.6,0.4-0.9C324.7,18,324.9,17.4,324,17.4z M252,21.7c-0.2,0-0.9,0.2-1.5,0.4
		c-0.4,0.2-0.4,0.2,0.2,1.1c0.4,0.6,0.9,0.2,1.3-0.9C252.2,21.9,252.4,21.7,252,21.7z M288.7,22.3c-1.1,0.2-1.3,1.9-1.3,2.3
		c0.2,0.4,0.4,0.2,0.4,0.4c0.9-0.4,0.9-0.4,0.9,0.2s0.4,1.3,1.1,0.9c0.6-0.4,1.1-0.4,1.7-0.4c0.6,0.2,1.1,0.4,0.4-0.6
		c-0.6-1.3-1.1-2.3-2.8-2.6C289.1,22.3,288.9,22.3,288.7,22.3z M321.1,22.5c-0.4,0-0.6,0.4-0.9,0.9c-0.4,0.6,0.4,0.2,1.5-0.2
		c0-0.2,0.2-0.2-0.2-0.4C321.3,22.7,321.1,22.5,321.1,22.5z M295.5,35.7c0,0-0.2,0-0.4,0c-0.6,0.2-2.1,0.4-1.7,1.3s0.6,0.9,0.9,0.2
		c0-0.6,0.2-0.9,0.2-0.4c0,0.6,0,1.7,0.4-0.2C295.3,36.2,295.7,35.7,295.5,35.7z M236,42.1c-0.2,0-0.2,0-0.2,0.2
		c0,0.4,0.4,0,0.9,0.2c1.1-0.2,1.3-0.4,0.2-0.4C236.7,42.1,236.2,42.1,236,42.1z M233.3,42.5c-0.6,0-0.6,0-0.9,0.4s0.6,0.6,0.6,0.4
		c0-0.2-0.2-0.4,1.1-0.4C235.6,43,235,42.5,233.3,42.5z M228.8,43.2c-2.3,0-1.1,0.6,0.2,0.6C230.5,43.4,231.1,43.2,228.8,43.2z
		 M225.6,44.3c-0.6,0-1.3,0-1.9,0c-1.5,0.2,0,0.2,2.3,0.2C227.5,44.5,227.3,44.3,225.6,44.3z M222,45.7c-0.4,0-1.1,0-1.9,0.2
		c-0.4,0.2,0,0.9,0.9,1.1s0.4-0.4,1.3-0.9C222.4,45.7,222.4,45.7,222,45.7z"/>
	<path id="ch" class="st2" d="M246.5,199.2c-0.2,0-0.2,0.4,0,0.6c0.2,0.4-0.6,0.2-1.3,0.2l0,0c-0.6,0.2-0.9,1.3-1.5,2.1
		c-0.6,0.9,0.6,1.1,0.9,1.3s1.1,0.2,1.5-0.2c0.2-0.4,0.4-0.4,1.1-0.4c0.9,0,0.4,0.2,0,0.6c-0.4,0.4-0.2,0.4,0,0.9
		c0.2,0.4-0.9,0.4-0.6,0.2s-0.2-0.4-0.4-0.6c-0.2-0.2-1.1,0.2-1.5,0.9c-0.4,0.4,0.6,0.4,0.4,0.6c-0.2,0.2-0.6,0.4-1.3,0.2
		c-0.6-0.2-0.4-0.2-1.3,0c-0.6,0-1.1-0.9-1.3-1.3c-0.2,0-0.4,0-0.9,0c-0.2,0.2-0.4,0.4-0.6,0.6c-1.3,1.1-2.3,0.9-3.4,1.1
		c-0.4,0.2-0.9-0.4-1.1-0.9c-0.9,0.2-1.3,0.2-2.1,0.4c-0.2,0.2-0.6,0.4-1.3,0.4c-0.6,0-1.1-0.2-1.1-0.4c0,0,0,0-0.2,0l0,0l0.6-0.2
		l-0.2-0.6l0.4-0.2h-1.1l-0.9,0.9l-0.2,0.2l-1.1-0.2l-0.6,0.9l0.2,0.2c0.2,0.4-0.6,0.9-0.6,0.9l-0.6-0.6c-0.2,0.2-0.2,0.2-0.4,0.4
		l0.6,0.6l-0.9,0.9l-1.3-0.4c0,0-1.1,0.6-1.5,0.2c-0.4-0.4-0.4,0.2-0.6,0c-0.2-0.4-0.4-0.4-0.2-0.9l0,0c-0.4-0.4-0.6-0.6-1.3-1.1
		c-0.4,0.2-0.6,0.4-0.9,0.2c-0.2-0.2-1.1-1.1-1.3-0.2c0,0.4-0.4,0.6-0.6,0.6c0,0.2,0.2,0.2,0.2,0.4s-0.4,0-0.4,0
		c-0.6,0.9-2.3,1.5-1.9,2.6c0.2,1.1,3.2-1.1,3.2,0c-0.2,2.6-1.1,0.9-1.9,1.3c0.2,0.4,0.4,1.5-0.2,1.7c-1.1,0.4-0.6,1.7-1.9,1.9
		c-0.2,0-0.4,0-0.9,0.2c-0.6,1.1-1.3,2.3-1.9,2.8c-1.3,1.3-3.8,0.9-4.7,2.3l0,0c0,0,0.4,0.4,0.6,1.5c0.2,0.9-0.9,1.7-0.9,1.7
		l0.4,0.4c0,0,0,0.2-0.4,0.6c-0.6,0.4-1.7,1.1-2.3,1.5c-0.6,0.2-2.3,1.9-2.6,2.1c-0.4,0-1.3,0.9-1.3,0.9l0.9,1.1l-1.7,1.9l0.4,0.6
		l-0.4,0.4l0,0l1.9,1.5l-0.9,0.9c0,0,0,0,0,0.2s-0.2,0.2-0.2,0.4c-0.4,0.6,0,1.3,0.4,1.7c0,0-1.7-0.2-2.6,0.2
		c-0.9,0.2-1.3,0.6-0.9,1.1c0.4,0.4-0.4,0.9-0.4,1.5c-0.2,0.6,1.5-0.4,2.1,0c0.6,0.2,2.3,0.2,2.8-0.6c0.4-0.9,1.5-0.4,1.9-1.1
		c0.4-0.6,0.6-0.9-0.2-0.9c-0.4,0-0.6-0.6-0.9-1.1h0.2c0-0.4,0-0.9,0.2-1.1c1.7-2.8,7.5-2.8,10-1.5c0.9,0.2-0.9,1.5-0.6,1.9
		c0,1.1,1.3,1.5,1.5,2.3c0.2,1.3-2.6,1.1-1.5,3c0.4,0.4,1.5-0.2,1.7,0.4c0.4,0.6-0.6,1.5-0.4,2.1c0.2,0.4,1.1-0.9,1.3-0.4
		c1.1,1.1,1.1,2.3,1.9,3.6l0,0c0.4,0.9,1.1,1.3,1.7,1.3c1.5-1.1,3-1.9,3.4-1.3c0.9,0.9,2.3-0.6,3-1.3c0,0,0.4-0.6,1.3-0.6
		c0.6,0,1.3,0,2.1,0.9c0.2,0.2,0.2,0.2,0.2,0.4c0.2,0,0.2,0.2,0.4,0.2s0.4-0.2,0.9,0c0.4,0,0.9,0.2,1.5,0.2c0-0.2,0-0.2,0-0.2
		c0.2-0.4,0.2-0.9,0.4-1.1c0.4-0.6,1.5,0.4,1.9-0.2c0.2-0.2,0.2-0.4,0.2-0.6c0-0.4-0.2-1.1,0-1.3c0-0.2,0-0.4,0.2-0.4
		c0.4-0.2,0.6-0.4,1.3-0.6c0.4-0.2,1.1-0.4,1.7-0.9l0,0v-0.2c0-0.2,0-0.2,0-0.4c-0.2-0.6-1.3-1.1-1.3-1.5v-0.2l0,0l0,0
		c0.2-0.6,0.6-0.9,1.1-1.3c0.6-0.4,1.3-0.9,1.9-1.3c0.4-0.2,0.9-0.6,1.1-0.9c0,0,0,0-0.2,0c-0.9-0.4-1.1-0.6-0.2-1.1
		c0.9-0.4,2.3-0.6,2.6-0.6s0.2,0,0.4,0c0.4,1.3,0.2,2.3,0.2,3.6c0,0.6-0.6,1.5-0.4,2.1c1.5,2.6,4.7,3.2,6.8,4l0,0l0,0
		c0.2,0,0.6,0.4,0.6,0.9c-0.2,0.4-0.6,0.9-0.9,1.3c0.4,0.4,0.9,0.6,1.3,1.1c1.1,1.3,0,3,0.6,3.6c0.2,0.2,0.4,0.2,0.4,0.4
		c0.2,0,0.4,0.2,0.4,0.2c0.2,0,0.4,0,0.4-0.2c0.2-0.2,0.4-0.4,0.6-0.9c0.9-1.5,0.2-1.9-0.4-2.1c-0.6-0.2,0.4-1.3-0.4-2.1
		c-0.6-0.6,0.2-1.1,0.9-1.3c0.2,0,0.2-0.2,0.2-0.2c0-0.2,0-0.2,0-0.4c0-0.4,0-0.6,0.2-0.9c0.4-0.2,1.1-0.9,1.5-1.1
		c0.4-0.2,1.5-1.7,1.7-2.8c0.2-0.9,0.6-1.3,0.9-2.1c0-0.2,0-0.6,0-0.9v-0.2c0-0.4,0-0.9,0-1.3l0,0c0-0.2,0-0.6,0.2-0.9l0,0
		c0,0,0-0.2,0.2-0.2c0.2-0.2,0.4-0.2,0.6-0.4l1.1,1.3l0.6-0.6c0.2,0.2,0.2,0.4,0.4,0.6c0,0.2,0,0.4,0.2,0.6c0.2,0.9-0.4,1.3-0.4,1.3
		s0.4,0.2,1.1,0.4c0.4,0.2,0,1.3,1.3,1.7s1.9-0.2,1.9-0.2l0.6,0.4l0.6-0.6l-0.4-0.4l0.6-0.4l0.6,0.4l2.3-1.3c0.4,0,0.6,0,1.1,0.2
		c0.2,0,0.2,0,0.4,0.2l0.4,0.6l-0.4,0.4c0,0,0.6,0.2,0.4,0.6c-0.2,0.4,0.2,0.4,0.6,0.6c0.6,0.2,0.4,1.1,0.2,1.1
		c-0.2,0.2,0,0.4,0.6,0.2c0.6,0,0.9,0.2,1.3-0.2s0.4-0.6-0.2-1.5s-1.3-1.3-0.6-1.7c0.4-0.4,0.4-0.6,0.6-0.6c0.4-0.2,0.4-0.4,0-0.9
		c-0.4-0.4-0.4-0.4-0.9-0.2c-0.4,0.2-0.4,0.2-0.9,0l0,0c-0.9-0.4-1.1-1.9,0-3.8l0,0c0.2-0.2,0.4-0.6,0.9-0.9
		c0.4-0.4,0.9-0.4,1.1-0.6c0.6-0.2,1.1,0,1.5,0.4v1.1l1.7,0.9l0.4-0.4l1.9,0.4l0.6-2.1l-0.6-0.6h-0.9c-0.4-0.4-0.9-0.9-0.9-0.9
		c0.4-0.9,1.1-1.5,1.3-2.1c0.4-0.9,0.2-1.7,0.4-2.6l0,0l0,0l0,0c-0.9-0.4,0.4-1.3,0.6-2.1l-1.1-0.2l-0.4-0.9c-0.2,0-0.2,0-0.2,0
		c-0.4,0-0.6,0-1.1,0.4l-0.2,0.9c0,0-0.4,0-0.2,0.4c0.2,0.2,0,0.4-0.6,0.4h-0.2c-0.2,0.2-0.4,0.4-0.6,0.9c0,0.6,0,1.1-0.6,0.9
		c0,0,0,0-0.2,0c-0.6,0.4-1.3,0.4-2.1,0c-0.9-0.4-1.9-0.9-2.6-1.5c-0.2-0.2-0.9-0.2-0.9-0.4c0-0.4-0.4-0.9,0.2-1.5
		c0-0.2-0.6-0.4-0.4-0.4s0.4-0.2,0-0.4c-0.4,0-0.2,0.2-0.2,0.2c-0.2,0-0.6,0.2-0.9-0.2c-0.6-0.2-1.5-0.4-1.9-0.9
		c-0.6-0.2-0.4,0.6-1.5,0c-0.2,0.2-0.9,0.4-0.9,0s-0.6-0.2-0.6-0.2c-0.2,0.2-0.9,0-0.6-0.2s0.4-0.2,0.6-0.4c0.4-0.2,0-0.6,0-1.1
		c0-0.4-0.6-1.1-0.4-1.5c0-0.4,0.6-1.5,0.9-1.9c-0.2-0.4,0.4-0.4,0.4-0.9c0-0.2,0.4-0.4,0.6-0.6c0.2-0.2,0.2-0.6,0.4-0.9
		s0.4-0.2,0.9-0.4c0.4-0.2,0.2-0.4-0.4-0.9c0.2-0.4,0-0.9,0.4-1.1c0,0-0.2,0-0.4,0c-0.4,0-1.1-0.6-1.1-0.6c-0.2-0.2-0.6-0.6-0.6-1.3
		v-0.2l0,0c-1.7-1.1-3.2-3-5.1-3.4c-0.2,0-6.8,0.4-6.8,0.4c-0.6-0.2-0.4-0.6-0.9-0.9c0.2-0.4,0.6-0.4,0.2-0.4c-0.4,0-0.2,0-0.6-0.2
		c-0.4-0.2-0.6-0.6-0.9-0.2c-0.2,0.4-0.2,0.2,0.2,0.6c0.4,0.4-0.2,0.4,0,0.6c0.2,0.2-0.4,0.2-0.6-0.2c-0.2-0.4-0.9,0-0.9-0.4
		s0.9-0.2,0.4-0.6c-0.2-0.4,0.4-0.4,0-0.9c-0.2-0.4-0.2-0.4-0.6-0.2c-0.4,0.2-0.4-1.3-0.9-1.1c-0.4,0.2,0.2,1.1-0.4,1.1
		c-0.4,0.2-0.2-0.9-0.6-1.3C246.7,199.2,246.5,199.2,246.5,199.2L246.5,199.2z"/>
	<path id="at" class="st2" d="M359.2,164.5c-0.2,0-0.4,0-0.4,0c-0.2,0-0.4,0.2-0.4,0.2c-0.2,0.4,0.2,6.2-0.2,6.6
		c-0.4,0.6-1.7-0.9-2.6-0.2l-1.5,5.3c-1.5,0.4-2.8-1.5-4.3-1.5c-0.9,0-0.6,1.5-1.5,1.7c-4.3,1.7-6.6-2.6-9.8-4.3h-0.2
		c0.2,0.6,0.4,1.3,0.4,1.7c-0.2,5.3-1.5,4.3-5.5,3.2c-0.4,0-0.9,0.2-1.1,0.6c-0.4,1.9,0.9,4.3-1.3,5.8c-1.7,1.5-10.2,3.4-10.4,6.6
		c0,0,4.7,6.6,4.7,6.8c0.2,0.2-2.6,2.6-1.5,3.4c2.1,1.9,4.5-0.9,2.6,5.8c0,0.4-0.4,1.1-0.9,1.1c-6.4-1.7-1.5-5.1-4.5-5.3
		c-1.7,0-3,1.5-4.7,1.3c-0.9-0.2-0.6-1.5-1.3-1.7c-1.3-0.4-2.3,0.6-3.4,0.2c-0.4-0.2,0.4-1.5,0-1.5c-2.3,0.2-0.2,3.4-0.9,3.6
		c-2.8,0.9-7.5-0.4-10,0.6c-0.9,0.4-0.4,1.7-1.3,2.1c-0.9,0.6-1.7-0.4-2.6,0.2c-0.6,0.2,0.2,1.3-0.2,1.5c-0.2,0.2-7,1.9-7.7,1.5
		c-0.4-0.4,0-1.5-0.4-1.7c-0.2-0.4-1.3-0.4-1.5-0.9c-0.2-0.4,1.1-0.2,0.9-0.6c-0.9-2.6-6.2,0.4-7.9-1.1c-0.4,0.4,0.2,2.3-0.2,3.6
		c0,0.9-3.8,5.3-5.1,4c-0.9-0.9,1.5-1.9,0.9-2.8c-0.2-0.2-0.9,0.6-1.3,0.6s-1.1-0.2-1.3-0.6c-0.4-0.6,1.1-1.5,0-2.1
		c-0.9-0.6-1.3-1.5-1.9-1.9s-1.5,0.6-2.1,0.4c-0.4-0.4,0-1.5-0.4-1.7c-1.1-0.9-0.9,2.8-4,1.7c-0.2-0.2-0.4-0.2-0.6-0.2v0.2
		c0,0.6,0.4,1.1,0.6,1.3c0,0,0.6,0.6,1.1,0.6c0.2,0,0.2,0,0.4,0c-0.4,0.2-0.2,0.6-0.4,1.1c0.4,0.4,0.9,0.9,0.4,0.9
		c-0.4,0.2-0.6,0-0.9,0.4c-0.2,0.2-0.2,0.6-0.4,0.9c-0.2,0.2-0.6,0.4-0.6,0.6c0,0.6-0.4,0.4-0.4,0.9l0,0c0.2,0.2,0.6,0.4,0.4,0.6
		c-0.2,0.4,0.6,0.6,0.4,0.9c-0.2,0.2-0.2,0-0.2,0.4c0,0.2-0.2,0.4,0,0.4c0.2,0.2,0.4,0,0.4,0.4c0,0.2,0.4,0,0.4,0.2s-0.4,0.2,0,0.4
		c0.2,0.2-0.2,0.2,0,0.6c0.2,0.4,0.4,0.6,0,0.6c-0.4,0.2-0.2,0-0.4,0.4c0.6,0.4,0.9-0.2,1.3,0c0.6,0.4,1.5,0.6,1.9,0.9
		c0.2,0.4,0.6,0.2,0.9,0.2c0,0-0.2-0.2,0.2-0.2c0.4,0,0,0.2,0,0.4c-0.2,0,0.2,0.2,0.4,0.4c-0.6,0.9-0.2,1.1-0.2,1.5
		c0,0.2,0.6,0.2,0.9,0.4c0.9,0.6,1.9,1.1,2.6,1.5c0.9,0.4,1.5,0.4,2.1,0c0,0,0,0,0.2,0c0.6,0.2,0.6-0.2,0.6-0.9
		c0.2-0.2,0.4-0.4,0.6-0.9h0.2c0.6,0,0.9,0,0.6-0.4c-0.2-0.2,0.2-0.4,0.2-0.4l0.2-0.9c0.4-0.2,0.6-0.4,1.1-0.4c0.2,0,0.2,0,0.2,0
		l0.4,0.9l1.1,0.2c-0.2,0.9-1.5,1.7-0.6,2.1c3.2,1.7,0.4-0.4,3.6,0c1.7,0.2,3.2,4.5,6.4,2.6l2.6-5.3c1.7-1.3,8.5-0.4,10.4-0.6
		c3-0.2,5.3-2.6,8.1-2.8l0,0c1.5-0.2,1.5-0.2,1.3,0.6s-0.4,0.9-1.5,1.1c-1.1,0.2,0,1.7,0.2,2.1c0,0.2,0,0.4,0,0.6
		c0.6,0,1.3,0.2,1.9,1.1c0.4,0.6-0.6,1.5-0.2,2.1c0.2,0.4,0.9-0.4,1.3,0c3.8,2.8,6.8,3.6,11.9,4.5c6.4,1.9,5.8-0.2,12.8,1.3
		c0,0,0,0,0.2,0v-0.2c1.7,0.6,3-0.2,3.6,0.4c1.7,1.1,2.6-0.2,4.7,1.5c1.7,0.2,3.4-1.5,4.9,0c0.6,0.9,1.1-0.9,1.9,1.3
		c0.4,0.2,0.2-1.5,0.6-1.7c1.9-0.2,1.1-1.9,3.4-1.9c0.9-0.6,0.2-1.7,1.5-3c0.4,0.9,0.6-0.4,1.1-0.4c0.6-0.2,0.2,1.7,1.1-0.2
		c0.4-0.9,2.1-0.6,3-0.6c1.7,0.2,3-0.6,3.6-0.4c1.7,0.2,1.1,1.5,2.1,0.9c1.3-0.6-0.6-1.5,2.8-2.8c2.6,0.9,1.9-2.1,6.6,0.9
		c0.6-0.2-0.6-1.3-0.9-1.9c-0.4-2.1,0.6-3.2,2.3-3.6h0.2c0,0,0.6-0.9,1.5-1.9c0.9-2.1,2.6-2.3,3.6-1.9c1.1,0.4,1.5,0.6,1.1-0.9
		c-0.2-1.5,0-2.1,0.4-2.8c0.4-0.6-1.1,0.6-1.5-0.4c-0.4-1.1,0.2-1.9,0.9-2.8c0.4-0.6-0.2-0.4-0.6-1.5s0.2-0.9,0-2.1
		c-0.2-1.3,2.3,0.6,3-0.4s0.9-0.9,0.4-2.1c-0.4-1.3,0.9-1.1,0.4-2.1c-0.4-1.1-2.8-0.2-3.6-1.1c-0.9-0.9-0.6-1.5,0-2.1
		s0.6-2.3,2.6-1.5s3.2,1.3,3.6,0.9c0.4-0.4,2.3,0.9,3,0c0.6-0.9,1.5-1.1,0.9-2.1s0-0.9-1.3-2.1c-1.3-1.3,0.6,0,0.9-1.5
		c0.2-1.3-0.9-3,0.4-3.4c0,0,0,0,0-0.2c-2.3-2.6-4.5-5.1-6.2-8.1c-1.7-2.6,4.3-6.8,0-9.8c-0.6-0.4-1.5,0.9-1.9,0.9
		c-1.1-0.2-3-2.8-4.5-2.3c-1.1,0.4-1.5,1.9-2.6,2.6c-0.9,0.2-1.7-0.2-2.6-0.2c-5.3-0.6-10-4.9-15.8-4.9c-1.1,0-1.7,1.3-2.8,1.3
		c-0.4-0.2,0-1.3-0.4-1.5C360.3,164.7,359.6,164.5,359.2,164.5L359.2,164.5z"/>
	<path id="ad" class="st3" d="M111.3,329.2c-9,2.6-4-4.9-3.6-4.9C113.1,324.1,113.5,326.6,111.3,329.2z"/>
	<path id="fr" class="st1" d="M148.9,107.1c-2.1,0.4-4.7,0.6-7,0.9c-1.7,0.2-8.3,0.6-9.2,3c-0.4,1.1-1.9,10.7-1.9,11.9
		c0,0.6,1.1,0.6,1.1,1.1s-0.9-0.4-1.3,0c-0.4,0.4-0.6,1.5-0.4,1.9c0.2,0.9,1.1,1.3,1.7,1.9c-1.3-0.4-1.9-0.2-3.2,2.1
		c0,0.2,0,0.2-0.2,0.4c-0.2,0-0.4,0-0.4,0.2c-1.5,0.9-2.3,1.9-3.8,2.6c-3.6,1.9-17.1,2.3-19,5.5c-2.1,3.8-1.5,5.5,0,6.2l1.1,0.2
		c-1.3,0.2-2.1,0.4-3,1.1c-1.5,1.3-4.7,2.6-6.8,1.3c-2.1-1.3-3.8-1.9-6-2.1c-2.1-0.2-6.8-2.3-7.9-1.1s-0.9,0-0.9-0.9
		c0.2-0.9-1.9-1.7-2.3-3.2s1.9-1.5,1.3-3.4c-0.6-1.9-3.6-0.9-4.5-0.2c-0.9,0.9-2.6-0.2-4-0.9c-1.5-0.6-3.4-1.5-4.3-1.5
		s0.2,1.3,1.3,1.7c1.1,0.4,1.1,1.9,0.2,2.8c-0.9,0.6,0.4,0.4,0.4,2.1s0.9,1.5,1.9,3.4s0.6,2.3,1.7,3.2c1.3,0.9-0.2,0.2-0.4,3
		c-0.2,2.8,1.3,1.1,0.4,4c-0.9,3-1.3,5.5,0.9,6.2c1.9,0.6,2.1,1.5-0.9,1.3s-6.4,1.1-5.5-1.1c0.9-2.1-0.2-2.3-1.5-1.7
		c-1.5,0.9-1.7,0.9-1.7,0.9s-1.3-0.6-1.9,0.2c-0.6,0.9-1.9,1.1-1.5-0.2c0.4-1.3-0.2-2.1-2.8-1.1c-2.6,1-5.5,3-5.5,3l-2.3-2.3
		l0.2-1.9l-2.1-1.9l0.6-0.9c0,0-2.6,0.9-1.7-0.4c0.9-1.3,1.3-2.3,1.3-2.3s-0.9-0.4-1.3,0.2c-0.4,0.6-0.9,0.9-0.9,0.9
		s0.9-1.7-0.4-1.3c-1.3,0.4-1.9,0.9-1.9,0.9s0.4-1.7-0.6-1.3c-0.9,0.4-1.9,1.9-3.4,0.9c-1.5-1.1-1.7-0.4-1.7-0.4l-1.7,0.4
		c0,0-0.2,1.7,0.9,1.7c0.9,0.2-1.3-0.2-0.9,1.1c0.4,1.3-1.1-0.6-3.6-1.1s-0.9,1.9-0.9,1.9s-0.9,0.2-1.9-2.3c-1.1-2.3-1.1-0.2-3.4,0
		s-3,1.7-3.8,0.4c-0.9-1.3-4.7,0.9-6.8,1.3c-1.9,0.2-1.9,3.2-1.5,4.5c0.4,1.3,2.3,1.5,4,0.9c1.9-0.6,4.9-0.9,4.9-0.9
		s-3.8,0.9-3.2,1.7c0.4,0.6,1.9,0.4,2.8,0.4c-0.2,0-0.2,0.2,0.4,0.6c1.3,0.9-0.6,1.3-2.8,0.4c-2.1-0.9-1.5-1.9-3-0.9
		c-1.3,1.1,1.1,0.4,0.4,1.9c-0.6,1.5,0.2,1.1,1.3,0.4c1.1-0.6,1.5,0.9,2.6,1.1c1.3,0.2,2.1,3-0.9,2.1s-6.2-0.9-6.6,0.2
		c-0.4,1.1,5.3,1.3,5.5,3.4c0.2,2.3,1.5,1.7,0.4,3c-1.3,1.3,1.3,1.7,3,1.7c1.7-0.2,0.4-2.8,1.7-1.7c1.3,1.1,2.3,1.3,2.6,0.2
		c0.2-0.9,0.4,0.9,2.3,2.3c1.9,1.5,2.8,1.1,4.3,1.7c1.5,0.6,1.3,1.9,2.3,2.1s1.1-0.6,2.1-1.3c-0.4,0.4-0.9,1.1-0.4,1.9
		c0.9,1.5,2.8,0.4,2.8-0.6s2.3-0.4,0.4,0.9c-1.7,1.3-0.6,0.2-0.9,2.6c-0.2,2.3,0.9,3,0.9,1.5s0.9,0,2.1-0.9c1.3-0.9,1.3-1.1,1.9-0.2
		c0.9,0.9,1.9-0.4,2.6,0.4c0.9,0.9,0,2.1-1.9,1.3c-1.9-0.9-0.9-0.2-0.2,1.3c0.6,1.5,2.8-0.9,4.5,0s2.3,0.9,1.5,1.9
		c-0.9,1.1,2.3,0.9,0,1.5c-2.3,0.4-1.3,0-1.3,1.7c-0.2,1.7,0.4,1.5,2.1,2.1c1.7,0.6,1.7,1.1,3,0.2s3-1.9,5.3,0.2
		c2.3,2.1,2.3,3,3.2,3c0.9,0-0.9,1.1-3.4-1.3c-2.6-2.3-3.8-2.3-4.5-0.4c-0.4,1.7,0.2,1.9-1.5,1.9c-1.7-0.2,0.9,0.2,2.1,1.3
		c1.3,1.1,2.6,1.5,0.9,3.2c-1.7,1.7-2.6,2.6-2.3,4.3c0.2,1.7,3.2,3.4,3.4,6.6s0.4,3,0.4,3s6,2.6,5.5,4c-0.2,1.5,1.5,0.6,2.3,1.9
		c0.9,1.3,0.6,2.1,1.9,0.6s1.5,0.6,0.9,1.7c-0.9,1.1-1.1,0.6-1.7,1.7s0.6,0.2,0.9,1.3c0.4,1.1,1.3,3,0.9,3.8
		c-0.2,0.9-1.5-0.4-1.3,1.3c0.4,1.7-1.1,2.1-1.1,3.2v1.3c0,0-1.3-1.5-1.9,0.4s-0.6,0.9,0.9,1.9c1.5,1.1,3.2,3.8,4.7,6l0,0
		c0.2,0.2,0.2,0.4,0.4,0.6c1.1,5.5,0,9,3.2,12.4l-0.4,1.9c0-0.2-0.2-0.4-0.4-0.9c-1.5-1.5-1.5-1.3-1.7-3.8c-0.2-2.6-0.4-4-1.3-6.8
		c-0.9-3-1.7-1.3-2.3-2.6c-0.6-1.3,0.6-3.2-0.9-2.6c-1.3,0.6-1.3,0.9-1.7,3c-0.4,2.3-1.9,7.2-2.6,11.1c-0.6,3.8-3.2,8.7-2.3,8.7
		c0.9,0.2,1.3-3.4,2.1-2.1c0.9,1.3,2.1,3,0.9,3.2c-1.3,0.2-1.9-0.6-2.3,0.4c-0.4,0.9-1.1,1.9-1.1,1.9s-5.1,16.8-7.2,22.4
		c-2.1,5.5-2.3,2.1-2.6,3.8c0,0,0,0,0,0.2c-0.6,0-1.3,0.2-1.9,0.2c-0.9,0.4-1.7,0.6-2.8,0.9c1.3,1.3,3.4,3.2,3.4,3.2
		c0.4,0.2,0.2-0.9,0.4-0.9c1.1,0.2,2.1,0.6,2.8,1.5c1.7,1.9-4,4.5-1.5,5.5c1.3,0.4,2.3-1.7,2.8-1.5c0.2,0.4-0.4,1.5,0,1.7
		c2.8,2.6,7.2,1.5,9.8,3.6c0.2,0.2,2.1,4.9,2.3,4.9c2.6,1.9,5.1-1.7,8.1,0.9c1.5,1.3,0.4,3.8,3,3.8c1.3,0.2,1.9-1.1,3.2-0.9
		s1.7,1.5,3,1.7c0.6,0,0.6-1.3,1.3-1.3c1.9-0.2,3.8,1.5,6,1.7c0,0-0.9-4.7,1.5-4.3c3.4,0.6,5.3,3,7.7,4.9c0.2,0.2,0.9,0,1.3,0
		c1.1,0.2,2.1,0.2,2.8,0.9c1.1,0.9,0.4,2.6,1.5,3.2v0.2c0.4-1.1,1.1-1.7,1.3-1.7c5.1-0.4,5.5,2.1,3.6,4.9c1.5,0.6,3,1.1,4,1.7
		c0.4,0.4,0.6,2.6,1.7,2.3c1.7-0.2,3-1.3,4.7-1.3c1.9,0,5.3,4,7.5,3.4c0.9-0.2,0-1.7,0.6-2.1c3-1.9,6.6-0.2,9.8,0.6h0.9
		c-1.3-1.1-2.3-1.9-2.8-3.2c-1.5-4,1.3-3,0.2-6.6c-0.2-0.6-1.7-0.4-1.7-1.1c0.2-2.1,2.8-3.4,3.2-5.3c0-0.6-1.1-1.5-0.6-1.7
		c2.3-3.4,6.4-2.6,8.3-3.6c2.1-1.3,5.3-5.3,7.7-6.4c1.9-1.3,4,1.5,5.5,2.1c0.6,0.4,7.7,1.3,7.9,1.9s-2.6,5.1,3.8,2.6
		c0.4-0.2,0.4-0.4,0.2-0.6c-0.9-0.9-3.8-2.3-1.7-4.7c0.4-0.6-0.2,3.4,1.7,4.7c0.2,0.2,0.6,0.2,1.1,0.4c1.5,0.2,3-0.4,4-1.5
		c0.6-0.9-1.5-3-0.4-3.2c1.5-0.2,3.6,1.1,3.6,2.6c-0.2,1.7-3.8,1.1-4,2.6c-0.2,1.3,2.1,0.9,3.4,0.9c0.9,0,1.5-1.5,1.9-0.9
		c0.9,1.1-0.2,3,0.9,4c1.1,1.1,2.6,0.9,4,1.3c0.9,0,1.5-0.2,1.9,0c2.8,1.5,1.5,2.3,1.5,2.8c0.2,0.4,0.9,0.4,1.5,0.4
		c0.6,0.2,1.5,0.2,1.7-0.2c0.4-0.4-2.3-1.7,0.2-1.5c4,0.2,2.6,3,4.5,2.3c1.7-0.6,2.8-2.3,4.7-2.8c1.3-0.2,3,0.6,4,0
		c0,0.4,0,0.4,0.4,0.2c0.9-0.4,0.6-0.6,0.9-1.5c0.2-0.9,1.3-1.3,0.2-1.3s-1.7-0.2-0.2-0.6c1.3-0.4,1.3-1.1,1.3-1.9
		c0.2-0.4,0.2-0.9,0.4-1.3c0,0,0,0,0.2,0c0.4-0.2,1.1,0.2,1.9,0.4c1.3,0.4,1.5-0.6,2.3-1.9c0.9-1.3-0.2-1.3,1.3-1.7
		c0.2,0,0.4,0,0.6-0.2l0,0c0.4,0,0.9,0,1.1,0s0.2,0,0.2,0s0,0,0.2,0s0.2,0,0.2-0.2l0,0c0.2-0.2,0.2-0.6,0-0.9v0.4
		c0.2-0.4,0.4-0.6,1.5-1.3c1.5-0.9,1.7-1.1,2.1-0.6l0,0c0,0.2,0,0.4,0.2,0.4s0.2-0.2,0-0.4l0,0c0.2,0.2,0.6,0.2,1.1,0v-0.2h-0.2
		c-0.6-0.2-0.4-0.9,0.6-1.5c0.2-0.2,0.4-0.2,0.6-0.4c0.4,0,0.4,0.2,0.4,0.6h0.4c0.4-0.4,0.6-0.4,1.3-0.9l0,0c0,0,0,0-0.2,0v-0.2l0,0
		c0,0,0,0-0.2,0l0,0c0,0,0-0.2-0.2-0.2c0-0.2-0.2-0.2-0.2-0.4s-0.2-0.2-0.2-0.4c0-0.2,0-0.4,0-0.4c0-0.2,0-0.2,0-0.4c0,0,0,0,0-0.2
		v-0.2l0.2-0.2c0.9-0.2,1.3-0.6,1.3-1.3c0-0.2,0-0.4,0-0.4l0,0l0.2-0.2l0,0c0.2,0,0.2,0,0.4,0c0.6-0.9,1.1-1.7,1.5-2.3l1.5-1.1
		c0,0-0.6,0-1.1-0.2c-0.2-0.2-0.4-0.2-0.4-0.6c0-0.2,0-0.4,0-0.6s-0.2-0.2-0.4-0.4c-1.1-0.6-2.3,0.2-3.6,0.4c-0.9,0-1.9,0.2-3,0.2
		c-0.4-0.4-1.3-1.1-2.3-1.5c-0.9-0.4-1.7-0.6-2.6-0.6c-1.9-1.5-3.4-3.4-3.4-4.9c0-0.4,1.1-0.4,1.1-0.9c0-0.2-0.2-0.2-0.4-0.4
		s-0.4-0.4-0.6-0.6c-0.4-0.4-0.9-0.9-0.4-1.5c0.9-0.9,1.7-1.3,2.3-2.3c0-0.2-0.2-0.2-0.2-0.4s0-0.2,0-0.4l0,0c0-0.2,0-0.2,0-0.4l0,0
		c0-0.2,0.2-0.2,0.2-0.4c0.2-0.2,0.4-0.4,0.6-0.4l0,0c0.2,0,0.4,0.2,1.1,0.2c0.2,0,0.2,0,0.2,0c0-0.2,0-0.6,0-0.9
		c-0.2-0.2-0.2-0.2-0.4-0.4c-0.9-0.4-0.6-1.7-0.4-2.8c0-0.2,0-0.2,0-0.4l0,0l0,0c-0.2-0.2-0.2-0.2-0.4-0.4c-0.2,0-0.4,0-0.6,0
		c-0.2,0-0.4,0-0.6,0.2c-0.9,0.2-1.5-0.2-2.6-1.1c-0.4-0.2-0.4-0.6-0.6-0.9c0,0,0,0,0-0.2s0-0.4,0-0.9c0.4-0.9,0.2-1.1,0-1.7
		s-1.1-0.4-1.7-0.2c-0.4-0.6-0.6-1.3-0.6-1.9c0-1.1,1.7-1.1,2.8-1.3c0.2,0,0.4,0,0.4,0.2l0,0c0.2,0.2,0.2,0.2,0.4,0.4
		s0.2,0.2,0.4,0.4c0.4-0.4,0.9-0.9,1.1-1.1c0.4-0.2,1.5-1.3,2.8-1.5c1.7-1.7,3.4-3.6,3-4.5c-0.6-1.3-2.6-1.5-3.2-2.8
		c-0.6-0.9,0.2-2.1-0.2-3c-2.8-4.9-8.1-2.3,1.3-7.9c-0.4-0.6-0.6-1.3-0.9-1.9l0,0l0,0c-0.2-0.6-0.4-1.1-1.1-1.7c0-0.2-0.4,0-0.6,0.2
		l0,0c-0.2,0-0.2,0.2-0.4,0.2s-0.2,0-0.2,0c-0.2-0.6,0.9-1.5,0.4-2.1c-0.2-0.6-1.5,0-1.7-0.4c-1.3-1.9,1.5-1.9,1.5-3
		c0-0.2-0.2-0.4-0.2-0.6c-0.2-0.4-0.6-0.6-0.9-1.1c-0.2-0.2-0.2-0.4-0.2-0.6c-0.2-0.4,1.1-1.5,0.9-1.9c0,0,0,0-0.2-0.2
		c-2.6-1.3-8.1-1.3-10,1.7l-0.2,0.2v0.2l0,0c0,0.2,0,0.4,0,0.6H204c0.2,0.4,0.2,0.9,0.4,0.9h0.2c0.2,0,0.2,0,0.4,0
		c0.2,0.2,0,0.4-0.2,0.9c0,0.2-0.2,0.2-0.4,0.2s-0.2,0-0.4,0c0,0,0,0-0.2,0c-0.4,0-0.6,0.2-0.9,0.6c-0.2,0.4-0.6,0.6-1.3,0.9
		c-0.6,0.2-1.1,0-1.5,0c-0.4-0.2-0.9,0-1.3,0.2c-0.2,0-0.4,0.2-0.6,0.2c-0.2,0-0.2,0-0.2-0.2s0.2-0.2,0.2-0.4l0,0
		c0-0.2,0.2-0.2,0.2-0.4c0.2-0.2,0.2-0.4,0-0.6c-0.2-0.2-0.2-0.2-0.2-0.4c0,0,0.2-0.2,0.4-0.2s0.4-0.2,0.6-0.2
		c0.2,0,0.4-0.2,0.9-0.2c0.9,0,1.7,0,1.7,0c-0.2,0-0.2-0.2-0.4-0.2c-0.2-0.2-0.2-0.6-0.2-0.9c0-0.2,0-0.4,0.2-0.4
		c0,0,0.2-0.2,0.2-0.4c0,0,0,0,0-0.2l0,0l0.9-0.9l-1.9-1.5l0,0l0,0l0,0l0,0l0.4-0.4l-0.4-0.6l1.7-1.9l-0.9-1.1c0,0,0.9-0.9,1.3-0.9
		c0,0,0.2-0.2,0.4-0.2c0.2-0.2,0.4-0.4,0.6-0.6c0.4-0.4,1.1-1.1,1.5-1.1c0.6-0.2,1.9-0.9,2.3-1.5c0.6-0.4,0.4-0.6,0.4-0.6L207,225
		c0,0,1.1-0.9,0.9-1.7c-0.2-0.9-0.6-1.5-0.6-1.5l0,0c0.2-0.4,0.6-0.6,0.9-0.9c0.2,0,0.4-0.2,0.6-0.2c0.6-0.2,1.1-0.2,1.7-0.4h0.2
		l0,0c0.4-0.2,0.9-0.4,1.1-0.6c0.6-0.4,1.3-1.7,1.9-2.8c0.2,0,0.6,0,0.9-0.2c1.3-0.4,0.9-1.5,1.9-1.9c0.9-0.4,0.4-1.3,0.2-1.7
		c0.9-0.4,1.7,1.3,1.9-1.3c0-1.1-3,1.1-3.2,0c-0.4-1.1,1.3-1.7,1.9-2.6c0,0,0.4,0.2,0.4,0s0-0.2-0.2-0.4c0.2-0.2,0.4-0.4,0.6-0.6
		c0.2-0.9,1.1-0.2,1.3,0.2c0.2,0.2,0.4,0.2,0.9-0.2c0.4,0.2,0.9,0.6,1.3,1.1l0,0c-0.2,0.4,0,0.4,0.2,0.9c0.2,0.4,0.4-0.2,0.6,0
		c0.4,0.4,1.5-0.2,1.5-0.2l1.3,0.4l0.9-0.9l-0.6-0.6c0.2,0,0.2-0.2,0.4-0.4l0.6,0.6c0,0,0.9-0.4,0.6-0.9l-0.2-0.2l0.6-0.9l1.1,0.2
		l0.2-0.2l0,0l0,0v-0.2l-0.2-0.6c0-0.4-0.2-0.4-0.2-0.6c0-0.2-0.9-0.6-1.1-1.5c0-0.9,0-0.6,0.4-1.1c0.4-0.4,0.2-1.1,0-1.7
		c-0.2-0.6,1.1-1.3,0.9-1.9c-0.2-0.6,0.4-0.9,0.4-1.5s0.6-1.3,0.9-1.7c0.2-0.4-0.4-0.9-1.7-1.9l0,0c-0.2-1.1,0.2-1.9,0.6-3l2.8-4.7
		c0-0.4,0.2-1.5,0.2-2.6l0,0c0.2-1.7,0.4-3.4,0.6-4.3c1.7-3.2,5.5-5.5,7.9-9.4v-0.2c-0.9-1.3-11.3-2.6-11.9-3.2l0,0l0,0
		c-0.6-0.6-0.2-1.7-0.9-2.3c-1.1-0.9-7.5,1.7-7.7,1.3l0,0l0,0c-0.2-0.6,0.6-1.3,0.2-1.7c-6-5.3-1.9,2.8-4.3,0.2l0,0l0,0
		c-0.2-0.2-0.4-0.4-0.6-0.9c-1.3-1.9-2.1-4.9-3.4-6.2l0,0c-0.2-0.2-0.4-0.4-0.6-0.4c-0.4-0.4-1.5-0.2-1.9-0.4
		c-0.6-0.4-1.1-1.1-1.1-1.3c0-0.6-2.1-1.1-2.6-0.4c-0.2,0.2-0.2,0.4-0.4,0.6c-0.4,0-0.6,0.2-1.1,0.4c-0.6,0-1.5,0.2-1.5-0.4
		c0-0.6-2.1-0.9-1.9-1.3c0-0.4-0.4-0.4-1.1-0.6c-0.4-0.2-0.6,0.2-0.9,0.9c-0.4-0.2-0.9-0.2-1.1-0.2c-1.5-0.2-2.8,1.3-4,0.6
		c-1.1-0.4-0.2-2.1-0.9-3c-0.4-0.6-1.5-0.2-1.9-0.6c-0.2-0.2,0.9-0.6,0.9-0.9c-0.2-0.4-0.4-0.9-0.9-1.1c-0.4-0.2-1.1,0.6-1.3,0.4
		c-0.2-0.2-0.4-0.4-0.6-0.6c-0.2,0-0.4-0.2-0.6-0.2c-0.4-0.2-0.6-1.1-1.1-1.3c-0.2,0-0.4-0.2-0.6-0.4c-1.3-0.2-2.6,0-3.2-0.9
		c-0.9-0.9,0.9-1.9,0.9-3c-0.2-0.6-0.9-0.9-1.3-1.3c0.2-0.6,0.6-1.5,0.4-1.7c-0.2-0.4,1.3-2.1,1.3-2.1l-0.9-0.2l-2.6,2.1v1.7l0,0
		c0,0-1.9,0.2-2.3,0.6c-0.4,0.4-1.7,0.4-2.8,0c-2.3,0-4.7-0.9-4.3-1.5c0.6-1.1,1.7-1.5,1.7-2.6c0-0.6-1.7-0.6-1.5-1.5
		c0-1.1,1.1-1.7,1.5-2.8l-0.6,0.2l-1.7-2.8H171c-0.6,0.2-1.1,0.2-1.7,0.4c-1.1,0.4-1.1-0.4-2.3-0.6c-1.3-0.2-1.1,1.3-1.7,0.9
		c-0.4-0.2-0.6-0.9-0.4-1.7c0,0,0,0,0-0.2c-0.2-0.4,0-1.1,0.2-1.7c0-0.2-0.2-0.4-0.2-0.9c-0.2-0.9-1.1-0.6-1.9-0.6
		c-0.6,0-0.6-0.2,0-1.1c-0.4,0-0.6,0-1.1,0c-0.9,0.9-1.5,1.1-2.1,0.4c-0.6-0.6-1.3-1.1-1.1-2.1c-0.2-0.9-0.2-2.1-0.2-3.4
		c-0.4-0.2-0.4-0.4-0.6-0.9c-0.2-0.9-0.2-1.3-0.6-1.3c-0.4,0-1.1,0.2-1.5,0.2s-1.1,0.4-1.7,0.6c-0.4,0.2-0.4,1.3-1.1,1.3
		c-0.9,0.2-1.9-0.9-2.1-1.9c-0.4-0.4-0.9-1.1-1.3-1.7h-0.2c-0.6,0.2-0.9-0.6-0.9-1.7c-0.2-1.1-0.2-1.3,0.2-1.7
		C149.1,109.7,149.1,108.2,148.9,107.1L148.9,107.1z M7.6,155.5c-1.1,0.4-1.9,1.3-0.9,1.3C7.6,157,8.8,156.8,7.6,155.5z M35.9,181.1
		c-0.6,0-0.6,0.9,0.2,1.3c1.3,0.6,2.1,0.2,0.4-1.1C36.5,181.3,36.1,181.1,35.9,181.1z M39.3,189c-0.9,0.2-0.9,1.9,1.7,3.2
		c3,1.7,0.9-1.7-0.6-3c-0.2-0.2-0.4-0.2-0.6-0.2C39.7,189,39.5,189,39.3,189z M55.1,201.1c0,0-1.5,1.5,0.2,1.9s2.3,1.3,1.5,0.2
		C55.7,202.2,57.6,201.5,55.1,201.1z M230.7,204.3l-0.9,0.9L230.7,204.3h0.9l0,0H230.7z M235.2,204.9c0,0,0,0.2,0.2,0.2l0,0
		C235.4,205.2,235.4,204.9,235.2,204.9L235.2,204.9z M232.6,205.6c-0.2,0-0.4,0.2-0.6,0.2c-0.4,0-0.6,0-0.9,0c0.2,0,0.4,0,0.9,0
		C232.2,205.8,232.4,205.6,232.6,205.6z M52.3,207.9l-0.9,1.7L54,210L52.3,207.9z M64.7,223.7c-1.3,0-2.3,1.1-0.2,1.3
		c1.9,0.2,3,2.1,4.5,2.1S67.4,223.7,64.7,223.7z M66.6,229.7c-0.9,0.9-0.4,3.4,0.6,5.1c1.1,1.9,1.7-0.2,1.7-1.7
		C68.7,231.8,67.9,231.4,66.6,229.7z M261,325.2c-0.9,1.7-2.3,2.8-2.6,4.5c-0.2,1.5,1.3,4,0,4c-1.5,0-2.3-1.7-3.6-1.5
		c-1.1,0.2-1.1,1.9-1.9,2.6c-0.9,0.4-1.7-0.4-2.6,0c-1.1,0.4-1.3,1.7-2.1,1.9c-0.4,0.2-0.9-1.3-1.1-0.9c-0.9,1.3-0.6,3-1.1,4.5
		c-0.4,0.6-2.6,0-2.3,0.9c0.6,1.3,2.6,1.7,2.6,3c0,1.5-2.6,1.7-2.3,3c0.4,1.7,3.4,1.3,3.6,2.8c0.2,1.5-3,2.1-2.6,3.8
		c0.2,1.3,3.4-1.3,3.6,0c0.2,1.7-3,2.3-3,4c-0.2,1.5,2.1,1.7,2.8,3c0.4,0.9-0.9,1.5-0.4,2.1c1.7,3,3.4,1.1,6,1.7
		c0.6,0.2-0.2,6,2.6,3.2c1.1-1.3,0.4-3,1.1-4.5c0.4-0.6,1.5-0.6,1.5-1.5c0.2-0.4-1.3,0.2-1.3-0.4c0-0.4,1.1,0,1.3-0.4
		c2.1-2.3,1.3-6,1.3-8.5c0-2.3,3.4-4.9,3.2-8.3c0-1.3,0-5.5-0.6-7c0-0.2-0.2-0.4-0.4-0.6c0.2,0,0.2,0,0.2-0.2
		c-0.4-0.9-1.5-3-1.5-2.1c0.2,0.9,0.9,1.5,1.3,2.3c-0.4-0.2-1.5-1.3-1.5-1.9C261,332.6,263.7,327.3,261,325.2z"/>
	<path id="lu" class="st0" d="M204.9,135.3c-0.9-0.2-0.9,0.9-1.3,1.3c-0.9,0.2-1.3,0.9-1.1,1.7s-0.6,0.9-1.1,1.3
		c0.4,0.4,0,1.1-0.4,1.1c-0.2,0.2-0.4,0.6-0.6,1.1c-0.2,0.4-0.2,0.6,0.2,0.9c-0.2,0.4-0.6,1.1-0.6,1.5s0.2,0.6,0.4,0.9
		c0.2,0.2,0.6,0.2,0.6,0.6c0,0.6,0.4,1.3,1.1,1.5c-0.2,0.4-0.4,0.9,0,1.1c0.4,0.6-0.6,1.3-0.6,1.9c0.2,0.4-0.2,0.9-0.6,1.3
		c0.2,0,0.6,0.2,0.4,0.4c0,0.4,1.9,0.6,1.9,1.3c0,0.4,0.9,0.4,1.5,0.4c0.4-0.2,0.6-0.2,1.1-0.4c0-0.2,0.2-0.2,0.4-0.4
		c0.4-0.6,2.6-0.2,2.6,0.4c0,0.2,0.2,0.4,0.4,0.6c0.4-0.4,0.6-0.6,0.6-1.1c-0.2-0.9-0.2-1.7,0.2-2.1c0.4-0.4,0.2-0.9,0.6-1.3
		c0.4-0.4-0.2-1.1,0.9-1.5c0.4-0.2,0.6-0.6,0.6-1.1c0-0.4,0-0.9,0-1.3c0-0.9-0.2-0.6-1.1-0.6c-0.9,0.2-0.6-0.2-1.1-0.9
		c-0.4-0.6-0.6,0.4-1.1-0.4c-0.4-0.6-1.1-0.6-1.3-1.5s-0.2-1.5-0.9-1.3c-0.6,0.2-0.6-1.3-0.6-1.9c0,0-0.4-1.1,0-1.5s0.6-0.4,0.2-0.9
		c-0.4-0.4-0.2-0.4-0.2-0.6c-0.2-0.4-0.4-0.2-0.9,0C205.1,136.3,205.3,135.5,204.9,135.3L204.9,135.3z"/>
	<path id="li" class="st4" d="M263.7,213.7c-0.2,0.4-0.6,1.3-0.9,1.7c0,0.4,0.4,0.9,0.4,1.5c0,0.4,0.2,0.9,0,1.1
		c-0.4,0.2-0.4,0.2-0.6,0.4s0.6,0.2,0.6,0.2c0.2-0.2,0.6-0.2,0.6,0.2c0.2,0.4,0.6,0.2,0.9,0c0,0,0,0,0.2,0c0-0.4,0-0.4,0.4-0.4
		c0.4-0.2,0.2-0.4,0-0.6c-0.2-0.4,0.2-0.2,0-0.6c-0.2-0.2,0.2-0.4,0-0.4c0-0.2-0.4,0-0.4-0.2s-0.2-0.2-0.4-0.4s0-0.2,0-0.4
		s0,0,0.2-0.4c0.2-0.2-0.6-0.4-0.4-0.9C264.4,213.9,263.7,213.7,263.7,213.7z"/>
</g>
</svg>
